<?xml version="1.0" encoding="UTF-8" standalone="no" ?>
<!DOCTYPE svg PUBLIC "-//W3C//DTD SVG 1.1//EN" "http://www.w3.org/Graphics/SVG/1.1/DTD/svg11.dtd">
<svg xmlns="http://www.w3.org/2000/svg" xmlns:xlink="http://www.w3.org/1999/xlink" version="1.1" width="400" height="400" viewBox="0 0 400 400" xml:space="preserve">
<desc>Created with Fabric.js 3.6.3</desc>
<defs>
</defs>
<rect x="0" y="0" width="100%" height="100%" fill="rgba(255, 255, 255, 1)"></rect>
<g transform="matrix(1 0 0 1 205 240.24)" style=""  >
		<text xml:space="preserve" font-family="'Open Sans', sans-serif" font-size="18" font-style="normal" font-weight="normal" style="stroke: none; stroke-width: 1; stroke-dasharray: none; stroke-linecap: butt; stroke-dashoffset: 0; stroke-linejoin: miter; stroke-miterlimit: 4; fill: rgb(0,0,0); fill-rule: nonzero; opacity: 1; white-space: pre;" ><tspan x="-108.5" y="5.97" style="font-size: 19px; font-weight: bold; ">Your Company Name</tspan></text>
</g>
<g transform="matrix(1 0 0 1 229.48 273.67)" style=""  >
		<text xml:space="preserve" font-family="'Open Sans', sans-serif" font-size="18" font-style="normal" font-weight="normal" style="stroke: none; stroke-width: 1; stroke-dasharray: none; stroke-linecap: butt; stroke-dashoffset: 0; stroke-linejoin: miter; stroke-miterlimit: 4; fill: rgb(0,0,0); fill-rule: nonzero; opacity: 1; white-space: pre;" ><tspan x="-81.99" y="5.65" >slogan here</tspan></text>
</g>
<g transform="matrix(0.31 0 0 0.25 195.01 171.65)" id="path50"  >
<linearGradient id="SVGID_linearGradient4961_603" gradientUnits="userSpaceOnUse" gradientTransform="matrix(2.5 0 0 -2.5 -105.65 853.93)"  x1="203.446" y1="172.96274" x2="202.78383" y2="12.743393">
<stop offset="0%" style="stop-color:rgb(253,200,44);stop-opacity: 1"/>
<stop offset="23.9968%" style="stop-color:rgb(253,200,44);stop-opacity: 1"/>
<stop offset="100%" style="stop-color:rgb(35,111,70);stop-opacity: 1"/>
</linearGradient>
<path style="stroke: none; stroke-width: 1; stroke-dasharray: none; stroke-linecap: butt; stroke-dashoffset: 0; stroke-linejoin: miter; stroke-miterlimit: 4; fill: url(#SVGID_linearGradient4961_603); fill-rule: nonzero; opacity: 1;"  transform=" translate(-351.43, -620.93)" d="m 482.98336 421.14263 l -61.6798 47.07812 c -6.555 5.17 -12.9152 10.28016 -19.0702 15.34766 c -6.16 5.065 -11.9228 9.98499 -17.2852 14.75 c -6.36 5.96 -10.031 9.4358 -11.0234 10.4258 c -6.16 5.96 -11.725 11.91889 -16.6876 17.87889 l 4.7696 5.96092 c 11.5174 -14.49749 26.1182 -28.50561 43.8008 -42.01561 l 47.9764 -34.26564 l 8.6408 -0.59764 c 21.4524 0 39.524 10.62781 54.2264 31.88282 c 13.1126 18.8775 19.668 38.545 19.668 59 c 0 24.2375 -0.896 42.21608 -2.6836 53.93357 c -2.5824 16.09 -8.0442 34.17047 -16.3866 54.23046 l -39.0352 93.85939 l -4.7656 0 c -3.38 -5.955 -11.4242 -19.36767 -24.1368 -40.22266 c -6.5524 -10.7275 -18.0774 -29.39952 -34.5624 -56.01952 c -5.96 -9.3375 -11.822 -18.7761 -17.582 -28.3086 l -2.383 0 c -0.795 0 -1.7904 1.19172 -2.9804 3.57422 c -1.1924 2.38249 -2.787 5.86609 -4.7696 10.4336 l -8.6406 20.85546 l -1.1914 23.53906 l 62.5742 108.46486 c 0.99 1.785 1.983 3.77452 2.9806 5.95702 c 0.99 2.19 1.4882 4.07266 1.4882 5.66016 c 0 1.3925 -0.348 3.52766 -1.043 6.41016 c -0.6974 2.8775 -1.043 5.01874 -1.043 6.40624 c 0 2.1875 1.1918 3.97328 3.5744 5.36328 c 9.85 -10.7725 18.252 -22.27016 25.242 -34.47266 c 2.03 -3.55 3.96 -7.1528 5.75 -10.8203 c 12.91 -23.4375 25.1274 -47.47828 36.6524 -72.11328 c 0.645 -1.4075 1.2532 -2.77298 1.8906 -4.16798 c 13.995 -30.7225 25.204 -58.75484 33.5664 -84.02734 c 0.93 -2.84 1.7658 -5.58734 2.6134 -8.33985 c 7.595 -24.6775 11.9388 -45.8525 12.9414 -63.4375 c 0.152 -2.67249 0.2382 -5.27263 0.2382 -7.78514 c 0 -31.77749 -8.2468 -59.09639 -24.7344 -81.94139 c -15.495 -21.65001 -32.58 -32.47658 -51.25 -32.47658 l -5.6602 0 z m -260.7266 5.95702 l -84.0274 60.1875 c 0 4.1725 0.9866 6.26562 2.9766 6.26562 c 2.5774 -0.1974 4.7162 -0.30076 6.4062 -0.30076 c 1.685 0 3.6226 -0.0968 5.8126 -0.29688 c -0.4 4.17 -0.7456 8.8389 -1.043 14.00389 c -0.295 5.165 -0.4492 10.53095 -0.4492 16.08594 c 0 33.3725 6.0558 66.25781 18.1758 98.63282 c 10.1324 27.01998 25.3298 55.42264 45.5898 85.22264 c 10.7274 15.8925 22.4476 32.08032 35.1602 48.57032 c 9.135 11.9175 18.2778 23.73704 27.4178 35.45704 c 7.9426 10.32751 12.5146 17.0842 13.7072 20.2617 c 3.575 5.3625 6.55 7.84532 8.9374 7.44533 l 3.5782 -0.59375 l 42.3124 -106.375 l -11.621 -0.89454 c -4.77 9.735 -8.446 17.18266 -11.0234 22.34766 c -7.95 15.895 -13.0168 25.13344 -15.1994 27.71094 c -31.39 -36.1525 -55.6778 -74.4397 -72.8554 -114.8672 c -17.185 -40.42249 -25.7774 -82.08998 -25.7774 -124.99998 c 0 -18.275 1.1956 -34.01298 3.5782 -47.23048 c 2.385 -13.2075 6.1528 -27.5597 11.3204 -43.05469 l -2.9766 -3.57812 z m 141.5352 26.22268 c -10.5326 0 -22.8444 8.9364 -36.9494 26.8164 c -14.895 19.07 -22.3436 37.54938 -22.3436 55.42188 c 0 16.8925 6.9504 37.4486 20.8554 61.6836 c 6.7526 11.12498 11.6216 19.36794 14.6016 24.73044 c 4.7674 8.5425 8.1438 14.70266 10.1288 18.47266 l 5.6642 0 l 20.5624 -53.33594 c -8.94 -17.285 -16.0944 -31.88076 -21.457 -43.80076 c -5.9624 -13.1075 -8.9374 -22.64548 -8.9374 -28.60548 c 0 -11.1225 1.982 -21.64842 5.957 -31.58592 c 3.97 -9.9325 8.143 -14.89846 12.5156 -14.89846 c 3.375 0 7.1516 1.49266 11.3242 4.47266 c 3.7724 3.3775 7.5452 6.65704 11.3202 9.83204 c 1.3876 -0.79 2.383 -1.38908 2.9806 -1.78908 c 2.185 -1.5875 3.7744 -3.37966 4.7694 -5.36716 c -4.1724 -4.96 -7.5502 -8.63846 -10.1328 -11.02346 c -7.9474 -7.345 -14.8992 -11.02342 -20.8592 -11.02342 z m 43.8046 47.07812 c -1.7876 0.5975 -3.8728 1.59296 -6.2578 2.98046 c -1.19 0.795 -2.5868 1.79046 -4.1718 2.98046 c 0.595 3.575 1.1392 7.4486 1.6366 11.6211 c 0.4926 4.1675 0.7462 8.24376 0.7462 12.21876 c 0 4.1675 -0.6986 9.63422 -2.086 16.38672 c -0.2 1.19 -0.5964 2.68126 -1.1914 4.46876 c -0.9976 6.36 -3.032 14.2564 -6.1094 23.6914 c -3.0826 9.4375 -7.299 21.00342 -12.664 34.71092 l -30.6876 76.57812 l 11.0196 1.4922 c 1.5874 -2.9775 2.783 -5.46172 3.578 -7.44922 c 6.155 -12.9125 10.2314 -22.05157 12.2188 -27.41407 l 17.879 -47.97265 c 7.3474 -15.88749 13.0068 -30.29204 16.9844 -43.20704 c 3.97 -12.9125 5.957 -24.4339 5.957 -34.5664 c 0 -10.1275 -2.2842 -18.96702 -6.8516 -26.51952 z m 54.5274 51.2539 c -4.1726 0 -8.0946 1.73842 -11.7696 5.21092 c -3.68 3.48 -5.5118 6.90876 -5.5118 10.28126 c 0 2.385 0.4908 4.42438 1.4884 6.10938 c 0.9924 1.69 2.6838 2.53124 5.0664 2.53124 c 3.77 -1.3875 6.9526 -2.08592 9.5352 -2.08592 c 4.7674 0 9.583 2.73672 14.453 8.19922 c 4.865 5.46248 7.3008 10.67562 7.3008 15.64062 c 0 9.9325 -5.2654 22.04656 -15.793 36.35156 c -8.5424 11.5225 -19.1742 23.0489 -31.8866 34.5664 c -0.795 0.795 -0.5948 1.78546 0.5976 2.98046 c 1.9826 1.3925 3.3744 2.38298 4.1718 2.98048 c 18.2726 -13.9025 31.9812 -27.81126 41.1212 -41.71876 c 9.135 -13.9025 13.707 -28.30562 13.707 -43.2031 c 0 -10.1325 -3.0858 -18.97346 -9.2382 -26.52346 c -6.16 -7.5475 -13.9072 -11.3203 -23.2422 -11.3203 z m -155.543 29.4961 c -11.1276 8.54498 -18.8748 18.08188 -23.2422 28.60936 c -2.7826 6.5525 -4.1718 13.4111 -4.1718 20.5586 l 0 3.57422 c 0 20.26 8.0466 37.05328 24.1366 50.36328 c 16.0876 13.3075 36.2508 19.96094 60.4884 19.96094 l 14.6014 -1.19142 l 0 -5.66406 c -0.595 -2.1825 -1.6898 -3.07718 -3.2772 -2.67968 c -1.39 0.4 -2.9322 0.69702 -4.6172 0.89452 c -1.69 0.2 -3.4274 0.29688 -5.215 0.29688 c -17.0874 0 -33.2778 -4.96594 -48.5702 -14.89844 c -17.2826 -11.3225 -25.9218 -25.13186 -25.9218 -41.42186 c 0 -9.93 1.982 -19.96376 5.957 -30.09376 c 2.1824 -5.7575 6.2586 -13.8067 12.2186 -24.1367 l -2.3866 -4.17188 z" stroke-linecap="round" />
</g>
</svg>