<?xml version="1.0" encoding="UTF-8" standalone="no" ?>
<!DOCTYPE svg PUBLIC "-//W3C//DTD SVG 1.1//EN" "http://www.w3.org/Graphics/SVG/1.1/DTD/svg11.dtd">
<svg xmlns="http://www.w3.org/2000/svg" xmlns:xlink="http://www.w3.org/1999/xlink" version="1.1" width="400" height="400" viewBox="0 0 400 400" xml:space="preserve">
<desc>Created with Fabric.js 3.6.3</desc>
<defs>
</defs>
<rect x="0" y="0" width="100%" height="100%" fill="rgba(255, 255, 255, 1)"></rect>
<g transform="matrix(1 0 0 1 231.5 244.24)" style=""  >
		<text xml:space="preserve" font-family="'Open Sans', sans-serif" font-size="18" font-style="normal" font-weight="normal" style="stroke: none; stroke-width: 1; stroke-dasharray: none; stroke-linecap: butt; stroke-dashoffset: 0; stroke-linejoin: miter; stroke-miterlimit: 4; fill: rgb(0,0,0); fill-rule: nonzero; opacity: 1; white-space: pre;" ><tspan x="-134" y="5.97" style="font-size: 19px; font-weight: bold; ">Your Company Name</tspan></text>
</g>
<g transform="matrix(1 0 0 1 227.49 277.67)" style=""  >
		<text xml:space="preserve" font-family="'Open Sans', sans-serif" font-size="18" font-style="normal" font-weight="normal" style="stroke: none; stroke-width: 1; stroke-dasharray: none; stroke-linecap: butt; stroke-dashoffset: 0; stroke-linejoin: miter; stroke-miterlimit: 4; fill: rgb(0,0,0); fill-rule: nonzero; opacity: 1; white-space: pre;" ><tspan x="-85.99" y="5.65" >slogan here</tspan></text>
</g>
<g transform="matrix(1.14 0 0 1.14 196.82 156.95)"  >
<g style=""   >
		<g transform="matrix(1.25 0 0 -1.25 41.26 50.83)" id="path14"  >
<path style="stroke: none; stroke-width: 1; stroke-dasharray: none; stroke-linecap: butt; stroke-dashoffset: 0; stroke-linejoin: miter; stroke-miterlimit: 4; fill: rgb(143,65,65); fill-rule: evenodd; opacity: 1;"  transform=" translate(-81.43, -5.64)" d="m 83.449 1.248 c -1.5 -0.597 -2.949 -0.847 -4.347 -0.75 c -1.5 0.067 -2.551 0.852 -3.153 2.352 c -0.566 1.367 -0.515 2.352 0.153 2.949 c 0.796 0.668 2.199 2.332 4.199 5 l 7 -1.648 l -2.051 -6.949 c -0.469 -0.336 -1.066 -0.653 -1.801 -0.954 z" stroke-linecap="round" />
</g>
		<g transform="matrix(1.25 0 0 -1.25 40.38 -44.56)" id="path16"  >
<path style="stroke: none; stroke-width: 1; stroke-dasharray: none; stroke-linecap: butt; stroke-dashoffset: 0; stroke-linejoin: miter; stroke-miterlimit: 4; fill: rgb(202,92,92); fill-rule: evenodd; opacity: 1;"  transform=" translate(-80.72, -81.95)" d="m 89.801 87.202 l -5.5 -12 l -12.653 10.5 l 14.653 3 l 3.5 -1.5 z" stroke-linecap="round" />
</g>
		<g transform="matrix(1.25 0 0 -1.25 53.34 -2.37)" id="path18"  >
<path style="stroke: none; stroke-width: 1; stroke-dasharray: none; stroke-linecap: butt; stroke-dashoffset: 0; stroke-linejoin: miter; stroke-miterlimit: 4; fill: rgb(199,180,141); fill-rule: evenodd; opacity: 1;"  transform=" translate(-91.1, -48.2)" d="m 92.102 87.35 l 2.949 1.699 l 1 -1.25 l 0.25 -69.25 l -10.403 -11.199 l 0.454 77 l 1.847 1.148 c 1.469 0.868 2.77 1.485 3.903 1.852 z" stroke-linecap="round" />
</g>
		<g transform="matrix(1.25 0 0 -1.25 53.28 -2.37)" id="path20"  >
<path style="stroke: none; stroke-width: 1; stroke-dasharray: none; stroke-linecap: butt; stroke-dashoffset: 0; stroke-linejoin: miter; stroke-miterlimit: 4; fill: rgb(255,226,168); fill-rule: evenodd; opacity: 1;"  transform=" translate(-91.05, -48.2)" d="m 94.551 80.35 v 4.648 c -0.067 1.536 -0.235 2.235 -0.5 2.102 l -5.801 -3.75 c -0.969 -0.699 -1.418 -2.898 -1.352 -6.602 v -56.847 c 0 -5.5 0.168 -8.184 0.5 -8.051 l 7.352 8.602 c 0.133 0.398 0.184 1.75 0.148 4.046 c -0.031 2.704 -0.046 4.571 -0.046 5.602 l -0.301 50.25 z m -2.449 7 l 2.949 1.699 l 0.847 -1.051 l 0.301 -65.847 c 0 -1.965 -0.035 -3.235 -0.097 -3.801 l -10.204 -11 l 0.454 77 l 1.847 1.148 c 1.469 0.868 2.77 1.485 3.903 1.852 z" stroke-linecap="round" />
</g>
		<g transform="matrix(1.25 0 0 -1.25 52.78 -0.79)" id="path22"  >
<path style="stroke: none; stroke-width: 1; stroke-dasharray: none; stroke-linecap: butt; stroke-dashoffset: 0; stroke-linejoin: miter; stroke-miterlimit: 4; fill: rgb(153,72,72); fill-rule: evenodd; opacity: 1;"  transform=" translate(-90.65, -46.93)" d="m 85.199 84.549 c 0.301 1.567 0.668 2.418 1.102 2.551 l 9.301 4.301 c 0.664 1.168 1 -0.852 1 -6.051 l 0.25 -63.801 c 0 -3.367 -0.235 -5.148 -0.704 -5.347 l -10.898 -14 c -0.398 -0.368 -0.648 1.046 -0.75 4.25 c -0.031 1.265 -0.051 3.796 -0.051 7.597 l 0.403 65.403 c 0 1.929 0.117 3.632 0.347 5.097 z m 10 -0.199 c -0.066 1.535 -0.23 2.234 -0.5 2.102 l -5.801 -3.75 c -0.964 -0.668 -1.414 -2.852 -1.347 -6.551 v -56.903 c 0 -5.531 0.183 -8.199 0.551 -8 l 7.296 8.602 c 0.133 0.398 0.204 1.734 0.204 4 c -0.071 2.699 -0.102 4.566 -0.102 5.602 l -0.301 50.25 v 4.648 z" stroke-linecap="round" />
</g>
		<g transform="matrix(1.25 0 0 -1.25 53.93 -4.62)" id="path24"  >
<path style="stroke: none; stroke-width: 1; stroke-dasharray: none; stroke-linecap: butt; stroke-dashoffset: 0; stroke-linejoin: miter; stroke-miterlimit: 4; fill: rgb(255,226,168); fill-rule: evenodd; opacity: 1;"  transform=" translate(-91.57, -50)" d="m 94.602 78.151 c 0.062 -0.633 -0.188 -2.067 -0.75 -4.301 c -0.602 -2.367 -0.883 -4.051 -0.852 -5.051 c -0.266 -20.133 -0.398 -30.582 -0.398 -31.347 c 0 -0.836 0.164 -3.02 0.5 -6.551 c 0.23 -3.332 0.148 -5.367 -0.25 -6.102 c -0.102 -0.23 -0.168 -0.801 -0.204 -1.699 c 0 -0.734 -0.164 -1.234 -0.5 -1.5 c -0.464 -0.398 -1.117 -0.566 -1.949 -0.5 c -0.867 0.066 -1.367 0.418 -1.5 1.051 c -0.23 1.097 -0.23 3.051 0 5.847 c 0.332 2.938 0.52 4.735 0.551 5.403 c 0.332 2.066 0.602 4.051 0.801 5.949 c 0.433 3.633 0.582 7.117 0.449 10.449 c -0.531 11.067 -0.766 17.817 -0.699 20.25 c 0.035 2.035 0.215 3.852 0.551 5.449 c 0.367 1.836 0.847 2.883 1.449 3.153 c 0.465 0.199 0.98 0.285 1.551 0.25 c 0.765 -0.035 1.179 -0.285 1.25 -0.75 z" stroke-linecap="round" />
</g>
		<g transform="matrix(1.25 0 0 -1.25 55.57 -4.53)" id="path26"  >
<path style="stroke: none; stroke-width: 1; stroke-dasharray: none; stroke-linecap: butt; stroke-dashoffset: 0; stroke-linejoin: miter; stroke-miterlimit: 4; fill: rgb(153,72,72); fill-rule: evenodd; opacity: 1;"  transform=" translate(-92.88, -49.92)" d="m 93.801 78.651 c 0.73 0.301 1.133 -0.668 1.199 -2.903 c 0.031 -1.332 0.031 -3.648 0 -6.949 c -0.266 -20.133 -0.398 -30.582 -0.398 -31.347 c 0 -0.836 0.164 -3.02 0.5 -6.551 c 0.23 -3.332 0.148 -5.367 -0.25 -6.102 c -0.602 -1.23 -1.336 -2.25 -2.204 -3.051 c -1.066 -0.933 -1.714 -0.796 -1.949 0.403 c -0.23 1.097 -0.23 3.051 0 5.847 c 0.332 2.934 0.52 4.735 0.551 5.403 c 0.332 2.066 0.602 4.051 0.801 5.949 c 0.433 3.633 0.582 7.117 0.449 10.449 c -0.531 11.067 -0.766 17.817 -0.699 20.25 c 0.031 2.035 0.215 3.852 0.551 5.449 c 0.367 1.836 0.847 2.883 1.449 3.153 z" stroke-linecap="round" />
</g>
		<g transform="matrix(1.25 0 0 -1.25 5.31 -54.26)" id="path28"  >
<path style="stroke: none; stroke-width: 1; stroke-dasharray: none; stroke-linecap: butt; stroke-dashoffset: 0; stroke-linejoin: miter; stroke-miterlimit: 4; fill: rgb(255,232,189); fill-rule: evenodd; opacity: 1;"  transform=" translate(-52.68, -89.71)" d="m 89.801 91.702 l 1.75 -0.602 l -8.102 -4 c -15.832 -0.102 -31.465 0.016 -46.898 0.352 c -9.633 0.199 -16.317 0.464 -20.051 0.796 l -2.699 0.454 l 13.398 3.398 l 2.352 0.25 l 60.25 -0.648 z" stroke-linecap="round" />
</g>
		<g transform="matrix(1.25 0 0 -1.25 5.38 -54.09)" id="path30"  >
<path style="stroke: none; stroke-width: 1; stroke-dasharray: none; stroke-linecap: butt; stroke-dashoffset: 0; stroke-linejoin: miter; stroke-miterlimit: 4; fill: rgb(235,207,153); fill-rule: evenodd; opacity: 1;"  transform=" translate(-52.72, -89.57)" d="m 91.551 91.1 l -8.102 -4 h -8.699 c 3.469 0.094 5.969 0.324 7.5 0.699 l 4.602 2 c 0.398 0.301 -0.602 0.449 -3 0.449 c -3.27 -0.031 -5.704 -0.015 -7.301 0.051 l -39.602 1.051 c -4 0 -6.383 -0.117 -7.148 -0.352 l -11.852 -3.25 c -1.168 0.071 -2.168 0.235 -3 0.5 c -0.633 0.235 -0.98 0.368 -1.051 0.403 l 12.301 2.898 c 0.403 0.133 1.367 0.25 2.903 0.352 c 1.464 0.097 3.097 0.148 4.898 0.148 l 56.148 -0.449 l 1.403 -0.5 z" stroke-linecap="round" />
</g>
		<g transform="matrix(1.25 0 0 -1.25 2.53 -53.46)" id="path32"  >
<path style="stroke: none; stroke-width: 1; stroke-dasharray: none; stroke-linecap: butt; stroke-dashoffset: 0; stroke-linejoin: miter; stroke-miterlimit: 4; fill: rgb(193,90,90); fill-rule: evenodd; opacity: 1;"  transform=" translate(-50.45, -89.07)" d="m 81.852 88.401 l 6.398 2.597 c 0.398 0.27 -0.832 0.418 -3.699 0.454 c -3.801 -0.067 -6.5 -0.067 -8.102 0 l -39.949 0.449 c -4.801 0 -7.383 -0.067 -7.75 -0.199 l -12.148 -3.102 c -0.469 -0.168 1.332 -0.25 5.398 -0.25 l 47.852 -0.75 c 4.332 0.066 6.648 0.117 6.949 0.148 c 2.066 0.102 3.75 0.321 5.051 0.653 z m 2.847 -2.051 c -0.531 -0.199 -1.465 -0.383 -2.801 -0.551 c -1.73 -0.199 -3.714 -0.281 -5.949 -0.25 l -66.347 0.602 c -1.602 0.031 -2.918 0.183 -3.954 0.449 c -0.929 0.266 -1.164 0.469 -0.699 0.602 l 20.801 4.898 c 0.398 0.133 1.367 0.25 2.898 0.352 c 1.469 0.097 3.118 0.148 4.954 0.148 l 57.449 -0.449 c 1.765 0 3.133 -0.051 4.097 -0.153 c 0.969 -0.132 1.25 -0.265 0.852 -0.398 l -11.301 -5.25 z" stroke-linecap="round" />
</g>
		<g transform="matrix(1.25 0 0 -1.25 5.56 -54.24)" id="path34"  >
<path style="stroke: none; stroke-width: 1; stroke-dasharray: none; stroke-linecap: butt; stroke-dashoffset: 0; stroke-linejoin: miter; stroke-miterlimit: 4; fill: rgb(235,207,153); fill-rule: evenodd; opacity: 1;"  transform=" translate(-52.87, -89.69)" d="m 68.801 90.702 c 1.097 0.031 4.183 0.148 9.25 0.347 c 0.433 0 0.648 -0.281 0.648 -0.847 c 0.035 -0.536 -0.097 -0.883 -0.398 -1.051 c -0.567 -0.332 -1.465 -0.535 -2.699 -0.602 c -4.368 -0.332 -7.852 -0.515 -10.454 -0.551 h -3.75 c -3.398 -0.031 -4.929 -0.031 -4.597 0 c 0.5 0.133 -2.715 0.27 -9.653 0.403 l -4.699 0.051 c -5.633 0.097 -8.816 0.132 -9.551 0.097 c -0.632 0 -1.449 -0.051 -2.449 -0.148 c -0.73 -0.067 -1.418 -0.082 -2.051 -0.051 c -1 0.031 -1.449 0.434 -1.347 1.199 c 0.097 0.735 0.347 1.102 0.75 1.102 c 0.301 0 2 0.133 5.097 0.398 c 3.301 0.27 5.735 0.383 7.301 0.352 c 1.035 -0.035 2.551 -0.102 4.551 -0.199 c 2.168 -0.133 3.316 -0.219 3.449 -0.25 c 1.735 -0.571 3.367 -0.77 4.903 -0.602 c 0.832 0.102 1.98 0.25 3.449 0.449 l 2.801 -0.25 c 4.429 -0.066 7.582 -0.015 9.449 0.153 z" stroke-linecap="round" />
</g>
		<g transform="matrix(1.25 0 0 -1.25 5.49 -55.68)" id="path36"  >
<path style="stroke: none; stroke-width: 1; stroke-dasharray: none; stroke-linecap: butt; stroke-dashoffset: 0; stroke-linejoin: miter; stroke-miterlimit: 4; fill: rgb(193,90,90); fill-rule: evenodd; opacity: 1;"  transform=" translate(-52.82, -90.84)" d="m 68.699 91.1 c 4.934 0.133 7.633 0.199 8.102 0.199 c 1.398 -0.031 1.832 -0.148 1.301 -0.347 c -0.536 -0.204 -1.368 -0.336 -2.5 -0.403 c -4.368 -0.332 -7.852 -0.515 -10.454 -0.551 h -3.75 c -3.398 -0.031 -4.929 -0.031 -4.597 0 c 0.5 0.133 -2.719 0.27 -9.653 0.403 l -4.699 0.051 c -5.633 0.097 -8.816 0.132 -9.551 0.097 c -1.867 -0.133 -3.367 -0.199 -4.5 -0.199 c -1.5 0.035 -1.449 0.199 0.153 0.5 c 1.5 0.332 3.051 0.551 4.648 0.648 c 2.903 0.168 5.117 0.235 6.653 0.204 c 0.964 0 2.332 -0.036 4.097 -0.102 c 1.832 -0.066 2.817 -0.117 2.949 -0.148 c 0.168 -0.067 2.52 -0.133 7.051 -0.204 l 14.75 -0.148 z" stroke-linecap="round" />
</g>
		<g transform="matrix(1.25 0 0 -1.25 -6.78 3.19)" id="path38"  >
<path style="stroke: none; stroke-width: 1; stroke-dasharray: none; stroke-linecap: butt; stroke-dashoffset: 0; stroke-linejoin: miter; stroke-miterlimit: 4; fill: rgb(255,226,168); fill-rule: evenodd; opacity: 1;"  transform=" translate(-43, -43.75)" d="m 82.602 81.85 v -79.102 l -79.204 2.653 l 0.102 79.347 l 79.102 -2.898 z" stroke-linecap="round" />
</g>
		<g transform="matrix(1.25 0 0 -1.25 -8.65 -40)" id="path40"  >
<path style="stroke: none; stroke-width: 1; stroke-dasharray: none; stroke-linecap: butt; stroke-dashoffset: 0; stroke-linejoin: miter; stroke-miterlimit: 4; fill: rgb(235,207,153); fill-rule: evenodd; opacity: 1;"  transform=" translate(-41.5, -78.3)" d="m 81.551 76.202 c -1.235 -0.368 -3.067 -0.684 -5.5 -0.954 c -4.903 -0.531 -10.352 -0.582 -16.352 -0.148 c -8.23 0.699 -13.965 1.168 -17.199 1.398 c -5.367 0.438 -10.5 0.653 -15.398 0.653 c -4.969 0.035 -10.403 -0.332 -16.301 -1.102 c -2.934 -0.367 -5.367 -0.73 -7.301 -1.097 l -1.051 4.25 c 0.336 -0.102 0.735 -0.204 1.199 -0.301 c 2.168 -0.465 5.102 -0.668 8.801 -0.602 c 12.067 0.199 23.184 -0.117 33.352 -0.949 c 4.867 -0.434 9.648 -0.852 14.347 -1.25 c 2.735 -0.199 5.633 -0.148 8.704 0.148 c 4.664 0.469 8.812 1.368 12.449 2.704 l 0.25 -2.75 z m -19.074 2.949 c -11.68 -0.149 -20.207 -0.051 -25.579 0.301 c -4.031 0.265 -9.632 0.367 -16.796 0.296 c -3.735 -0.031 -8.188 -0.082 -13.352 -0.148 h -4.398 l -0.551 2.199 c 2.035 -0.5 4.633 -0.816 7.801 -0.949 c 1.796 -0.066 5.464 -0.102 11 -0.102 c 13.964 -0.062 25.062 -0.429 33.296 -1.097 c 3.239 -0.242 6.098 -0.41 8.579 -0.5 z m -60.125 0.449 l 0.097 -0.398 c -0.457 0.128 -0.789 0.265 -1 0.398 h 0.903 z" stroke-linecap="round" />
</g>
		<g transform="matrix(1.25 0 0 -1.25 -7.4 -13.38)" id="path42"  >
<path style="stroke: none; stroke-width: 1; stroke-dasharray: none; stroke-linecap: butt; stroke-dashoffset: 0; stroke-linejoin: miter; stroke-miterlimit: 4; fill: rgb(235,207,153); fill-rule: evenodd; opacity: 1;"  transform=" translate(-42.5, -57)" d="m 78.5 71.498 c 2.102 0.368 3.398 0.684 3.898 0.954 l -0.296 -3.102 c -9.704 0.234 -16.383 0.5 -20.051 0.801 c -2.934 0.199 -6.301 0.168 -10.102 -0.102 c -4.133 -0.265 -8.051 -0.801 -11.75 -1.597 c -3.699 -0.801 -10.199 -1.536 -19.5 -2.204 c -9.097 -0.632 -14.215 -0.765 -15.347 -0.398 c -0.301 0.102 -0.551 0.148 -0.75 0.148 c 0.031 2.067 0.097 4.133 0.199 6.204 c 2.199 -1.301 4.98 -2.368 8.347 -3.204 c 4.735 -1.132 9.204 -1.332 13.403 -0.597 c 5.566 1 11.066 1.832 16.5 2.5 c 6.531 0.801 11.648 1.148 15.347 1.051 c 2.704 -0.102 6.653 -0.286 11.852 -0.551 c 4.199 -0.168 6.949 -0.133 8.25 0.097 z m -16.301 -21.898 c 6.367 -0.531 10.668 -0.734 12.903 -0.602 c 3.73 0.204 6.015 0.383 6.847 0.551 l -0.097 -3.75 c -0.704 -0.168 -2.036 -0.23 -4 -0.199 c -3.903 0.035 -8.985 0.484 -15.25 1.352 c -9.036 1.265 -14.836 2.031 -17.403 2.296 c -4.433 0.434 -8.465 0.551 -12.097 0.352 c -2.704 -0.168 -7.821 -0.883 -15.352 -2.148 c -6.668 -1.133 -10.434 -1.633 -11.301 -1.5 l -1.847 0.296 c -0.133 1.836 -0.204 4.168 -0.204 7 c 1.071 -0.398 2.602 -0.796 4.602 -1.199 c 4.234 -0.867 8.832 -1.347 13.801 -1.449 c 3.933 -0.066 8.949 -0.031 15.051 0.102 c 5.097 0.132 8.714 0.132 10.847 0 c 0.235 0 4.735 -0.368 13.5 -1.102 z m 5.153 4 c 4.265 -0.367 8.046 -0.301 11.347 0.199 c 1.668 0.235 2.903 0.52 3.699 0.852 l -0.296 -3.051 c -1.77 -0.133 -4.118 -0.199 -7.051 -0.199 c -5.867 0 -11.735 0.316 -17.602 0.949 c -5.265 0.566 -11.668 0.633 -19.199 0.199 c -7.602 -0.433 -12.316 -0.551 -14.148 -0.347 c -4.801 0.5 -11.368 1.597 -19.704 3.296 v 1.403 c 0 0.867 0.02 1.73 0.051 2.597 c 0.301 -0.23 0.668 -0.464 1.102 -0.699 c 2.265 -1.265 6.199 -2.48 11.801 -3.648 c 7.296 -1.567 13.882 -2.035 19.75 -1.403 c 6.097 0.633 11.546 0.903 16.347 0.801 c 3.133 -0.066 7.77 -0.383 13.903 -0.949 z m 10.648 9.148 l 3.301 0.852 v -1.801 c -1.27 -0.367 -2.934 -0.668 -5 -0.898 c -4.168 -0.5 -8.27 -0.485 -12.301 0.051 c -5 0.664 -10.484 1.117 -16.449 1.347 c -6.27 0.235 -11.617 0.153 -16.051 -0.25 c -4.168 -0.367 -9.234 -0.449 -15.199 -0.25 c -5.27 0.168 -8.949 0.449 -11.051 0.852 c -0.266 0.031 -0.516 0.066 -0.75 0.097 c 0 0.469 0.016 0.918 0.051 1.352 c 0.5 -0.066 1.133 -0.133 1.898 -0.199 c 2.77 -0.27 6.27 -0.184 10.5 0.25 c 4.403 0.465 9.301 0.648 14.699 0.551 c 2.735 -0.036 6.633 -0.204 11.704 -0.5 c 0.367 -0.036 4.929 -0.5 13.699 -1.403 c 6.699 -0.699 11.347 -0.933 13.949 -0.699 c 4.367 0.367 6.699 0.582 7 0.648 z m -73.398 3.25 c -0.036 -0.632 -0.051 -1.265 -0.051 -1.898 c -0.434 0.102 -0.77 0.199 -1 0.301 c -0.067 0.367 -0.035 0.699 0.097 1 c 0.168 0.398 0.485 0.597 0.954 0.597 z m -0.153 -6.5 c -0.832 0.633 -1.316 1.317 -1.449 2.051 c -0.168 0.867 0.332 1.27 1.5 1.199 c -0.031 -1.097 -0.051 -2.179 -0.051 -3.25 z m -0.051 -4 v -2.25 c -0.066 0.036 -0.132 0.067 -0.199 0.102 l -0.051 2.199 c 0.071 0 0.153 -0.015 0.25 -0.051 z m -1.648 -9.847 l 1.102 0.75 l 0.75 -0.153 c 0.031 -0.765 0.082 -1.433 0.148 -2 c -0.066 0.036 -0.148 0.051 -0.25 0.051 c -1.602 0.301 -2.184 0.75 -1.75 1.352 z m 2 -1.403 c 2.633 -0.433 7.398 -0.25 14.301 0.551 c -7.332 -2.199 -11.785 -3.281 -13.352 -3.25 c -0.398 0 -0.715 0.903 -0.949 2.699 z" stroke-linecap="round" />
</g>
		<g transform="matrix(1.25 0 0 -1.25 4.81 1.79)" id="path44"  >
<path style="stroke: none; stroke-width: 1; stroke-dasharray: none; stroke-linecap: butt; stroke-dashoffset: 0; stroke-linejoin: miter; stroke-miterlimit: 4; fill: rgb(235,207,153); fill-rule: evenodd; opacity: 1;"  transform=" translate(-52.28, -44.87)" d="m 59.398 43.549 c -0.164 0.035 -3.25 0.832 -9.25 2.403 c -3.031 0.796 -7.414 1.031 -13.148 0.699 l -7.75 -0.699 l 1.301 0.398 l 3.949 0.5 c 8.367 0.969 15.699 0.734 22 -0.699 c 5.734 -1.27 12 -2.332 18.801 -3.199 c 0 -0.133 -0.285 -0.27 -0.852 -0.403 c -1.168 -0.23 -3.183 -0.301 -6.051 -0.199 c -3 0.133 -6 0.531 -9 1.199 z" stroke-linecap="round" />
</g>
		<g transform="matrix(1.25 0 0 -1.25 28.28 11.12)" id="path46"  >
<path style="stroke: none; stroke-width: 1; stroke-dasharray: none; stroke-linecap: butt; stroke-dashoffset: 0; stroke-linejoin: miter; stroke-miterlimit: 4; fill: rgb(235,207,153); fill-rule: evenodd; opacity: 1;"  transform=" translate(-71.05, -37.41)" d="m 81 38.549 c 0.492 -0.133 0.551 -0.23 0.176 -0.301 l -0.176 0.301 z m 0.176 -0.301 l 1.222 -2.199 c -0.929 -0.097 -2.117 -0.097 -3.546 0 c -2 0.133 -3.301 0.235 -3.903 0.301 c -1.832 0.199 -3.648 0.531 -5.449 1 c -1.734 0.434 -3.883 0.668 -6.449 0.699 l -3.352 -0.051 l 3.102 0.602 c 2.933 0.332 6.535 0.316 10.801 -0.051 c 4.296 -0.332 6.812 -0.433 7.546 -0.301 h 0.028 z" stroke-linecap="round" />
</g>
		<g transform="matrix(1.25 0 0 -1.25 -22.53 9.32)" id="path48"  >
<path style="stroke: none; stroke-width: 1; stroke-dasharray: none; stroke-linecap: butt; stroke-dashoffset: 0; stroke-linejoin: miter; stroke-miterlimit: 4; fill: rgb(235,207,153); fill-rule: evenodd; opacity: 1;"  transform=" translate(-30.4, -38.84)" d="m 4.176 38.748 c 0.082 -0.121 0.238 -0.218 0.472 -0.296 c 1.633 -0.571 6.219 -0.368 13.75 0.597 c 8.301 1.067 15.133 1.77 20.5 2.102 c 3.969 0.199 8.188 0.25 12.653 0.148 c 2.359 -0.062 4.344 -0.117 5.949 -0.176 c -1.469 0.02 -3.031 0.028 -4.699 0.028 c -6.633 -0.035 -11.965 -0.449 -16 -1.25 c -4.434 -0.903 -10.352 -1.75 -17.75 -2.551 c -6.801 -0.766 -11.067 -1.102 -12.801 -1 l -2.949 0.148 l 0.875 2.25 z m -0.028 0.454 l 0.352 0.398 l -0.324 -0.852 c -0.106 0.125 -0.114 0.274 -0.028 0.454 z" stroke-linecap="round" />
</g>
		<g transform="matrix(1.25 0 0 -1.25 -45.36 16.38)" id="path50"  >
<path style="stroke: none; stroke-width: 1; stroke-dasharray: none; stroke-linecap: butt; stroke-dashoffset: 0; stroke-linejoin: miter; stroke-miterlimit: 4; fill: rgb(235,207,153); fill-rule: evenodd; opacity: 1;"  transform=" translate(-12.14, -33.2)" d="m 3.852 34.901 c 2.164 -0.567 5.398 -0.832 9.699 -0.801 c 4.015 0 6.375 0.059 7.074 0.176 c -9.09 -1.883 -14.313 -2.809 -15.676 -2.778 c -0.867 0.036 -1.301 0.602 -1.301 1.704 l 0.204 1.699 z" stroke-linecap="round" />
</g>
		<g transform="matrix(1.25 0 0 -1.25 -6.73 21.77)" id="path52"  >
<path style="stroke: none; stroke-width: 1; stroke-dasharray: none; stroke-linecap: butt; stroke-dashoffset: 0; stroke-linejoin: miter; stroke-miterlimit: 4; fill: rgb(235,207,153); fill-rule: evenodd; opacity: 1;"  transform=" translate(-43.04, -28.89)" d="m 4.699 29.299 c 1.434 -0.133 3.367 -0.183 5.801 -0.148 c 4.898 0.097 9.898 0.551 15 1.347 c 10.734 1.668 16.582 2.551 17.551 2.653 c 6.332 0.699 11.965 0.699 16.898 0 c 4.801 -0.668 9.715 -1.949 14.75 -3.852 c 2.5 -0.933 4.535 -1.801 6.102 -2.597 l 0.949 -2.602 c -1.367 0.934 -3.184 1.934 -5.449 3 c -4.535 2.102 -9.102 3.398 -13.699 3.898 c -6.235 0.704 -11.321 1.071 -15.25 1.102 c -5 0.031 -9.954 -0.418 -14.852 -1.352 c -16.969 -3.132 -26.051 -4.679 -27.25 -4.648 c -0.699 0.031 -1 0.566 -0.898 1.602 l 0.347 1.597 z" stroke-linecap="round" />
</g>
		<g transform="matrix(1.25 0 0 -1.25 -7.34 30.04)" id="path54"  >
<path style="stroke: none; stroke-width: 1; stroke-dasharray: none; stroke-linecap: butt; stroke-dashoffset: 0; stroke-linejoin: miter; stroke-miterlimit: 4; fill: rgb(235,207,153); fill-rule: evenodd; opacity: 1;"  transform=" translate(-42.55, -22.27)" d="m 81.898 16.498 c -1.398 -0.332 -3.097 -0.648 -5.097 -0.949 c -4.035 -0.566 -7.582 -0.715 -10.653 -0.449 c -1.464 0.133 -6.48 0.75 -15.046 1.852 c -7.903 1.031 -14.383 1.714 -19.454 2.046 c -5.464 0.368 -11.714 -0.332 -18.75 -2.097 c -3.5 -0.903 -6.464 -1.832 -8.898 -2.801 l -0.023 5.5 c 0.851 0.43 2.007 0.828 3.472 1.199 c 4.403 1.133 10.102 1.418 17.102 0.852 c 5.301 -0.434 13.015 -1.485 23.148 -3.153 c 8.403 -1.367 14.199 -2.015 17.403 -1.949 c 6.097 0.102 11.796 0.582 17.097 1.449 l -0.301 -1.5 z m -0.097 3.301 c -1.434 0.699 -3.434 1.52 -6 2.449 c -5.168 1.868 -10.633 3.352 -16.403 4.454 c -6.265 1.164 -13.015 1.679 -20.25 1.546 c -5.964 -0.097 -10.914 -0.562 -14.847 -1.398 c -4.367 -0.969 -11.133 -2.867 -20.301 -5.699 l -0.023 0.301 l -0.028 3.75 c 0.735 -0.102 1.934 -0.102 3.602 0 c 3.367 0.199 7.449 0.781 12.25 1.75 c 8.699 1.765 14.551 2.796 17.551 3.097 c 6.73 0.735 13.031 0.418 18.898 -0.949 c 8.969 -2.031 17.332 -4.25 25.102 -6.648 l 0.449 -2.653 z m -77.824 1.653 v -1.852 c -0.442 -0.227 -0.801 -0.457 -1.079 -0.699 l 0.653 6.301 l 0.426 -3.75 z" stroke-linecap="round" />
</g>
		<g transform="matrix(1.25 0 0 -1.25 -1.02 28.58)" id="path56"  >
<path style="stroke: none; stroke-width: 1; stroke-dasharray: none; stroke-linecap: butt; stroke-dashoffset: 0; stroke-linejoin: miter; stroke-miterlimit: 4; fill: rgb(235,207,153); fill-rule: evenodd; opacity: 1;"  transform=" translate(-47.61, -23.43)" d="m 38 25.651 c 3.168 0.597 6.699 0.765 10.602 0.5 c 4.367 -0.301 7.347 -1.117 8.949 -2.449 c 1.699 -1.403 1.566 -2.336 -0.403 -2.801 c -1.964 -0.5 -4.98 -0.383 -9.046 0.347 c -4.403 0.77 -7.653 1.551 -9.75 2.352 c -2.368 0.934 -2.485 1.617 -0.352 2.051 z" stroke-linecap="round" />
</g>
		<g transform="matrix(1.25 0 0 -1.25 -3.28 44.99)" id="path58"  >
<path style="stroke: none; stroke-width: 1; stroke-dasharray: none; stroke-linecap: butt; stroke-dashoffset: 0; stroke-linejoin: miter; stroke-miterlimit: 4; fill: rgb(235,207,153); fill-rule: evenodd; opacity: 1;"  transform=" translate(-45.8, -10.31)" d="m 82.449 12.901 c -0.633 -0.403 -1.699 -0.77 -3.199 -1.102 c -3 -0.73 -6.648 -1 -10.949 -0.801 c -8.535 0.368 -14.133 0.551 -16.801 0.551 c -6.367 0.035 -10.617 -0.398 -12.75 -1.301 c -2.867 -1.464 -4.969 -2.48 -6.301 -3.046 c -2.301 -1.036 -4.765 -1.536 -7.398 -1.5 c -4.301 0.066 -9.602 0.398 -15.903 1 c 4.836 0.031 8.868 0.25 12.102 0.648 c 4 0.5 8 1.418 12 2.75 c 3.801 1.266 8.781 2.066 14.949 2.398 c 4.332 0.235 8.817 0.235 13.449 0 c 2.836 -0.164 7 0.153 12.5 0.954 c 4.969 0.73 7.52 1.214 7.653 1.449 c 0.097 0.097 0.23 -0.199 0.398 -0.903 c 0.102 -0.367 0.184 -0.73 0.25 -1.097 z" stroke-linecap="round" />
</g>
		<g transform="matrix(1.25 0 0 -1.25 12.19 48.23)" id="path60"  >
<path style="stroke: none; stroke-width: 1; stroke-dasharray: none; stroke-linecap: butt; stroke-dashoffset: 0; stroke-linejoin: miter; stroke-miterlimit: 4; fill: rgb(235,207,153); fill-rule: evenodd; opacity: 1;"  transform=" translate(-58.17, -7.72)" d="m 81.75 7.998 c -4.199 -0.062 -9.934 0.051 -17.199 0.352 c -4.934 0.234 -10.067 0 -15.403 -0.699 c -4.398 -0.602 -7.648 -1.285 -9.75 -2.051 c -1.398 -0.5 -2.648 -0.633 -3.75 -0.398 l -1.199 0.546 c 2.965 1.469 5.301 2.418 7 2.852 c 4.5 1.199 9.918 1.582 16.25 1.148 c 6.235 -0.429 12.133 -0.464 17.699 -0.097 c 2.801 0.199 4.969 0.433 6.5 0.699 l -0.148 -2.352 z" stroke-linecap="round" />
</g>
		<g transform="matrix(1.25 0 0 -1.25 19.16 51.22)" id="path62"  >
<path style="stroke: none; stroke-width: 1; stroke-dasharray: none; stroke-linecap: butt; stroke-dashoffset: 0; stroke-linejoin: miter; stroke-miterlimit: 4; fill: rgb(235,207,153); fill-rule: evenodd; opacity: 1;"  transform=" translate(-63.75, -5.33)" d="m 51.199 5.248 c 2.106 0.352 3.559 0.586 4.352 0.704 c 6.699 1.066 11.168 1.449 13.398 1.148 c 2.332 -0.301 4.27 -0.883 5.801 -1.75 c 0.734 -0.469 1.25 -0.883 1.551 -1.25 l -3.102 -0.648 c -0.867 0.531 -1.933 1.082 -3.199 1.648 c -2.531 1.102 -4.816 1.668 -6.852 1.699 c -2.031 0.035 -4.082 -0.347 -6.148 -1.148 l -2.551 -1.153 c -0.5 0.133 -1.051 0.286 -1.648 0.454 c -0.688 0.156 -1.223 0.253 -1.602 0.296 z" stroke-linecap="round" />
</g>
		<g transform="matrix(1.25 0 0 -1.25 -36.88 -33.31)" id="path64"  >
<path style="stroke: none; stroke-width: 1; stroke-dasharray: none; stroke-linecap: butt; stroke-dashoffset: 0; stroke-linejoin: miter; stroke-miterlimit: 4; fill: rgb(235,207,153); fill-rule: evenodd; opacity: 1;"  transform=" translate(-18.92, -72.94)" d="m 24.301 72.498 c 1.832 0.5 2.183 1.071 1.051 1.704 c -1.137 0.632 -3.168 0.867 -6.102 0.699 c -2.832 -0.133 -5 -0.567 -6.5 -1.301 c -0.699 -0.332 -0.566 -0.617 0.398 -0.852 c 0.668 -0.132 2.336 -0.347 5 -0.648 c 2.336 -0.234 4.383 -0.102 6.153 0.398 z m 0.648 3.204 c 2.965 -0.434 4.25 -1.571 3.852 -3.403 c -0.403 -1.832 -2.668 -2.617 -6.801 -2.347 c -4.633 0.296 -8.281 0.964 -10.949 2 c -2.77 1.066 -2.77 1.929 0 2.597 c 2.465 0.602 4.566 1 6.301 1.199 c 2.734 0.336 5.265 0.321 7.597 -0.046 z" stroke-linecap="round" />
</g>
		<g transform="matrix(1.25 0 0 -1.25 -37.35 42.43)" id="path66"  >
<path style="stroke: none; stroke-width: 1; stroke-dasharray: none; stroke-linecap: butt; stroke-dashoffset: 0; stroke-linejoin: miter; stroke-miterlimit: 4; fill: rgb(235,207,153); fill-rule: evenodd; opacity: 1;"  transform=" translate(-18.54, -12.36)" d="m 6.051 11.202 c 2.398 1.632 5.949 2.867 10.648 3.699 c 4.903 0.867 8.903 0.883 12 0.051 c 3.035 -0.836 3.582 -2.02 1.653 -3.551 c -1.903 -1.465 -4.52 -2.215 -7.852 -2.25 c -5.469 0 -9.367 0.082 -11.699 0.25 c -4.465 0.301 -6.051 0.898 -4.75 1.801 z m 4.301 0.449 c -0.969 -0.403 0.531 -0.668 4.5 -0.801 c 3.964 -0.133 7.046 -0.016 9.25 0.352 c 2.199 0.367 3.132 0.914 2.796 1.648 c -0.296 0.699 -1.664 1.102 -4.097 1.199 c -2.035 0.102 -4.715 -0.265 -8.051 -1.097 c -1.664 -0.434 -3.133 -0.868 -4.398 -1.301 z" stroke-linecap="round" />
</g>
		<g transform="matrix(1.25 0 0 -1.25 -8.67 0.62)" id="path68"  >
<path style="stroke: none; stroke-width: 1; stroke-dasharray: none; stroke-linecap: butt; stroke-dashoffset: 0; stroke-linejoin: miter; stroke-miterlimit: 4; fill: rgb(181,156,111); fill-rule: evenodd; opacity: 1;"  transform=" translate(-41.49, -45.81)" d="m 73.699 84.498 c 2.035 -0.832 3.449 -1.332 4.25 -1.5 c 2.5 -0.531 3.633 -1.23 3.403 -2.097 c -0.036 -0.102 -0.219 -0.449 -0.551 -1.051 c -0.27 -0.434 -0.332 -0.781 -0.199 -1.051 c 0.332 -0.633 0.296 -1.449 -0.102 -2.449 c -0.367 -1.066 -0.602 -1.184 -0.699 -0.352 c -0.102 0.704 -0.633 1.286 -1.602 1.75 c -0.867 0.403 -1.949 0.653 -3.25 0.75 c -1.566 0.102 -22.398 0.485 -62.5 1.153 c -1.035 0 -1.715 -0.699 -2.051 -2.102 c -0.199 -0.73 -0.347 -2.316 -0.449 -4.75 c -0.097 -1.965 -0.168 -9.75 -0.199 -23.347 c -0.031 -15.168 0.031 -26.918 0.199 -35.25 c 0.035 -1.434 0.215 -2.633 0.551 -3.602 c 0.332 -0.898 0.699 -1.383 1.102 -1.449 l 1.199 -2.153 c -3 -0.23 -4.949 -0.296 -5.852 -0.199 c -0.898 0.102 -2.683 1.082 -5.347 2.949 l 0.847 27.25 l 0.301 39.454 l 3.852 8.199 c 33.898 -0.102 54.015 -0.051 60.347 0.148 c 3.735 0.133 5.985 0.035 6.75 -0.301 z" stroke-linecap="round" />
</g>
		<g transform="matrix(1.25 0 0 -1.25 -7.91 2.59)" id="path70"  >
<path style="stroke: none; stroke-width: 1; stroke-dasharray: none; stroke-linecap: butt; stroke-dashoffset: 0; stroke-linejoin: miter; stroke-miterlimit: 4; fill: rgb(255,242,209); fill-rule: evenodd; opacity: 1;"  transform=" translate(-42.1, -44.23)" d="m 81.449 13.549 v 61.949 c 0 1.668 -0.582 3.118 -1.75 4.352 c -1.199 1.199 -2.633 1.832 -4.301 1.898 l -61.398 1.602 c -1.668 0.031 -3.102 -0.516 -4.301 -1.648 c -1.168 -1.168 -1.75 -2.602 -1.75 -4.301 v -61.949 c 0 -1.668 0.582 -3.118 1.75 -4.352 s 2.582 -1.867 4.25 -1.898 l 61.449 -1.602 c 1.633 -0.066 3.051 0.5 4.25 1.699 c 1.168 1.168 1.77 2.582 1.801 4.25 z m 0.403 -5.75 c 0 -1.301 0.046 -2.73 0.148 -4.301 c -0.133 -0.929 -1.031 -1.382 -2.699 -1.347 l -69.903 1.75 c -1.929 0.035 -3.617 0.801 -5.046 2.301 c -1.438 1.5 -2.153 3.214 -2.153 5.148 l 0.301 70.801 c 0 1.765 0.699 2.949 2.102 3.551 c 1 0.464 2.648 0.664 4.949 0.597 l 64.801 -2 c 2.898 -0.066 4.632 -0.183 5.199 -0.347 c 1.535 -0.434 2.301 -1.485 2.301 -3.153 v -73 z" stroke-linecap="round" />
</g>
		<g transform="matrix(1.25 0 0 -1.25 -51.01 2.16)" id="path72"  >
<path style="stroke: none; stroke-width: 1; stroke-dasharray: none; stroke-linecap: butt; stroke-dashoffset: 0; stroke-linejoin: miter; stroke-miterlimit: 4; fill: rgb(199,180,141); fill-rule: evenodd; opacity: 1;"  transform=" translate(-7.62, -44.57)" d="m 3.199 60.498 c -0.097 1 0.184 7 0.852 18 l 1 3.653 l 5.301 3 l 2.046 -2 c -1.296 -0.301 -2.367 -0.985 -3.199 -2.051 s -1.25 -2.301 -1.25 -3.699 v -61.949 c 0 -2.168 0.883 -3.883 2.653 -5.153 c -0.77 -0.23 -1.301 -0.648 -1.602 -1.25 c -0.332 -0.668 -0.281 -1.449 0.148 -2.347 c 0.301 -0.536 0.352 -1.071 0.153 -1.602 c -0.168 -0.469 -0.5 -0.832 -1 -1.102 c -2 0.403 -3.617 1.52 -4.852 3.352 l -0.097 0.301 c -0.469 2.5 -0.618 11.883 -0.454 28.148 c 0.102 8.168 0.204 16.403 0.301 24.699 z" stroke-linecap="round" />
</g>
		<g transform="matrix(1.25 0 0 -1.25 -7.53 3.44)" id="path74"  >
<path style="stroke: none; stroke-width: 1; stroke-dasharray: none; stroke-linecap: butt; stroke-dashoffset: 0; stroke-linejoin: miter; stroke-miterlimit: 4; fill: rgb(235,207,153); fill-rule: evenodd; opacity: 1;"  transform=" translate(-42.4, -43.55)" d="m 79.449 73.498 c 0 1.735 -0.617 3.352 -1.847 4.852 c -1.301 1.602 -2.77 2.418 -4.403 2.449 l -61.847 1.5 c -1.633 0.035 -3.133 -0.668 -4.5 -2.097 c -1.336 -1.434 -2 -3 -2 -4.704 l 0.699 -62.699 c -0.035 -1.597 0.617 -2.933 1.949 -4 c 1.234 -1 2.719 -1.531 4.449 -1.597 l 61.449 -1.602 c 1.633 -0.066 3.051 0.5 4.25 1.699 c 1.168 1.168 1.77 2.582 1.801 4.25 v 61.949 z m 3.25 9.5 c 1.27 -1.398 1.903 -3.062 1.903 -5 l -0.153 -71.296 c 0 -1.903 -0.715 -3.485 -2.148 -4.75 c -1.367 -1.27 -3.035 -1.868 -5 -1.801 l -69.903 1.75 c -1.929 0.035 -3.617 0.801 -5.046 2.301 c -1.438 1.5 -2.153 3.214 -2.153 5.148 l 0.301 70.801 c 0 1.933 0.684 3.566 2.051 4.898 c 1.332 1.301 2.965 1.934 4.898 1.903 l 70.5 -1.801 c 1.903 -0.067 3.485 -0.785 4.75 -2.153 z" stroke-linecap="round" />
</g>
		<g transform="matrix(1.25 0 0 -1.25 -7.47 -1.72)" id="path76"  >
<path style="stroke: none; stroke-width: 1; stroke-dasharray: none; stroke-linecap: butt; stroke-dashoffset: 0; stroke-linejoin: miter; stroke-miterlimit: 4; fill: rgb(174,81,81); fill-rule: evenodd; opacity: 1;"  transform=" translate(-42.45, -47.68)" d="m 3.801 39.998 c 0.867 -0.066 1.265 0.133 1.199 0.602 c -0.168 0.266 -0.566 0.398 -1.199 0.398 v -1 z m -0.653 8.852 c 0.235 -0.066 0.434 -0.051 0.602 0.051 c 0.102 0.031 0.234 0.117 0.398 0.25 c -0.132 0.699 -0.347 1.097 -0.648 1.199 c -0.301 -0.266 -0.418 -0.766 -0.352 -1.5 z m 0.352 3 c -0.031 -0.398 0.082 -0.684 0.352 -0.852 c 0.132 0.133 0.164 0.301 0.097 0.5 c -0.066 0.235 -0.215 0.352 -0.449 0.352 z m -2.102 -1.199 c 0.27 -0.102 0.469 -0.082 0.602 0.051 c 0 0.296 -0.148 0.531 -0.449 0.699 c -0.301 0.199 -0.582 0.199 -0.852 0 v -0.5 c 0.133 -0.035 0.367 -0.117 0.699 -0.25 z m 0.102 1.75 c 0.133 -0.102 0.332 -0.25 0.602 -0.449 c 0.296 -0.168 0.546 -0.153 0.75 0.046 c 0.031 0.27 -0.153 0.454 -0.551 0.551 c -0.403 0.102 -0.668 0.051 -0.801 -0.148 z m 0 6.648 c -0.234 0.067 -0.449 0.051 -0.648 -0.051 c -0.133 -0.031 -0.301 -0.117 -0.5 -0.25 c 0.097 -0.5 0.48 -0.781 1.148 -0.847 c 0.133 0.097 0.199 0.281 0.199 0.551 c 0 0.296 -0.066 0.5 -0.199 0.597 z m 77.801 19.852 c -0.168 -0.168 -0.219 -0.403 -0.153 -0.699 c 0.036 -0.301 0.133 -0.52 0.301 -0.653 c 0.133 0.168 0.199 0.418 0.199 0.75 c 0 0.403 -0.117 0.602 -0.347 0.602 z m -1.653 -0.602 c -1.199 1.199 -2.632 1.832 -4.296 1.903 l -61.801 1.597 c -1.668 0.035 -3.102 -0.515 -4.301 -1.648 c -1.168 -1.168 -1.75 -2.602 -1.75 -4.301 v -7.949 c -1.102 -0.067 -1.883 0.367 -2.352 1.301 c -0.664 0 -1.046 -0.051 -1.148 -0.153 c 0.066 -0.898 0.449 -1.683 1.148 -2.347 c 0.704 -0.704 1.485 -1.067 2.352 -1.102 v -16.148 c -0.266 -0.235 -0.383 -0.567 -0.352 -1 l 0.352 -0.051 l -0.051 -34.903 c 0 -0.531 0.117 -1.183 0.352 -1.949 c -1.235 0.699 -2.285 1.117 -3.153 1.25 c -0.566 -0.199 -0.816 -0.648 -0.75 -1.347 c 0.036 -0.536 0.235 -1.086 0.602 -1.653 c -0.102 -0.531 -0.398 -0.949 -0.898 -1.25 c -0.102 -0.066 -0.602 -0.281 -1.5 -0.648 c -0.071 0.265 -0.102 0.648 -0.102 1.148 v 8.949 l 1.148 1 l -1.148 0.102 v 41.051 c 0.301 0.465 0.301 0.867 0 1.199 v 19.25 c 0 1.934 0.684 3.566 2.051 4.898 c 1.367 1.336 3.015 1.985 4.949 1.954 l 70.949 -1.852 c 1.934 -0.066 3.567 -0.801 4.903 -2.199 c 1.367 -1.403 2.046 -3.067 2.046 -5 v -6 c -0.429 -0.067 -0.816 -0.168 -1.148 -0.301 c 0.168 -0.531 0.551 -0.832 1.148 -0.898 v -21.75 c -0.296 -0.536 -0.679 -0.985 -1.148 -1.352 c -0.199 0.035 -0.484 0.199 -0.852 0.5 c -0.296 0.266 -0.632 0.383 -1 0.352 c -0.066 -0.368 0 -0.704 0.204 -1 c 0.199 -0.336 0.296 -0.618 0.296 -0.852 c -0.066 -0.168 -0.265 -0.383 -0.597 -0.648 c -0.301 -0.27 -0.485 -0.536 -0.551 -0.801 c 0.801 -0.469 1.031 -1.082 0.699 -1.852 c -0.699 -1.633 -1.051 -2.465 -1.051 -2.5 c -0.066 -0.433 -0.23 -1.031 -0.5 -1.801 c -0.199 -0.632 -0.296 -1.132 -0.296 -1.5 c 0.765 0.235 1.382 1.434 1.847 3.602 c 0.567 2.5 1 3.949 1.301 4.352 c 0.332 0.398 0.883 0.632 1.648 0.699 v -15.551 l -0.449 -0.199 v -0.352 c 0 -0.398 -0.066 -0.668 -0.199 -0.801 c -0.031 -0.066 -0.102 -0.148 -0.199 -0.25 c 0 -1.566 -0.082 -2.515 -0.25 -2.847 c -0.133 -0.27 -0.235 -0.317 -0.301 -0.153 c -0.102 0.133 -0.082 0.352 0.051 0.653 c 0.097 0.23 0.082 0.75 -0.051 1.551 c -0.133 0.699 -0.301 1.316 -0.5 1.847 l -0.199 -0.051 c 0.199 -1.199 0.301 -1.847 0.301 -1.949 c 0 -0.301 -0.102 -0.465 -0.301 -0.5 c -0.27 -0.031 -0.434 -0.082 -0.5 -0.148 c -0.102 -0.133 -0.102 -0.403 0 -0.801 c 0.133 -0.531 0.183 -0.934 0.148 -1.199 c -0.031 -0.332 -0.133 -0.449 -0.301 -0.352 c -0.5 0.301 -0.765 0.449 -0.796 0.449 c -0.27 -0.066 -0.52 -0.015 -0.75 0.153 l -0.5 0.25 c 0.132 0.668 0.214 1.301 0.25 1.898 c 0.031 0.403 0.015 0.684 -0.051 0.852 c -0.168 0.23 -0.332 0.48 -0.5 0.75 c -0.235 0.301 -0.168 0.668 0.199 1.097 l -0.25 0.153 c 0 0.168 0.051 0.597 0.148 1.301 c 0.071 0.5 0.02 0.898 -0.148 1.199 h -0.352 v 40.301 c 0 1.664 -0.582 3.117 -1.75 4.347 z m 1.954 6.25 c -0.102 -0.168 -0.168 -0.515 -0.204 -1.051 c 0 -0.566 -0.031 -0.933 -0.097 -1.097 c 0.531 -0.301 0.933 -0.02 1.199 0.847 c 0.234 0.836 -0.066 1.27 -0.898 1.301 z" stroke-linecap="round" />
</g>
		<g transform="matrix(1.25 0 0 -1.25 -6.73 41.9)" id="path78"  >
<path style="stroke: none; stroke-width: 1; stroke-dasharray: none; stroke-linecap: butt; stroke-dashoffset: 0; stroke-linejoin: miter; stroke-miterlimit: 4; fill: rgb(174,81,81); fill-rule: evenodd; opacity: 1;"  transform=" translate(-43.04, -12.78)" d="m 8.949 6.151 c -0.23 0.097 -0.418 0.097 -0.551 0 l -0.296 -0.301 c 0.031 -0.133 0.164 -0.484 0.398 -1.051 c 0.066 -0.199 0.234 -0.301 0.5 -0.301 l -0.25 0.454 c 0.266 0.464 0.332 0.867 0.199 1.199 z m 4.449 -2.949 c 0.204 0.199 0.204 0.433 0 0.699 c -0.164 0.23 -0.382 0.383 -0.648 0.449 c -0.199 -0.234 -0.234 -0.5 -0.102 -0.801 c 0.133 -0.301 0.383 -0.418 0.75 -0.347 z m 67.5 3.5 c 0.071 0.464 0.02 0.832 -0.148 1.097 h -0.5 v -1.148 c 0.031 -0.434 0.148 -0.719 0.352 -0.852 c 0.164 0.235 0.265 0.535 0.296 0.903 z m -2.949 -1.204 c -0.332 -0.265 -0.73 -0.464 -1.199 -0.597 c 0.102 -0.235 0.367 -0.602 0.801 -1.102 l 0.148 0.199 c 0.235 0.168 0.434 0.5 0.602 1 l -0.352 0.5 z m 1.801 4.454 c 0.398 0.699 0.352 1.148 -0.148 1.347 c -0.235 -0.832 -0.184 -1.281 0.148 -1.347 z m -21 -5.25 c -0.367 -0.633 -0.434 -1.086 -0.199 -1.352 c 0.367 -0.031 0.648 0.016 0.847 0.148 c -0.199 0.668 -0.414 1.071 -0.648 1.204 z m 23.648 19.847 c 0.27 0.367 0.536 0.653 0.801 0.852 c 0.434 0.301 0.77 0.183 1 -0.352 c 0.168 -0.433 0.199 -0.867 0.102 -1.301 l -0.153 -0.296 l 0.704 -0.204 v -11.097 l -0.153 -0.301 l 0.153 -0.148 v -4.852 c 0 -1.531 -0.454 -2.898 -1.352 -4.102 c -0.867 -1.199 -2 -2.015 -3.398 -2.449 l -0.204 1.051 c -0.699 -0.199 -1.296 -0.281 -1.796 -0.25 l 0.25 -1.102 l -66.852 1.704 l -0.25 0.046 h -1.25 c -0.031 0.77 0 1.383 0.102 1.852 c -0.368 0.035 -0.571 0.051 -0.602 0.051 s -0.117 -0.25 -0.25 -0.75 c -0.168 -0.567 -0.551 -0.903 -1.148 -1 c -0.469 -0.067 -1.219 0 -2.25 0.199 c -0.801 0.168 -1.618 0.566 -2.454 1.199 c -0.664 0.5 -1.097 0.934 -1.296 1.301 c -0.133 0.668 -0.368 1.168 -0.704 1.5 c -0.199 0.234 -0.23 0.469 -0.097 0.699 c 0.199 0.235 0.316 0.403 0.347 0.5 c 0.036 0.035 0.27 0.352 0.704 0.949 c 0.097 0.133 0.312 0.133 0.648 0 c 0.5 -0.265 0.852 -0.414 1.051 -0.449 c 0.367 -0.097 0.668 -0.082 0.898 0.051 c 0.27 0.168 0.485 0.316 0.653 0.449 c 0.199 0.067 0.382 0.082 0.546 0.051 c -0.429 0.535 -0.664 1.102 -0.699 1.699 c 0.067 0.199 0.301 0.418 0.699 0.653 c 0.5 -1.036 1.235 -1.852 2.204 -2.454 c 0.964 -0.632 2.031 -0.964 3.199 -1 l 20.5 -0.546 l 0.051 -0.653 l 0.347 0.653 l 12.051 -0.352 c 0 -0.531 0.117 -0.801 0.352 -0.801 c 0 0.067 0.117 0.153 0.347 0.25 c 0.168 0.067 0.219 0.199 0.153 0.403 c -0.125 0.089 -0.274 0.14 -0.454 0.148 l 28.403 -0.699 c 1.668 -0.067 3.097 0.48 4.301 1.648 c 1.199 1.168 1.796 2.602 1.796 4.301 v 5.648 c 0.133 -1.332 0.368 -2.648 0.704 -3.949 l 0.949 0.5 c -0.27 0.403 -0.367 0.949 -0.301 1.653 c 0.102 1.097 0.148 1.765 0.148 2 l -0.699 2.398 c -0.265 0.898 -0.082 1.602 0.551 2.102 c -0.168 0.73 -0.25 1.214 -0.25 1.449 c 0 0.465 0.199 0.816 0.602 1.051 l -0.653 0.449 c -0.265 0.199 -0.449 0.398 -0.551 0.597 c 0.403 0.133 0.836 0.067 1.301 -0.199 c 0.27 -0.168 0.668 -0.418 1.199 -0.75 z" stroke-linecap="round" />
</g>
		<g transform="matrix(1.25 0 0 -1.25 -1.75 5.56)" id="path80"  >
<path style="stroke: none; stroke-width: 1; stroke-dasharray: none; stroke-linecap: butt; stroke-dashoffset: 0; stroke-linejoin: miter; stroke-miterlimit: 4; fill: rgb(181,156,111); fill-rule: evenodd; opacity: 1;"  transform=" translate(-47.03, -41.85)" d="m 67 20.952 c 0.867 -0.071 1.5 0.031 1.898 0.296 c 0.403 0.301 0.219 0.485 -0.546 0.551 c -0.403 0.035 -0.918 -0.082 -1.551 -0.347 c -0.633 -0.27 -0.567 -0.434 0.199 -0.5 z m 2.852 4.097 c -0.735 0.067 -1.5 -0.082 -2.301 -0.449 c -0.602 -0.234 -1.082 -0.516 -1.449 -0.852 c -0.469 -0.367 -0.719 -0.582 -0.75 -0.648 c -0.133 -0.234 0.117 -0.383 0.75 -0.449 c 0.398 -0.035 0.699 0.035 0.898 0.199 c 0.199 0.199 0.781 0.266 1.75 0.199 c 0.867 -0.066 1.633 -0.23 2.301 -0.5 c 0.367 -0.168 0.683 -0.133 0.949 0.102 c 0.367 0.332 0.281 0.801 -0.25 1.398 c -0.5 0.602 -1.133 0.934 -1.898 1 z m -7.102 12.5 c 0.199 0.5 0.082 1.133 -0.352 1.903 c -0.464 0.867 -1.097 1.347 -1.898 1.449 c -0.531 0.097 -0.918 0.035 -1.148 -0.199 c -0.235 -0.27 -0.071 -0.668 0.5 -1.204 c 0.429 -0.398 0.796 -0.98 1.097 -1.75 c 0.235 -0.562 0.449 -0.832 0.653 -0.796 c 0.23 0.031 0.449 0.046 0.648 0.046 c 0.168 0 0.336 0.184 0.5 0.551 z m -34.801 -17.699 c -0.465 -0.566 -0.535 -0.898 -0.199 -1 l 0.199 -0.5 c 0.067 -0.168 0.449 -0.051 1.153 0.352 c 0.867 0.5 1.347 0.914 1.449 1.25 c 0.133 0.332 -0.102 0.531 -0.699 0.597 c -0.766 0.102 -1.403 -0.133 -1.903 -0.699 z m -2.199 7.551 l 0.551 1.051 c -0.699 -0.801 -1.301 -1.286 -1.801 -1.454 c -0.199 -0.062 -0.199 -0.179 0 -0.347 c 0.102 -0.067 0.219 -0.133 0.352 -0.199 c 0.265 0.066 0.566 0.382 0.898 0.949 z m 20 16.847 c -0.766 1.5 -1.219 2.383 -1.352 2.653 c -0.73 1.097 -1.429 1.648 -2.097 1.648 c -0.699 0 -1.418 -0.847 -2.153 -2.551 c -0.367 -0.898 -0.73 -1.964 -1.097 -3.199 c -0.067 -0.301 -0.352 -1.133 -0.852 -2.5 c -0.433 -1.301 -0.648 -2.148 -0.648 -2.551 c 0 -0.464 0.199 -0.781 0.597 -0.949 c -0.367 -1.133 -0.414 -1.867 -0.148 -2.199 c 0.168 -0.234 0.219 -0.5 0.148 -0.801 c 0 -0.097 0.118 -0.066 0.352 0.102 c 0.332 0.168 0.551 0.383 0.648 0.648 c 0.071 0.168 0.102 0.469 0.102 0.903 c 0 0.097 0.133 0.48 0.398 1.148 h 5.903 c 0.867 0 1.433 0.031 1.699 0.102 c 0.801 0.132 1.199 0.464 1.199 1 c 0 0.898 -0.898 3.082 -2.699 6.546 z m 5.5 18.454 c 0.566 1.031 0.566 1.597 0 1.699 c -2.199 0.332 -2.949 0.23 -2.25 -0.301 c 0.566 -0.469 1.316 -0.934 2.25 -1.398 z m -6.898 8.648 c 1.832 0 3.597 -0.633 5.296 -1.898 c -1.097 -0.403 -1.531 -0.735 -1.296 -1 c 0.164 -0.168 0.382 -0.336 0.648 -0.5 c 0.266 -0.168 0.516 -0.368 0.75 -0.602 c 0.199 -0.234 0.398 -0.566 0.602 -1 c 0.199 -0.266 0.449 -0.219 0.75 0.148 c 0.199 0.204 0.414 0.536 0.648 1 c 1.602 -1.73 3.469 -4.632 5.602 -8.699 c 0.664 -1.23 2.949 -6.316 6.847 -15.25 c 4 -9.168 6.617 -15.332 7.852 -18.5 c 0.801 -2.133 2.133 -3.5 4 -4.097 c 1.5 -0.5 2.25 -1.485 2.25 -2.954 c 0 -2.531 -1.852 -4.214 -5.551 -5.046 c -1.801 -0.403 -4.551 -0.602 -8.25 -0.602 c -6.133 0 -10.168 0.219 -12.102 0.648 c -2.929 0.668 -4.398 2.153 -4.398 4.454 c 0 1.367 0.734 2.367 2.199 3 c 1.469 0.632 2.199 1.382 2.199 2.25 c 0 1.796 -0.781 2.914 -2.347 3.347 c -1.434 0.403 -5.117 0.602 -11.051 0.602 c -2.199 0 -3.668 -0.184 -4.398 -0.551 c -1.071 -0.566 -1.602 -1.75 -1.602 -3.551 c 0 -0.801 0.332 -1.383 1 -1.75 c -0.199 -0.332 -0.367 -0.699 -0.5 -1.097 l -0.898 -0.704 c 0.164 -0.664 0.414 -0.765 0.75 -0.296 c 0.699 0.73 1.214 1.316 1.546 1.75 c 0.938 -0.336 1.551 -0.618 1.852 -0.852 c 0.602 -0.531 0.898 -1.316 0.898 -2.352 c 0 -3.265 -3.562 -4.898 -10.699 -4.898 c -4.668 0 -7.816 0.469 -9.449 1.398 c -1.168 0.668 -1.75 1.786 -1.75 3.352 c 0 1.434 0.734 2.484 2.199 3.148 c 1.965 0.903 3.215 1.719 3.75 2.454 c 0.699 0.929 1.465 2.316 2.301 4.148 c 0.168 0.398 0.801 1.898 1.898 4.5 l 4.551 11.102 c 1.699 4.296 2.832 7.382 3.403 9.25 c 1.164 3.765 1.75 7.046 1.75 9.847 c 0 3 0.648 5.332 1.949 7 c 1.465 1.867 3.73 2.801 6.801 2.801 z" stroke-linecap="round" />
</g>
		<g transform="matrix(1.25 0 0 -1.25 -5.87 1)" id="path82"  >
<path style="stroke: none; stroke-width: 1; stroke-dasharray: none; stroke-linecap: butt; stroke-dashoffset: 0; stroke-linejoin: miter; stroke-miterlimit: 4; fill: rgb(255,242,209); fill-rule: evenodd; opacity: 1;"  transform=" translate(-43.73, -45.5)" d="m 60.898 48.498 c 4 -9.132 6.618 -15.296 7.852 -18.5 c 0.801 -2.132 2.168 -3.5 4.102 -4.097 c 1.5 -0.465 2.214 -1.434 2.148 -2.903 c -0.133 -3.597 -1.918 -6.031 -5.352 -7.296 c -1.867 -0.704 -4.464 -1.051 -7.796 -1.051 c -5.235 0 -9.383 0.668 -12.454 2 c -3.132 1.367 -4.699 3.285 -4.699 5.75 c 0 1.398 0.735 2.418 2.199 3.051 c 1.469 0.632 2.204 1.382 2.204 2.25 c 0 1.765 -0.786 2.867 -2.352 3.296 c -1.469 0.438 -5.148 0.653 -11.051 0.653 c -2.199 0 -3.668 -0.199 -4.398 -0.602 c -1.067 -0.531 -1.602 -1.715 -1.602 -3.551 c 0 -0.964 0.785 -1.714 2.352 -2.25 c 1.535 -0.5 2.301 -1.5 2.301 -3 c 0 -3.296 -3.571 -4.949 -10.704 -4.949 c -4.664 0 -7.812 0.469 -9.449 1.403 c -1.168 0.699 -1.75 1.832 -1.75 3.398 c 0 1.398 0.735 2.434 2.199 3.102 c 1.969 0.898 3.219 1.73 3.75 2.5 c 0.704 0.929 1.469 2.316 2.301 4.148 c 0.102 0.234 0.735 1.734 1.903 4.5 l 4.5 11.102 c 1.632 4.066 2.781 7.148 3.449 9.25 c 1.168 3.765 1.75 7.046 1.75 9.847 c 0 3 0.648 5.332 1.949 7 c 1.469 1.867 3.719 2.801 6.75 2.801 c 2.766 0 5.383 -1.418 7.852 -4.25 c 1.5 -1.734 3.23 -4.5 5.199 -8.301 c 0.668 -1.23 2.949 -6.332 6.847 -15.301 z m -19.796 3.352 c -0.735 1.102 -1.434 1.648 -2.102 1.648 c -0.699 0 -1.418 -0.847 -2.148 -2.546 c -0.102 -0.204 -0.469 -1.27 -1.102 -3.204 c -0.066 -0.296 -0.352 -1.132 -0.852 -2.5 c -0.429 -1.296 -0.648 -2.132 -0.648 -2.5 c 0 -0.597 0.332 -0.964 1 -1.097 c 0.168 -0.035 0.699 -0.051 1.602 -0.051 h 5.398 c 0.867 0 1.434 0.016 1.699 0.051 c 0.801 0.168 1.199 0.5 1.199 1 c 0 0.535 -0.367 1.633 -1.097 3.301 c -0.567 1.265 -1.102 2.347 -1.602 3.25 c -0.765 1.5 -1.215 2.382 -1.347 2.648 z" stroke-linecap="round" />
</g>
		<g transform="matrix(1.25 0 0 -1.25 13.47 1.94)" id="path84"  >
<path style="stroke: none; stroke-width: 1; stroke-dasharray: none; stroke-linecap: butt; stroke-dashoffset: 0; stroke-linejoin: miter; stroke-miterlimit: 4; fill: rgb(199,180,141); fill-rule: evenodd; opacity: 1;"  transform=" translate(-59.2, -44.75)" d="m 45.699 57.651 l -1.347 10.801 c -0.903 2.164 -1.168 3.867 -0.801 5.097 c 0.433 1.469 1.715 1.469 3.847 0 c 2 -1.867 4.219 -5.117 6.653 -9.75 c 0.668 -1.23 2.949 -6.332 6.847 -15.301 c 4 -9.132 6.618 -15.296 7.852 -18.5 c 0.602 -1.632 1.484 -2.796 2.648 -3.5 c -1.832 -0.73 -2.898 -1.679 -3.199 -2.847 c -0.433 -1.602 0.352 -2.27 2.352 -2 c 2.265 0.265 3.73 1.097 4.398 2.5 c 0.067 -0.465 0.082 -0.852 0.051 -1.153 c -0.168 -4.765 -3.219 -7.48 -9.148 -8.148 c -1.403 1.734 -4.286 5.469 -8.653 11.199 l -6.148 8.102 l -5.352 23.5 z" stroke-linecap="round" />
</g>
		<g transform="matrix(1.25 0 0 -1.25 -8.37 3.09)" id="path86"  >
<path style="stroke: none; stroke-width: 1; stroke-dasharray: none; stroke-linecap: butt; stroke-dashoffset: 0; stroke-linejoin: miter; stroke-miterlimit: 4; fill: rgb(255,226,168); fill-rule: evenodd; opacity: 1;"  transform=" translate(-41.72, -43.82)" d="m 58.898 45.498 c 4 -9.132 6.618 -15.296 7.852 -18.5 c 0.801 -2.132 2.133 -3.5 4 -4.097 c 1.5 -0.465 2.25 -1.434 2.25 -2.903 c 0 -2.531 -1.852 -4.23 -5.551 -5.097 c -1.801 -0.403 -4.551 -0.602 -8.25 -0.602 c -6.097 0 -10.133 0.219 -12.097 0.653 c -2.938 0.699 -4.403 2.179 -4.403 4.449 c 0 1.398 0.735 2.418 2.199 3.051 c 1.469 0.632 2.204 1.382 2.204 2.25 c 0 1.765 -0.786 2.867 -2.352 3.296 c -1.469 0.438 -5.148 0.653 -11.051 0.653 c -2.199 0 -3.668 -0.199 -4.398 -0.602 c -1.067 -0.531 -1.602 -1.715 -1.602 -3.551 c 0 -0.964 0.785 -1.714 2.352 -2.25 c 1.535 -0.5 2.301 -1.5 2.301 -3 c 0 -3.296 -3.571 -4.949 -10.704 -4.949 c -4.664 0 -7.812 0.469 -9.449 1.403 c -1.168 0.699 -1.75 1.832 -1.75 3.398 c 0 1.398 0.735 2.434 2.199 3.102 c 1.969 0.898 3.219 1.73 3.75 2.5 c 0.704 0.929 1.469 2.316 2.301 4.148 c 0.102 0.234 0.735 1.734 1.903 4.5 l 4.5 11.102 c 1.632 4.066 2.781 7.148 3.449 9.25 c 1.168 3.765 1.75 7.046 1.75 9.847 c 0 3 0.648 5.332 1.949 7 c 1.469 1.867 3.719 2.801 6.75 2.801 c 2.766 0 5.383 -1.418 7.852 -4.25 c 1.5 -1.734 3.23 -4.5 5.199 -8.301 c 0.668 -1.23 2.949 -6.332 6.847 -15.301 z m -25.148 -0.75 c -0.066 -0.296 -0.352 -1.132 -0.852 -2.5 c -0.429 -1.296 -0.648 -2.132 -0.648 -2.5 c 0 -0.597 0.332 -0.964 1 -1.097 c 0.168 -0.035 0.699 -0.051 1.602 -0.051 h 5.398 c 0.867 0 1.434 0.016 1.699 0.051 c 0.801 0.168 1.199 0.5 1.199 1 c 0 0.535 -0.367 1.633 -1.097 3.301 c -0.567 1.265 -1.102 2.347 -1.602 3.25 c -0.765 1.5 -1.215 2.382 -1.347 2.648 c -0.735 1.102 -1.438 1.648 -2.102 1.648 c -0.699 0 -1.418 -0.847 -2.148 -2.546 c -0.102 -0.204 -0.469 -1.27 -1.102 -3.204 z" stroke-linecap="round" />
</g>
		<g transform="matrix(1.25 0 0 -1.25 -8.37 3.09)" id="path88"  >
<path style="stroke: none; stroke-width: 1; stroke-dasharray: none; stroke-linecap: butt; stroke-dashoffset: 0; stroke-linejoin: miter; stroke-miterlimit: 4; fill: rgb(174,81,81); fill-rule: evenodd; opacity: 1;"  transform=" translate(-41.72, -43.82)" d="m 63.051 23.748 c -0.367 0.067 -0.883 -0.046 -1.551 -0.347 c -0.668 -0.27 -0.602 -0.418 0.199 -0.449 c 0.867 -0.067 1.5 0.031 1.903 0.296 c 0.398 0.27 0.214 0.434 -0.551 0.5 z m -3 1.301 c -0.133 -0.23 0.117 -0.383 0.75 -0.449 c 0.398 -0.031 0.699 0.051 0.898 0.25 s 0.785 0.266 1.75 0.199 c 0.867 -0.066 1.633 -0.25 2.301 -0.551 c 0.398 -0.164 0.719 -0.132 0.949 0.102 c 0.367 0.332 0.285 0.801 -0.25 1.398 c -0.5 0.602 -1.133 0.934 -1.898 1 c -1.301 0.102 -2.551 -0.316 -3.75 -1.25 c -0.5 -0.429 -0.75 -0.664 -0.75 -0.699 z m -2.949 16.352 c -0.469 0.867 -1.102 1.367 -1.903 1.5 c -0.531 0.097 -0.918 0.015 -1.148 -0.25 c -0.235 -0.27 -0.067 -0.653 0.5 -1.153 c 0.433 -0.398 0.801 -0.98 1.097 -1.75 c 0.235 -0.566 0.454 -0.832 0.653 -0.796 c 0.23 0.031 0.449 0.031 0.648 0 c 0.168 0.031 0.332 0.214 0.5 0.546 c 0.199 0.5 0.082 1.133 -0.347 1.903 z m -31.852 -19.5 c 0.133 0.332 -0.102 0.531 -0.699 0.597 c -0.77 0.102 -1.403 -0.132 -1.903 -0.699 c -0.464 -0.566 -0.531 -0.898 -0.199 -1 l 0.199 -0.449 c 0.071 -0.168 0.454 -0.051 1.153 0.352 c 0.867 0.464 1.347 0.867 1.449 1.199 z m -6.051 6.75 c 0.102 -0.102 0.219 -0.184 0.352 -0.25 c 0.265 0.097 0.566 0.433 0.898 1 l 0.551 1.051 c -0.668 -0.836 -1.266 -1.336 -1.801 -1.5 c -0.199 -0.036 -0.199 -0.133 0 -0.301 z m 17.801 21.847 c -0.699 0 -1.418 -0.847 -2.148 -2.546 c -0.102 -0.204 -0.469 -1.27 -1.102 -3.204 c -0.066 -0.296 -0.352 -1.132 -0.852 -2.5 c -0.429 -1.296 -0.648 -2.132 -0.648 -2.5 c 0 -0.464 0.199 -0.781 0.602 -0.949 c -0.368 -1.133 -0.418 -1.883 -0.153 -2.25 c 0.168 -0.23 0.219 -0.48 0.153 -0.75 c 0 -0.097 0.117 -0.082 0.347 0.051 c 0.332 0.199 0.551 0.434 0.653 0.699 c 0.062 0.133 0.097 0.418 0.097 0.852 c 0 0.133 0.133 0.531 0.403 1.199 h 5.898 c 0.867 0 1.434 0.016 1.699 0.051 c 0.801 0.168 1.199 0.5 1.199 1 c 0 0.531 -0.367 1.633 -1.097 3.301 c -0.567 1.265 -1.102 2.347 -1.602 3.25 c -0.765 1.5 -1.215 2.382 -1.347 2.648 c -0.735 1.102 -1.434 1.648 -2.102 1.648 z m 8.949 15.852 c -2.23 0.398 -2.98 0.316 -2.25 -0.25 c 0.567 -0.465 1.317 -0.934 2.25 -1.398 c 0.567 1 0.567 1.546 0 1.648 z m -6.949 7 c 1.898 0 3.684 -0.648 5.352 -1.949 c -1.133 -0.332 -1.571 -0.653 -1.301 -0.949 c 0.168 -0.168 0.383 -0.336 0.648 -0.5 c 0.27 -0.204 0.52 -0.418 0.75 -0.653 c 0.199 -0.23 0.403 -0.566 0.602 -1 c 0.199 -0.23 0.449 -0.183 0.75 0.153 l 0.648 1.046 c 1.535 -1.699 3.403 -4.597 5.602 -8.699 c 0.668 -1.23 2.949 -6.332 6.847 -15.301 c 4 -9.132 6.618 -15.296 7.852 -18.5 c 0.801 -2.132 2.133 -3.5 4 -4.097 c 1.5 -0.469 2.25 -1.434 2.25 -2.903 c 0 -2.531 -1.852 -4.23 -5.551 -5.097 c -1.801 -0.403 -4.551 -0.602 -8.25 -0.602 c -6.097 0 -10.133 0.219 -12.097 0.653 c -2.938 0.699 -4.403 2.183 -4.403 4.449 c 0 1.398 0.735 2.418 2.199 3.051 c 1.469 0.632 2.204 1.382 2.204 2.25 c 0 1.765 -0.786 2.867 -2.352 3.296 c -1.469 0.434 -5.148 0.653 -11.051 0.653 c -2.199 0 -3.668 -0.199 -4.398 -0.602 c -1.067 -0.531 -1.602 -1.715 -1.602 -3.551 c 0 -0.765 0.332 -1.332 1 -1.699 c -0.199 -0.367 -0.367 -0.75 -0.5 -1.148 l -0.898 -0.699 c 0.168 -0.633 0.418 -0.719 0.75 -0.25 c 0.699 0.73 1.215 1.316 1.551 1.75 c 0.929 -0.336 1.546 -0.618 1.847 -0.852 c 0.602 -0.531 0.903 -1.316 0.903 -2.352 c 0 -3.296 -3.571 -4.949 -10.704 -4.949 c -4.664 0 -7.816 0.469 -9.449 1.403 c -1.168 0.699 -1.75 1.832 -1.75 3.398 c 0 1.398 0.735 2.434 2.199 3.102 c 1.969 0.898 3.219 1.73 3.75 2.5 c 0.704 0.933 1.469 2.316 2.301 4.148 c 0.102 0.234 0.735 1.734 1.903 4.5 l 4.5 11.102 c 1.632 4.066 2.781 7.148 3.449 9.25 c 1.168 3.765 1.75 7.046 1.75 9.847 c 0 3 0.648 5.332 1.949 7 c 1.469 1.867 3.719 2.801 6.75 2.801 z" stroke-linecap="round" />
</g>
</g>
</g>
</svg>