<?xml version="1.0" encoding="UTF-8" standalone="no" ?>
<!DOCTYPE svg PUBLIC "-//W3C//DTD SVG 1.1//EN" "http://www.w3.org/Graphics/SVG/1.1/DTD/svg11.dtd">
<svg xmlns="http://www.w3.org/2000/svg" xmlns:xlink="http://www.w3.org/1999/xlink" version="1.1" width="400" height="400" viewBox="0 0 400 400" xml:space="preserve">
<desc>Created with Fabric.js 3.6.3</desc>
<defs>
</defs>
<rect x="0" y="0" width="100%" height="100%" fill="rgba(255, 255, 255, 1)"></rect>
<g transform="matrix(1 0 0 1 220 242.67)" style=""  >
		<text xml:space="preserve" font-family="'Open Sans', sans-serif" font-size="18" font-style="normal" font-weight="bold" style="stroke: none; stroke-width: 1; stroke-dasharray: none; stroke-linecap: butt; stroke-dashoffset: 0; stroke-linejoin: miter; stroke-miterlimit: 4; fill: rgb(0,0,0); fill-rule: nonzero; opacity: 1; white-space: pre;" ><tspan x="-122.5" y="5.65" >Your Comapny Name</tspan></text>
</g>
<g transform="matrix(1 0 0 1 217.99 279.67)" style=""  >
		<text xml:space="preserve" font-family="'Open Sans', sans-serif" font-size="18" font-style="normal" font-weight="normal" style="stroke: none; stroke-width: 1; stroke-dasharray: none; stroke-linecap: butt; stroke-dashoffset: 0; stroke-linejoin: miter; stroke-miterlimit: 4; fill: rgb(0,0,0); fill-rule: nonzero; opacity: 1; white-space: pre;" ><tspan x="-76.49" y="5.65" >slogan here</tspan></text>
</g>
<g transform="matrix(0.4 0 0 0.4 190.11 150.94)"  >
<g style=""   >
		<g transform="matrix(1.07 0 0 1.07 0.77 0)" id="path4166"  >
<path style="stroke: none; stroke-width: 1; stroke-dasharray: none; stroke-linecap: butt; stroke-dashoffset: 0; stroke-linejoin: miter; stroke-miterlimit: 4; fill: rgb(6,238,56); fill-rule: nonzero; opacity: 1;"  transform=" translate(-128.85, -173.75)" d="m 93.326 1.1797 c -7.988 -0.0779 -15.971 0.557 -23.838 1.957 c -13.25 -0.325 -19.938 13.913 -30.238 18.363 c -6.662 1.9 -9.738 10.075 -16.676 12.287 c -19.8 10.963 -18.686 37.564 -7.648 54.576 c -10.8 62.637 2.65 128.83 -6.1877 190.42 c -0.3625 1.75 -1.5762 3.72 -0.6387 5.47 c -4.225 15.71 -6.2238 33.34 -5.4863 49.13 c 37.613 21.57 84.012 10.47 125.18 6.96 c 80.38 -12.8 125.97 -101.83 116.82 -177.55 c -1.52 -7.95 7.64 -13.04 8.8 -20.69 c 7.69 -22.51 -10.37 -42.599 -29.06 -52.237 c -18.91 -52.653 -75.11 -88.138 -131.02 -88.683 z m -1.545 70.414 c 11.839 -0.174 22.659 7.482 33.419 11.73 c 7.22 10.725 15.14 20.676 25.35 28.936 c 12.08 24.71 15.04 51.83 13.65 79.08 c -8.64 7.49 -12.35 19.5 -9.04 30.56 c -8.9 27.08 -37.06 42.91 -64.961 37.92 c -0.25 -23.3 -2.249 -46.56 -2.887 -69.81 c 12.013 -15.44 10.613 -36.07 -1.062 -51.21 c 1.775 -22.22 1.787 -44.763 1.824 -66.888 c 1.247 -0.198 2.483 -0.3 3.707 -0.318 z" stroke-linecap="round" />
</g>
		<g transform="matrix(1.33 0 0 1.33 1.53 2.94)" id="path10"  >
<path style="stroke: none; stroke-width: 1; stroke-dasharray: none; stroke-linecap: butt; stroke-dashoffset: 0; stroke-linejoin: miter; stroke-miterlimit: 4; fill: rgb(247,253,31); fill-rule: nonzero; opacity: 1;"  transform=" translate(-103.65, -141.21)" d="m 29.147 35.216 c -5.8397 0.32141 -8.5407 7.1553 -9.2781 12.22 c -1.1951 5.7691 2.5443 13.174 9.2188 12.416 c 8.0613 0.08485 14.024 -8.6683 11.334 -16.164 c -1.377 -4.9671 -6.0407 -8.6979 -11.275 -8.4719 z m 89.92 16.545 c -8.2583 6.2683 -3.8237 21.776 6.311 22.775 c 6.2164 -1.0553 9.3215 -8.3748 6.4906 -13.797 c -2.0631 -4.8347 -7.4262 -10.002 -12.802 -8.9781 z m 57.947 39.85 c -11.652 2.5733 -11.752 22.406 -0.28437 25.531 c 6.4934 1.7539 11.346 -5.0972 10.895 -11.005 c 0.13728 -6.2433 -3.2344 -14.663 -10.611 -14.527 z m -126.65 30.499 c -11.878 0.35296 -12.719 21.216 -1.1078 22.908 c 7.2584 0.87495 11.092 -7.8594 10.147 -14.006 c -0.42221 -4.6697 -3.9846 -9.2116 -9.0391 -8.9016 z m 89.573 36.411 c -5.4841 1.3438 -5.5236 8.7252 -3.7797 13.134 c 1.3055 4.393 3.6052 10.089 9.0891 9.9875 c 5.7842 0.61418 12.585 -5.09 9.7344 -11.147 c -2.8489 -5.777 -7.9959 -12.04 -15.044 -11.975 z m -104.32 54.09 c -7.3471 -0.43913 -14.198 6.461 -12.503 13.886 c 0.97811 6.9381 7.9818 11.012 14.567 10.862 c 6.6107 1.0018 11.338 -5.8884 10.212 -11.944 c -0.53349 -6.3714 -5.352 -12.98 -12.277 -12.805 z m 76.255 7.4797 c -6.9558 -0.28664 -9.2413 8.1716 -8.6672 13.805 c 0.14551 6.9581 5.9083 15.011 13.641 12.997 c 8.7819 -1.783 12.23 -13.321 7.1234 -20.27 c -2.5686 -4.0696 -7.2338 -6.7706 -12.097 -6.5312 z" stroke-linecap="round" />
</g>
		<g transform="matrix(1.07 0 0 1.07 3.22 0.39)" id="path6"  >
<path style="stroke: none; stroke-width: 1; stroke-dasharray: none; stroke-linecap: butt; stroke-dashoffset: 0; stroke-linejoin: miter; stroke-miterlimit: 4; fill: rgb(252,30,237); fill-rule: nonzero; opacity: 1;"  transform=" translate(-131.14, -174.11)" d="m 41.588 21.455 c -0.772 -0.015 -1.552 -0.001 -2.338 0.045 c -6.662 1.9 -9.738 10.075 -16.676 12.287 c -19.8 10.963 -18.686 37.564 -7.648 54.576 c 18.437 15.847 48.286 6.437 56.762 -15.65 c 10.389 -21.301 -6.178 -50.777 -30.1 -51.258 z m 107.5 21.057 c -8.28 0.151 -16 3.802 -20.87 12.326 c 3.28 9.85 -1.86 18.824 -3.02 28.486 c 7.22 10.725 15.14 20.676 25.35 28.936 c 20.43 3.28 39.04 -13.984 36.86 -34.584 c 0.84 -18.898 -20.1 -35.498 -38.32 -35.164 z m -111.87 3.515 c 14.13 0.564 17.111 22.577 1.865 26.373 c -16.413 3.913 -14.95 -19.95 -4.838 -26.187 c 1.039 -0.165 2.031 -0.223 2.973 -0.186 z m 112.89 20.211 c 12.27 1.425 21.13 20.95 6.05 25.012 c -10.21 -2.288 -14.96 -17.912 -6.05 -25.012 z m 74.24 23.625 c -35.73 0.313 -47.52 62.377 -12.76 75.347 c 10.82 6.35 22.56 1.6 33.02 -2.42 c -1.52 -7.95 7.64 -13.04 8.8 -20.69 c 7.69 -22.51 -10.37 -42.599 -29.06 -52.237 z m -2.45 26.647 c 12.89 0.42 15.36 29.71 0.14 28.14 c -12.64 -2.89 -12.96 -23.9 -1.42 -28.09 c 0.44 -0.05 0.87 -0.06 1.28 -0.05 z m -161.37 13.51 c -3.071 0 -6.121 0.34 -9.058 1.04 c -16.663 11.82 -27.351 36.55 -15.213 55.14 c 9.037 19.19 38.488 19.96 51.05 3.81 c 12.013 -15.44 10.613 -36.07 -1.062 -51.21 c -7.106 -5.7 -16.505 -8.78 -25.717 -8.78 z m 2.955 24.61 c 11.138 0.26 11.918 19.39 1.938 24.46 c -13.713 2.94 -16.164 -18.97 -5.727 -23.89 c 1.374 -0.42 2.637 -0.59 3.789 -0.57 z m 112.02 23.62 c -6.69 0.24 -7.06 8.94 -11.31 13.09 c -8.64 7.49 -12.35 19.5 -9.04 30.56 c 5.94 25.18 43.12 29.28 54.77 6.72 c 10.1 -21.38 -10.03 -46.51 -31.14 -49.92 c -1.25 -0.35 -2.33 -0.49 -3.28 -0.45 z m 0.24 21.91 c 7.11 0.3 12.9 7.28 15.95 13.31 c 4.96 10.14 -13.48 16.48 -17.01 6.79 c -2.79 -5.89 -6.68 -15.5 -0.38 -20.07 c 0.49 -0.04 0.97 -0.05 1.44 -0.03 z m -132.31 42.36 c -3.15 -0.08 -6.325 0.29 -9.455 1.16 c -15.675 4.65 -18.437 22.4 -25.25 35.1 c -0.3622 1.75 -1.5759 3.72 -0.6384 5.47 c 5.9004 15.15 17.262 29.09 34.25 31.35 c 18.05 4.95 38.437 -9.18 39.224 -27.98 c 4.747 -22.54 -16.077 -44.59 -38.131 -45.1 z m 95.827 12.43 c -1.94 0.03 -3.86 0.22 -5.76 0.56 c -25.09 12.05 -32.1 57.54 -1.27 68.52 c 22.82 10.83 48.95 -12.23 46.37 -35.98 c -1.39 -19.45 -20.68 -33.4 -39.34 -33.1 z m -94.67 12.81 c 16.115 -0.06 19.461 30.97 0.013 26.54 c -16.925 -0.65 -19.601 -24.52 -1.613 -26.44 c 0.546 -0.07 1.08 -0.1 1.6 -0.1 z m 95.85 9.34 c 14.15 -0.03 22.27 20.05 8.16 28.56 c -16.8 7.45 -22.9 -19.56 -12.73 -27.87 c 1.57 -0.47 3.1 -0.69 4.57 -0.69 z" stroke-linecap="round" />
</g>
</g>
</g>
</svg>