<?xml version="1.0" encoding="UTF-8" standalone="no" ?>
<!DOCTYPE svg PUBLIC "-//W3C//DTD SVG 1.1//EN" "http://www.w3.org/Graphics/SVG/1.1/DTD/svg11.dtd">
<svg xmlns="http://www.w3.org/2000/svg" xmlns:xlink="http://www.w3.org/1999/xlink" version="1.1" width="400" height="400" viewBox="0 0 400 400" xml:space="preserve">
<desc>Created with Fabric.js 3.6.3</desc>
<defs>
</defs>
<rect x="0" y="0" width="100%" height="100%" fill="rgba(255, 255, 255, 1)"></rect>
<g transform="matrix(1 0 0 1 231.5 244.24)" style=""  >
		<text xml:space="preserve" font-family="'Open Sans', sans-serif" font-size="18" font-style="normal" font-weight="normal" style="stroke: none; stroke-width: 1; stroke-dasharray: none; stroke-linecap: butt; stroke-dashoffset: 0; stroke-linejoin: miter; stroke-miterlimit: 4; fill: rgb(0,0,0); fill-rule: nonzero; opacity: 1; white-space: pre;" ><tspan x="-134" y="5.97" style="font-size: 19px; font-weight: bold; ">Your Company Name</tspan></text>
</g>
<g transform="matrix(1 0 0 1 227.49 277.67)" style=""  >
		<text xml:space="preserve" font-family="'Open Sans', sans-serif" font-size="18" font-style="normal" font-weight="normal" style="stroke: none; stroke-width: 1; stroke-dasharray: none; stroke-linecap: butt; stroke-dashoffset: 0; stroke-linejoin: miter; stroke-miterlimit: 4; fill: rgb(0,0,0); fill-rule: nonzero; opacity: 1; white-space: pre;" ><tspan x="-85.99" y="5.65" >slogan here</tspan></text>
</g>
<g transform="matrix(1.21 0 0 1.21 194.43 166.73)"  >
<g style=""   >
		<g transform="matrix(1.25 0 0 -1.25 33 40.66)" id="path14"  >
<path style="stroke: none; stroke-width: 1; stroke-dasharray: none; stroke-linecap: butt; stroke-dashoffset: 0; stroke-linejoin: miter; stroke-miterlimit: 4; fill: rgb(72,116,133); fill-rule: evenodd; opacity: 1;"  transform=" translate(-65.14, -4.51)" d="m 66.762 1.002 c -1.176 -0.481 -2.321 -0.684 -3.442 -0.602 c -1.226 0.055 -2.082 0.68 -2.558 1.879 c -0.43 1.094 -0.375 1.879 0.16 2.36 c 0.613 0.535 1.719 1.867 3.316 4 l 5.563 -1.321 l -1.602 -5.558 c -0.371 -0.266 -0.851 -0.52 -1.437 -0.758 z" stroke-linecap="round" />
</g>
		<g transform="matrix(1.25 0 0 -1.25 32.32 -35.65)" id="path16"  >
<path style="stroke: none; stroke-width: 1; stroke-dasharray: none; stroke-linecap: butt; stroke-dashoffset: 0; stroke-linejoin: miter; stroke-miterlimit: 4; fill: rgb(130,171,191); fill-rule: evenodd; opacity: 1;"  transform=" translate(-64.6, -65.56)" d="m 57.359 68.56 l 11.719 2.399 l 2.762 -1.199 l -4.36 -9.602 l -10.121 8.402 z" stroke-linecap="round" />
</g>
		<g transform="matrix(1.25 0 0 -1.25 42.68 -1.9)" id="path18"  >
<path style="stroke: none; stroke-width: 1; stroke-dasharray: none; stroke-linecap: butt; stroke-dashoffset: 0; stroke-linejoin: miter; stroke-miterlimit: 4; fill: rgb(199,180,141); fill-rule: evenodd; opacity: 1;"  transform=" translate(-72.88, -38.56)" d="m 73.68 69.881 l 2.359 1.359 l 0.801 -1 l 0.16 -55.398 l -8.238 -8.961 l 0.316 61.597 l 1.481 0.922 c 1.175 0.692 2.214 1.188 3.121 1.481 z" stroke-linecap="round" />
</g>
		<g transform="matrix(1.25 0 0 -1.25 42.65 -1.9)" id="path20"  >
<path style="stroke: none; stroke-width: 1; stroke-dasharray: none; stroke-linecap: butt; stroke-dashoffset: 0; stroke-linejoin: miter; stroke-miterlimit: 4; fill: rgb(255,226,168); fill-rule: evenodd; opacity: 1;"  transform=" translate(-72.86, -38.56)" d="m 75.641 64.279 v 3.723 c -0.055 1.223 -0.188 1.785 -0.403 1.68 l -4.636 -3 c -0.723 -0.563 -1.082 -2.321 -1.082 -5.282 v -45.48 c 0 -4.426 0.132 -6.574 0.402 -6.442 l 5.879 6.883 c 0.105 0.321 0.144 1.399 0.121 3.239 c -0.027 2.16 -0.043 3.652 -0.043 4.48 l -0.238 40.199 z m -1.961 5.602 l 2.359 1.359 l 0.68 -0.84 l 0.242 -52.679 c 0 -1.36 -0.039 -2.375 -0.121 -3.039 l -8.078 -8.801 l 0.316 61.597 l 1.481 0.922 c 1.175 0.692 2.214 1.188 3.121 1.481 z" stroke-linecap="round" />
</g>
		<g transform="matrix(1.25 0 0 -1.25 42.25 -0.64)" id="path22"  >
<path style="stroke: none; stroke-width: 1; stroke-dasharray: none; stroke-linecap: butt; stroke-dashoffset: 0; stroke-linejoin: miter; stroke-miterlimit: 4; fill: rgb(82,131,150); fill-rule: evenodd; opacity: 1;"  transform=" translate(-72.54, -37.55)" d="m 77.281 68.279 l 0.199 -51.039 c 0 -2.695 -0.187 -4.121 -0.558 -4.281 l -8.723 -11.199 c -0.398 -0.399 -0.597 2.761 -0.597 9.48 l 0.32 52.32 c 0 1.547 0.09 2.907 0.277 4.079 c 0.242 1.254 0.535 1.933 0.879 2.043 l 7.363 3.437 c 0.321 0.535 0.547 0.242 0.68 -0.879 c 0.078 -0.746 0.133 -2.066 0.16 -3.961 z m -1.519 0.879 l -4.641 -3 c -0.746 -0.504 -1.121 -2.25 -1.121 -5.238 v -45.52 c 0.078 -4.398 0.227 -6.535 0.441 -6.398 l 5.879 6.879 c 0.106 0.32 0.149 1.387 0.121 3.199 c -0.027 2.16 -0.043 3.652 -0.043 4.48 l -0.238 40.2 v 3.718 c -0.055 1.254 -0.187 1.813 -0.398 1.68 z" stroke-linecap="round" />
</g>
		<g transform="matrix(1.25 0 0 -1.25 43.12 -3.7)" id="path24"  >
<path style="stroke: none; stroke-width: 1; stroke-dasharray: none; stroke-linecap: butt; stroke-dashoffset: 0; stroke-linejoin: miter; stroke-miterlimit: 4; fill: rgb(255,226,168); fill-rule: evenodd; opacity: 1;"  transform=" translate(-73.24, -40)" d="m 75.641 62.521 c 0.078 -0.507 -0.106 -1.652 -0.563 -3.441 c -0.476 -1.895 -0.703 -3.238 -0.68 -4.039 c -0.21 -16.106 -0.32 -24.469 -0.32 -25.082 c 0 -0.664 0.121 -2.414 0.363 -5.238 c 0.184 -2.668 0.133 -4.293 -0.16 -4.879 c -0.082 -0.188 -0.136 -0.641 -0.16 -1.364 c 0 -0.585 -0.133 -0.984 -0.402 -1.199 c -0.371 -0.32 -0.891 -0.453 -1.559 -0.398 c -0.695 0.054 -1.094 0.332 -1.199 0.84 c -0.188 0.879 -0.188 2.437 0 4.679 c 0.266 2.348 0.414 3.785 0.437 4.321 c 0.27 1.652 0.481 3.238 0.641 4.757 c 0.32 2.907 0.441 5.696 0.359 8.364 c -0.425 8.851 -0.625 14.25 -0.597 16.199 c 0.054 1.68 0.199 3.133 0.437 4.359 c 0.297 1.465 0.684 2.305 1.16 2.52 c 0.403 0.16 0.829 0.226 1.282 0.199 c 0.586 -0.027 0.906 -0.226 0.961 -0.598 z" stroke-linecap="round" />
</g>
		<g transform="matrix(1.25 0 0 -1.25 44.43 -3.62)" id="path26"  >
<path style="stroke: none; stroke-width: 1; stroke-dasharray: none; stroke-linecap: butt; stroke-dashoffset: 0; stroke-linejoin: miter; stroke-miterlimit: 4; fill: rgb(82,131,150); fill-rule: evenodd; opacity: 1;"  transform=" translate(-74.28, -39.94)" d="m 75 62.92 c 0.586 0.238 0.922 -0.535 1 -2.32 c 0.027 -1.067 0.027 -2.918 0 -5.559 c -0.215 -16.106 -0.32 -24.469 -0.32 -25.082 c 0 -0.664 0.121 -2.414 0.359 -5.238 c 0.188 -2.668 0.133 -4.293 -0.16 -4.879 c -0.481 -0.989 -1.067 -1.801 -1.758 -2.442 c -0.855 -0.746 -1.375 -0.64 -1.562 0.321 c -0.184 0.879 -0.184 2.437 0 4.679 c 0.269 2.348 0.414 3.785 0.441 4.321 c 0.266 1.652 0.48 3.238 0.641 4.757 c 0.32 2.907 0.437 5.696 0.359 8.364 c -0.426 8.851 -0.625 14.25 -0.602 16.199 c 0.055 1.68 0.204 3.133 0.442 4.359 c 0.293 1.465 0.68 2.305 1.16 2.52 z" stroke-linecap="round" />
</g>
		<g transform="matrix(1.25 0 0 -1.25 4.27 -43.41)" id="path28"  >
<path style="stroke: none; stroke-width: 1; stroke-dasharray: none; stroke-linecap: butt; stroke-dashoffset: 0; stroke-linejoin: miter; stroke-miterlimit: 4; fill: rgb(255,232,189); fill-rule: evenodd; opacity: 1;"  transform=" translate(-42.16, -71.77)" d="m 71.84 73.361 l 1.398 -0.48 l -6.476 -3.199 c -12.668 -0.082 -25.16 0.011 -37.481 0.277 c -7.707 0.16 -13.054 0.375 -16.043 0.641 l -2.16 0.359 l 10.684 2.723 l 1.918 0.199 l 48.16 -0.52 z" stroke-linecap="round" />
</g>
		<g transform="matrix(1.25 0 0 -1.25 4.32 -43.28)" id="path30"  >
<path style="stroke: none; stroke-width: 1; stroke-dasharray: none; stroke-linecap: butt; stroke-dashoffset: 0; stroke-linejoin: miter; stroke-miterlimit: 4; fill: rgb(235,207,153); fill-rule: evenodd; opacity: 1;"  transform=" translate(-42.2, -71.66)" d="m 73.238 72.881 l -6.476 -3.199 h -7.481 c 3.012 0.05 5.199 0.238 6.559 0.558 l 3.68 1.602 c 0.32 0.238 -0.481 0.359 -2.399 0.359 c -2.641 -0.027 -4.601 -0.016 -5.883 0.039 l -31.679 0.84 c -3.145 0 -5.051 -0.094 -5.719 -0.281 l -9.442 -2.598 c -0.933 0.051 -1.73 0.184 -2.398 0.399 c -0.508 0.187 -0.785 0.293 -0.84 0.32 l 9.84 2.32 c 0.32 0.106 1.094 0.199 2.32 0.281 c 1.172 0.079 2.481 0.118 3.918 0.118 l 44.883 -0.36 l 1.117 -0.398 z" stroke-linecap="round" />
</g>
		<g transform="matrix(1.25 0 0 -1.25 2 -42.77)" id="path32"  >
<path style="stroke: none; stroke-width: 1; stroke-dasharray: none; stroke-linecap: butt; stroke-dashoffset: 0; stroke-linejoin: miter; stroke-miterlimit: 4; fill: rgb(116,164,184); fill-rule: evenodd; opacity: 1;"  transform=" translate(-40.34, -71.26)" d="m 65.48 70.721 l 5.079 2.078 c 0.32 0.215 -0.664 0.336 -2.957 0.359 c -2.989 -0.051 -5.122 -0.051 -6.403 0 l -31.961 0.363 c -3.84 0 -5.906 -0.054 -6.199 -0.16 l -9.758 -2.48 c -0.375 -0.133 1.078 -0.199 4.36 -0.199 l 38.281 -0.602 c 3.465 0.055 5.316 0.094 5.558 0.121 c 1.653 0.078 2.989 0.254 4 0.52 z m 7.36 3 c 1.387 0 2.465 -0.039 3.238 -0.121 c 0.777 -0.106 1 -0.215 0.684 -0.321 l -9 -4.199 c -0.403 -0.16 -1.137 -0.305 -2.203 -0.441 c -1.387 -0.161 -2.973 -0.227 -4.758 -0.2 l -53.082 0.481 c -1.278 0.027 -2.332 0.148 -3.16 0.359 c -0.774 0.215 -0.973 0.375 -0.598 0.481 l 16.68 3.922 c 0.32 0.105 1.093 0.199 2.32 0.277 c 1.172 0.082 2.48 0.121 3.918 0.121 l 45.961 -0.359 z" stroke-linecap="round" />
</g>
		<g transform="matrix(1.25 0 0 -1.25 4.47 -43.39)" id="path34"  >
<path style="stroke: none; stroke-width: 1; stroke-dasharray: none; stroke-linecap: butt; stroke-dashoffset: 0; stroke-linejoin: miter; stroke-miterlimit: 4; fill: rgb(235,207,153); fill-rule: evenodd; opacity: 1;"  transform=" translate(-42.32, -71.75)" d="m 55.039 72.56 c 0.883 0.028 3.348 0.122 7.402 0.282 c 0.348 0 0.532 -0.231 0.559 -0.684 c 0.027 -0.426 -0.094 -0.703 -0.359 -0.84 c -0.426 -0.265 -1.149 -0.425 -2.161 -0.476 c -3.492 -0.27 -6.281 -0.414 -8.359 -0.442 h -3 c -2.695 -0.027 -3.922 -0.027 -3.68 0 c 0.454 0.106 -2.109 0.215 -7.679 0.321 l -3.762 0.039 c -4.508 0.082 -7.055 0.105 -7.641 0.082 c -0.504 0 -1.171 -0.043 -2 -0.121 c -0.586 -0.055 -1.132 -0.067 -1.64 -0.039 c -0.774 0.023 -1.133 0.343 -1.078 0.957 c 0.078 0.586 0.281 0.882 0.597 0.882 c 0.028 0 1.387 0.106 4.082 0.321 c 2.668 0.211 4.625 0.304 5.879 0.277 c 0.801 -0.027 2.016 -0.078 3.641 -0.16 c 1.734 -0.106 2.652 -0.172 2.762 -0.199 c 1.41 -0.453 2.718 -0.614 3.918 -0.481 c 0.64 0.082 1.546 0.199 2.718 0.36 l 2.282 -0.2 c 3.519 -0.054 6.027 -0.011 7.519 0.121 z" stroke-linecap="round" />
</g>
		<g transform="matrix(1.25 0 0 -1.25 4.42 -44.54)" id="path36"  >
<path style="stroke: none; stroke-width: 1; stroke-dasharray: none; stroke-linecap: butt; stroke-dashoffset: 0; stroke-linejoin: miter; stroke-miterlimit: 4; fill: rgb(116,164,184); fill-rule: evenodd; opacity: 1;"  transform=" translate(-42.27, -72.67)" d="m 55 72.881 c 3.945 0.105 6.105 0.16 6.48 0.16 c 1.122 -0.027 1.454 -0.121 1 -0.281 c -0.425 -0.16 -1.093 -0.266 -2 -0.321 c -3.492 -0.265 -6.281 -0.414 -8.359 -0.437 h -3 c -2.695 -0.027 -3.922 -0.027 -3.68 0 c 0.454 0.105 -2.109 0.211 -7.679 0.316 l -3.762 0.043 c -4.508 0.078 -7.055 0.106 -7.641 0.078 c -1.492 -0.105 -2.707 -0.16 -3.64 -0.16 c -1.172 0.028 -1.133 0.16 0.121 0.403 c 1.199 0.265 2.453 0.437 3.762 0.519 c 2.32 0.133 4.078 0.184 5.277 0.16 c 0.773 0 1.867 -0.027 3.281 -0.082 c 1.492 -0.054 2.293 -0.094 2.399 -0.121 c 0.136 -0.051 2.015 -0.105 5.64 -0.156 l 11.801 -0.121 z" stroke-linecap="round" />
</g>
		<g transform="matrix(1.25 0 0 -1.25 -5.4 2.55)" id="path38"  >
<path style="stroke: none; stroke-width: 1; stroke-dasharray: none; stroke-linecap: butt; stroke-dashoffset: 0; stroke-linejoin: miter; stroke-miterlimit: 4; fill: rgb(255,226,168); fill-rule: evenodd; opacity: 1;"  transform=" translate(-34.42, -35)" d="m 66.121 65.478 v -63.277 l -63.402 2.117 l 0.121 63.481 l 63.281 -2.321 z" stroke-linecap="round" />
</g>
		<g transform="matrix(1.25 0 0 -1.25 -6.9 -32)" id="path40"  >
<path style="stroke: none; stroke-width: 1; stroke-dasharray: none; stroke-linecap: butt; stroke-dashoffset: 0; stroke-linejoin: miter; stroke-miterlimit: 4; fill: rgb(235,207,153); fill-rule: evenodd; opacity: 1;"  transform=" translate(-33.22, -62.64)" d="m 65.281 60.959 c -0.988 -0.293 -2.453 -0.547 -4.402 -0.758 c -3.918 -0.426 -8.277 -0.469 -13.078 -0.121 c -6.586 0.559 -11.176 0.934 -13.762 1.121 c -4.293 0.348 -8.398 0.52 -12.32 0.52 c -3.973 0.027 -8.321 -0.266 -13.039 -0.879 c -2.348 -0.297 -4.305 -0.59 -5.879 -0.883 l -0.821 3.402 c 0.262 -0.086 0.575 -0.164 0.942 -0.242 c 1.758 -0.371 4.117 -0.531 7.078 -0.48 c 9.625 0.16 18.52 -0.094 26.68 -0.758 c 3.894 -0.348 7.718 -0.68 11.48 -1 c 2.188 -0.16 4.508 -0.121 6.961 0.121 c 2.348 0.238 4.707 0.664 7.078 1.277 c 1.176 0.321 2.121 0.614 2.84 0.879 l 0.242 -2.199 z m -15.281 2.359 c -9.332 -0.117 -16.145 -0.039 -20.441 0.242 c -3.254 0.215 -7.747 0.293 -13.481 0.239 c -2.984 -0.024 -6.531 -0.067 -10.637 -0.117 h -3.543 l -0.418 1.757 c 1.598 -0.398 3.665 -0.652 6.2 -0.757 c 1.465 -0.055 4.398 -0.082 8.8 -0.082 c 11.2 -0.051 20.094 -0.348 26.68 -0.879 c 2.578 -0.196 4.86 -0.328 6.84 -0.403 z m -48.102 0.364 l 0.082 -0.321 c -0.375 0.102 -0.648 0.211 -0.82 0.321 h 0.738 z" stroke-linecap="round" />
</g>
		<g transform="matrix(1.25 0 0 -1.25 -5.87 -10.7)" id="path42"  >
<path style="stroke: none; stroke-width: 1; stroke-dasharray: none; stroke-linecap: butt; stroke-dashoffset: 0; stroke-linejoin: miter; stroke-miterlimit: 4; fill: rgb(235,207,153); fill-rule: evenodd; opacity: 1;"  transform=" translate(-34.04, -45.6)" d="m 65.48 36.639 c -0.558 -0.133 -1.613 -0.184 -3.16 -0.161 c -3.121 0.028 -7.187 0.387 -12.199 1.082 c -7.226 1.012 -11.867 1.625 -13.922 1.84 c -3.547 0.348 -6.785 0.442 -9.719 0.282 c -2.16 -0.137 -6.242 -0.707 -12.242 -1.723 c -5.332 -0.906 -8.343 -1.305 -9.039 -1.199 l -1.5 0.261 c -0.101 1.454 -0.164 3.325 -0.179 5.618 c 0.875 -0.332 2.113 -0.668 3.718 -1 c 3.387 -0.692 7.067 -1.079 11.043 -1.161 c 3.145 -0.05 7.16 -0.023 12.039 0.082 c 4.055 0.106 6.934 0.106 8.641 0 c 0.16 0 3.758 -0.292 10.801 -0.878 c 5.117 -0.43 8.57 -0.59 10.359 -0.481 c 2.984 0.16 4.801 0.305 5.438 0.438 l -0.079 -3 z m 0.239 4.64 c -1.414 -0.105 -3.293 -0.16 -5.641 -0.16 c -4.691 0 -9.383 0.254 -14.078 0.762 c -4.215 0.453 -9.332 0.504 -15.359 0.16 c -6.082 -0.348 -9.856 -0.441 -11.321 -0.281 c -3.855 0.394 -9.121 1.277 -15.8 2.64 v 1.121 c 0.003 0.692 0.011 1.383 0.019 2.079 c 0.262 -0.196 0.559 -0.383 0.902 -0.559 c 1.813 -1.016 4.973 -1.988 9.481 -2.922 c 5.84 -1.25 11.105 -1.625 15.797 -1.117 c 4.883 0.504 9.242 0.719 13.082 0.637 c 2.48 -0.051 6.187 -0.305 11.121 -0.758 c 3.41 -0.293 6.437 -0.242 9.078 0.16 c 1.332 0.184 2.32 0.414 2.961 0.68 l -0.242 -2.442 z m -0.68 8.16 c -1.012 -0.293 -2.344 -0.531 -4 -0.718 c -3.305 -0.403 -6.57 -0.387 -9.801 0.039 c -4.023 0.531 -8.41 0.894 -13.16 1.082 c -5.012 0.183 -9.293 0.117 -12.84 -0.203 c -3.332 -0.293 -7.383 -0.36 -12.16 -0.2 c -4.211 0.133 -7.156 0.36 -8.84 0.68 c -0.238 0.043 -0.449 0.07 -0.636 0.082 c 0 0.367 0.007 0.731 0.019 1.098 c 0.402 -0.074 0.914 -0.133 1.539 -0.18 c 2.215 -0.211 5.012 -0.144 8.399 0.199 c 3.546 0.375 7.48 0.524 11.8 0.442 c 2.188 -0.028 5.309 -0.16 9.36 -0.399 c 0.242 -0.027 3.894 -0.402 10.961 -1.121 c 5.359 -0.558 9.082 -0.746 11.16 -0.558 c 3.492 0.293 5.359 0.464 5.601 0.519 l 2.598 0.68 v -1.442 z m 0.68 6.039 c -7.758 0.188 -13.106 0.403 -16.039 0.641 c -5.547 0.402 -11.387 -0.051 -17.52 -1.359 c -2.961 -0.641 -8.16 -1.227 -15.601 -1.758 c -7.254 -0.508 -11.332 -0.617 -12.239 -0.32 c -0.254 0.082 -0.476 0.125 -0.66 0.117 c 0.043 1.656 0.106 3.308 0.18 4.961 c 1.762 -1.039 3.988 -1.895 6.68 -2.559 c 3.812 -0.906 7.402 -1.066 10.761 -0.48 c 4.453 0.8 8.852 1.464 13.199 2 c 5.227 0.64 9.321 0.918 12.282 0.839 c 2.133 -0.082 5.293 -0.226 9.476 -0.441 c 3.364 -0.133 5.551 -0.105 6.563 0.082 c 1.707 0.293 2.758 0.547 3.16 0.758 l -0.242 -2.481 z m -62.098 -4.179 c -0.312 0.066 -0.559 0.14 -0.742 0.222 c -0.051 0.293 -0.024 0.559 0.082 0.797 c 0.121 0.313 0.351 0.473 0.699 0.481 c -0.015 -0.5 -0.027 -1 -0.039 -1.5 z m -0.101 -6.899 c -0.004 -0.613 -0.004 -1.199 0 -1.761 c -0.04 0.011 -0.082 0.027 -0.122 0.043 l -0.078 1.757 c 0.067 -0.011 0.133 -0.027 0.2 -0.039 z m -1.122 4.84 c -0.109 0.68 0.293 1 1.204 0.961 c -0.028 -0.867 -0.047 -1.734 -0.063 -2.601 c -0.664 0.496 -1.043 1.043 -1.141 1.64 z m 1.442 -13.84 c -0.067 0.012 -0.133 0.028 -0.199 0.039 c -1.282 0.243 -1.746 0.602 -1.403 1.082 l 0.883 0.598 l 0.578 -0.098 c 0.043 -0.617 0.09 -1.156 0.141 -1.621 z m 11.441 0.442 c -5.867 -1.762 -9.426 -2.629 -10.679 -2.602 c -0.325 0.012 -0.579 0.731 -0.762 2.16 c 2.086 -0.351 5.898 -0.207 11.441 0.442 z" stroke-linecap="round" />
</g>
		<g transform="matrix(1.25 0 0 -1.25 3.9 1.43)" id="path44"  >
<path style="stroke: none; stroke-width: 1; stroke-dasharray: none; stroke-linecap: butt; stroke-dashoffset: 0; stroke-linejoin: miter; stroke-miterlimit: 4; fill: rgb(235,207,153); fill-rule: evenodd; opacity: 1;"  transform=" translate(-41.86, -35.9)" d="m 47.559 34.842 c -0.106 0.023 -2.571 0.664 -7.399 1.918 c -2.426 0.64 -5.949 0.828 -10.558 0.558 l -6.161 -0.558 l 1.039 0.32 l 3.122 0.398 c 6.718 0.774 12.597 0.59 17.636 -0.558 c 4.59 -1.012 9.602 -1.867 15.043 -2.559 c 0 -0.109 -0.226 -0.215 -0.679 -0.32 c -0.934 -0.188 -2.563 -0.242 -4.883 -0.16 c -2.399 0.105 -4.785 0.426 -7.16 0.961 z" stroke-linecap="round" />
</g>
		<g transform="matrix(1.25 0 0 -1.25 22.65 8.89)" id="path46"  >
<path style="stroke: none; stroke-width: 1; stroke-dasharray: none; stroke-linecap: butt; stroke-dashoffset: 0; stroke-linejoin: miter; stroke-miterlimit: 4; fill: rgb(235,207,153); fill-rule: evenodd; opacity: 1;"  transform=" translate(-56.86, -29.93)" d="m 64.801 30.842 c 0.394 -0.106 0.441 -0.188 0.14 -0.242 l -0.14 0.242 z m 0.14 -0.242 l 0.981 -1.758 c -0.75 -0.082 -1.684 -0.082 -2.801 0 c -1.601 0.105 -2.641 0.183 -3.121 0.238 c -1.465 0.16 -2.922 0.426 -4.359 0.801 c -1.387 0.344 -3.106 0.531 -5.161 0.558 l -2.679 -0.039 l 2.48 0.481 c 2.321 0.265 5.199 0.254 8.641 -0.039 c 3.41 -0.27 5.41 -0.348 6 -0.242 h 0.019 z" stroke-linecap="round" />
</g>
		<g transform="matrix(1.25 0 0 -1.25 -18.01 7.46)" id="path48"  >
<path style="stroke: none; stroke-width: 1; stroke-dasharray: none; stroke-linecap: butt; stroke-dashoffset: 0; stroke-linejoin: miter; stroke-miterlimit: 4; fill: rgb(235,207,153); fill-rule: evenodd; opacity: 1;"  transform=" translate(-24.33, -31.07)" d="m 3.359 31.002 c 0.075 -0.098 0.207 -0.176 0.403 -0.242 c 1.304 -0.453 4.972 -0.293 11 0.48 c 6.636 0.852 12.105 1.414 16.398 1.68 c 3.172 0.16 6.547 0.199 10.121 0.121 c 1.875 -0.051 3.453 -0.098 4.739 -0.141 c -1.172 0.012 -2.418 0.02 -3.739 0.02 c -5.336 -0.027 -9.601 -0.36 -12.801 -1 c -3.546 -0.719 -8.281 -1.399 -14.199 -2.039 c -5.441 -0.613 -8.855 -0.879 -10.242 -0.801 l -2.398 0.121 l 0.718 1.801 z m 0 0.359 l 0.282 0.321 l -0.282 -0.68 c -0.066 0.101 -0.066 0.219 0 0.359 z" stroke-linecap="round" />
</g>
		<g transform="matrix(1.25 0 0 -1.25 -36.26 13.1)" id="path50"  >
<path style="stroke: none; stroke-width: 1; stroke-dasharray: none; stroke-linecap: butt; stroke-dashoffset: 0; stroke-linejoin: miter; stroke-miterlimit: 4; fill: rgb(235,207,153); fill-rule: evenodd; opacity: 1;"  transform=" translate(-9.73, -26.56)" d="m 3.078 27.92 c 1.762 -0.453 4.363 -0.668 7.801 -0.641 c 3.215 0 5.101 0.047 5.66 0.141 c -7.269 -1.508 -11.449 -2.246 -12.539 -2.219 c -0.695 0.024 -1.055 0.481 -1.078 1.359 l 0.156 1.36 z" stroke-linecap="round" />
</g>
		<g transform="matrix(1.25 0 0 -1.25 -5.39 17.41)" id="path52"  >
<path style="stroke: none; stroke-width: 1; stroke-dasharray: none; stroke-linecap: butt; stroke-dashoffset: 0; stroke-linejoin: miter; stroke-miterlimit: 4; fill: rgb(235,207,153); fill-rule: evenodd; opacity: 1;"  transform=" translate(-34.43, -23.11)" d="m 3.762 23.439 c 1.144 -0.105 2.703 -0.148 4.679 -0.121 c 3.918 0.082 7.918 0.442 12 1.082 c 8.614 1.332 13.278 2.039 14 2.121 c 5.067 0.559 9.586 0.559 13.559 0 c 3.84 -0.535 7.773 -1.562 11.801 -3.082 c 2 -0.746 3.625 -1.437 4.879 -2.078 l 0.718 -2.082 c -1.066 0.746 -2.519 1.547 -4.359 2.403 c -3.625 1.679 -7.277 2.718 -10.961 3.117 c -4.957 0.562 -9.012 0.855 -12.156 0.883 c -4 0.023 -7.961 -0.336 -11.883 -1.082 c -13.57 -2.508 -20.851 -3.747 -21.84 -3.719 c -0.558 0.027 -0.801 0.453 -0.719 1.277 l 0.282 1.281 z" stroke-linecap="round" />
</g>
		<g transform="matrix(1.25 0 0 -1.25 -5.83 24.03)" id="path54"  >
<path style="stroke: none; stroke-width: 1; stroke-dasharray: none; stroke-linecap: butt; stroke-dashoffset: 0; stroke-linejoin: miter; stroke-miterlimit: 4; fill: rgb(235,207,153); fill-rule: evenodd; opacity: 1;"  transform=" translate(-34.08, -17.81)" d="m 65.559 13.201 c -1.118 -0.266 -2.481 -0.519 -4.079 -0.762 c -3.226 -0.453 -6.082 -0.574 -8.558 -0.359 c -1.149 0.105 -5.16 0.602 -12.043 1.48 c -6.293 0.825 -11.465 1.375 -15.52 1.641 c -4.371 0.293 -9.371 -0.266 -15 -1.68 c -2.8 -0.722 -5.171 -1.468 -7.121 -2.242 l -0.039 4.379 c 0.68 0.356 1.613 0.68 2.801 0.981 c 3.52 0.906 8.078 1.136 13.68 0.679 c 4.215 -0.343 10.386 -1.183 18.519 -2.519 c 6.723 -1.094 11.36 -1.614 13.922 -1.559 c 4.879 0.078 9.438 0.465 13.68 1.16 l -0.242 -1.199 z m -0.079 2.641 c -1.148 0.558 -2.746 1.211 -4.8 1.957 c -4.133 1.496 -8.508 2.679 -13.121 3.562 c -5.039 0.934 -10.454 1.344 -16.239 1.239 c -4.773 -0.079 -8.718 -0.454 -11.84 -1.122 c -3.492 -0.773 -8.906 -2.293 -16.242 -4.558 l -0.058 0.5 l -0.02 2.738 c 0.586 -0.078 1.547 -0.078 2.879 0 c 2.695 0.16 5.973 0.629 9.84 1.402 c 6.933 1.415 11.601 2.239 14 2.481 c 5.359 0.586 10.402 0.332 15.121 -0.762 c 7.172 -1.625 13.879 -3.398 20.121 -5.32 l 0.359 -2.117 z m -62.3 1.578 l 0.019 -1.762 c -0.344 -0.172 -0.625 -0.351 -0.84 -0.539 l 0.52 5.039 l 0.301 -2.738 z" stroke-linecap="round" />
</g>
		<g transform="matrix(1.25 0 0 -1.25 -0.78 22.87)" id="path56"  >
<path style="stroke: none; stroke-width: 1; stroke-dasharray: none; stroke-linecap: butt; stroke-dashoffset: 0; stroke-linejoin: miter; stroke-miterlimit: 4; fill: rgb(235,207,153); fill-rule: evenodd; opacity: 1;"  transform=" translate(-38.12, -18.75)" d="m 30.441 20.521 c 2.532 0.481 5.36 0.614 8.481 0.399 c 3.465 -0.238 5.84 -0.895 7.117 -1.961 c 1.387 -1.117 1.281 -1.867 -0.32 -2.238 c -1.574 -0.403 -3.973 -0.309 -7.199 0.281 c -3.52 0.609 -6.122 1.238 -7.801 1.879 c -1.891 0.746 -1.985 1.293 -0.278 1.64 z" stroke-linecap="round" />
</g>
		<g transform="matrix(1.25 0 0 -1.25 -2.58 35.99)" id="path58"  >
<path style="stroke: none; stroke-width: 1; stroke-dasharray: none; stroke-linecap: butt; stroke-dashoffset: 0; stroke-linejoin: miter; stroke-miterlimit: 4; fill: rgb(235,207,153); fill-rule: evenodd; opacity: 1;"  transform=" translate(-36.68, -8.25)" d="m 66 10.318 c -0.508 -0.316 -1.359 -0.613 -2.559 -0.879 c -2.402 -0.586 -5.336 -0.8 -8.8 -0.64 c -6.774 0.293 -11.243 0.441 -13.403 0.441 c -5.093 0.028 -8.492 -0.32 -10.199 -1.039 c -2.293 -1.176 -3.973 -1.988 -5.039 -2.441 c -1.84 -0.825 -3.828 -1.227 -5.961 -1.2 c -3.437 0.051 -7.664 0.321 -12.68 0.801 c 3.868 0.024 7.082 0.199 9.641 0.52 c 3.227 0.398 6.441 1.133 9.641 2.199 c 3.039 1.012 7.027 1.652 11.961 1.922 c 3.464 0.183 7.05 0.183 10.757 0 c 3.469 -0.188 8.84 0.453 16.121 1.918 c 0.079 0.082 0.188 -0.16 0.321 -0.719 c 0.078 -0.293 0.144 -0.59 0.199 -0.883 z" stroke-linecap="round" />
</g>
		<g transform="matrix(1.25 0 0 -1.25 9.8 38.58)" id="path60"  >
<path style="stroke: none; stroke-width: 1; stroke-dasharray: none; stroke-linecap: butt; stroke-dashoffset: 0; stroke-linejoin: miter; stroke-miterlimit: 4; fill: rgb(235,207,153); fill-rule: evenodd; opacity: 1;"  transform=" translate(-46.58, -6.17)" d="m 65.398 6.4 c -3.332 -0.054 -7.918 0.039 -13.757 0.282 c -3.946 0.183 -8.055 0 -12.321 -0.563 c -3.519 -0.48 -6.105 -1.027 -7.761 -1.641 c -1.118 -0.398 -2.118 -0.503 -3 -0.32 l -0.957 0.442 c 2.293 1.148 4.144 1.906 5.558 2.281 c 3.602 0.961 7.945 1.265 13.039 0.918 c 4.989 -0.344 9.707 -0.371 14.16 -0.078 c 2.243 0.16 3.973 0.347 5.2 0.558 l -0.161 -1.879 z" stroke-linecap="round" />
</g>
		<g transform="matrix(1.25 0 0 -1.25 15.36 40.98)" id="path62"  >
<path style="stroke: none; stroke-width: 1; stroke-dasharray: none; stroke-linecap: butt; stroke-dashoffset: 0; stroke-linejoin: miter; stroke-miterlimit: 4; fill: rgb(235,207,153); fill-rule: evenodd; opacity: 1;"  transform=" translate(-51.03, -4.26)" d="m 40.98 4.201 c 1.653 0.277 2.821 0.465 3.5 0.559 c 5.36 0.851 8.918 1.16 10.68 0.922 c 1.867 -0.243 3.414 -0.707 4.641 -1.403 c 0.613 -0.371 1.039 -0.707 1.277 -1 l -2.476 -0.519 c -0.696 0.425 -1.547 0.867 -2.563 1.32 c -2.051 0.879 -3.894 1.332 -5.519 1.359 c -1.625 0.028 -3.266 -0.281 -4.918 -0.918 l -2 -0.921 c -0.403 0.105 -0.84 0.226 -1.321 0.359 c -0.558 0.129 -0.992 0.207 -1.301 0.242 z" stroke-linecap="round" />
</g>
		<g transform="matrix(1.25 0 0 -1.25 -29.46 -26.64)" id="path64"  >
<path style="stroke: none; stroke-width: 1; stroke-dasharray: none; stroke-linecap: butt; stroke-dashoffset: 0; stroke-linejoin: miter; stroke-miterlimit: 4; fill: rgb(235,207,153); fill-rule: evenodd; opacity: 1;"  transform=" translate(-15.17, -58.35)" d="m 19.48 58.002 c 1.465 0.398 1.735 0.851 0.801 1.359 c -0.906 0.504 -2.519 0.692 -4.84 0.559 c -2.296 -0.106 -4.043 -0.453 -5.242 -1.039 c -0.558 -0.266 -0.437 -0.496 0.36 -0.68 c 0.507 -0.109 1.839 -0.281 4 -0.519 c 1.867 -0.188 3.507 -0.082 4.921 0.32 z m 0.52 2.558 c 2.348 -0.347 3.375 -1.253 3.078 -2.718 c -0.316 -1.469 -2.144 -2.094 -5.476 -1.883 c -3.68 0.242 -6.59 0.773 -8.723 1.601 c -2.211 0.852 -2.211 1.547 0 2.079 c 1.976 0.48 3.652 0.8 5.043 0.961 c 2.183 0.265 4.211 0.253 6.078 -0.04 z" stroke-linecap="round" />
</g>
		<g transform="matrix(1.25 0 0 -1.25 -29.84 33.94)" id="path66"  >
<path style="stroke: none; stroke-width: 1; stroke-dasharray: none; stroke-linecap: butt; stroke-dashoffset: 0; stroke-linejoin: miter; stroke-miterlimit: 4; fill: rgb(235,207,153); fill-rule: evenodd; opacity: 1;"  transform=" translate(-14.86, -9.88)" d="m 4.879 8.959 c 1.922 1.309 4.746 2.293 8.48 2.961 c 3.922 0.695 7.121 0.707 9.602 0.039 c 2.453 -0.664 2.906 -1.613 1.359 -2.84 c -1.519 -1.172 -3.613 -1.773 -6.281 -1.801 c -4.371 0 -7.504 0.067 -9.398 0.203 c -3.575 0.239 -4.829 0.719 -3.762 1.438 z m 3.441 0.359 c -0.773 -0.316 0.426 -0.531 3.602 -0.636 c 3.172 -0.11 5.637 -0.016 7.398 0.277 c 1.735 0.293 2.481 0.734 2.239 1.32 c -0.239 0.563 -1.332 0.879 -3.278 0.961 c -1.629 0.078 -3.773 -0.215 -6.441 -0.879 c -1.332 -0.347 -2.508 -0.695 -3.52 -1.043 z" stroke-linecap="round" />
</g>
		<g transform="matrix(1.25 0 0 -1.25 -6.88 0.49)" id="path68"  >
<path style="stroke: none; stroke-width: 1; stroke-dasharray: none; stroke-linecap: butt; stroke-dashoffset: 0; stroke-linejoin: miter; stroke-miterlimit: 4; fill: rgb(181,156,111); fill-rule: evenodd; opacity: 1;"  transform=" translate(-33.23, -36.65)" d="m 53.602 67.842 c 2.984 0.105 4.785 0.023 5.398 -0.242 c 1.574 -0.665 2.707 -1.067 3.398 -1.2 c 2 -0.425 2.907 -0.988 2.723 -1.679 c -0.027 -0.082 -0.176 -0.36 -0.441 -0.84 c -0.215 -0.348 -0.266 -0.629 -0.16 -0.84 c 0.242 -0.508 0.214 -1.16 -0.079 -1.961 c -0.32 -0.828 -0.519 -0.922 -0.601 -0.281 c -0.051 0.562 -0.481 1.027 -1.281 1.402 c -0.692 0.32 -1.547 0.52 -2.559 0.598 c -1.254 0.082 -17.922 0.386 -50 0.922 c -0.828 0 -1.375 -0.563 -1.641 -1.68 c -0.16 -0.586 -0.281 -1.856 -0.359 -3.801 c -0.078 -1.629 -0.145 -7.855 -0.199 -18.68 c -0.028 -12.16 0.027 -21.558 0.16 -28.199 c 0.027 -1.148 0.184 -2.109 0.48 -2.883 c 0.266 -0.718 0.559 -1.105 0.879 -1.16 l 0.918 -1.718 c -2.398 -0.188 -3.945 -0.239 -4.636 -0.161 c -0.723 0.082 -2.149 0.868 -4.282 2.36 l 0.68 21.801 l 0.199 31.558 l 3.121 6.563 c 27.121 -0.082 43.215 -0.039 48.282 0.121 z" stroke-linecap="round" />
</g>
		<g transform="matrix(1.25 0 0 -1.25 -6.3 2.07)" id="path70"  >
<path style="stroke: none; stroke-width: 1; stroke-dasharray: none; stroke-linecap: butt; stroke-dashoffset: 0; stroke-linejoin: miter; stroke-miterlimit: 4; fill: rgb(255,242,209); fill-rule: evenodd; opacity: 1;"  transform=" translate(-33.7, -35.38)" d="m 65.16 10.842 l 0.039 49.558 c 0 1.332 -0.465 2.493 -1.398 3.481 c -0.961 0.961 -2.106 1.465 -3.442 1.519 l -49.121 1.282 c -1.332 0.023 -2.476 -0.414 -3.437 -1.321 c -0.934 -0.933 -1.403 -2.082 -1.403 -3.441 l -0.039 -49.559 c 0 -1.336 0.469 -2.496 1.403 -3.48 c 0.957 -0.988 2.105 -1.496 3.437 -1.52 l 49.121 -1.281 c 1.332 -0.055 2.481 0.398 3.442 1.359 c 0.933 0.934 1.398 2.067 1.398 3.403 z m 0.36 -4.602 c 0 -1.039 0.039 -2.187 0.121 -3.441 c -0.106 -0.746 -0.829 -1.106 -2.161 -1.078 l -55.921 1.398 c -1.547 0.027 -2.891 0.641 -4.039 1.84 c -1.172 1.199 -1.758 2.574 -1.758 4.121 l 0.277 56.641 c 0 1.414 0.563 2.359 1.68 2.839 c 0.801 0.375 2.109 0.532 3.922 0.481 l 51.879 -1.602 c 2.32 -0.054 3.707 -0.148 4.16 -0.281 c 1.226 -0.344 1.84 -1.183 1.84 -2.519 v -58.399 z" stroke-linecap="round" />
</g>
		<g transform="matrix(1.25 0 0 -1.25 -40.76 1.72)" id="path72"  >
<path style="stroke: none; stroke-width: 1; stroke-dasharray: none; stroke-linecap: butt; stroke-dashoffset: 0; stroke-linejoin: miter; stroke-miterlimit: 4; fill: rgb(199,180,141); fill-rule: evenodd; opacity: 1;"  transform=" translate(-6.13, -35.66)" d="m 2.602 48.4 c -0.11 0.801 0.105 5.602 0.636 14.399 l 0.801 2.922 l 4.281 2.398 l 1.641 -1.598 c -1.039 -0.242 -1.895 -0.789 -2.563 -1.64 c -0.664 -0.856 -1 -1.84 -1 -2.961 l -0.039 -49.559 c 0 -1.707 0.719 -3.082 2.161 -4.121 c -0.614 -0.187 -1.04 -0.519 -1.282 -1 c -0.265 -0.535 -0.226 -1.16 0.121 -1.879 c 0.215 -0.453 0.243 -0.883 0.082 -1.281 c -0.136 -0.375 -0.402 -0.668 -0.8 -0.879 c -1.575 0.32 -2.868 1.211 -3.879 2.68 l -0.043 0.238 c -0.371 2 -0.492 9.508 -0.36 22.52 c 0.082 6.535 0.161 13.121 0.243 19.761 z" stroke-linecap="round" />
</g>
		<g transform="matrix(1.25 0 0 -1.25 -6 2.75)" id="path74"  >
<path style="stroke: none; stroke-width: 1; stroke-dasharray: none; stroke-linecap: butt; stroke-dashoffset: 0; stroke-linejoin: miter; stroke-miterlimit: 4; fill: rgb(235,207,153); fill-rule: evenodd; opacity: 1;"  transform=" translate(-33.94, -34.84)" d="m 63.602 58.799 c 0 1.386 -0.508 2.679 -1.524 3.883 c -1.039 1.277 -2.199 1.933 -3.476 1.957 l -49.481 1.203 c -1.309 0.023 -2.508 -0.535 -3.601 -1.684 c -1.067 -1.144 -1.598 -2.398 -1.598 -3.758 l 0.519 -50.16 c 0 -1.281 0.52 -2.347 1.559 -3.199 c 0.988 -0.801 2.188 -1.227 3.602 -1.281 l 49.117 -1.282 c 1.336 -0.05 2.48 0.403 3.441 1.364 c 0.934 0.933 1.399 2.066 1.399 3.398 l 0.043 49.559 z m 2.597 7.601 c 1.016 -1.121 1.52 -2.453 1.52 -4 l -0.117 -57.039 c -0.028 -1.519 -0.602 -2.789 -1.723 -3.801 c -1.117 -1.015 -2.453 -1.492 -4 -1.441 l -55.918 1.402 c -1.547 0.028 -2.895 0.637 -4.039 1.84 c -1.176 1.199 -1.762 2.574 -1.762 4.117 l 0.281 56.641 c 0 1.547 0.547 2.856 1.637 3.922 c 1.067 1.039 2.375 1.547 3.922 1.519 l 56.398 -1.441 c 1.524 -0.051 2.79 -0.625 3.801 -1.719 z" stroke-linecap="round" />
</g>
		<g transform="matrix(1.25 0 0 -1.25 -5.95 -1.37)" id="path76"  >
<path style="stroke: none; stroke-width: 1; stroke-dasharray: none; stroke-linecap: butt; stroke-dashoffset: 0; stroke-linejoin: miter; stroke-miterlimit: 4; fill: rgb(92,146,168); fill-rule: evenodd; opacity: 1;"  transform=" translate(-33.98, -38.14)" d="m 3.078 32.002 c 0.695 -0.055 1 0.105 0.922 0.476 c -0.078 0.215 -0.387 0.321 -0.922 0.321 v -0.797 z m -0.039 7.117 c 0.082 0.027 0.188 0.094 0.32 0.199 c -0.105 0.563 -0.281 0.883 -0.519 0.961 c -0.238 -0.211 -0.332 -0.613 -0.281 -1.199 c 0.187 -0.055 0.347 -0.039 0.48 0.039 z m -0.199 2.359 c -0.028 -0.343 0.055 -0.57 0.238 -0.679 c 0.11 0.109 0.137 0.242 0.082 0.402 c -0.055 0.184 -0.16 0.277 -0.32 0.277 z m -1.602 -0.359 c -0.238 0.16 -0.465 0.16 -0.679 0 v -0.398 c 0.109 -0.028 0.296 -0.094 0.562 -0.2 c 0.238 -0.082 0.414 -0.066 0.52 0.039 c -0.028 0.239 -0.161 0.426 -0.403 0.559 z m 0.641 0.922 c -0.32 0.078 -0.531 0.039 -0.641 -0.121 c 0.27 -0.238 0.43 -0.36 0.481 -0.36 c 0.215 -0.132 0.402 -0.121 0.562 0.04 c 0.051 0.214 -0.082 0.359 -0.402 0.441 z m -0.641 5.199 c -0.183 0.051 -0.359 0.039 -0.519 -0.039 c -0.106 -0.027 -0.239 -0.094 -0.399 -0.199 c 0.028 -0.402 0.332 -0.629 0.918 -0.684 c 0.11 0.082 0.16 0.231 0.16 0.442 c 0 0.242 -0.05 0.398 -0.16 0.48 z m 62.364 14.801 c 0.105 0.133 0.144 0.332 0.117 0.598 c 0 0.32 -0.094 0.48 -0.278 0.48 c -0.109 -0.133 -0.136 -0.32 -0.082 -0.559 c 0.028 -0.242 0.11 -0.414 0.243 -0.519 z m -0.161 3.879 c 0.454 -0.238 0.786 -0.012 1 0.68 c 0.211 0.668 -0.027 1.015 -0.722 1.039 c -0.078 -0.133 -0.133 -0.414 -0.16 -0.84 c -0.024 -0.426 -0.067 -0.719 -0.118 -0.879 z m 4.52 -3.199 v -4.801 c -0.348 -0.051 -0.656 -0.133 -0.922 -0.238 c 0.133 -0.43 0.441 -0.668 0.922 -0.723 l -0.039 -17.399 c -0.27 -0.48 -0.574 -0.839 -0.922 -1.082 c -0.16 0.028 -0.375 0.161 -0.641 0.403 c -0.238 0.211 -0.504 0.304 -0.8 0.277 c -0.051 -0.293 0 -0.558 0.16 -0.797 c 0.16 -0.269 0.242 -0.496 0.242 -0.679 c -0.055 -0.137 -0.227 -0.309 -0.52 -0.524 c -0.242 -0.211 -0.375 -0.426 -0.402 -0.637 c 0.613 -0.375 0.801 -0.867 0.563 -1.48 c -0.563 -1.309 -0.84 -1.973 -0.84 -2 c -0.055 -0.32 -0.203 -0.801 -0.442 -1.441 c -0.16 -0.508 -0.226 -0.907 -0.199 -1.2 c 0.586 0.188 1.078 1.149 1.481 2.879 c 0.425 2.028 0.757 3.188 1 3.481 c 0.265 0.32 0.703 0.508 1.32 0.558 v -12.437 l -0.363 -0.16 v -0.282 c 0 -0.32 -0.039 -0.531 -0.118 -0.64 c -0.109 -0.078 -0.175 -0.145 -0.203 -0.199 c 0 -1.254 -0.066 -2.012 -0.199 -2.282 c -0.105 -0.211 -0.184 -0.25 -0.238 -0.117 c -0.082 0.106 -0.067 0.277 0.039 0.52 c 0.16 0.425 0.027 1.332 -0.399 2.718 l -0.16 -0.039 c 0.16 -0.961 0.239 -1.48 0.239 -1.558 c 0 -0.242 -0.094 -0.375 -0.282 -0.403 c -0.211 -0.027 -0.343 -0.066 -0.398 -0.121 c -0.078 -0.105 -0.078 -0.316 0 -0.636 c 0.105 -0.43 0.148 -0.747 0.121 -0.961 c -0.027 -0.266 -0.094 -0.36 -0.199 -0.282 c -0.375 0.215 -0.59 0.336 -0.641 0.36 c -0.242 -0.051 -0.441 -0.012 -0.601 0.121 l -0.399 0.199 l 0.199 1.52 c 0.028 0.32 0.012 0.546 -0.039 0.679 c -0.16 0.188 -0.308 0.387 -0.441 0.602 c -0.16 0.215 -0.106 0.508 0.16 0.879 l -0.16 0.121 c 0 0.133 0.039 0.48 0.121 1.039 c 0.051 0.402 0.012 0.723 -0.121 0.961 h -0.281 v 32.238 c 0 1.336 -0.465 2.496 -1.399 3.481 c -0.961 0.961 -2.105 1.468 -3.441 1.519 l -49.438 1.281 c -1.336 0.028 -2.48 -0.414 -3.441 -1.32 c -0.961 -0.934 -1.442 -2.078 -1.442 -3.437 v -6.364 c -0.851 -0.05 -1.464 0.297 -1.839 1.043 c -0.559 0 -0.864 -0.043 -0.918 -0.121 c 0.054 -0.719 0.359 -1.347 0.918 -1.879 c 0.562 -0.535 1.175 -0.828 1.839 -0.883 v -12.918 c -0.183 -0.187 -0.265 -0.453 -0.238 -0.8 l 0.238 -0.039 v -27.922 c 0 -0.531 0.082 -1.051 0.243 -1.559 c -0.989 0.559 -1.813 0.895 -2.481 1 c -0.453 -0.16 -0.668 -0.519 -0.64 -1.082 c 0.027 -0.453 0.187 -0.89 0.48 -1.316 c -0.055 -0.43 -0.281 -0.762 -0.68 -1 c -0.105 -0.082 -0.519 -0.254 -1.242 -0.524 l -0.078 0.922 v 7.16 l 0.961 0.801 l -0.961 0.078 l 0.039 32.84 c 0.215 0.402 0.215 0.723 0 0.961 v 15.398 c 0 1.547 0.547 2.856 1.641 3.922 c 1.066 1.067 2.375 1.586 3.922 1.559 l 56.757 -1.481 c 1.547 -0.05 2.868 -0.636 3.961 -1.757 c 1.094 -1.121 1.641 -2.453 1.641 -4 z" stroke-linecap="round" />
</g>
		<g transform="matrix(1.25 0 0 -1.25 -5.34 33.52)" id="path78"  >
<path style="stroke: none; stroke-width: 1; stroke-dasharray: none; stroke-linecap: butt; stroke-dashoffset: 0; stroke-linejoin: miter; stroke-miterlimit: 4; fill: rgb(92,146,168); fill-rule: evenodd; opacity: 1;"  transform=" translate(-34.47, -10.23)" d="m 62.359 4.4 c -0.293 -0.215 -0.597 -0.375 -0.918 -0.48 c 0.028 -0.078 0.227 -0.371 0.598 -0.879 l 0.121 0.16 c 0.133 0.106 0.305 0.371 0.52 0.801 l -0.321 0.398 z m 2.403 0.961 c 0.05 0.371 0.011 0.664 -0.121 0.879 h -0.403 v -0.922 c 0.028 -0.343 0.11 -0.57 0.242 -0.679 c 0.133 0.187 0.227 0.429 0.282 0.722 z m -0.922 2.598 c 0.293 0.562 0.238 0.922 -0.16 1.082 c -0.188 -0.641 -0.133 -1 0.16 -1.082 z m -16.84 -4.199 c -0.238 -0.535 -0.281 -0.895 -0.121 -1.078 c 0.293 -0.028 0.519 0.011 0.68 0.117 c -0.161 0.508 -0.344 0.828 -0.559 0.961 z m -36.238 -1.2 c 0.16 0.161 0.16 0.348 0 0.559 c -0.137 0.188 -0.309 0.309 -0.524 0.359 c -0.16 -0.183 -0.183 -0.398 -0.078 -0.636 c 0.106 -0.242 0.309 -0.336 0.602 -0.282 z m -3.602 2.36 c -0.187 0.082 -0.332 0.082 -0.441 0 c -0.051 -0.051 -0.117 -0.133 -0.199 -0.238 c 0.027 -0.11 0.132 -0.387 0.32 -0.84 c 0.055 -0.16 0.172 -0.242 0.359 -0.242 l -0.16 0.359 c 0.133 0.215 0.199 0.359 0.199 0.441 c 0.028 0.16 0 0.332 -0.078 0.52 z m 60.281 14.082 l -0.082 -0.242 l 0.563 -0.16 v -8.879 l -0.121 -0.243 l 0.121 -0.117 v -3.883 c 0 -1.226 -0.363 -2.32 -1.082 -3.277 c -0.695 -0.961 -1.602 -1.613 -2.719 -1.961 l -0.16 0.84 c -0.613 -0.16 -1.094 -0.227 -1.441 -0.199 l 0.16 -0.879 l -53.442 1.359 l -0.199 0.039 h -1 c -0.027 0.614 0 1.106 0.082 1.481 c -0.055 0 -0.226 0.012 -0.519 0.039 l -0.161 -0.602 c -0.136 -0.449 -0.453 -0.718 -0.961 -0.797 c -0.375 -0.054 -0.972 0 -1.8 0.161 c -0.641 0.132 -1.282 0.453 -1.918 0.957 c -0.508 0.402 -0.856 0.746 -1.043 1.043 c -0.078 0.105 -0.16 0.304 -0.239 0.597 c -0.054 0.242 -0.16 0.442 -0.32 0.602 c -0.16 0.187 -0.187 0.371 -0.082 0.558 c 0.16 0.188 0.254 0.321 0.281 0.403 c 0.055 0.133 0.243 0.383 0.563 0.758 c 0.078 0.105 0.238 0.105 0.476 0 c 0.403 -0.215 0.68 -0.332 0.84 -0.36 c 0.321 -0.082 0.574 -0.066 0.762 0.039 c 0.188 0.133 0.348 0.254 0.48 0.36 c 0.161 0.054 0.305 0.066 0.442 0.043 c -0.32 0.476 -0.496 0.933 -0.524 1.359 c 0.055 0.16 0.227 0.332 0.524 0.519 c 0.398 -0.828 0.984 -1.48 1.758 -1.96 c 0.773 -0.508 1.625 -0.774 2.558 -0.801 l 16.442 -0.438 l 0.039 -0.519 l 0.281 0.519 l 9.641 -0.261 c -0.051 -0.442 0.043 -0.661 0.281 -0.661 c 0 0.055 0.078 0.121 0.238 0.2 c 0.133 0.054 0.172 0.16 0.121 0.32 c -0.078 0.078 -0.203 0.121 -0.383 0.141 l 22.782 -0.579 c 1.332 -0.054 2.48 0.387 3.441 1.321 c 0.957 0.933 1.438 2.078 1.438 3.437 v 4.52 c 0.136 -1.25 0.308 -2.305 0.519 -3.16 l 0.801 0.402 c -0.211 0.32 -0.293 0.758 -0.238 1.32 c 0.078 0.879 0.121 1.414 0.121 1.598 l -0.563 1.922 c -0.211 0.719 -0.066 1.277 0.442 1.679 c -0.133 0.586 -0.2 0.973 -0.2 1.161 c 0 0.371 0.145 0.652 0.438 0.839 c -0.211 0.161 -0.387 0.282 -0.52 0.36 c -0.187 0.16 -0.32 0.32 -0.398 0.48 c 0.32 0.106 0.664 0.055 1.039 -0.16 c 0.215 -0.133 0.535 -0.332 0.961 -0.601 c 0.133 0.269 0.332 0.496 0.598 0.679 c 0.347 0.242 0.613 0.149 0.8 -0.277 c 0.133 -0.348 0.161 -0.695 0.082 -1.039 z" stroke-linecap="round" />
</g>
		<g transform="matrix(1.25 0 0 -1.25 -2.78 3.98)" id="path80"  >
<path style="stroke: none; stroke-width: 1; stroke-dasharray: none; stroke-linecap: butt; stroke-dashoffset: 0; stroke-linejoin: miter; stroke-miterlimit: 4; fill: rgb(181,156,111); fill-rule: evenodd; opacity: 1;"  transform=" translate(-36.52, -33.86)" d="m 37.238 37.119 c 0.696 -0.184 1.657 0.973 2.883 3.481 c 1.414 3.175 2.453 5.375 3.117 6.601 c 1.707 3.145 2.84 4.973 3.403 5.481 c 1.171 0.984 3.414 1.453 6.718 1.398 c 5.227 -0.078 7.84 -1.375 7.84 -3.879 c -0.027 -0.828 -0.465 -1.641 -1.32 -2.441 c -0.984 -0.879 -1.559 -1.602 -1.719 -2.16 c -0.215 -0.719 -0.426 -2.399 -0.64 -5.04 c -0.188 -2.402 -0.282 -4.32 -0.282 -5.761 l 0.442 -12.321 c 0.054 -1.519 0.64 -2.691 1.761 -3.519 c 1.094 -0.824 1.637 -1.598 1.637 -2.32 c -0.023 -1.625 -1.383 -2.692 -4.078 -3.2 c -1.305 -0.238 -3.254 -0.332 -5.84 -0.281 c -2.558 0.055 -4.453 0.203 -5.68 0.442 c -2.695 0.535 -4.039 1.574 -4.039 3.121 c 0.028 0.718 0.465 1.425 1.321 2.121 c 0.906 0.746 1.426 1.398 1.558 1.957 c 0.934 7.121 0.758 10.695 -0.519 10.722 c -0.723 0.024 -1.563 -0.91 -2.52 -2.8 c -0.562 -1.067 -1.32 -2.735 -2.281 -5 c -0.398 -0.852 -1.172 -2.668 -2.32 -5.442 c -1.067 -2.32 -1.961 -3.426 -2.68 -3.32 c -0.535 0.109 -1 0.453 -1.398 1.043 c -0.641 0.984 -1.68 3.211 -3.122 6.68 l -3.121 7.437 c -0.398 0.883 -0.625 1.375 -0.679 1.481 c -0.375 0.64 -0.774 0.96 -1.2 0.96 c -0.695 0.028 -1.105 -1.292 -1.242 -3.96 c -0.05 -1.387 -0.05 -3.172 0 -5.36 c -0.023 -2.265 0.551 -3.695 1.723 -4.281 c 0.293 -0.16 0.691 -0.359 1.199 -0.598 c 0.371 -0.32 0.559 -0.801 0.559 -1.441 c -0.024 -2.16 -2.692 -3.238 -8 -3.238 c -4.614 0.105 -6.907 1.183 -6.879 3.238 c 0 0.988 0.574 1.668 1.719 2.039 c 1.203 0.426 1.882 1.469 2.043 3.121 c 0.664 6.535 1.023 12.602 1.078 18.199 c 0.027 3.121 -0.227 5.281 -0.758 6.481 c -0.11 0.215 -0.789 0.734 -2.043 1.558 c -1.067 0.696 -1.598 1.496 -1.598 2.403 c 0.024 1.464 1.067 2.519 3.117 3.16 c 1.629 0.504 3.747 0.734 6.364 0.679 c 2.906 -0.027 4.824 -0.359 5.758 -1 c 0.453 -0.292 1.175 -1.335 2.16 -3.121 c 0.64 -1.148 1.84 -3.718 3.601 -7.718 c 1.653 -3.496 2.973 -5.36 3.957 -5.602 z" stroke-linecap="round" />
</g>
		<g transform="matrix(1.25 0 0 -1.25 -4.78 0.98)" id="path82"  >
<path style="stroke: none; stroke-width: 1; stroke-dasharray: none; stroke-linecap: butt; stroke-dashoffset: 0; stroke-linejoin: miter; stroke-miterlimit: 4; fill: rgb(255,242,209); fill-rule: evenodd; opacity: 1;"  transform=" translate(-34.92, -36.26)" d="m 38.52 43.002 c 1.414 3.172 2.453 5.371 3.121 6.598 c 1.707 3.148 2.839 4.972 3.398 5.48 c 1.176 0.988 3.414 1.453 6.723 1.398 c 5.226 -0.078 7.84 -1.371 7.84 -3.878 c -0.028 -0.825 -0.469 -1.641 -1.321 -2.442 c -0.988 -0.879 -1.562 -1.598 -1.722 -2.156 c -0.211 -0.723 -0.426 -2.402 -0.637 -5.043 c -0.188 -2.399 -0.281 -4.32 -0.281 -5.758 l 0.437 -12.32 c 0.055 -1.52 0.641 -2.696 1.762 -3.52 c 1.094 -0.828 1.64 -1.601 1.64 -2.32 c -0.027 -1.629 -1.386 -2.695 -4.082 -3.199 c -1.304 -0.242 -3.253 -0.336 -5.839 -0.282 c -2.559 0.051 -4.454 0.2 -5.68 0.442 c -2.691 0.531 -4.039 1.57 -4.039 3.117 c 0.027 0.723 0.465 1.43 1.32 2.121 c 0.906 0.746 1.426 1.399 1.559 1.961 c 0.933 7.117 0.761 10.692 -0.52 10.719 c -0.719 0.027 -1.558 -0.906 -2.519 -2.801 c -0.559 -1.066 -1.321 -2.734 -2.282 -5 c -0.398 -0.851 -1.171 -2.664 -2.32 -5.437 c -1.066 -2.321 -1.957 -3.43 -2.68 -3.321 c -0.531 0.106 -1 0.453 -1.398 1.039 c -0.641 0.985 -1.68 3.215 -3.121 6.68 l -3.117 7.441 c -0.403 0.879 -0.629 1.372 -0.684 1.481 c -0.371 0.637 -0.773 0.957 -1.199 0.957 c -0.691 0.027 -1.106 -1.293 -1.238 -3.957 c -0.055 -1.387 -0.055 -3.176 0 -5.363 c -0.028 -2.266 0.547 -3.692 1.718 -4.278 c 0.293 -0.16 0.696 -0.359 1.2 -0.601 c 0.375 -0.321 0.562 -0.801 0.562 -1.442 c -0.027 -2.16 -2.695 -3.238 -8 -3.238 c -4.613 0.105 -6.906 1.188 -6.883 3.238 c 0 0.989 0.574 1.668 1.723 2.043 c 1.199 0.426 1.879 1.465 2.039 3.117 c 0.668 6.536 1.027 12.602 1.078 18.204 c 0.027 3.117 -0.223 5.277 -0.758 6.476 c -0.105 0.215 -0.785 0.735 -2.039 1.563 c -1.066 0.691 -1.601 1.492 -1.601 2.398 c 0.027 1.469 1.066 2.52 3.121 3.16 c 1.625 0.508 3.746 0.735 6.359 0.68 c 2.906 -0.024 4.828 -0.359 5.762 -1 c 0.453 -0.293 1.172 -1.332 2.156 -3.117 c 0.641 -1.149 1.844 -3.723 3.602 -7.723 c 1.652 -3.492 2.972 -5.359 3.961 -5.598 c 0.691 -0.187 1.652 0.973 2.879 3.481 z" stroke-linecap="round" />
</g>
		<g transform="matrix(1.25 0 0 -1.25 -1.28 2)" id="path84"  >
<path style="stroke: none; stroke-width: 1; stroke-dasharray: none; stroke-linecap: butt; stroke-dashoffset: 0; stroke-linejoin: miter; stroke-miterlimit: 4; fill: rgb(199,180,141); fill-rule: evenodd; opacity: 1;"  transform=" translate(-37.72, -35.44)" d="m 35.641 39.521 c 0.586 -0.136 1.332 0.614 2.238 2.239 l 1.48 -2.039 c -1.679 -0.801 -3.093 -1.602 -4.238 -2.403 c -2.32 -1.597 -2.148 -2.398 0.52 -2.398 c 2.664 0 4.359 0.801 5.078 2.398 c 0.347 0.801 0.426 1.602 0.242 2.403 c 3.734 4.613 5.867 7.64 6.398 9.078 c 0.403 1.043 1.282 1.906 2.641 2.601 c 1.332 0.692 2.68 0.973 4.039 0.84 s 3.039 0.547 5.039 2.039 c 0.348 -0.48 0.524 -1.039 0.524 -1.679 c -0.028 -0.825 -0.469 -1.641 -1.321 -2.442 c -0.988 -0.879 -1.562 -1.598 -1.722 -2.156 c -0.211 -0.723 -0.426 -2.402 -0.637 -5.043 c -0.188 -2.399 -0.281 -4.32 -0.281 -5.758 l 0.437 -12.32 c 0.027 -1.227 0.348 -2.16 0.961 -2.801 c -0.586 -0.453 -1.398 -0.625 -2.437 -0.52 c -0.856 0.106 -1.747 0.387 -2.68 0.84 c -0.59 0.239 -1.027 0.227 -1.32 -0.039 c -0.297 -0.269 -0.387 -0.679 -0.282 -1.242 c 0.266 -1.437 1.332 -2.531 3.2 -3.277 c 1.921 -0.774 3.839 -0.082 5.761 2.078 c 0.133 -0.266 0.199 -0.559 0.199 -0.879 c -0.027 -1.629 -1.386 -2.695 -4.082 -3.199 c -1.304 -0.242 -3.253 -0.336 -5.839 -0.282 c -3.118 0.106 -5.254 0.305 -6.399 0.598 c -1.601 1.684 -2.695 2.777 -3.281 3.281 c 0.109 0.586 0.574 1.215 1.402 1.879 c 0.852 0.696 1.332 1.321 1.438 1.883 c 0.933 7.117 0.761 10.692 -0.52 10.719 c -0.719 0.027 -1.558 -0.906 -2.519 -2.801 c -0.559 -1.066 -1.321 -2.734 -2.282 -5 c -0.398 -0.851 -1.171 -2.664 -2.32 -5.437 c -1.066 -2.321 -1.957 -3.43 -2.68 -3.321 c -0.531 0.106 -1 0.453 -1.398 1.039 c -0.641 0.985 -1.68 3.215 -3.121 6.68 l -3.117 7.441 c -0.403 0.879 -0.629 1.372 -0.684 1.481 c -0.371 0.637 -0.773 0.957 -1.199 0.957 c -0.691 0.027 -1.106 -1.293 -1.238 -3.957 c -0.055 -1.387 -0.055 -3.176 0 -5.363 c 0 -1.52 0.226 -2.637 0.679 -3.36 c -0.695 -0.238 -1.386 -0.918 -2.082 -2.039 c -0.371 -0.558 -0.664 -1.094 -0.879 -1.601 c -0.613 1.015 -1.226 2.148 -1.839 3.402 c -1.2 2.504 -1.758 4.305 -1.68 5.398 c 0.105 1.813 0.668 3.907 1.68 6.282 c 1.199 2.879 2.441 4.254 3.718 4.121 c 1.254 -0.11 1.977 1.383 2.16 4.476 c -0.023 3.867 -0.039 6.563 -0.039 8.082 c 0 1.653 0.309 2.934 0.922 3.84 c 0.586 0.906 1.36 1.254 2.321 1.039 c 0.132 -0.16 0.625 -0.972 1.476 -2.437 c 0.641 -1.149 1.844 -3.723 3.602 -7.723 c 1.652 -3.492 2.972 -5.359 3.961 -5.598 z" stroke-linecap="round" />
</g>
		<g transform="matrix(1.25 0 0 -1.25 -20.77 23.45)" id="path86"  >
<path style="stroke: none; stroke-width: 1; stroke-dasharray: none; stroke-linecap: butt; stroke-dashoffset: 0; stroke-linejoin: miter; stroke-miterlimit: 4; fill: rgb(199,180,141); fill-rule: evenodd; opacity: 1;"  transform=" translate(-22.12, -18.28)" d="m 19.121 16.119 c 0.691 1.066 1.574 1.641 2.641 1.723 c 1.625 0.16 2.652 1.023 3.078 2.597 c 0.187 -0.32 0.281 -0.691 0.281 -1.121 c -0.027 -1.945 -2.027 -3.011 -6 -3.199 z" stroke-linecap="round" />
</g>
		<g transform="matrix(1.25 0 0 -1.25 -6.77 2.98)" id="path88"  >
<path style="stroke: none; stroke-width: 1; stroke-dasharray: none; stroke-linecap: butt; stroke-dashoffset: 0; stroke-linejoin: miter; stroke-miterlimit: 4; fill: rgb(255,226,168); fill-rule: evenodd; opacity: 1;"  transform=" translate(-33.32, -34.66)" d="m 40.039 48.002 c 1.707 3.144 2.84 4.973 3.402 5.476 c 1.172 0.989 3.414 1.457 6.719 1.403 c 5.227 -0.082 7.84 -1.375 7.84 -3.879 c -0.027 -0.828 -0.465 -1.641 -1.32 -2.442 c -0.985 -0.878 -1.559 -1.601 -1.719 -2.16 c -0.215 -0.718 -0.43 -2.398 -0.641 -5.039 c -0.187 -2.402 -0.281 -4.32 -0.281 -5.761 l 0.441 -12.321 c 0.051 -1.519 0.641 -2.691 1.758 -3.519 c 1.094 -0.825 1.641 -1.602 1.641 -2.321 c -0.024 -1.625 -1.387 -2.691 -4.078 -3.199 c -1.309 -0.238 -3.254 -0.332 -5.84 -0.281 c -2.563 0.055 -4.453 0.199 -5.68 0.441 c -2.695 0.535 -4.043 1.575 -4.043 3.121 c 0.028 0.719 0.469 1.426 1.321 2.118 c 0.91 0.746 1.429 1.402 1.562 1.961 c 0.934 7.121 0.758 10.691 -0.519 10.718 c -0.723 0.028 -1.563 -0.906 -2.524 -2.797 c -0.558 -1.066 -1.316 -2.734 -2.277 -5 c -0.403 -0.855 -1.176 -2.668 -2.321 -5.441 c -1.066 -2.32 -1.96 -3.426 -2.679 -3.32 c -0.535 0.105 -1 0.453 -1.403 1.039 c -0.636 0.988 -1.679 3.215 -3.117 6.679 l -3.121 7.442 c -0.398 0.879 -0.629 1.375 -0.68 1.48 c -0.375 0.641 -0.773 0.961 -1.199 0.961 c -0.695 0.024 -1.109 -1.293 -1.242 -3.961 c -0.051 -1.386 -0.051 -3.175 0 -5.359 c -0.027 -2.266 0.547 -3.695 1.723 -4.281 c 1.172 -0.586 1.758 -1.266 1.758 -2.039 c -0.028 -2.161 -2.692 -3.243 -8 -3.243 c -4.614 0.11 -6.907 1.188 -6.879 3.243 c 0 0.984 0.574 1.664 1.718 2.039 c 1.2 0.425 1.879 1.465 2.039 3.121 c 0.668 6.531 1.028 12.597 1.082 18.199 c 0.028 3.121 -0.226 5.281 -0.761 6.48 c -0.106 0.215 -0.785 0.735 -2.039 1.559 c -1.067 0.695 -1.602 1.496 -1.602 2.402 c 0.027 1.465 1.067 2.52 3.121 3.161 c 1.629 0.503 3.746 0.73 6.36 0.679 c 2.906 -0.027 4.828 -0.359 5.761 -1 c 0.453 -0.293 1.172 -1.336 2.16 -3.121 c 0.641 -1.148 1.84 -3.719 3.598 -7.719 c 1.656 -3.496 2.977 -5.363 3.961 -5.601 c 0.695 -0.188 1.656 0.973 2.883 3.48 c 1.41 3.172 2.453 5.375 3.117 6.602 z" stroke-linecap="round" />
</g>
		<g transform="matrix(1.25 0 0 -1.25 -6.77 2.98)" id="path90"  >
<path style="stroke: none; stroke-width: 1; stroke-dasharray: none; stroke-linecap: butt; stroke-dashoffset: 0; stroke-linejoin: miter; stroke-miterlimit: 4; fill: rgb(92,146,168); fill-rule: evenodd; opacity: 1;"  transform=" translate(-33.32, -34.66)" d="m 50.039 21.521 c 0.055 0.211 0.266 0.387 0.641 0.52 c 0.132 0.051 -0.039 0.105 -0.52 0.16 c -0.586 0.051 -1.082 -0.027 -1.48 -0.242 c -0.239 -0.133 -0.547 -0.348 -0.918 -0.641 c -0.563 -0.343 -0.856 -0.519 -0.883 -0.519 c -0.133 -0.106 -0.051 -0.199 0.242 -0.278 c 0.184 -0.027 0.332 0.094 0.438 0.36 c 0.136 0.293 0.363 0.437 0.679 0.437 c 0.297 -0.023 0.684 -0.078 1.16 -0.16 c 0.375 -0.023 0.59 0.094 0.641 0.363 z m -22.758 4.559 c 0.531 0.32 0.719 0.668 0.559 1.039 c -0.133 0.375 -0.52 0.469 -1.16 0.281 c -0.508 -0.132 -0.653 -0.465 -0.442 -1 c 0.215 -0.535 0.563 -0.64 1.043 -0.32 z m 2.758 4.84 c -0.32 0.508 -0.879 0.68 -1.68 0.519 c -1.121 -0.214 -1.8 -0.386 -2.039 -0.519 c -0.242 -0.133 -0.199 -0.332 0.121 -0.602 c 0.211 -0.183 0.227 -0.383 0.039 -0.597 c -0.054 -0.055 0.145 -0.039 0.598 0.039 c 0.934 0.16 1.656 0.066 2.16 -0.282 c 0.828 -0.453 1.203 -0.41 1.121 0.122 c -0.105 0.691 -0.214 1.132 -0.32 1.32 z m -2.641 8.16 c -0.425 -0.238 -0.476 -0.641 -0.16 -1.199 c 0.348 -0.563 0.735 -0.656 1.16 -0.281 c 0.43 0.402 0.481 0.8 0.161 1.199 c -0.321 0.426 -0.704 0.519 -1.161 0.281 z m -8.117 12.16 c 0.692 0 0.973 0.215 0.84 0.641 c -0.109 0.426 -0.547 0.746 -1.32 0.961 c -0.696 0.183 -0.961 -0.028 -0.801 -0.641 s 0.586 -0.933 1.281 -0.961 z m 30.278 -8.32 c 0.535 0.055 0.961 0.187 1.281 0.398 c 0.375 0.242 0.332 0.496 -0.121 0.762 c -0.586 0.293 -1.051 0.16 -1.399 -0.398 c -0.347 -0.59 -0.265 -0.84 0.239 -0.762 z m 1.8 4.398 c 0.055 -0.183 0.266 -0.449 0.641 -0.797 c 0.16 -0.16 0.121 -0.586 -0.121 -1.281 c -0.32 -0.879 -0.348 -1.68 -0.078 -2.398 c 0.265 -0.696 0.531 -0.735 0.801 -0.121 c 0.343 0.773 0.519 1.734 0.519 2.879 c 0.078 1.546 0.305 2.453 0.68 2.718 c 0.238 0.215 0.238 0.403 0 0.563 c -0.242 0.187 -0.574 0.226 -1 0.121 c -1.199 -0.297 -1.68 -0.856 -1.442 -1.684 z m -11.32 0.684 c 1.707 3.144 2.84 4.973 3.402 5.476 c 1.172 0.989 3.414 1.457 6.719 1.403 c 5.227 -0.082 7.84 -1.375 7.84 -3.879 c -0.027 -0.828 -0.465 -1.641 -1.32 -2.442 c -0.985 -0.878 -1.559 -1.601 -1.719 -2.16 c -0.215 -0.718 -0.43 -2.398 -0.641 -5.039 c -0.187 -2.402 -0.281 -4.32 -0.281 -5.761 l 0.441 -12.321 c 0.028 -1.277 0.415 -2.293 1.161 -3.039 c -0.586 -0.265 -1.243 -0.375 -1.961 -0.32 c -0.879 0.055 -1.465 0.082 -1.758 0.082 c -0.508 0 -0.469 -0.109 0.117 -0.32 c 0.563 -0.243 1.199 -0.348 1.922 -0.321 c 0.398 0.024 0.973 0.067 1.719 0.117 c 0.375 0 0.668 -0.105 0.879 -0.32 c 0.109 -0.078 0.187 -0.012 0.242 0.203 c 0.719 -0.586 1.078 -1.226 1.078 -1.922 c -0.024 -1.625 -1.387 -2.691 -4.078 -3.199 c -1.309 -0.238 -3.254 -0.332 -5.84 -0.281 c -2.563 0.055 -4.453 0.199 -5.68 0.441 c -2.695 0.535 -4.043 1.575 -4.043 3.121 c 0.028 0.719 0.469 1.426 1.321 2.118 c 0.91 0.746 1.429 1.402 1.562 1.961 c 0.934 7.121 0.758 10.691 -0.519 10.718 c -0.723 0.028 -1.563 -0.906 -2.524 -2.797 c -0.558 -1.066 -1.316 -2.734 -2.277 -5 c -0.403 -0.855 -1.176 -2.668 -2.321 -5.441 c -1.066 -2.32 -1.96 -3.426 -2.679 -3.32 c -0.535 0.105 -1 0.453 -1.403 1.039 c -0.636 0.988 -1.679 3.215 -3.117 6.679 l -3.121 7.442 c -0.398 0.879 -0.629 1.375 -0.68 1.48 c -0.375 0.641 -0.773 0.961 -1.199 0.961 c -0.695 0.024 -1.109 -1.293 -1.242 -3.961 c -0.051 -1.386 -0.051 -3.175 0 -5.359 c -0.027 -2.266 0.547 -3.695 1.723 -4.281 c 1.172 -0.586 1.758 -1.266 1.758 -2.039 c -0.028 -2.161 -2.692 -3.243 -8 -3.243 c -4.614 0.11 -6.907 1.188 -6.879 3.243 c 0 0.984 0.574 1.664 1.718 2.039 c 1.2 0.425 1.879 1.465 2.039 3.121 c 0.668 6.426 1.028 12.332 1.082 17.719 c 0.559 0 0.868 0.015 0.918 0.039 c 0.161 0.082 0.204 0.375 0.122 0.882 c -0.079 0.348 -0.215 0.571 -0.399 0.68 c -0.082 0.051 -0.293 0.094 -0.641 0.117 c -0.027 2.457 -0.281 4.203 -0.761 5.242 c -0.106 0.215 -0.785 0.735 -2.039 1.559 c -1.067 0.695 -1.602 1.496 -1.602 2.402 c 0.027 1.465 1.067 2.52 3.121 3.161 c 1.629 0.503 3.746 0.73 6.36 0.679 c 2.906 -0.027 4.828 -0.359 5.761 -1 c 0.453 -0.293 1.172 -1.336 2.16 -3.121 c 0.641 -1.148 1.84 -3.719 3.598 -7.719 c 1.656 -3.496 2.977 -5.363 3.961 -5.601 c 0.695 -0.188 1.656 0.973 2.883 3.48 c 1.41 3.172 2.453 5.375 3.117 6.602 z" stroke-linecap="round" />
</g>
</g>
</g>
</svg>