<?xml version="1.0" encoding="UTF-8" standalone="no" ?>
<!DOCTYPE svg PUBLIC "-//W3C//DTD SVG 1.1//EN" "http://www.w3.org/Graphics/SVG/1.1/DTD/svg11.dtd">
<svg xmlns="http://www.w3.org/2000/svg" xmlns:xlink="http://www.w3.org/1999/xlink" version="1.1" width="400" height="400" viewBox="0 0 400 400" xml:space="preserve">
<desc>Created with Fabric.js 3.6.3</desc>
<defs>
</defs>
<rect x="0" y="0" width="100%" height="100%" fill="rgba(255, 255, 255, 1)"></rect>
<g transform="matrix(1 0 0 1 205 240.24)" style=""  >
		<text xml:space="preserve" font-family="'Open Sans', sans-serif" font-size="18" font-style="normal" font-weight="normal" style="stroke: none; stroke-width: 1; stroke-dasharray: none; stroke-linecap: butt; stroke-dashoffset: 0; stroke-linejoin: miter; stroke-miterlimit: 4; fill: rgb(0,0,0); fill-rule: nonzero; opacity: 1; white-space: pre;" ><tspan x="-108.5" y="5.97" style="font-size: 19px; font-weight: bold; ">Your Company Name</tspan></text>
</g>
<g transform="matrix(1 0 0 1 229.48 273.67)" style=""  >
		<text xml:space="preserve" font-family="'Open Sans', sans-serif" font-size="18" font-style="normal" font-weight="normal" style="stroke: none; stroke-width: 1; stroke-dasharray: none; stroke-linecap: butt; stroke-dashoffset: 0; stroke-linejoin: miter; stroke-miterlimit: 4; fill: rgb(0,0,0); fill-rule: nonzero; opacity: 1; white-space: pre;" ><tspan x="-81.99" y="5.65" >slogan here</tspan></text>
</g>
<g transform="matrix(1.63 0 0 1.63 194.88 169.13)"  >
<g style=""   >
		<g transform="matrix(1 0 0 1 0 0)" id="path1103"  >
<path style="stroke: rgb(255,255,255); stroke-width: 8.125; stroke-dasharray: none; stroke-linecap: butt; stroke-dashoffset: 0; stroke-linejoin: round; stroke-miterlimit: 4; fill: none; fill-rule: nonzero; opacity: 1;"  transform=" translate(-30, -30)" d="m 6.6826 4.6879 c -1.1054 0 -1.9953 0.8963 -1.9953 2.0095 v 46.606 c 0 1.113 0.8899 2.009 1.9953 2.009 h 46.634 c 1.106 0 1.996 -0.896 1.996 -2.009 v -46.606 c 0 -1.1128 -0.89 -2.0091 -1.996 -2.0091 h -46.634 z" stroke-linecap="round" />
</g>
		<g transform="matrix(1 0 0 1 0 0)" id="rect812"  >
<path style="stroke: rgb(0,0,0); stroke-width: 3.125; stroke-dasharray: none; stroke-linecap: butt; stroke-dashoffset: 0; stroke-linejoin: round; stroke-miterlimit: 4; fill: rgb(255,255,255); fill-rule: evenodd; opacity: 1;"  transform=" translate(-30.03, -30.18)" d="m 6.7089 4.8697 c -1.1054 0 -1.9953 0.8963 -1.9953 2.0095 v 46.605 c 0 1.114 0.8899 2.01 1.9953 2.01 h 46.635 c 1.105 0 1.995 -0.896 1.995 -2.01 v -46.605 c 0 -1.113 -0.89 -2.0093 -1.995 -2.0093 h -46.635 z" stroke-linecap="round" />
</g>
		<g transform="matrix(1 0 0 1 0 -3.98)" id="path839"  >
<path style="stroke: none; stroke-width: 0.81015; stroke-dasharray: none; stroke-linecap: butt; stroke-dashoffset: 0; stroke-linejoin: miter; stroke-miterlimit: 4; fill: rgb(0,0,0); fill-rule: nonzero; opacity: 1;"  transform=" translate(-30, -26.02)" d="m 16.569 37.698 l 8.826 -24.248 c 0.414 -1.108 1.028 -1.999 1.842 -2.675 c 0.828 -0.691 1.778 -1.036 2.849 -1.036 c 1.128 0 2.092 0.338 2.891 1.014 c 0.814 0.676 1.414 1.575 1.8 2.697 l 8.611 24.248 c 0.229 0.633 0.343 1.179 0.343 1.64 c 0 0.863 -0.3 1.575 -0.9 2.135 c -0.585 0.547 -1.292 0.82 -2.121 0.82 c -1.628 0 -2.699 -0.762 -3.213 -2.287 l -1.306 -4.206 h -12.189 l -1.328 4.163 c -0.485 1.554 -1.535 2.33 -3.149 2.33 c -0.899 0 -1.671 -0.302 -2.313 -0.906 c -0.629 -0.604 -0.943 -1.345 -0.943 -2.222 c 0 -0.417 0.1 -0.906 0.3 -1.467 z m 13.474 -21.034 l -4.156 12.966 h 8.333 l -4.091 -12.966 h -0.086 z" stroke-linecap="round" />
</g>
		<g transform="matrix(1 0 0 1 0 17.75)" id="path838"  >
<path style="stroke: rgb(0,0,0); stroke-width: 5; stroke-dasharray: none; stroke-linecap: round; stroke-dashoffset: 0; stroke-linejoin: round; stroke-miterlimit: 4; fill: none; fill-rule: nonzero; opacity: 1;"  transform=" translate(-30, -47.75)" d="m 13.434 47.749 h 33.132" stroke-linecap="round" />
</g>
</g>
</g>
</svg>