<?xml version="1.0" encoding="UTF-8" standalone="no" ?>
<!DOCTYPE svg PUBLIC "-//W3C//DTD SVG 1.1//EN" "http://www.w3.org/Graphics/SVG/1.1/DTD/svg11.dtd">
<svg xmlns="http://www.w3.org/2000/svg" xmlns:xlink="http://www.w3.org/1999/xlink" version="1.1" width="400" height="400" viewBox="0 0 400 400" xml:space="preserve">
<desc>Created with Fabric.js 3.6.3</desc>
<defs>
</defs>
<rect x="0" y="0" width="100%" height="100%" fill="rgba(255, 255, 255, 1)"></rect>
<g transform="matrix(1 0 0 1 220 242.67)" style=""  >
		<text xml:space="preserve" font-family="'Open Sans', sans-serif" font-size="18" font-style="normal" font-weight="bold" style="stroke: none; stroke-width: 1; stroke-dasharray: none; stroke-linecap: butt; stroke-dashoffset: 0; stroke-linejoin: miter; stroke-miterlimit: 4; fill: rgb(0,0,0); fill-rule: nonzero; opacity: 1; white-space: pre;" ><tspan x="-122.5" y="5.65" >Your Comapny Name</tspan></text>
</g>
<g transform="matrix(1 0 0 1 217.99 279.67)" style=""  >
		<text xml:space="preserve" font-family="'Open Sans', sans-serif" font-size="18" font-style="normal" font-weight="normal" style="stroke: none; stroke-width: 1; stroke-dasharray: none; stroke-linecap: butt; stroke-dashoffset: 0; stroke-linejoin: miter; stroke-miterlimit: 4; fill: rgb(0,0,0); fill-rule: nonzero; opacity: 1; white-space: pre;" ><tspan x="-76.49" y="5.65" >slogan here</tspan></text>
</g>
<g transform="matrix(0.36 -0.01 0.01 0.36 193.28 154.53)"  >
<g style=""   >
		<g transform="matrix(1.07 0 0 1.07 -1.17 -0.59)" id="path4166"  >
<path style="stroke: none; stroke-width: 1; stroke-dasharray: none; stroke-linecap: butt; stroke-dashoffset: 0; stroke-linejoin: miter; stroke-miterlimit: 4; fill: rgb(253,19,18); fill-rule: nonzero; opacity: 1;"  transform=" translate(-157.02, -186.95)" d="m 122.31 1.4375 c -28.505 -0.45908 -56.595 10.556 -72.173 36.2 c -29.388 52.261 -51.224 111.42 -48.924 172.33 c -1.3876 54.75 6.9128 109.28 18.838 162.5 c 23.987 -5.32 48.386 -8.67 72.398 -13.9 c -2.712 -11.67 -4.049 -23.47 -3.549 -35.35 c -0.087 -5.77 -0.962 -11.53 -2.287 -17.13 c 0.763 -17.66 -17.976 -50.6 10.049 -53.33 c 13.358 -5.52 28.108 -8.58 40.808 -15.17 c 9.27 0.15 17.62 -4.83 23.98 -11.18 c 18.71 -5.55 36.11 -16.32 55.6 -18.62 c 8.06 30.01 17.86 59.4 29.15 88.31 c 22.15 -6.74 44.54 -12.8 66.76 -19.25 c 0.63 -9.9 -6.21 -20.64 -6.96 -30.94 c 6.25 -16.05 1.52 -35.02 -14.03 -43.52 c -11.73 -38.34 -29.47 -75.5 -43.4 -113.46 c -13.12 -32.242 -42.93 -53.092 -71.04 -71.442 c -16.02 -10.049 -35.72 -15.736 -55.22 -16.05 z m 6.77 89.232 c 6.19 -0.101 12.58 0.86 18.18 1.967 c 6.14 3.762 12.92 6.275 20.04 7.423 c 12.69 8.9 20.35 24.32 22.45 39.4 c -38.01 10.94 -70.37 35.39 -107.45 47.79 c -2.474 -27.06 9.499 -57.38 21.96 -82.96 c 4.73 -10.331 14.51 -13.452 24.82 -13.62 z" stroke-linecap="round" />
</g>
		<g transform="matrix(1.33 0 0 1.33 2.4 5.69)" id="path10"  >
<path style="stroke: none; stroke-width: 1; stroke-dasharray: none; stroke-linecap: butt; stroke-dashoffset: 0; stroke-linejoin: miter; stroke-miterlimit: 4; fill: rgb(248,253,247); fill-rule: nonzero; opacity: 1;"  transform=" translate(-128.3, -154.27)" d="m 133.99 44.734 c -5.9345 0.03193 -12.366 4.3865 -11.691 10.92 c -0.10542 7.0667 7.0594 14.576 14.317 11.358 c 8.2914 -3.3056 10.487 -17.637 1.6141 -21.556 c -1.3366 -0.55624 -2.7981 -0.77414 -4.2406 -0.72188 z m -75.362 4.7188 c -6.8528 -0.4162 -12.15 5.5269 -12.795 12.012 c -1.55 7.5317 2.2227 18.033 11.148 18.102 c 5.1368 1.0992 10.726 -1.5014 12.436 -6.6562 c 3.0854 -7.8332 1.5201 -19.56 -7.1891 -22.977 c -1.1576 -0.37648 -2.385 -0.52845 -3.6 -0.48125 z m 114.9 77.357 c -7.441 -0.60348 -11.732 8.8809 -7.5359 14.573 c 2.8126 4.1009 8.9194 3.9849 13.034 2.275 c 7.4726 -4.4854 3.0789 -17.364 -5.4984 -16.848 z m -59.327 29.902 c -4.2286 1.4543 -8.7296 2.34 -13.234 2.075 c -4.3171 7.6878 1.4592 20.281 11.003 19.083 c 8.2302 -1.1626 12.75 -12.826 7.5969 -19.23 c -1.3716 -1.4366 -3.4172 -2.0384 -5.3656 -1.9281 z m 111.34 18.13 c -6.6894 -0.0896 -9.5232 7.9763 -7.05 13.334 c 1.3536 5.2276 8.5156 8.0521 12.405 3.7391 c 4.961 -5.1442 3.2258 -17.392 -5.3547 -17.073 z m -193.47 1.86 c -5.9207 -0.48655 -8.5594 5.8704 -8.9422 10.814 c -0.92626 4.079 2.108 9.2556 6.7531 8.1562 c 6.6649 1.7902 12.679 -5.0483 11.162 -11.469 c -0.60738 -4.3829 -4.4627 -7.8414 -8.9734 -7.5016 z m 15.82 69.811 c -5.6572 -0.12427 -8.0114 7.0095 -5.0094 11.192 c 2.3845 5.1085 10.198 8.7416 14.391 3.6562 c 4.7836 -6.6305 -1.9443 -15.274 -9.3813 -14.848 z" stroke-linecap="round" />
</g>
		<g transform="matrix(1.07 0 0 1.07 1.54 3.88)" id="path6"  >
<path style="stroke: none; stroke-width: 1; stroke-dasharray: none; stroke-linecap: butt; stroke-dashoffset: 0; stroke-linejoin: miter; stroke-miterlimit: 4; fill: rgb(19,177,6); fill-rule: nonzero; opacity: 1;"  transform=" translate(-159.57, -191.14)" d="m 162.54 38.922 c -4.56 0.077 -9.06 0.998 -13.16 2.879 c -15.78 10.537 -10.87 36.611 -2.12 50.836 c 6.14 3.762 12.92 6.275 20.04 7.423 c 22.24 -0.61 35.95 -28.223 26.02 -47.148 c -7.07 -8.876 -19.13 -14.187 -30.78 -13.99 z m -90.169 5.267 c -1 0.014 -2.019 0.075 -3.059 0.186 c -26.3 6.275 -37.374 46.949 -15.224 64.195 c 11.45 7.1 29.086 10.42 39.486 -0.11 c 21.526 -19.76 9.796 -64.697 -21.203 -64.271 z m 96.099 13.729 c 10.65 0.406 12.79 14.744 4.08 22.656 c -13.94 9.188 -24.19 -14.223 -12.77 -20.461 c 3.33 -1.64 6.24 -2.289 8.69 -2.195 z m -95.066 5.894 c 17.712 -0.593 17.571 37.208 -0.466 33.575 c -18.413 1.875 -18.101 -32.275 -2.276 -33.199 c 0.958 -0.225 1.871 -0.346 2.742 -0.376 z m 141.59 77.298 c -1.32 0.03 -2.64 0.15 -3.95 0.39 c -8.04 8.56 -21.36 13.03 -22.04 26.43 c -4.81 28.85 44.75 42.28 54.16 13.85 c 10.98 -19.29 -8.4 -41.12 -28.17 -40.67 z m 2.62 19.41 c 11.35 0.58 12.85 20.27 -1.11 18.19 c -9.89 1.25 -12.08 -12.92 -4.34 -17.15 c 2.01 -0.81 3.83 -1.12 5.45 -1.04 z m -75.11 17.21 c -1.52 -0.03 -3.08 0.08 -4.69 0.33 c -32.89 2.4 -36.95 58.34 -0.34 59.53 c 9.27 0.15 17.62 -4.83 23.98 -11.18 c 15.66 -17.56 3.78 -48.27 -18.95 -48.68 z m 0.3 20.16 c 11.55 -0.55 8.15 18.99 -0.76 21.8 c -10.53 4.3 -18.68 -10.03 -14.51 -19.19 c 5.21 0.14 10.38 -0.81 15.27 -2.61 z m -102.3 2.75 c -2.312 0.04 -4.696 0.39 -7.125 1.08 c -10.8 3.59 -15.587 17.82 -21.475 26.77 c -10.35 31.55 38.087 44.38 51.825 19.02 c 14.771 -18.62 -0.875 -47.21 -23.225 -46.87 z m 243.03 0.9 c -8.63 0.09 -17.37 3.11 -22.58 10 c -2.31 14.61 -6.78 36.11 10.52 43.65 c 12.29 6.95 26.75 1.43 34.53 -9.28 c 6.25 -16.05 1.52 -35.02 -14.03 -43.52 c -2.71 -0.59 -5.57 -0.88 -8.44 -0.85 z m -1.09 19 c 8.47 0.04 10.08 13.62 3.87 18.8 c -10.67 6.22 -16.91 -13.2 -7.91 -17.93 c 1.49 -0.61 2.83 -0.88 4.04 -0.87 z m -242.32 2.34 c 13.39 -0.52 12.44 22.63 -2.74 19.68 c -10 1.79 -6.763 -14.77 -1.875 -18.71 c 1.692 -0.62 3.23 -0.92 4.615 -0.97 z m 18.432 66.94 c -6.487 -0.09 -12.731 2.29 -17.348 8.21 c -1.062 10.63 -1.599 22.01 0.363 32.54 c 11.026 19.9 43.351 15.9 47.338 -7.35 c -0.087 -5.77 -0.962 -11.53 -2.287 -17.13 c -5.765 -9.06 -17.255 -16.1 -28.066 -16.27 z m 1.926 20.31 c 7.556 0.14 14.606 8.47 9.203 15.82 c -8.788 7.72 -22.738 -10.92 -11.551 -15.59 c 0.779 -0.17 1.566 -0.24 2.348 -0.23 z" stroke-linecap="round" />
</g>
</g>
</g>
</svg>