<?xml version="1.0" encoding="UTF-8" standalone="no" ?>
<!DOCTYPE svg PUBLIC "-//W3C//DTD SVG 1.1//EN" "http://www.w3.org/Graphics/SVG/1.1/DTD/svg11.dtd">
<svg xmlns="http://www.w3.org/2000/svg" xmlns:xlink="http://www.w3.org/1999/xlink" version="1.1" width="400" height="400" viewBox="0 0 400 400" xml:space="preserve">
<desc>Created with Fabric.js 3.6.3</desc>
<defs>
</defs>
<rect x="0" y="0" width="100%" height="100%" fill="rgba(255, 255, 255, 1)"></rect>
<g transform="matrix(1 0 0 1 205 240.24)" style=""  >
		<text xml:space="preserve" font-family="'Open Sans', sans-serif" font-size="18" font-style="normal" font-weight="normal" style="stroke: none; stroke-width: 1; stroke-dasharray: none; stroke-linecap: butt; stroke-dashoffset: 0; stroke-linejoin: miter; stroke-miterlimit: 4; fill: rgb(0,0,0); fill-rule: nonzero; opacity: 1; white-space: pre;" ><tspan x="-108.5" y="5.97" style="font-size: 19px; font-weight: bold; ">Your Company Name</tspan></text>
</g>
<g transform="matrix(1 0 0 1 229.48 273.67)" style=""  >
		<text xml:space="preserve" font-family="'Open Sans', sans-serif" font-size="18" font-style="normal" font-weight="normal" style="stroke: none; stroke-width: 1; stroke-dasharray: none; stroke-linecap: butt; stroke-dashoffset: 0; stroke-linejoin: miter; stroke-miterlimit: 4; fill: rgb(0,0,0); fill-rule: nonzero; opacity: 1; white-space: pre;" ><tspan x="-81.99" y="5.65" >slogan here</tspan></text>
</g>
<g transform="matrix(0.81 0 0 0.81 200.76 162.2)" id="path3"  >
<path style="stroke: rgb(10,10,10); stroke-width: 2; stroke-dasharray: none; stroke-linecap: butt; stroke-dashoffset: 0; stroke-linejoin: miter; stroke-miterlimit: 4; fill: rgb(248,237,57); fill-rule: nonzero; opacity: 1;"  transform=" translate(-96.23, -78.19)" d="m 152.28 7.546 l -27.516 -6.402 c -0.338 11.022 -13.03 19.885 -28.65 19.885 c -15.688 0 -28.426 -8.94 -28.656 -20.029 l -27.287 7.247 c -26.95 15.69 -39.167 24.171 -39.167 24.171 l 16.531 36.894 l 25.875 -13.147 s 5.748 0 6.106 1.698 c 0.362 1.695 1.814 25.582 1.814 28.125 c 0 5.843 0 0 0.765 67.168 l 17.385 1.156 s 20.557 1.26 28.679 1.049 c 8.12 -0.211 33.499 -1.049 33.499 -1.049 l 12.182 -1.156 c -2.283 -66.537 -2.081 -62.487 -1.903 -68.428 c 0.077 -2.545 0.643 -25.869 1.005 -27.564 c 0.359 -1.698 6.107 -1.698 6.107 -1.698 l 25.874 13.149 l 16.53 -36.895 c 0.02 -0.01 -12.2 -8.49 -39.15 -24.18 z" stroke-linecap="round" />
</g>
</svg>