<?xml version="1.0" encoding="UTF-8" standalone="no" ?>
<!DOCTYPE svg PUBLIC "-//W3C//DTD SVG 1.1//EN" "http://www.w3.org/Graphics/SVG/1.1/DTD/svg11.dtd">
<svg xmlns="http://www.w3.org/2000/svg" xmlns:xlink="http://www.w3.org/1999/xlink" version="1.1" width="400" height="400" viewBox="0 0 400 400" xml:space="preserve">
<desc>Created with Fabric.js 3.6.3</desc>
<defs>
</defs>
<rect x="0" y="0" width="100%" height="100%" fill="rgba(255, 255, 255, 1)"></rect>
<g transform="matrix(1 0 0 1 205 240.24)" style=""  >
		<text xml:space="preserve" font-family="'Open Sans', sans-serif" font-size="18" font-style="normal" font-weight="normal" style="stroke: none; stroke-width: 1; stroke-dasharray: none; stroke-linecap: butt; stroke-dashoffset: 0; stroke-linejoin: miter; stroke-miterlimit: 4; fill: rgb(0,0,0); fill-rule: nonzero; opacity: 1; white-space: pre;" ><tspan x="-108.5" y="5.97" style="font-size: 19px; font-weight: bold; ">Your Company Name</tspan></text>
</g>
<g transform="matrix(1 0 0 1 229.48 273.67)" style=""  >
		<text xml:space="preserve" font-family="'Open Sans', sans-serif" font-size="18" font-style="normal" font-weight="normal" style="stroke: none; stroke-width: 1; stroke-dasharray: none; stroke-linecap: butt; stroke-dashoffset: 0; stroke-linejoin: miter; stroke-miterlimit: 4; fill: rgb(0,0,0); fill-rule: nonzero; opacity: 1; white-space: pre;" ><tspan x="-81.99" y="5.65" >slogan here</tspan></text>
</g>
<g transform="matrix(0.1 -0.01 0 0.08 195.75 190)"  >
<g style=""   >
		<g transform="matrix(1 0 0 1 645.2 46.51)" id="_x23_fefefeff"  >
<path style="stroke: rgb(254,254,254); stroke-width: 0.0938; stroke-dasharray: none; stroke-linecap: butt; stroke-dashoffset: 0; stroke-linejoin: miter; stroke-miterlimit: 4; fill: rgb(254,254,254); fill-rule: nonzero; opacity: 1;"  transform=" translate(-1605.19, -535.08)" d="M 1604.4399 535.95 c -1.61 -1.44 2.3501 -2.76 1.8501 -0.64 C 1605.83 535.47 1604.91 535.79 1604.4399 535.95 z" stroke-linecap="round" />
</g>
		<g transform="matrix(1 0 0 1 -530.13 -168.86)" id="_x23_000000ff"  >
<path style="stroke: rgb(0,0,0); stroke-width: 0.0938; stroke-dasharray: none; stroke-linecap: butt; stroke-dashoffset: 0; stroke-linejoin: miter; stroke-miterlimit: 4; fill: rgb(0,0,0); fill-rule: nonzero; opacity: 1;"  transform=" translate(-429.86, -319.71)" d="M 252.33 195.58 c 44.14 -9.87 89.88 -10.78 134.76 -6.37 c 52.48 4.93 104.23 16.11 154.72 31.07 c 22.12 6.57 44.36 12.87 65.98 21 c 19.72 7.48 39.51 14.75 59.37 21.86 c 19.66 6.95 39.31 14.19 57.76 23.99 c 11.99 6.15 23.07 13.9 33.37 22.55 c 10.32 8.38 20.2401 17.65 32.43 23.29 c -2.5 -9.9 -5.17 -20.08 -3.99 -30.37 c 10.58 17.21 14.15 37.53 22.98 55.56 c 1.16 -9.44 -0.14 -18.93 0.11 -28.4 c 0.58 0.64 1.05 1.35 1.41 2.16 c 7.08 16.63 7.96 34.94 12.51 52.26 c 1.38 -7.72 0.72 -15.76 3.18 -23.28 c 0.3 0.64 0.53 1.31 0.7 2.01 c 3.97 29.88 2.21 60.39 -4.11 89.82 c -21.2 -31.24 -48.84 -57.87 -80.02 -79.05 c -16.9 -11.77 -35.44 -20.84 -53.4 -30.83 c -33.94 -18.7 -68.17 -37.49 -105.15 -49.55 c -39.94 -12.85 -77.83 -31.34 -118.05 -43.39 c -12.04 -3.71 -24.24 -6.87 -36.36 -10.28 c -33.96 -9.72 -69.38 -13.13 -104.57 -14.29 c -29.95 -0.78 -59.93 0.1 -89.82 2.07 c 6.15 0.93 12.2 2.53 18.01 4.79 c -13.5 1.28 -28.52 -2.79 -40.73 4.83 c 10.47 0.75 21.01 2.32 30.57 6.88 c -18.85 7.41 -40.57 1.16 -58.66 11.27 c 8.63 -0.04 17.44 -0.1 25.77 2.46 c -9.78 3.58 -20.57 2.03 -30.28 5.89 c 6.21 0.43 12.82 0.38 18.4 3.53 c -8.31 1.76 -14.26 8.44 -19.82 14.39 c -9.87 10.84 -18.25 22.96 -28.32 33.63 c -23.81 21.42 -43.93 46.48 -65.65 69.93 c -19.14 21.03 -40.82 40.29 -55.44 64.97 c 1.02 -3.37 2.76 -6.44 4.3 -9.58 c 18.66 -37.67 39.47 -74.3 62.94 -109.19 c 20.21 -30.09 42.3 -59.23 69.07 -83.84 c 20.51 -19.12 43.88 -35.44 69.79 -46.37 C 241.46 199.09 246.88 197.26 252.33 195.58 z" stroke-linecap="round" />
</g>
		<g transform="matrix(1 0 0 1 530.05 -168.83)" id="_x23_000000ff"  >
<path style="stroke: rgb(0,0,0); stroke-width: 0.0938; stroke-dasharray: none; stroke-linecap: butt; stroke-dashoffset: 0; stroke-linejoin: miter; stroke-miterlimit: 4; fill: rgb(0,0,0); fill-rule: nonzero; opacity: 1;"  transform=" translate(-1490.04, -319.74)" d="M 1474.9399 197.1 c 50.77 -8.8 102.7401 -13.7 154.15 -7.9 c 20.04 2.46 40.41 5.24 58.9601 13.66 c 34.2 15.35 63.37 40 88.2899 67.67 c 24.36 27.25 44.92 57.63 64.26 88.57 c 12.62 20.48 24.47 41.42 35.55 62.78 c 4.71 9.29 9.72 18.46 13.84 28.04 c -10.47 -17.26 -24.36 -32.06 -38.23 -46.59 c -26.08 -26.35 -49.09 -55.57 -75.63 -81.47 c -11.78 -9.61 -20.13 -22.46 -30.04 -33.82 c -5.99 -7.01 -11.9199 -14.5 -20.09 -19.09 c -1.87 -1.14 -3.98 -1.61 -6.11 -1.8 c 5.97 -2.94 12.6799 -3.32 19.21 -3.64 c -9.6899 -3.82 -20.45 -2.27 -30.1899 -5.86 c 8.27 -2.63 17.0599 -2.51 25.65 -2.45 c -8.4501 -4.48 -17.9901 -6.19 -27.4601 -6.6 c -10.5499 -0.45 -21.3099 -0.93 -31.3099 -4.67 c 6.12 -2.62 12.45 -4.86 19.1 -5.65 c 3.73 -0.78 7.67 -0.36 11.3199 -1.55 c -12.3199 -7.05 -26.96 -3.37 -40.37 -4.53 c 5.6801 -2.3 11.65 -3.92 17.75 -4.66 c -28.11 -2.18 -56.34 -2.77 -84.5299 -2.34 c -23.4401 0.55 -46.88 2.2 -70.05 5.8 c -22.15 3.1 -43.55 9.75 -65.0601 15.67 c -20.7799 5.8 -41.09 13.11 -61.13 21.07 c -20.0699 7.81 -39.9099 16.23 -60.37 22.99 c -14.9199 4.96 -29.73 10.28 -44.0699 16.76 c -22.04 9.87 -43.28 21.42 -64.4401 33.05 c -14.61 8.2 -29.61 15.73 -43.98 24.35 c -36.6799 22.53 -69.52 52.03 -93.5499 87.91 c -6.55 -30.1 -8.37 -61.45 -3.76 -91.95 c 3.01 7.39 1.9399 15.63 3.4299 23.36 c 3.5701 -13.23 4.7101 -26.99 8.41 -40.19 c 1.3101 -5.2 3.41 -10.15 5.2 -15.2 c 0.9701 9.79 -0.8999 19.64 0.42 29.43 c 8.83 -18.03 12.36 -38.39 22.99 -55.57 c 1.1901 10.27 -1.52 20.41 -3.97 30.3 c 18.01 -8.68 31.37 -24.11 47.84 -35.12 c 30.91 -20.89 67.1901 -31.16 101.77 -44.15 c 20.33 -7.36 40.36 -15.56 61.04 -21.94 C 1384.21 217.97 1429.04 205.07 1474.9399 197.1 z" stroke-linecap="round" />
</g>
		<g transform="matrix(1 0 0 1 -476.51 136.53)" id="_x23_000000ff"  >
<path style="stroke: rgb(0,0,0); stroke-width: 0.0938; stroke-dasharray: none; stroke-linecap: butt; stroke-dashoffset: 0; stroke-linejoin: miter; stroke-miterlimit: 4; fill: rgb(0,0,0); fill-rule: nonzero; opacity: 1;"  transform=" translate(-483.48, -625.1)" d="M 475.98 459.73 c 1.24 2.24 1.64 5.14 3.74 6.79 c 19.23 -3.2 38.77 -4.64 58.25 -3.72 c 25.0601 1.08 49.89 5.68 73.96 12.65 c 12.34 3.54 24.57 7.59 36.21 13.04 c 15 7.12 30.08 14.23 44.08 23.23 c 28.0601 17.75 52.5601 40.66 74.13 65.8 c 11.83 13.78 22.66 28.41 32.37 43.75 c 3.17 5.56 7.19 10.74 9.38 16.79 c -26.74 -43.35 -63.77 -80.42 -107.44 -106.71 c -13.3 -8.13 -27.3199 -15 -41.47 -21.5 c -20 -9.08 -40.68 -16.77 -62.02 -22.08 c -28.67 -7.21 -58.16 -11.91 -87.8 -11.47 c 9.46 13.34 22.59 23.69 36.9 31.4 c 9.64 5.31 20 9.11 29.81 14.09 c 9.29 4.7401 19.66 6.51 29.46 9.9 c 37.64 12.4 74.61 27.48 108.64 47.95 c 17.86 10.69 34.85 22.81 50.91 36.04 c 10.43 8.66 20.72 17.57 29.74 27.73 c 8.79 9.4901 16.57 19.88 25.62 29.13 c 4.19 4.42 8.72 8.5 12.95 12.88 c 8.36 6.69 15.89 14.57 21.42 23.79 c -3.04 -0.89 -5.82 -2.41 -8.89 -3.16 c 2.76 3.22 6.61 5.28 9.23 8.65 c -16.86 -3.25 -34.06 -3.1 -51.12 -4.27 c -16.12 -0.69 -32.09 2.05 -48.07 3.64 c -16.49 1.61 -32.79 4.68 -49.02 7.94 c -20.22 4.23 -40.59 7.7 -60.86 11.64 c -5.66 1.17 -10.33 4.73 -15.29 7.45 c -14.04 7.35 -28.24 14.81 -43.71 18.67 c -11.13 2.82 -22.7 2.58 -34.09 2.9 c -25.52 0.89 -51.09 0.51 -76.56 2.54 c -19.09 1.1 -38.46 4 -55.85 12.35 c -5.83 2.88 -10.06 8 -14.13 12.91 c 5.14 -11.5 15.36 -19.73 25.98 -25.97 c 10.14 -5.9 21.3 -9.95 32.78 -12.31 c -15.16 -3.08 -30.85 -0.88 -45.61 3.16 c -11.38 3.17 -22.38 7.7401 -32.62 13.63 c -7.4 4.21 -13.63 10.13 -20.91 14.52 c 12.23 -15.46 27.64 -28.78 45.82 -36.72 c 5.73 -2.6801 11.88 -4.2401 17.82 -6.3 c -12.2 0.34 -24.45 -0.29 -36.64 0.72 c -19.79 1.29 -39.46 6.41 -56.85 16.05 c -6.65 3.63 -12.75 8.14 -19.08 12.27 c 9.25 -14.81 23.66 -25.79 39.32 -33.13 c 8.79 -4 18.01 -7.27 27.59 -8.7 c 3.04 -0.5 6.11 -0.88 9.07 -1.76 c -19.8 -3.3 -40.22 -0.34 -59.21 5.69 c -17.7 6.05 -34.72 14.38 -49.99 25.24 c -1.28 0.79 -2.63 1.47 -3.99 2.12 c 8.12 -12.36 21.01 -20.63 34.14 -26.87 c 9.01 -4.07 18.36 -7.59 28.1 -9.48 c 1.08 -0.23 2.09 -0.71 3.03 -1.28 c -18.24 0.03 -36.45 2.45 -54.27 6.28 c -19.22 4.26 -38.06 10.82 -55.1 20.78 c 12.33 -13.8199 27.99 -24.93 45.61 -30.87 c 6.48 -2.21 13.34 -2.91 19.93 -4.72 c -25.1 -0.74 -50.18 -6.33 -75.3 -2.77 c -7.52 0.82 -14.79 2.95 -22.13 4.65 c 7.07 -3.11 12.99 -8.19 19.41 -12.37 c 15.06 -10.58 34.46 -14.97 52.59 -11.98 c -27.62 -9.93 -54.55 -23.21 -84.11 -26.31 c 2.38 -0.47 4.79 -0.86 7.16 -1.39 c -16.7 -2.2401 -32.92 -8.65 -46.29 -18.96 c 9.41 3.14 18.95 6.83 28.97 7.1 c -10.73 -2.44 -21.16 -6.28 -30.59 -11.98 c -14.97 -8.81 -27.76 -20.83 -39.29 -33.71 c 23.06 12.33 49.06 20.75 75.45 19.57 c -5.88 -2.55 -11.43 -5.77 -17.08 -8.76 c -4.21 -2.5 -8.7 -4.64 -12.42 -7.86 c 10.94 5.5 22.41 9.96 34.29 12.91 c 5.32 1.23 10.63 3.44 16.2 2.49 c -4.41 -5.35 -10.44 -9.07 -16.16 -12.87 c 8.05 1.79 14.83 6.73 22.27 10.02 c 4.39 2.28 8.83 -0.88 13.06 -1.98 c 3.28 -1.22 7.17 -1.12 10 -3.36 c -10.03 -4.65 -20.45 -9.78 -27.82 -18.23 c 9.11 3.6899 17.64 8.6 26.44 12.9399 c 4.16 1.83 8.79 4.01 13.42 2.69 c 7.01 -1.8 14 -3.71 20.92 -5.84 c -25.16 -3.29 -50.66 -10.46 -71.06 -26.12 c -7.66 -5.94 -15.2 -12.64 -19.45 -21.52 c 17.95 15.76 40.72 25.71 64.41 28.59 c -3.02 -2.48 -6.31 -4.65 -8.98 -7.53 c 6.67 1.26 11.44 6.64 17.81 8.62 c 5.45 1.45 11.11 0.04 16.66 0.27 c -8.87 -3.64 -17.84 -7.96 -24.4 -15.14 c 11.01 4.98 21.39 12.01 33.58 13.84 c 5.99 0.92 12.16 0.65 18.04 -0.8 c -13.23 -3 -26.89 -7.57 -36.64 -17.4301 c 11.12 7.07 23.81 11.56 36.89 13.17 c -3.91 -1.74 -8.17 -2.79 -11.57 -5.5 c -7.11 -5.18 -14.26 -10.72 -19.28 -18.03 c 5.56 4.42 11.95 7.67 18.72 9.8 c 10.56 3.28 21.51 7.11 32.74 5.42 c -14.93 -3.44 -30.49 -7.7 -42.21 -18.12 c -6.59 -5.8701 -11.23 -13.75 -13.64 -22.21 c 9.78 11.44 23.16 19.47 37.65 23.37 c 12.3 3.48 25.13 4.48 37.86 4.76 c -9.61 -4.37 -17.44 -11.58 -26.07 -17.49 c -6.9 -4.91 -14.08 -9.89 -18.83 -17.05 c 4.45 3.66 8.44 8.02 13.69 10.59 c -4.48 -5.98 -9.7 -11.42 -13.53 -17.88 c 7.65 6.54 15.67 13.15 25.26 16.58 c -3.5 -2.36 -6.88 -5.02 -9.31 -8.52 c 11.62 8.86 24.69 16.38 39.21 19.14 c 6.97 1.23 14.65 3.98 21.35 0.27 c -15.76 -4.96 -31.45 -11.32 -44.33 -21.9 c 8.03 5.11 16.79 9.27 26.19 11.08 c -12.03 -7.84 -22.95 -18.1 -29.23 -31.19 c 16.72 20.06 43.25 30.29 69.05 29.62 c 2.59 -0.19 4.95 -1.35 7.23 -2.5 c -13.12 -6.01 -25.49 -13.99 -35.18 -24.8 c -7.7 -8.03 -14.08 -17.49 -17.64 -28.09 c 11.94 10.62 20.42 24.71 33.41 34.2 c 8.64 6.38 18.46 10.93 28.4 14.91 c 1.92 -0.83 3.89 -1.55 5.88 -2.21 c -18.5 -11.44 -35.16 -27.26 -43.58 -47.66 c 12.67 14.24 24.03 30.34 40.52 40.5 c 4.27 2.35 9.1 5.61 14.19 3.91 c 4.53 -1.48 9 -3.18 13.74 -3.93 c -11.21 -9.62 -23.38 -18.69 -31.32 -31.42 c -2.5 -3.82 -4.44 -7.96 -6.25 -12.13 c 10.41 11.95 19.73 25.23 32.84 34.47 c 4.41 2.88 9.19 5.81 14.59 6.16 c -13.28 -11.55 -28.33 -22.92 -34.74 -39.96 c 9.02 10.47 17.34 21.99 29.05 29.66 c 4.8 3.1 10.2 5.3 15.86 6.16 c -12.36 -8.53 -23.32 -19.59 -30.04 -33.15 c 8.55 11.48 19.15 21.35 31.03 29.32 c -10.28 -9.3 -17.04 -21.86 -20.77 -35.11 c 5.43 8.88 12.5 16.66 20.48 23.31 c 6.51 5.46 13.37 10.8 21.39 13.86 c 6.48 2.4 13.27 -0.16 19.86 -0.63 c 3.3 -0.48 6.52 0.57 9.76 1.02 c -10.23 -11.14 -20.05 -22.81 -27.58 -36 c -10.7 0.03 -21.5 0.4 -31.98 2.75 c -1.89 0.42 -3.82 0.69 -5.74 0.84 c 10.69 -5.13 21.91 -9.21 33.42 -12.09 C 477.12 464.52 476.34 462.17 475.98 459.73 M 484.7 475.45 c 0.55 1.01 1.12 2.02 1.78 2.99 c 9.88 13.6 21.54 26.48 36.56 34.47 c -12.26 -10.05 -21.86 -23.02 -28.74 -37.25 C 491.1 475.44 487.9 475.32 484.7 475.45 M 495.73 475.63 c 5.15 8.46 11.93 15.79 19.13 22.54 c 7.75 7.03 16.24 15.01 27.21 15.85 c -13.13 -10.94 -24.62 -23.8 -33.88 -38.17 C 504.04 475.81 499.88 475.62 495.73 475.63 M 535.72 546.25 c 6.75 1.74 12.89 5.37 18.02 10.05 c 12.36 11.42 19.13 27.61 22.63 43.79 c 3.32 15.53 3.88 32.55 -3.11 47.19 c -4.94 10.56 -15.02 18.3 -26.33 20.86 c -12.4 3.14 -25.58 -0.31 -36.33 -6.78 c -15.18 -9.17 -27.35 -23.33 -33.99 -39.79 c -5.67 -14.59 -6.94 -31.26 -2.01 -46.24 c 3.83 -11.62 12.84 -20.88 23.52 -26.54 c -5.06 -0.46 -10.04 0.7 -15.03 1.25 c -12.9 1.45 -25.8 3.08 -38.52 5.72 c -9.06 1.9 -17.61 5.68 -25.64 10.19 c -2.76 1.38 -4.37 4.11 -5.3 6.95 c -6.26 16.73 -5.72 35.17 -2.93 52.56 c 1.59 10.52 5.43 20.49 8.22 30.7 c 11.53 29.83 32.02 56.57 59 73.9901 c 5.21 3.45 11.06 5.87 17.18 7.15 c 13.47 2.93 27.11 5.15 40.86 6.27 c 14.04 1.26 28.14 0.57 42.19 0 c 5.2599 -0.57 9.8199 -3.57 14.4 -5.98 c 4.33 -2.21 7.67 -6.03 12.23 -7.79 c 13.3799 -3.79 25.53 -12.07 33.6899 -23.37 c 8.19 -11.21 12.42 -24.76 14.86 -38.29 c 2.93 -16.82 4.02 -34.06 2 -51.05 c -1.73 -15.9901 -7.15 -31.4 -14.74 -45.52 c -2.05 -3.5 -4.26 -7.51 -8.39 -8.81 c -11.5 -3.93 -23.28 -7.05 -35.16 -9.6 C 576.88 549.08 556.33 546.02 535.72 546.25 M 652.63 570.14 c 9.61 20.42 10.89 43.61 9.63 65.82 c -1.5 21.48 -4.66 43.4 -14.3 62.9 c -7.16 14.64 -18.2 27.39 -31.94 36.2 c 37.51 -11.82 68.85 -36.42 102.94 -55.16 c 13.19 -7.4901 27.92 -12.32 43.04 -13.73 c 20.91 -2.15 42.3 2.32 60.87 12.08 c -26.42 -18.35 -51.51 -38.52 -77.38 -57.64 C 717.04 599.71 686.45 580.92 652.63 570.14 M 356.13 603.16 c -18.17 10.01 -35.31 21.8701 -54.04 30.88 c -4.23 2 -8.91 3.43 -12.33 6.78 c -4.09 4.08 -9.08 7.09 -14.18 9.73 c -16.97 8.53 -36 12.07 -54.83 13.21 c 35.11 6.64 69.25 17.35 103.71 26.61 c 41.19 10.64 82.22 21.85 122.99 34 c -9.37 -8.26 -18.24 -17.21 -25.31 -27.53 c -10.35 -15.03 -18.16 -31.66 -24.51 -48.71 c -7.33 -20.05 -12.78 -40.93 -14.68 -62.23 C 373.62 591.03 365.47 598.03 356.13 603.16 z" stroke-linecap="round" />
</g>
		<g transform="matrix(1 0 0 1 476.33 136.29)" id="_x23_000000ff"  >
<path style="stroke: rgb(0,0,0); stroke-width: 0.0938; stroke-dasharray: none; stroke-linecap: butt; stroke-dashoffset: 0; stroke-linejoin: miter; stroke-miterlimit: 4; fill: rgb(0,0,0); fill-rule: nonzero; opacity: 1;"  transform=" translate(-1436.32, -624.86)" d="M 1443.88 459.52 c -0.22 2.51 -1.13 4.88 -1.9 7.26 c 12.15 3.43 24.37 7.23 35.4301 13.44 c 1.22 -1.83 2.39 -3.69 3.71 -5.45 c -3.4301 13.09 -10.28 25.82 -20.98 34.37 c 12.53 -7.53 23 -18.15 31.97 -29.62 c -6.91 13.54 -17.78 24.66 -30.1799 33.28 c 9.6699 -1.5 18.2599 -6.92 25.1699 -13.65 c 7.3301 -6.84 13.28 -14.95 20.02 -22.33 c -6.8099 17.11 -21.87 28.46 -35.1 40.37 c 7.01 -1.16 13.1699 -5.08 18.63 -9.44 c 10.95 -8.88 19.2 -20.43 28.46 -30.93 c -5.14 13.73 -15.41 24.75 -26.5 34 c -3.52 3.06 -7.3199 5.79 -10.67 9.04 c 5.9 0.68 11.1901 3.82 17.0601 4.44 c 6.08 -0.88 11.29 -4.63 16.23 -8.06 c 13.7001 -10.18 23.78 -24.16 35.0701 -36.75 c -8.37 20.35 -25.0701 35.95 -43.3501 47.54 c 1.92 0.7 3.8601 1.42 5.78 2.2 c 11.03 -4.5 22.03 -9.59 31.29 -17.21 c 11.4 -9.39 19.4199 -22.08 30.4299 -31.86 c -4.96 14.84 -15.4399 27.09 -27.13 37.16 c -7.71 6.48 -16.6 11.38 -25.6599 15.7 c 2.3199 1.18 4.75 2.34 7.4199 2.5 c 25.7101 0.57 52.2101 -9.58 68.8301 -29.65 c -6.1901 13.13 -17.17 23.32 -29.16 31.17 c 9.03 -1.58 17.25 -5.81 25.22 -10.15 c -12.84 9.91 -28.01 16.24 -43.4099 20.99 c 6.0399 3.42 13.08 1.37 19.4399 0.13 c 15.21 -2.63 29.23 -10.11 41.14 -19.76 c -1.17 1.94 -2.64 3.76 -4.66 4.85 c 0.46 0.47 0.9401 0.96 1.4401 1.46 c 6.8099 -4.18 13.35 -8.82 19.23 -14.24 c -4.04 6.59 -9.15 12.43 -14.14 18.3 c 5.46 -2.6 9.5699 -7.12 14.21 -10.86 c -4.46 6.62 -10.97 11.45 -17.4 16.01 c -9.08 6.12 -17.24 13.64 -27.1699 18.44 c 18.0399 -0.28 36.61 -2.39 52.9199 -10.63 c 8.52 -4.21 15.9501 -10.31 22.26 -17.37 c -2.7899 9.78 -8.6499 18.7 -16.84 24.78 c -11.11 8.57 -25 11.89 -38.24 15.54 c 10.6801 1.47 21.09 -2.13 31.16 -5.21 c 7.0499 -2.14 13.7 -5.48 19.51 -10.03 c -5.05 7.3 -12.1801 12.86 -19.3 18.02 c -3.41 2.69 -7.6899 3.66 -11.54 5.5 c 13.01 -1.73 25.6901 -6.03 36.76 -13.12 c -9.6699 9.88 -23.35 14.28 -36.48 17.39 c 7.97 1.87 16.42 1.73 24.26 -0.66 c 9.65 -2.76 18.14 -8.27 27.21 -12.41 c -6.2799 7.55 -15.7799 10.93 -24.0599 15.57 c 5.0499 -0.87 10.1699 0.52 15.21 -0.4 c 6.9301 -1.55 11.88 -7.53 18.9 -8.89 c -2.5601 2.93 -5.84 5.07 -8.87 7.45 c 23.78 -2.8 46.61 -12.86 64.61 -28.68 c -4.4 8.87 -11.85 15.67 -19.5699 21.62 c -20.3301 15.67 -45.8 22.77 -70.88 26.13 c 6.7 2.22 13.5399 4 20.39 5.75 c 4.2899 1.21 8.6599 -0.33 12.58 -2.06 c 9.25 -4.35 18.04 -9.69 27.59 -13.41 c -7.5599 8.6 -18.23 13.66 -28.41 18.52 c 5.3601 1.84 10.9901 2.79 16.2401 4.99 c 5.25 2.51 10.23 -1.47 14.7599 -3.7 c 4.8201 -2.58 9.7201 -5.16 15.0901 -6.41 c -6 3.66 -11.61 7.93 -16.67 12.81 c 5.67 1.27 11.14 -1.12 16.59 -2.34 c 11.99 -2.9901 23.5601 -7.4901 34.5701 -13.08 c -9.1901 6.8 -19.62 11.77 -29.8301 16.86 c 26.38 0.99 52.41 -7.2 75.4301 -19.66 c -18.58 21.04 -41.76 40.23 -70.04 45.6 c 9.8 0.11 19.0601 -3.82 28.3201 -6.58 c -13.02 10.44 -29.3301 16.22 -45.7101 18.6801 c 2.2301 0.37 4.4901 0.67 6.7401 1.1299 c -8.8101 1.59 -17.7101 2.92 -26.3 5.57 c -19.27 5.43 -37.42 14.05 -56.37 20.38 c 12.77 -1.39 25.87 0.19 37.87 4.81 c 12.04 4.74 21.49 13.93 32.77 20.03 c -9.54 -2.77 -19.3301 -4.79 -29.26 -5.44 c -22.61 -1.74 -45.01 2.94 -67.55 3.56 c 7.9 2.08 16.15 2.92 23.75 6.11 c 16.15 6.22 30.4501 16.79 41.9601 29.65 c -18.53 -11.02 -39.29 -17.76 -60.3401 -22.02 c -16.4199 -3.14 -33.15 -5.4 -49.89 -5.09 c 15.66 3.72 31.16 9.01 44.8201 17.72 c 8.15 5.2 15.79 11.58 21.1 19.76 c -5.11 -2.21 -9.2 -6.1 -14.03 -8.77 c -17.9299 -10.63 -37.3099 -19.27 -57.87 -23.19 c -13.53 -2.36 -27.64 -3.72 -41.1799 -0.89 c 8.7899 1.63 17.75 2.75 26.14 6.04 c 19.74 7.02 38.38 19.32 49.7 37.29 c -5.5 -3.46 -10.67 -7.4 -16.3 -10.62 c -17.64 -10.44 -37.88 -16 -58.25 -17.52 c -12.36 -0.94 -24.7899 -0.87 -37.1699 -0.41 c 25.1799 6.21 46.99 22.31 62.7999 42.56 c -7.23 -4.32 -13.3999 -10.17 -20.7 -14.38 c -14.2 -8.15 -29.8201 -13.84 -45.9401 -16.69 c -10.71 -1.86 -21.7899 -2.38 -32.5 -0.18 c 16.66 3.43 32.8501 10.39 45.8501 21.51 c 5.23 4.6 10.0299 9.98 12.72 16.5 c -4.6801 -5.83 -10.02 -11.55 -17.22 -14.17 c -21.04 -9.27 -44.3301 -10.4901 -66.9601 -11.72 c -26.98 -1.26 -54 -1 -80.98 -2.26 c -20 -1.05 -38.29 -10.17 -55.72 -19.25 c -6.3 -2.97 -11.78 -7.73 -18.71 -9.2 c -21.05 -4.04 -42.1801 -7.69 -63.16 -12.09 c -14.42 -2.85 -28.89 -5.59 -43.52 -7.11 c -14.3 -1.38 -28.52 -3.71 -42.9 -4.05 c -8.0399 -0.25 -16.0399 0.72 -24.0699 0.94 c -11.8101 0.44 -23.63 1.25 -35.26 3.45 c 2.62 -3.33 6.2999 -5.52 9.27 -8.5 c -3.15 0.34 -5.79 2.32 -8.88 2.88 c 4.23 -6.91 9.5399 -13.14 15.49 -18.62 c 13.6799 -11.61 25.75 -24.99 37.16 -38.81 c 11.0699 -13.26 23.6699 -25.13 37.0599 -36.01 c 29.73 -24.67 63.01 -44.97 98.33 -60.59 c 20.01 -8.96 40.5901 -16.6 61.41 -23.46 c 9.72 -3.36 20.01 -5.11 29.24 -9.83 c 10.76 -5.45 22.1901 -9.52 32.6 -15.65 c 13.26 -7.46 25.28 -17.4 34.15 -29.83 c -26.4099 -0.45 -52.73 3.3 -78.4299 9.19 c -34.8401 7.67 -68.03 21.5 -99.4701 38.16 c -34.7899 18.77 -66 44.1 -91.59 74.23 c -10.76 12.37 -19.97 25.96 -29.24 39.44 c 17.48 -31.96 40.52 -60.69 66.4401 -86.2 c 14.63 -14.24 30.5199 -27.23 47.6899 -38.31 c 14.6801 -9.59 30.5601 -17.13 46.39 -24.6 c 18.58 -8.48 38.37 -13.95 58.22 -18.54 c 35.97 -8.06 73.52 -9.6 109.86 -3.05 C 1441.91 464.48 1442.91 462 1443.88 459.52 M 1425.5699 475.62 c -7.0199 14.28 -16.5299 27.58 -29.1599 37.41 c 16.2999 -8.44 28.65 -22.7 38.99 -37.55 C 1432.11 475.33 1428.83 475.43 1425.5699 475.62 M 1437.76 475.39 c -7.5601 13.19 -17.33 24.93 -27.66 36.03 c 6.89 -2.1 13.9401 -0.51 20.87 0.46 c 7.4 1.16 14.0901 -3.01 20.02 -6.86 c 9.92 -6.92 19.05 -15.11 26.4301 -24.74 C 1464.72 475.9 1451.0699 475.5 1437.76 475.39 M 1377.63 514.15 c 9.36 -0.82 17.0699 -6.82 23.87 -12.79 c 8.48 -7.66 16.62 -15.91 22.62 -25.71 c -4.15 -0.06 -8.29 0.21 -12.4301 0.14 C 1402.38 490.23 1390.8199 503.14 1377.63 514.15 M 1604.4399 535.95 c 0.4701 -0.16 1.39 -0.48 1.8501 -0.64 C 1606.79 533.19 1602.83 534.51 1604.4399 535.95 M 1314.96 554.93 c -8.97 2.13 -17.86 4.64 -26.6 7.58 c -6.54 1.99 -9.02 9.14 -11.97 14.61 c -10.17 20.29 -14 43.29 -12.72 65.86 c 1.1499 18.52 3.6599 37.53 12.1 54.3 c 7.6899 15.58 22.14 27.67 38.89 32.37 c 4.09 1.39 7.14 4.64 10.7899 6.84 c 3.67 2.22 7.4601 4.27 11.4301 5.9 c 4.79 1.98 10.08 1.16 15.12 1.51 c 19.72 1.2599 39.54 -0.4301 58.96 -3.87 c 9.98 -1.98 20.5 -3.21 29.25 -8.83 c 27.8501 -17.37 49.02 -44.66 60.7101 -75.16 c 2.7899 -9.96 6.46 -19.7 8.11 -29.95 c 2.9 -17.6201 3.52 -36.32 -2.85 -53.29 c -0.9301 -2.78 -2.55 -5.42 -5.2001 -6.81 c -8.12 -4.51 -16.7 -8.37 -25.83 -10.25 c -12.65 -2.63 -25.47 -4.27 -38.3 -5.68 c -5.11 -0.63 -10.21 -1.64 -15.38 -1.35 c 6.4401 3.47 12.4401 7.96 16.89 13.83 c 7.55 9.71 10.33 22.35 9.87 34.46 c -0.3199 18.38 -8.4199 36.08 -20.8199 49.46 c -9.29 10 -20.9701 18.39 -34.41 21.6 c -13.54 3.42 -28.89 -0.26 -38.88 -10.17 c -7.08 -7 -10.88 -16.68 -12.26 -26.41 c -2.38 -18.28 1.46 -37.07 8.99 -53.77 c 6.62 -14.12 17.8301 -27.73 33.64 -31.45 C 1361.08 546.07 1337.74 549.7 1314.96 554.93 M 1234.42 583.36 c -34.8201 16.83 -65.29 40.96 -95.87 64.32 c -13.99 10.86 -28.41 21.16 -42.8101 31.45 c 14.99 -8.46 32.08 -13.07 49.29 -13.44 c 19.72 -0.53 39.48 4.72 56.53 14.59 c 33.6699 18.5099 64.62 42.93 101.6899 54.49 c -14.01 -9.3 -25.26 -22.55 -32.3 -37.8 c -8.22 -17.5 -11.34 -36.86 -13.0199 -55.97 c -1.88 -23.83 -0.88 -48.71 9.11 -70.81 C 1255.86 573.77 1244.98 578.23 1234.42 583.36 M 1536.96 585.81 c -1.59 16.87 -5.3199 33.49 -10.3999 49.63 c -6 18.81 -13.76 37.14 -24.04 54.02 c -7.92 13.34 -18.54 24.83 -30.21 34.95 c 34.7 -10.37 69.6 -20.06 104.6299 -29.23 c 40.8101 -10.22 80.8501 -23.57 122.2301 -31.44 c -21.67 -1.27 -43.87 -5.74 -62.42 -17.53 c -4.61 -2.66 -7.6801 -7.43 -12.74 -9.37 c -20.96 -8.96 -39.6 -22.27 -59.5 -33.21 C 1554.91 598.34 1546.41 591.34 1536.96 585.81 z" stroke-linecap="round" />
</g>
		<g transform="matrix(1 0 0 1 -524.37 -21.03)" id="_x23_000000ff"  >
<path style="stroke: rgb(0,0,0); stroke-width: 0.0938; stroke-dasharray: none; stroke-linecap: butt; stroke-dashoffset: 0; stroke-linejoin: miter; stroke-miterlimit: 4; fill: rgb(0,0,0); fill-rule: nonzero; opacity: 1;"  transform=" translate(-435.62, -467.54)" d="M 434.98 465.29 c 1.73 0.27 1.74 3.1 1.48 4.49 C 434.98 469.5 434.17 466.57 434.98 465.29 z" stroke-linecap="round" />
</g>
		<g transform="matrix(1 0 0 1 -672.52 26.91)" id="_x23_000000ff"  >
<path style="stroke: rgb(0,0,0); stroke-width: 0.0938; stroke-dasharray: none; stroke-linecap: butt; stroke-dashoffset: 0; stroke-linejoin: miter; stroke-miterlimit: 4; fill: rgb(0,0,0); fill-rule: nonzero; opacity: 1;"  transform=" translate(-287.47, -515.47)" d="M 287.23 515.29 C 287.87 515.78 287.87 515.78 287.23 515.29 z" stroke-linecap="round" />
</g>
		<g transform="matrix(1 0 0 1 -98.11 226.46)" id="_x23_000000ff"  >
<path style="stroke: rgb(0,0,0); stroke-width: 0.0938; stroke-dasharray: none; stroke-linecap: butt; stroke-dashoffset: 0; stroke-linejoin: miter; stroke-miterlimit: 4; fill: rgb(0,0,0); fill-rule: nonzero; opacity: 1;"  transform=" translate(-861.87, -715.03)" d="M 860.23 713.23 c 1.44 -0.06 3.51 2 3.32 3.52 C 861.75 717.29 859.88 714.91 860.23 713.23 z" stroke-linecap="round" />
</g>
		<g transform="matrix(1 0 0 1 97.95 226.59)" id="_x23_000000ff"  >
<path style="stroke: rgb(0,0,0); stroke-width: 0.0938; stroke-dasharray: none; stroke-linecap: butt; stroke-dashoffset: 0; stroke-linejoin: miter; stroke-miterlimit: 4; fill: rgb(0,0,0); fill-rule: nonzero; opacity: 1;"  transform=" translate(-1057.93, -715.16)" d="M 1056.28 716.88 c 0.11 -1.5 1.78 -3.37 3.3099 -3.44 C 1059.4 714.96 1057.86 716.82 1056.28 716.88 z" stroke-linecap="round" />
</g>
</g>
</g>
</svg>