<?xml version="1.0" encoding="UTF-8" standalone="no" ?>
<!DOCTYPE svg PUBLIC "-//W3C//DTD SVG 1.1//EN" "http://www.w3.org/Graphics/SVG/1.1/DTD/svg11.dtd">
<svg xmlns="http://www.w3.org/2000/svg" xmlns:xlink="http://www.w3.org/1999/xlink" version="1.1" width="400" height="400" viewBox="0 0 400 400" xml:space="preserve">
<desc>Created with Fabric.js 3.6.3</desc>
<defs>
</defs>
<rect x="0" y="0" width="100%" height="100%" fill="rgba(255, 255, 255, 1)"></rect>
<g transform="matrix(1 0 0 1 205 240.24)" style=""  >
		<text xml:space="preserve" font-family="'Open Sans', sans-serif" font-size="18" font-style="normal" font-weight="normal" style="stroke: none; stroke-width: 1; stroke-dasharray: none; stroke-linecap: butt; stroke-dashoffset: 0; stroke-linejoin: miter; stroke-miterlimit: 4; fill: rgb(0,0,0); fill-rule: nonzero; opacity: 1; white-space: pre;" ><tspan x="-108.5" y="5.97" style="font-size: 19px; font-weight: bold; ">Your Company Name</tspan></text>
</g>
<g transform="matrix(1 0 0 1 229.48 273.67)" style=""  >
		<text xml:space="preserve" font-family="'Open Sans', sans-serif" font-size="18" font-style="normal" font-weight="normal" style="stroke: none; stroke-width: 1; stroke-dasharray: none; stroke-linecap: butt; stroke-dashoffset: 0; stroke-linejoin: miter; stroke-miterlimit: 4; fill: rgb(0,0,0); fill-rule: nonzero; opacity: 1; white-space: pre;" ><tspan x="-81.99" y="5.65" >slogan here</tspan></text>
</g>
<g transform="matrix(0.17 0 0 0.18 193.75 147.5)"  >
<g style=""   >
		<g transform="matrix(2.44 0 0 2.44 -174.11 177.24)" id="path3824"  >
<path style="stroke: none; stroke-width: 1; stroke-dasharray: none; stroke-linecap: butt; stroke-dashoffset: 0; stroke-linejoin: miter; stroke-miterlimit: 4; fill: rgb(0,0,0); fill-rule: nonzero; opacity: 1;"  transform=" translate(-345.89, -1024.9)" d="m 321.94 922.36 c -9.547 38.795 17.259 86.925 7.0711 114.15 c -20.132 53.794 12.087 99.79 41.416 100.01 c -35.491 -34.428 -7.9356 -90.796 0 -124.75 l 1.5152 -98.49 z" stroke-linecap="round" />
</g>
		<g transform="matrix(2.44 0 0 2.44 122.2 -44.45)" id="path3828"  >
<path style="stroke: none; stroke-width: 1; stroke-dasharray: none; stroke-linecap: butt; stroke-dashoffset: 0; stroke-linejoin: miter; stroke-miterlimit: 4; fill: rgb(0,0,0); fill-rule: nonzero; opacity: 1;"  transform=" translate(-467.15, -934.18)" d="m 405.28 808.21 c 20.239 -30.252 47.973 -48.069 80.307 -36.365 c 43.34 15.687 42.336 72.239 43.437 108.59 c -2.6624 -18.222 -3.9218 -29.045 -12.627 -44.447 c 8.6143 24.187 6.261 35.855 1.0102 60.609 l -10.607 50.003 c -8.7057 41.041 -7.3611 49.715 -10.607 90.409 c -2.6945 33.785 -15.359 44.483 -42.931 63.135 c 3.6902 -130.71 -8.6393 -186.2 -47.982 -291.93 z" stroke-linecap="round" />
</g>
		<g transform="matrix(2.44 0 0 2.44 -22.82 145.45)" id="path3822"  >
<path style="stroke: none; stroke-width: 1; stroke-dasharray: none; stroke-linecap: butt; stroke-dashoffset: 0; stroke-linejoin: miter; stroke-miterlimit: 4; fill: rgb(232,169,157); fill-rule: nonzero; opacity: 1;"  transform=" translate(-407.81, -1011.89)" d="m 362.35 1054.2 c 4.7647 -18.916 -0.60093 -35.762 -4.0406 -54.548 l 98.995 -46.467 c -4.7657 29.766 -5.4626 68.033 -7.0711 98.995 c -28.829 18.444 -62.096 29.138 -87.883 2.0203 z" stroke-linecap="round" />
</g>
		<g transform="matrix(2.44 0 0 2.44 -40.51 -57.9)" id="path3052"  >
<path style="stroke: none; stroke-width: 1; stroke-dasharray: none; stroke-linecap: butt; stroke-dashoffset: 0; stroke-linejoin: miter; stroke-miterlimit: 4; fill: rgb(232,169,157); fill-rule: nonzero; opacity: 1;"  transform=" translate(-400.57, -928.68)" d="m 324.47 860.23 c -6.6905 15.311 -9.444 32.324 -10.607 48.992 c -0.95142 13.641 1.406 27.334 3.0304 40.911 c 2.8508 23.828 9.0632 40.391 23.991 57.831 c 3.883 4.5366 10.75 11.133 14.647 15.657 c 10.882 12.634 12.235 17.024 30.557 16.92 c 8.0477 -0.046 15.95 -3.143 23.234 -6.566 c 8.3262 -3.913 15.823 -9.579 22.728 -15.657 c 8.1442 -7.1684 16.373 -14.802 21.718 -24.244 c 4.7748 -8.4342 8.5863 -27.779 8.5863 -27.779 s 5.0332 2.6238 7.5761 2.0203 c 3.945 -0.93628 6.9582 -4.6331 9.0914 -8.0812 c 6.6054 -10.677 10.271 -24.951 7.5761 -36.365 c -0.71026 -3.0079 -1.6884 -6.9032 -4.5457 -8.0812 c -4.847 -1.9984 -9.6858 0.61095 -13.637 3.5355 c 0 0 3.7876 -34.849 -1.5152 -51.013 c -5.3571 -16.33 -14.561 -33.578 -29.294 -42.426 c -17.58 -10.558 -40.877 -10.385 -61.114 -7.0711 c -12.486 2.0449 -24.668 8.0118 -34.345 16.162 c -7.8594 6.6192 -13.563 15.838 -17.678 25.254 z" stroke-linecap="round" />
</g>
		<g transform="matrix(2.44 0 0 2.44 -188 -44.74)" id="path3852"  >
<path style="stroke: none; stroke-width: 1; stroke-dasharray: none; stroke-linecap: butt; stroke-dashoffset: 0; stroke-linejoin: miter; stroke-miterlimit: 4; fill: rgb(222,132,115); fill-rule: nonzero; opacity: 1;"  transform=" translate(-340.21, -934.06)" d="m 354.05 938.38 s -1.9705 -0.39792 -3.0357 -0.26786 c -4.0182 0.49063 -7.5646 3.7835 -11.607 3.5714 c -9.0109 -0.47263 -13.036 -6.9643 -13.036 -6.9643 c 4.3279 -11.106 18.751 -9.4975 24.821 -4.1964 c 2.0992 1.833 2.8571 7.8571 2.8571 7.8571 z" stroke-linecap="round" />
</g>
		<g transform="matrix(2.44 0 0 2.44 -87.81 109.79)" id="path3830"  >
<path style="stroke: none; stroke-width: 1; stroke-dasharray: none; stroke-linecap: butt; stroke-dashoffset: 0; stroke-linejoin: miter; stroke-miterlimit: 4; fill: rgb(234,0,0); fill-rule: nonzero; opacity: 1;"  transform=" translate(-381.21, -997.3)" d="m 355.63 998.95 c 6.1711 -0.30888 9.8713 -7.5997 14.543 -5.8211 c 3.6411 1.3863 7.7264 -0.13908 11.112 -1.7678 c 8.8127 -4.2399 15.854 -0.0992 25.506 0.94887 c -1.4159 2.2594 -5.4605 5.4211 -7.5328 6.2268 c -14.464 5.6236 -22.291 9.0596 -36.914 4.3798 c -2.5467 -0.815 -6.7139 -3.9666 -6.7139 -3.9666 z" stroke-linecap="round" />
</g>
		<g transform="matrix(2.44 0 0 2.44 -89.15 106.56)" id="path3832"  >
<path style="stroke: none; stroke-width: 1; stroke-dasharray: none; stroke-linecap: butt; stroke-dashoffset: 0; stroke-linejoin: miter; stroke-miterlimit: 4; fill: rgb(160,0,0); fill-rule: nonzero; opacity: 1;"  transform=" translate(-380.66, -995.98)" d="m 358.35 999.14 s 8.1517 0.47391 11.411 -1.2067 c 2.4796 -1.2787 4.7668 -0.3834 7.0278 -0.50837 c 2.2707 -0.1255 4.5148 -1.2693 6.9008 -1.6345 c 4.0667 -0.62249 5.015 0.067 9.1072 -0.35714 c 2.9443 -0.30521 10.179 -2.6786 10.179 -2.6786 c -12.725 4.636 -33.354 6.3478 -44.625 6.3852 z" stroke-linecap="round" />
</g>
		<g transform="matrix(2.44 0 0 2.44 55.35 50.07)" id="path3834"  >
<path style="stroke: none; stroke-width: 1; stroke-dasharray: none; stroke-linecap: butt; stroke-dashoffset: 0; stroke-linejoin: miter; stroke-miterlimit: 4; fill: rgb(227,149,134); fill-rule: nonzero; opacity: 1;"  transform=" translate(-439.79, -972.86)" d="m 469.41 905.75 c -1.8147 1.1352 -3.3727 2.3882 -4.4688 3.7812 c 0.40867 50.449 -9.1586 100.65 -72.125 130 c -0.23344 0.1278 -0.48021 0.2898 -0.71875 0.4376 c 5.959 -1.0509 11.756 -3.4328 17.219 -6 c 8.3262 -3.9131 15.844 -9.5779 22.75 -15.656 c 8.1442 -7.1684 16.374 -14.808 21.719 -24.25 c 4.7748 -8.4342 8.5625 -27.75 8.5625 -27.75 s 5.0508 2.6035 7.5938 2 c 3.945 -0.93628 6.9605 -4.6144 9.0938 -8.0625 c 6.6054 -10.677 10.258 -24.961 7.5625 -36.375 c -0.71026 -3.0079 -1.6739 -6.9157 -4.5312 -8.0938 c -4.847 -1.9984 -9.705 0.60666 -13.656 3.5312 c 0 0 0.61279 -5.7141 1 -13.562 z" stroke-linecap="round" />
</g>
		<g transform="matrix(2.44 0 0 2.44 -16.8 -69.79)" id="path4124"  >
<path style="stroke: none; stroke-width: 1; stroke-dasharray: none; stroke-linecap: butt; stroke-dashoffset: 0; stroke-linejoin: miter; stroke-miterlimit: 4; fill: rgb(222,132,115); fill-rule: nonzero; opacity: 1;"  transform=" translate(-410.27, -923.81)" d="m 391.43 932.01 s 0.91536 -6.7106 3.0357 -9.1071 c 8.7986 -9.9447 18.223 -9.7834 28.214 -3.3929 c 2.1978 1.4058 6.4286 4.4643 6.4286 4.4643 s -5.9285 4.3223 -9.2857 5.7143 c -3.7876 1.5704 -7.8777 2.5231 -11.964 2.8571 c -4.1634 0.3403 -8.3229 -0.93327 -12.5 -0.89285 c -1.3149 0.0127 -3.9286 0.35714 -3.9286 0.35714 z" stroke-linecap="round" />
</g>
		<g transform="matrix(2.44 0 0 2.44 -21.18 -68.55)" id="path4634"  >
<path style="stroke: none; stroke-width: 1; stroke-dasharray: none; stroke-linecap: butt; stroke-dashoffset: 0; stroke-linejoin: miter; stroke-miterlimit: 4; fill: rgb(0,0,0); fill-rule: nonzero; opacity: 1;"  transform=" translate(-408.48, -924.32)" d="m 391.96 930.93 s 2.4304 -6.0848 4.6428 -8.3929 c 6.0539 -6.3156 15.888 -9.0557 28.393 0.35715 c 0 0 -2.6752 -0.48694 -4.1071 0.71428 c 0.47311 1.5783 -1.2065 4.0364 -2.3648 5.1198 c -5.3326 4.9879 -19.79 2.8328 -23.885 1.4873 c -0.92391 0.0166 -2.6786 0.71428 -2.6786 0.71428 z" stroke-linecap="round" />
</g>
		<g transform="matrix(2.44 0 0 2.44 138.93 -32.64)" id="path3836"  >
<path style="stroke: none; stroke-width: 1; stroke-dasharray: none; stroke-linecap: butt; stroke-dashoffset: 0; stroke-linejoin: miter; stroke-miterlimit: 4; fill: rgb(222,132,115); fill-rule: nonzero; opacity: 1;"  transform=" translate(-474, -939.02)" d="m 470.48 944.19 c 0.73859 2.1542 -5.1246 8.3507 -2.3214 6.4286 c 0 0 4.04 -3.0622 6.25 -4.2857 c 1.3061 -0.72304 3.129 -0.65801 4.1071 -1.7857 c 1.618 -1.8654 2.4069 -4.7135 1.9643 -7.1428 c -0.43535 -2.3895 -2.087 -4.861 -4.2857 -5.8929 c -1.6739 -0.78556 -4.0975 1.5193 -5.5357 0.35714 c -1.2637 -1.0211 -0.71429 -4.8214 -0.71429 -4.8214 s -1.944 7.2381 -1.6071 10.893 c 0.20213 2.1931 2.1428 6.25 2.1428 6.25 z" stroke-linecap="round" />
</g>
		<g transform="matrix(2.44 0 0 2.44 -104.44 -3.62)" id="path3838"  >
<path style="stroke: none; stroke-width: 1; stroke-dasharray: none; stroke-linecap: butt; stroke-dashoffset: 0; stroke-linejoin: miter; stroke-miterlimit: 4; fill: rgb(227,149,134); fill-rule: nonzero; opacity: 1;"  transform=" translate(-374.41, -950.89)" d="m 357.44 922.41 c 8.03 27.554 -3.7357 36.603 -0.34375 53.031 c 0 0 -0.67569 -8.0425 0.15625 -10.344 c 4.6667 -12.909 8.2159 -22.999 3.75 -36.438 c -0.75672 -2.277 -3.5625 -6.25 -3.5625 -6.25 z m 30.18 31.97 s -1.9342 1.6253 -1.4375 3.9062 c 0.9656 4.4339 13.649 14.173 -3.375 16.25 c 13.391 -1.0081 9.7629 -7.532 6.4688 -15.094 c -0.80056 -1.8377 -1.0617 -3.0652 -1.6562 -5.0625 z m -17.15 22.12 c -3.8068 1.757 -5.9089 2.5858 -10.156 1.25 c 4.8648 1.9847 6.8683 2.7456 10.156 -1.25 z" stroke-linecap="round" />
</g>
		<g transform="matrix(2.44 0 0 2.44 -110.26 51.89)" id="path3842"  >
<path style="stroke: none; stroke-width: 1; stroke-dasharray: none; stroke-linecap: butt; stroke-dashoffset: 0; stroke-linejoin: miter; stroke-miterlimit: 4; fill: rgb(214,103,82); fill-rule: nonzero; opacity: 1;"  transform=" translate(-372.02, -973.61)" d="m 376.85 971.6 c -2.5095 4.1132 3.2991 1.1172 5.4024 0.99365 c -1.9138 -0.62995 -4.3969 -2.6418 -5.4024 -0.99365 z m -14.902 2.4738 c -0.56012 0.53436 0.35752 3.6024 4.0549 1.3636 c 0.63401 -2.1135 -2.4512 -2.0852 -4.0549 -1.3636 z" stroke-linecap="round" />
</g>
		<g transform="matrix(2.44 0 0 2.44 -192.38 -95.78)" id="path3848"  >
<path style="stroke: none; stroke-width: 1; stroke-dasharray: none; stroke-linecap: butt; stroke-dashoffset: 0; stroke-linejoin: miter; stroke-miterlimit: 4; fill: rgb(0,0,0); fill-rule: nonzero; opacity: 1;"  transform=" translate(-338.42, -913.18)" d="m 318.69 916.69 s 3.064 -5.4404 5.7143 -5.5357 c 12.517 -0.44998 22.196 7.2183 34.643 7.5 c -7.3972 -4.6131 -30.011 -12.901 -36.071 -10.536 c -2.6067 1.0174 -4.8462 3.8287 -5.1786 6.6072 c -0.0854 0.71413 0.89286 1.9643 0.89286 1.9643 z" stroke-linecap="round" />
</g>
		<g transform="matrix(2.44 0 0 2.44 -33.97 -112.47)" id="path3850"  >
<path style="stroke: none; stroke-width: 1; stroke-dasharray: none; stroke-linecap: butt; stroke-dashoffset: 0; stroke-linejoin: miter; stroke-miterlimit: 4; fill: rgb(0,0,0); fill-rule: nonzero; opacity: 1;"  transform=" translate(-403.25, -906.35)" d="m 381.37 915.26 c 3.7833 -15.088 31.53 -20.924 43.75 -16.25 c -11.874 -0.15527 -32.383 2.9307 -43.75 16.25 z" stroke-linecap="round" />
</g>
		<g transform="matrix(2.44 0 0 2.44 -186.62 -43.02)" id="path3858"  >
<path style="stroke: none; stroke-width: 1; stroke-dasharray: none; stroke-linecap: butt; stroke-dashoffset: 0; stroke-linejoin: miter; stroke-miterlimit: 4; fill: rgb(0,0,0); fill-rule: nonzero; opacity: 1;"  transform=" translate(-340.78, -934.77)" d="m 341.19 927.84 c -5.3675 -0.0489 -9.7852 2.3426 -13.562 6.25 c -0.71428 0.625 1.4764 0.80629 2.125 1.3438 c 1.2163 1.0079 3.2188 3.4688 3.2188 3.4688 c 0.76987 0.83402 1.5035 1.5145 2.2188 2.0625 c 1.2609 0.37446 2.6671 0.63736 4.2188 0.71875 c 4.0425 0.21203 7.5755 -3.0719 11.594 -3.5625 c 1.0652 -0.13006 3.0625 0.25 3.0625 0.25 s -0.77584 -6.0107 -2.875 -7.8438 c -0.7266 -0.63448 -1.5657 -1.2368 -2.5 -1.75 c -2.0948 -0.61949 -4.5844 -0.91092 -7.5 -0.9375 z" stroke-linecap="round" />
</g>
		<g transform="matrix(2.44 0 0 2.44 -183.87 -42.94)" id="path3860"  >
<path style="stroke: none; stroke-width: 1; stroke-dasharray: none; stroke-linecap: butt; stroke-dashoffset: 0; stroke-linejoin: miter; stroke-miterlimit: 4; fill: rgb(227,228,231); fill-rule: nonzero; opacity: 1;"  transform=" translate(-341.9, -934.8)" d="m 330.74 934.19 c 4.6142 -6.182 19.753 -7.6467 21.964 0.89286 c 0.23147 0.49758 0.35714 1.6071 0.35714 1.6071 s -1.8244 0.0713 -2.6786 0.35714 c -1.7819 0.59625 -3.0949 2.2846 -4.9107 2.7679 c -6.2159 1.6542 -10.956 0.44255 -14.732 -5.625 z" stroke-linecap="round" />
</g>
		<g transform="matrix(2.44 0 0 2.44 -172.06 -43.76)" id="path3866"  >
<path style="stroke: none; stroke-width: 1; stroke-dasharray: none; stroke-linecap: butt; stroke-dashoffset: 0; stroke-linejoin: miter; stroke-miterlimit: 4; fill: rgb(128,0,0); fill-rule: nonzero; opacity: 1;"  transform=" translate(-346.73, -934.46)" d="m 342.5 929.12 c -1.1906 1.1412 -1.9375 2.714 -1.9375 4.5 c 0 2.9824 2.0694 5.4805 4.8438 6.1562 c 0.0226 0.008 0.0401 0.0235 0.0625 0.0312 c 0.01 0.003 0.0215 -0.003 0.0312 0 c 1.8012 -0.49313 3.1024 -2.1881 4.875 -2.7812 c 0.58263 -0.19496 1.4327 -0.2717 2.0312 -0.3125 c 0.02 -0.0237 0.0423 -0.0388 0.0625 -0.0625 c 0.16345 -0.30088 0.3212 -0.60797 0.4375 -0.9375 c -0.0533 -0.2416 -0.10924 -0.45677 -0.1875 -0.625 c -0.41607 -1.6071 -1.2908 -2.8781 -2.4688 -3.8125 c -0.007 -0.005 -0.0246 0.005 -0.0312 0 c -0.19112 -0.15067 -0.35628 -0.30338 -0.5625 -0.4375 c -0.008 -0.005 -0.0237 0.005 -0.0312 0 c -0.42028 -0.27149 -0.86961 -0.51375 -1.3438 -0.71875 c -0.009 -0.004 -0.0222 0.004 -0.0312 0 c -0.24192 -0.10378 -0.49637 -0.19421 -0.75 -0.28125 c -0.50727 -0.17407 -1.0485 -0.32845 -1.5938 -0.4375 c -0.5149 -0.10298 -1.024 -0.17149 -1.5625 -0.21875 c -0.0308 -0.003 -0.0629 0.003 -0.0937 0 c -0.57132 -0.0466 -1.1644 -0.0756 -1.75 -0.0625 z" stroke-linecap="round" />
</g>
		<g transform="matrix(2.44 0 0 2.44 -24.45 -66.47)" id="path4636"  >
<path style="stroke: none; stroke-width: 1; stroke-dasharray: none; stroke-linecap: butt; stroke-dashoffset: 0; stroke-linejoin: miter; stroke-miterlimit: 4; fill: rgb(227,228,231); fill-rule: nonzero; opacity: 1;"  transform=" translate(-407.14, -925.17)" d="m 394.73 928.79 c 3.2752 -7.6992 13.799 -14.207 24.821 -5 c -4.5688 11.218 -21.693 6.5258 -24.821 5 z" stroke-linecap="round" />
</g>
		<g transform="matrix(0.69 0 0 0.69 -171.66 -45.76)" id="path3868"  >
<path style="stroke: none; stroke-width: 1; stroke-dasharray: none; stroke-linecap: butt; stroke-dashoffset: 0; stroke-linejoin: miter; stroke-miterlimit: 4; fill: rgb(0,0,0); fill-rule: nonzero; opacity: 1;"  transform=" translate(-174.46, -334.33)" d="m 180.8 334.33 c 0 3.5011 -2.8382 6.3393 -6.3393 6.3393 s -6.3393 -2.8382 -6.3393 -6.3393 s 2.8382 -6.3393 6.3393 -6.3393 s 6.3393 2.8382 6.3393 6.3393 z" stroke-linecap="round" />
</g>
		<g transform="matrix(1 0.29 -0.15 0.51 -174.73 -47.63)" id="path3870"  >
<path style="stroke: none; stroke-width: 1; stroke-dasharray: none; stroke-linecap: butt; stroke-dashoffset: 0; stroke-linejoin: miter; stroke-miterlimit: 4; fill: rgb(153,153,153); fill-rule: nonzero; opacity: 1;"  transform=" translate(-174.46, -334.33)" d="m 180.8 334.33 c 0 3.5011 -2.8382 6.3393 -6.3393 6.3393 s -6.3393 -2.8382 -6.3393 -6.3393 s 2.8382 -6.3393 6.3393 -6.3393 s 6.3393 2.8382 6.3393 6.3393 z" stroke-linecap="round" />
</g>
		<g transform="matrix(2.44 0 0 2.44 -24.37 -66.49)" id="path3874"  >
<path style="stroke: none; stroke-width: 1; stroke-dasharray: none; stroke-linecap: butt; stroke-dashoffset: 0; stroke-linejoin: miter; stroke-miterlimit: 4; fill: rgb(128,0,0); fill-rule: nonzero; opacity: 1;"  transform=" translate(-407.17, -925.16)" d="m 407.72 919.28 c -1.5056 0.0833 -2.9469 0.44489 -4.2812 0.96875 c -0.007 0.005 -0.0247 -0.005 -0.0312 0 c -1.5576 1.1556 -2.5625 2.9997 -2.5625 5.0938 c 0 2.433 1.3716 4.561 3.375 5.625 c 2.0625 0.15934 4.2434 0.14721 6.3125 -0.25 c 0.008 -0.005 0.0237 0.005 0.0312 0 c 1.7721 -1.1256 2.9375 -3.1221 2.9375 -5.375 c 0 -2.8345 -1.8701 -5.2502 -4.4375 -6.0625 c -0.0104 -0.00045 -0.0209 0.00043 -0.0312 0 c -0.44584 -0.0185 -0.8782 -0.024 -1.3125 0 z" stroke-linecap="round" />
</g>
		<g transform="matrix(0.69 0 0 0.69 -24.15 -65.38)" id="path3876"  >
<path style="stroke: none; stroke-width: 1; stroke-dasharray: none; stroke-linecap: butt; stroke-dashoffset: 0; stroke-linejoin: miter; stroke-miterlimit: 4; fill: rgb(0,0,0); fill-rule: nonzero; opacity: 1;"  transform=" translate(-174.46, -334.33)" d="m 180.8 334.33 c 0 3.5011 -2.8382 6.3393 -6.3393 6.3393 s -6.3393 -2.8382 -6.3393 -6.3393 s 2.8382 -6.3393 6.3393 -6.3393 s 6.3393 2.8382 6.3393 6.3393 z" stroke-linecap="round" />
</g>
		<g transform="matrix(1.2 0.14 -0.08 0.53 -26.17 -67.27)" id="path3878"  >
<path style="stroke: none; stroke-width: 1; stroke-dasharray: none; stroke-linecap: butt; stroke-dashoffset: 0; stroke-linejoin: miter; stroke-miterlimit: 4; fill: rgb(153,153,153); fill-rule: nonzero; opacity: 1;"  transform=" translate(-174.46, -334.33)" d="m 180.8 334.33 c 0 3.5011 -2.8382 6.3393 -6.3393 6.3393 s -6.3393 -2.8382 -6.3393 -6.3393 s 2.8382 -6.3393 6.3393 -6.3393 s 6.3393 2.8382 6.3393 6.3393 z" stroke-linecap="round" />
</g>
		<g transform="matrix(2.44 0 0 2.44 -57.17 -158.56)" id="path3826"  >
<path style="stroke: none; stroke-width: 1; stroke-dasharray: none; stroke-linecap: butt; stroke-dashoffset: 0; stroke-linejoin: miter; stroke-miterlimit: 4; fill: rgb(0,0,0); fill-rule: nonzero; opacity: 1;"  transform=" translate(-393.75, -887.48)" d="m 406.8 804.67 c -43.67 0.52775 -69.425 9.4774 -91.924 47.982 c -17.613 30.144 -5.7661 53.89 -5.0508 75.761 c 0.4534 13.864 0.50508 36.365 0.50508 36.365 c 7.9544 -18.649 5.8355 -38.023 9.5964 -57.579 c 3.9079 -20.32 5.5372 -30.791 19.698 -44.952 c 3.7156 28.932 4.5447 44.879 12.122 70.711 l -1.5152 -46.467 l 5.5558 34.345 l -1.0102 -31.315 l 9.0914 34.85 l -3.0305 -42.931 l 9.0914 36.365 l -1.5152 -40.406 l 13.637 43.942 l 1.0102 -25.254 l 8.0812 24.244 v -30.81 l 8.0812 27.779 l -2.5254 -36.365 l 9.5964 37.376 l 1.0102 -29.294 l 6.566 29.8 l 1.5152 -23.234 l 9.0914 31.315 v -16.162 c 16.638 17.988 20.881 36.883 29.294 59.599 c -4.4073 -25.027 -11.56 -48.899 -20.203 -72.731 c 12.271 21.42 16.619 38.246 21.718 61.619 c -2.0223 -20.824 -6.3056 -41.19 -10.607 -61.619 c 6.9698 17.968 9.8795 36.694 13.132 55.558 c 0.92511 -17.987 -2.0612 -35.055 -5.5558 -52.528 c 4.1678 16.014 10.187 31.059 17.173 45.962 c 0 0 -3.2759 -17.238 -2.0203 -25.759 c 1.8962 -12.867 12.604 -23.81 14.142 -36.365 c 1.5543 -12.688 0.76815 -23.741 -5.5558 -34.85 c -9.8971 -17.386 -25.414 -32.733 -43.437 -41.416 c -7.8078 -3.7619 -17.093 -3.6403 -25.759 -3.5355 z" stroke-linecap="round" />
</g>
		<g transform="matrix(2.44 0 0 2.44 -93.17 116.79)" id="path4652"  >
<path style="stroke: none; stroke-width: 1; stroke-dasharray: none; stroke-linecap: butt; stroke-dashoffset: 0; stroke-linejoin: miter; stroke-miterlimit: 4; fill: rgb(255,167,167); fill-rule: nonzero; opacity: 1;"  transform=" translate(-379.02, -1000.16)" d="m 366.07 1001.1 c 7.4732 0.1749 18.606 -1.8211 25.893 -3.2142 c -10.432 4.9907 -15.426 5.5843 -25.893 3.2142 z" stroke-linecap="round" />
</g>
</g>
</g>
</svg>