<?xml version="1.0" encoding="UTF-8" standalone="no" ?>
<!DOCTYPE svg PUBLIC "-//W3C//DTD SVG 1.1//EN" "http://www.w3.org/Graphics/SVG/1.1/DTD/svg11.dtd">
<svg xmlns="http://www.w3.org/2000/svg" xmlns:xlink="http://www.w3.org/1999/xlink" version="1.1" width="400" height="400" viewBox="0 0 400 400" xml:space="preserve">
<desc>Created with Fabric.js 3.6.3</desc>
<defs>
</defs>
<rect x="0" y="0" width="100%" height="100%" fill="rgba(255, 255, 255, 1)"></rect>
<g transform="matrix(1 0 0 1 205 240.24)" style=""  >
		<text xml:space="preserve" font-family="'Open Sans', sans-serif" font-size="18" font-style="normal" font-weight="normal" style="stroke: none; stroke-width: 1; stroke-dasharray: none; stroke-linecap: butt; stroke-dashoffset: 0; stroke-linejoin: miter; stroke-miterlimit: 4; fill: rgb(0,0,0); fill-rule: nonzero; opacity: 1; white-space: pre;" ><tspan x="-108.5" y="5.97" style="font-size: 19px; font-weight: bold; ">Your Company Name</tspan></text>
</g>
<g transform="matrix(1 0 0 1 229.48 273.67)" style=""  >
		<text xml:space="preserve" font-family="'Open Sans', sans-serif" font-size="18" font-style="normal" font-weight="normal" style="stroke: none; stroke-width: 1; stroke-dasharray: none; stroke-linecap: butt; stroke-dashoffset: 0; stroke-linejoin: miter; stroke-miterlimit: 4; fill: rgb(0,0,0); fill-rule: nonzero; opacity: 1; white-space: pre;" ><tspan x="-81.99" y="5.65" >slogan here</tspan></text>
</g>
<g transform="matrix(0.2 0 0 0.2 198.72 174.07)"  >
<g style=""   >
		<g transform="matrix(1.16 -0.67 0.67 1.16 -12.8 84.77)" id="rect4236"  >
<path style="stroke: none; stroke-width: 1; stroke-dasharray: none; stroke-linecap: butt; stroke-dashoffset: 0; stroke-linejoin: miter; stroke-miterlimit: 4; fill: rgb(254,175,113); fill-rule: nonzero; opacity: 1;"  transform=" translate(-1458.98, -202.24)" d="m 1529.4 2.4844 c -1.3175 0.00586 -2.6353 0.027188 -3.9531 0.065625 c -19.01 0.51 -38.099 6.1903 -53.659 17.27 c -8.87 6.33 -17.511 13.07 -25.091 20.92 c -11.32 11.1 -22.52 22.74 -30.23 36.73 c -1.03 1.88 -2.8103 4.21 -5.2703 3.4 c -4 -1.39 -7.4291 -4.0206 -11.139 -5.9906 c -5.1 -3.11 -10.7 -5.2303 -15.95 -8.0203 c -27.99 -13.26 -58.341 -21.529 -89.231 -23.839 c -11.73 0.09 -23.52 -0.67 -35.2 0.65 c -11.11 1.81 -22.149 5.2597 -31.659 11.38 c -6.22 4.64 -13.069 9.0594 -17.109 15.909 c -4.76 6.92 -8.15 14.83 -9 23.25 c -0.07 7.27 -0.2909 14.651 0.9391 21.861 c 2.6 8.67 6.1606 17.18 11.541 24.52 c 3.48 4.48 6.9994 8.9488 10.909 13.069 c 11.93 11.51 24.94 21.791 37.87 32.141 c 11.01 9.76 22.93 18.41 34.38 27.63 c 14.29 11.2 31.37 17.711 48.32 23.691 c 15.93 5.72 33.01 7.2097 48.88 13.08 c 12.78 5.29 22.601 15.429 33.811 23.209 c 23.86 19.68 45.689 41.641 68.389 62.611 c 13.07 11.4 25.94 23.239 41.05 31.939 c 24.26 13.89 51.131 22.541 78.261 28.791 c 15.25 2.71 30.77 7.6403 46.3 3.9203 c 18.95 -3.55 36.599 -14.921 46.369 -31.711 c 4.28 -7.6 7.4809 -16.169 7.1609 -25.009 c -0.17 -6.14 0.3994 -12.54 -1.6906 -18.43 c -1.38 -4.17 -2.7391 -8.3703 -4.5391 -12.37 c -6.78 -12.49 -15.141 -24.02 -23.731 -35.3 c -8.99 -12.88 -20.479 -24.79 -35.319 -30.7 c -2.84 -1.29 -6.2103 -2.1494 -7.7203 -5.2594 c -2.15 -2.56 -4.3209 -5.11 -6.1609 -7.9 c 1.64 -2.63 4.1312 -4.5609 6.2812 -6.7609 c 5.32 -5.04 10.079 -10.64 14.589 -16.4 c 12.94 -18.93 23.151 -39.87 28.941 -62.1 c 1.72 -7.4 1.2491 -15.05 1.2891 -22.57 c -0.36 -7.8 -0.8391 -15.69 -2.9391 -23.25 c -1.5 -7.06 -5.1809 -13.319 -8.2609 -19.769 c -8.4 -15.544 -21.3 -28.035 -34.8 -39.095 c -31.2 -26.35 -71.7 -41.747 -112.6 -41.566 z" stroke-linecap="round" />
</g>
		<g transform="matrix(1.16 -0.67 0.67 1.16 -12.8 84.77)" id="path4"  >
<path style="stroke: none; stroke-width: 1; stroke-dasharray: none; stroke-linecap: butt; stroke-dashoffset: 0; stroke-linejoin: miter; stroke-miterlimit: 4; fill: rgb(2,2,2); fill-rule: nonzero; opacity: 1;"  transform=" translate(-1458.98, -202.24)" d="m 1529.4 2.4844 c -1.3175 0.00586 -2.6353 0.027188 -3.9531 0.065625 c -19.01 0.51 -38.099 6.1903 -53.659 17.27 c -8.87 6.33 -17.511 13.07 -25.091 20.92 c -11.32 11.1 -22.52 22.74 -30.23 36.73 c -1.03 1.88 -2.8103 4.21 -5.2703 3.4 c -4 -1.39 -7.4291 -4.0206 -11.139 -5.9906 c -5.1 -3.11 -10.7 -5.2303 -15.95 -8.0203 c -27.99 -13.26 -58.341 -21.529 -89.231 -23.839 c -11.73 0.09 -23.52 -0.67 -35.2 0.65 c -11.11 1.81 -22.149 5.2597 -31.659 11.38 c -6.22 4.64 -13.069 9.0594 -17.109 15.909 c -4.76 6.92 -8.15 14.83 -9 23.25 c -0.07 7.27 -0.2909 14.651 0.9391 21.861 c 2.6 8.67 6.1606 17.18 11.541 24.52 c 3.48 4.48 6.9994 8.9488 10.909 13.069 c 11.93 11.51 24.94 21.791 37.87 32.141 c 11.01 9.76 22.93 18.41 34.38 27.63 c 14.29 11.2 31.37 17.711 48.32 23.691 c 15.93 5.72 33.01 7.2097 48.88 13.08 c 12.78 5.29 22.601 15.429 33.811 23.209 c 23.86 19.68 45.689 41.641 68.389 62.611 c 13.07 11.4 25.94 23.239 41.05 31.939 c 24.26 13.89 51.131 22.541 78.261 28.791 c 15.25 2.71 30.77 7.6403 46.3 3.9203 c 18.95 -3.55 36.599 -14.921 46.369 -31.711 c 4.28 -7.6 7.4809 -16.169 7.1609 -25.009 c -0.17 -6.14 0.3994 -12.54 -1.6906 -18.43 c -1.38 -4.17 -2.7391 -8.3703 -4.5391 -12.37 c -6.78 -12.49 -15.141 -24.02 -23.731 -35.3 c -8.99 -12.88 -20.479 -24.79 -35.319 -30.7 c -2.84 -1.29 -6.2103 -2.1494 -7.7203 -5.2594 c -2.15 -2.56 -4.3209 -5.11 -6.1609 -7.9 c 1.64 -2.63 4.1312 -4.5609 6.2812 -6.7609 c 5.32 -5.04 10.079 -10.64 14.589 -16.4 c 12.94 -18.93 23.151 -39.87 28.941 -62.1 c 1.72 -7.4 1.2491 -15.05 1.2891 -22.57 c -0.36 -7.8 -0.8391 -15.69 -2.9391 -23.25 c -1.5 -7.06 -5.1809 -13.319 -8.2609 -19.769 c -8.4 -15.544 -21.3 -28.035 -34.8 -39.095 c -31.2 -26.35 -71.7 -41.747 -112.6 -41.566 z m 5.5328 9.4203 c 5.6618 -0.01465 11.328 0.07844 16.975 0.08594 l -0.011 0.95938 c 5.78 -0.58 11.27 1.3794 16.87 2.3594 c 11.18 1.65 21.39 6.8303 31.67 11.22 c 5.41 2.36 10.48 5.3906 15.43 8.5906 c 7.54 4.19 14.84 8.92 21.22 14.75 c 3.53 3.21 7.5397 5.7903 11.33 8.6703 c 5.33 4.67 10.171 9.8797 14.641 15.38 c 2.79 3.92 5.0988 8.1597 7.9688 12.03 c 2.25 2.85 2.7203 6.5906 4.0203 9.8906 c 1.57 4.58 4.5006 8.7094 4.5406 13.759 c 0.48 13.96 1.3097 28.12 -0.9703 41.98 c -1.16 4.56 -3.41 8.7709 -4.8 13.261 c -2.95 7.4 -6.7694 14.419 -10.759 21.289 c -1.58 2.57 -1.79 5.7997 -3.8 8.1297 c -4.98 5.88 -8.4403 12.83 -13.02 19 c -2.96 3.7 -5.8909 7.4112 -9.0609 10.931 c -2.49 2.94 -5.8994 4.8088 -8.8094 7.2688 c -1.34 0.95 -2.5903 2.12 -4.2203 2.5 c -2.42 -1.52 -4.3091 -4.5291 -7.3391 -4.6391 c 0.33 3.25 1.3497 6.7297 0.6297 9.9297 c -6.57 4.82 -16.05 6.5706 -20.27 14.241 c 0.15 0.36 0.4406 1.0994 0.5906 1.4594 c 3.72 0.46 7.8197 0.32969 10.98 -1.9703 c 3.3 -1.7 6.0891 -4.6903 9.9391 -5.1203 c -1.48 7.12 -5.5794 13.31 -9.6594 19.2 c -10.02 13 -23.16 23.731 -30.52 38.661 l -0.8 0.0297 c -0.39 3.02 -1.8897 5.9203 -1.5297 9.0203 c 0.6 0.03 1.7803 0.0894 2.3703 0.10938 c 2.48 -2.33 4.2394 -5.32 6.6094 -7.75 c 4.01 -5.63 9.8209 -9.48 14.861 -14.1 c 7.68 -6.47 14.519 -14.09 19.139 -23.07 c 0.36 0.13 1.0797 0.38093 1.4297 0.51093 c 4.8 15.36 7.98 31.32 8.45 47.45 c 0.05 2.37 -0.4597 4.7291 -1.2797 6.9391 l -0.8391 0.15 c -0.17 4.05 -3.6809 7.5703 -2.7609 11.72 c 1.3 0.19 2.79 0.51 3.6 -0.85 c 2.84 -3.89 2.9403 -9.31 6.2203 -12.9 c 1.99 -7.21 5.8903 -13.72 8.0703 -20.87 c 0.61 -1.44 0.7391 -3.2291 1.9891 -4.2891 c -0.25 -2.23 0.8703 -4.2906 1.2703 -6.4406 c 3.62 -11.16 2.2897 -23.039 2.8797 -34.539 c -0.06 -0.66 -0.1791 -1.9712 -0.2391 -2.6312 c 2.66 -0.34 4.5497 1.9609 6.4797 3.4109 c 4.42 3.54 8.0994 7.8597 12.159 11.78 c 3.72 3.09 5.1509 8.0097 8.7109 11.28 c 6.33 6.75 11.53 14.431 17.43 21.561 c 3.16 3.76 5.61 8.0788 7.35 12.669 c 2.66 6.92 6.1 13.84 5.85 21.47 c 0.01 6.43 0.8197 13.021 -0.8203 19.341 c -3.05 8.01 -7.8791 15.39 -14.339 21.07 c -6.15 6.06 -14.17 9.7 -22.1 12.85 c -3.9 1.2 -7.8203 2.6194 -11.97 2.3094 c -9.65 0.27 -19.451 0.42969 -28.911 -1.7703 c -10.46 -2.68 -20.93 -5.4203 -31.55 -7.4203 c -6.66 -1.37 -12.949 -4.18 -19.659 -5.35 c -4.11 -0.72 -7.68 -2.9897 -11.45 -4.6297 c -5.17 -2.4 -10.79 -4.0394 -15.32 -7.6094 c -3.65 -2.92 -8.5303 -3.8006 -11.87 -7.1406 c -4.27 -4.17 -9.6691 -6.9097 -14.189 -10.78 c -3.26 -2.41 -5.3609 -6.0203 -8.6609 -8.3703 c -5.76 -4.15 -11.57 -8.35 -16.15 -13.85 c -6.63 -7.73 -15.65 -12.99 -21.9 -21.08 c -2.63 -3.41 -6.3891 -5.6294 -9.6391 -8.3594 c -3.19 -3.49 -6.7097 -6.6603 -10.38 -9.6203 c -4.56 -3.73 -7.88 -8.8597 -12.9 -12.03 c -1.55 -1.27 -3.4703 -2.3406 -4.3203 -4.2406 l -0.7703 -0.0203 c -6.54 -4.65 -12.76 -9.7194 -19.12 -14.609 c -8.87 -5.6 -18.619 -9.6 -28.109 -14 c -2.34 -0.31 -4.6897 -2.3003 -7.0297 -1.4703 c -3.32 -2.45 -7.6609 -2.4903 -11.411 -4.0203 c -5.15 -0.87 -9.95 -3.0803 -15.1 -3.9203 c -5.72 -0.4 -11.08 -2.4591 -16.28 -4.6891 c -7.98 -2.58 -14.889 -7.4803 -22.859 -10.07 c -14.64 -8.21 -28.31 -18.089 -41.05 -29.009 c -4.86 -3.41 -9.93 -6.6112 -14.15 -10.831 c -9.26 -8.43 -19.46 -15.8 -28.22 -24.78 c -7.8 -7.89 -16.111 -15.579 -21.761 -25.239 c -5.76 -10.26 -5.1088 -22.451 -5.0188 -33.811 c -0.63 -4.15 1.0088 -7.9897 2.9688 -11.48 c 2.45 -4.36 4.7506 -8.9306 8.2406 -12.591 c 5.32 -4.56 11.109 -8.8194 17.759 -11.209 c 4.22 -1.51 8.2212 -3.9097 12.731 -4.3797 c 1.9 -1.46 5.8497 0.70937 7.4797 -1.4906 c 2.65 0.21 4.9197 -1.4994 7.5297 -1.6594 c 11.43 -0.81 22.891 -0.35 34.341 -0.45 c 9.84 -0.04 19.74 1.0191 29.18 3.8891 c 4.68 1.42 9.6597 1.84 14.18 3.75 c 6.39 3.02 13.451 4.2206 19.891 7.1406 c 13.33 5.95 26.82 11.599 39.93 18.059 c 3.27 1.37 7.06 2.0609 9.7 4.5609 c 1.14 3.12 0.6 6.69 2.15 9.7 l 1.5594 -0.44062 c 1.85 -4.01 2.38 -8.6194 4.9 -12.309 h 0.7906 c 3.5 -11.72 13.4 -19.78 21.9 -28.02 c 5.54 -5.15 9.7103 -11.62 15.67 -16.33 c 9.65 -7.57 19.409 -15.301 30.739 -20.241 c 5.24 -2.26 10.461 -4.7597 16.061 -5.9797 c 9.3313 -1.5 18.759 -1.8209 28.195 -1.8453 z m 0.6563 8.1594 c -1.0933 -0.0097 -2.1741 0.14406 -3.2016 0.54531 c -1.29 8.45 2.2103 17 8.0203 23.05 c 3.86 4.1 7.6397 8.3012 11.73 12.181 c 8.25 6.89 17.02 13.159 26.13 18.859 c 17.91 10.4 37.14 18.31 56.77 24.8 c 1.93 0.89 3.9403 1.6203 5.9203 2.4203 c 8.6 3.57 17.629 5.9591 26.519 8.6391 c 3.03 0.2 6.1403 0.63 9.2203 0.55 c 0.35 -1.92 -0.3803 -4.29 -2.6203 -4.5 c -4.04 -0.57 -8.32 0.55124 -12.15 -1.3188 c -9.67 -3.49 -19.52 -6.4509 -29.15 -10.061 c -1.66 -0.66 -3.3097 -1.34 -4.9297 -2.05 c -20.44 -7.18 -40.509 -16.07 -57.909 -29.15 c -10.27 -7.92 -20.97 -15.67 -29 -25.98 c -2.55 -4.24 -5.7497 -8.7194 -5.4797 -13.909 c 1.26 -0.13 3.7791 -0.38 5.0391 -0.5 c 0.11 -0.64 0.3503 -1.9012 0.4703 -2.5312 c -1.7 -0.55625 -3.5561 -1.0291 -5.3781 -1.0453 z m -126.48 74.016 c -3.83 2.03 -6.9009 5.2609 -9.1109 8.9609 c 2.34 7.36 5.0209 14.919 9.9609 20.989 c 4.37 5.35 7.4 11.72 12.45 16.52 c 3.17 3.16 6.4397 6.2203 9.6797 9.3203 c 2.96 2.36 6.13 4.47 8.65 7.35 c 8.49 9.1 18.499 16.74 29.359 22.78 c 3.43 1.59 7.31 3.5703 11.2 2.5203 c 0.2 -0.54 0.6 -1.6297 0.8 -2.1797 c -4.24 -3.81 -9.5191 -6.08 -14.139 -9.35 c -7.42 -4.73 -14.45 -10.081 -20.82 -16.161 c -12.89 -12.11 -26.781 -23.829 -35.541 -39.459 c -2.01 -3.84 -4.23 -7.7209 -4.9 -12.061 c 1.91 0.6 3.1297 2.2303 4.2797 3.7703 c 5.86 8.33 12.24 16.29 19 23.9 c 10.97 11.47 23.18 21.741 36.2 30.811 c 2.83 1.64 5.5212 3.7694 8.7312 4.6594 c 0 -0.55 -0.021 -1.6406 -0.031 -2.1906 c -5.41 -5.72 -11.709 -10.479 -18.159 -14.969 c -1.95 -1.41 -3.9003 -2.8309 -5.8703 -4.2109 c -6.25 -2.56 -11.179 -7.3991 -15.789 -12.189 c -3.64 -4.07 -7.17 -8.2603 -10.1 -12.87 c -3.38 -5.27 -7.5503 -9.9709 -10.97 -15.211 c -2.76 -2.89 -2.7809 -6.9491 -4.2109 -10.439 l -0.6688 -0.29062 z m 138.45 64.85 c -4.25 0.2 -9.1706 -0.47938 -12.541 2.8906 c -6.31 4.93 -10.219 12.439 -12.259 20.089 c -1.65 5.72 -1.2603 11.7 -1.9703 17.55 c -0.36 0.18 -1.0697 0.54031 -1.4297 0.72031 c -2.63 -2.22 -4.8206 -4.91 -6.4906 -7.9 c -2.92 -2.18 -5.9594 -4.1894 -9.0094 -6.1594 c -6.99 -3.38 -16.021 -5.0203 -22.711 -0.17031 c -1.51 1.94 -2.3103 4.3103 -3.0703 6.6203 c -0.06 4.12 -0.3488 8.5797 1.8812 12.28 c 2.35 5.41 7.0391 9.2794 9.8891 14.359 c 0.46 1.4 -0.6591 2.48 -1.9391 2.75 c -6.98 2.31 -15.37 3.8909 -19.87 10.311 c -2.71 3.5 -2.0506 8.3203 -1.6906 12.42 c 1.97 2.88 4.18 6.14 7.65 7.35 c 8.06 3.48 17.03 2.6691 25.6 2.9891 c 0.13 0.66 0.3903 1.9697 0.5203 2.6297 c -0.43 0.11 -1.2903 0.32031 -1.7203 0.42031 c -1.79 5.23 -5.5694 10 -4.5594 15.87 c -0.07 5.18 -0.8397 12.51 4.9703 15.07 c 3.67 0.27 7.4297 -0.11062 11.03 -0.94062 c 7.21 -1.97 12.549 -7.7497 17.339 -13.18 c 1.18 -2.4 2.3112 -4.9097 4.2312 -6.8297 c 1.09 -0.08 2.18 -0.0109 3.25 0.23907 c 0.84 3.91 1.3394 7.8803 2.0594 11.82 c 0.97 5.3 4.45 9.6197 7.15 14.13 c 4.09 1.9 8.8303 1.8612 13.22 1.2312 c 1.81 -0.3 3.7903 -1.0803 4.4203 -2.9703 c 1.74 -3.81 3.6594 -7.6197 4.5594 -11.73 c 0.27 -6.36 -1.4706 -12.55 -1.8406 -18.85 c 7.29 -0.48 14.801 0.69969 21.911 -1.4203 c 3.64 -1.54 5.5791 -5.32 8.1391 -8.1 c -0.6 -4.5 -0.2594 -9.5206 -3.4594 -13.141 c -4.69 -7.66 -14.609 -7.26 -22.109 -9.85 c -0.21 -0.32 -0.6503 -0.96907 -0.8703 -1.2891 c 4.26 -2.84 8.8903 -5.0703 12.92 -8.2703 c 3.96 -2.73 7.11 -6.39 10.35 -9.9 c 0.87 -3.65 1.6188 -7.38 1.3188 -11.15 c -0.29 -2.77 -2.0197 -5.3597 -4.5297 -6.5797 c -6.44 -0.49 -13.44 -1.0909 -19.2 2.4391 c -4.7 1.84 -8.6694 5.3297 -13.659 6.4297 c 0.44 -7.66 1.2694 -15.31 1.0594 -23 c -0.48 -4.09 0.4809 -8.6597 -1.5891 -12.43 c -1.58 -2.93 -4.53 -4.62 -6.95 -6.75 z m -1.9312 4.9031 c 3.1189 -0.0134 5.84 3.3187 5.4906 6.4469 c 1.63 9.14 1.1906 18.6 -0.059 27.78 c -0.45 5.01 -3.37 9.3103 -5.2 13.87 c -1.53 4.13 -4.2912 7.62 -6.8312 11.15 c -1.12 1.36 -2.7694 3.1606 -4.7094 2.6406 c -2.18 -2.6 -4.2403 -5.2909 -6.3203 -7.9609 c -2.6 -8.17 -2.31 -16.9 -1.8 -25.35 c 0.48 -7.65 3.6106 -14.91 7.9906 -21.1 c 2.5 -2.9 5.4 -5.9191 9.25 -6.8891 c 0.7294 -0.40313 1.4693 -0.58441 2.1891 -0.58749 z m -56.277 23.08 c 12.936 -0.0241 25.262 8.9938 29.697 21.097 c 1.13 1.54 1.7909 3.4103 1.8609 5.3203 l 0.8797 -0.15938 c 0.95 4.33 2.0094 8.6197 3.1094 12.93 c -3.56 -0.74 -7.1897 -1.1597 -10.63 -2.2797 l -0.4 -0.82 c -3.45 -0.1 -6.9103 -0.75 -10.22 -1.7 c -1.79 -0.32 -5.3694 -0.97062 -7.1594 -1.2906 c -6.99 -6.1 -13.53 -14.3 -13.6 -24.03 c -1.61 -3.84 0.65 -7.2191 3.8 -8.9391 c 0.8656 -0.0837 1.7298 -0.12651 2.5922 -0.12812 z m 93.925 10.961 c 1.0716 0.0245 2.1391 0.10656 3.2016 0.27656 c 0.95 0.57 1.7909 1.2797 2.5109 2.1297 c -0.49 2.9 -1.5709 5.8609 -3.7609 7.9109 c -4.09 4.21 -7.7691 8.9588 -12.839 12.069 c -2.32 1.93 -4.8497 3.6509 -7.6297 4.8609 l -0.1203 0.72969 c -5.41 2.94 -11.2 6.6394 -17.68 5.6094 c -0.9 -6.77 0.7197 -13.419 4.2297 -19.209 c 0.47 -0.27 1.4091 -0.80969 1.8891 -1.0797 c 2.17 -2.26 4.3206 -4.6906 7.0406 -6.3406 l -0.07 -0.75 c 4.3 -2.31 8.63 -5.0994 13.6 -5.6594 c 3.1725 -0.17249 6.4134 -0.62047 9.6281 -0.54687 z m -91.883 27.508 c 0.9765 0.00062 1.9622 0.0731 2.9547 0.22813 c 6.76 1.1 11.56 6.4703 16.5 10.77 l -0.1094 0.82031 c 2.22 -0.3 4.1291 1.2706 5.4391 2.8906 c -3.77 3.82 -8.2997 6.8488 -12.13 10.619 c -6.22 0.46 -12.44 0.54062 -18.67 0.24062 c -4.55 0.31 -8.8791 -1.4906 -12.589 -3.9406 c -1.15 -0.7 -2.0497 -1.8091 -2.1297 -3.1891 c -2.4 -3.29 0.7788 -7.66 2.2188 -10.75 c 5.285 -4.13 11.68 -7.6934 18.516 -7.6891 z m 17.512 0.53437 c 5.4436 0.15901 10.496 2.855 15.212 5.375 c -0.22 2.06 -0.8803 4.18 -2.4703 5.6 c -2.56 0.39 -4.7203 -1.5209 -6.7203 -2.7609 c -3 -2.14 -6.1297 -4.1094 -8.8797 -6.5594 c 0.12 -0.39 0.37 -1.1709 0.5 -1.5609 c 0.7937 -0.0888 1.5801 -0.11647 2.3578 -0.0938 z m 21.312 2.2047 c 3.53 0.1 7.0594 0.39938 10.609 0.25938 c 0.85 2.78 1.4206 5.6397 2.2906 8.4297 c 3.36 3.54 4.8806 8.3203 7.7406 12.22 c 1.61 3.09 4.41 5.74 5.15 9.25 l 0.75 -0.23907 c 3.66 6.23 6.3597 13.25 5.2297 20.63 c 0.57 4.69 -1.9609 8.8 -4.4109 12.5 c -2.24 1.48 -5.4397 1.0991 -7.9797 0.53907 c -8.85 -5.18 -11.8 -16.269 -11.78 -25.909 c -2.09 -8.14 6.0403 -14.381 3.9203 -22.491 c -3.07 -1.37 -5.65 1.25 -6.9 3.8 c -0.88 2.59 -1.1206 5.3703 -1.8406 8.0203 c -0.19 1.57 0.21 3.35 -0.7 4.75 c -4.69 6.09 -8.9291 12.55 -14.089 18.27 c -5.13 5.23 -13.261 5.2994 -20.031 4.6594 c -0.21 -1.24 -0.3188 -2.4797 -0.3188 -3.7297 c -0.01 -3.49 -0.3009 -7.02 0.4891 -10.45 c 2.83 -4.63 4.85 -10.01 8.6 -13.93 c 6.01 -1.31 12.75 -2.27 17.38 -6.75 c 1.74 -4.13 -0.7491 -9.63 2.3609 -13.35 c 1.3 -0.5 2.7394 -0.52062 4.0594 -0.99062 c 0.15 -1.85 -0.3197 -3.6691 -0.5297 -5.4891 z m 38.603 5.7094 c 3.0675 -0.07 6.1175 0.14 9.0375 1.1 c 4.39 1.88 8.2894 5.14 10.959 9.1 c 0.05 2.39 0.5103 4.9197 0.07 7.3297 c -4.33 5.47 -12.44 4.2906 -18.55 4.6406 c -4.7 0.82 -8.0309 -2.7506 -11.211 -5.4406 c -3.14 -1.98 -2.9494 -5.7697 -3.7094 -8.9297 c -2.39 -0.36 -5.1503 -0.82938 -5.8703 -3.4094 c 3.18 -1.67 6.4897 -3.4209 10.13 -3.8109 c 2.99 -0.16 6.0762 -0.50969 9.1437 -0.57969 z m 64.124 3.1719 c 0.7066 0.006 1.3765 0.28438 1.8828 0.97813 c 4.17 5.62 8.88 11.551 9.45 18.811 c 1.4 11.8 1.4603 24.209 -3.2297 35.339 c -0.81 1.47 -0.3594 3.85 -1.8594 4.75 c -2.15 6.54 -4.8397 12.92 -7.4797 19.28 l -0.75 -0.5 l -0.9406 0.18124 c -0.31 -10.78 0.6306 -21.701 -1.5594 -32.341 c -1.54 -6.48 -2.8103 -13.03 -4.4203 -19.5 c -1.95 -0.32 -4.1409 -1.4094 -5.7609 0.29062 c -3.21 3.41 -4.2791 8.2391 -6.9891 11.989 c -5.94 7.69 -13.27 14.13 -20.53 20.52 c -1.08 0.99 -2.3909 1.6397 -3.6609 2.3297 c 2.07 -4.62 5.8003 -8.18 9.1203 -11.9 c 5.32 -6.01 10.77 -11.919 15.77 -18.209 c 2.98 -3.77 5.04 -8.3906 8 -11.991 c 2.52 -6.42 4.0403 -13.859 9.7203 -18.439 c 0.7813 -0.85 2.0582 -1.5989 3.236 -1.5891 z m -111.14 6.1484 c 0.02 0.59 0.049 1.7906 0.069 2.3906 c -1.8 2.84 -5.5094 3.4197 -8.6094 3.4297 c -0.05 -0.39 -0.1594 -1.1709 -0.2094 -1.5609 c 1.88 -1.71 4.0288 -3.1891 6.4188 -4.0891 c 0.58 -0.04 1.7512 -0.13031 2.3312 -0.17031 z" stroke-linecap="round" />
</g>
		<g transform="matrix(1.16 -0.67 0.67 1.16 -96.46 38.43)" id="path6"  >
<path style="stroke: none; stroke-width: 1; stroke-dasharray: none; stroke-linecap: butt; stroke-dashoffset: 0; stroke-linejoin: miter; stroke-miterlimit: 4; fill: rgb(221,213,174); fill-rule: nonzero; opacity: 1;"  transform=" translate(-1421.97, -140.8)" d="m 1535 11.905 c -9.4362 0.02442 -18.864 0.34531 -28.195 1.8453 c -5.6 1.22 -10.821 3.7197 -16.061 5.9797 c -11.33 4.94 -21.089 12.671 -30.739 20.241 c -5.96 4.71 -10.13 11.18 -15.67 16.33 c -8.45 8.24 -18.38 16.3 -22.03 28.02 c -0.71 4.48 -3.0609 8.4391 -4.1609 12.789 c 0.18 3.06 1.9 5.7612 3.45 8.3312 c 4.72 6.99 8.97 14.289 13.75 21.239 c 3.49 5.08 8.0503 9.2603 12.37 13.62 c 1.38 1.36 2.24 3.1197 3.2 4.7797 c 1.97 1.38 3.9203 2.8009 5.8703 4.2109 c -1.3 -1.91 -3.3 -3.6912 -3.55 -6.0812 c 3.07 -2.97 6.7 -5.3094 9.5 -8.5594 c 5.76 -7.19 11.401 -14.499 17.841 -21.109 c 7.49 -8.21 16.44 -14.881 24.55 -22.441 c 4.53 -4.21 9.1791 -8.3706 14.639 -11.341 c 7.17 -3.94 14.72 -9.51 23.4 -8.15 c 3.57 1.59 6.09 4.8003 8.55 7.7203 c -0.41 2.17 -1.2197 4.2609 -1.4797 6.4609 c 0.19 2.79 2.5503 4.9297 4.8203 6.2297 c 11.22 7.47 24.86 9.37 36.9 15.05 c 7.6 3.53 15.359 6.8897 23.639 8.4797 c 3.71 0.33 8.3603 0.28938 10.77 -3.1406 c 3.3 -3.04 4.1806 -7.5894 5.9406 -11.509 c 0.88 -0.56 1.81 -1.03 2.8 -1.4 c -19.63 -6.49 -38.86 -14.4 -56.77 -24.8 c -9.11 -5.7 -17.88 -11.969 -26.13 -18.859 c -4.09 -3.88 -7.8697 -8.0812 -11.73 -12.181 c -5.81 -6.05 -9.3103 -14.6 -8.0203 -23.05 c 2.74 -1.07 5.8597 -0.39 8.5797 0.5 c -0.12 0.63 -0.3603 1.8912 -0.4703 2.5312 c -1.26 0.12 -3.7791 0.37 -5.0391 0.5 c -0.27 5.19 2.9297 9.6694 5.4797 13.909 c 8.03 10.31 18.73 18.06 29 25.98 c 17.4 13.08 37.469 21.97 57.909 29.15 c -1.81 -1.95 -3.6897 -3.9103 -6.0297 -5.2203 c -7.91 -4.97 -16.53 -8.6491 -24.75 -13.039 c -6.23 -3.31 -12.73 -6.0403 -19.2 -8.8203 c -6.04 -2.63 -12.13 -5.9594 -15.8 -11.659 c -2.15 -4.72 -0.8503 -10.1 -1.9203 -15.05 c -1.32 -3.3 -3.1903 -6.4903 -5.9203 -8.8203 c -2.7 -2.55 -6.3794 -3.4997 -9.4594 -5.4297 c -1.68 -3.76 -2.3094 -7.9609 -2.3594 -12.061 c 3.16 -0.22 6.2991 -0.07969 9.4891 -0.12969 l 0.011 -0.95938 c -5.6475 -0.0075 -11.313 -0.10059 -16.975 -0.08594 z m -252.15 38.023 c -5.725 -0.0012 -11.448 0.08719 -17.162 0.49219 c -2.61 0.16 -4.8797 1.8694 -7.5297 1.6594 c -1.63 2.2 -5.5797 0.03063 -7.4797 1.4906 c -4.51 0.47 -8.5112 2.8697 -12.731 4.3797 c -6.65 2.39 -12.439 6.6494 -17.759 11.209 c -3.49 3.66 -5.7906 8.2306 -8.2406 12.591 c -1.96 3.49 -3.5988 7.3297 -2.9688 11.48 c -0.09 11.36 -0.7412 23.551 5.0188 33.811 c 5.65 9.66 13.961 17.349 21.761 25.239 c 8.76 8.98 18.96 16.35 28.22 24.78 c 4.22 4.22 9.29 7.4212 14.15 10.831 c 12.74 10.92 26.41 20.799 41.05 29.009 c 7.97 2.59 14.879 7.4903 22.859 10.07 c 5.2 2.23 10.56 4.2891 16.28 4.6891 c 5.15 0.84 9.95 3.0503 15.1 3.9203 c 3.75 1.53 8.0909 1.5703 11.411 4.0203 c 2.34 -0.83 4.6897 1.1603 7.0297 1.4703 c 9.49 4.4 19.239 8.4 28.109 14 c 6.36 4.89 12.58 9.9594 19.12 14.609 l 0.7703 0.0203 c 0.28 -0.31 0.8294 -0.92031 1.1094 -1.2203 c 8.16 -0.42 16.611 1.4397 24.591 -1.2203 c 4.07 -3.1 5.9903 -7.8997 7.0203 -12.73 c 8.73 0.29 17.109 3.36 25.889 3.55 c 0.43 -0.1 1.2903 -0.31031 1.7203 -0.42031 c -0.13 -0.66 -0.3903 -1.9697 -0.5203 -2.6297 c -8.57 -0.32 -17.54 0.49093 -25.6 -2.9891 c -3.47 -1.21 -5.68 -4.47 -7.65 -7.35 c -0.36 -4.1 -1.0194 -8.9203 1.6906 -12.42 c 4.5 -6.42 12.89 -8.0009 19.87 -10.311 c 1.28 -0.27 2.3991 -1.35 1.9391 -2.75 c -2.85 -5.08 -7.5391 -8.9494 -9.8891 -14.359 c -2.23 -3.7 -1.9412 -8.1597 -1.8812 -12.28 c -0.78 -2.27 -2.1491 -4.3297 -4.3391 -5.4297 c -16.26 -9.46 -29.5 -23.1 -41.65 -37.27 c -3.24 -3.1 -6.5097 -6.1603 -9.6797 -9.3203 c -5.05 -4.8 -8.08 -11.17 -12.45 -16.52 c -4.94 -6.07 -7.6209 -13.629 -9.9609 -20.989 c 1.13 -5.78 2.77 -11.46 4.7 -17.02 c -0.4 -1.13 -0.9794 -2.1809 -1.5594 -3.2109 c -13.1 -6.461 -26.6 -12.11 -40 -18.06 c -6.44 -2.92 -13.501 -4.1206 -19.891 -7.1406 c -4.52 -1.91 -9.4997 -2.33 -14.18 -3.75 c -9.44 -2.87 -19.34 -3.9291 -29.18 -3.8891 c -5.725 0.05 -11.453 -0.04094 -17.178 -0.04219 z m 246.99 102.05 c -0.892 -0.021 -1.7787 -0.0175 -2.6562 0.006 c -4.04 0.17 -7.6806 2.2397 -11.241 3.9297 c -5.23 2.62 -8.2888 7.8106 -12.319 11.791 c -5.7 -0.7 -11.471 -1.9397 -17.161 -0.52969 c -3.51 1.62 -6.6294 -0.50062 -9.7094 -1.7406 c 1.12 1.2 1.6197 3.0509 3.2797 3.6609 c 4.68 2.26 9.7106 3.8488 14.041 6.8188 c 4.26 2.35 6.71 6.6809 9.85 10.211 c 3.05 1.97 6.0894 3.9794 9.0094 6.1594 c 1.29 -2.23 2.5294 -4.4997 3.4094 -6.9297 c 1.56 -4.27 3.9012 -8.1806 5.7312 -12.341 c 2.09 -4.67 3.9894 -9.66 7.8094 -13.25 c 2.33 -2.85 6.0997 -4.6994 9.8297 -4.1594 c 2.71 0.53 5.2909 1.56 7.8609 2.55 l -0.07 -0.75 c -4.9437 -3.9375 -11.42 -5.2799 -17.664 -5.4266 z" stroke-linecap="round" />
</g>
		<g transform="matrix(1.16 -0.67 0.67 1.16 119.07 9.11)" id="path8"  >
<path style="stroke: none; stroke-width: 1; stroke-dasharray: none; stroke-linecap: butt; stroke-dashoffset: 0; stroke-linejoin: miter; stroke-miterlimit: 4; fill: rgb(254,246,201); fill-rule: nonzero; opacity: 1;"  transform=" translate(-1573, -202.48)" d="m 1554.1 12.845 c -0.7142 0 -1.4322 0.03219 -2.1547 0.10469 c -3.19 0.05 -6.3291 -0.09031 -9.4891 0.12969 c 0.05 4.1 0.6794 8.3009 2.3594 12.061 c 3.08 1.93 6.7594 2.8797 9.4594 5.4297 c 2.73 2.33 4.6003 5.5203 5.9203 8.8203 c 1.07 4.95 -0.2297 10.33 1.9203 15.05 c 3.67 5.7 9.76 9.0294 15.8 11.659 c 6.47 2.78 12.97 5.5103 19.2 8.8203 c 8.22 4.39 16.84 8.0691 24.75 13.039 c 2.34 1.31 4.2197 3.2703 6.0297 5.2203 c 1.62 0.71 3.2697 1.39 4.9297 2.05 c -2.62 -7.18 -6.6194 -13.76 -9.7094 -20.7 c 0.04 -3.06 0.2703 -6.6097 2.5703 -8.9297 c 3.68 -3.6 9.1794 -5.6394 14.309 -4.1094 c 4.97 1.13 8.7206 4.93 12.091 8.5 c 8.93 9.31 12.2 22.519 13.18 35.019 c -1.1 0.17 -2.1906 0.26124 -3.2906 0.28124 c 3.83 1.87 8.11 0.74876 12.15 1.3188 c 2.24 0.21 2.9703 2.58 2.6203 4.5 c -3.08 0.08 -6.1903 -0.35 -9.2203 -0.55 c -0.38 0.27 -1.12 0.81124 -1.5 1.0812 c -1.83 10.5 -0.6897 21.26 -2.3797 31.78 c -0.55 5.59 -2.5603 11.02 -5.9703 15.48 c -4.15 2.47 -9.1594 2.97 -13.309 5.35 c -4.31 6.55 -2.3594 15.06 -4.7094 22.22 c -2.51 6.06 -7.1012 11.029 -11.981 15.289 c -2.33 2.56 -5.95 1.79 -9 1.75 c -6.25 0.2 -10.639 -6.52 -10.439 -12.3 c 1.09 -6.6 6.3891 -11.869 12.039 -15.009 c 2.87 -1.9 6.4003 -2.72 9.0203 -5 c 2.21 -5.12 4.69 -10.499 4.15 -16.259 c -0.08 -7.61 -0.2703 -15.251 0.6297 -22.831 c 1.06 -9.8 0.5303 -19.69 1.6703 -29.48 c 1.32 -0.18 3.9409 -0.52938 5.2609 -0.70938 c -1.98 -0.8 -3.9903 -1.5303 -5.9203 -2.4203 c -0.99 0.37 -1.92 0.84 -2.8 1.4 c -1.76 3.92 -2.6406 8.4694 -5.9406 11.509 c -2.41 3.43 -7.0603 3.4706 -10.77 3.1406 c -8.28 -1.59 -16.039 -4.9497 -23.639 -8.4797 c -12.04 -5.68 -25.68 -7.58 -36.9 -15.05 c -2.27 -1.3 -4.6303 -3.4397 -4.8203 -6.2297 c 0.26 -2.2 1.0697 -4.2909 1.4797 -6.4609 c -2.46 -2.92 -4.98 -6.1303 -8.55 -7.7203 c -8.68 -1.36 -16.23 4.21 -23.4 8.15 c -5.46 2.97 -10.109 7.1306 -14.639 11.341 c -8.11 7.56 -17.06 14.231 -24.55 22.441 c -6.44 6.61 -12.081 13.919 -17.841 21.109 c -2.8 3.25 -6.43 5.5894 -9.5 8.5594 c 0.25 2.39 2.25 4.1712 3.55 6.0812 c 6.45 4.49 12.749 9.2488 18.159 14.969 c 0.46 0.29 1.3609 0.88031 1.8109 1.1703 c 3.08 1.24 6.1994 3.3606 9.7094 1.7406 c 5.69 -1.41 11.461 -0.17031 17.161 0.52969 c 4.03 -3.98 7.0888 -9.1706 12.319 -11.791 c 3.56 -1.69 7.2006 -3.7597 11.241 -3.9297 c 7.02 -0.19 14.67 0.92031 20.32 5.4203 l 0.07 0.75 l 0.05 0.77969 c 2.42 2.13 5.37 3.82 6.95 6.75 c 2.07 3.77 1.1091 8.3397 1.5891 12.43 c 0.21 7.69 -0.6194 15.34 -1.0594 23 c 4.99 -1.1 8.9594 -4.5897 13.659 -6.4297 c 5.76 -3.53 12.76 -2.9291 19.2 -2.4391 c 2.51 1.22 4.2397 3.8097 4.5297 6.5797 c 0.3 3.77 -0.4488 7.5 -1.3188 11.15 c -0.91 2.94 -0.3612 6.85 -2.9312 9.1 c -2.58 2.25 -5.5097 4.0594 -8.1297 6.2594 c 0.11 0.38 0.3306 1.13 0.4406 1.5 c 3.71 0.75 7.76 0.47 11.2 2.3 c 3.77 2 7.1503 4.6697 11.02 6.5297 c 4.04 1.2 8.3597 0.07 12.48 -0.15 c 0.19 -1.52 0.5703 -4.5794 0.7703 -6.1094 l 0.85 -0.0797 c 3.03 0.11 4.9191 3.1191 7.3391 4.6391 c 1.63 -0.38 2.8803 -1.55 4.2203 -2.5 c 2.91 -2.46 6.3194 -4.3288 8.8094 -7.2688 c 3.17 -3.52 6.1009 -7.2312 9.0609 -10.931 c 4.58 -6.17 8.0403 -13.12 13.02 -19 c 2.01 -2.33 2.22 -5.5597 3.8 -8.1297 c 3.99 -6.87 7.8094 -13.889 10.759 -21.289 c 1.39 -4.49 3.64 -8.7009 4.8 -13.261 c 2.28 -13.86 1.4503 -28.02 0.9703 -41.98 c -0.04 -5.05 -2.9706 -9.1794 -4.5406 -13.759 c -1.3 -3.3 -1.7703 -7.0406 -4.0203 -9.8906 c -2.87 -3.87 -5.1788 -8.1097 -7.9688 -12.03 c -4.47 -5.5 -9.3106 -10.71 -14.641 -15.38 c -3.79 -2.88 -7.7997 -5.4603 -11.33 -8.6703 c -6.38 -5.83 -13.68 -10.56 -21.22 -14.75 c -4.95 -3.2 -10.02 -6.2306 -15.43 -8.5906 c -10.28 -4.39 -20.49 -9.5703 -31.67 -11.22 c -4.9 -0.8575 -9.7161 -2.4641 -14.716 -2.4641 z m 10.797 191.4 c -1.5624 -0.0908 -3.225 0.36563 -4.7312 0.58438 c -2.72 1.65 -4.8706 4.0806 -7.0406 6.3406 c -0.67 1.52 -1.3688 3.0503 -1.7688 4.6703 c 2.2 5.46 8.38 7.4297 13.45 9.2797 c 2.78 -1.21 5.3097 -2.9309 7.6297 -4.8609 c 0.84 -2.82 1.8191 -6.0794 0.4391 -8.8594 c -1.24 -2.47 -3.1997 -4.5197 -5.3297 -6.2297 c -0.81 -0.61875 -1.711 -0.8705 -2.6485 -0.925 z m -49.972 0.50469 c -3.85 0.41 -9.6988 -0.47938 -11.869 3.7906 c -1.18 3.18 -1.1909 6.6891 -1.0109 10.039 c 0.52 0.94 1.0903 1.8403 1.7203 2.7203 c 3.31 0.95 6.7703 1.6 10.22 1.7 c 1.61 -0.15 4.8203 -0.42969 6.4203 -0.57969 c 0.98 -2.92 0.47 -6.0806 0.55 -9.0906 c -0.07 -1.91 -0.7309 -3.7803 -1.8609 -5.3203 c -1.29 -1.21 -2.7903 -2.1694 -4.1703 -3.2594 z m 25.1 30.391 c -3.69 2.09 -8.9894 3.8397 -9.4594 8.6797 c -0.37 4.08 -1.1906 8.3691 -0.2906 12.439 c 0.35 0.26 1.0406 0.79 1.3906 1.05 c 0.35 -0.55 1.0397 -1.6397 1.3797 -2.1797 c 0.72 -2.65 0.9606 -5.4303 1.8406 -8.0203 c 1.25 -2.55 3.83 -5.17 6.9 -3.8 c 2.12 8.11 -6.0103 14.351 -3.9203 22.491 c 2.98 1.22 5.9594 2.73 9.2094 3.05 c 3.08 0.02 6.1803 -1.6494 7.7703 -4.3094 c 0.98 -1.93 0.9909 -4.1509 1.2109 -6.2609 c -0.74 -3.51 -3.54 -6.16 -5.15 -9.25 c -2.86 -3.9 -4.3806 -8.6803 -7.7406 -12.22 c -1.08 -0.52 -2.1106 -1.0988 -3.1406 -1.6688 z m 54.3 17.28 c -2.56 2.78 -4.4991 6.56 -8.1391 8.1 c -7.11 2.12 -14.621 0.94031 -21.911 1.4203 c 0.37 6.3 2.1106 12.49 1.8406 18.85 c -0.9 4.11 -2.8194 7.9197 -4.5594 11.73 c -0.63 1.89 -2.6103 2.6703 -4.4203 2.9703 c -4.39 0.63 -9.1303 0.66876 -13.22 -1.2312 c -2.66 -1.3 -5.2206 -2.83 -7.5906 -4.6 c -3.29 -3.97 -5.09 -8.8694 -7.4 -13.409 c -0.42 -0.34 -1.28 -1.01 -1.7 -1.35 c -4.79 5.43 -10.129 11.21 -17.339 13.18 c -3.6 0.83 -7.3597 1.2106 -11.03 0.94062 c -5.81 -2.56 -5.0403 -9.8903 -4.9703 -15.07 c -1.01 -5.87 2.7694 -10.64 4.5594 -15.87 c -8.78 -0.19 -17.159 -3.26 -25.889 -3.55 c -1.03 4.83 -2.9503 9.6297 -7.0203 12.73 c -7.98 2.66 -16.431 0.80031 -24.591 1.2203 c -0.28 0.3 -0.8294 0.91031 -1.1094 1.2203 c 0.85 1.9 2.7703 2.9706 4.3203 4.2406 c 5.02 3.17 8.34 8.2997 12.9 12.03 c 3.67 2.96 7.1897 6.1303 10.38 9.6203 c 3.25 2.73 7.0091 4.9494 9.6391 8.3594 c 6.25 8.09 15.27 13.35 21.9 21.08 c 4.58 5.5 10.39 9.7 16.15 13.85 c 3.3 2.35 5.4009 5.9603 8.6609 8.3703 c 4.52 3.87 9.9191 6.6097 14.189 10.78 c 3.34 3.34 8.2203 4.2206 11.87 7.1406 c 4.53 3.57 10.15 5.2094 15.32 7.6094 c 3.77 1.64 7.34 3.9097 11.45 4.6297 c 6.71 1.17 12.999 3.98 19.659 5.35 c 10.62 2 21.09 4.7403 31.55 7.4203 c 9.46 2.2 19.261 2.0403 28.911 1.7703 c 4.15 0.31 8.0703 -1.1094 11.97 -2.3094 c 7.93 -3.15 15.95 -6.79 22.1 -12.85 c 6.46 -5.68 11.289 -13.06 14.339 -21.07 c 1.64 -6.32 0.8303 -12.911 0.8203 -19.341 c 0.25 -7.63 -3.19 -14.55 -5.85 -21.47 c -1.74 -4.59 -4.19 -8.9088 -7.35 -12.669 c -5.9 -7.13 -11.1 -14.811 -17.43 -21.561 c -3.56 -3.27 -4.9909 -8.1897 -8.7109 -11.28 c -4.06 -3.92 -7.7394 -8.2397 -12.159 -11.78 c -1.93 -1.45 -3.8197 -3.7509 -6.4797 -3.4109 c 0.06 0.66 0.1791 1.9712 0.2391 2.6312 c 1.37 8.66 2.1612 17.399 2.4812 26.169 c 0.28 5.3 -0.3903 10.641 -1.7203 15.791 c -1.66 -0.22 -3.2909 -0.61969 -4.9109 -0.97969 c -1.25 1.06 -1.3791 2.8491 -1.9891 4.2891 c -2.18 7.15 -6.0803 13.66 -8.0703 20.87 c 5.77 -4.15 9.2903 -10.519 12.07 -16.909 c 0.46 -1.67 2.1303 -2.1909 3.6703 -2.3109 c 2.73 4.89 5.2188 10.36 5.0188 16.1 c -0.92 11.8 -8.5791 22.211 -17.889 29.041 c -10.96 6.9 -23.21 12.46 -36.17 14.05 c -8.49 0.34 -17.199 0.48031 -25.409 -1.9797 c -6.15 -1.71 -10.54 -7.0609 -12.4 -12.961 c -0.84 -2.13 -0.3709 -5.0894 -2.2109 -6.5094 c -3.09 -0.26 -6.3497 0.64062 -9.2797 -0.70938 c -3.1 -1.23 -4.9197 -4.3412 -5.8797 -7.3812 c -1.05 -2.21 0.41 -4.3894 1.4 -6.3094 c 1.56 -3.66 5.8697 -5.4197 9.6297 -4.8297 c 3.7 0.95 6.1306 4.3494 9.5906 5.8094 c 5.17 -1.56 9.6791 -5.0597 15.089 -5.9797 c 8.84 -1.32 17.91 -1.0194 26.62 -3.2594 c 4.74 -1.08 9.3697 -3.4712 14.38 -2.6312 c 3.15 1.22 3.5906 5.1706 4.7406 7.9406 c 0.2 -3.64 0.3897 -7.2803 0.5797 -10.92 c -1.8 -0.21 -3.63 -0.88969 -5.4 -0.67969 c -1.7 -10.11 -1.87 -20.4 -3.05 -30.57 c -1.8 0.41 -3.55 1.0897 -5.05 2.1797 c -10.13 7.06 -17.66 17.37 -28.87 22.97 c -2.37 2.43 -4.1294 5.42 -6.6094 7.75 c -0.59 -0.02 -1.7703 -0.0794 -2.3703 -0.10938 c -0.36 -3.1 1.1397 -6.0003 1.5297 -9.0203 c -0.09 -2.73 -0.48 -5.5003 -0.35 -8.2203 c 1.21 -4.52 2.7897 -8.9891 5.0797 -13.089 c 5.69 -9.09 12.88 -17.161 18.42 -26.361 c -2.38 -1.65 -4.9603 -3.1694 -6.5703 -5.6594 z m -92.3 14.309 c -1.15 0.75 -2.4697 1.17 -3.6297 1.9 c -0.79 3.43 -0.4991 6.96 -0.4891 10.45 c 2.25 -0.44 4.5494 -0.79969 6.6594 -1.7297 c 1.29 -1.97 1.3206 -4.5497 1.2406 -6.7797 c -0.81 -1.66 -2.2612 -2.8706 -3.7812 -3.8406 z m 134.19 29.25 c -1.93 0.45 -3.74 1.4303 -5.15 2.8203 c -0.26 5.61 -0.2094 11.239 -0.059 16.859 l 0.75 0.5 c 2.64 -6.36 5.3297 -12.74 7.4797 -19.28 c -1.03 -0.25 -2.0403 -0.54 -3.0203 -0.9 z" stroke-linecap="round" />
</g>
		<g transform="matrix(1.16 -0.67 0.67 1.16 163.95 -2.01)" id="path14"  >
<path style="stroke: none; stroke-width: 1; stroke-dasharray: none; stroke-linecap: butt; stroke-dashoffset: 0; stroke-linejoin: miter; stroke-miterlimit: 4; fill: rgb(255,253,239); fill-rule: nonzero; opacity: 1;"  transform=" translate(-1606.34, -212.06)" d="m 1636.1 60.981 c -3.8836 0.09703 -7.6666 1.9188 -10.427 4.6188 c -2.3 2.32 -2.5303 5.8697 -2.5703 8.9297 c 3.09 6.94 7.0894 13.52 9.7094 20.7 c 9.63 3.61 19.48 6.5709 29.15 10.061 c 1.1 -0.02 2.1906 -0.11124 3.2906 -0.28124 c -0.98 -12.5 -4.2497 -25.709 -13.18 -35.019 c -3.37 -3.57 -7.1206 -7.37 -12.091 -8.5 c -1.2825 -0.3825 -2.5883 -0.54172 -3.8828 -0.50938 z m 4.8937 40.939 c -1.32 0.18 -3.9409 0.52938 -5.2609 0.70938 c -1.14 9.79 -0.6103 19.68 -1.6703 29.48 c -0.9 7.58 -0.7097 15.221 -0.6297 22.831 c 0.54 5.76 -1.94 11.139 -4.15 16.259 c -2.62 2.28 -6.1503 3.1 -9.0203 5 c -5.65 3.14 -10.949 8.4094 -12.039 15.009 c -0.2 5.78 4.1891 12.5 10.439 12.3 c 3.05 0.04 6.67 0.81 9 -1.75 c 4.88 -4.26 9.4712 -9.2291 11.981 -15.289 c 2.35 -7.16 0.3994 -15.67 4.7094 -22.22 c 4.15 -2.38 9.1594 -2.88 13.309 -5.35 c 3.41 -4.46 5.4203 -9.8897 5.9703 -15.48 c 1.69 -10.52 0.5497 -21.28 2.3797 -31.78 c 0.38 -0.27 1.12 -0.81124 1.5 -1.0812 c -8.89 -2.68 -17.919 -5.0691 -26.519 -8.6391 z m 8.75 201.84 c -1.54 0.12 -3.2103 0.64093 -3.6703 2.3109 c -2.78 6.39 -6.3003 12.759 -12.07 16.909 c -3.28 3.59 -3.3803 9.01 -6.2203 12.9 c -0.81 1.36 -2.3 1.04 -3.6 0.85 c -0.92 -4.15 2.5909 -7.6703 2.7609 -11.72 l 0.03 -0.85938 c -1.15 -2.77 -1.5906 -6.7206 -4.7406 -7.9406 c -5.01 -0.84 -9.6397 1.5512 -14.38 2.6312 c -8.71 2.24 -17.78 1.9394 -26.62 3.2594 c -5.41 0.92 -9.9191 4.4197 -15.089 5.9797 c -3.46 -1.46 -5.8906 -4.8594 -9.5906 -5.8094 c -3.76 -0.59 -8.0697 1.1697 -9.6297 4.8297 c -0.99 1.92 -2.45 4.0994 -1.4 6.3094 c 0.96 3.04 2.7797 6.1512 5.8797 7.3812 c 2.93 1.35 6.1897 0.44938 9.2797 0.70938 c 1.84 1.42 1.3709 4.3794 2.2109 6.5094 c 1.86 5.9 6.25 11.251 12.4 12.961 c 8.21 2.46 16.919 2.3197 25.409 1.9797 c 12.96 -1.59 25.21 -7.15 36.17 -14.05 c 9.31 -6.83 16.969 -17.241 17.889 -29.041 c 0.2 -5.74 -2.2888 -11.21 -5.0188 -16.1 z" stroke-linecap="round" />
</g>
		<g transform="matrix(1.16 -0.67 0.67 1.16 41.03 36.39)" id="path16"  >
<path style="stroke: none; stroke-width: 1; stroke-dasharray: none; stroke-linecap: butt; stroke-dashoffset: 0; stroke-linejoin: miter; stroke-miterlimit: 4; fill: rgb(218,152,99); fill-rule: nonzero; opacity: 1;"  transform=" translate(-1512.08, -190.97)" d="m 1403.2 82.809 c 0.58 1.03 1.1594 2.0809 1.5594 3.2109 c -1.93 5.56 -3.57 11.24 -4.7 17.02 c 2.21 -3.7 5.2809 -6.9309 9.1109 -8.9609 l 0.6688 0.29062 c 1.43 3.49 1.4509 7.5491 4.2109 10.439 c 3.42 5.24 7.5903 9.9409 10.97 15.211 c 2.93 4.61 6.46 8.8003 10.1 12.87 c 4.61 4.79 9.5391 9.6291 15.789 12.189 c -0.96 -1.66 -1.82 -3.4197 -3.2 -4.7797 c -4.32 -4.36 -8.8803 -8.5403 -12.37 -13.62 c -4.78 -6.95 -9.03 -14.249 -13.75 -21.239 c -1.55 -2.57 -3.27 -5.2712 -3.45 -8.3312 c 1.1 -4.35 3.4509 -8.3091 4.1609 -12.789 h -0.7906 c -2.52 3.69 -3.05 8.2994 -4.9 12.309 l -1.5594 0.44062 c -1.55 -3.01 -1.01 -6.58 -2.15 -9.7 c -2.64 -2.5 -6.43 -3.1909 -9.7 -4.5609 z m 3.5594 20.5 c 0.67 4.34 2.89 8.2209 4.9 12.061 c 8.76 15.63 22.651 27.349 35.541 39.459 c 6.37 6.08 13.4 11.431 20.82 16.161 c 4.62 3.27 9.8991 5.54 14.139 9.35 c -0.2 0.55 -0.6 1.6397 -0.8 2.1797 c -3.89 1.05 -7.77 -0.93031 -11.2 -2.5203 c -10.86 -6.04 -20.869 -13.68 -29.359 -22.78 c -2.52 -2.88 -5.69 -4.99 -8.65 -7.35 c 12.15 14.17 25.39 27.81 41.65 37.27 c 2.19 1.1 3.5591 3.1597 4.3391 5.4297 c 0.76 -2.31 1.5603 -4.6803 3.0703 -6.6203 c 6.69 -4.85 15.721 -3.2097 22.711 0.17031 c -3.14 -3.53 -5.59 -7.8609 -9.85 -10.211 c -4.33 -2.97 -9.3606 -4.5588 -14.041 -6.8188 c -1.66 -0.61 -2.1597 -2.4609 -3.2797 -3.6609 c -0.45 -0.29 -1.3509 -0.88031 -1.8109 -1.1703 c 0.01 0.55 0.031 1.6406 0.031 2.1906 c -3.21 -0.89 -5.9012 -3.0194 -8.7312 -4.6594 c -13.02 -9.07 -25.23 -19.341 -36.2 -30.811 c -6.76 -7.61 -13.14 -15.57 -19 -23.9 c -1.15 -1.54 -2.3697 -3.1703 -4.2797 -3.7703 z m 131.55 52.197 c -3.2523 0.0313 -6.394 1.7594 -8.4328 4.2531 c -3.82 3.59 -5.7194 8.58 -7.8094 13.25 c -1.83 4.16 -4.1712 8.0706 -5.7312 12.341 c -0.88 2.43 -2.1194 4.6997 -3.4094 6.9297 c 1.67 2.99 3.8606 5.68 6.4906 7.9 c 0.36 -0.18 1.0697 -0.54031 1.4297 -0.72031 c 0.71 -5.85 0.3203 -11.83 1.9703 -17.55 c 2.04 -7.65 5.9494 -15.159 12.259 -20.089 c 3.37 -3.37 8.2906 -2.6906 12.541 -2.8906 l -0.05 -0.77969 c -2.57 -0.99 -5.1509 -2.02 -7.8609 -2.55 c -0.4663 -0.0675 -0.9323 -0.0982 -1.3969 -0.0937 z m -48.9 31.406 c -0.8624 0.002 -1.7266 0.0444 -2.5922 0.12812 c -3.15 1.72 -5.41 5.0991 -3.8 8.9391 c 0.07 9.73 6.61 17.93 13.6 24.03 c 1.79 0.32 5.3694 0.97062 7.1594 1.2906 c -0.63 -0.88 -1.2003 -1.7803 -1.7203 -2.7203 c -1.43 -6.63 -6.8503 -10.939 -10.77 -16.039 c -2.08 -3.41 -1.3494 -7.7712 -0.4094 -11.431 c 0.33 -2.2 3.58 -3.18 4.85 -0.95 c 4.45 4.19 7.6894 9.6109 12.659 13.261 c 2.25 0.23 4.73 -0.35031 6.55 1.3297 c 1.38 1.09 2.8803 2.0494 4.1703 3.2594 c -4.4344 -12.103 -16.761 -21.121 -29.697 -21.097 z m 2.0422 38.469 c -6.8354 -0.004 -13.231 3.5591 -18.516 7.6891 c -1.44 3.09 -4.6188 7.46 -2.2188 10.75 c 0.22 -1.67 0.3994 -3.3597 0.8594 -4.9797 c 2.7 -2.28 6.4203 -1.0909 9.6203 -1.4609 c 3.71 0.18 7.46 -1.2294 11.15 -0.40938 c 6.07 1.28 12.32 0.58969 18.45 0.22969 l 0.1094 -0.82031 c -4.94 -4.3 -9.74 -9.6703 -16.5 -10.77 c -0.9925 -0.155 -1.9782 -0.22751 -2.9547 -0.22813 z m 30.416 17.769 c -0.58 0.04 -1.7512 0.13031 -2.3312 0.17031 c -2.39 0.9 -4.5388 2.3791 -6.4188 4.0891 c 0.05 0.39 0.1594 1.1709 0.2094 1.5609 c 3.1 -0.01 6.8094 -0.58969 8.6094 -3.4297 c -0.02 -0.6 -0.049 -1.8006 -0.069 -2.3906 z m 98.18 13.88 c -2.96 3.6 -5.02 8.2206 -8 11.991 c -5 6.29 -10.45 12.199 -15.77 18.209 c -3.32 3.72 -7.0503 7.28 -9.1203 11.9 c 1.27 -0.69 2.5809 -1.3397 3.6609 -2.3297 c 7.26 -6.39 14.59 -12.83 20.53 -20.52 c 2.71 -3.75 3.7791 -8.5791 6.9891 -11.989 c 1.62 -1.7 3.8109 -0.61062 5.7609 -0.29062 c -1.17 -1.4 -3 -1.7694 -4.55 -2.5594 c 0.02 -1.48 0.1 -2.9709 0.5 -4.4109 z" stroke-linecap="round" />
</g>
</g>
</g>
</svg>