<?xml version="1.0" encoding="UTF-8" standalone="no" ?>
<!DOCTYPE svg PUBLIC "-//W3C//DTD SVG 1.1//EN" "http://www.w3.org/Graphics/SVG/1.1/DTD/svg11.dtd">
<svg xmlns="http://www.w3.org/2000/svg" xmlns:xlink="http://www.w3.org/1999/xlink" version="1.1" width="400" height="400" viewBox="0 0 400 400" xml:space="preserve">
<desc>Created with Fabric.js 3.6.3</desc>
<defs>
</defs>
<rect x="0" y="0" width="100%" height="100%" fill="rgba(255, 255, 255, 1)"></rect>
<g transform="matrix(1 0 0 1 205 240.24)" style=""  >
		<text xml:space="preserve" font-family="'Open Sans', sans-serif" font-size="18" font-style="normal" font-weight="normal" style="stroke: none; stroke-width: 1; stroke-dasharray: none; stroke-linecap: butt; stroke-dashoffset: 0; stroke-linejoin: miter; stroke-miterlimit: 4; fill: rgb(0,0,0); fill-rule: nonzero; opacity: 1; white-space: pre;" ><tspan x="-108.5" y="5.97" style="font-size: 19px; font-weight: bold; ">Your Company Name</tspan></text>
</g>
<g transform="matrix(1 0 0 1 229.48 273.67)" style=""  >
		<text xml:space="preserve" font-family="'Open Sans', sans-serif" font-size="18" font-style="normal" font-weight="normal" style="stroke: none; stroke-width: 1; stroke-dasharray: none; stroke-linecap: butt; stroke-dashoffset: 0; stroke-linejoin: miter; stroke-miterlimit: 4; fill: rgb(0,0,0); fill-rule: nonzero; opacity: 1; white-space: pre;" ><tspan x="-81.99" y="5.65" >slogan here</tspan></text>
</g>
<g transform="matrix(2.02 0 0 1.91 193.75 166)"  >
<g style=""   >
		<g transform="matrix(1 0 0 1 -15.26 7.86)" id="rect4285"  >
<linearGradient id="SVGID_linearGradient4334_542" gradientUnits="userSpaceOnUse" gradientTransform="matrix(0.41 0 0 0.43 416.25 -82.15)"  x1="-987.07" y1="171.03" x2="-987.79" y2="192.75">
<stop offset="0%" style="stop-color:rgb(0,92,148);stop-opacity: 1"/>
<stop offset="100%" style="stop-color:rgb(25,174,255);stop-opacity: 1"/>
</linearGradient>
<rect style="stroke: none; stroke-width: 0; stroke-dasharray: none; stroke-linecap: butt; stroke-dashoffset: 0; stroke-linejoin: miter; stroke-miterlimit: 4; fill: url(#SVGID_linearGradient4334_542); fill-rule: nonzero; opacity: 1;"  x="-2.02685" y="-12.268" rx="2.1233" ry="2.1233" width="4.0537" height="24.536" />
</g>
		<g transform="matrix(1 0 0 1 -8.63 7.86)" id="rect4289"  >
<linearGradient id="SVGID_linearGradient4334_543" gradientUnits="userSpaceOnUse" gradientTransform="matrix(0.41 0 0 0.43 409.62 -82.15)"  x1="-987.07" y1="171.03" x2="-987.79" y2="192.75">
<stop offset="0%" style="stop-color:rgb(0,92,148);stop-opacity: 1"/>
<stop offset="100%" style="stop-color:rgb(25,174,255);stop-opacity: 1"/>
</linearGradient>
<rect style="stroke: none; stroke-width: 0; stroke-dasharray: none; stroke-linecap: butt; stroke-dashoffset: 0; stroke-linejoin: miter; stroke-miterlimit: 4; fill: url(#SVGID_linearGradient4334_543); fill-rule: nonzero; opacity: 1;"  x="-2.02685" y="-12.268" rx="2.1233" ry="2.1233" width="4.0537" height="24.536" />
</g>
		<g transform="matrix(1 0 0 1 -2 7.86)" id="rect4291"  >
<linearGradient id="SVGID_linearGradient4334_544" gradientUnits="userSpaceOnUse" gradientTransform="matrix(0.41 0 0 0.43 402.99 -82.15)"  x1="-987.07" y1="171.03" x2="-987.79" y2="192.75">
<stop offset="0%" style="stop-color:rgb(0,92,148);stop-opacity: 1"/>
<stop offset="100%" style="stop-color:rgb(25,174,255);stop-opacity: 1"/>
</linearGradient>
<rect style="stroke: none; stroke-width: 0; stroke-dasharray: none; stroke-linecap: butt; stroke-dashoffset: 0; stroke-linejoin: miter; stroke-miterlimit: 4; fill: url(#SVGID_linearGradient4334_544); fill-rule: nonzero; opacity: 1;"  x="-2.02685" y="-12.268" rx="2.1233" ry="2.1233" width="4.0537" height="24.536" />
</g>
		<g transform="matrix(1 0 0 1 4.64 7.86)" id="rect4293"  >
<linearGradient id="SVGID_linearGradient4334_545" gradientUnits="userSpaceOnUse" gradientTransform="matrix(0.41 0 0 0.43 396.35 -82.15)"  x1="-987.07" y1="171.03" x2="-987.79" y2="192.75">
<stop offset="0%" style="stop-color:rgb(0,92,148);stop-opacity: 1"/>
<stop offset="100%" style="stop-color:rgb(25,174,255);stop-opacity: 1"/>
</linearGradient>
<rect style="stroke: none; stroke-width: 0; stroke-dasharray: none; stroke-linecap: butt; stroke-dashoffset: 0; stroke-linejoin: miter; stroke-miterlimit: 4; fill: url(#SVGID_linearGradient4334_545); fill-rule: nonzero; opacity: 1;"  x="-2.02685" y="-12.268" rx="2.1233" ry="2.1233" width="4.0537" height="24.536" />
</g>
		<g transform="matrix(1 0 0 1 11.27 7.86)" id="rect4295"  >
<linearGradient id="SVGID_linearGradient4334_546" gradientUnits="userSpaceOnUse" gradientTransform="matrix(0.41 0 0 0.43 389.72 -82.15)"  x1="-987.07" y1="171.03" x2="-987.79" y2="192.75">
<stop offset="0%" style="stop-color:rgb(0,92,148);stop-opacity: 1"/>
<stop offset="100%" style="stop-color:rgb(25,174,255);stop-opacity: 1"/>
</linearGradient>
<rect style="stroke: none; stroke-width: 0; stroke-dasharray: none; stroke-linecap: butt; stroke-dashoffset: 0; stroke-linejoin: miter; stroke-miterlimit: 4; fill: url(#SVGID_linearGradient4334_546); fill-rule: nonzero; opacity: 1;"  x="-2.02685" y="-12.268" rx="2.1233" ry="2.1233" width="4.0537" height="24.536" />
</g>
		<g transform="matrix(1 0 0 1 17.91 7.86)" id="rect4297"  >
<linearGradient id="SVGID_linearGradient4334_547" gradientUnits="userSpaceOnUse" gradientTransform="matrix(0.41 0 0 0.43 383.08 -82.15)"  x1="-987.07" y1="171.03" x2="-987.79" y2="192.75">
<stop offset="0%" style="stop-color:rgb(0,92,148);stop-opacity: 1"/>
<stop offset="100%" style="stop-color:rgb(25,174,255);stop-opacity: 1"/>
</linearGradient>
<rect style="stroke: none; stroke-width: 0; stroke-dasharray: none; stroke-linecap: butt; stroke-dashoffset: 0; stroke-linejoin: miter; stroke-miterlimit: 4; fill: url(#SVGID_linearGradient4334_547); fill-rule: nonzero; opacity: 1;"  x="-2.02685" y="-12.268" rx="2.1233" ry="2.1233" width="4.0537" height="24.536" />
</g>
		<g transform="matrix(1 0 0 1 2.3 23.74)" id="rect4299"  >
<rect style="stroke: none; stroke-width: 0; stroke-dasharray: none; stroke-linecap: butt; stroke-dashoffset: 0; stroke-linejoin: miter; stroke-miterlimit: 4; fill: rgb(25,174,255); fill-rule: nonzero; opacity: 1;"  x="-24.6975" y="-1.25825" rx="0" ry="0" width="49.395" height="2.5165" />
</g>
		<g transform="matrix(1 0 0 1 1.17 -15.33)" id="path4301"  >
<path style="stroke: none; stroke-width: 0; stroke-dasharray: none; stroke-linecap: butt; stroke-dashoffset: 0; stroke-linejoin: miter; stroke-miterlimit: 4; fill: rgb(0,92,148); fill-rule: nonzero; opacity: 1;"  transform=" translate(-33.17, -16.67)" d="m 31.805 7.0036 c -0.2505 0.00134 -0.53621 0.10303 -0.84223 0.31221 l -20.188 13.791 c -0.9791 0.67 -1.775 2.196 -1.775 3.421 c 0 0.82946 0.36952 1.3057 0.90701 1.3167 c 0.31848 0.29859 0.74203 0.48867 1.205 0.48867 h 44.431 c 0.99811 0 1.8011 -0.84118 1.8011 -1.8868 c 0 -0.17427 -0.02296 -0.34225 -0.0648 -0.50225 c 0.09574 -0.05319 0.03191 -0.19452 -0.15549 -0.40722 c -0.01012 -0.01146 -0.01506 -0.01524 -0.0259 -0.02714 c -0.20759 -0.37973 -0.52315 -0.6738 -0.91998 -0.82803 c -3.273 -2.652 -12.758 -8.748 -18.568 -12.421 l -4.315 -2.9452 c -0.446 -0.3051 -0.856 -0.3847 -1.166 -0.2579 c -0.099 -0.0408 -0.208 -0.055 -0.324 -0.0543 z" stroke-linecap="round" />
</g>
		<g transform="matrix(1 0 0 1 0 0)" id="rect3216"  >
<rect style="stroke: none; stroke-width: 0; stroke-dasharray: none; stroke-linecap: butt; stroke-dashoffset: 0; stroke-linejoin: miter; stroke-miterlimit: 4; fill: rgb(0,0,0); fill-rule: nonzero; opacity: 0;"  x="-32" y="-32" rx="0" ry="0" width="64" height="64" />
</g>
</g>
</g>
</svg>