<?xml version="1.0" encoding="UTF-8" standalone="no" ?>
<!DOCTYPE svg PUBLIC "-//W3C//DTD SVG 1.1//EN" "http://www.w3.org/Graphics/SVG/1.1/DTD/svg11.dtd">
<svg xmlns="http://www.w3.org/2000/svg" xmlns:xlink="http://www.w3.org/1999/xlink" version="1.1" width="400" height="400" viewBox="0 0 400 400" xml:space="preserve">
<desc>Created with Fabric.js 3.6.3</desc>
<defs>
</defs>
<rect x="0" y="0" width="100%" height="100%" fill="rgba(255, 255, 255, 1)"></rect>
<g transform="matrix(1 0 0 1 205 240.24)" style=""  >
		<text xml:space="preserve" font-family="'Open Sans', sans-serif" font-size="18" font-style="normal" font-weight="normal" style="stroke: none; stroke-width: 1; stroke-dasharray: none; stroke-linecap: butt; stroke-dashoffset: 0; stroke-linejoin: miter; stroke-miterlimit: 4; fill: rgb(0,0,0); fill-rule: nonzero; opacity: 1; white-space: pre;" ><tspan x="-108.5" y="5.97" style="font-size: 19px; font-weight: bold; ">Your Company Name</tspan></text>
</g>
<g transform="matrix(1 0 0 1 229.48 273.67)" style=""  >
		<text xml:space="preserve" font-family="'Open Sans', sans-serif" font-size="18" font-style="normal" font-weight="normal" style="stroke: none; stroke-width: 1; stroke-dasharray: none; stroke-linecap: butt; stroke-dashoffset: 0; stroke-linejoin: miter; stroke-miterlimit: 4; fill: rgb(0,0,0); fill-rule: nonzero; opacity: 1; white-space: pre;" ><tspan x="-81.99" y="5.65" >slogan here</tspan></text>
</g>
<g transform="matrix(0.52 0 0 0.48 193.75 159.56)"  >
<g style=""   >
		<g transform="matrix(1 0 0 1 -11.18 5.67)" id="path18"  >
<linearGradient id="SVGID_linearGradient2779_561" gradientUnits="userSpaceOnUse" gradientTransform="matrix(1 0 0 1 0 0)"  x1="89.174" y1="308.41" x2="80.97" y2="103.31">
<stop offset="0.5599999999999999%" style="stop-color:rgb(240,235,211);stop-opacity: 1"/>
<stop offset="38.11%" style="stop-color:rgb(221,216,192);stop-opacity: 1"/>
<stop offset="100%" style="stop-color:rgb(181,176,152);stop-opacity: 1"/>
</linearGradient>
<path style="stroke: rgb(0,0,0); stroke-width: 1.1021; stroke-dasharray: none; stroke-linecap: square; stroke-dashoffset: 0; stroke-linejoin: bevel; stroke-miterlimit: 4; fill: url(#SVGID_linearGradient2779_561); fill-rule: nonzero; opacity: 1;"  transform=" translate(-84.87, -172.61)" d="m 143.87 155.18 c -5.93 -53.7 -1.93 -101.25 -1.93 -101.25 l -122.31 18.817 s -8.296 46.037 -4.704 113.85 c 3.592 67.811 8.542 104.7 8.542 104.7 l 132.25 -53.727 s -5.923 -28.673 -11.847 -82.381 z m -102.29 -62.006 c -4.611 0.826 -9.079 -2.594 -9.982 -7.638 c -0.902 -5.043 2.103 -9.801 6.713 -10.626 c 4.609 -0.825 9.078 2.595 9.981 7.638 c 0.902 5.044 -2.103 9.801 -6.712 10.626 z m 25.273 -4.834 c -4.396 0.787 -8.656 -2.474 -9.517 -7.283 c -0.86 -4.808 2.005 -9.344 6.4 -10.13 c 4.395 -0.787 8.655 2.474 9.516 7.282 c 0.86 4.809 -2.004 9.345 -6.399 10.131 z m 23.316 -4.442 c -4.101 0.734 -8.075 -2.307 -8.878 -6.793 c -0.802 -4.485 1.87 -8.718 5.971 -9.451 c 4.1 -0.733 8.075 2.308 8.877 6.793 c 0.802 4.487 -1.87 8.718 -5.97 9.451 z m 21.948 -4.389 c -3.833 0.687 -7.546 -2.156 -8.298 -6.349 c -0.748 -4.191 1.748 -8.146 5.58 -8.832 s 7.546 2.157 8.297 6.349 c 0.75 4.193 -1.748 8.146 -5.579 8.832 z m 20.613 -4.701 c -3.686 0.66 -7.256 -2.073 -7.978 -6.104 c -0.72 -4.03 1.681 -7.833 5.365 -8.492 s 7.256 2.074 7.977 6.104 c 0.721 4.031 -1.68 7.833 -5.364 8.492 z" stroke-linecap="round" />
</g>
		<g transform="matrix(1 0 0 1 -7.45 6.22)" id="path27"  >
<linearGradient id="SVGID_linearGradient2781_562" gradientUnits="userSpaceOnUse" gradientTransform="matrix(1 0 0 1 0 0)"  x1="93.057" y1="309.62" x2="84.811" y2="103.46">
<stop offset="0.5599999999999999%" style="stop-color:rgb(240,235,211);stop-opacity: 1"/>
<stop offset="38.11%" style="stop-color:rgb(221,216,192);stop-opacity: 1"/>
<stop offset="100%" style="stop-color:rgb(181,176,152);stop-opacity: 1"/>
</linearGradient>
<path style="stroke: rgb(0,0,0); stroke-width: 1.1021; stroke-dasharray: none; stroke-linecap: square; stroke-dashoffset: 0; stroke-linejoin: bevel; stroke-miterlimit: 4; fill: url(#SVGID_linearGradient2781_562); fill-rule: nonzero; opacity: 1;"  transform=" translate(-88.61, -173.16)" d="m 147.73 155.18 c -5.93 -53.7 -4.14 -101.25 -4.14 -101.25 l -122.31 18.817 s -6.092 46.037 -2.5 113.85 c 3.592 67.811 8.541 105.8 8.541 105.8 l 132.25 -53.727 c 0.001 0 -5.922 -29.775 -11.845 -83.483 z m -104.5 -62.006 c -4.611 0.826 -9.079 -2.594 -9.982 -7.638 c -0.902 -5.043 2.102 -9.801 6.712 -10.626 s 9.079 2.595 9.981 7.638 c 0.904 5.044 -2.102 9.801 -6.711 10.626 z m 25.273 -4.834 c -4.396 0.787 -8.656 -2.474 -9.517 -7.283 c -0.86 -4.808 2.004 -9.344 6.4 -10.13 c 4.395 -0.787 8.655 2.474 9.515 7.282 c 0.862 4.809 -2.004 9.345 -6.398 10.131 z m 23.316 -4.442 c -4.101 0.734 -8.075 -2.307 -8.878 -6.793 c -0.802 -4.485 1.87 -8.718 5.971 -9.451 c 4.1 -0.733 8.075 2.308 8.877 6.793 c 0.802 4.487 -1.87 8.718 -5.97 9.451 z m 21.949 -4.389 c -3.833 0.687 -7.547 -2.156 -8.297 -6.349 c -0.75 -4.191 1.748 -8.146 5.579 -8.832 s 7.546 2.157 8.296 6.349 c 0.75 4.193 -1.748 8.146 -5.578 8.832 z m 20.612 -4.701 c -3.685 0.66 -7.255 -2.073 -7.978 -6.104 c -0.721 -4.03 1.682 -7.833 5.365 -8.492 c 3.685 -0.659 7.256 2.074 7.977 6.104 c 0.721 4.031 -1.68 7.833 -5.364 8.492 z" stroke-linecap="round" />
</g>
		<g transform="matrix(1 0 0 1 -4.34 6.49)" id="path36"  >
<linearGradient id="SVGID_linearGradient2783_563" gradientUnits="userSpaceOnUse" gradientTransform="matrix(1 0 0 1 0 0)"  x1="96.366" y1="310.22" x2="88.097" y2="103.51">
<stop offset="0.5599999999999999%" style="stop-color:rgb(240,235,211);stop-opacity: 1"/>
<stop offset="38.11%" style="stop-color:rgb(221,216,192);stop-opacity: 1"/>
<stop offset="100%" style="stop-color:rgb(181,176,152);stop-opacity: 1"/>
</linearGradient>
<path style="stroke: rgb(0,0,0); stroke-width: 1.1021; stroke-dasharray: none; stroke-linecap: square; stroke-dashoffset: 0; stroke-linejoin: bevel; stroke-miterlimit: 4; fill: url(#SVGID_linearGradient2783_563); fill-rule: nonzero; opacity: 1;"  transform=" translate(-91.72, -173.44)" d="m 151.03 155.74 c -5.92 -53.71 -6.34 -101.81 -6.34 -101.81 l -122.31 18.817 s -3.888 46.588 -0.295 114.4 c 3.593 67.809 8.541 105.8 8.541 105.8 l 132.25 -53.73 c 0 0.001 -5.923 -29.775 -11.848 -83.482 z m -106.7 -62.566 c -4.611 0.826 -9.079 -2.594 -9.981 -7.638 c -0.902 -5.043 2.103 -9.801 6.713 -10.626 c 4.609 -0.825 9.078 2.595 9.981 7.638 c 0.902 5.044 -2.104 9.801 -6.713 10.626 z m 25.273 -4.834 c -4.396 0.787 -8.656 -2.474 -9.517 -7.283 c -0.86 -4.808 2.005 -9.344 6.4 -10.13 c 4.395 -0.787 8.655 2.474 9.516 7.282 c 0.861 4.809 -2.004 9.345 -6.399 10.131 z m 23.316 -4.442 c -4.101 0.734 -8.075 -2.307 -8.878 -6.793 c -0.802 -4.485 1.87 -8.718 5.971 -9.451 c 4.1 -0.733 8.075 2.308 8.877 6.793 c 0.802 4.487 -1.87 8.718 -5.97 9.451 z m 21.948 -4.389 c -3.832 0.687 -7.545 -2.156 -8.297 -6.349 c -0.749 -4.191 1.748 -8.146 5.58 -8.832 c 3.831 -0.686 7.545 2.157 8.296 6.349 c 0.75 4.193 -1.748 8.146 -5.579 8.832 z m 20.613 -4.701 c -3.686 0.66 -7.256 -2.073 -7.979 -6.104 c -0.72 -4.03 1.682 -7.833 5.365 -8.492 c 3.686 -0.659 7.256 2.074 7.977 6.104 c 0.722 4.031 -1.679 7.833 -5.363 8.492 z" stroke-linecap="round" />
</g>
		<g transform="matrix(1 0 0 1 -2.01 7.05)" id="path45"  >
<linearGradient id="SVGID_linearGradient2785_564" gradientUnits="userSpaceOnUse" gradientTransform="matrix(1 0 0 1 0 0)"  x1="98.846" y1="310.79" x2="90.575" y2="104.02">
<stop offset="0.5599999999999999%" style="stop-color:rgb(240,235,211);stop-opacity: 1"/>
<stop offset="38.11%" style="stop-color:rgb(221,216,192);stop-opacity: 1"/>
<stop offset="100%" style="stop-color:rgb(181,176,152);stop-opacity: 1"/>
</linearGradient>
<path style="stroke: rgb(0,0,0); stroke-width: 1.1021; stroke-dasharray: none; stroke-linecap: square; stroke-dashoffset: 0; stroke-linejoin: bevel; stroke-miterlimit: 4; fill: url(#SVGID_linearGradient2785_564); fill-rule: nonzero; opacity: 1;"  transform=" translate(-94.04, -173.99)" d="m 153.24 156.29 c -5.924 -53.708 -7.44 -101.8 -7.44 -101.8 l -122.32 18.808 s -2.785 46.588 0.807 114.4 c 3.592 67.809 9.092 105.8 9.092 105.8 l 132.25 -53.728 c 0.001 0.001 -6.473 -29.774 -12.398 -83.482 z m -107.8 -62.56 c -4.61 0.825 -9.078 -2.595 -9.981 -7.638 c -0.902 -5.043 2.103 -9.801 6.713 -10.626 c 4.609 -0.825 9.078 2.595 9.981 7.638 c 0.902 5.044 -2.104 9.8 -6.713 10.626 z m 25.273 -4.835 c -4.396 0.787 -8.656 -2.473 -9.517 -7.282 c -0.86 -4.808 2.005 -9.344 6.4 -10.131 c 4.395 -0.786 8.656 2.474 9.516 7.282 c 0.861 4.809 -2.004 9.344 -6.399 10.131 z m 23.312 -4.445 c -4.101 0.734 -8.075 -2.308 -8.878 -6.794 c -0.802 -4.485 1.871 -8.717 5.971 -9.451 c 4.1 -0.733 8.075 2.308 8.876 6.794 c 0.804 4.486 -1.869 8.717 -5.969 9.451 z m 21.949 -4.39 c -3.833 0.686 -7.546 -2.156 -8.298 -6.349 c -0.748 -4.192 1.748 -8.146 5.58 -8.832 s 7.546 2.157 8.297 6.349 c 0.75 4.192 -1.748 8.147 -5.579 8.832 z m 20.612 -4.701 c -3.686 0.66 -7.256 -2.073 -7.978 -6.104 c -0.72 -4.03 1.681 -7.833 5.366 -8.492 c 3.684 -0.659 7.255 2.074 7.977 6.104 c 0.721 4.031 -1.68 7.833 -5.365 8.492 z" stroke-linecap="round" />
</g>
		<g transform="matrix(1 0 0 1 -0.35 6.7)" id="path54"  >
<linearGradient id="SVGID_linearGradient2787_565" gradientUnits="userSpaceOnUse" gradientTransform="matrix(1 0 0 1 0 0)"  x1="100.47" y1="310.12" x2="92.223" y2="103.89">
<stop offset="0.5599999999999999%" style="stop-color:rgb(240,235,211);stop-opacity: 1"/>
<stop offset="38.11%" style="stop-color:rgb(221,216,192);stop-opacity: 1"/>
<stop offset="100%" style="stop-color:rgb(181,176,152);stop-opacity: 1"/>
</linearGradient>
<path style="stroke: rgb(0,0,0); stroke-width: 1.1021; stroke-dasharray: none; stroke-linecap: square; stroke-dashoffset: 0; stroke-linejoin: bevel; stroke-miterlimit: 4; fill: url(#SVGID_linearGradient2787_565); fill-rule: nonzero; opacity: 1;"  transform=" translate(-95.7, -173.64)" d="m 154.89 156.29 c -5.93 -53.71 -7.44 -101.81 -7.44 -101.81 l -122.31 18.818 s -2.785 46.588 0.807 114.4 c 3.596 67.871 5.489 67.269 10.968 105.11 l 130.38 -53.04 c -0.001 0.001 -6.476 -29.774 -12.399 -83.482 z m -107.8 -62.564 c -4.611 0.825 -9.079 -2.595 -9.981 -7.638 s 2.103 -9.801 6.713 -10.626 c 4.609 -0.825 9.078 2.595 9.981 7.638 c 0.902 5.044 -2.103 9.8 -6.713 10.626 z m 25.273 -4.835 c -4.396 0.787 -8.655 -2.473 -9.517 -7.282 c -0.86 -4.808 2.005 -9.344 6.4 -10.131 c 4.395 -0.786 8.655 2.474 9.516 7.282 c 0.861 4.809 -2.004 9.344 -6.399 10.131 z m 23.316 -4.441 c -4.101 0.734 -8.075 -2.308 -8.878 -6.794 c -0.802 -4.485 1.87 -8.717 5.971 -9.451 c 4.1 -0.733 8.075 2.308 8.877 6.794 c 0.803 4.486 -1.87 8.717 -5.97 9.451 z m 21.949 -4.39 c -3.833 0.686 -7.546 -2.156 -8.297 -6.349 c -0.75 -4.192 1.748 -8.146 5.579 -8.832 s 7.546 2.157 8.296 6.349 s -1.748 8.147 -5.578 8.832 z m 20.612 -4.701 c -3.685 0.66 -7.255 -2.073 -7.978 -6.104 c -0.721 -4.03 1.682 -7.833 5.365 -8.492 c 3.685 -0.659 7.256 2.074 7.977 6.104 c 0.721 4.031 -1.679 7.833 -5.364 8.492 z" stroke-linecap="round" />
</g>
		<g transform="matrix(1 0 0 1 4.66 6.35)" id="path63"  >
<linearGradient id="SVGID_linearGradient2789_566" gradientUnits="userSpaceOnUse" gradientTransform="matrix(1 0 0 1 0 0)"  x1="106.39" y1="309.95" x2="98.121" y2="103.29">
<stop offset="0.5599999999999999%" style="stop-color:rgb(240,235,211);stop-opacity: 1"/>
<stop offset="38.11%" style="stop-color:rgb(221,216,192);stop-opacity: 1"/>
<stop offset="100%" style="stop-color:rgb(181,176,152);stop-opacity: 1"/>
</linearGradient>
<path style="stroke: rgb(0,0,0); stroke-width: 1.1021; stroke-dasharray: none; stroke-linecap: square; stroke-dashoffset: 0; stroke-linejoin: bevel; stroke-miterlimit: 4; fill: url(#SVGID_linearGradient2789_566); fill-rule: nonzero; opacity: 1;"  transform=" translate(-100.72, -173.29)" d="m 159.85 154.63 c -5.93 -53.71 -10.19 -100.7 -10.19 -100.7 l -122.32 18.817 s -0.031 46.313 3.562 114.12 c 3.592 67.81 10.136 105.79 10.136 105.79 l 133.06 -53.764 c -0.001 0.001 -8.332 -30.554 -14.255 -84.262 z m -110.56 -61.456 c -4.61 0.826 -9.078 -2.594 -9.981 -7.638 c -0.902 -5.043 2.103 -9.801 6.713 -10.626 c 4.609 -0.825 9.079 2.595 9.981 7.638 c 0.903 5.044 -2.103 9.801 -6.713 10.626 z m 25.274 -4.834 c -4.396 0.787 -8.656 -2.474 -9.517 -7.283 c -0.86 -4.808 2.004 -9.344 6.4 -10.13 c 4.395 -0.787 8.656 2.474 9.516 7.282 c 0.861 4.809 -2.005 9.345 -6.399 10.131 z m 23.316 -4.442 c -4.101 0.734 -8.075 -2.307 -8.878 -6.793 c -0.802 -4.485 1.871 -8.718 5.971 -9.451 s 8.074 2.308 8.876 6.793 c 0.803 4.487 -1.87 8.718 -5.969 9.451 z m 21.948 -4.389 c -3.833 0.687 -7.546 -2.156 -8.298 -6.349 c -0.748 -4.191 1.748 -8.146 5.58 -8.832 s 7.547 2.157 8.297 6.349 c 0.75 4.193 -1.748 8.146 -5.579 8.832 z m 20.612 -4.701 c -3.686 0.66 -7.256 -2.073 -7.978 -6.104 c -0.72 -4.03 1.682 -7.833 5.366 -8.492 s 7.255 2.074 7.977 6.104 c 0.721 4.031 -1.68 7.833 -5.365 8.492 z" stroke-linecap="round" />
</g>
		<g transform="matrix(1 0 0 1 6.32 5.25)" id="path72"  >
<linearGradient id="SVGID_linearGradient2791_567" gradientUnits="userSpaceOnUse" gradientTransform="matrix(1 0 0 1 0 0)"  x1="108.04" y1="308.84" x2="99.774" y2="102.19">
<stop offset="0.5599999999999999%" style="stop-color:rgb(240,235,211);stop-opacity: 1"/>
<stop offset="38.11%" style="stop-color:rgb(221,216,192);stop-opacity: 1"/>
<stop offset="100%" style="stop-color:rgb(181,176,152);stop-opacity: 1"/>
</linearGradient>
<path style="stroke: rgb(0,0,0); stroke-width: 1.1021; stroke-dasharray: none; stroke-linecap: square; stroke-dashoffset: 0; stroke-linejoin: bevel; stroke-miterlimit: 4; fill: url(#SVGID_linearGradient2791_567); fill-rule: nonzero; opacity: 1;"  transform=" translate(-102.38, -172.19)" d="m 161.5 153.53 c -5.92 -53.707 -10.19 -100.7 -10.19 -100.7 l -122.31 18.815 s -0.03 46.313 3.562 114.12 c 3.592 67.811 10.136 105.79 10.136 105.79 l 133.06 -53.765 s -8.331 -30.554 -14.256 -84.262 z m -110.55 -61.458 c -4.61 0.826 -9.078 -2.594 -9.981 -7.638 c -0.902 -5.043 2.103 -9.801 6.713 -10.626 c 4.609 -0.825 9.078 2.595 9.981 7.638 c 0.902 5.044 -2.104 9.801 -6.713 10.626 z m 25.273 -4.834 c -4.396 0.787 -8.656 -2.473 -9.517 -7.282 c -0.86 -4.808 2.005 -9.344 6.4 -10.131 c 4.395 -0.786 8.655 2.474 9.516 7.282 c 0.861 4.809 -2.004 9.345 -6.399 10.131 z m 23.316 -4.442 c -4.101 0.734 -8.075 -2.308 -8.878 -6.794 c -0.802 -4.485 1.871 -8.717 5.971 -9.451 c 4.1 -0.733 8.075 2.309 8.877 6.794 c 0.803 4.487 -1.87 8.718 -5.97 9.451 z m 21.948 -4.389 c -3.832 0.686 -7.546 -2.156 -8.297 -6.349 c -0.75 -4.191 1.748 -8.146 5.579 -8.832 s 7.546 2.157 8.296 6.349 c 0.751 4.193 -1.748 8.146 -5.578 8.832 z m 20.613 -4.701 c -3.685 0.66 -7.255 -2.073 -7.978 -6.104 c -0.72 -4.03 1.682 -7.833 5.365 -8.492 c 3.685 -0.66 7.256 2.074 7.977 6.104 c 0.721 4.031 -1.68 7.833 -5.364 8.492 z" stroke-linecap="round" />
</g>
		<g transform="matrix(1 0 0 1 8.52 4.7)" id="path81"  >
<linearGradient id="SVGID_linearGradient2793_568" gradientUnits="userSpaceOnUse" gradientTransform="matrix(1 0 0 1 0 0)"  x1="110.25" y1="308.29" x2="101.98" y2="101.64">
<stop offset="0.5599999999999999%" style="stop-color:rgb(240,235,211);stop-opacity: 1"/>
<stop offset="38.11%" style="stop-color:rgb(221,216,192);stop-opacity: 1"/>
<stop offset="100%" style="stop-color:rgb(181,176,152);stop-opacity: 1"/>
</linearGradient>
<path style="stroke: rgb(0,0,0); stroke-width: 1.1021; stroke-dasharray: none; stroke-linecap: square; stroke-dashoffset: 0; stroke-linejoin: bevel; stroke-miterlimit: 4; fill: url(#SVGID_linearGradient2793_568); fill-rule: nonzero; opacity: 1;"  transform=" translate(-104.58, -171.64)" d="m 163.71 152.98 c -5.93 -53.708 -10.2 -100.7 -10.2 -100.7 l -122.31 18.814 s -0.031 46.313 3.562 114.12 c 3.592 67.811 10.136 105.79 10.136 105.79 l 133.06 -53.765 s -8.331 -30.554 -14.255 -84.262 z m -110.56 -61.459 c -4.611 0.826 -9.079 -2.594 -9.981 -7.638 c -0.903 -5.043 2.102 -9.801 6.712 -10.626 s 9.079 2.595 9.981 7.638 c 0.903 5.044 -2.103 9.801 -6.712 10.626 z m 25.273 -4.834 c -4.396 0.787 -8.656 -2.474 -9.517 -7.282 c -0.86 -4.808 2.004 -9.345 6.4 -10.131 c 4.395 -0.786 8.655 2.474 9.515 7.282 c 0.862 4.809 -2.003 9.344 -6.398 10.131 z m 23.316 -4.442 c -4.101 0.734 -8.075 -2.307 -8.878 -6.793 c -0.802 -4.485 1.871 -8.717 5.971 -9.451 c 4.1 -0.733 8.074 2.308 8.877 6.793 c 0.803 4.486 -1.87 8.717 -5.97 9.451 z m 21.948 -4.389 c -3.833 0.686 -7.546 -2.156 -8.297 -6.349 c -0.749 -4.192 1.747 -8.147 5.579 -8.833 s 7.547 2.157 8.297 6.349 c 0.751 4.193 -1.747 8.147 -5.579 8.833 z m 20.613 -4.701 c -3.686 0.66 -7.255 -2.073 -7.977 -6.104 c -0.721 -4.03 1.681 -7.833 5.365 -8.492 s 7.255 2.074 7.977 6.104 c 0.721 4.031 -1.681 7.833 -5.365 8.492 z" stroke-linecap="round" />
</g>
		<g transform="matrix(1 0 0 1 18.45 5.94)" id="path98"  >
<radialGradient id="SVGID_radialGradient2905_569" gradientUnits="userSpaceOnUse" gradientTransform="matrix(1 0 0 1 -4.84 -18.23)"  cx="139.23" cy="72.367" r="173.45" fx="139.23" fy="72.367">
<stop offset="0.5599999999999999%" style="stop-color:rgb(195,232,179);stop-opacity: 1"/>
<stop offset="14.069999999999999%" style="stop-color:rgb(169,229,144);stop-opacity: 1"/>
<stop offset="34.239999999999995%" style="stop-color:rgb(134,226,97);stop-opacity: 1"/>
<stop offset="53.53%" style="stop-color:rgb(107,223,61);stop-opacity: 1"/>
<stop offset="71.44%" style="stop-color:rgb(88,221,34);stop-opacity: 1"/>
<stop offset="87.46000000000001%" style="stop-color:rgb(76,219,19);stop-opacity: 1"/>
<stop offset="100%" style="stop-color:rgb(72,219,13);stop-opacity: 1"/>
</radialGradient>
<path style="stroke: rgb(0,0,0); stroke-width: 1.1021; stroke-dasharray: none; stroke-linecap: square; stroke-dashoffset: 0; stroke-linejoin: bevel; stroke-miterlimit: 4; fill: url(#SVGID_radialGradient2905_569); fill-rule: nonzero; opacity: 0.66;"  transform=" translate(-109.66, -154.65)" d="m 147.29 35.696 l -122.31 18.817 l 36.291 219.09 l 133.06 -53.763 l -47.044 -184.14 z m -100.36 39.244 c -4.611 0.826 -9.079 -2.594 -9.981 -7.638 c -0.902 -5.043 2.103 -9.801 6.713 -10.626 c 4.609 -0.825 9.078 2.595 9.981 7.638 c 0.902 5.044 -2.103 9.801 -6.713 10.626 z m 25.274 -4.834 c -4.396 0.787 -8.656 -2.474 -9.517 -7.283 c -0.86 -4.808 2.005 -9.344 6.4 -10.13 c 4.395 -0.787 8.655 2.474 9.516 7.282 c 0.861 4.809 -2.005 9.345 -6.399 10.131 z m 23.316 -4.442 c -4.102 0.734 -8.076 -2.307 -8.879 -6.793 c -0.802 -4.485 1.87 -8.718 5.971 -9.451 c 4.1 -0.733 8.074 2.308 8.877 6.793 c 0.803 4.487 -1.869 8.718 -5.969 9.451 z m 21.948 -4.389 c -3.833 0.687 -7.546 -2.156 -8.297 -6.349 c -0.75 -4.191 1.748 -8.146 5.58 -8.832 c 3.831 -0.686 7.545 2.157 8.295 6.349 c 0.75 4.193 -1.747 8.146 -5.578 8.832 z m 20.613 -4.701 c -3.686 0.66 -7.256 -2.073 -7.979 -6.104 c -0.721 -4.03 1.682 -7.833 5.365 -8.492 c 3.685 -0.659 7.256 2.074 7.977 6.104 c 0.721 4.031 -1.68 7.833 -5.363 8.492 z" stroke-linecap="round" />
</g>
		<g transform="matrix(1 0 0 1 18.45 5.94)" id="path108"  >
<radialGradient id="SVGID_radialGradient2905_570" gradientUnits="userSpaceOnUse" gradientTransform="matrix(1 0 0 1 -4.84 -18.23)"  cx="139.23" cy="72.367" r="173.45" fx="139.23" fy="72.367">
<stop offset="0.5599999999999999%" style="stop-color:rgb(195,232,179);stop-opacity: 1"/>
<stop offset="14.069999999999999%" style="stop-color:rgb(169,229,144);stop-opacity: 1"/>
<stop offset="34.239999999999995%" style="stop-color:rgb(134,226,97);stop-opacity: 1"/>
<stop offset="53.53%" style="stop-color:rgb(107,223,61);stop-opacity: 1"/>
<stop offset="71.44%" style="stop-color:rgb(88,221,34);stop-opacity: 1"/>
<stop offset="87.46000000000001%" style="stop-color:rgb(76,219,19);stop-opacity: 1"/>
<stop offset="100%" style="stop-color:rgb(72,219,13);stop-opacity: 1"/>
</radialGradient>
<path style="stroke: rgb(0,0,0); stroke-width: 1.1021; stroke-dasharray: none; stroke-linecap: square; stroke-dashoffset: 0; stroke-linejoin: bevel; stroke-miterlimit: 4; fill: url(#SVGID_radialGradient2905_570); fill-rule: nonzero; opacity: 0.66;"  transform=" translate(-109.66, -154.65)" d="m 147.29 35.696 l -122.31 18.817 l 36.291 219.09 l 133.06 -53.763 l -47.044 -184.14 z m -100.36 39.244 c -4.611 0.826 -9.079 -2.594 -9.981 -7.638 c -0.902 -5.043 2.103 -9.801 6.713 -10.626 c 4.609 -0.825 9.078 2.595 9.981 7.638 c 0.902 5.044 -2.103 9.801 -6.713 10.626 z m 25.274 -4.834 c -4.396 0.787 -8.656 -2.474 -9.517 -7.283 c -0.86 -4.808 2.005 -9.344 6.4 -10.13 c 4.395 -0.787 8.655 2.474 9.516 7.282 c 0.861 4.809 -2.005 9.345 -6.399 10.131 z m 23.316 -4.442 c -4.102 0.734 -8.076 -2.307 -8.879 -6.793 c -0.802 -4.485 1.87 -8.718 5.971 -9.451 c 4.1 -0.733 8.074 2.308 8.877 6.793 c 0.803 4.487 -1.869 8.718 -5.969 9.451 z m 21.948 -4.389 c -3.833 0.687 -7.546 -2.156 -8.297 -6.349 c -0.75 -4.191 1.748 -8.146 5.58 -8.832 c 3.831 -0.686 7.545 2.157 8.295 6.349 c 0.75 4.193 -1.747 8.146 -5.578 8.832 z m 20.613 -4.701 c -3.686 0.66 -7.256 -2.073 -7.979 -6.104 c -0.721 -4.03 1.682 -7.833 5.365 -8.492 c 3.685 -0.659 7.256 2.074 7.977 6.104 c 0.721 4.031 -1.68 7.833 -5.363 8.492 z" stroke-linecap="round" />
</g>
		<g transform="matrix(1 0 0 1 18.84 3.55)" id="path110"  >
<path style="stroke: none; stroke-width: 1; stroke-dasharray: none; stroke-linecap: butt; stroke-dashoffset: 0; stroke-linejoin: miter; stroke-miterlimit: 4; fill: rgb(50,168,2); fill-rule: nonzero; opacity: 0.36;"  transform=" translate(-110.05, -152.26)" d="m 164.26 96.49 c -0.289 -1.183 -1.481 -1.907 -2.664 -1.619 l -121.57 29.669 c -1.183 0.289 -1.907 1.481 -1.619 2.665 c 0.289 1.183 1.481 1.907 2.664 1.619 l 121.56 -29.665 c 1.184 -0.289 1.908 -1.482 1.62 -2.665 z m -5.222 -20.242 c -0.254 -1.19 -1.426 -1.949 -2.616 -1.695 l -120.39 25.747 c -1.19 0.255 -1.949 1.426 -1.695 2.617 c 0.255 1.19 1.426 1.949 2.617 1.695 l 120.4 -25.745 c 1.19 -0.255 1.949 -1.426 1.694 -2.617 z m 10.441 40.434 c -0.322 -1.174 -1.535 -1.865 -2.709 -1.543 l -122.77 33.665 c -1.174 0.323 -1.865 1.535 -1.543 2.709 s 1.535 1.864 2.709 1.543 l 122.77 -33.666 c 1.174 -0.322 1.864 -1.534 1.543 -2.708 z m 10.293 40.098 c -0.395 -1.151 -1.647 -1.767 -2.8 -1.372 l -124.7 42.654 c -1.152 0.395 -1.766 1.647 -1.372 2.799 s 1.647 1.767 2.799 1.373 l 124.7 -42.655 c 1.151 -0.394 1.766 -1.648 1.372 -2.799 z m 9.887 41.105 c -0.441 -1.134 -1.72 -1.696 -2.854 -1.253 l -126.61 49.32 c -1.134 0.441 -1.696 1.721 -1.254 2.854 s 1.72 1.696 2.854 1.253 l 126.61 -49.32 c 1.136 -0.441 1.697 -1.72 1.255 -2.854 z m -14.961 -61.009 c -0.354 -1.165 -1.585 -1.822 -2.75 -1.469 l -123.85 37.618 c -1.165 0.354 -1.822 1.586 -1.469 2.75 c 0.354 1.166 1.585 1.822 2.75 1.469 l 123.85 -37.618 c 1.165 -0.354 1.822 -1.585 1.469 -2.75 z m 10.159 40.813 c -0.412 -1.146 -1.675 -1.741 -2.82 -1.329 l -126.06 45.325 c -1.146 0.412 -1.741 1.675 -1.329 2.82 c 0.412 1.146 1.674 1.74 2.82 1.328 l 126.06 -45.325 c 1.145 -0.411 1.74 -1.675 1.328 -2.819 z m -30.627 -121.57 c -0.218 -1.198 -1.365 -1.993 -2.563 -1.775 l -119.57 21.701 c -1.198 0.217 -1.993 1.365 -1.775 2.563 s 1.365 1.993 2.563 1.775 l 119.57 -21.702 c 1.198 -0.217 1.993 -1.365 1.775 -2.562 z" stroke-linecap="round" />
</g>
		<g transform="matrix(1 0 0 1 24.34 -28.83)" id="path117"  >
<radialGradient id="SVGID_radialGradient2893_571" gradientUnits="userSpaceOnUse" gradientTransform="matrix(1 0 0 1 -4.84 -18.23)"  cx="140.46" cy="67.967" r="113.09" fx="140.46" fy="67.967">
<stop offset="0.5599999999999999%" style="stop-color:rgb(53,171,0);stop-opacity: 0"/>
<stop offset="100%" style="stop-color:rgb(255,255,255);stop-opacity: 0.43902"/>
</radialGradient>
<path style="stroke: none; stroke-width: 1; stroke-dasharray: none; stroke-linecap: butt; stroke-dashoffset: 0; stroke-linejoin: miter; stroke-miterlimit: 4; fill: url(#SVGID_radialGradient2893_571); fill-rule: nonzero; opacity: 1;"  transform=" translate(-115.55, -119.88)" d="m 149.17 32.675 l -111.87 17.634 c 0.707 2.845 1.464 5.671 2.261 8.481 c 1.114 -1.07 2.505 -1.83 4.096 -2.115 c 4.609 -0.825 9.078 2.595 9.981 7.638 c 0.902 5.044 -2.103 9.801 -6.712 10.626 c -0.736 0.132 -1.467 0.145 -2.183 0.07 c 22.821 63.902 70.92 115.97 149.06 132.08 l -44.637 -174.41 z m -76.969 37.431 c -4.396 0.787 -8.656 -2.474 -9.517 -7.283 c -0.86 -4.808 2.005 -9.344 6.4 -10.13 c 4.395 -0.787 8.655 2.474 9.516 7.282 c 0.861 4.809 -2.005 9.345 -6.399 10.131 z m 23.316 -4.442 c -4.102 0.734 -8.076 -2.307 -8.879 -6.793 c -0.802 -4.485 1.87 -8.718 5.971 -9.451 c 4.1 -0.733 8.074 2.308 8.877 6.793 c 0.803 4.487 -1.869 8.718 -5.969 9.451 z m 21.948 -4.389 c -3.833 0.687 -7.546 -2.156 -8.297 -6.349 c -0.75 -4.191 1.748 -8.146 5.58 -8.832 c 3.831 -0.686 7.545 2.157 8.295 6.349 c 0.75 4.193 -1.747 8.146 -5.578 8.832 z m 20.613 -4.701 c -3.686 0.66 -7.256 -2.073 -7.979 -6.104 c -0.721 -4.03 1.682 -7.833 5.365 -8.492 c 3.685 -0.659 7.256 2.074 7.977 6.104 c 0.721 4.031 -1.68 7.833 -5.363 8.492 z" stroke-linecap="round" />
</g>
		<g transform="matrix(1 0 0 1 0.62 -90.51)" id="path123"  >
<path style="stroke: none; stroke-width: 1; stroke-dasharray: none; stroke-linecap: butt; stroke-dashoffset: 0; stroke-linejoin: miter; stroke-miterlimit: 4; fill: rgb(161,255,161); fill-rule: nonzero; opacity: 0.6;"  transform=" translate(-96.68, -76.43)" d="m 45.099 84.985 c -0.798 -4.461 1.464 -8.694 5.188 -10.184 c -0.586 -0.03 -1.183 0.001 -1.782 0.109 c -4.61 0.825 -7.615 5.583 -6.713 10.626 c 0.903 5.044 5.371 8.464 9.981 7.638 c 0.531 -0.095 1.039 -0.248 1.524 -0.442 c -3.928 -0.203 -7.413 -3.359 -8.198 -7.747 z m 32.138 -14.609 c -0.539 0.096 -1.054 0.25 -1.543 0.454 c 3.719 0.225 7.008 3.221 7.752 7.38 c 0.755 4.219 -1.359 8.227 -4.857 9.677 c 0.581 0.035 1.17 0.009 1.764 -0.098 c 4.395 -0.787 7.26 -5.322 6.399 -10.131 c -0.86 -4.808 -5.121 -8.068 -9.515 -7.282 z m -25.426 3.983 c -0.531 0.095 -1.039 0.248 -1.524 0.442 c 3.929 0.204 7.414 3.359 8.199 7.747 c 0.798 4.462 -1.465 8.695 -5.188 10.184 c 0.587 0.031 1.183 -0.002 1.783 -0.109 c 4.609 -0.825 7.615 -5.582 6.712 -10.626 c -0.903 -5.043 -5.372 -8.463 -9.982 -7.638 z m 19.025 6.148 c -0.754 -4.218 1.359 -8.227 4.857 -9.677 c -0.58 -0.035 -1.17 -0.009 -1.763 0.098 c -4.396 0.786 -7.26 5.323 -6.4 10.13 c 0.861 4.809 5.121 8.07 9.517 7.283 c 0.539 -0.097 1.054 -0.251 1.542 -0.454 c -3.719 -0.225 -7.008 -3.22 -7.753 -7.38 z m 29.926 -13.404 c -0.543 0.097 -1.059 0.259 -1.546 0.471 c 3.421 0.265 6.431 3.037 7.117 6.874 c 0.697 3.893 -1.226 7.59 -4.424 8.98 c 0.578 0.045 1.168 0.026 1.761 -0.08 c 4.101 -0.733 6.772 -4.964 5.97 -9.451 c -0.804 -4.486 -4.779 -7.528 -8.878 -6.794 z m -5.971 9.451 c -0.696 -3.892 1.226 -7.589 4.425 -8.98 c -0.579 -0.045 -1.167 -0.026 -1.76 0.08 c -4.101 0.733 -6.773 4.966 -5.971 9.451 c 0.803 4.486 4.777 7.528 8.879 6.793 c 0.541 -0.097 1.057 -0.259 1.545 -0.471 c -3.423 -0.264 -6.431 -3.036 -7.118 -6.873 z m 56.803 -10.789 c -0.721 -4.031 -4.293 -6.764 -7.977 -6.104 c -0.545 0.098 -1.059 0.271 -1.541 0.497 c 2.998 0.321 5.607 2.779 6.211 6.158 c 0.615 3.435 -1.041 6.696 -3.822 7.995 c 0.578 0.062 1.17 0.053 1.766 -0.054 c 3.683 -0.659 6.083 -4.461 5.363 -8.492 z m -28.69 -1.988 c -0.545 0.098 -1.059 0.268 -1.543 0.488 c 3.147 0.302 5.897 2.871 6.531 6.412 c 0.645 3.597 -1.106 7.012 -4.035 8.344 c 0.578 0.056 1.168 0.043 1.764 -0.063 c 3.831 -0.686 6.328 -4.64 5.578 -8.833 c -0.75 -4.191 -4.464 -7.034 -8.295 -6.348 z m -5.58 8.832 c -0.643 -3.596 1.107 -7.012 4.037 -8.344 c -0.579 -0.056 -1.17 -0.043 -1.764 0.063 c -3.832 0.686 -6.33 4.641 -5.58 8.832 c 0.751 4.193 4.464 7.035 8.297 6.349 c 0.544 -0.097 1.058 -0.267 1.543 -0.488 c -3.148 -0.301 -5.899 -2.87 -6.533 -6.412 z m 20.932 -4.456 c -0.613 -3.434 1.043 -6.695 3.824 -7.995 c -0.578 -0.062 -1.17 -0.053 -1.766 0.054 c -3.684 0.659 -6.086 4.462 -5.365 8.492 c 0.723 4.032 4.293 6.764 7.979 6.104 c 0.545 -0.097 1.058 -0.271 1.541 -0.497 c -2.998 -0.32 -5.608 -2.779 -6.213 -6.158 z" stroke-linecap="round" />
</g>
		<g transform="matrix(1 0 0 1 19.91 5.26)" id="path127"  >
<path style="stroke: rgb(161,255,161); stroke-width: 3.3064; stroke-dasharray: none; stroke-linecap: square; stroke-dashoffset: 0; stroke-linejoin: bevel; stroke-miterlimit: 4; fill: none; fill-rule: nonzero; opacity: 0.6;"  transform=" translate(-115.97, -172.2)" d="m 31.382 71.708 c 0.543 3.22 36.462 216.11 37.128 220.06 c 3.669 -1.479 129.44 -52.198 132.04 -53.245 c -0.71 -2.75 -47.03 -183.05 -47.76 -185.89 c -2.86 0.447 -118.23 18.569 -121.41 19.068 z" stroke-linecap="round" />
</g>
		<g transform="matrix(1 0 0 1 40.03 -113.18)" id="path139" clip-path="url(#CLIPPATH_572)"  >
<clipPath id="CLIPPATH_572" >
	<path transform="matrix(1 0 0 1 -47.78 12) translate(-88.31, -65.76)" id="XMLID_15_" d="m 139.31 79.286 l -4.219 -10.03 s -0.66 -2.343 0.459 -5.327 s 4.692 -4.042 4.692 -4.042 l -1.119 -6.715 l -12.804 1.94 s 0.09 1.06 0.275 3.857 c 0.188 2.798 -0.137 4.409 -0.137 4.409 l 6.883 16.467 l -18.84 2.425 l 0.797 -5.667 l -1.147 -2.939 s -0.638 -3.212 0.184 -5.235 c 1.194 -2.939 4.458 -3.879 4.458 -3.879 l -0.934 -7.834 l -13.031 2.253 s 0.552 4.133 0.139 7.99 c -0.24 2.243 3.723 5.392 5.098 7.164 l -0.039 10.572 l -17.533 3.543 l -0.843 -9.89 s -0.643 -1.562 0.184 -5.511 c 0.771 -3.686 4.592 -4.776 4.592 -4.776 l -1.126 -7.615 l -14.295 2.242 l 1.24 6.613 l -1.24 5.648 l 7.021 16.46 l -20.891 2.425 l 0.644 -11.996 s -1.127 -3.534 0.551 -6.705 c 1.679 -3.17 4.214 -3.869 4.214 -3.869 l -1.492 -7.274 l -0.361 0.066 l -13.934 2.352 l 2.618 16.394 l 6.641 14.576 l -22.57 4.85 l -0.741 -14.055 s -1.791 -3.168 -0.367 -8.174 c 0.904 -3.179 5.025 -5.006 5.025 -5.006 l -0.373 -7.088 l -17.923 2.771 l 3.72 14.053 l 0.774 17.87 l -12.87 -58.756 l 126.09 -14.922 l 9.14 51.854 l -16.603 -1.491 z" stroke-linecap="round" />
</clipPath>
<path style="stroke: rgb(87,87,87); stroke-width: 7.2767; stroke-dasharray: none; stroke-linecap: butt; stroke-dashoffset: 0; stroke-linejoin: miter; stroke-miterlimit: 4; fill: none; fill-rule: nonzero; opacity: 1;"  transform=" translate(-136.09, -53.76)" d="m 142.83 52.581 c 1.398 7.991 -0.486 14.999 -4.211 15.65 c -3.726 0.651 -7.878 -5.299 -9.277 -13.29 c -1.396 -7.992 0.488 -14.999 4.215 -15.65 c 3.723 -0.651 7.876 5.298 9.273 13.29 z" stroke-linecap="round" />
</g>
		<g transform="matrix(1 0 0 1 18.84 -110.12)" id="path163" clip-path="url(#CLIPPATH_573)"  >
<clipPath id="CLIPPATH_573" >
	<path transform="matrix(1 0 0 1 -26.59 8.94) translate(-88.31, -65.76)" id="XMLID_15_" d="m 139.31 79.286 l -4.219 -10.03 s -0.66 -2.343 0.459 -5.327 s 4.692 -4.042 4.692 -4.042 l -1.119 -6.715 l -12.804 1.94 s 0.09 1.06 0.275 3.857 c 0.188 2.798 -0.137 4.409 -0.137 4.409 l 6.883 16.467 l -18.84 2.425 l 0.797 -5.667 l -1.147 -2.939 s -0.638 -3.212 0.184 -5.235 c 1.194 -2.939 4.458 -3.879 4.458 -3.879 l -0.934 -7.834 l -13.031 2.253 s 0.552 4.133 0.139 7.99 c -0.24 2.243 3.723 5.392 5.098 7.164 l -0.039 10.572 l -17.533 3.543 l -0.843 -9.89 s -0.643 -1.562 0.184 -5.511 c 0.771 -3.686 4.592 -4.776 4.592 -4.776 l -1.126 -7.615 l -14.295 2.242 l 1.24 6.613 l -1.24 5.648 l 7.021 16.46 l -20.891 2.425 l 0.644 -11.996 s -1.127 -3.534 0.551 -6.705 c 1.679 -3.17 4.214 -3.869 4.214 -3.869 l -1.492 -7.274 l -0.361 0.066 l -13.934 2.352 l 2.618 16.394 l 6.641 14.576 l -22.57 4.85 l -0.741 -14.055 s -1.791 -3.168 -0.367 -8.174 c 0.904 -3.179 5.025 -5.006 5.025 -5.006 l -0.373 -7.088 l -17.923 2.771 l 3.72 14.053 l 0.774 17.87 l -12.87 -58.756 l 126.09 -14.922 l 9.14 51.854 l -16.603 -1.491 z" stroke-linecap="round" />
</clipPath>
<path style="stroke: rgb(87,87,87); stroke-width: 7.7713; stroke-dasharray: none; stroke-linecap: butt; stroke-dashoffset: 0; stroke-linejoin: miter; stroke-miterlimit: 4; fill: none; fill-rule: nonzero; opacity: 1;"  transform=" translate(-114.9, -56.82)" d="m 122.1 55.559 c 1.493 8.534 -0.521 16.018 -4.499 16.714 c -3.979 0.696 -8.412 -5.659 -9.906 -14.193 c -1.493 -8.536 0.521 -16.018 4.5 -16.713 c 3.977 -0.698 8.41 5.657 9.905 14.192 z" stroke-linecap="round" />
</g>
		<g transform="matrix(1 0 0 1 -3.23 -106.4)" id="path187" clip-path="url(#CLIPPATH_574)"  >
<clipPath id="CLIPPATH_574" >
	<path transform="matrix(1 0 0 1 -4.52 5.21) translate(-88.31, -65.76)" id="XMLID_15_" d="m 139.31 79.286 l -4.219 -10.03 s -0.66 -2.343 0.459 -5.327 s 4.692 -4.042 4.692 -4.042 l -1.119 -6.715 l -12.804 1.94 s 0.09 1.06 0.275 3.857 c 0.188 2.798 -0.137 4.409 -0.137 4.409 l 6.883 16.467 l -18.84 2.425 l 0.797 -5.667 l -1.147 -2.939 s -0.638 -3.212 0.184 -5.235 c 1.194 -2.939 4.458 -3.879 4.458 -3.879 l -0.934 -7.834 l -13.031 2.253 s 0.552 4.133 0.139 7.99 c -0.24 2.243 3.723 5.392 5.098 7.164 l -0.039 10.572 l -17.533 3.543 l -0.843 -9.89 s -0.643 -1.562 0.184 -5.511 c 0.771 -3.686 4.592 -4.776 4.592 -4.776 l -1.126 -7.615 l -14.295 2.242 l 1.24 6.613 l -1.24 5.648 l 7.021 16.46 l -20.891 2.425 l 0.644 -11.996 s -1.127 -3.534 0.551 -6.705 c 1.679 -3.17 4.214 -3.869 4.214 -3.869 l -1.492 -7.274 l -0.361 0.066 l -13.934 2.352 l 2.618 16.394 l 6.641 14.576 l -22.57 4.85 l -0.741 -14.055 s -1.791 -3.168 -0.367 -8.174 c 0.904 -3.179 5.025 -5.006 5.025 -5.006 l -0.373 -7.088 l -17.923 2.771 l 3.72 14.053 l 0.774 17.87 l -12.87 -58.756 l 126.09 -14.922 l 9.14 51.854 l -16.603 -1.491 z" stroke-linecap="round" />
</clipPath>
<path style="stroke: rgb(87,87,87); stroke-width: 8.1125; stroke-dasharray: none; stroke-linecap: butt; stroke-dashoffset: 0; stroke-linejoin: miter; stroke-miterlimit: 4; fill: none; fill-rule: nonzero; opacity: 1;"  transform=" translate(-92.82, -60.55)" d="m 100.34 59.233 c 1.559 8.908 -0.543 16.721 -4.695 17.448 c -4.153 0.726 -8.783 -5.908 -10.342 -14.817 c -1.559 -8.91 0.544 -16.721 4.697 -17.447 c 4.152 -0.727 8.781 5.907 10.34 14.816 z" stroke-linecap="round" />
</g>
		<g transform="matrix(1 0 0 1 -27.31 -103.06)" id="path211" clip-path="url(#CLIPPATH_575)"  >
<clipPath id="CLIPPATH_575" >
	<path transform="matrix(1 0 0 1 19.56 1.87) translate(-88.31, -65.76)" id="XMLID_15_" d="m 139.31 79.286 l -4.219 -10.03 s -0.66 -2.343 0.459 -5.327 s 4.692 -4.042 4.692 -4.042 l -1.119 -6.715 l -12.804 1.94 s 0.09 1.06 0.275 3.857 c 0.188 2.798 -0.137 4.409 -0.137 4.409 l 6.883 16.467 l -18.84 2.425 l 0.797 -5.667 l -1.147 -2.939 s -0.638 -3.212 0.184 -5.235 c 1.194 -2.939 4.458 -3.879 4.458 -3.879 l -0.934 -7.834 l -13.031 2.253 s 0.552 4.133 0.139 7.99 c -0.24 2.243 3.723 5.392 5.098 7.164 l -0.039 10.572 l -17.533 3.543 l -0.843 -9.89 s -0.643 -1.562 0.184 -5.511 c 0.771 -3.686 4.592 -4.776 4.592 -4.776 l -1.126 -7.615 l -14.295 2.242 l 1.24 6.613 l -1.24 5.648 l 7.021 16.46 l -20.891 2.425 l 0.644 -11.996 s -1.127 -3.534 0.551 -6.705 c 1.679 -3.17 4.214 -3.869 4.214 -3.869 l -1.492 -7.274 l -0.361 0.066 l -13.934 2.352 l 2.618 16.394 l 6.641 14.576 l -22.57 4.85 l -0.741 -14.055 s -1.791 -3.168 -0.367 -8.174 c 0.904 -3.179 5.025 -5.006 5.025 -5.006 l -0.373 -7.088 l -17.923 2.771 l 3.72 14.053 l 0.774 17.87 l -12.87 -58.756 l 126.09 -14.922 l 9.14 51.854 l -16.603 -1.491 z" stroke-linecap="round" />
</clipPath>
<path style="stroke: rgb(87,87,87); stroke-width: 8.2806; stroke-dasharray: none; stroke-linecap: butt; stroke-dashoffset: 0; stroke-linejoin: miter; stroke-miterlimit: 4; fill: none; fill-rule: nonzero; opacity: 1;"  transform=" translate(-68.75, -63.89)" d="m 76.419 62.545 c 1.591 9.093 -0.555 17.068 -4.792 17.81 c -4.239 0.741 -8.965 -6.03 -10.556 -15.124 c -1.591 -9.095 0.556 -17.068 4.795 -17.809 c 4.237 -0.741 8.962 6.03 10.553 15.123 z" stroke-linecap="round" />
</g>
		<g transform="matrix(1 0 0 1 -51.97 -99.3)" id="path235" clip-path="url(#CLIPPATH_576)"  >
<clipPath id="CLIPPATH_576" >
	<path transform="matrix(1 0 0 1 44.22 -1.89) translate(-88.31, -65.76)" id="XMLID_15_" d="m 139.31 79.286 l -4.219 -10.03 s -0.66 -2.343 0.459 -5.327 s 4.692 -4.042 4.692 -4.042 l -1.119 -6.715 l -12.804 1.94 s 0.09 1.06 0.275 3.857 c 0.188 2.798 -0.137 4.409 -0.137 4.409 l 6.883 16.467 l -18.84 2.425 l 0.797 -5.667 l -1.147 -2.939 s -0.638 -3.212 0.184 -5.235 c 1.194 -2.939 4.458 -3.879 4.458 -3.879 l -0.934 -7.834 l -13.031 2.253 s 0.552 4.133 0.139 7.99 c -0.24 2.243 3.723 5.392 5.098 7.164 l -0.039 10.572 l -17.533 3.543 l -0.843 -9.89 s -0.643 -1.562 0.184 -5.511 c 0.771 -3.686 4.592 -4.776 4.592 -4.776 l -1.126 -7.615 l -14.295 2.242 l 1.24 6.613 l -1.24 5.648 l 7.021 16.46 l -20.891 2.425 l 0.644 -11.996 s -1.127 -3.534 0.551 -6.705 c 1.679 -3.17 4.214 -3.869 4.214 -3.869 l -1.492 -7.274 l -0.361 0.066 l -13.934 2.352 l 2.618 16.394 l 6.641 14.576 l -22.57 4.85 l -0.741 -14.055 s -1.791 -3.168 -0.367 -8.174 c 0.904 -3.179 5.025 -5.006 5.025 -5.006 l -0.373 -7.088 l -17.923 2.771 l 3.72 14.053 l 0.774 17.87 l -12.87 -58.756 l 126.09 -14.922 l 9.14 51.854 l -16.603 -1.491 z" stroke-linecap="round" />
</clipPath>
<path style="stroke: rgb(87,87,87); stroke-width: 8.6069; stroke-dasharray: none; stroke-linecap: butt; stroke-dashoffset: 0; stroke-linejoin: miter; stroke-miterlimit: 4; fill: none; fill-rule: nonzero; opacity: 1;"  transform=" translate(-44.09, -67.65)" d="m 52.063 66.252 c 1.653 9.451 -0.577 17.74 -4.982 18.511 c -4.406 0.771 -9.318 -6.268 -10.972 -15.72 c -1.654 -9.453 0.577 -17.74 4.983 -18.511 c 4.405 -0.77 9.317 6.268 10.971 15.72 z" stroke-linecap="round" />
</g>
</g>
</g>
</svg>