<?xml version="1.0" encoding="UTF-8" standalone="no" ?>
<!DOCTYPE svg PUBLIC "-//W3C//DTD SVG 1.1//EN" "http://www.w3.org/Graphics/SVG/1.1/DTD/svg11.dtd">
<svg xmlns="http://www.w3.org/2000/svg" xmlns:xlink="http://www.w3.org/1999/xlink" version="1.1" width="400" height="400" viewBox="0 0 400 400" xml:space="preserve">
<desc>Created with Fabric.js 3.6.3</desc>
<defs>
</defs>
<rect x="0" y="0" width="100%" height="100%" fill="rgba(255, 255, 255, 1)"></rect>
<g transform="matrix(1 0 0 1 205 240.24)" style=""  >
		<text xml:space="preserve" font-family="'Open Sans', sans-serif" font-size="18" font-style="normal" font-weight="normal" style="stroke: none; stroke-width: 1; stroke-dasharray: none; stroke-linecap: butt; stroke-dashoffset: 0; stroke-linejoin: miter; stroke-miterlimit: 4; fill: rgb(0,0,0); fill-rule: nonzero; opacity: 1; white-space: pre;" ><tspan x="-108.5" y="5.97" style="font-size: 19px; font-weight: bold; ">Your Company Name</tspan></text>
</g>
<g transform="matrix(1 0 0 1 229.48 273.67)" style=""  >
		<text xml:space="preserve" font-family="'Open Sans', sans-serif" font-size="18" font-style="normal" font-weight="normal" style="stroke: none; stroke-width: 1; stroke-dasharray: none; stroke-linecap: butt; stroke-dashoffset: 0; stroke-linejoin: miter; stroke-miterlimit: 4; fill: rgb(0,0,0); fill-rule: nonzero; opacity: 1; white-space: pre;" ><tspan x="-81.99" y="5.65" >slogan here</tspan></text>
</g>
<g transform="matrix(0.36 0 0 0.35 197.5 174)"  >
<g style=""   >
		<g transform="matrix(1 0 0 1 -12.29 11.01)" id="path4207"  >
<path style="stroke: none; stroke-width: 0; stroke-dasharray: none; stroke-linecap: butt; stroke-dashoffset: 0; stroke-linejoin: miter; stroke-miterlimit: 4; fill: rgb(180,226,255); fill-rule: nonzero; opacity: 1;"  transform=" translate(-35.08, -486.3)" d="m -149.27 519.46 l -1.4927 -74.636 c 115.84 12.625 244.12 10.829 371.69 0 l -2.9854 73.143 c -120.93 9.3572 -242.35 15.702 -367.21 1.4927 z" stroke-linecap="round" />
</g>
		<g transform="matrix(1 0 0 1 -12.29 63.21)" id="path4203"  >
<path style="stroke: none; stroke-width: 0; stroke-dasharray: none; stroke-linecap: butt; stroke-dashoffset: 0; stroke-linejoin: miter; stroke-miterlimit: 4; fill: rgb(153,204,255); fill-rule: nonzero; opacity: 1;"  transform=" translate(-35.08, -538.5)" d="m -174.65 550.81 l 153.75 9.7026 l 24.63 -15.673 l 61.201 -2.2391 l 20.152 14.181 l 159.72 -6.7172 l -28.362 -33.586 c -122.53 7.2626 -245.52 17.246 -364.22 1.4927 l -26.869 32.84 z" stroke-linecap="round" />
</g>
		<g transform="matrix(1 0 0 1 -5.57 -77.32)" id="path4183"  >
<path style="stroke: none; stroke-width: 0; stroke-dasharray: none; stroke-linecap: butt; stroke-dashoffset: 0; stroke-linejoin: miter; stroke-miterlimit: 4; fill: rgb(255,51,0); fill-rule: nonzero; opacity: 1;"  transform=" translate(-41.8, -397.97)" d="m -173.15 431.39 c 38.256 -24.381 70.711 -48.762 97.026 -73.143 c 87.651 0.93846 148.88 0.19334 232.12 -2.2391 c 34.803 25.829 57.791 53.096 100.76 70.904 c -144.89 12.599 -288.96 19.514 -429.9 4.4781 z" stroke-linecap="round" />
</g>
		<g transform="matrix(1 0 0 1 -5.58 -32.7)" id="path4185"  >
<path style="stroke: none; stroke-width: 0; stroke-dasharray: none; stroke-linecap: butt; stroke-dashoffset: 0; stroke-linejoin: miter; stroke-miterlimit: 4; fill: rgb(0,102,204); fill-rule: nonzero; opacity: 1;"  transform=" translate(-41.79, -442.59)" d="m -174.65 431.39 l 1.4927 11.942 c 148.01 21.055 291.34 18.723 431.39 0 l -4.4781 -16.42 c -139.24 13.951 -281.22 18.328 -428.41 4.4781 z" stroke-linecap="round" />
</g>
		<g transform="matrix(1 0 0 1 -196.64 16.56)" id="path4187"  >
<path style="stroke: none; stroke-width: 0; stroke-dasharray: none; stroke-linecap: butt; stroke-dashoffset: 0; stroke-linejoin: miter; stroke-miterlimit: 4; fill: rgb(62,154,222); fill-rule: nonzero; opacity: 1;"  transform=" translate(149.27, -491.85)" d="m -165.69 441.84 l 2.9854 98.519 l 26.869 1.4927 l 2.9854 -100.01 h -32.84 z" stroke-linecap="round" />
</g>
		<g transform="matrix(1 0 0 1 -175.75 15.81)" id="path4189"  >
<path style="stroke: none; stroke-width: 0; stroke-dasharray: none; stroke-linecap: butt; stroke-dashoffset: 0; stroke-linejoin: miter; stroke-miterlimit: 4; fill: rgb(0,102,204); fill-rule: nonzero; opacity: 1;"  transform=" translate(128.38, -491.1)" d="m -135.84 440.35 v 101.5 s 13.434 -7.4636 13.434 -13.434 c 0 -5.9708 1.4927 -85.085 1.4927 -85.085 l -14.927 -2.9854 z" stroke-linecap="round" />
</g>
		<g transform="matrix(1 0 0 1 -81.7 22.53)" id="path4191"  >
<path style="stroke: none; stroke-width: 0; stroke-dasharray: none; stroke-linecap: butt; stroke-dashoffset: 0; stroke-linejoin: miter; stroke-miterlimit: 4; fill: rgb(62,154,222); fill-rule: nonzero; opacity: 1;"  transform=" translate(34.33, -497.82)" d="m -50.752 447.81 l 2.9854 100.01 h 26.869 l 2.9854 -100.01 h -32.84 z" stroke-linecap="round" />
</g>
		<g transform="matrix(1 0 0 1 -60.8 21.78)" id="path4193"  >
<path style="stroke: none; stroke-width: 0; stroke-dasharray: none; stroke-linecap: butt; stroke-dashoffset: 0; stroke-linejoin: miter; stroke-miterlimit: 4; fill: rgb(62,154,222); fill-rule: nonzero; opacity: 1;"  transform=" translate(13.43, -497.07)" d="m -20.898 446.32 v 101.5 s 13.434 -7.4636 13.434 -13.434 c 0 -5.9708 1.4927 -85.085 1.4927 -85.085 l -14.927 -2.9854 z" stroke-linecap="round" />
</g>
		<g transform="matrix(1 0 0 1 170.57 18.06)" id="path4195"  >
<path style="stroke: none; stroke-width: 0; stroke-dasharray: none; stroke-linecap: butt; stroke-dashoffset: 0; stroke-linejoin: miter; stroke-miterlimit: 4; fill: rgb(62,154,222); fill-rule: nonzero; opacity: 1;"  transform=" translate(-217.94, -493.35)" d="m 234.36 443.34 l -2.9854 98.519 l -26.869 1.4927 l -2.9854 -100.01 h 32.84 z" stroke-linecap="round" />
</g>
		<g transform="matrix(1 0 0 1 149.67 17.3)" id="path4197"  >
<path style="stroke: none; stroke-width: 0; stroke-dasharray: none; stroke-linecap: butt; stroke-dashoffset: 0; stroke-linejoin: miter; stroke-miterlimit: 4; fill: rgb(62,154,222); fill-rule: nonzero; opacity: 1;"  transform=" translate(-197.04, -492.59)" d="m 204.5 441.84 v 101.5 s -13.434 -7.4636 -13.434 -13.434 c 0 -5.9708 -1.4927 -85.085 -1.4927 -85.085 l 14.927 -2.9854 z" stroke-linecap="round" />
</g>
		<g transform="matrix(1 0 0 1 55.63 24.03)" id="path4199"  >
<path style="stroke: none; stroke-width: 0; stroke-dasharray: none; stroke-linecap: butt; stroke-dashoffset: 0; stroke-linejoin: miter; stroke-miterlimit: 4; fill: rgb(62,154,222); fill-rule: nonzero; opacity: 1;"  transform=" translate(-103, -499.32)" d="m 119.42 449.31 l -2.9854 100.01 h -26.869 l -2.9854 -100.01 h 32.84 z" stroke-linecap="round" />
</g>
		<g transform="matrix(1 0 0 1 34.73 23.27)" id="path4201"  >
<path style="stroke: none; stroke-width: 0; stroke-dasharray: none; stroke-linecap: butt; stroke-dashoffset: 0; stroke-linejoin: miter; stroke-miterlimit: 4; fill: rgb(62,154,222); fill-rule: nonzero; opacity: 1;"  transform=" translate(-82.1, -498.56)" d="m 89.563 447.81 v 101.5 s -13.434 -7.4636 -13.434 -13.434 c 0 -5.9708 -1.4927 -85.085 -1.4927 -85.085 l 14.927 -2.9854 z" stroke-linecap="round" />
</g>
		<g transform="matrix(1 0 0 0.74 -13.03 86.04)" id="path4205"  >
<path style="stroke: none; stroke-width: 0; stroke-dasharray: none; stroke-linecap: butt; stroke-dashoffset: 0; stroke-linejoin: miter; stroke-miterlimit: 4; fill: rgb(0,131,215); fill-rule: nonzero; opacity: 1;"  transform=" translate(-34.34, -567.59)" d="m -177.63 552.3 l 4.4781 31.347 c 145.97 11.583 283.9 9.7546 417.96 1.4927 l 1.4927 -35.079 l -158.97 4.4781 l -20.152 -11.195 l -65.679 1.4927 l -20.898 14.927 l -158.23 -7.4636 z" stroke-linecap="round" />
</g>
		<g transform="matrix(1 0 0 1 -11.17 76.64)" id="rect4209"  >
<path style="stroke: none; stroke-width: 0; stroke-dasharray: none; stroke-linecap: butt; stroke-dashoffset: 0; stroke-linejoin: miter; stroke-miterlimit: 4; fill: rgb(153,204,255); fill-rule: evenodd; opacity: 1;"  transform=" translate(-36.2, -551.93)" d="m 5.9708 546.33 l 60.455 -2.2391 l -0.74636 15.673 h -59.708 v -13.434 z" stroke-linecap="round" />
</g>
		<g transform="matrix(1 0 0 1 -53.71 84.47)" id="path4211"  >
<path style="stroke: none; stroke-width: 0; stroke-dasharray: none; stroke-linecap: butt; stroke-dashoffset: 0; stroke-linejoin: miter; stroke-miterlimit: 4; fill: rgb(62,154,222); fill-rule: nonzero; opacity: 1;"  transform=" translate(6.34, -559.76)" d="m 2.2391 544.09 l -20.898 15.68 l 1.493 15.67 l 23.137 -14.93 l -3.7319 -16.42 z" stroke-linecap="round" />
</g>
		<g transform="matrix(1 0 0 1 27.64 84.47)" id="path4213"  >
<path style="stroke: none; stroke-width: 0; stroke-dasharray: none; stroke-linecap: butt; stroke-dashoffset: 0; stroke-linejoin: miter; stroke-miterlimit: 4; fill: rgb(62,154,222); fill-rule: nonzero; opacity: 1;"  transform=" translate(-75.01, -559.76)" d="m 67.918 544.09 l -2.239 15.68 l 18.659 15.67 l -0.746 -18.66 l -15.674 -12.69 z" stroke-linecap="round" />
</g>
		<g transform="matrix(1 0 0 1 -12.29 93.44)" id="path4215"  >
<path style="stroke: none; stroke-width: 0; stroke-dasharray: none; stroke-linecap: butt; stroke-dashoffset: 0; stroke-linejoin: miter; stroke-miterlimit: 4; fill: rgb(153,204,255); fill-rule: nonzero; opacity: 1;"  transform=" translate(-35.08, -568.73)" d="m 7.4636 559.77 l -22.391 16.42 l 100.01 1.4927 l -18.659 -17.913 h -58.962 z" stroke-linecap="round" />
</g>
		<g transform="matrix(1 0 0 1 -136.56 13.68)" id="rect4217"  >
<path style="stroke: none; stroke-width: 0; stroke-dasharray: none; stroke-linecap: butt; stroke-dashoffset: 0; stroke-linejoin: miter; stroke-miterlimit: 4; fill: rgb(153,0,0); fill-rule: evenodd; opacity: 1;"  transform=" translate(89.19, -488.97)" d="m -109.88 472.31 c 13.794 1.2455 27.588 0.71305 41.382 0 v 32.368 c -13.794 2.0243 -27.588 0.24543 -41.382 0 v -32.368 z" stroke-linecap="round" />
</g>
		<g transform="matrix(1 0 0 1 -145.98 13.2)" id="rect4219"  >
<rect style="stroke: none; stroke-width: 0; stroke-dasharray: none; stroke-linecap: butt; stroke-dashoffset: 0; stroke-linejoin: miter; stroke-miterlimit: 4; fill: rgb(204,153,0); fill-rule: evenodd; opacity: 1;"  x="-7.17" y="-11.677" rx="0" ry="0" width="14.34" height="23.354" />
</g>
		<g transform="matrix(1 0 0 1 -128.16 13.4)" id="rect4221"  >
<rect style="stroke: none; stroke-width: 0; stroke-dasharray: none; stroke-linecap: butt; stroke-dashoffset: 0; stroke-linejoin: miter; stroke-miterlimit: 4; fill: rgb(204,153,0); fill-rule: evenodd; opacity: 1;"  x="-6.5555" y="-11.0625" rx="0" ry="0" width="13.111" height="22.125" />
</g>
		<g transform="matrix(1 0 0 1 108.24 15.44)" id="rect4223"  >
<rect style="stroke: none; stroke-width: 0; stroke-dasharray: none; stroke-linecap: butt; stroke-dashoffset: 0; stroke-linejoin: miter; stroke-miterlimit: 4; fill: rgb(153,0,0); fill-rule: evenodd; opacity: 1;"  x="-20.691" y="-16.184" rx="0" ry="0" width="41.382" height="32.368" />
</g>
		<g transform="matrix(1 0 0 1 98.82 15.44)" id="rect4225"  >
<rect style="stroke: none; stroke-width: 0; stroke-dasharray: none; stroke-linecap: butt; stroke-dashoffset: 0; stroke-linejoin: miter; stroke-miterlimit: 4; fill: rgb(255,204,0); fill-rule: evenodd; opacity: 1;"  x="-7.17" y="-11.677" rx="0" ry="0" width="14.34" height="23.354" />
</g>
		<g transform="matrix(1 0 0 1 116.65 15.64)" id="rect4227"  >
<rect style="stroke: none; stroke-width: 0; stroke-dasharray: none; stroke-linecap: butt; stroke-dashoffset: 0; stroke-linejoin: miter; stroke-miterlimit: 4; fill: rgb(255,204,0); fill-rule: evenodd; opacity: 1;"  x="-6.5555" y="-11.0625" rx="0" ry="0" width="13.111" height="22.125" />
</g>
		<g transform="matrix(1 0 0 1 -9.68 22.42)" id="rect4229"  >
<rect style="stroke: none; stroke-width: 0; stroke-dasharray: none; stroke-linecap: butt; stroke-dashoffset: 0; stroke-linejoin: miter; stroke-miterlimit: 4; fill: rgb(153,0,0); fill-rule: evenodd; opacity: 1;"  x="-15.54" y="-27.321" rx="0" ry="0" width="31.08" height="54.642" />
</g>
		<g transform="matrix(1 0 0 1 -9.81 22.42)" id="rect4231"  >
<rect style="stroke: none; stroke-width: 0; stroke-dasharray: none; stroke-linecap: butt; stroke-dashoffset: 0; stroke-linejoin: miter; stroke-miterlimit: 4; fill: rgb(255,204,0); fill-rule: evenodd; opacity: 1;"  x="-11.503" y="-23.122" rx="0" ry="0" width="23.006" height="46.244" />
</g>
		<g transform="matrix(2.05 0 0 1.01 -73.61 -61.43)" id="rect4235"  >
<rect style="stroke: none; stroke-width: 0; stroke-dasharray: none; stroke-linecap: butt; stroke-dashoffset: 0; stroke-linejoin: miter; stroke-miterlimit: 4; fill: rgb(153,102,0); fill-rule: evenodd; opacity: 1;"  x="-3.3586" y="-25.003" rx="0" ry="0" width="6.7172" height="50.006" />
</g>
		<g transform="matrix(2.05 0 0 1 52.84 -61.44)" id="rect4237"  >
<rect style="stroke: none; stroke-width: 0; stroke-dasharray: none; stroke-linecap: butt; stroke-dashoffset: 0; stroke-linejoin: miter; stroke-miterlimit: 4; fill: rgb(153,102,0); fill-rule: evenodd; opacity: 1;"  x="-3.3586" y="-25.003" rx="0" ry="0" width="6.7172" height="50.006" />
</g>
		<g transform="matrix(1 0 0 1.21 -10.8 -62.81)" id="path4181"  >
<path style="stroke: none; stroke-width: 0; stroke-dasharray: none; stroke-linecap: butt; stroke-dashoffset: 0; stroke-linejoin: miter; stroke-miterlimit: 4; fill: rgb(222,255,255); fill-rule: nonzero; opacity: 1;"  transform=" translate(-36.57, -411.43)" d="m -26.249 432.86 l -21.491 -17.894 c 43.818 -37.627 123.7 -36.908 168.62 0 l -19.838 20.876 c -10.539 -12.11 -79.971 -48.05 -127.29 -2.99 z" stroke-linecap="round" />
</g>
		<g transform="matrix(1 0 0 1 -13.04 101.27)" id="path4241"  >
<path style="stroke: none; stroke-width: 0; stroke-dasharray: none; stroke-linecap: butt; stroke-dashoffset: 0; stroke-linejoin: miter; stroke-miterlimit: 4; fill: rgb(180,226,255); fill-rule: nonzero; opacity: 1;"  transform=" translate(-34.33, -576.56)" d="m -14.181 577.68 l 97.026 -2.2391 l -97.026 2.2391 z" stroke-linecap="round" />
</g>
		<g transform="matrix(1 0 0 1 8.62 -482.81)" style="" id="text4985"  >
		<text xml:space="preserve" font-family="Arial Black" font-size="24" font-style="normal" font-weight="normal" style="stroke: none; stroke-width: 1; stroke-dasharray: none; stroke-linecap: butt; stroke-dashoffset: 0; stroke-linejoin: miter; stroke-miterlimit: 4; fill: rgb(51,51,102); fill-rule: nonzero; opacity: 1; white-space: pre;" ><tspan x="-55.99" y="7.54" >SCHOOL</tspan></text>
</g>
		<g transform="matrix(1 0 0 1 -7.52 -62.61)" id="path4989"  >
<path style="stroke: none; stroke-width: 0; stroke-dasharray: none; stroke-linecap: butt; stroke-dashoffset: 0; stroke-linejoin: miter; stroke-miterlimit: 4; fill: rgb(0,0,0); fill-opacity: 0; fill-rule: nonzero; opacity: 1;"  transform=" translate(-39.85, -412.68)" d="m -19.518 418.95 c 59.762 -22.982 86.726 -8.9353 118.74 -0.58515" stroke-linecap="round" />
</g>
</g>
</g>
</svg>