<?xml version="1.0" encoding="UTF-8" standalone="no" ?>
<!DOCTYPE svg PUBLIC "-//W3C//DTD SVG 1.1//EN" "http://www.w3.org/Graphics/SVG/1.1/DTD/svg11.dtd">
<svg xmlns="http://www.w3.org/2000/svg" xmlns:xlink="http://www.w3.org/1999/xlink" version="1.1" width="400" height="400" viewBox="0 0 400 400" xml:space="preserve">
<desc>Created with Fabric.js 3.6.3</desc>
<defs>
</defs>
<rect x="0" y="0" width="100%" height="100%" fill="rgba(255, 255, 255, 1)"></rect>
<g transform="matrix(1 0 0 1 205 240.24)" style=""  >
		<text xml:space="preserve" font-family="'Open Sans', sans-serif" font-size="18" font-style="normal" font-weight="normal" style="stroke: none; stroke-width: 1; stroke-dasharray: none; stroke-linecap: butt; stroke-dashoffset: 0; stroke-linejoin: miter; stroke-miterlimit: 4; fill: rgb(0,0,0); fill-rule: nonzero; opacity: 1; white-space: pre;" ><tspan x="-108.5" y="5.97" style="font-size: 19px; font-weight: bold; ">Your Company Name</tspan></text>
</g>
<g transform="matrix(1 0 0 1 229.48 273.67)" style=""  >
		<text xml:space="preserve" font-family="'Open Sans', sans-serif" font-size="18" font-style="normal" font-weight="normal" style="stroke: none; stroke-width: 1; stroke-dasharray: none; stroke-linecap: butt; stroke-dashoffset: 0; stroke-linejoin: miter; stroke-miterlimit: 4; fill: rgb(0,0,0); fill-rule: nonzero; opacity: 1; white-space: pre;" ><tspan x="-81.99" y="5.65" >slogan here</tspan></text>
</g>
<g transform="matrix(0.5 0 0 0.48 197.25 152)"  >
<g style=""   >
		<g transform="matrix(1 -0.03 0.03 1 0.86 -4.23)" id="rect2993"  >
<rect style="stroke: rgb(0,0,0); stroke-width: 3.5433; stroke-dasharray: none; stroke-linecap: round; stroke-dashoffset: 0; stroke-linejoin: round; stroke-miterlimit: 4; fill: rgb(142,24,24); fill-rule: nonzero; opacity: 1;"  x="-99.015" y="-133.02" rx="0" ry="0" width="198.03" height="266.04" />
</g>
		<g transform="matrix(1 0 0 1 -1.14 -1.22)" id="rect2993-3-8-1"  >
<path style="stroke: rgb(195,195,195); stroke-width: 1; stroke-dasharray: none; stroke-linecap: round; stroke-dashoffset: 0; stroke-linejoin: round; stroke-miterlimit: 4; fill: rgb(255,255,255); fill-rule: nonzero; opacity: 1;"  transform=" translate(-113.86, -901.14)" d="m 13.281 768.1 l 193.96 0.13812 l 7.2045 265.94 l -193.96 -0.1381 z" stroke-linecap="round" />
</g>
		<g transform="matrix(1 0 0 1 -2.71 0.31)" id="rect2993-3-8-0"  >
<path style="stroke: rgb(195,195,195); stroke-width: 1; stroke-dasharray: none; stroke-linecap: round; stroke-dashoffset: 0; stroke-linejoin: round; stroke-miterlimit: 4; fill: rgb(255,255,255); fill-rule: nonzero; opacity: 1;"  transform=" translate(-112.29, -902.67)" d="m 12.281 769.6 l 192.46 0.20939 l 7.5616 265.94 l -192.81 -0.2093 z" stroke-linecap="round" />
</g>
		<g transform="matrix(1 0 0 1 -4.64 1.28)" id="rect2993-3-8"  >
<path style="stroke: rgb(195,195,195); stroke-width: 1; stroke-dasharray: none; stroke-linecap: round; stroke-dashoffset: 0; stroke-linejoin: round; stroke-miterlimit: 4; fill: rgb(255,255,255); fill-rule: nonzero; opacity: 1;"  transform=" translate(-110.36, -903.64)" d="m 11.281 770.1 l 190.96 1.1383 l 7.2045 265.94 l -190.96 -1.1383 z" stroke-linecap="round" />
</g>
		<g transform="matrix(1 0 0 1 -5.78 1.26)" id="rect2993-3"  >
<path style="stroke: rgb(0,0,0); stroke-width: 3.543; stroke-dasharray: none; stroke-linecap: round; stroke-dashoffset: 0; stroke-linejoin: round; stroke-miterlimit: 4; fill: rgb(198,32,32); fill-rule: nonzero; opacity: 1;"  transform=" translate(-109.22, -903.62)" d="m 12.179 767.37 l 186.88 2.6385 l 7.2045 269.87 l -189.03 -4.5668 z" stroke-linecap="round" />
</g>
		<g transform="matrix(1 0 0 1 -9.89 -65.37)" id="rect3825"  >
<path style="stroke: rgb(105,105,105); stroke-width: 2; stroke-dasharray: none; stroke-linecap: round; stroke-dashoffset: 0; stroke-linejoin: round; stroke-miterlimit: 4; fill: rgb(255,255,255); fill-rule: nonzero; opacity: 1;"  transform=" translate(-105.11, -836.99)" d="m 77.624 803.51 c 17.753 0.1667 34.791 0.33338 53.258 -0.21422 c 21.798 -0.14273 26.517 -3.6667 27.004 17.949 l 0.75011 33.255 c 1.4603 19.352 -6.9598 16.489 -26.129 16.127 c -18.859 -0.26357 -36.645 -0.42775 -53.365 -0.28586 c -21.544 -0.0488 -25.996 0.52216 -26.647 -17.592 c -0.33339 -10.918 -0.66677 -21.837 -1.0002 -32.755 c -0.94649 -19.179 7.1698 -16.663 26.129 -16.485 z" stroke-linecap="round" />
</g>
		<g transform="matrix(1 0 0 1 -9.96 -77.06)" id="path3830"  >
<path style="stroke: rgb(0,0,0); stroke-width: 1; stroke-dasharray: none; stroke-linecap: butt; stroke-dashoffset: 0; stroke-linejoin: miter; stroke-miterlimit: 4; fill: none; fill-rule: nonzero; opacity: 1;"  transform=" translate(-105.04, -825.3)" d="m 64.711 824.98 l 80.656 0.64301" stroke-linecap="round" />
</g>
		<g transform="matrix(1 0 0 1 -10.53 -62.01)" id="path3832"  >
<path style="stroke: rgb(0,0,0); stroke-width: 1; stroke-dasharray: none; stroke-linecap: butt; stroke-dashoffset: 0; stroke-linejoin: miter; stroke-miterlimit: 4; fill: none; fill-rule: nonzero; opacity: 1;"  transform=" translate(-104.47, -840.35)" d="m 64.068 840.06 l 80.798 0.57173" stroke-linecap="round" />
</g>
		<g transform="matrix(1 0 0 1 -10 -48.09)" id="path3834"  >
<path style="stroke: rgb(0,0,0); stroke-width: 1; stroke-dasharray: none; stroke-linecap: butt; stroke-dashoffset: 0; stroke-linejoin: miter; stroke-miterlimit: 4; fill: none; fill-rule: nonzero; opacity: 1;"  transform=" translate(-105, -854.27)" d="m 64.64 853.91 l 80.726 0.71467" stroke-linecap="round" />
</g>
</g>
</g>
</svg>