<?xml version="1.0" encoding="UTF-8" standalone="no" ?>
<!DOCTYPE svg PUBLIC "-//W3C//DTD SVG 1.1//EN" "http://www.w3.org/Graphics/SVG/1.1/DTD/svg11.dtd">
<svg xmlns="http://www.w3.org/2000/svg" xmlns:xlink="http://www.w3.org/1999/xlink" version="1.1" width="400" height="400" viewBox="0 0 400 400" xml:space="preserve">
<desc>Created with Fabric.js 3.6.3</desc>
<defs>
</defs>
<rect x="0" y="0" width="100%" height="100%" fill="rgba(255, 255, 255, 1)"></rect>
<g transform="matrix(1 0 0 1 205 240.24)" style=""  >
		<text xml:space="preserve" font-family="'Open Sans', sans-serif" font-size="18" font-style="normal" font-weight="normal" style="stroke: none; stroke-width: 1; stroke-dasharray: none; stroke-linecap: butt; stroke-dashoffset: 0; stroke-linejoin: miter; stroke-miterlimit: 4; fill: rgb(0,0,0); fill-rule: nonzero; opacity: 1; white-space: pre;" ><tspan x="-108.5" y="5.97" style="font-size: 19px; font-weight: bold; ">Your Company Name</tspan></text>
</g>
<g transform="matrix(1 0 0 1 229.48 273.67)" style=""  >
		<text xml:space="preserve" font-family="'Open Sans', sans-serif" font-size="18" font-style="normal" font-weight="normal" style="stroke: none; stroke-width: 1; stroke-dasharray: none; stroke-linecap: butt; stroke-dashoffset: 0; stroke-linejoin: miter; stroke-miterlimit: 4; fill: rgb(0,0,0); fill-rule: nonzero; opacity: 1; white-space: pre;" ><tspan x="-81.99" y="5.65" >slogan here</tspan></text>
</g>
<g transform="matrix(0.38 0 0 0.38 193.25 173.19)"  >
<g style=""   >
		<g transform="matrix(1.51 -0.13 0.13 1.52 -1.47 9.3)" id="path4373"  >
<path style="stroke: none; stroke-width: 1; stroke-dasharray: none; stroke-linecap: butt; stroke-dashoffset: 0; stroke-linejoin: miter; stroke-miterlimit: 4; fill: rgb(0,0,0); fill-rule: evenodd; opacity: 0.93377;"  transform=" translate(-120.6, -468.27)" d="m 144.85 392.55 l -138.28 54.5 c -0.0026 0 -3.09 3.07 -2.4088 7.16 c 0.6812 4.08 0.3673 5.83 3.9375 9.5 c 3.6583 3.76 3.3433 3.15 3.3433 3.15 l 66.125 53.13 c 0.173 1.06 0.436 1.9 0.875 2.34 c 0.553 0.65 1.982 2.04 3.625 3.41 c 2.507 2.64 6.433 6.28 8.25 5.34 c -0.415 -0.25 -0.693 -0.74 -0.875 -1.56 l 13.498 10.87 s 2.49 2.13 7.5 3.38 c 2.09 0.52 5.9 0.25 9.31 -1.91 c 2.08 -1.31 115.41 -94.81 115.41 -94.81 c 2.1 -1.17 2.73 -4.19 0.59 -4.87 l -2.21 -0.69 l -0.22 -7.78 l -75.41 60.22 l -35.41 28.21 c -0.8 0.49 -5.11 3.02 -8 3.16 c -2.53 0.13 -6.57 -0.97 -13.03 -5.91 c -0.03 -0.02 -2.33 -1.75 -2.496 -1.87 l 0.343 -0.31 c 1.933 1.44 6.373 4.78 6.373 4.78 s 4.41 2.72 7.81 3.06 c 3.41 0.34 8.86 -3.07 10.22 -4.09 c 1.37 -1.03 111.38 -89.22 111.38 -89.22 c 2.7 -2.15 2.84 -3.74 -0.31 -5.81 c -0.48 -0.19 -5.79 -2.36 -13.41 -5.44 c 0.32 -0.14 0.55 -0.22 0.66 -0.22 c 0.53 0 -0.02 -0.25 -1 -0.59 c 0.28 -0.13 0.5 -0.22 0.59 -0.22 c 1.87 0 -9.84 -4.22 -9.84 -4.22 s -1.34 0.8 -1.41 0.84 c -20.49 -8.13 -48.93 -19.02 -65.53 -23.53 z m -115.03 73.09 c 14.522 10.66 32.109 23.72 47.594 35.25 c -0.013 0.15 -0.026 0.29 -0.031 0.44 c -18.523 -13.9 -31.476 -23.62 -47.563 -35.69 z" stroke-linecap="round" />
</g>
		<g transform="matrix(1.56 -0.13 0.13 1.56 -1.7 -3.87)" id="path2430"  >
<linearGradient id="SVGID_linearGradient4538_550" gradientUnits="userSpaceOnUse" gradientTransform="matrix(1 0 0 1 0 0)"  x1="251.49" y1="493.25" x2="270.2" y2="399.22">
<stop offset="0%" style="stop-color:rgb(26,26,26);stop-opacity: 1"/>
<stop offset="100%" style="stop-color:rgb(91,91,91);stop-opacity: 1"/>
</linearGradient>
<path style="stroke: rgb(51,51,51); stroke-width: 1; stroke-dasharray: none; stroke-linecap: butt; stroke-dashoffset: 0; stroke-linejoin: miter; stroke-miterlimit: 4; fill: url(#SVGID_linearGradient4538_550); fill-rule: evenodd; opacity: 1;"  transform=" translate(-246.55, -467.64)" d="m 270.79 391.91 l -138.29 54.5 s -3.07 3.06 -2.38 7.15 c 0.68 4.09 0.36 5.84 3.93 9.51 c 3.66 3.76 3.33 3.14 3.33 3.14 l 91.51 73.52 s 2.49 2.16 7.5 3.41 c 2.09 0.52 5.89 0.23 9.31 -1.93 c 2.07 -1.32 115.39 -94.81 115.39 -94.81 c 2.1 -1.18 2.75 -4.18 0.61 -4.87 l -5.07 -1.6 l -113.09 90.61 h -10.56 l -98.78 -74.6 s -2.72 -7.15 -0.68 -6.81 c 2.05 0.34 98.1 72.21 98.1 72.21 s 4.43 2.73 7.83 3.07 c 3.41 0.34 8.86 -3.07 10.22 -4.09 s 111.38 -89.24 111.38 -89.24 c 2.7 -2.15 2.82 -3.72 -0.34 -5.79 c -1.7 -0.68 -62.33 -25.89 -89.92 -33.38 z" stroke-linecap="round" />
</g>
		<g transform="matrix(1.56 -0.13 0.13 1.56 -0.59 25.73)" id="path2432"  >
<path style="stroke: none; stroke-width: 1; stroke-dasharray: none; stroke-linecap: butt; stroke-dashoffset: 0; stroke-linejoin: miter; stroke-miterlimit: 4; fill: rgb(245,234,197); fill-rule: evenodd; opacity: 1;"  transform=" translate(-245.67, -486.58)" d="m 131.82 453.27 s 0.12 3.16 3.42 8.66 c 1.61 2.69 23.93 20 46.67 37.71 c 16.66 12.28 32.19 26.11 49.1 38.07 c 3.37 2.14 5.42 2.29 8.29 2.37 c 3.92 0.11 7.26 -3.39 9.74 -5.31 c 1.08 -0.84 110.5 -91.53 110.5 -91.53 l -0.28 -10.17 l -110.5 88.23 s -5.12 3.18 -8.3 3.34 c -2.53 0.13 -6.6 -0.96 -13.06 -5.89 c -1.4 -1.07 -91.8 -68.87 -91.8 -68.87 c -1.94 -2.04 -4 -1.66 -3.78 3.39 z" stroke-linecap="round" />
</g>
		<g transform="matrix(1.56 -0.13 0.13 1.56 87.31 16.64)" id="path2446"  >
<linearGradient id="SVGID_linearGradient4540_551" gradientUnits="userSpaceOnUse" gradientTransform="matrix(1 0 0 1 0 0)"  x1="309.18" y1="477.14" x2="230.17" y2="548.49">
<stop offset="0%" style="stop-color:rgb(0,0,0);stop-opacity: 1"/>
<stop offset="100%" style="stop-color:rgb(0,0,0);stop-opacity: 0"/>
</linearGradient>
<path style="stroke: none; stroke-width: 1; stroke-dasharray: none; stroke-linecap: butt; stroke-dashoffset: 0; stroke-linejoin: miter; stroke-miterlimit: 4; fill: url(#SVGID_linearGradient4540_551); fill-rule: evenodd; opacity: 0.52899;"  transform=" translate(-302.23, -485.49)" d="m 358.91 433.45 l -112.47 89.66 l -0.89 14.41 l 113.2 -94.55 l 0.16 -9.52 z" stroke-linecap="round" />
</g>
		<g transform="matrix(1.56 -0.13 0.13 1.56 -4.75 97.58)" id="path2444"  >
<path style="stroke: none; stroke-width: 1; stroke-dasharray: none; stroke-linecap: butt; stroke-dashoffset: 0; stroke-linejoin: miter; stroke-miterlimit: 4; fill: rgb(0,0,0); fill-rule: evenodd; opacity: 0.15942;"  transform=" translate(-239.17, -532.19)" d="m 233.69 526.11 l -0.46 11.41 s 4.11 3.65 8.22 1.37 c 4.1 -2.28 3.65 -4.11 3.65 -4.11 v -10.04 s -4.11 2.28 -5.94 2.28 c -1.82 0 -6.38 -2.28 -5.47 -0.91 z" stroke-linecap="round" />
</g>
		<g transform="matrix(1.56 -0.13 0.13 1.56 -129.2 26.35)" id="path3342"  >
<path style="stroke: none; stroke-width: 1; stroke-dasharray: none; stroke-linecap: butt; stroke-dashoffset: 0; stroke-linejoin: miter; stroke-miterlimit: 4; fill: rgb(0,0,0); fill-rule: evenodd; opacity: 0.2971;"  transform=" translate(-163.59, -480.09)" d="m 135.95 450.75 s -1.23 -0.87 -1.58 1.23 s 0.53 6.48 4.56 11.21 c 0.88 1.04 57.11 48.18 57.11 48.18 l -58.51 -46.78 s -4.34 -4.29 -4.73 -5.08 c -1.23 -2.45 -2.11 -7.18 -1.41 -8.58 s 0.88 -2.28 2.11 -2.1 c 1.22 0.17 2.62 1.92 2.45 1.92 z" stroke-linecap="round" />
</g>
		<g transform="matrix(1.56 -0.13 0.13 1.56 -0.03 6.62)" id="path3372"  >
<path style="stroke: rgb(255,255,255); stroke-width: 1; stroke-dasharray: none; stroke-linecap: butt; stroke-dashoffset: 0; stroke-linejoin: miter; stroke-miterlimit: 4; fill: none; fill-rule: nonzero; opacity: 0.20652;"  transform=" translate(-247.05, -474.42)" d="m 132.12 448.81 c 1.16 -1.39 3.11 0.32 4.85 1.33 l 94.29 69.42 s 3.65 2.92 8.59 3.21 c 2.08 0.13 4.4 -0.21 6.76 -1.44 c 7.98 -4.14 115.19 -92.15 115.19 -92.15 s 0.78 -2.61 -0.91 -3.14" stroke-linecap="round" />
</g>
		<g transform="matrix(1.56 -0.13 0.13 1.56 45.48 1.53)" id="path3412"  >
<path style="stroke: none; stroke-width: 1; stroke-dasharray: none; stroke-linecap: butt; stroke-dashoffset: 0; stroke-linejoin: miter; stroke-miterlimit: 4; fill: rgb(0,0,0); fill-rule: evenodd; opacity: 1;"  transform=" translate(-276.36, -473.6)" d="m 206.01 522.89 c 1.39 1.64 7.77 8.82 10.24 7.55 c -0.76 -0.47 -1.09 -1.64 -1.13 -4.4 c 0.02 -3.63 -0.2 -16.75 -0.2 -16.75 s -0.47 -3.27 1.87 -4.68 c 2.34 -1.4 59.26 -40.8 75.77 -51.83 c 16.55 -11.07 53.54 -33.16 55.41 -33.16 s -9.02 -3 -9.02 -3 s -49.15 29.95 -65.06 38.85 c -15.91 8.89 -66.46 41.65 -66.46 41.65 s -3.48 2.44 -2.82 6.92 c 0.48 6.61 -0.74 16.69 1.4 18.85 z" stroke-linecap="round" />
</g>
		<g transform="matrix(1.56 -0.13 0.13 1.56 43.9 -1.48)" id="path3398"  >
<linearGradient id="SVGID_linearGradient4542_552" gradientUnits="userSpaceOnUse" gradientTransform="matrix(1 0 0 1 0 0)"  x1="314.01" y1="426.76" x2="239.04" y2="474.72">
<stop offset="0%" style="stop-color:rgb(127,127,127);stop-opacity: 1"/>
<stop offset="100%" style="stop-color:rgb(51,51,51);stop-opacity: 1"/>
</linearGradient>
<path style="stroke: none; stroke-width: 1; stroke-dasharray: none; stroke-linecap: butt; stroke-dashoffset: 0; stroke-linejoin: miter; stroke-miterlimit: 4; fill: url(#SVGID_linearGradient4542_552); fill-rule: evenodd; opacity: 1;"  transform=" translate(-275.51, -471.6)" d="m 204.39 521.68 c 1.4 1.64 8.18 8.01 10.65 6.74 c -0.76 -0.47 -1.09 -1.63 -1.13 -4.39 c 0.02 -3.63 -0.2 -16.75 -0.2 -16.75 s -0.47 -3.28 1.87 -4.68 c 2.34 -1.41 53.17 -35.13 69.72 -46.2 c 17.72 -11.84 60.39 -37.58 62.27 -37.58 c 1.87 0 -9.83 -4.21 -9.83 -4.21 s -44.31 26.72 -65.06 38.84 c -15.74 9.19 -66.46 41.66 -66.46 41.66 s -3.48 2.44 -2.82 6.92 c 0.48 6.61 -1.15 17.5 0.99 19.65 z" stroke-linecap="round" />
</g>
		<g transform="matrix(1.56 -0.13 0.13 1.56 37.13 -4.63)" id="path3466"  >
<path style="stroke: rgb(26,26,26); stroke-width: 0.5; stroke-dasharray: none; stroke-linecap: butt; stroke-dashoffset: 0; stroke-linejoin: miter; stroke-miterlimit: 4; fill: none; fill-rule: nonzero; opacity: 0.38768;"  transform=" translate(-271.36, -469.22)" d="m 337.86 416.15 s -42.82 25.8 -63.57 37.92 c -15.74 9.19 -66.46 41.65 -66.46 41.65 s -3.48 2.44 -2.82 6.92 c 0.48 6.61 -1.15 17.5 0.99 19.66" stroke-linecap="round" />
</g>
		<g transform="matrix(1.56 -0.13 0.13 1.56 40.6 -3.22)" id="path3470"  >
<path style="stroke: rgb(26,26,26); stroke-width: 0.5; stroke-dasharray: none; stroke-linecap: butt; stroke-dashoffset: 0; stroke-linejoin: miter; stroke-miterlimit: 4; fill: none; fill-rule: nonzero; opacity: 0.38768;"  transform=" translate(-273.5, -470.31)" d="m 339.99 417.12 s -42.81 26.04 -63.56 38.16 c -15.74 9.19 -66.46 41.66 -66.46 41.66 s -3.48 2.44 -2.82 6.92 c 0.48 6.61 -1.15 17.49 0.99 19.65" stroke-linecap="round" />
</g>
		<g transform="matrix(1.56 -0.13 0.13 1.56 44.4 -1.67)" id="path3472"  >
<path style="stroke: rgb(26,26,26); stroke-width: 0.5; stroke-dasharray: none; stroke-linecap: butt; stroke-dashoffset: 0; stroke-linejoin: miter; stroke-miterlimit: 4; fill: none; fill-rule: nonzero; opacity: 0.38768;"  transform=" translate(-275.84, -471.5)" d="m 342.15 417.65 s -40.01 24.69 -60.76 36.8 c -15.75 9.2 -68.9 44.33 -68.9 44.33 s -3.47 2.44 -2.81 6.92 c 0.48 6.62 -1.15 17.5 0.99 19.66" stroke-linecap="round" />
</g>
		<g transform="matrix(1.56 -0.13 0.13 1.56 47.54 0.09)" id="path3474"  >
<path style="stroke: rgb(26,26,26); stroke-width: 0.5; stroke-dasharray: none; stroke-linecap: butt; stroke-dashoffset: 0; stroke-linejoin: miter; stroke-miterlimit: 4; fill: none; fill-rule: nonzero; opacity: 0.38768;"  transform=" translate(-277.75, -472.8)" d="m 343.77 418.77 s -38.47 23.81 -59.22 35.93 c -15.74 9.19 -69.87 45.54 -69.87 45.54 s -3.47 2.44 -2.82 6.92 c 0.49 6.61 -1.14 17.5 1 19.66" stroke-linecap="round" />
</g>
		<g transform="matrix(1.56 -0.13 0.13 1.56 148.43 2.04)" id="path4201"  >
<path style="stroke: none; stroke-width: 1; stroke-dasharray: none; stroke-linecap: butt; stroke-dashoffset: 0; stroke-linejoin: miter; stroke-miterlimit: 4; fill: rgb(0,0,0); fill-rule: evenodd; opacity: 1;"  transform=" translate(-216.61, -469.67)" d="m 241 430.97 c -1.8 0.22 -4.67 2.47 -8.53 8.25 c -0.78 1.17 -6.28 8.57 -11.22 15.1 c -1.21 0.34 -2.06 0.78 -2.06 0.78 l -5.19 7.18 c -0.27 0.6 -0.81 1.24 -0.59 1.72 c 0 0 0.23 -0.05 0.37 -0.09 c -0.06 0.07 -0.24 0.27 -0.28 0.31 c 0 0 -21.72 33.23 -21.84 39.19 c -0.7 1.74 -1.85 4.97 -1.85 4.97 l 3.28 -2.88 s 1.33 -0.7 2.85 -1.93 c 11.16 -9.67 19 -22.31 27.44 -34.04 c 0.01 -0.02 0.39 -0.6 0.46 -0.71 c 0 0.07 -0.01 0.15 -0.03 0.21 c -0.69 2.12 6.44 -8.53 6.44 -8.53 s 0.13 -0.56 -0.03 -1.4 c 1.37 -2.14 2.78 -4.41 4.22 -6.78 c 0.09 -0.04 0.16 -0.08 0.25 -0.13 c 0.97 -0.08 1.12 -0.75 1.12 -0.75 s 6.27 -11.1 6.94 -12.19 c 0.14 -0.22 0.3 -0.67 0.41 -1.12 c 0.2 -0.48 0.44 -1.11 0.03 -1.53 c -0.07 -0.08 -0.22 -0.17 -0.35 -0.25 c 0.58 -1.76 0.56 -3.41 0 -4.41 c -0.05 -0.43 -0.15 -0.71 -0.37 -0.56 c -0.37 -0.33 -0.86 -0.48 -1.47 -0.41 z" stroke-linecap="round" />
</g>
		<g transform="matrix(0.95 -0.3 0.28 0.88 144.15 -1.34)" id="path3663"  >
<linearGradient id="SVGID_linearGradient4544_553" gradientUnits="userSpaceOnUse" gradientTransform="matrix(1 0 0 1 0 0)"  x1="586.59" y1="500.18" x2="651.34" y2="441.74">
<stop offset="0%" style="stop-color:rgb(88,82,69);stop-opacity: 1"/>
<stop offset="100%" style="stop-color:rgb(65,65,65);stop-opacity: 1"/>
</linearGradient>
<path style="stroke: rgb(0,0,0); stroke-width: 0.4; stroke-dasharray: none; stroke-linecap: butt; stroke-dashoffset: 0; stroke-linejoin: miter; stroke-miterlimit: 4; fill: url(#SVGID_linearGradient4544_553); fill-rule: evenodd; opacity: 1;"  transform=" translate(-609.34, -486.53)" d="m 606.99 476.84 s -44.93 46.38 -47.2 56.11 c -1.68 2.59 -4.56 7.45 -4.56 7.45 l 6.01 -3.52 s 2.28 -0.66 5.03 -2.12 c 20.48 -11.66 36.94 -29.43 53.97 -45.5 c 0.61 -0.74 30.9 -30.51 40.97 -46.26 c 5.32 -8.33 1.72 -18.37 -16.42 -0.02 c -2.79 2.83 -34.9 32 -37.8 33.86 z" stroke-linecap="round" />
</g>
		<g transform="matrix(0.91 -0.29 0.27 0.85 146.81 -5.26)" id="path3671"  >
<path style="stroke: none; stroke-width: 1; stroke-dasharray: none; stroke-linecap: butt; stroke-dashoffset: 0; stroke-linejoin: miter; stroke-miterlimit: 4; fill: rgb(255,255,255); fill-rule: evenodd; opacity: 1;"  transform=" translate(-613.1, -485.37)" d="m 563.59 535.27 l 3.94 -1.43 s 12.7 -8.23 14.49 -9.66 c 1.78 -1.43 29.33 -26.47 29.33 -26.47 l 26.29 -26.65 l 22.72 -26.29 s 2.86 -5.19 3.22 -6.26 c 0.35 -1.07 -0.36 -3.22 -0.36 -3.22 s -11.27 15.2 -13.59 17.53 c -2.33 2.32 -38.82 39.17 -38.82 39.17 l -48.29 43.46 l 1.07 -0.18 z" stroke-linecap="round" />
</g>
		<g transform="matrix(0.95 -0.3 0.28 0.88 147.12 -4.55)" id="path3669"  >
<path style="stroke: none; stroke-width: 1; stroke-dasharray: none; stroke-linecap: butt; stroke-dashoffset: 0; stroke-linejoin: miter; stroke-miterlimit: 4; fill: rgb(61,55,39); fill-rule: evenodd; opacity: 1;"  transform=" translate(-613.17, -484.2)" d="m 563.06 534.56 s 18.78 -14.49 53.48 -46.69 c 1.39 -1.29 27.18 -27.9 28.08 -29.15 c 0.89 -1.25 17.35 -19.32 17.88 -20.75 c 0.54 -1.43 1.26 -4.47 0.36 -4.11 c -0.89 0.36 -2.32 3.04 -2.68 3.75 c -0.36 0.72 -32.91 36.49 -34.52 37.57 c -1.61 1.07 -62.25 59.38 -62.6 59.38 z" stroke-linecap="round" />
</g>
		<g transform="matrix(0.95 -0.3 0.28 0.88 144.57 -3.52)" id="path3667"  >
<path style="stroke: none; stroke-width: 1; stroke-dasharray: none; stroke-linecap: butt; stroke-dashoffset: 0; stroke-linejoin: miter; stroke-miterlimit: 4; fill: rgb(255,255,255); fill-rule: evenodd; opacity: 0.64855;"  transform=" translate(-610.42, -484.42)" d="m 658.24 434.44 s -52.82 51.4 -55.65 54.24 c -2.84 2.84 -41.18 44.3 -41.18 44.3 l 0.57 1.42 s 57.36 -56.79 61.62 -61.05 s 35.21 -36.92 35.21 -36.92 s 1.71 -1.99 -0.57 -1.99 z" stroke-linecap="round" />
</g>
		<g transform="matrix(0.95 -0.3 0.28 0.88 151.93 -13.82)" id="path3665"  >
<path style="stroke: rgb(26,26,26); stroke-width: 1; stroke-dasharray: none; stroke-linecap: butt; stroke-dashoffset: 0; stroke-linejoin: miter; stroke-miterlimit: 4; fill: rgb(26,26,26); fill-rule: evenodd; opacity: 1;"  transform=" translate(-620.62, -476.26)" d="m 606.89 476.47 s 6.59 -0.56 10.27 2.64 c 1.42 1.23 5.23 7.12 3.91 9.49 c -1.8 3.22 12.85 -11.52 12.85 -11.52 s 2.02 -4.58 -2.56 -10.24 c -4.26 -5.25 -12.5 -2.81 -12.5 -2.81 l -10.44 9.83 c -0.62 0.87 -1.69 1.74 -1.53 2.61 z" stroke-linecap="round" />
</g>
		<g transform="matrix(0.95 -0.3 0.28 0.88 109.77 58.69)" id="path3897"  >
<linearGradient id="SVGID_linearGradient4546_554" gradientUnits="userSpaceOnUse" gradientTransform="matrix(1 0 0 1 -0.09 0.04)"  x1="555.66" y1="539.11" x2="560.53" y2="534.58">
<stop offset="0%" style="stop-color:rgb(255,255,255);stop-opacity: 1"/>
<stop offset="100%" style="stop-color:rgb(255,255,255);stop-opacity: 0"/>
</linearGradient>
<path style="stroke: none; stroke-width: 1; stroke-dasharray: none; stroke-linecap: butt; stroke-dashoffset: 0; stroke-linejoin: miter; stroke-miterlimit: 4; fill: url(#SVGID_linearGradient4546_554); fill-rule: evenodd; opacity: 1;"  transform=" translate(-558.07, -536.87)" d="m 559.71 533.8 l -4.07 6.13 l 4.85 -4.45 l -0.78 -1.68 z" stroke-linecap="round" />
</g>
		<g transform="matrix(0.95 -0.3 0.28 0.88 110.82 59.23)" id="path3917"  >
<linearGradient id="SVGID_linearGradient4548_555" gradientUnits="userSpaceOnUse" gradientTransform="matrix(0.07 -1 -1 -0.07 1058.3 1129.7)"  x1="555.66" y1="539.11" x2="560.53" y2="534.58">
<stop offset="0%" style="stop-color:rgb(255,255,255);stop-opacity: 1"/>
<stop offset="100%" style="stop-color:rgb(255,255,255);stop-opacity: 0"/>
</linearGradient>
<path style="stroke: none; stroke-width: 1; stroke-dasharray: none; stroke-linecap: butt; stroke-dashoffset: 0; stroke-linejoin: miter; stroke-miterlimit: 4; fill: url(#SVGID_linearGradient4548_555); fill-rule: evenodd; opacity: 1;"  transform=" translate(-558.9, -537.76)" d="m 562.1 536.38 l -6.39 3.66 l 4.76 -4.55 l 1.63 0.89 z" stroke-linecap="round" />
</g>
		<g transform="matrix(0.95 -0.3 0.28 0.88 148.07 -18.23)" id="path3929"  >
<linearGradient id="SVGID_linearGradient4550_556" gradientUnits="userSpaceOnUse" gradientTransform="matrix(1 0 0 1 0 0)"  x1="610.29" y1="463.95" x2="618.27" y2="473.02">
<stop offset="0%" style="stop-color:rgb(255,255,255);stop-opacity: 1"/>
<stop offset="100%" style="stop-color:rgb(255,255,255);stop-opacity: 0"/>
</linearGradient>
<path style="stroke: none; stroke-width: 1; stroke-dasharray: none; stroke-linecap: butt; stroke-dashoffset: 0; stroke-linejoin: miter; stroke-miterlimit: 4; fill: url(#SVGID_linearGradient4550_556); fill-rule: evenodd; opacity: 1;"  transform=" translate(-618.26, -470.48)" d="m 619.13 464.61 l -9.49 9.17 s -1.07 1.4 -0.97 1.83 c 0.11 0.43 1.95 0.11 2.59 0.22 c 0.65 0.1 4.21 1.18 4.21 1.18 s -0.22 -0.75 -0.33 -1.51 c -0.1 -0.75 -0.32 -2.15 3.35 -5.17 c 3.66 -3.02 5.5 -4.64 5.93 -4.75 s 2.05 -0.43 3.02 -0.22 c 0.97 0.22 0.11 -0.97 -0.86 -1.18 c -0.97 -0.22 -5.61 -0.54 -7.45 0.43 z" stroke-linecap="round" />
</g>
		<g transform="matrix(0.95 -0.3 0.28 0.88 159.53 -13.07)" id="path3973"  >
<linearGradient id="SVGID_linearGradient4552_557" gradientUnits="userSpaceOnUse" gradientTransform="matrix(1 0 0 1 0 0)"  x1="632.4" y1="487.16" x2="626.27" y2="478.13">
<stop offset="0%" style="stop-color:rgb(255,255,255);stop-opacity: 1"/>
<stop offset="100%" style="stop-color:rgb(255,255,255);stop-opacity: 0"/>
</linearGradient>
<path style="stroke: none; stroke-width: 1; stroke-dasharray: none; stroke-linecap: butt; stroke-dashoffset: 0; stroke-linejoin: miter; stroke-miterlimit: 4; fill: url(#SVGID_linearGradient4552_557); fill-rule: evenodd; opacity: 1;"  transform=" translate(-627.67, -479.52)" d="m 621.62 483.16 s 1.29 2.48 0.86 3.88 s 11.11 -10.14 11.11 -10.14 s 0.43 -3.77 -0.22 -4.85 s 0.54 3.02 -5.61 8.31 c -3.2 2.75 -5.82 2.8 -6.14 2.8 z" stroke-linecap="round" />
</g>
		<g transform="matrix(0.95 -0.3 0.28 0.88 174.26 -44.29)" id="path4042"  >
<path style="stroke: none; stroke-width: 1; stroke-dasharray: none; stroke-linecap: butt; stroke-dashoffset: 0; stroke-linejoin: miter; stroke-miterlimit: 4; fill: rgb(0,0,0); fill-rule: evenodd; opacity: 0.73188;"  transform=" translate(-601.93, -443.73)" d="m 606.34 432.23 s 1.31 -1.16 0.58 0.87 c -0.72 2.03 -16.11 19.02 -15.97 20.76 c 0.15 1.74 0.15 2.47 1.75 2.76 c 1.59 0.29 2.75 -0.73 2.75 -0.73 s 15.97 -18.14 16.41 -18.87 c 0.43 -0.73 1.45 -1.89 0.87 -2.9 c -0.58 -1.02 -3.34 -3.34 -3.34 -3.34 s -2.32 0 -3.05 1.45 z" stroke-linecap="round" />
</g>
		<g transform="matrix(0.95 -0.3 0.28 0.88 174.89 -44.64)" id="path4032"  >
<linearGradient id="SVGID_linearGradient4554_558" gradientUnits="userSpaceOnUse" gradientTransform="matrix(1 0 0 1 0.73 0)"  x1="610.99" y1="434.12" x2="597.2" y2="452.26">
<stop offset="0%" style="stop-color:rgb(39,37,39);stop-opacity: 1"/>
<stop offset="100%" style="stop-color:rgb(100,100,88);stop-opacity: 1"/>
</linearGradient>
<path style="stroke: rgb(58,54,54); stroke-width: 0.3; stroke-dasharray: none; stroke-linecap: butt; stroke-dashoffset: 0; stroke-linejoin: miter; stroke-miterlimit: 4; fill: url(#SVGID_linearGradient4554_558); fill-rule: evenodd; opacity: 1;"  transform=" translate(-602.64, -443.58)" d="m 607.79 432.08 s 2.18 -1.84 1.46 0.2 c -0.73 2.03 -14.57 18.33 -15.97 20.27 c -1.03 1.41 -0.73 3.63 0.87 3.92 s 2.08 -0.77 2.08 -0.77 s 13.48 -15.87 14.88 -17.4 c 0.58 -0.63 1.65 -2.57 1.46 -3.68 c -0.2 -1.16 -1.73 -3.99 -1.73 -3.99 s -2.32 0 -3.05 1.45 z" stroke-linecap="round" />
</g>
		<g transform="matrix(0.95 -0.3 0.28 0.88 174.81 -44.56)" id="path4096"  >
<linearGradient id="SVGID_linearGradient4556_559" gradientUnits="userSpaceOnUse" gradientTransform="matrix(1 0 0 1 0 0)"  x1="617.01" y1="428.55" x2="590.5" y2="454.35">
<stop offset="0%" style="stop-color:rgb(255,255,255);stop-opacity: 1"/>
<stop offset="100%" style="stop-color:rgb(255,255,255);stop-opacity: 0"/>
</linearGradient>
<path style="stroke: none; stroke-width: 1; stroke-dasharray: none; stroke-linecap: butt; stroke-dashoffset: 0; stroke-linejoin: miter; stroke-miterlimit: 4; fill: url(#SVGID_linearGradient4556_559); fill-rule: evenodd; opacity: 0.40728;"  transform=" translate(-602.54, -443.63)" d="m 609.07 433.92 l -15.87 19.99 s -0.29 0.85 0.42 1.56 s 0.57 -1.42 0.57 -1.42 s 14.74 -19.99 16.44 -19.56 c 1.71 0.42 1.24 2.24 1.24 2.24 l -0.14 -2.12 c -0.85 -0.85 -1.38 -2.96 -1.38 -2.96 l -1.28 1.28 v 0.99 z" stroke-linecap="round" />
</g>
</g>
</g>
</svg>