<?xml version="1.0" encoding="UTF-8" standalone="no" ?>
<!DOCTYPE svg PUBLIC "-//W3C//DTD SVG 1.1//EN" "http://www.w3.org/Graphics/SVG/1.1/DTD/svg11.dtd">
<svg xmlns="http://www.w3.org/2000/svg" xmlns:xlink="http://www.w3.org/1999/xlink" version="1.1" width="400" height="400" viewBox="0 0 400 400" xml:space="preserve">
<desc>Created with Fabric.js 3.6.3</desc>
<defs>
</defs>
<rect x="0" y="0" width="100%" height="100%" fill="rgba(255, 255, 255, 1)"></rect>
<g transform="matrix(1 0 0 1 205 240.24)" style=""  >
		<text xml:space="preserve" font-family="'Open Sans', sans-serif" font-size="18" font-style="normal" font-weight="normal" style="stroke: none; stroke-width: 1; stroke-dasharray: none; stroke-linecap: butt; stroke-dashoffset: 0; stroke-linejoin: miter; stroke-miterlimit: 4; fill: rgb(0,0,0); fill-rule: nonzero; opacity: 1; white-space: pre;" ><tspan x="-108.5" y="5.97" style="font-size: 19px; font-weight: bold; ">Your Company Name</tspan></text>
</g>
<g transform="matrix(1 0 0 1 229.48 273.67)" style=""  >
		<text xml:space="preserve" font-family="'Open Sans', sans-serif" font-size="18" font-style="normal" font-weight="normal" style="stroke: none; stroke-width: 1; stroke-dasharray: none; stroke-linecap: butt; stroke-dashoffset: 0; stroke-linejoin: miter; stroke-miterlimit: 4; fill: rgb(0,0,0); fill-rule: nonzero; opacity: 1; white-space: pre;" ><tspan x="-81.99" y="5.65" >slogan here</tspan></text>
</g>
<g transform="matrix(1 0 0 1 202.37 160.73)"  >
<g style=""   >
		<g transform="matrix(1 0 0 1 -0.94 16.63)" id="path4406"  >
<path style="stroke: rgb(0,0,0); stroke-width: 0.15064; stroke-dasharray: none; stroke-linecap: butt; stroke-dashoffset: 0; stroke-linejoin: miter; stroke-miterlimit: 4; fill: rgb(26,26,26); fill-rule: evenodd; opacity: 1;"  transform=" translate(-216.84, -186.35)" d="m 261.35 186.35 c 0 21.002 -19.928 38.027 -44.51 38.027 s -44.51 -17.025 -44.51 -38.027 s 19.928 -38.027 44.51 -38.027 s 44.51 17.024 44.51 38.027 z" stroke-linecap="round" />
</g>
		<g transform="matrix(0.85 -0.53 0.76 0.65 -0.94 -3.44)" id="rect4408"  >
<rect style="stroke: rgb(255,255,255); stroke-width: 2.0045; stroke-dasharray: none; stroke-linecap: butt; stroke-dashoffset: 0; stroke-linejoin: miter; stroke-miterlimit: 4; fill: rgb(26,26,26); fill-rule: evenodd; opacity: 1;"  x="-43.6495" y="-41.7065" rx="0" ry="0" width="87.299" height="83.413" />
</g>
		<g transform="matrix(1 0 0 1 33.12 16.57)" id="path4410"  >
<path style="stroke: rgb(0,0,0); stroke-width: 1; stroke-dasharray: none; stroke-linecap: butt; stroke-dashoffset: 0; stroke-linejoin: miter; stroke-miterlimit: 4; fill: rgb(255,242,0); fill-rule: nonzero; opacity: 1;"  transform=" translate(-250.9, -186.28)" d="m 250.28 158.66 c -10.049 0 -28.347 3.7893 -32 4.5625 c -0.44505 -0.17949 -0.92075 -0.3125 -1.4375 -0.3125 c -2.0066 0 -3.625 1.5226 -3.625 3.375 s 1.6182 3.3438 3.625 3.3438 c 1.4639 0 2.7058 -0.81727 3.2812 -1.9688 c 6.4537 -1.3083 21.516 -4.1562 30.156 -4.1562 c 9.308 0 25.659 3.2307 31.031 4.3438 l -5.4062 46.062 l 12.688 -0.15625 l -4.875 -46.656 v -1.1562 v -2.4375 s -22.295 -4.8438 -33.438 -4.8438 z" stroke-linecap="round" />
</g>
</g>
</g>
</svg>