<?xml version="1.0" encoding="UTF-8" standalone="no" ?>
<!DOCTYPE svg PUBLIC "-//W3C//DTD SVG 1.1//EN" "http://www.w3.org/Graphics/SVG/1.1/DTD/svg11.dtd">
<svg xmlns="http://www.w3.org/2000/svg" xmlns:xlink="http://www.w3.org/1999/xlink" version="1.1" width="400" height="400" viewBox="0 0 400 400" xml:space="preserve">
<desc>Created with Fabric.js 3.6.3</desc>
<defs>
</defs>
<rect x="0" y="0" width="100%" height="100%" fill="rgba(255, 255, 255, 1)"></rect>
<g transform="matrix(1 0 0 1 205 240.24)" style=""  >
		<text xml:space="preserve" font-family="'Open Sans', sans-serif" font-size="18" font-style="normal" font-weight="normal" style="stroke: none; stroke-width: 1; stroke-dasharray: none; stroke-linecap: butt; stroke-dashoffset: 0; stroke-linejoin: miter; stroke-miterlimit: 4; fill: rgb(0,0,0); fill-rule: nonzero; opacity: 1; white-space: pre;" ><tspan x="-108.5" y="5.97" style="font-size: 19px; font-weight: bold; ">Your Company Name</tspan></text>
</g>
<g transform="matrix(1 0 0 1 229.48 273.67)" style=""  >
		<text xml:space="preserve" font-family="'Open Sans', sans-serif" font-size="18" font-style="normal" font-weight="normal" style="stroke: none; stroke-width: 1; stroke-dasharray: none; stroke-linecap: butt; stroke-dashoffset: 0; stroke-linejoin: miter; stroke-miterlimit: 4; fill: rgb(0,0,0); fill-rule: nonzero; opacity: 1; white-space: pre;" ><tspan x="-81.99" y="5.65" >slogan here</tspan></text>
</g>
<g transform="matrix(1.32 0 0 1.08 197.75 160)"  >
<g style=""   >
		<g transform="matrix(3 0 0 3 0.11 -1.83)" id="path5511"  >
<path style="stroke: rgb(242,214,148); stroke-width: 3; stroke-dasharray: none; stroke-linecap: round; stroke-dashoffset: 0; stroke-linejoin: round; stroke-miterlimit: 4; fill: rgb(242,214,148); fill-rule: nonzero; opacity: 1;"  transform=" translate(19.46, -288.18)" d="m -3.4578 298.18 h -32 v -10 l 5.3333 -10 h 26.667 v 20 z" stroke-linecap="round" />
</g>
		<g transform="matrix(5.22 0 0 6.48 -32.09 31.55)" id="path5513"  >
<path style="stroke: rgb(61,28,0); stroke-width: 1.0021; stroke-dasharray: none; stroke-linecap: round; stroke-dashoffset: 0; stroke-linejoin: round; stroke-miterlimit: 4; fill: rgb(242,214,148); fill-rule: nonzero; opacity: 1;"  transform=" translate(-47.68, -290.5)" d="m 50 290.5 c 0 1.0309 -1.0367 1.8667 -2.3156 1.8667 c -1.2788 0 -2.3156 -0.83573 -2.3156 -1.8667 c 0 -1.0309 1.0367 -1.8667 2.3156 -1.8667 c 1.2788 0 2.3156 0.83573 2.3156 1.8667 z" stroke-linecap="round" />
</g>
		<g transform="matrix(5.22 0 0 6.48 27.9 31.55)" id="path5513-1"  >
<path style="stroke: rgb(61,28,0); stroke-width: 1.0021; stroke-dasharray: none; stroke-linecap: round; stroke-dashoffset: 0; stroke-linejoin: round; stroke-miterlimit: 4; fill: rgb(242,214,148); fill-rule: nonzero; opacity: 1;"  transform=" translate(-47.68, -290.5)" d="m 50 290.5 c 0 1.0309 -1.0367 1.8667 -2.3156 1.8667 c -1.2788 0 -2.3156 -0.83573 -2.3156 -1.8667 c 0 -1.0309 1.0367 -1.8667 2.3156 -1.8667 c 1.2788 0 2.3156 0.83573 2.3156 1.8667 z" stroke-linecap="round" />
</g>
		<g transform="matrix(3 0 0 3 -31.39 -15.33)" id="path5541"  >
<path style="stroke: rgb(61,28,0); stroke-width: 1; stroke-dasharray: none; stroke-linecap: round; stroke-dashoffset: 0; stroke-linejoin: round; stroke-miterlimit: 4; fill: rgb(61,28,0); fill-rule: nonzero; opacity: 1;"  transform=" translate(29.96, -283.68)" d="m -26.458 287.18 h -7 l 4 -7 h 3 v 7 z" stroke-linecap="round" />
</g>
		<g transform="matrix(3 0 0 3 -17.3 -39.63)" id="path5543"  >
<path style="stroke: rgb(242,214,148); stroke-width: 1.381; stroke-dasharray: none; stroke-linecap: round; stroke-dashoffset: 0; stroke-linejoin: round; stroke-miterlimit: 4; fill: none; fill-rule: nonzero; opacity: 1;"  transform=" translate(25.26, -275.58)" d="m -26.925 275.58 h 3.3333" stroke-linecap="round" />
</g>
		<g transform="matrix(3 0 0 3 -17.23 -42.53)" id="path5545"  >
<path style="stroke: rgb(242,214,148); stroke-width: 1.381; stroke-dasharray: none; stroke-linecap: round; stroke-dashoffset: 0; stroke-linejoin: round; stroke-miterlimit: 4; fill: none; fill-rule: nonzero; opacity: 1;"  transform=" translate(25.24, -274.61)" d="m -25.236 275.39 v -1.5527" stroke-linecap="round" />
</g>
		<g transform="matrix(3 0 0 3 28.48 -10.91)" id="path6369"  >
<path style="stroke: rgb(61,28,0); stroke-width: 1.777; stroke-dasharray: none; stroke-linecap: butt; stroke-dashoffset: 0; stroke-linejoin: miter; stroke-miterlimit: 4; fill: rgb(61,28,0); fill-rule: nonzero; opacity: 1;"  transform=" translate(4.79, -256.58)" d="m -4.7894 260.79 v -8.4248" stroke-linecap="round" />
</g>
		<g transform="matrix(3 0 0 3 28.26 -11.87)" id="path6369-2"  >
<path style="stroke: rgb(61,28,0); stroke-width: 1.7814; stroke-dasharray: none; stroke-linecap: butt; stroke-dashoffset: 0; stroke-linejoin: miter; stroke-miterlimit: 4; fill: rgb(61,28,0); fill-rule: nonzero; opacity: 1;"  transform=" translate(4.86, -256.26)" d="m -9.1163 256.26 h 8.5093" stroke-linecap="round" />
</g>
</g>
</g>
</svg>