<?xml version="1.0" encoding="UTF-8" standalone="no" ?>
<!DOCTYPE svg PUBLIC "-//W3C//DTD SVG 1.1//EN" "http://www.w3.org/Graphics/SVG/1.1/DTD/svg11.dtd">
<svg xmlns="http://www.w3.org/2000/svg" xmlns:xlink="http://www.w3.org/1999/xlink" version="1.1" width="400" height="400" viewBox="0 0 400 400" xml:space="preserve">
<desc>Created with Fabric.js 3.6.3</desc>
<defs>
</defs>
<rect x="0" y="0" width="100%" height="100%" fill="rgba(255, 255, 255, 1)"></rect>
<g transform="matrix(1 0 0 1 205 240.24)" style=""  >
		<text xml:space="preserve" font-family="'Open Sans', sans-serif" font-size="18" font-style="normal" font-weight="normal" style="stroke: none; stroke-width: 1; stroke-dasharray: none; stroke-linecap: butt; stroke-dashoffset: 0; stroke-linejoin: miter; stroke-miterlimit: 4; fill: rgb(0,0,0); fill-rule: nonzero; opacity: 1; white-space: pre;" ><tspan x="-108.5" y="5.97" style="font-size: 19px; font-weight: bold; ">Your Company Name</tspan></text>
</g>
<g transform="matrix(1 0 0 1 229.48 273.67)" style=""  >
		<text xml:space="preserve" font-family="'Open Sans', sans-serif" font-size="18" font-style="normal" font-weight="normal" style="stroke: none; stroke-width: 1; stroke-dasharray: none; stroke-linecap: butt; stroke-dashoffset: 0; stroke-linejoin: miter; stroke-miterlimit: 4; fill: rgb(0,0,0); fill-rule: nonzero; opacity: 1; white-space: pre;" ><tspan x="-81.99" y="5.65" >slogan here</tspan></text>
</g>
<g transform="matrix(0.28 0 0 0.28 207.25 161.5)"  >
<g style=""   >
		<g transform="matrix(1.22 1.22 -1.22 1.22 -33.12 37.3)" id="rect2995"  >
<path style="stroke: rgb(0,0,0); stroke-width: 8.533; stroke-dasharray: none; stroke-linecap: butt; stroke-dashoffset: 0; stroke-linejoin: miter; stroke-miterlimit: 4; fill: none; fill-rule: nonzero; opacity: 1;"  transform=" translate(-436.87, -294.76)" d="m 410.63 211.13 l 53.355 0.80126 l -0.8708 146.85 l -26.678 19.599 l -26.678 -20.401 z" stroke-linecap="round" />
</g>
		<g transform="matrix(1.22 1.22 -1.22 1.22 105.89 -101.7)" id="rect3766"  >
<path style="stroke: rgb(0,0,0); stroke-width: 8.3787; stroke-dasharray: none; stroke-linecap: round; stroke-dashoffset: 0; stroke-linejoin: round; stroke-miterlimit: 4; fill: none; fill-rule: nonzero; opacity: 1;"  transform=" translate(-436.88, -180.63)" d="m 418.97 149.57 h 35.816 v 62.121 h -35.816 z" stroke-linecap="round" />
</g>
		<g transform="matrix(1.22 1.22 -1.22 1.22 71.26 -67.07)" id="path3786"  >
<path style="stroke: rgb(0,0,0); stroke-width: 14.173; stroke-dasharray: none; stroke-linecap: round; stroke-dashoffset: 0; stroke-linejoin: round; stroke-miterlimit: 4; fill: none; fill-rule: nonzero; opacity: 1;"  transform=" translate(-436.88, -209.06)" d="m 379.84 209.06 h 114.08" stroke-linecap="round" />
</g>
		<g transform="matrix(1.22 1.22 -1.22 1.22 144.34 -140.15)" id="path3786-1"  >
<path style="stroke: rgb(0,0,0); stroke-width: 12.858; stroke-dasharray: none; stroke-linecap: round; stroke-dashoffset: 0; stroke-linejoin: round; stroke-miterlimit: 4; fill: none; fill-rule: nonzero; opacity: 1;"  transform=" translate(-436.88, -149.06)" d="m 389.93 149.06 h 93.893" stroke-linecap="round" />
</g>
		<g transform="matrix(1.22 1.22 -1.22 1.22 21.28 -56.64)" id="path3818"  >
<path style="stroke: rgb(0,0,0); stroke-width: 7.0866; stroke-dasharray: none; stroke-linecap: round; stroke-dashoffset: 0; stroke-linejoin: miter; stroke-miterlimit: 4; fill: none; fill-rule: nonzero; opacity: 1;"  transform=" translate(-420.64, -233.86)" d="m 410.71 233.86 h 19.856" stroke-linecap="round" />
</g>
		<g transform="matrix(1.22 1.22 -1.22 1.22 -21.88 -13.49)" id="path3818-7"  >
<path style="stroke: rgb(0,0,0); stroke-width: 7.0866; stroke-dasharray: none; stroke-linecap: round; stroke-dashoffset: 0; stroke-linejoin: miter; stroke-miterlimit: 4; fill: none; fill-rule: nonzero; opacity: 1;"  transform=" translate(-420.64, -269.29)" d="m 410.71 269.29 h 19.856" stroke-linecap="round" />
</g>
		<g transform="matrix(1.22 1.22 -1.22 1.22 -0.3 -35.07)" id="path3818-4"  >
<path style="stroke: rgb(0,0,0); stroke-width: 7.0866; stroke-dasharray: none; stroke-linecap: round; stroke-dashoffset: 0; stroke-linejoin: miter; stroke-miterlimit: 4; fill: none; fill-rule: nonzero; opacity: 1;"  transform=" translate(-420.64, -251.57)" d="m 410.71 251.57 h 19.856" stroke-linecap="round" />
</g>
		<g transform="matrix(1.22 1.22 -1.22 1.22 -43.46 8.09)" id="path3818-0"  >
<path style="stroke: rgb(0,0,0); stroke-width: 7.0866; stroke-dasharray: none; stroke-linecap: round; stroke-dashoffset: 0; stroke-linejoin: miter; stroke-miterlimit: 4; fill: none; fill-rule: nonzero; opacity: 1;"  transform=" translate(-420.64, -287.01)" d="m 410.71 287.01 h 19.856" stroke-linecap="round" />
</g>
		<g transform="matrix(1.22 1.22 -1.22 1.22 -86.61 51.25)" id="path3818-7-9"  >
<path style="stroke: rgb(0,0,0); stroke-width: 7.0866; stroke-dasharray: none; stroke-linecap: round; stroke-dashoffset: 0; stroke-linejoin: miter; stroke-miterlimit: 4; fill: none; fill-rule: nonzero; opacity: 1;"  transform=" translate(-420.64, -322.44)" d="m 410.71 322.44 h 19.856" stroke-linecap="round" />
</g>
		<g transform="matrix(1.22 1.22 -1.22 1.22 -65.03 29.67)" id="path3818-4-4"  >
<path style="stroke: rgb(0,0,0); stroke-width: 7.0866; stroke-dasharray: none; stroke-linecap: round; stroke-dashoffset: 0; stroke-linejoin: miter; stroke-miterlimit: 4; fill: none; fill-rule: nonzero; opacity: 1;"  transform=" translate(-420.64, -304.72)" d="m 410.71 304.72 h 19.856" stroke-linecap="round" />
</g>
		<g transform="matrix(1.22 1.22 -1.22 1.22 -169.88 174.06)" id="path3872"  >
<path style="stroke: none; stroke-width: 1; stroke-dasharray: none; stroke-linecap: butt; stroke-dashoffset: 0; stroke-linejoin: miter; stroke-miterlimit: 4; fill: rgb(0,0,0); fill-rule: nonzero; opacity: 1;"  transform=" translate(-436.87, -407.04)" d="m 433.44 375.39 h 6.8588 v 53.291 l -6.8588 10 z" stroke-linecap="round" />
</g>
</g>
</g>
</svg>