<?xml version="1.0" encoding="UTF-8" standalone="no" ?>
<!DOCTYPE svg PUBLIC "-//W3C//DTD SVG 1.1//EN" "http://www.w3.org/Graphics/SVG/1.1/DTD/svg11.dtd">
<svg xmlns="http://www.w3.org/2000/svg" xmlns:xlink="http://www.w3.org/1999/xlink" version="1.1" width="400" height="400" viewBox="0 0 400 400" xml:space="preserve">
<desc>Created with Fabric.js 3.6.3</desc>
<defs>
</defs>
<rect x="0" y="0" width="100%" height="100%" fill="rgba(255, 255, 255, 1)"></rect>
<g transform="matrix(1 0 0 1 205 240.24)" style=""  >
		<text xml:space="preserve" font-family="'Open Sans', sans-serif" font-size="18" font-style="normal" font-weight="normal" style="stroke: none; stroke-width: 1; stroke-dasharray: none; stroke-linecap: butt; stroke-dashoffset: 0; stroke-linejoin: miter; stroke-miterlimit: 4; fill: rgb(0,0,0); fill-rule: nonzero; opacity: 1; white-space: pre;" ><tspan x="-108.5" y="5.97" style="font-size: 19px; font-weight: bold; ">Your Company Name</tspan></text>
</g>
<g transform="matrix(1 0 0 1 229.48 273.67)" style=""  >
		<text xml:space="preserve" font-family="'Open Sans', sans-serif" font-size="18" font-style="normal" font-weight="normal" style="stroke: none; stroke-width: 1; stroke-dasharray: none; stroke-linecap: butt; stroke-dashoffset: 0; stroke-linejoin: miter; stroke-miterlimit: 4; fill: rgb(0,0,0); fill-rule: nonzero; opacity: 1; white-space: pre;" ><tspan x="-81.99" y="5.65" >slogan here</tspan></text>
</g>
<g transform="matrix(1 0 0 1 194.18 166)"  >
<g style=""   >
		<g transform="matrix(1 0 0 1 0 -24.67)" id="Layer_1"  >
<polygon style="stroke: none; stroke-width: 1; stroke-dasharray: none; stroke-linecap: butt; stroke-dashoffset: 0; stroke-linejoin: miter; stroke-miterlimit: 4; fill: rgb(0,0,0); fill-rule: nonzero; opacity: 1;"  points="25.33,-9.85 9.85,-9.85 9.85,-25.33 -9.85,-25.33 -9.85,-9.85 -25.33,-9.85 -25.33,9.85 -9.85,9.85 -9.85,25.33 9.85,25.33 9.85,9.85 25.33,9.85 " />
</g>
		<g transform="matrix(1 0 0 1 24.45 20.41)" id="Layer_1"  >
<path style="stroke: none; stroke-width: 1; stroke-dasharray: none; stroke-linecap: butt; stroke-dashoffset: 0; stroke-linejoin: miter; stroke-miterlimit: 4; fill: rgb(0,0,0); fill-rule: nonzero; opacity: 1;"  transform=" translate(-66.63, -70.41)" d="m 75.567 62.252 v -17.05 c 0 -2.417 1.98 -4.388 4.413 -4.388 c 2.424 0 4.388 1.971 4.388 4.388 v 23.349 c 0 3.229 -1.162 6.346 -3.247 8.783 l -14.561 15.461 c -1.442 1.359 -1.799 2.564 -1.799 4.391 v 2.814 h -15.846 l -0.02 -6.699 c 0 -2.551 -0.209 -5.959 2.986 -9.303 l 18.474 -18.551 c 0.657 -0.635 1.521 -0.982 2.437 -0.982 c 1.932 0 3.504 1.568 3.504 3.498 c 0 0.834 -0.295 1.645 -0.835 2.279 l -8.911 9.547 c -0.575 0.678 -1.553 1.955 -2.038 3.518 c -0.264 0.811 -0.339 1.605 -0.352 2.51 h 2.867 c 0.012 -0.646 0.059 -1.164 0.214 -1.646 c 0.28 -0.904 0.84 -1.715 1.259 -2.236 l 9.048 -9.926 c 1.138 -1.148 1.76 -2.633 1.76 -4.193 c -0.001 -2.345 -1.41 -4.5 -3.741 -5.564 z" stroke-linecap="round" />
</g>
		<g transform="matrix(1 0 0 1 -24.45 20.41)" id="Layer_1"  >
<path style="stroke: none; stroke-width: 1; stroke-dasharray: none; stroke-linecap: butt; stroke-dashoffset: 0; stroke-linejoin: miter; stroke-miterlimit: 4; fill: rgb(0,0,0); fill-rule: nonzero; opacity: 1;"  transform=" translate(-17.74, -70.41)" d="m 8.801 62.252 v -17.05 c 0 -2.417 -1.981 -4.388 -4.415 -4.388 c -2.424 -0.001 -4.386 1.97 -4.386 4.388 v 23.349 c 0 3.229 1.161 6.346 3.246 8.783 l 14.561 15.461 c 1.444 1.359 1.798 2.564 1.798 4.391 v 2.814 h 15.849 l 0.019 -6.699 c 0 -2.551 0.208 -5.959 -2.984 -9.303 l -18.475 -18.551 c -0.661 -0.633 -1.524 -0.979 -2.437 -0.979 c -1.933 0 -3.507 1.568 -3.507 3.496 c 0 0.836 0.295 1.645 0.835 2.281 l 8.913 9.545 c 0.575 0.678 1.553 1.953 2.039 3.516 c 0.261 0.812 0.335 1.605 0.352 2.512 h -2.869 c -0.011 -0.648 -0.06 -1.166 -0.213 -1.648 c -0.28 -0.904 -0.84 -1.713 -1.261 -2.232 l -9.047 -9.93 c -1.138 -1.148 -1.759 -2.633 -1.759 -4.193 c 0.001 -2.344 1.408 -4.499 3.741 -5.563 z" stroke-linecap="round" />
</g>
</g>
</g>
</svg>