<?xml version="1.0" encoding="UTF-8" standalone="no" ?>
<!DOCTYPE svg PUBLIC "-//W3C//DTD SVG 1.1//EN" "http://www.w3.org/Graphics/SVG/1.1/DTD/svg11.dtd">
<svg xmlns="http://www.w3.org/2000/svg" xmlns:xlink="http://www.w3.org/1999/xlink" version="1.1" width="400" height="400" viewBox="0 0 400 400" xml:space="preserve">
<desc>Created with Fabric.js 3.6.3</desc>
<defs>
</defs>
<rect x="0" y="0" width="100%" height="100%" fill="rgba(255, 255, 255, 1)"></rect>
<g transform="matrix(1 0 0 1 205 240.24)" style=""  >
		<text xml:space="preserve" font-family="'Open Sans', sans-serif" font-size="18" font-style="normal" font-weight="normal" style="stroke: none; stroke-width: 1; stroke-dasharray: none; stroke-linecap: butt; stroke-dashoffset: 0; stroke-linejoin: miter; stroke-miterlimit: 4; fill: rgb(0,0,0); fill-rule: nonzero; opacity: 1; white-space: pre;" ><tspan x="-108.5" y="5.97" style="font-size: 19px; font-weight: bold; ">Your Company Name</tspan></text>
</g>
<g transform="matrix(1 0 0 1 229.48 273.67)" style=""  >
		<text xml:space="preserve" font-family="'Open Sans', sans-serif" font-size="18" font-style="normal" font-weight="normal" style="stroke: none; stroke-width: 1; stroke-dasharray: none; stroke-linecap: butt; stroke-dashoffset: 0; stroke-linejoin: miter; stroke-miterlimit: 4; fill: rgb(0,0,0); fill-rule: nonzero; opacity: 1; white-space: pre;" ><tspan x="-81.99" y="5.65" >slogan here</tspan></text>
</g>
<g transform="matrix(0.32 0 0 0.33 194 178.98)"  >
<g style=""   >
		<g transform="matrix(1 0 0 1 8559.71 9881.84)" style="" id="text8372"  >
		<text xml:space="preserve" font-family="Sawasdee" font-size="117" font-style="normal" font-weight="normal" style="stroke: none; stroke-width: 1; stroke-dasharray: none; stroke-linecap: butt; stroke-dashoffset: 0; stroke-linejoin: miter; stroke-miterlimit: 4; fill: rgb(0,0,0); fill-rule: nonzero; opacity: 1; white-space: pre;" ></text>
</g>
		<g transform="matrix(1 0 0 1 0.57 2.72)" id="path44486"  >
<path style="stroke: none; stroke-width: 1; stroke-dasharray: none; stroke-linecap: butt; stroke-dashoffset: 0; stroke-linejoin: miter; stroke-miterlimit: 4; fill: rgb(0,0,0); fill-rule: nonzero; opacity: 1;"  transform=" translate(11091.26, 7956.1)" d="m -10846 -7870.3 l -3.637 -20.593 s -71.396 -78.207 -126.5 -98.688 l 4.23 -50.581 c -121.13 -69.044 -277.39 23.014 -277.39 23.014 l 21.803 65.41 c -53.298 18.17 -105.38 84.79 -105.38 84.79 l -3.638 20.593 c 56.933 -73.892 115.08 -89.638 115.08 -89.638 l 20.594 46.031 c 140.51 -99.326 215.61 -43.607 215.61 -43.607 l 4.858 -38.464 s 77.44 27.841 134.37 101.73 z" stroke-linecap="round" />
</g>
		<g transform="matrix(1 0 0 1 -1.43 -2.78)" id="path44480"  >
<linearGradient id="SVGID_linearGradient55999_599" gradientUnits="userSpaceOnUse" gradientTransform="matrix(-1 0 0 1 -14959 -5301.5)"  x1="-3849.3" y1="-2770.1" x2="-3889.5" y2="-2528.1">
<stop offset="0%" style="stop-color:rgb(238,238,238);stop-opacity: 1"/>
<stop offset="42.158%" style="stop-color:rgb(238,238,238);stop-opacity: 1"/>
<stop offset="100%" style="stop-color:rgb(0,0,0);stop-opacity: 1"/>
</linearGradient>
<path style="stroke: none; stroke-width: 1; stroke-dasharray: none; stroke-linecap: butt; stroke-dashoffset: 0; stroke-linejoin: miter; stroke-miterlimit: 4; fill: url(#SVGID_linearGradient55999_599); fill-rule: nonzero; opacity: 1;"  transform=" translate(11093.26, 7961.6)" d="m -10848 -7875.8 l -3.637 -20.593 s -71.396 -78.207 -126.5 -98.688 l 4.23 -50.581 c -121.13 -69.044 -277.39 23.014 -277.39 23.014 l 21.803 65.41 c -53.298 18.17 -105.38 84.79 -105.38 84.79 l -3.638 20.593 c 56.933 -73.892 115.08 -89.638 115.08 -89.638 l 20.594 46.031 c 140.51 -99.326 215.61 -43.607 215.61 -43.607 l 4.858 -38.464 s 77.44 27.841 134.37 101.73 z" stroke-linecap="round" />
</g>
		<g transform="matrix(1 0 0 1 13.33 -55.97)" id="path3065"  >
<path style="stroke: none; stroke-width: 1; stroke-dasharray: none; stroke-linecap: butt; stroke-dashoffset: 0; stroke-linejoin: miter; stroke-miterlimit: 4; fill: rgb(212,0,0); fill-rule: nonzero; opacity: 1;"  transform=" translate(11078.5, 8014.79)" d="m -11089 -8050.8 c -0.249 3.6799 -0.09 7.8248 0.01 12.025 c 0.09 4.2004 0.14 8.4499 0.104 12.493 c -7.735 0.6131 -15.733 1.6557 -24.527 2.4836 c 0.02 0.7726 0.05 1.5455 0.08 2.3178 c 0.272 6.6493 0.634 13.443 1.075 20.338 c 8.24 -0.9696 15.992 -2.0308 23.521 -2.6889 c 0.129 8.316 0.393 16.709 0.81 25.448 c 6.811 -0.529 13.611 -0.6705 20.247 -0.7371 c -0.954 -9.0217 -1.01 -17.445 -0.904 -25.702 c 7.341 -0.1202 14.688 -0.034 22.914 -0.4358 c 0.761 -6.5562 1.535 -12.878 1.947 -19.02 c 0.05 -0.7156 0.09 -1.4282 0.13 -2.1379 c -9.121 0.06 -16.901 -0.4287 -24.537 -0.5332 c 0.105 -3.9623 0.1 -8.1217 0.03 -12.242 c -0.06 -4.1204 -0.194 -8.1984 -0.02 -11.79 c -6.92 -0.3308 -13.709 -0.2567 -20.876 0.1798 z" stroke-linecap="round" />
</g>
</g>
</g>
</svg>