<?xml version="1.0" encoding="UTF-8" standalone="no" ?>
<!DOCTYPE svg PUBLIC "-//W3C//DTD SVG 1.1//EN" "http://www.w3.org/Graphics/SVG/1.1/DTD/svg11.dtd">
<svg xmlns="http://www.w3.org/2000/svg" xmlns:xlink="http://www.w3.org/1999/xlink" version="1.1" width="400" height="400" viewBox="0 0 400 400" xml:space="preserve">
<desc>Created with Fabric.js 3.6.3</desc>
<defs>
</defs>
<rect x="0" y="0" width="100%" height="100%" fill="rgba(255, 255, 255, 1)"></rect>
<g transform="matrix(1 0 0 1 205 240.24)" style=""  >
		<text xml:space="preserve" font-family="'Open Sans', sans-serif" font-size="18" font-style="normal" font-weight="normal" style="stroke: none; stroke-width: 1; stroke-dasharray: none; stroke-linecap: butt; stroke-dashoffset: 0; stroke-linejoin: miter; stroke-miterlimit: 4; fill: rgb(0,0,0); fill-rule: nonzero; opacity: 1; white-space: pre;" ><tspan x="-108.5" y="5.97" style="font-size: 19px; font-weight: bold; ">Your Company Name</tspan></text>
</g>
<g transform="matrix(1 0 0 1 229.48 273.67)" style=""  >
		<text xml:space="preserve" font-family="'Open Sans', sans-serif" font-size="18" font-style="normal" font-weight="normal" style="stroke: none; stroke-width: 1; stroke-dasharray: none; stroke-linecap: butt; stroke-dashoffset: 0; stroke-linejoin: miter; stroke-miterlimit: 4; fill: rgb(0,0,0); fill-rule: nonzero; opacity: 1; white-space: pre;" ><tspan x="-81.99" y="5.65" >slogan here</tspan></text>
</g>
<g transform="matrix(0.24 0 0 0.18 199.72 159.91)"  >
<g style=""   >
		<g transform="matrix(1 0 0 1 133.7 274.36)" id="path3651"  >
<radialGradient id="SVGID_radialGradient4077_586" gradientUnits="userSpaceOnUse" gradientTransform="matrix(1.02 -0.01 0 0.45 739.37 230.8)"  cx="-303.3" cy="854.51" r="130.28" fx="-303.3" fy="854.51">
<stop offset="0%" style="stop-color:rgb(242,242,242);stop-opacity: 1"/>
<stop offset="100%" style="stop-color:rgb(200,200,200);stop-opacity: 1"/>
</radialGradient>
<radialGradient id="SVGID_radialGradient4079_587" gradientUnits="userSpaceOnUse" gradientTransform="matrix(1.02 -0.01 0 0.45 739.37 230.8)"  cx="-303.3" cy="854.51" r="130.28" fx="-383.53" fy="857.72">
<stop offset="0%" style="stop-color:rgb(140,140,140);stop-opacity: 1"/>
<stop offset="87.253%" style="stop-color:rgb(24,24,24);stop-opacity: 1"/>
<stop offset="96.745%" style="stop-color:rgb(140,140,140);stop-opacity: 1"/>
<stop offset="100%" style="stop-color:rgb(38,38,38);stop-opacity: 1"/>
</radialGradient>
<path style="stroke: url(#SVGID_radialGradient4079_587); stroke-width: 10; stroke-dasharray: none; stroke-linecap: round; stroke-dashoffset: 0; stroke-linejoin: round; stroke-miterlimit: 4; fill: url(#SVGID_radialGradient4077_586); fill-rule: nonzero; opacity: 1;"  transform=" translate(-430.68, -618.77)" d="m 557.6 618.77 a 126.92 54.509 0 0 1 -253.85 0 a 126.92 54.509 0 1 1 253.85 0 z" stroke-linecap="round" />
</g>
		<g transform="matrix(1.1 0 0 1.34 136.69 280.71)" id="path3699"  >
<path style="stroke: none; stroke-width: 1; stroke-dasharray: none; stroke-linecap: butt; stroke-dashoffset: 0; stroke-linejoin: miter; stroke-miterlimit: 4; fill: rgb(102,102,102); fill-opacity: 0.59; fill-rule: nonzero; opacity: 1;"  transform=" translate(311.63, -747.8)" d="m -232.34 747.8 a 79.297 24.749 0 1 1 -158.59 0 a 79.297 24.749 0 1 1 158.59 0 z" stroke-linecap="round" />
</g>
		<g transform="matrix(1.07 0 0 1 138.51 280.15)" id="path3692"  >
<linearGradient id="SVGID_linearGradient4083_588" gradientUnits="userSpaceOnUse" gradientTransform="matrix(1 0 0 1 857.78 106.41)"  x1="-356.21" y1="834.11" x2="-249.02" y2="834.11">
<stop offset="0%" style="stop-color:rgb(140,140,140);stop-opacity: 1"/>
<stop offset="30.144%" style="stop-color:rgb(206,206,206);stop-opacity: 1"/>
<stop offset="100%" style="stop-color:rgb(67,67,67);stop-opacity: 1"/>
</linearGradient>
<path style="stroke: rgb(0,0,0); stroke-width: 1; stroke-dasharray: none; stroke-linecap: round; stroke-dashoffset: 0; stroke-linejoin: round; stroke-miterlimit: 4; fill: url(#SVGID_linearGradient4083_588); fill-rule: nonzero; opacity: 1;"  transform=" translate(-555.16, -940.51)" d="m 502.07 905.03 v 59.906 h 0.1875 c -0.0308 0.14837 -0.0625 0.28761 -0.0625 0.4375 c 0 5.8579 23.742 10.625 53.031 10.625 s 53.031 -4.7671 53.031 -10.625 c 0 -0.27938 -0.0502 -0.53857 -0.15625 -0.8125 v -59.531 h -106.03 z" stroke-linecap="round" />
</g>
		<g transform="matrix(1 0 0 1 -235.77 -157.15)" id="path4224"  >
<radialGradient id="SVGID_radialGradient4072_589" gradientUnits="userSpaceOnUse" gradientTransform="matrix(0.97 -0.32 0.61 1.88 -418.92 -767.5)"  cx="195.89" cy="544.23" r="77.031" fx="195.89" fy="544.23">
<stop offset="0%" style="stop-color:rgb(237,237,237);stop-opacity: 1"/>
<stop offset="81.238%" style="stop-color:rgb(157,157,157);stop-opacity: 1"/>
<stop offset="94.986%" style="stop-color:rgb(222,222,222);stop-opacity: 1"/>
<stop offset="100%" style="stop-color:rgb(171,171,171);stop-opacity: 1"/>
</radialGradient>
<path style="stroke: url(#SVGID_radialGradient4072_589); stroke-width: 15; stroke-dasharray: none; stroke-linecap: round; stroke-dashoffset: 0; stroke-linejoin: miter; stroke-miterlimit: 4; fill: none; fill-rule: nonzero; opacity: 1;"  transform=" translate(-61.2, -187.26)" d="m 49.057 52.95 c -65.653 58.88 -20.002 206.64 55.853 268.62" stroke-linecap="round" />
</g>
		<g transform="matrix(1 0 0 1 -222.86 -309.21)" id="path4235"  >
<radialGradient id="SVGID_radialGradient4069_590" gradientUnits="userSpaceOnUse" gradientTransform="matrix(0.36 0.65 -0.91 0.6 368.66 -216.98)"  cx="51.104" cy="353.04" r="29.673" fx="47.358" fy="343.12">
<stop offset="0%" style="stop-color:rgb(140,140,140);stop-opacity: 1"/>
<stop offset="100%" style="stop-color:rgb(24,24,24);stop-opacity: 1"/>
</radialGradient>
<path style="stroke: none; stroke-width: 1; stroke-dasharray: none; stroke-linecap: butt; stroke-dashoffset: 0; stroke-linejoin: miter; stroke-miterlimit: 4; fill: url(#SVGID_radialGradient4069_590); fill-rule: nonzero; opacity: 1;"  transform=" translate(-74.11, -35.2)" d="m 81.914 51.641 a 17.927 34.335 53.035 1 1 -15.387 -33.02 a 17.927 34.335 53.035 0 1 15.387 33.02 z" stroke-linecap="round" />
</g>
		<g transform="matrix(1 0 0 1 63.85 -135.19)" id="path4259"  >
<radialGradient id="SVGID_radialGradient4066_591" gradientUnits="userSpaceOnUse" gradientTransform="matrix(0.68 0.45 -0.91 1.38 528.03 -773.67)"  cx="467.73" cy="561.62" r="88.315" fx="467.73" fy="561.62">
<stop offset="0%" style="stop-color:rgb(237,237,237);stop-opacity: 1"/>
<stop offset="81.238%" style="stop-color:rgb(157,157,157);stop-opacity: 1"/>
<stop offset="94.986%" style="stop-color:rgb(222,222,222);stop-opacity: 1"/>
<stop offset="100%" style="stop-color:rgb(171,171,171);stop-opacity: 1"/>
</radialGradient>
<path style="stroke: url(#SVGID_radialGradient4066_591); stroke-width: 15; stroke-dasharray: none; stroke-linecap: round; stroke-dashoffset: 0; stroke-linejoin: miter; stroke-miterlimit: 4; fill: none; fill-rule: nonzero; opacity: 1;"  transform=" translate(-360.82, -209.22)" d="m 407.61 82.533 c 60.98 76.427 -18.73 211.8 -114.89 253.37" stroke-linecap="round" />
</g>
		<g transform="matrix(1 0 0 1 97.97 -280.49)" id="path4235-1"  >
<radialGradient id="SVGID_radialGradient4063_592" gradientUnits="userSpaceOnUse" gradientTransform="matrix(0.89 -0.35 0.46 0.89 179.16 -224.4)"  cx="59.813" cy="340.84" r="29.673" fx="55.991" fy="327.16">
<stop offset="0%" style="stop-color:rgb(140,140,140);stop-opacity: 1"/>
<stop offset="100%" style="stop-color:rgb(24,24,24);stop-opacity: 1"/>
</radialGradient>
<path style="stroke: none; stroke-width: 1; stroke-dasharray: none; stroke-linecap: butt; stroke-dashoffset: 0; stroke-linejoin: miter; stroke-miterlimit: 4; fill: url(#SVGID_radialGradient4063_592); fill-rule: nonzero; opacity: 1;"  transform=" translate(-394.94, -63.92)" d="m 409.77 56.868 a 33.061 16.18 53.213 0 1 -29.66 14.114 a 33.061 16.18 53.213 1 1 29.66 -14.114 z" stroke-linecap="round" />
</g>
		<g transform="matrix(1 0 0 1 -6.45 153.4)" id="path4187"  >
<path style="stroke: none; stroke-width: 1; stroke-dasharray: none; stroke-linecap: butt; stroke-dashoffset: 0; stroke-linejoin: miter; stroke-miterlimit: 4; fill: rgb(0,0,0); fill-rule: nonzero; opacity: 1;"  transform=" translate(-290.52, -497.81)" d="m 111.18 317.2 a 12.501 12.501 0 0 0 -12.219 11.5 c -3.3944 35.344 6.426 64.38 23.938 84.5 c 17.123 19.673 41.068 30.73 65.719 32.906 a 12.501 12.501 0 0 0 0.28125 1.063 c 6.6216 22.094 1.8355 31.713 -9.375 41.718 c -11.21 10.006 -31.026 18.066 -51.781 26.125 s -42.515 16.028 -58.219 31.219 c -15.704 15.192 -22.375 39.627 -11.594 68.375 c 9.507 25.35 19.679 42.593 32.719 53.281 c 13.04 10.689 29.787 12.942 44.281 8.125 c 28.988 -9.633 53.594 -39.412 81.781 -73.531 s 58.677 -73.28 91.25 -102.62 c 32.573 -29.345 66.279 -48.159 101.5 -45.687 c 36.88 2.588 72.349 17.804 86.375 37.937 c 7.0132 10.067 9.6557 20.796 6.1562 34.938 c -3.4994 14.142 -14.015 31.91 -35.344 52.281 a 12.51 12.51 0 1 0 17.281 18.094 c 23.57 -22.512 37.263 -43.844 42.344 -64.375 c 5.0805 -20.532 0.67374 -40.064 -9.9062 -55.25 c -21.16 -30.373 -63.037 -45.607 -105.16 -48.563 c -2.8154 -0.197 -5.6307 -0.289 -8.4062 -0.281 c -41.633 0.114 -78.766 22.797 -111.56 52.344 c -34.983 31.516 -65.993 71.576 -93.812 105.25 c -27.819 33.673 -53.744 60.223 -70.375 65.75 c -8.3153 2.763 -13.141 2.308 -20.531 -3.75 c -7.3904 -6.058 -16.499 -19.551 -25.188 -42.719 c -8.4555 -22.546 -4.505 -31.886 5.5625 -41.625 s 29.227 -17.877 49.906 -25.906 c 20.679 -8.03 42.803 -16.018 59.344 -30.782 c 15.562 -13.889 24.261 -35.869 18.031 -62.468 c 42.374 -7.256 81.382 -41.902 85.688 -101.5 a 12.501 12.501 0 1 0 -24.906 -1.813 c -4.282 59.272 -44.545 82.315 -82.844 79.563 c -19.15 -1.376 -37.522 -9.733 -50.375 -24.5 c -12.853 -14.768 -20.753 -36.077 -17.906 -65.719 a 12.501 12.501 0 0 0 -12.656 -13.875 z" stroke-linecap="round" />
</g>
		<g transform="matrix(1 0 0 1 -11.24 149.91)" id="path3097"  >
<path style="stroke: none; stroke-width: 1; stroke-dasharray: none; stroke-linecap: butt; stroke-dashoffset: 0; stroke-linejoin: miter; stroke-miterlimit: 4; fill: rgb(255,255,255); fill-opacity: 0.58; fill-rule: nonzero; opacity: 1;"  transform=" translate(-285.73, -494.32)" d="m 106.19 321.69 c -11.262 15.667 -3.0212 41.541 3.3019 59.386 c 13.348 34.049 55.074 50.598 90.26 53.037 c 9.7322 20.229 -2.0918 49.755 -22.118 61.306 c -34.539 25.153 -83.79 24.713 -112.41 58.743 c -19.874 26.533 -4.6486 61.581 10.601 86.422 c 9.9227 19.703 34.801 33.414 55.958 22.501 c 34.028 -16.069 55.555 -48.814 79.694 -76.36 c 39.909 -47.458 77.856 -99.981 133.14 -130.65 c 40.419 -21.34 91.87 -16.776 130.79 5.574 c 18.255 12.826 34.594 34.455 33.865 57.043 c -1.5878 16.009 -17.892 40.598 -20.534 46.853 c 17.544 -13.197 29.448 -33.668 26.541 -56.138 c -2.3588 -38.704 -40.389 -61.645 -74.491 -70.188 c -34.029 -9.436 -71.738 -7.668 -102.62 10.606 c -69.239 39.105 -111.02 109.44 -164.19 165.99 c -17.794 17.583 -38.123 33.715 -61.463 43.023 c -24.893 -4.829 -33.699 -35.902 -44.052 -56.242 c -11.574 -19.747 -2.8816 -46.143 17.16 -56.434 c 35.27 -22.258 84.536 -23.733 110.03 -60.202 c 14.676 -13.674 2.3868 -42.514 8.1263 -51.098 c 47.496 -5.739 82.472 -48.141 82.784 -95.755 c -13.658 -13.003 -8.006 25.162 -13.418 36.687 c -18.082 38.509 -55.704 65.763 -113.5 46.066 c -36.175 -12.329 -51.373 -46.748 -49.541 -83.852 c -1.5505 -4.802 4.4085 -15.948 -3.9114 -16.321 z" stroke-linecap="round" />
</g>
		<g transform="matrix(1 0 0 1 133.7 248.04)" id="path3655"  >
<linearGradient id="SVGID_linearGradient4081_593" gradientUnits="userSpaceOnUse" gradientTransform="matrix(1 0 0 1 733.29 -245.23)"  x1="-356.21" y1="834.11" x2="-249.02" y2="834.11">
<stop offset="0%" style="stop-color:rgb(140,140,140);stop-opacity: 1"/>
<stop offset="30.144%" style="stop-color:rgb(206,206,206);stop-opacity: 1"/>
<stop offset="100%" style="stop-color:rgb(67,67,67);stop-opacity: 1"/>
</linearGradient>
<path style="stroke: none; stroke-width: 1; stroke-dasharray: none; stroke-linecap: butt; stroke-dashoffset: 0; stroke-linejoin: miter; stroke-miterlimit: 4; fill: url(#SVGID_linearGradient4081_593); fill-rule: nonzero; opacity: 1;"  transform=" translate(-430.67, -592.45)" d="m 377.58 553.39 v 59.906 h 0.1875 c -0.0308 0.148 -0.0625 0.287 -0.0625 0.437 c 0 5.858 22.313 17.768 51.603 17.768 c 29.289 0 54.46 -11.91 54.46 -17.768 c 0 -0.279 -0.0502 -0.538 -0.15625 -0.812 v -59.531 h -106.03 z" stroke-linecap="round" />
</g>
		<g transform="matrix(1 0 0 1 132.17 204.71)" id="path3653"  >
<radialGradient id="SVGID_radialGradient4055_594" gradientUnits="userSpaceOnUse" gradientTransform="matrix(0.99 0 0 0.4 737.23 250.45)"  cx="-311.63" cy="734.87" r="85.297" fx="-311.63" fy="734.87">
<stop offset="0%" style="stop-color:rgb(237,237,237);stop-opacity: 1"/>
<stop offset="100%" style="stop-color:rgb(146,146,146);stop-opacity: 1"/>
</radialGradient>
<radialGradient id="SVGID_radialGradient4057_595" gradientUnits="userSpaceOnUse" gradientTransform="matrix(0.99 0 0 0.4 737.23 250.45)"  cx="-311.63" cy="734.87" r="85.297" fx="-311.63" fy="734.87">
<stop offset="0%" style="stop-color:rgb(140,140,140);stop-opacity: 1"/>
<stop offset="74.729%" style="stop-color:rgb(24,24,24);stop-opacity: 1"/>
<stop offset="94.499%" style="stop-color:rgb(140,140,140);stop-opacity: 1"/>
<stop offset="100%" style="stop-color:rgb(38,38,38);stop-opacity: 1"/>
</radialGradient>
<path style="stroke: url(#SVGID_radialGradient4057_595); stroke-width: 15; stroke-dasharray: none; stroke-linecap: round; stroke-dashoffset: 0; stroke-linejoin: round; stroke-miterlimit: 4; fill: url(#SVGID_radialGradient4055_594); fill-rule: nonzero; opacity: 1;"  transform=" translate(-429.14, -549.12)" d="m 507.54 549.12 a 78.394 33.132 0 1 1 -156.79 0 a 78.394 33.132 0 1 1 156.79 0 z" stroke-linecap="round" />
</g>
</g>
</g>
</svg>