<?xml version="1.0" encoding="UTF-8" standalone="no" ?>
<!DOCTYPE svg PUBLIC "-//W3C//DTD SVG 1.1//EN" "http://www.w3.org/Graphics/SVG/1.1/DTD/svg11.dtd">
<svg xmlns="http://www.w3.org/2000/svg" xmlns:xlink="http://www.w3.org/1999/xlink" version="1.1" width="400" height="400" viewBox="0 0 400 400" xml:space="preserve">
<desc>Created with Fabric.js 3.6.3</desc>
<defs>
</defs>
<rect x="0" y="0" width="100%" height="100%" fill="rgba(255, 255, 255, 1)"></rect>
<g transform="matrix(1 0 0 1 205 240.24)" style=""  >
		<text xml:space="preserve" font-family="'Open Sans', sans-serif" font-size="18" font-style="normal" font-weight="normal" style="stroke: none; stroke-width: 1; stroke-dasharray: none; stroke-linecap: butt; stroke-dashoffset: 0; stroke-linejoin: miter; stroke-miterlimit: 4; fill: rgb(0,0,0); fill-rule: nonzero; opacity: 1; white-space: pre;" ><tspan x="-108.5" y="5.97" style="font-size: 19px; font-weight: bold; ">Your Company Name</tspan></text>
</g>
<g transform="matrix(1 0 0 1 229.48 273.67)" style=""  >
		<text xml:space="preserve" font-family="'Open Sans', sans-serif" font-size="18" font-style="normal" font-weight="normal" style="stroke: none; stroke-width: 1; stroke-dasharray: none; stroke-linecap: butt; stroke-dashoffset: 0; stroke-linejoin: miter; stroke-miterlimit: 4; fill: rgb(0,0,0); fill-rule: nonzero; opacity: 1; white-space: pre;" ><tspan x="-81.99" y="5.65" >slogan here</tspan></text>
</g>
<g transform="matrix(0.82 0 0 0.81 200.25 150)"  >
<g style=""   >
		<g transform="matrix(1 0 0 1 -0.14 49.33)" id="Layer_1"  >
<path style="stroke: none; stroke-width: 1; stroke-dasharray: none; stroke-linecap: butt; stroke-dashoffset: 0; stroke-linejoin: miter; stroke-miterlimit: 4; fill: rgb(255,255,254); fill-rule: nonzero; opacity: 1;"  transform=" translate(-99.36, -137.33)" d="M 130.707 174.685 L 135.192 144.465 L 135.666 142.768 C 135.666 142.768 156.416 147.935 167.541 148.935 C 173.763 149.494 177.646 145.826 179.541 139.81 C 181.666 133.06 187.45 108.771 187.464 107.922 C 187.647 106.117 187.073 105.725 185.749 105.091 L 173.618 100.31 C 171.655 99.686 170.977 101.424 170.977 101.424 C 170.977 101.424 166.554 117.392 164.374 125.352 L 163.968 127.061 C 163.968 127.061 141.937 117.352 132.79 115.185 C 123.512 112.987 116.749 111.977 110.374 111.914 L 108.062 109.914 L 105.687 108.664 L 92.062 108.727 L 90.249 109.977 L 88.874 111.914 C 82.499 111.977 75.736 112.987 66.458 115.185 C 57.312 117.352 35.368 126.855 35.368 126.855 L 34.337 125.152 C 32.158 117.193 27.734 101.218 27.734 101.218 C 27.734 101.218 27.056 99.48 25.093 100.104 L 12.962 104.885 C 11.638 105.519 11.063 105.911 11.247 107.716 C 11.26 108.565 18.375 134.466 19.747 139.843 C 21.306 145.955 25.201 149.72 31.417 149.103 C 40.788 148.172 62.957 142.768 62.957 142.768 L 63.329 144.485 L 67.541 174.685" stroke-linecap="round" />
</g>
		<g transform="matrix(1 0 0 1 0.27 75.12)" id="Layer_1"  >
<path style="stroke: none; stroke-width: 1; stroke-dasharray: none; stroke-linecap: butt; stroke-dashoffset: 0; stroke-linejoin: miter; stroke-miterlimit: 4; fill: rgb(197,218,232); fill-rule: nonzero; opacity: 1;"  transform=" translate(-99.77, -163.12)" d="M 134.374 151.56 C 129.749 157.31 116.03 163.268 98.577 163.268 C 81.124 163.268 67.749 156.685 65.16 153.352 L 67.541 174.685 L 130.874 174.56 C 130.874 174.56 132.624 160.185 134.374 151.56" stroke-linecap="round" />
</g>
		<g transform="matrix(1 0 0 1 -0.35 24.45)" id="Layer_1"  >
<path style="stroke: none; stroke-width: 1; stroke-dasharray: none; stroke-linecap: butt; stroke-dashoffset: 0; stroke-linejoin: miter; stroke-miterlimit: 4; fill: rgb(248,210,181); fill-rule: nonzero; opacity: 1;"  transform=" translate(-99.15, -112.45)" d="M 105.861 112.843 C 105.871 110.95 105.636 106.444 105.636 106.444 L 92.512 106.444 C 92.512 106.444 92.401 111.2 92.441 112.51 C 92.441 112.51 94.059 118.449 99.406 118.449 C 104.752 118.449 105.861 112.843 105.861 112.843" stroke-linecap="round" />
</g>
		<g transform="matrix(1 0 0 1 -0.28 -53.56)" id="Layer_1"  >
<path style="stroke: none; stroke-width: 1; stroke-dasharray: none; stroke-linecap: butt; stroke-dashoffset: 0; stroke-linejoin: miter; stroke-miterlimit: 4; fill: rgb(118,80,74); fill-rule: nonzero; opacity: 1;"  transform=" translate(-99.22, -34.44)" d="M 59.326 62.272 C 57.201 56.313 57.603 52.893 57.603 52.893 L 55.912 56.124 C 48.162 25.916 64.537 20.442 64.537 20.442 C 64.537 20.442 58.055 18.442 58.233 12.067 C 58.233 12.067 67.162 14.192 76.995 8.442 C 86.097 3.119 99.011 -0.521 112.079 1.973 C 123.87 4.223 126.162 12.582 126.162 12.582 C 126.162 12.582 137.872 14.263 142.287 26.873 C 147.037 40.442 143.037 53.567 143.037 53.567 L 141.817 49.961 C 141.817 49.961 141.557 55.313 138.535 62.416 L 137.245 66.041 L 61.079 67.707 L 59.326 62.272" stroke-linecap="round" />
</g>
		<g transform="matrix(1 0 0 1 -0.78 -53.56)" id="Layer_1"  >
<path style="stroke: none; stroke-width: 1; stroke-dasharray: none; stroke-linecap: butt; stroke-dashoffset: 0; stroke-linejoin: miter; stroke-miterlimit: 4; fill: rgb(190,150,133); fill-rule: nonzero; opacity: 1;"  transform=" translate(-98.72, -34.44)" d="M 59.495 62.796 L 61.079 67.707 L 63.391 67.657 L 59.537 62.832 C 59.528 62.83 59.51 62.809 59.495 62.796 z M 142.287 26.873 C 137.872 14.263 126.162 12.582 126.162 12.582 C 126.162 12.582 123.87 4.223 112.079 1.973 C 99.011 -0.521 86.097 3.119 76.995 8.442 C 67.162 14.192 58.233 12.067 58.233 12.067 C 58.055 18.442 64.537 20.442 64.537 20.442 C 64.537 20.442 48.162 25.916 55.912 56.124 L 56.188 55.597 C 56.118 55.285 56.061 54.983 56.037 54.707 C 53.662 27.707 68.446 20.537 68.446 20.537 C 68.446 20.537 70.006 15.598 79.839 9.848 C 88.94 4.527 100.845 1.869 113.997 3.876 C 126.94 5.851 126.836 16.494 126.836 16.494 C 126.836 16.494 139.128 18.878 143.603 31.559 C 143.267 30.016 142.839 28.448 142.287 26.873" stroke-linecap="round" />
</g>
		<g transform="matrix(1 0 0 1 -37.91 -14.38)" id="Layer_1"  >
<path style="stroke: none; stroke-width: 1; stroke-dasharray: none; stroke-linecap: butt; stroke-dashoffset: 0; stroke-linejoin: miter; stroke-miterlimit: 4; fill: rgb(248,210,181); fill-rule: nonzero; opacity: 1;"  transform=" translate(-61.59, -73.62)" d="M 68.037 84.31 C 57.412 84.81 52.662 70.151 56.412 64.901 C 59.117 61.114 64.581 63.548 65.603 65.624" stroke-linecap="round" />
</g>
		<g transform="matrix(1 0 0 1 -36.2 -13.93)" id="Layer_1"  >
<path style="stroke: none; stroke-width: 1; stroke-dasharray: none; stroke-linecap: butt; stroke-dashoffset: 0; stroke-linejoin: miter; stroke-miterlimit: 4; fill: rgb(211,153,133); fill-rule: nonzero; opacity: 1;"  transform=" translate(-63.3, -74.07)" d="M 65.365 71.534 C 66.368 74.405 67.659 78.649 65.696 79.335 C 63.731 80.021 61.327 78.25 60.325 75.379 C 59.321 72.509 60.101 69.624 62.063 68.939 C 64.03 68.252 64.362 68.664 65.365 71.534" stroke-linecap="round" />
</g>
		<g transform="matrix(1 0 0 1 37.48 -14.38)" id="Layer_1"  >
<path style="stroke: none; stroke-width: 1; stroke-dasharray: none; stroke-linecap: butt; stroke-dashoffset: 0; stroke-linejoin: miter; stroke-miterlimit: 4; fill: rgb(248,210,181); fill-rule: nonzero; opacity: 1;"  transform=" translate(-136.98, -73.62)" d="M 130.537 84.31 C 141.162 84.81 145.912 70.151 142.162 64.901 C 139.457 61.114 133.993 63.548 132.972 65.624" stroke-linecap="round" />
</g>
		<g transform="matrix(1 0 0 1 -0.53 21.46)" id="Layer_1"  >
<path style="stroke: none; stroke-width: 1; stroke-dasharray: none; stroke-linecap: butt; stroke-dashoffset: 0; stroke-linejoin: miter; stroke-miterlimit: 4; fill: rgb(211,153,133); fill-rule: nonzero; opacity: 1;"  transform=" translate(-98.97, -109.46)" d="M 92.729 104.565 L 105.427 104.565 L 105.564 110.983 C 105.564 110.983 98.745 116.689 92.37 113.273 L 92.61 109.502 L 92.729 104.565" stroke-linecap="round" />
</g>
		<g transform="matrix(1 0 0 1 -0.21 -23.6)" id="Layer_1"  >
<path style="stroke: none; stroke-width: 1; stroke-dasharray: none; stroke-linecap: butt; stroke-dashoffset: 0; stroke-linejoin: miter; stroke-miterlimit: 4; fill: rgb(248,210,181); fill-rule: nonzero; opacity: 1;"  transform=" translate(-99.29, -64.4)" d="M 78.981 31.666 C 66.287 34.817 65.662 56.124 65.662 56.124 C 65.373 67.481 65.885 87.001 72.787 94.435 C 79.644 101.818 86.287 105.435 92.162 107.185 C 92.162 107.185 99.412 109.602 106.412 107.185 C 112.287 105.435 118.931 101.818 125.787 94.435 C 133.31 86.334 133.243 63.692 132.819 53.307 C 132.694 50.231 131.004 46.713 130.267 45.836 C 119.537 33.067 119.567 25.173 119.567 25.173 L 118.058 26.989 C 115.291 29.752 110.197 32.503 100.878 33.873 C 100.878 33.873 104.212 22.541 106.878 20.541 C 106.878 20.541 95.212 35.373 76.212 38.873 C 76.212 38.873 76.81 36.302 78.36 32.945 L 78.981 31.666" stroke-linecap="round" />
</g>
		<g transform="matrix(1 0 0 1 -17.96 -42.76)" id="Layer_1"  >
<path style="stroke: none; stroke-width: 1; stroke-dasharray: none; stroke-linecap: butt; stroke-dashoffset: 0; stroke-linejoin: miter; stroke-miterlimit: 4; fill: rgb(26,25,25); fill-rule: nonzero; opacity: 1;"  transform=" translate(-81.54, -45.24)" d="M 89.716 47.449 C 89.304 47.795 88.214 47.11 86.642 46.153 C 85.089 45.213 82.922 44.026 80.862 44.325 C 78.789 44.57 77.008 46.24 75.947 47.56 C 74.843 48.899 74.427 49.914 73.911 49.961 C 73.658 49.976 73.376 49.645 73.263 48.985 C 73.151 48.332 73.219 47.387 73.589 46.321 C 73.96 45.256 74.62 44.048 75.72 42.94 C 76.802 41.844 78.423 40.834 80.376 40.588 C 82.329 40.326 84.153 40.894 85.462 41.651 C 86.796 42.412 87.736 43.337 88.413 44.162 C 89.753 45.837 90.099 47.133 89.716 47.449" stroke-linecap="round" />
</g>
		<g transform="matrix(1 0 0 1 17.54 -42.76)" id="Layer_1"  >
<path style="stroke: none; stroke-width: 1; stroke-dasharray: none; stroke-linecap: butt; stroke-dashoffset: 0; stroke-linejoin: miter; stroke-miterlimit: 4; fill: rgb(26,25,25); fill-rule: nonzero; opacity: 1;"  transform=" translate(-117.04, -45.24)" d="M 108.858 47.449 C 108.476 47.133 108.821 45.837 110.161 44.162 C 110.838 43.337 111.778 42.412 113.112 41.651 C 114.421 40.894 116.245 40.326 118.198 40.588 C 120.151 40.834 121.772 41.844 122.854 42.94 C 123.954 44.048 124.614 45.256 124.985 46.321 C 125.355 47.387 125.423 48.332 125.311 48.985 C 125.198 49.645 124.915 49.976 124.661 49.961 C 124.146 49.914 123.731 48.899 122.627 47.56 C 121.566 46.24 119.785 44.57 117.712 44.325 C 115.652 44.026 113.485 45.213 111.933 46.153 C 110.36 47.11 109.271 47.795 108.858 47.449" stroke-linecap="round" />
</g>
		<g transform="matrix(1 0 0 1 -23.24 -13.34)" id="Layer_1"  >
<path style="stroke: none; stroke-width: 1; stroke-dasharray: none; stroke-linecap: butt; stroke-dashoffset: 0; stroke-linejoin: miter; stroke-miterlimit: 4; fill: rgb(237,158,153); fill-rule: nonzero; opacity: 1;"  transform=" translate(-76.26, -74.66)" d="M 83.15 74.662 C 83.15 76.033 80.066 77.143 76.263 77.143 C 72.458 77.143 69.374 76.033 69.374 74.662 C 69.374 73.293 72.458 72.184 76.263 72.184 C 80.066 72.184 83.15 73.293 83.15 74.662" stroke-linecap="round" />
</g>
		<g transform="matrix(1 0 0 1 23.45 -13.34)" id="Layer_1"  >
<path style="stroke: none; stroke-width: 1; stroke-dasharray: none; stroke-linecap: butt; stroke-dashoffset: 0; stroke-linejoin: miter; stroke-miterlimit: 4; fill: rgb(237,158,153); fill-rule: nonzero; opacity: 1;"  transform=" translate(-122.95, -74.66)" d="M 129.841 74.662 C 129.841 76.033 126.757 77.143 122.952 77.143 C 119.147 77.143 116.063 76.033 116.063 74.662 C 116.063 73.293 119.147 72.184 122.952 72.184 C 126.757 72.184 129.841 73.293 129.841 74.662" stroke-linecap="round" />
</g>
		<g transform="matrix(1 0 0 1 35.77 -13.93)" id="Layer_1"  >
<path style="stroke: none; stroke-width: 1; stroke-dasharray: none; stroke-linecap: butt; stroke-dashoffset: 0; stroke-linejoin: miter; stroke-miterlimit: 4; fill: rgb(211,153,133); fill-rule: nonzero; opacity: 1;"  transform=" translate(-135.27, -74.07)" d="M 133.209 71.534 C 132.206 74.405 130.915 78.649 132.878 79.335 C 134.843 80.021 137.247 78.25 138.249 75.379 C 139.253 72.509 138.474 69.624 136.511 68.939 C 134.544 68.252 134.212 68.664 133.209 71.534" stroke-linecap="round" />
</g>
		<g transform="matrix(1 0 0 1 -14.42 -59.31)" id="Layer_1"  >
<path style="stroke: none; stroke-width: 1; stroke-dasharray: none; stroke-linecap: butt; stroke-dashoffset: 0; stroke-linejoin: miter; stroke-miterlimit: 4; fill: rgb(190,150,133); fill-rule: nonzero; opacity: 1;"  transform=" translate(-85.08, -28.7)" d="M 93.335 18.933 C 93.335 18.933 81.631 21.692 76.829 38.457 L 80.795 37.659 C 80.795 37.659 84.724 25.035 93.335 18.933" stroke-linecap="round" />
</g>
		<g transform="matrix(1 0 0 1 6.18 -61.65)" id="Layer_1"  >
<path style="stroke: none; stroke-width: 1; stroke-dasharray: none; stroke-linecap: butt; stroke-dashoffset: 0; stroke-linejoin: miter; stroke-miterlimit: 4; fill: rgb(190,150,133); fill-rule: nonzero; opacity: 1;"  transform=" translate(-105.68, -26.35)" d="M 109.87 19.166 C 109.87 19.166 104.842 20.211 101.495 33.541 L 104.787 32.998 C 104.787 32.998 105.912 23.666 109.87 19.166" stroke-linecap="round" />
</g>
		<g transform="matrix(1 0 0 1 -0.36 39.05)" id="Layer_1"  >
<path style="stroke: none; stroke-width: 1; stroke-dasharray: none; stroke-linecap: butt; stroke-dashoffset: 0; stroke-linejoin: miter; stroke-miterlimit: 4; fill: rgb(165,185,204); fill-rule: nonzero; opacity: 1;"  transform=" translate(-99.14, -127.05)" d="M 91.266 131.092 L 96.266 123.467 L 102.393 123.016 L 107.016 129.967 C 107.016 129.967 96.891 126.217 91.266 131.092" stroke-linecap="round" />
</g>
		<g transform="matrix(1 0 0 1 -0.08 59.01)" id="Layer_1"  >
<path style="stroke: none; stroke-width: 1; stroke-dasharray: none; stroke-linecap: butt; stroke-dashoffset: 0; stroke-linejoin: miter; stroke-miterlimit: 4; fill: rgb(53,160,205); fill-rule: nonzero; opacity: 1;"  transform=" translate(-99.42, -147.01)" d="M 91.221 174.967 L 97.807 128.312 L 96.35 123.016 L 99.182 119.05 L 99.932 119.05 L 102.393 123.016 L 100.493 128.312 L 107.618 174.967" stroke-linecap="round" />
</g>
		<g transform="matrix(1 0 0 1 -40.46 54.19)" id="Layer_1"  >
<path style="stroke: none; stroke-width: 1; stroke-dasharray: none; stroke-linecap: butt; stroke-dashoffset: 0; stroke-linejoin: miter; stroke-miterlimit: 4; fill: rgb(197,218,232); fill-rule: nonzero; opacity: 1;"  transform=" translate(-59.04, -142.19)" d="M 62.791 139.519 L 62.957 142.768 L 55.124 144.852 C 55.124 144.852 61.208 141.853 62.791 139.519" stroke-linecap="round" />
</g>
		<g transform="matrix(1 0 0 1 -86.24 19.42)" id="Layer_1"  >
<path style="stroke: none; stroke-width: 1; stroke-dasharray: none; stroke-linecap: butt; stroke-dashoffset: 0; stroke-linejoin: miter; stroke-miterlimit: 4; fill: rgb(197,218,232); fill-rule: nonzero; opacity: 1;"  transform=" translate(-13.26, -107.42)" d="M 13.056 105.167 C 13.056 105.167 11.556 105.417 11.431 106.167 C 11.306 106.917 11.243 108.355 11.681 108.792 C 12.118 109.23 15.181 109.667 15.181 109.667 L 13.056 105.167" stroke-linecap="round" />
</g>
		<g transform="matrix(1 0 0 1 -73.16 14.16)" id="Layer_1"  >
<path style="stroke: none; stroke-width: 1; stroke-dasharray: none; stroke-linecap: butt; stroke-dashoffset: 0; stroke-linejoin: miter; stroke-miterlimit: 4; fill: rgb(197,218,232); fill-rule: nonzero; opacity: 1;"  transform=" translate(-26.34, -102.16)" d="M 24.931 99.98 L 26.056 104.355 C 26.056 104.355 27.618 103.667 27.681 102.48 C 27.743 101.292 27.993 100.48 27.056 100.167 C 26.118 99.855 24.931 99.98 24.931 99.98" stroke-linecap="round" />
</g>
		<g transform="matrix(1 0 0 1 86.06 19.91)" id="Layer_1"  >
<path style="stroke: none; stroke-width: 1; stroke-dasharray: none; stroke-linecap: butt; stroke-dashoffset: 0; stroke-linejoin: miter; stroke-miterlimit: 4; fill: rgb(197,218,232); fill-rule: nonzero; opacity: 1;"  transform=" translate(-185.56, -107.91)" d="M 185.761 105.658 C 185.761 105.658 187.261 105.908 187.386 106.658 C 187.511 107.408 187.573 108.846 187.136 109.283 C 186.698 109.721 183.636 110.158 183.636 110.158 L 185.761 105.658" stroke-linecap="round" />
</g>
		<g transform="matrix(1 0 0 1 72.97 14.65)" id="Layer_1"  >
<path style="stroke: none; stroke-width: 1; stroke-dasharray: none; stroke-linecap: butt; stroke-dashoffset: 0; stroke-linejoin: miter; stroke-miterlimit: 4; fill: rgb(197,218,232); fill-rule: nonzero; opacity: 1;"  transform=" translate(-172.47, -102.65)" d="M 173.886 100.471 L 172.761 104.846 C 172.761 104.846 171.198 104.158 171.136 102.971 C 171.073 101.783 170.823 100.971 171.761 100.658 C 172.698 100.346 173.886 100.471 173.886 100.471" stroke-linecap="round" />
</g>
		<g transform="matrix(1 0 0 1 -0.08 53.39)" id="Layer_1"  >
<path style="stroke: rgb(26,25,25); stroke-width: 1.4; stroke-dasharray: none; stroke-linecap: round; stroke-dashoffset: 0; stroke-linejoin: round; stroke-miterlimit: 4; fill: rgb(0,0,0); fill-opacity: 0; fill-rule: nonzero; opacity: 1;"  transform=" translate(-99.42, -141.39)" d="M 105.823 107.477 C 105.823 107.477 105.904 110.756 106.148 112.467 C 106.148 112.467 103.985 117.187 99.354 118.562 C 94.722 117.187 92.379 112.508 92.379 112.508 C 92.501 110.511 92.542 107.477 92.542 107.477 M 107.616 174.967 L 100.491 128.312 L 102.166 123.56 M 96.499 123.852 L 97.805 128.312 L 91.219 175.3" stroke-linecap="round" />
</g>
		<g transform="matrix(1 0 0 1 -0.12 32.33)" id="Layer_1"  >
<path style="stroke: rgb(26,25,25); stroke-width: 1.2; stroke-dasharray: none; stroke-linecap: round; stroke-dashoffset: 0; stroke-linejoin: round; stroke-miterlimit: 4; fill: rgb(0,0,0); fill-opacity: 0; fill-rule: nonzero; opacity: 1;"  transform=" translate(-99.38, -120.33)" d="M 99.384 119.151 L 90.58 132.271 C 90.58 132.271 88.06 128.835 87.254 120.378 C 87.053 118.262 87.245 115.163 88.262 112.416 C 89.27 109.695 91.55 108.569 92.165 108.394 M 99.384 119.151 L 108.189 132.271 C 108.189 132.271 110.71 128.835 111.516 120.378 C 111.717 118.262 111.523 115.163 110.508 112.416 C 109.498 109.695 106.865 108.694 106.249 108.519" stroke-linecap="round" />
</g>
		<g transform="matrix(1 0 0 1 -16.11 -25.69)" id="Layer_1"  >
<path style="stroke: none; stroke-width: 1; stroke-dasharray: none; stroke-linecap: butt; stroke-dashoffset: 0; stroke-linejoin: miter; stroke-miterlimit: 4; fill: rgb(255,255,254); fill-rule: nonzero; opacity: 1;"  transform=" translate(-83.39, -62.31)" d="M 89.697 62.313 C 89.697 66.858 86.873 70.542 83.39 70.542 C 79.905 70.542 77.079 66.858 77.079 62.313 C 77.079 57.768 79.905 54.084 83.39 54.084 C 86.873 54.084 89.697 57.768 89.697 62.313" stroke-linecap="round" />
</g>
		<g transform="matrix(1 0 0 1 -14.68 -24.5)" id="Layer_1"  >
<path style="stroke: none; stroke-width: 1; stroke-dasharray: none; stroke-linecap: butt; stroke-dashoffset: 0; stroke-linejoin: miter; stroke-miterlimit: 4; fill: rgb(26,25,25); fill-rule: nonzero; opacity: 1;"  transform=" translate(-84.82, -63.5)" d="M 88.714 63.501 C 88.714 66.597 86.972 69.107 84.824 69.107 C 82.676 69.107 80.935 66.597 80.935 63.501 C 80.935 60.405 82.676 57.895 84.824 57.895 C 86.972 57.895 88.714 60.405 88.714 63.501" stroke-linecap="round" />
</g>
		<g transform="matrix(1 0 0 1 -12 -26.38)" id="Layer_1"  >
<path style="stroke: none; stroke-width: 1; stroke-dasharray: none; stroke-linecap: butt; stroke-dashoffset: 0; stroke-linejoin: miter; stroke-miterlimit: 4; fill: rgb(255,255,254); fill-rule: nonzero; opacity: 1;"  transform=" translate(-87.5, -61.62)" d="M 88.646 61.624 C 88.646 62.258 88.132 62.773 87.497 62.773 C 86.862 62.773 86.347 62.258 86.347 61.624 C 86.347 60.99 86.862 60.475 87.497 60.475 C 88.132 60.475 88.646 60.99 88.646 61.624" stroke-linecap="round" />
</g>
		<g transform="matrix(1 0 0 1 -16.33 -31.51)" id="Layer_1"  >
<path style="stroke: none; stroke-width: 1; stroke-dasharray: none; stroke-linecap: butt; stroke-dashoffset: 0; stroke-linejoin: miter; stroke-miterlimit: 4; fill: rgb(210,224,235); fill-rule: nonzero; opacity: 1;"  transform=" translate(-83.17, -56.49)" d="M 84.008 56.821 C 85.604 56.821 87.125 57.11 88.529 57.619 C 87.268 55.782 85.439 54.618 83.4 54.618 C 81.096 54.618 79.062 56.098 77.811 58.362 C 79.637 57.387 81.75 56.821 84.008 56.821" stroke-linecap="round" />
</g>
		<g transform="matrix(1 0 0 1 -16.64 -29.97)" id="Layer_1"  >
<path style="stroke: rgb(26,25,25); stroke-width: 1.6; stroke-dasharray: none; stroke-linecap: round; stroke-dashoffset: 0; stroke-linejoin: round; stroke-miterlimit: 4; fill: rgb(0,0,0); fill-opacity: 0; fill-rule: nonzero; opacity: 1;"  transform=" translate(-82.86, -58.03)" d="M 89.007 57.543 C 86.583 52.43 77.071 51.981 76.709 62.061" stroke-linecap="round" />
</g>
		<g transform="matrix(1 0 0 1 15.47 -25.69)" id="Layer_1"  >
<path style="stroke: none; stroke-width: 1; stroke-dasharray: none; stroke-linecap: butt; stroke-dashoffset: 0; stroke-linejoin: miter; stroke-miterlimit: 4; fill: rgb(255,255,254); fill-rule: nonzero; opacity: 1;"  transform=" translate(-114.97, -62.31)" d="M 108.665 62.313 C 108.665 66.858 111.489 70.542 114.973 70.542 C 118.457 70.542 121.283 66.858 121.283 62.313 C 121.283 57.768 118.457 54.084 114.973 54.084 C 111.489 54.084 108.665 57.768 108.665 62.313" stroke-linecap="round" />
</g>
		<g transform="matrix(1 0 0 1 14.04 -24.5)" id="Layer_1"  >
<path style="stroke: none; stroke-width: 1; stroke-dasharray: none; stroke-linecap: butt; stroke-dashoffset: 0; stroke-linejoin: miter; stroke-miterlimit: 4; fill: rgb(26,25,25); fill-rule: nonzero; opacity: 1;"  transform=" translate(-113.54, -63.5)" d="M 109.648 63.501 C 109.648 66.597 111.391 69.107 113.538 69.107 C 115.687 69.107 117.428 66.597 117.428 63.501 C 117.428 60.405 115.687 57.895 113.538 57.895 C 111.391 57.895 109.648 60.405 109.648 63.501" stroke-linecap="round" />
</g>
		<g transform="matrix(1 0 0 1 16.7 -26.38)" id="Layer_1"  >
<path style="stroke: none; stroke-width: 1; stroke-dasharray: none; stroke-linecap: butt; stroke-dashoffset: 0; stroke-linejoin: miter; stroke-miterlimit: 4; fill: rgb(255,255,254); fill-rule: nonzero; opacity: 1;"  transform=" translate(-116.2, -61.62)" d="M 115.05 61.624 C 115.05 62.258 115.563 62.773 116.198 62.773 C 116.833 62.773 117.349 62.258 117.349 61.624 C 117.349 60.99 116.833 60.475 116.198 60.475 C 115.563 60.475 115.05 60.99 115.05 61.624" stroke-linecap="round" />
</g>
		<g transform="matrix(1 0 0 1 15.61 -31.51)" id="Layer_1"  >
<path style="stroke: none; stroke-width: 1; stroke-dasharray: none; stroke-linecap: butt; stroke-dashoffset: 0; stroke-linejoin: miter; stroke-miterlimit: 4; fill: rgb(210,224,235); fill-rule: nonzero; opacity: 1;"  transform=" translate(-115.11, -56.49)" d="M 114.271 56.821 C 112.676 56.821 111.154 57.11 109.75 57.619 C 111.012 55.782 112.84 54.618 114.879 54.618 C 117.184 54.618 119.217 56.098 120.469 58.362 C 118.643 57.387 116.529 56.821 114.271 56.821" stroke-linecap="round" />
</g>
		<g transform="matrix(1 0 0 1 16 -29.97)" id="Layer_1"  >
<path style="stroke: rgb(26,25,25); stroke-width: 1.6; stroke-dasharray: none; stroke-linecap: round; stroke-dashoffset: 0; stroke-linejoin: round; stroke-miterlimit: 4; fill: rgb(0,0,0); fill-opacity: 0; fill-rule: nonzero; opacity: 1;"  transform=" translate(-115.5, -58.03)" d="M 109.355 57.543 C 111.779 52.43 121.291 51.981 121.653 62.061" stroke-linecap="round" />
</g>
		<g transform="matrix(1 0 0 1 -0.28 -33.29)" id="Layer_1"  >
<path style="stroke: rgb(26,25,25); stroke-width: 1.4; stroke-dasharray: none; stroke-linecap: round; stroke-dashoffset: 0; stroke-linejoin: round; stroke-miterlimit: 4; fill: rgb(0,0,0); fill-opacity: 0; fill-rule: nonzero; opacity: 1;"  transform=" translate(-99.22, -54.71)" d="M 121.21 19.041 C 121.21 19.041 123.543 30.54 100.876 33.873 C 100.876 33.873 104.21 22.541 106.876 20.541 C 106.876 20.541 95.21 35.373 76.21 38.873 C 76.21 38.873 79.543 24.54 90.876 19.373 M 98.743 73.184 C 98.743 73.184 94.493 74.851 94.91 76.851 C 95.327 78.851 96.827 81.101 96.827 81.101 M 96.66 65.434 C 96.66 65.434 97.909 71.101 97.577 73.601 M 68.035 84.31 C 57.41 84.81 52.66 70.151 56.41 64.901 C 59.115 61.114 64.579 63.548 65.601 65.624 M 66.04 72.184 C 66.04 72.184 62.481 64.903 58.447 68.317 M 130.535 84.31 C 141.16 84.81 145.91 70.151 142.16 64.901 C 139.455 61.114 133.991 63.548 132.97 65.624 M 132.53 72.184 C 132.53 72.184 136.09 64.903 140.123 68.317 M 119.565 25.173 C 119.565 25.173 119.535 33.067 130.265 45.836 C 131.002 46.713 132.692 50.231 132.817 53.307 C 133.241 63.692 133.308 86.334 125.785 94.435 C 118.929 101.818 112.285 105.435 106.41 107.185 C 99.41 109.602 92.16 107.185 92.16 107.185 C 86.285 105.435 79.642 101.818 72.785 94.435 C 65.883 87.001 65.371 67.481 65.66 56.124 C 65.66 56.124 66.285 34.817 78.979 31.666 M 58.501 51.113 C 57.12 53.878 55.91 56.124 55.91 56.124 C 48.16 25.916 64.535 20.442 64.535 20.442 C 64.535 20.442 58.053 18.442 58.231 12.067 C 58.231 12.067 67.16 14.192 76.993 8.442 C 86.095 3.119 99.009 -0.521 112.077 1.973 C 123.868 4.223 126.16 12.582 126.16 12.582 C 126.16 12.582 137.87 14.263 142.285 26.873 C 147.035 40.442 143.035 53.567 143.035 53.567 C 143.035 53.567 141.953 50.215 140.608 46.62 M 57.601 52.893 C 57.601 52.893 57.199 56.313 59.324 62.272 M 141.815 49.961 C 141.815 49.961 141.555 55.313 138.533 62.416" stroke-linecap="round" />
</g>
		<g transform="matrix(1 0 0 1 -17.96 -42.76)" id="Layer_1"  >
<path style="stroke: none; stroke-width: 1; stroke-dasharray: none; stroke-linecap: butt; stroke-dashoffset: 0; stroke-linejoin: miter; stroke-miterlimit: 4; fill: rgb(26,25,25); fill-rule: nonzero; opacity: 1;"  transform=" translate(-81.54, -45.24)" d="M 89.714 47.449 C 89.302 47.795 88.212 47.11 86.64 46.153 C 85.087 45.213 82.92 44.026 80.86 44.325 C 78.787 44.57 77.006 46.24 75.945 47.56 C 74.841 48.899 74.425 49.914 73.909 49.961 C 73.656 49.976 73.374 49.645 73.261 48.985 C 73.149 48.332 73.217 47.387 73.587 46.321 C 73.958 45.256 74.618 44.048 75.718 42.94 C 76.8 41.844 78.421 40.834 80.374 40.588 C 82.327 40.326 84.151 40.894 85.46 41.651 C 86.794 42.412 87.734 43.337 88.411 44.162 C 89.751 45.837 90.097 47.133 89.714 47.449" stroke-linecap="round" />
</g>
		<g transform="matrix(1 0 0 1 17.53 -42.76)" id="Layer_1"  >
<path style="stroke: none; stroke-width: 1; stroke-dasharray: none; stroke-linecap: butt; stroke-dashoffset: 0; stroke-linejoin: miter; stroke-miterlimit: 4; fill: rgb(26,25,25); fill-rule: nonzero; opacity: 1;"  transform=" translate(-117.03, -45.24)" d="M 108.856 47.449 C 108.474 47.133 108.819 45.837 110.159 44.162 C 110.836 43.337 111.776 42.412 113.11 41.651 C 114.419 40.894 116.243 40.326 118.196 40.588 C 120.149 40.834 121.771 41.844 122.853 42.94 C 123.952 44.048 124.612 45.256 124.983 46.321 C 125.354 47.387 125.421 48.332 125.309 48.985 C 125.196 49.645 124.913 49.976 124.659 49.961 C 124.145 49.914 123.729 48.899 122.625 47.56 C 121.564 46.24 119.783 44.57 117.71 44.325 C 115.65 44.026 113.483 45.213 111.931 46.153 C 110.358 47.11 109.269 47.795 108.856 47.449" stroke-linecap="round" />
</g>
		<g transform="matrix(1 0 0 1 -0.37 40.15)" id="Layer_1"  >
<path style="stroke: rgb(26,25,25); stroke-width: 1.2; stroke-dasharray: none; stroke-linecap: round; stroke-dashoffset: 0; stroke-linejoin: round; stroke-miterlimit: 4; fill: rgb(0,0,0); fill-opacity: 0; fill-rule: nonzero; opacity: 1;"  transform=" translate(-99.13, -128.15)" d="M 97.805 128.312 C 97.805 128.312 99.295 127.649 100.457 128.239" stroke-linecap="round" />
</g>
		<g transform="matrix(1 0 0 1 -34.84 66.17)" id="Layer_1"  >
<path style="stroke: rgb(26,25,25); stroke-width: 1.4; stroke-dasharray: none; stroke-linecap: round; stroke-dashoffset: 0; stroke-linejoin: round; stroke-miterlimit: 4; fill: rgb(0,0,0); fill-opacity: 0; fill-rule: nonzero; opacity: 1;"  transform=" translate(-64.66, -154.17)" d="M 61.782 133.657 L 67.541 174.685" stroke-linecap="round" />
</g>
		<g transform="matrix(1 0 0 1 -84.03 1.61)" id="Layer_1"  >
<path style="stroke: none; stroke-width: 1; stroke-dasharray: none; stroke-linecap: butt; stroke-dashoffset: 0; stroke-linejoin: miter; stroke-miterlimit: 4; fill: rgb(248,210,181); fill-rule: nonzero; opacity: 1;"  transform=" translate(-15.47, -89.61)" d="M 12.004 102.97 C 12.004 102.97 8.879 99.939 5.855 96.52 C 3.389 93.734 0.289 88.856 0.757 85.382 C 1.228 81.893 3.714 78.114 6.976 77.763 C 6.976 77.763 8.055 75.02 10.267 74.525 C 10.267 74.525 10.732 71.945 14.31 71.641 C 14.31 71.641 15.497 69.663 17.835 69.397 C 20.177 69.131 22.702 68.807 24.212 71.318 C 26.039 74.358 26.137 79.835 26.137 79.835 C 26.137 79.835 28.76 78.935 29.514 81.614 C 30.521 85.179 30.74 90.281 28.251 94.701 C 26.443 97.908 24.993 99.167 24.993 99.167 L 26.399 104.542 C 26.399 104.542 23.978 106.893 21.46 108.004 C 18.118 109.48 14.837 110.011 14.837 110.011 L 12.004 102.97" stroke-linecap="round" />
</g>
		<g transform="matrix(1 0 0 1 -82.99 2.71)" id="Layer_1"  >
<path style="stroke: none; stroke-width: 1; stroke-dasharray: none; stroke-linecap: butt; stroke-dashoffset: 0; stroke-linejoin: miter; stroke-miterlimit: 4; fill: rgb(211,153,133); fill-rule: nonzero; opacity: 1;"  transform=" translate(-16.51, -90.71)" d="M 11.304 93.588 C 14.24 92.956 17.121 89.531 17.875 88.761 C 18.628 87.993 18.99 86.086 18.99 86.086 L 21.716 86.699 C 21.716 86.699 20.751 88.714 20.074 89.576 C 19.395 90.437 19.406 95.337 19.406 95.337 C 19.406 95.337 13.704 93.239 11.304 93.588" stroke-linecap="round" />
</g>
		<g transform="matrix(1 0 0 1 -67.67 21.18)" id="Layer_1"  >
<path style="stroke: rgb(26,25,25); stroke-width: 1.4; stroke-dasharray: none; stroke-linecap: round; stroke-dashoffset: 0; stroke-linejoin: round; stroke-miterlimit: 4; fill: rgb(0,0,0); fill-opacity: 0; fill-rule: nonzero; opacity: 1;"  transform=" translate(-31.83, -109.18)" d="M 25.093 100.104 C 27.056 99.48 27.734 101.218 27.734 101.218 C 27.734 101.218 28.591 104.309 29.735 108.449 C 33.002 114.511 36.163 129.836 36.009 129.432 M 12.962 104.885 C 11.638 105.519 11.063 105.911 11.247 107.716 C 11.252 108.032 12.163 111.807 13.416 116.768 C 13.46 121.916 18.646 136.964 20.001 141.111 C 21.961 147.107 25.052 149.423 31.29 149.103 C 41.185 148.595 62.957 142.768 62.957 142.768 M 11.637 109.034 C 11.637 109.034 12.637 110.624 15.901 110.034 C 22.969 108.756 28.193 103.805 27.931 101.917 M 26.243 104.824 L 24.806 99.105 C 24.806 99.105 26.443 97.908 28.251 94.701 C 30.74 90.281 30.521 85.179 29.514 81.614 C 28.76 78.935 26.137 79.835 26.137 79.835 C 26.137 79.835 26.039 74.358 24.212 71.318 C 22.702 68.807 20.177 69.131 17.835 69.397 C 15.497 69.663 14.31 71.641 14.31 71.641 C 10.732 71.945 10.267 74.525 10.267 74.525 C 8.055 75.02 6.976 77.763 6.976 77.763 C 3.714 78.114 1.228 81.893 0.757 85.382 C 0.289 88.856 2.785 92.559 5.035 95.523 C 7.631 98.942 12.17 102.804 12.17 102.804 L 15.1 109.71" stroke-linecap="round" />
</g>
		<g transform="matrix(1 0 0 1 -83.63 -4.81)" id="Layer_1"  >
<path style="stroke: rgb(26,25,25); stroke-width: 1.2; stroke-dasharray: none; stroke-linecap: round; stroke-dashoffset: 0; stroke-linejoin: round; stroke-miterlimit: 4; fill: rgb(0,0,0); fill-opacity: 0; fill-rule: nonzero; opacity: 1;"  transform=" translate(-15.87, -83.19)" d="M 7.182 77.703 C 7.182 77.703 10.99 77.02 12.121 78.906 C 13.026 80.419 16.988 89.512 15.117 91.021 C 13.247 92.528 10.894 93.702 9.114 93.614 C 7.331 93.53 6.674 93.044 7.676 91.631 C 8.675 90.216 10.358 88.894 10.358 88.894 C 10.358 88.894 8.202 86.292 8.007 84.604 C 8.007 84.604 7.202 86.439 5.599 87.555 M 10.267 74.525 C 10.267 74.525 14.369 73.896 15.689 75.599 C 17.641 78.119 18.323 81.554 18.323 81.554 M 14.31 71.641 C 14.31 71.641 18.924 70.817 20.458 72.887 C 21.808 74.707 22.672 80.357 22.672 80.357 M 26.137 79.835 C 26.137 79.835 18.754 80.525 17.764 82.263 C 16.772 84 17.293 86.412 25.076 86.69 M 18.656 85.869 C 18.656 85.869 19.254 90.025 15.754 90.555 M 21.71 87.008 C 21.71 87.008 18.043 91.425 19.491 94.896" stroke-linecap="round" />
</g>
		<g transform="matrix(1 0 0 1 -37.66 31.36)" id="Layer_1"  >
<path style="stroke: rgb(26,25,25); stroke-width: 1.4; stroke-dasharray: none; stroke-linecap: round; stroke-dashoffset: 0; stroke-linejoin: round; stroke-miterlimit: 4; fill: rgb(0,0,0); fill-opacity: 0; fill-rule: nonzero; opacity: 1;"  transform=" translate(-61.84, -119.36)" d="M 35.563 126.793 C 35.563 126.793 57.312 117.352 66.458 115.185 C 75.374 113.073 81.968 112.058 88.124 111.926" stroke-linecap="round" />
</g>
		<g transform="matrix(1 0 0 1 -77.8 24.95)" id="Layer_1"  >
<path style="stroke: rgb(26,25,25); stroke-width: 1; stroke-dasharray: none; stroke-linecap: round; stroke-dashoffset: 0; stroke-linejoin: round; stroke-miterlimit: 4; fill: rgb(0,0,0); fill-opacity: 0; fill-rule: nonzero; opacity: 1;"  transform=" translate(-21.7, -112.95)" d="M 13.832 117.064 C 13.832 117.064 16.077 118.606 21.547 116.262 C 26.456 114.158 29.361 110.552 29.561 108.348" stroke-linecap="round" />
</g>
		<g transform="matrix(1 0 0 1 -0.5 6.35)" id="Layer_1"  >
<path style="stroke: none; stroke-width: 1; stroke-dasharray: none; stroke-linecap: butt; stroke-dashoffset: 0; stroke-linejoin: miter; stroke-miterlimit: 4; fill: rgb(224,124,125); fill-rule: nonzero; opacity: 1;"  transform=" translate(-99, -94.35)" d="M 99.124 103.841 C 96.721 103.841 93.155 102.344 91.186 99.352 C 87.489 93.733 86.208 84.852 86.208 84.852 C 88.874 86.29 94.792 87.344 99.042 87.344 L 98.958 87.344 C 103.208 87.344 109.124 86.29 111.792 84.852 C 111.792 84.852 110.793 92.01 107.687 97.414 C 105.5 101.218 101.731 103.841 98.874 103.841 L 99.124 103.841" stroke-linecap="round" />
</g>
		<g transform="matrix(1 0 0 1 -0.5 1.13)" id="Layer_1"  >
<path style="stroke: none; stroke-width: 1; stroke-dasharray: none; stroke-linecap: butt; stroke-dashoffset: 0; stroke-linejoin: miter; stroke-miterlimit: 4; fill: rgb(195,89,83); fill-rule: nonzero; opacity: 1;"  transform=" translate(-99, -89.13)" d="M 88.249 93.025 C 90.905 91.359 95.171 90.381 98.637 90.381 C 102.35 90.381 106.557 91.512 109.312 93.398 C 111.437 88.988 111.971 84.852 111.971 84.852 C 109.275 86.285 103.307 87.337 98.999 87.344 C 94.693 87.337 88.725 86.285 86.029 84.852 C 86.029 84.852 86.229 88.756 88.249 93.025" stroke-linecap="round" />
</g>
		<g transform="matrix(1 0 0 1 -0.5 6.35)" id="Layer_1"  >
<path style="stroke: rgb(26,25,25); stroke-width: 1.3; stroke-dasharray: none; stroke-linecap: round; stroke-dashoffset: 0; stroke-linejoin: round; stroke-miterlimit: 4; fill: rgb(0,0,0); fill-opacity: 0; fill-rule: nonzero; opacity: 1;"  transform=" translate(-99, -94.35)" d="M 86.208 84.852 C 88.874 86.29 94.792 87.344 99.042 87.344 L 98.958 87.344 C 103.208 87.344 109.124 86.29 111.792 84.852 C 111.792 84.852 109.124 103.841 98.874 103.841 C 88.624 103.841 86.208 84.852 86.208 84.852 z" stroke-linecap="round" />
</g>
		<g transform="matrix(1 0 0 1 -41.07 51.54)" id="Layer_1"  >
<path style="stroke: rgb(26,25,25); stroke-width: 1; stroke-dasharray: none; stroke-linecap: round; stroke-dashoffset: 0; stroke-linejoin: round; stroke-miterlimit: 4; fill: rgb(0,0,0); fill-opacity: 0; fill-rule: nonzero; opacity: 1;"  transform=" translate(-58.43, -139.54)" d="M 53.804 137.45 C 53.804 137.45 57.403 140.758 63.047 141.634" stroke-linecap="round" />
</g>
		<g transform="matrix(1 0 0 1 34.75 66.17)" id="Layer_1"  >
<path style="stroke: rgb(26,25,25); stroke-width: 1.4; stroke-dasharray: none; stroke-linecap: round; stroke-dashoffset: 0; stroke-linejoin: round; stroke-miterlimit: 4; fill: rgb(0,0,0); fill-opacity: 0; fill-rule: nonzero; opacity: 1;"  transform=" translate(-134.25, -154.17)" d="M 137.134 133.657 L 131.375 174.685" stroke-linecap="round" />
</g>
		<g transform="matrix(1 0 0 1 83.95 1.61)" id="Layer_1"  >
<path style="stroke: none; stroke-width: 1; stroke-dasharray: none; stroke-linecap: butt; stroke-dashoffset: 0; stroke-linejoin: miter; stroke-miterlimit: 4; fill: rgb(248,210,181); fill-rule: nonzero; opacity: 1;"  transform=" translate(-183.45, -89.61)" d="M 186.912 102.97 C 186.912 102.97 190.037 99.939 193.061 96.52 C 195.527 93.734 198.628 88.856 198.159 85.382 C 197.688 81.893 195.202 78.114 191.94 77.763 C 191.94 77.763 190.861 75.02 188.649 74.525 C 188.649 74.525 188.184 71.945 184.606 71.641 C 184.606 71.641 183.419 69.663 181.081 69.397 C 178.739 69.131 176.214 68.807 174.704 71.318 C 172.877 74.358 172.778 79.835 172.778 79.835 C 172.778 79.835 170.156 78.935 169.401 81.614 C 168.396 85.179 168.176 90.281 170.665 94.701 C 172.474 97.908 173.923 99.167 173.923 99.167 L 172.517 104.542 C 172.517 104.542 174.938 106.893 177.456 108.004 C 180.798 109.48 184.079 110.011 184.079 110.011 L 186.912 102.97" stroke-linecap="round" />
</g>
		<g transform="matrix(1 0 0 1 82.91 2.71)" id="Layer_1"  >
<path style="stroke: none; stroke-width: 1; stroke-dasharray: none; stroke-linecap: butt; stroke-dashoffset: 0; stroke-linejoin: miter; stroke-miterlimit: 4; fill: rgb(211,153,133); fill-rule: nonzero; opacity: 1;"  transform=" translate(-182.41, -90.71)" d="M 187.612 93.588 C 184.677 92.956 181.795 89.531 181.041 88.761 C 180.288 87.993 179.927 86.086 179.927 86.086 L 177.2 86.699 C 177.2 86.699 178.165 88.714 178.843 89.576 C 179.521 90.437 179.51 95.337 179.51 95.337 C 179.51 95.337 185.212 93.239 187.612 93.588" stroke-linecap="round" />
</g>
		<g transform="matrix(1 0 0 1 67.59 21.09)" id="Layer_1"  >
<path style="stroke: rgb(26,25,25); stroke-width: 1.4; stroke-dasharray: none; stroke-linecap: round; stroke-dashoffset: 0; stroke-linejoin: round; stroke-miterlimit: 4; fill: rgb(0,0,0); fill-opacity: 0; fill-rule: nonzero; opacity: 1;"  transform=" translate(-167.09, -109.09)" d="M 173.823 100.104 C 171.86 99.48 171.182 101.218 171.182 101.218 C 171.182 101.218 170.326 104.306 169.183 108.444 C 166.499 113.039 162.595 129.882 162.749 129.477 M 185.954 104.885 C 187.278 105.519 187.853 105.911 187.669 107.716 C 187.664 108.022 186.846 111.578 185.7 116.308 C 185.999 120.039 180.874 136.539 179.248 140.944 C 177.063 146.862 174.197 149.256 167.959 148.936 C 158.065 148.428 135.959 142.768 135.959 142.768 M 187.278 109.034 C 187.278 109.034 186.278 110.624 183.015 110.034 C 175.946 108.756 170.724 103.805 170.985 101.917 M 172.673 104.824 L 174.11 99.105 C 174.11 99.105 172.474 97.908 170.665 94.701 C 168.176 90.281 168.396 85.179 169.401 81.614 C 170.156 78.935 172.778 79.835 172.778 79.835 C 172.778 79.835 172.877 74.358 174.704 71.318 C 176.214 68.807 178.739 69.131 181.081 69.397 C 183.419 69.663 184.606 71.641 184.606 71.641 C 188.184 71.945 188.649 74.525 188.649 74.525 C 190.861 75.02 191.94 77.763 191.94 77.763 C 195.202 78.114 197.688 81.893 198.159 85.382 C 198.628 88.856 196.132 92.559 193.881 95.523 C 191.284 98.942 186.745 102.804 186.745 102.804 L 183.815 109.71" stroke-linecap="round" />
</g>
		<g transform="matrix(1 0 0 1 83.55 -4.81)" id="Layer_1"  >
<path style="stroke: rgb(26,25,25); stroke-width: 1.2; stroke-dasharray: none; stroke-linecap: round; stroke-dashoffset: 0; stroke-linejoin: round; stroke-miterlimit: 4; fill: rgb(0,0,0); fill-opacity: 0; fill-rule: nonzero; opacity: 1;"  transform=" translate(-183.05, -83.19)" d="M 191.734 77.703 C 191.734 77.703 187.927 77.02 186.796 78.906 C 185.89 80.419 181.929 89.512 183.8 91.021 C 185.669 92.528 188.021 93.702 189.802 93.614 C 191.585 93.53 192.241 93.044 191.24 91.631 C 190.241 90.216 188.558 88.894 188.558 88.894 C 188.558 88.894 190.714 86.292 190.909 84.604 C 190.909 84.604 191.714 86.439 193.317 87.555 M 188.649 74.525 C 188.649 74.525 184.547 73.896 183.227 75.599 C 181.274 78.119 180.593 81.554 180.593 81.554 M 184.606 71.641 C 184.606 71.641 179.991 70.817 178.458 72.887 C 177.108 74.707 176.244 80.357 176.244 80.357 M 172.778 79.835 C 172.778 79.835 180.161 80.525 181.152 82.263 C 182.144 84 181.622 86.412 173.84 86.69 M 180.261 85.869 C 180.261 85.869 179.662 90.025 183.162 90.555 M 177.206 87.008 C 177.206 87.008 180.872 91.425 179.425 94.896" stroke-linecap="round" />
</g>
		<g transform="matrix(1 0 0 1 37.46 31.39)" id="Layer_1"  >
<path style="stroke: rgb(26,25,25); stroke-width: 1.4; stroke-dasharray: none; stroke-linecap: round; stroke-dashoffset: 0; stroke-linejoin: round; stroke-miterlimit: 4; fill: rgb(0,0,0); fill-opacity: 0; fill-rule: nonzero; opacity: 1;"  transform=" translate(-136.96, -119.39)" d="M 163.124 126.852 C 163.124 126.852 141.604 117.352 132.458 115.185 C 123.542 113.073 116.948 112.058 110.792 111.926" stroke-linecap="round" />
</g>
		<g transform="matrix(1 0 0 1 61.34 37.29)" id="Layer_1"  >
<path style="stroke: rgb(26,25,25); stroke-width: 1; stroke-dasharray: none; stroke-linecap: round; stroke-dashoffset: 0; stroke-linejoin: round; stroke-miterlimit: 4; fill: rgb(0,0,0); fill-opacity: 0; fill-rule: nonzero; opacity: 1;"  transform=" translate(-160.84, -125.29)" d="M 185.818 116.112 C 185.818 116.112 182.937 118.039 177.464 116.105 C 173.163 114.584 170.298 110.772 169.548 108.938 M 145.112 137.45 C 145.112 137.45 141.513 140.758 135.869 141.634" stroke-linecap="round" />
</g>
</g>
</g>
</svg>