<?xml version="1.0" encoding="UTF-8" standalone="no" ?>
<!DOCTYPE svg PUBLIC "-//W3C//DTD SVG 1.1//EN" "http://www.w3.org/Graphics/SVG/1.1/DTD/svg11.dtd">
<svg xmlns="http://www.w3.org/2000/svg" xmlns:xlink="http://www.w3.org/1999/xlink" version="1.1" width="400" height="400" viewBox="0 0 400 400" xml:space="preserve">
<desc>Created with Fabric.js 3.6.3</desc>
<defs>
</defs>
<rect x="0" y="0" width="100%" height="100%" fill="rgba(255, 255, 255, 1)"></rect>
<g transform="matrix(1 0 0 1 205 240.24)" style=""  >
		<text xml:space="preserve" font-family="'Open Sans', sans-serif" font-size="18" font-style="normal" font-weight="normal" style="stroke: none; stroke-width: 1; stroke-dasharray: none; stroke-linecap: butt; stroke-dashoffset: 0; stroke-linejoin: miter; stroke-miterlimit: 4; fill: rgb(0,0,0); fill-rule: nonzero; opacity: 1; white-space: pre;" ><tspan x="-108.5" y="5.97" style="font-size: 19px; font-weight: bold; ">Your Company Name</tspan></text>
</g>
<g transform="matrix(1 0 0 1 229.48 273.67)" style=""  >
		<text xml:space="preserve" font-family="'Open Sans', sans-serif" font-size="18" font-style="normal" font-weight="normal" style="stroke: none; stroke-width: 1; stroke-dasharray: none; stroke-linecap: butt; stroke-dashoffset: 0; stroke-linejoin: miter; stroke-miterlimit: 4; fill: rgb(0,0,0); fill-rule: nonzero; opacity: 1; white-space: pre;" ><tspan x="-81.99" y="5.65" >slogan here</tspan></text>
</g>
<g transform="matrix(0.17 0 0 0.12 202 184)"  >
<g style=""   >
		<g transform="matrix(1 0 0 1 -124.22 -18.88)" id="path4929"  >
<path style="stroke: rgb(0,0,0); stroke-width: 3; stroke-dasharray: none; stroke-linecap: butt; stroke-dashoffset: 0; stroke-linejoin: miter; stroke-miterlimit: 4; fill: rgb(255,202,161); fill-rule: evenodd; opacity: 1;"  transform=" translate(-409.11, -381.12)" d="m 105.6 193.27 c 53.27 -5.43 106.54 -10.86 159.81 -16.29 c 8.15 -5.09 16.29 -10.18 24.43 -15.27 c 18.67 -7.46 37.33 -16.97 55.99 -24.43 c 16.63 -10.18 29.94 -22.15 46.83 -25.45 c 19.36 -3.79 47.5 -2.37 68.2 7.13 c 43.77 63.11 87.54 126.22 131.31 189.33 c 36.31 35.97 72.61 71.94 108.92 107.9 c 15.61 21.04 13.75 54.43 4.07 69.22 c -8.31 12.7 -38.68 21.04 -58.02 13.23 c 1.35 17.31 -2.38 37.67 -11.2 48.86 c -11.88 7.81 -32.91 14.6 -47.84 11.2 c 4.07 14.59 -2.7 34.93 -12.22 43.77 c -9.82 9.14 -23.41 14.93 -45.8 10.18 c -1.36 7.47 -1.26 17.05 -6.24 21.68 c -9.27 8.61 -23.62 12.25 -36.52 18.02 c -183.22 -96.02 -249.39 -97.38 -341 -115.02 c -13.24 -100.78 -27.49 -243.29 -40.72 -344.06 z" stroke-linecap="round" />
</g>
		<g transform="matrix(1 0 0 1 -124.22 -18.88)" id="path3183"  >
<linearGradient id="SVGID_linearGradient4776_581" gradientUnits="userSpaceOnUse" gradientTransform="matrix(1 0 0 1 0 0)"  x1="104.1" y1="381.12" x2="714.12" y2="381.12">
<stop offset="0%" style="stop-color:rgb(255,255,255);stop-opacity: 1"/>
<stop offset="100%" style="stop-color:rgb(255,255,255);stop-opacity: 0"/>
</linearGradient>
<path style="stroke: none; stroke-width: 1; stroke-dasharray: none; stroke-linecap: butt; stroke-dashoffset: 0; stroke-linejoin: miter; stroke-miterlimit: 4; fill: url(#SVGID_linearGradient4776_581); fill-rule: evenodd; opacity: 1;"  transform=" translate(-409.11, -381.12)" d="m 105.6 193.27 c 53.27 -5.43 106.54 -10.86 159.81 -16.29 c 8.15 -5.09 16.29 -10.18 24.43 -15.27 c 18.67 -7.46 37.33 -16.97 55.99 -24.43 c 16.63 -10.18 29.94 -22.15 46.83 -25.45 c 19.36 -3.79 47.5 -2.37 68.2 7.13 c 43.77 63.11 87.54 126.22 131.31 189.33 c 36.31 35.97 72.61 71.94 108.92 107.9 c 15.61 21.04 13.75 54.43 4.07 69.22 c -8.31 12.7 -38.68 21.04 -58.02 13.23 c 1.35 17.31 -2.38 37.67 -11.2 48.86 c -11.88 7.81 -32.91 14.6 -47.84 11.2 c 4.07 14.59 -2.7 34.93 -12.22 43.77 c -9.82 9.14 -23.41 14.93 -45.8 10.18 c -1.36 7.47 -1.26 17.05 -6.24 21.68 c -9.27 8.61 -23.62 12.25 -36.52 18.02 c -183.22 -96.02 -249.39 -97.38 -341 -115.02 c -13.24 -100.78 -27.49 -243.29 -40.72 -344.06 z" stroke-linecap="round" />
</g>
		<g transform="matrix(1 0 0 1 -163.5 189.64)" id="path3686"  >
<path style="stroke: rgb(0,0,0); stroke-width: 3; stroke-dasharray: none; stroke-linecap: butt; stroke-dashoffset: 0; stroke-linejoin: miter; stroke-miterlimit: 4; fill: rgb(255,216,180); fill-rule: evenodd; opacity: 1;"  transform=" translate(-369.83, -589.64)" d="m 266.32 514.63 c -7.5 8.21 -15.59 30.48 -18.71 43.19 c -0.48 1.93 5.43 -1.42 7.19 0 c 6.16 8.41 9.06 13.08 18.72 20.87 c 4.79 3.87 9.96 7.36 15.11 10.8 c 7.09 4.72 14.09 9.67 21.6 13.67 c 10.49 5.6 19.81 14.51 32.39 15.12 c 18.82 16.37 29.78 22.93 51.82 28.79 c 4.59 11.65 11.38 24 23.03 27.35 c 10.62 3.06 28.44 -0.98 40.31 -4.32 c 10.82 -3.04 24.62 -15.22 30.23 -20.87 c 6.53 -6.56 4.19 -17.84 0 -27.35 c -2.82 -6.41 -14.21 -10.86 -22.31 -14.4 c 4.48 -5.58 10.62 -9.58 10.8 -15.11 c 0.4 -12.47 -2.9 -22.3 -12.24 -32.39 c -10.07 -10.89 -29.47 -15.63 -41.75 -7.2 c 0.77 -8.67 2.37 -21.13 -5.76 -30.23 c -12.35 -13.83 -26.43 -19.42 -44.62 -18.72 c -29.6 1.16 -35.93 15.52 -51.11 26.64 c -10.66 7.81 -28.86 16.35 -36.71 15.11 c -2.23 -5.72 -1.46 -14.11 -6.47 -20.87 c -3.12 -4.21 -6.06 -7.15 -11.52 -10.08 z" stroke-linecap="round" />
</g>
		<g transform="matrix(1 0 0 1 -367.53 20.27)" id="path8038"  >
<path style="stroke: rgb(0,0,0); stroke-width: 3; stroke-dasharray: none; stroke-linecap: butt; stroke-dashoffset: 0; stroke-linejoin: miter; stroke-miterlimit: 4; fill: rgb(142,142,142); fill-rule: evenodd; opacity: 1;"  transform=" translate(-165.81, -420.27)" d="m 39.435 156.62 c 74.985 6.79 150.26 11.31 224.96 20.36 c 34.81 4.22 30.44 173.5 21.37 257.53 c -7.22 66.96 -41.05 134.07 -70.23 195.45 c -10.18 21.41 -32.92 53.95 -47.85 53.95 c -15.27 0 -85.502 -19.68 -128.26 -29.52 l 0.005 -497.77 z" stroke-linecap="round" />
</g>
		<g transform="matrix(1 0 0 1 160.12 -116.14)" id="path13008"  >
<path style="stroke: none; stroke-width: 1; stroke-dasharray: none; stroke-linecap: butt; stroke-dashoffset: 0; stroke-linejoin: miter; stroke-miterlimit: 4; fill: rgb(64,79,96); fill-rule: evenodd; opacity: 1;"  transform=" translate(-693.45, -283.87)" d="m 654.26 129.14 l -12.21 4.07 l -5.09 14.25 l 78.38 280.95 l 12.21 8.14 l 7.13 2.04 l 8.14 -4.08 l 7.13 -39.69 l -10.18 -94.67 l -27.49 -107.9 l -37.66 -59.04 l -20.36 -4.07 z" stroke-linecap="round" />
</g>
		<g transform="matrix(1 0 0 1 9.86 -128.36)" id="path919"  >
<path style="stroke: rgb(0,0,0); stroke-width: 3; stroke-dasharray: none; stroke-linecap: butt; stroke-dashoffset: 0; stroke-linejoin: miter; stroke-miterlimit: 4; fill: rgb(255,216,180); fill-rule: nonzero; opacity: 1;"  transform=" translate(-543.19, -271.64)" d="m 668.22 137.45 c -12.22 3.06 -35.18 13.66 -47.45 12.05 c -13.4 -1.77 -38.75 -9.31 -69.32 -14.45 c -31.15 -5.23 -47.22 -16.09 -75.32 -17.23 c -32.55 -1.33 -41.74 19.46 -58.03 35.75 c -30.19 20.69 -75.4 40.96 -84.48 55.98 c -9.85 16.29 -25.11 54.29 -25.45 69.22 c -8.49 16.29 -21.44 31.45 -22.57 49.58 c -1.65 26.5 32.13 29.73 47 23.71 c 10.88 -4.41 17.64 -12.89 26.46 -19.34 c 25.06 -9.48 42.2 -39.11 60.06 -65.15 c 18.57 -5.98 29.22 -12.68 42.75 -24.43 c 7.35 7.54 18.29 5.72 28.51 1.02 c -1.38 17.4 83.61 54.23 103.83 65.15 c 35.5 37.36 70.28 69.69 107.95 106.34 c 1.35 4.07 5.59 11.74 6.95 15.81 c 5.43 -3.05 14.34 -4.77 18.44 -9.16 c 5.4 -5.79 8.15 -14.25 12.22 -21.38 c 20.36 -5.43 40.72 -10.85 61.07 -16.28 c -27.14 -90.94 -54.29 -181.87 -81.43 -272.81 c -17.3 9.5 -33.89 16.12 -51.19 25.62 z" stroke-linecap="round" />
</g>
		<g transform="matrix(1 0 0 1 268.47 -162.96)" id="path9902"  >
<path style="stroke: rgb(0,0,0); stroke-width: 3; stroke-dasharray: none; stroke-linecap: butt; stroke-dashoffset: 0; stroke-linejoin: miter; stroke-miterlimit: 4; fill: rgb(110,136,164); fill-rule: evenodd; opacity: 1;"  transform=" translate(-801.81, -237.04)" d="m 632.89 147.46 c -1.05 -6.03 5.1 -17.81 16.28 -22.4 c 107.13 -42.728 205.62 -62.428 308.44 -93.644 l 13.23 356.27 c -112.95 19.04 -160.76 33.05 -234.13 54.97 c -4.24 -0.09 -15.69 -7.02 -21.37 -13.23 c 6.45 2.03 16.53 7.07 19.34 6.1 c 6.03 -2.07 7.01 -22.33 6.11 -33.59 c -3.85 -47.78 -7.38 -97.48 -20.36 -143.53 c -11.79 -41.83 -22.89 -98.83 -53.95 -120.11 c -4.5 -3.08 -12.19 -5.42 -17.31 -3.9 c -4.04 1.2 -8.22 6.11 -10.18 12.04 l -6.1 1.02 z" stroke-linecap="round" />
</g>
</g>
</g>
</svg>