<?xml version="1.0" encoding="UTF-8" standalone="no" ?>
<!DOCTYPE svg PUBLIC "-//W3C//DTD SVG 1.1//EN" "http://www.w3.org/Graphics/SVG/1.1/DTD/svg11.dtd">
<svg xmlns="http://www.w3.org/2000/svg" xmlns:xlink="http://www.w3.org/1999/xlink" version="1.1" width="400" height="400" viewBox="0 0 400 400" xml:space="preserve">
<desc>Created with Fabric.js 3.6.3</desc>
<defs>
</defs>
<rect x="0" y="0" width="100%" height="100%" fill="rgba(255, 255, 255, 1)"></rect>
<g transform="matrix(1 0 0 1 205 240.24)" style=""  >
		<text xml:space="preserve" font-family="'Open Sans', sans-serif" font-size="18" font-style="normal" font-weight="normal" style="stroke: none; stroke-width: 1; stroke-dasharray: none; stroke-linecap: butt; stroke-dashoffset: 0; stroke-linejoin: miter; stroke-miterlimit: 4; fill: rgb(0,0,0); fill-rule: nonzero; opacity: 1; white-space: pre;" ><tspan x="-108.5" y="5.97" style="font-size: 19px; font-weight: bold; ">Your Company Name</tspan></text>
</g>
<g transform="matrix(1 0 0 1 229.48 273.67)" style=""  >
		<text xml:space="preserve" font-family="'Open Sans', sans-serif" font-size="18" font-style="normal" font-weight="normal" style="stroke: none; stroke-width: 1; stroke-dasharray: none; stroke-linecap: butt; stroke-dashoffset: 0; stroke-linejoin: miter; stroke-miterlimit: 4; fill: rgb(0,0,0); fill-rule: nonzero; opacity: 1; white-space: pre;" ><tspan x="-81.99" y="5.65" >slogan here</tspan></text>
</g>
<g transform="matrix(0.81 0 0 0.78 195.75 155.66)"  >
<g style=""   >
		<g transform="matrix(1 0 0 1 18.94 17.88)" id="path3164"  >
<path style="stroke: rgb(0,0,0); stroke-width: 2; stroke-dasharray: none; stroke-linecap: round; stroke-dashoffset: 0; stroke-linejoin: round; stroke-miterlimit: 4; fill: rgb(255,255,255); fill-rule: evenodd; opacity: 1;"  transform=" translate(-368.66, -333.17)" d="m 312.86 306.65 l -0.54 96.61 l 109.11 -45.18 l 3.57 -95 l -112.14 43.57 z" stroke-linecap="round" />
</g>
		<g transform="matrix(1 0 0 1 -56.9 26.45)" id="path3166"  >
<path style="stroke: rgb(0,0,0); stroke-width: 2; stroke-dasharray: none; stroke-linecap: round; stroke-dashoffset: 0; stroke-linejoin: round; stroke-miterlimit: 4; fill: rgb(255,255,255); fill-rule: evenodd; opacity: 1;"  transform=" translate(-292.81, -341.74)" d="m 312.14 403.43 l -39.75 -27.34 l -0.33 -94.83 c 23.18 -6.05 33.07 11.99 41.51 22.35 l -1.43 99.82 z" stroke-linecap="round" />
</g>
		<g transform="matrix(1 0 0 1 0 -21.71)" id="path3168"  >
<path style="stroke: rgb(0,0,0); stroke-width: 2; stroke-dasharray: none; stroke-linecap: round; stroke-dashoffset: 0; stroke-linejoin: miter; stroke-miterlimit: 4; fill: rgb(255,255,255); fill-rule: evenodd; opacity: 1;"  transform=" translate(-349.71, -293.58)" d="m 271.55 281.35 l 113.4 -41.42 c 12.59 0.19 29.1 3.82 42.19 18.86 l 0.64 40.36 c 0.22 2.65 0.37 5.28 -3.14 6.07 l -110.71 41.79 c -2.5 0.83 -4.05 -0.72 -4.64 -4.65 l -0.42 -41.57 c -13.81 -15.79 -24.13 -17.95 -37.32 -19.44 z" stroke-linecap="round" />
</g>
		<g transform="matrix(1 0 0 1 21.45 10.3)" id="path3170"  >
<path style="stroke: rgb(0,0,0); stroke-width: 2; stroke-dasharray: none; stroke-linecap: round; stroke-dashoffset: 0; stroke-linejoin: round; stroke-miterlimit: 4; fill: rgb(255,255,255); fill-rule: evenodd; opacity: 1;"  transform=" translate(-371.16, -325.58)" d="m 364.82 321.2 v 11.7 c 0.25 0.98 1.14 1.75 2.37 1.57 l 9.15 -3.63 c 1.01 -0.4 1.29 -1.4 1.12 -2.04 l -0.27 -10.34 c -0.22 -1.27 -0.78 -2.09 -3 -1.69 l -7.79 2.92 c -0.67 0.21 -1.37 0.38 -1.58 1.51 z" stroke-linecap="round" />
</g>
		<g transform="matrix(1 0 0 1 1.8 -64.76)" id="path3178"  >
<path style="stroke: rgb(0,0,0); stroke-width: 2; stroke-dasharray: none; stroke-linecap: round; stroke-dashoffset: 0; stroke-linejoin: round; stroke-miterlimit: 4; fill: rgb(255,255,255); fill-rule: evenodd; opacity: 1;"  transform=" translate(-351.52, -250.52)" d="m 328.63 268.75 l 3.28 -27.31 l 40.15 -14.31 l 2.35 34.07 c -2.99 -1.05 -4.59 -0.67 -7.58 -4.84 l 0.03 -19.59 l -28.31 9.99 l -2.86 27.15 c -2.62 -1.07 -5.36 -1.8 -7.06 -5.16 z" stroke-linecap="round" />
</g>
</g>
</g>
</svg>