<?xml version="1.0" encoding="UTF-8" standalone="no" ?>
<!DOCTYPE svg PUBLIC "-//W3C//DTD SVG 1.1//EN" "http://www.w3.org/Graphics/SVG/1.1/DTD/svg11.dtd">
<svg xmlns="http://www.w3.org/2000/svg" xmlns:xlink="http://www.w3.org/1999/xlink" version="1.1" width="400" height="400" viewBox="0 0 400 400" xml:space="preserve">
<desc>Created with Fabric.js 3.6.3</desc>
<defs>
</defs>
<rect x="0" y="0" width="100%" height="100%" fill="rgba(255, 255, 255, 1)"></rect>
<g transform="matrix(1 0 0 1 205 240.24)" style=""  >
		<text xml:space="preserve" font-family="'Open Sans', sans-serif" font-size="18" font-style="normal" font-weight="normal" style="stroke: none; stroke-width: 1; stroke-dasharray: none; stroke-linecap: butt; stroke-dashoffset: 0; stroke-linejoin: miter; stroke-miterlimit: 4; fill: rgb(0,0,0); fill-rule: nonzero; opacity: 1; white-space: pre;" ><tspan x="-108.5" y="5.97" style="font-size: 19px; font-weight: bold; ">Your Company Name</tspan></text>
</g>
<g transform="matrix(1 0 0 1 229.48 273.67)" style=""  >
		<text xml:space="preserve" font-family="'Open Sans', sans-serif" font-size="18" font-style="normal" font-weight="normal" style="stroke: none; stroke-width: 1; stroke-dasharray: none; stroke-linecap: butt; stroke-dashoffset: 0; stroke-linejoin: miter; stroke-miterlimit: 4; fill: rgb(0,0,0); fill-rule: nonzero; opacity: 1; white-space: pre;" ><tspan x="-81.99" y="5.65" >slogan here</tspan></text>
</g>
<g transform="matrix(0.81 0 0 0.84 198.75 144.92)"  >
<g style=""   >
		<g transform="matrix(1 0 0 1 -1.2 13.24)" id="path3237"  >
<path style="stroke: none; stroke-width: 1; stroke-dasharray: none; stroke-linecap: butt; stroke-dashoffset: 0; stroke-linejoin: miter; stroke-miterlimit: 4; fill: rgb(0,0,0); fill-rule: evenodd; opacity: 1;"  transform=" translate(-11.39, -27.83)" d="m -0.51897 92.754 c -0.24619 -0.0675 -0.3249 -0.68914 -0.31718 -1.8124 c 0.007714 -1.1232 0.09916 -2.7515 0.09642 -4.8411 c -0.00274 -2.0897 -0.1019 -4.6455 -0.53533 -7.5704 s -1.2029 -6.2238 -2.5761 -9.6724 c -1.2306 -3.1519 -2.9924 -6.4213 -5.246 -9.8394 s -5.0031 -6.9841 -7.954 -10.84 c -2.4126 -3.0864 -4.9874 -6.4164 -7.4384 -10.141 c -2.451 -3.7242 -4.7783 -7.8429 -6.5597 -12.557 c -0.000001 -0.000004 -0.000003 -0.000007 -0.000004 -0.00001 c -2.2358 -6.0874 -3.2336 -12.898 -2.684 -19.861 c 0.54963 -6.9625 2.6479 -14.075 6.531 -20.518 c 3.4514 -5.6783 8.2302 -10.668 13.967 -14.48 c 5.7365 -3.8122 12.429 -6.445 19.564 -7.3752 c 0.31494 -0.04106 0.63032 -0.07875 0.94608 -0.11304 c 7.346 -0.76597 14.66 0.3505 21.236 2.9259 c 6.5767 2.5754 12.414 6.6082 16.983 11.673 c 5.0562 5.6581 8.358 12.396 9.974 19.241 c 1.616 6.8443 1.5472 13.792 0.0042 20.147 c -0.93548 3.6812 -2.2402 7.0082 -3.6296 10.09 c -1.3894 3.0823 -2.8637 5.9199 -4.2148 8.6012 c -0.000001 0.000002 -0.000003 0.000005 -0.000004 0.000008 c -7.3947 14.839 -12.131 27.666 -15.322 36.634 c -1.5953 4.4841 -2.8062 8.0117 -3.7321 10.393 c -0.92587 2.3809 -1.5698 3.6153 -1.9499 3.5333 c -0.38007 -0.08199 -0.47606 -1.4769 -0.25284 -4.0448 s 0.76861 -6.309 1.7541 -11.051 c 0.98552 -4.7416 2.414 -10.484 4.4428 -17.015 c 2.0288 -6.5311 4.6604 -13.851 8.0524 -21.702 c 0.000002 -0.000003 0.000003 -0.000006 0.000004 -0.000009 c 1.2152 -2.8463 2.5162 -5.6965 3.6776 -8.5761 s 2.1832 -5.7884 2.7637 -8.7747 c 1.048 -5.041 0.887 -10.582 -0.558 -15.997 c -1.446 -5.4158 -4.176 -10.705 -8.157 -14.968 c -3.5637 -3.8622 -8.2087 -6.9507 -13.413 -8.9299 c -5.204 -1.9792 -10.965 -2.8482 -16.603 -2.2368 c -0.24316 0.025 -0.48628 0.05276 -0.7293 0.08326 c -5.5056 0.69108 -10.795 2.7666 -15.367 5.7531 c -4.5721 2.9865 -8.4253 6.8826 -11.179 11.275 c -3.1476 4.968 -4.9466 10.649 -5.5413 16.272 c -0.59469 5.6226 0.0151 11.185 1.6409 16.155 l 0.000003 0.000009 c 1.2387 3.9334 3.1346 7.5885 5.2357 11.085 c 2.1011 3.4967 4.4074 6.8348 6.602 10.081 c 2.7697 4.0066 5.3961 7.965 7.5313 11.867 c 2.1351 3.9023 3.7827 7.7463 4.8616 11.443 c 1.1656 4.0803 1.5856 7.8568 1.6106 11.122 c 0.025032 3.2649 -0.34285 6.0232 -0.81798 8.209 s -1.0557 3.8041 -1.5498 4.8565 c -0.49414 1.0523 -0.90025 1.5423 -1.1464 1.4748 z" stroke-linecap="round" />
</g>
		<g transform="matrix(1 0 0 1 1.93 59.82)" id="path3261"  >
<path style="stroke: none; stroke-width: 1; stroke-dasharray: none; stroke-linecap: butt; stroke-dashoffset: 0; stroke-linejoin: miter; stroke-miterlimit: 4; fill: rgb(0,0,0); fill-rule: evenodd; opacity: 1;"  transform=" translate(-14.52, -74.4)" d="m 2.4684 72.974 c 0.32477 -2.7408 5.9894 -4.3253 12.644 -3.5367 c 6.6549 0.78857 11.792 3.653 11.468 6.3938 c -0.32478 2.7408 -5.9894 4.3253 -12.644 3.5367 c -6.6549 -0.789 -11.792 -3.653 -11.468 -6.394 z" stroke-linecap="round" />
</g>
		<g transform="matrix(1 0 0 1 1.71 74.07)" id="path3267"  >
<path style="stroke: none; stroke-width: 1; stroke-dasharray: none; stroke-linecap: butt; stroke-dashoffset: 0; stroke-linejoin: miter; stroke-miterlimit: 4; fill: rgb(0,0,0); fill-rule: evenodd; opacity: 1;"  transform=" translate(-14.3, -88.65)" d="m -0.87612 87.403 c 0.22652 -2.751 7.2104 -4.423 15.589 -3.733 s 14.995 3.4824 14.768 6.2331 c -0.22653 2.7507 -7.2104 4.4231 -15.589 3.7331 s -14.995 -3.4824 -14.768 -6.2331 z" stroke-linecap="round" />
</g>
		<g transform="matrix(1 0 0 1 1.5 88.53)" id="path3273"  >
<path style="stroke: none; stroke-width: 1; stroke-dasharray: none; stroke-linecap: butt; stroke-dashoffset: 0; stroke-linejoin: miter; stroke-miterlimit: 4; fill: rgb(0,0,0); fill-rule: evenodd; opacity: 1;"  transform=" translate(-14.09, -103.12)" d="m -0.37612 100.97 c 0.40447 -2.726 7.2127 -3.982 15.197 -2.799 c 7.9843 1.1829 14.136 4.3587 13.732 7.0889 c -0.40447 2.7302 -7.2127 3.986 -15.197 2.8032 s -14.136 -4.3587 -13.732 -7.0889 z" stroke-linecap="round" />
</g>
		<g transform="matrix(1 0 0 1 -52.41 -55.34)" id="path3303"  >
<path style="stroke: none; stroke-width: 1; stroke-dasharray: none; stroke-linecap: butt; stroke-dashoffset: 0; stroke-linejoin: miter; stroke-miterlimit: 4; fill: rgb(0,0,0); fill-rule: evenodd; opacity: 1;"  transform=" translate(39.82, 40.76)" d="m -54.471 -52.626 c 1.7376 -2.1443 9.7099 1.4328 17.795 7.9846 c 8.0853 6.5518 13.237 13.61 11.499 15.754 c -1.7376 2.1443 -9.7099 -1.4328 -17.795 -7.9846 c -8.0853 -6.5518 -13.237 -13.61 -11.499 -15.754 z" stroke-linecap="round" />
</g>
		<g transform="matrix(1 0 0 1 -6.71 -78.57)" id="path3309"  >
<path style="stroke: none; stroke-width: 1; stroke-dasharray: none; stroke-linecap: butt; stroke-dashoffset: 0; stroke-linejoin: miter; stroke-miterlimit: 4; fill: rgb(0,0,0); fill-rule: evenodd; opacity: 1;"  transform=" translate(-5.89, 63.99)" d="m 4.6225 -79.331 c 2.7507 -0.226 5.5485 6.463 6.2455 14.93 c 0.697 8.468 -0.9694 15.525 -3.7201 15.751 s -5.5489 -6.462 -6.2459 -14.93 c -0.69697 -8.468 0.9698 -15.524 3.7205 -15.751 z" stroke-linecap="round" />
</g>
		<g transform="matrix(1 0 0 1 52.14 -62.67)" id="path3315"  >
<path style="stroke: none; stroke-width: 1; stroke-dasharray: none; stroke-linecap: butt; stroke-dashoffset: 0; stroke-linejoin: miter; stroke-miterlimit: 4; fill: rgb(0,0,0); fill-rule: evenodd; opacity: 1;"  transform=" translate(-64.73, 48.08)" d="m 75.721 -62.816 c 2.2121 1.6506 -0.91827 9.5915 -6.9874 17.725 c -6.0691 8.1338 -12.79 13.396 -15.002 11.745 c -2.2121 -1.6506 0.91827 -9.5915 6.9874 -17.725 c 6.0691 -8.1338 12.79 -13.396 15.002 -11.745 z" stroke-linecap="round" />
</g>
		<g transform="matrix(1 0 0 1 71.08 -24.03)" id="path3321"  >
<path style="stroke: none; stroke-width: 1; stroke-dasharray: none; stroke-linecap: butt; stroke-dashoffset: 0; stroke-linejoin: miter; stroke-miterlimit: 4; fill: rgb(0,0,0); fill-rule: evenodd; opacity: 1;"  transform=" translate(-83.67, 9.44)" d="m 65.92 -0.89867 c -1.197 -2.4868 5.782 -8.3326 15.578 -13.048 c 9.7962 -4.716 18.718 -6.5252 19.916 -4.0384 c 1.1972 2.4868 -5.7817 8.3326 -15.578 13.049 c -9.7962 4.716 -18.718 6.5252 -19.916 4.0384 z" stroke-linecap="round" />
</g>
		<g transform="matrix(1 0 0 1 -71.61 -15.69)" id="path3333"  >
<path style="stroke: none; stroke-width: 1; stroke-dasharray: none; stroke-linecap: butt; stroke-dashoffset: 0; stroke-linejoin: miter; stroke-miterlimit: 4; fill: rgb(0,0,0); fill-rule: evenodd; opacity: 1;"  transform=" translate(59.02, 1.11)" d="m -76.202 -10.247 c 1.2958 -2.4369 10.047 -0.32059 19.533 4.7239 c 9.4862 5.0444 16.133 11.116 14.838 13.553 c -1.2958 2.4369 -10.047 0.32059 -19.533 -4.7239 c -9.4862 -5.0444 -16.133 -11.116 -14.838 -13.553 z" stroke-linecap="round" />
</g>
		<g transform="matrix(1 0 0 1 -1.2 6.57)" id="path3339"  >
<path style="stroke: none; stroke-width: 1; stroke-dasharray: none; stroke-linecap: butt; stroke-dashoffset: 0; stroke-linejoin: miter; stroke-miterlimit: 4; fill: rgb(255,255,0); fill-rule: nonzero; opacity: 1;"  transform=" translate(-11.4, -21.15)" d="m 25.561 73.158 c -3.0657 -3.7144 -17.188 -5.3718 -21.53 -2.5268 c -1.1982 0.78506 -1.1985 0.78464 -1.1985 -1.4184 c 0 -6.899 -4.5691 -17.075 -13.422 -29.892 c -9.6528 -13.975 -11.496 -17.386 -13.346 -24.703 c -2.4122 -9.5365 -0.16448 -22.171 5.3221 -29.917 c 13.641 -19.258 39.761 -21.756 56.13 -5.3694 c 7.8871 7.8953 11.751 20.542 9.5686 31.315 c -0.94315 4.6546 -1.9989 7.5655 -6.3698 17.563 c -6.8363 15.636 -12.049 32.084 -14.233 44.904 c -0.15794 0.92743 -0.19155 0.92905 -0.92154 0.0446 z" stroke-linecap="round" />
</g>
</g>
</g>
</svg>