<?xml version="1.0" encoding="UTF-8" standalone="no" ?>
<!DOCTYPE svg PUBLIC "-//W3C//DTD SVG 1.1//EN" "http://www.w3.org/Graphics/SVG/1.1/DTD/svg11.dtd">
<svg xmlns="http://www.w3.org/2000/svg" xmlns:xlink="http://www.w3.org/1999/xlink" version="1.1" width="400" height="400" viewBox="0 0 400 400" xml:space="preserve">
<desc>Created with Fabric.js 3.6.3</desc>
<defs>
</defs>
<rect x="0" y="0" width="100%" height="100%" fill="rgba(255, 255, 255, 1)"></rect>
<g transform="matrix(1 0 0 1 205 240.24)" style=""  >
		<text xml:space="preserve" font-family="'Open Sans', sans-serif" font-size="18" font-style="normal" font-weight="normal" style="stroke: none; stroke-width: 1; stroke-dasharray: none; stroke-linecap: butt; stroke-dashoffset: 0; stroke-linejoin: miter; stroke-miterlimit: 4; fill: rgb(0,0,0); fill-rule: nonzero; opacity: 1; white-space: pre;" ><tspan x="-108.5" y="5.97" style="font-size: 19px; font-weight: bold; ">Your Company Name</tspan></text>
</g>
<g transform="matrix(1 0 0 1 229.48 273.67)" style=""  >
		<text xml:space="preserve" font-family="'Open Sans', sans-serif" font-size="18" font-style="normal" font-weight="normal" style="stroke: none; stroke-width: 1; stroke-dasharray: none; stroke-linecap: butt; stroke-dashoffset: 0; stroke-linejoin: miter; stroke-miterlimit: 4; fill: rgb(0,0,0); fill-rule: nonzero; opacity: 1; white-space: pre;" ><tspan x="-81.99" y="5.65" >slogan here</tspan></text>
</g>
<g transform="matrix(0.13 0 0 0.12 201.5 161)"  >
<g style=""   >
		<g transform="matrix(1 0 0 1 -73.74 -289.27)" id="Layer_1"  >
<path style="stroke: rgb(45,45,45); stroke-width: 0.3; stroke-dasharray: none; stroke-linecap: butt; stroke-dashoffset: 0; stroke-linejoin: miter; stroke-miterlimit: 4; fill: rgb(45,45,45); fill-rule: nonzero; opacity: 1;"  transform=" translate(-566.26, -208.23)" d="M 544 19.01 c 11.63 -1.19 23.33 -0.83 35 -0.86 c 13.52 -0.08 26.92 2.14 40.22 4.38 c 20 3.23 39.47 9.32 58.15 17.1 c 5.08 2.54 10.42 4.71 15.12 7.94 c 7.72 6.66 15.99 12.63 23.85 19.12 c 14.19 11.73 27.02 25.14 38.02 39.91 c 3.77 5.66 8.3 11.03 10.66 17.48 c 1.03 5.34 4.64 9.69 5.81 14.99 c 1.99 8.01 3.63 16.11 4.85 24.29 c 2.05 11.45 4.48 22.94 4.07 34.64 c 0.64 7.68 -0.1 15.35 -0.1 23.03 c -0.08 3.1 0.15 6.32 -1.16 9.23 c -2.22 -7.43 -3.67 -15.24 -7.85 -21.9 c -6.86 -13.54 -16.32 -25.49 -25.79 -37.26 c -3.0099 -3.86 -7.14 -6.53 -10.99 -9.44 c -28.85 26.57 -63.32 47.92 -101.58 57.6 c -18.4901 4.71 -37.38 8.23 -56.4301 9.41 c 6.23 -8.08 12.82 -15.93 18.08 -24.72 c 11.04 -17.67 22.86 -35.39 28.03 -55.85 c -9.78 11.84 -21.76 21.52 -32.87 32.04 c -13.83 12.13 -25.55 26.54 -40.28 37.65 c -12.27 10.05 -26.12 17.88 -39.07 26.97 c 18.14 3.77 36.39 7.38 54.01 13.24 c 6.95 -8.23 17.62 -12.65 28.25 -13.17 c 14.73 -1.15 28.82 4.18 42.64 8.5 c 15.94 6.09 32.37 12.32 45.39 23.73 c 2.29 1.86 3.73 4.54 4.52 7.36 c 1.87 6.6 2.65 13.47 2.94 20.31 c 1.65 1.69 3.46 3.41 5.91 3.79 c 4.8199 1.06 9.61 2.8 14.61 2.61 c 3 0.1 4.57 -3.02 5.84 -5.28 c 3.03 -5.28 4.9301 -12.68 11.53 -14.5 c 6.7 -1.47 13.79 -2.01 20.5 -0.27 c 6.73 1.76 13.76 2.1 20.47 3.99 c 3.27 1.43 6.2 3.52 9.35 5.19 c 2.95 1.7 6.25 3.12 8.38 5.89 c 0.73 5.41 1.27 12.09 -2.96 16.29 c -8.31 -4.6 -16.3 -9.92 -25.4 -12.85 c 0.39 -0.36 1.19 -1.08 1.59 -1.44 c -6.49 -1.24 -13.27 -2.34 -19.8 -0.78 c -4.26 1.14 -8.46 3.54 -10.64 7.52 c -2.84 5.08 -5.36 10.37 -7.36 15.84 c -0.58 1.17 -0.24 2.42 0.19 3.59 c -3.23 9.16 -5.38 18.91 -4.15 28.66 c 0.69 3.56 1.89 7.3 4.72 9.76 c 3.4 3.05 6.97 6.19 11.42 7.58 c 9.11 2.91 18.86 2.48 28.24 1.48 c 0.52 5.12 -3.5 8.99 -6.87 12.25 c -3.04 2.64 -6.91 4.62 -11.05 4.23 c -6.63 -0.24 -13.28 -0.67 -19.87 -1.49 c -5.23 -1.48 -9.51 -4.96 -13.68 -8.28 c -2.84 -2.24 -5.2 -5.11 -6.54 -8.47 c -3.35 -7.56 -2.26 -16.04 -2.02 -24.04 c 0.24 -8.13 2.9 -15.95 3.41 -24.03 c 0.41 -2.79 -1.93 -5.18 -4.46 -5.88 c -3.5099 -0.99 -7.19 -1.47 -10.83 -1.25 c -2.71 0 -4.32 2.77 -5.07 5.06 c -4.05 13.83 -9.63 27.33 -17.67 39.35 c -3.02 6.06 -9.72 8.47 -15.95 9.67 c -4.25 -1.73 -8.89 -0.51 -13.32 -0.78 c -4.1 0.11 -8.46 -0.99 -12.3 0.89 c -19.21 -1.03 -38.15 -7.12 -54.52 -17.21 c -5.13 -2.64 -10.42 -5.3 -14.06 -9.93 c -7.45 -6.31 -10.34 -16.45 -10.05 -25.93 c 0.37 -9.91 2.04 -19.74 4.64 -29.3 c 0.8 -3.05 1.57 -6.23 1.04 -9.4 c -0.91 -2.21 -3.18 -3.48 -5.47 -3.74 c -16.57 -2.79 -32.97 -6.44 -49.51 -9.34 c -7.22 -1.29 -14.56 -2.13 -21.59 -4.3 c -3.5 -1.14 -7.19 -2.59 -9.53 -5.58 c -1.68 -2.9 -2.29 -6.27 -3.73 -9.28 c -1.97 -4.67 -5.85 -8.15 -9.8 -11.15 c -4.77 -3.48 -9.9 -7.33 -16.12 -7.13 c -10.39 -0.05 -21.5 -0.68 -31 4.23 c -7.87 5.13 -13.28 13.1 -18.09 20.99 c -3.21 6.16 -5.95 12.62 -7.62 19.38 c -1.61 6.51 0.04 13.17 0.45 19.72 c 0.32 7.13 3.3 13.72 5.92 20.25 c 3.33 8.41 8.96 15.58 13.85 23.11 c 5.48 7.42 11.96 14.32 19.88 19.17 c 0.95 0.7 2.16 1.23 2.76 2.32 c -5.29 7.49 -12.07 13.85 -18.72 20.12 c -1.39 -2.97 -3.83 -5.22 -5.53 -7.98 c -11.68 -19.18 -21.69 -39.41 -29.41 -60.51 c -9.99 -25.61 -16.22 -52.67 -18.89 -80.02 c -0.29 -6.51 -1.04 -13.03 -0.44 -19.55 c 0.4 -6.99 -0.18 -14.04 0.74 -21 c 1.32 -10.59 1.62 -21.51 5.48 -31.58 c 1.33 -4.19 1.75 -8.62 3.16 -12.79 c 3.35 -11.41 9.24 -21.81 14.8 -32.25 c 3.39 -6.86 6.54 -13.87 10.49 -20.44 c 7.76 -13.71 18.74 -25.2 30.18 -35.87 c 6.11 -5.95 12.27 -11.96 19.56 -16.47 c 10.83 -6.75 21.38 -14.53 33.88 -17.9 c 6.35 -1.6 12.76 -3.03 18.94 -5.24 c 5.94 -2.42 12.37 -0.27 18.53 -1.03 C 517.28 21.87 530.59 19.98 544 19.01 M 593.83 264.33 c 0.4 0.34 1.21 1.01 1.61 1.34 c -9.06 0.2 -16.03 7.42 -19.49 15.21 c -3.17 10.25 -6.36 20.6 -7.42 31.32 c -0.15 -1.2 -0.54 -2.33 -1.17 -3.38 c -0.49 6.45 -0.51 12.96 -0.05 19.42 c 0.31 -0.4 0.93 -1.2 1.24 -1.6 c 0.62 7.83 5.49 14.63 11.77 19.04 c 6.12 4.43 12.93 7.98 20.24 9.96 c 13.03 3.49 26.72 4.44 40.1 2.97 c 5.98 -1.74 9.78 -7.1 12.66 -12.29 c 4.59 -9 8.15 -18.54 10.57 -28.35 c 1.41 -7.24 3.34 -14.55 2.35 -21.98 c 0.06 -2.94 -1.58 -5.58 -3.78 -7.39 c -8.41 -7.15 -18.36 -12.12 -28.31 -16.72 c -8.31 -3.75 -17.36 -5.37 -26.35 -6.47 c 0.79 -0.05 2.38 -0.16 3.17 -0.21 l -0.06 -1.09 C 605.22 263.74 599.5 263.72 593.83 264.33 M 713.94 355.99 c 0.06 2.78 -0.33 5.71 0.81 8.35 c 0.3 -5.2 0.34 -10.43 0.11 -15.63 C 713.61 350.93 714.06 353.55 713.94 355.99 z" stroke-linecap="round" />
</g>
		<g transform="matrix(1 0 0 1 4.37 -267.88)" id="Layer_1"  >
<path style="stroke: rgb(248,197,176); stroke-width: 0.3; stroke-dasharray: none; stroke-linecap: butt; stroke-dashoffset: 0; stroke-linejoin: miter; stroke-miterlimit: 4; fill: rgb(248,197,176); fill-rule: nonzero; opacity: 1;"  transform=" translate(-644.37, -229.62)" d="M 589.09 180.14 c 11.11 -10.52 23.09 -20.2 32.87 -32.04 c -5.17 20.46 -16.9901 38.18 -28.03 55.85 c -5.26 8.79 -11.85 16.64 -18.08 24.72 c 19.05 -1.18 37.94 -4.7 56.4301 -9.41 c 38.2599 -9.68 72.73 -31.03 101.58 -57.6 c 3.85 2.91 7.98 5.58 10.99 9.44 c 9.47 11.77 18.9301 23.72 25.79 37.26 c 4.18 6.66 5.63 14.47 7.85 21.9 c 1.47 3.91 -0.63 7.75 -0.84 11.69 c -2.35 17.95 -5.61 35.9 -11.3 53.12 c -6.71 -1.89 -13.74 -2.23 -20.47 -3.99 c -6.71 -1.74 -13.8 -1.2 -20.5 0.27 c -6.6 1.82 -8.5 9.22 -11.53 14.5 c -1.27 2.26 -2.84 5.38 -5.84 5.28 c -5 0.19 -9.79 -1.55 -14.61 -2.61 c -2.45 -0.38 -4.26 -2.1 -5.91 -3.79 c -0.29 -6.84 -1.07 -13.71 -2.94 -20.31 c -0.79 -2.82 -2.23 -5.5 -4.52 -7.36 c -13.02 -11.41 -29.45 -17.64 -45.39 -23.73 c -13.82 -4.32 -27.91 -9.65 -42.64 -8.5 c -10.63 0.52 -21.3 4.94 -28.25 13.17 c -17.62 -5.86 -35.87 -9.47 -54.01 -13.24 c 12.95 -9.09 26.8 -16.92 39.07 -26.97 C 563.54 206.68 575.26 192.27 589.09 180.14 z" stroke-linecap="round" />
</g>
		<g transform="matrix(1 0 0 1 269.07 -283.78)" id="Layer_1"  >
<path style="stroke: rgb(247,72,46); stroke-width: 0.3; stroke-dasharray: none; stroke-linecap: butt; stroke-dashoffset: 0; stroke-linejoin: miter; stroke-miterlimit: 4; fill: rgb(247,72,46); fill-rule: nonzero; opacity: 1;"  transform=" translate(-909.07, -213.72)" d="M 901.28 158.28 c 2.84 -0.13 5.8 -0.32 8.49 0.83 c 9.16 3.43 18.74 5.5 28.21 7.84 c 4.46 1.14 5.58 6.83 3.3 10.39 c -3.9901 6.66 -6.59 14.01 -9.95 20.98 c -9.18 19.97 -19.81 39.23 -28.67 59.34 c -1.84 3.73 -2.52 8.38 -6.03 11.02 c -5.86 2.13 -11.08 -2.24 -16.51 -3.74 c -3.89 -1.16 -4.99 -5.35 -4.13 -8.95 c 3.3 -20.84 8.82 -41.26 14.19 -61.65 c 2.96 -10.55 5.28 -21.26 8.27 -31.8 C 898.9 160.85 900.24 159.63 901.28 158.28 z" stroke-linecap="round" />
</g>
		<g transform="matrix(1 0 0 1 320.75 -259.75)" id="Layer_1"  >
<path style="stroke: rgb(247,72,46); stroke-width: 0.3; stroke-dasharray: none; stroke-linecap: butt; stroke-dashoffset: 0; stroke-linejoin: miter; stroke-miterlimit: 4; fill: rgb(247,72,46); fill-rule: nonzero; opacity: 1;"  transform=" translate(-960.75, -237.75)" d="M 960.39 192.43 c 3.94 -0.9 8.09 -0.18 11.86 1.18 c 4.97 1.72 10.13 3.03 14.92 5.24 c 3.81 1.99 4.02 7.1 2.16 10.51 c -5.37 9.47 -9.84 19.41 -15.16 28.91 c -7.91 14.28 -16.38 28.25 -24.45 42.42 c -2.02 3.56 -6.86 3.25 -10.03 1.61 c -2.95 -1.57 -6.74 -2.37 -8.43 -5.54 c -1.12 -5.98 1.96 -11.42 3.66 -16.95 c 6.57 -19.81 14.25 -39.22 20.94 -58.99 C 956.95 197.84 957.69 194.43 960.39 192.43 z" stroke-linecap="round" />
</g>
		<g transform="matrix(1 0 0 1 361.03 -239.46)" id="Layer_1"  >
<path style="stroke: rgb(247,72,46); stroke-width: 0.3; stroke-dasharray: none; stroke-linecap: butt; stroke-dashoffset: 0; stroke-linejoin: miter; stroke-miterlimit: 4; fill: rgb(247,72,46); fill-rule: nonzero; opacity: 1;"  transform=" translate(-1001.03, -258.04)" d="M 999.39 229.39 c 3.03 -0.12 6.32 -0.61 8.99 1.21 c 3.75 2.4 8.83 2.8 11.57 6.6 c 1.93 5.97 -2.84 10.68 -4.97 15.79 c -4.67 10.13 -9.91 19.97 -15.23 29.76 c -0.84 1.43 -1.99 2.64 -3.04 3.91 c -5.5 0.69 -11.9 -0.59 -14.87 -5.76 c -0.57 -3.64 0.22 -7.3 1.48 -10.71 c 4.26 -11.79 7.98 -23.78 12.47 -35.49 C 996.42 232.59 998.01 231.03 999.39 229.39 z" stroke-linecap="round" />
</g>
		<g transform="matrix(1 0 0 1 -90.13 -124.35)" id="Layer_1"  >
<path style="stroke: rgb(248,197,176); stroke-width: 0.3; stroke-dasharray: none; stroke-linecap: butt; stroke-dashoffset: 0; stroke-linejoin: miter; stroke-miterlimit: 4; fill: rgb(248,197,176); fill-rule: nonzero; opacity: 1;"  transform=" translate(-549.87, -373.15)" d="M 404.01 240.97 c 9.5 -4.91 20.61 -4.28 31 -4.23 c 6.22 -0.2 11.35 3.65 16.12 7.13 c 3.95 3 7.83 6.48 9.8 11.15 c 1.44 3.01 2.05 6.38 3.73 9.28 c 2.34 2.99 6.03 4.44 9.53 5.58 c 7.03 2.17 14.37 3.01 21.59 4.3 c 16.54 2.9 32.94 6.55 49.51 9.34 c 2.29 0.26 4.56 1.53 5.47 3.74 c 0.53 3.17 -0.24 6.35 -1.04 9.4 c -2.6 9.56 -4.27 19.39 -4.64 29.3 c -0.29 9.48 2.6 19.62 10.05 25.93 c 3.64 4.63 8.93 7.29 14.06 9.93 c 16.37 10.09 35.31 16.18 54.52 17.21 c 8.52 0.44 17.12 1 25.62 -0.11 c 6.23 -1.2 12.93 -3.61 15.95 -9.67 c 8.04 -12.02 13.62 -25.52 17.67 -39.35 c 0.75 -2.29 2.36 -5.06 5.07 -5.06 c 3.64 -0.22 7.32 0.26 10.83 1.25 c 2.53 0.7 4.87 3.09 4.46 5.88 c -0.51 8.08 -3.17 15.9 -3.41 24.03 c -0.2401 8 -1.33 16.48 2.02 24.04 c 1.34 3.36 3.7 6.23 6.54 8.47 c 4.17 3.32 8.45 6.8 13.68 8.28 c -0.6 9.67 -1.41 19.33 -1.55 29.03 c -1.38 8.54 -4.35 17.02 -10.27 23.5 c -11.25 11.75 -21.83 24.19 -34.15 34.86 c -9.72 9.25 -20.51 17.23 -31.2 25.29 c -3.6899 0.43 -7.39 -0.17 -11.03 -0.65 c -13.29 -2.08 -26.68 -3.52 -39.9 -6 c -7.35 -1.4 -14.53 -3.51 -21.8 -5.18 c -10.19 -2.45 -19.91 -6.41 -29.61 -10.28 c -11.32 -4.02 -22.61 -8.1 -33.96 -12.02 c -8.05 -3.76 -16.67 -6.87 -25.67 -6.76 c -5.8 -0.41 -9.83 4.57 -14.24 7.53 c -2.96 2.58 -6.08 4.96 -9.06 7.51 c -7.24 -0.94 -13.75 3.44 -20.7 4.61 c -5.62 1.09 -8.82 -4.6 -12.94 -7.27 c -15.09 -11.04 -26.29 -26.32 -35.88 -42.15 c -2.83 -4.69 -5.26 -9.6 -7.38 -14.64 c -2.56 -5.69 -2.08 -12.12 -1.98 -18.2 c 0.15 -3.72 4.21 -5.19 6.8 -7.05 c 5.66 -3.43 10.14 -8.33 14.82 -12.89 c 6.65 -6.27 13.43 -12.63 18.72 -20.12 c -0.6 -1.09 -1.81 -1.62 -2.76 -2.32 c -7.92 -4.85 -14.4 -11.75 -19.88 -19.17 c -4.89 -7.53 -10.52 -14.7 -13.85 -23.11 c -2.62 -6.53 -5.6 -13.12 -5.92 -20.25 c -0.41 -6.55 -2.06 -13.21 -0.45 -19.72 c 1.67 -6.76 4.41 -13.22 7.62 -19.38 C 390.73 254.07 396.14 246.1 404.01 240.97 z" stroke-linecap="round" />
</g>
		<g transform="matrix(1 0 0 1 -37.6 -232.74)" id="Layer_1"  >
<path style="stroke: rgb(8,8,8); stroke-width: 0.3; stroke-dasharray: none; stroke-linecap: butt; stroke-dashoffset: 0; stroke-linejoin: miter; stroke-miterlimit: 4; fill: rgb(8,8,8); fill-rule: nonzero; opacity: 1;"  transform=" translate(-602.4, -264.76)" d="M 593.83 264.33 c 5.67 -0.61 11.39 -0.59 17.08 -0.22 l 0.06 1.09 c -0.79 0.05 -2.3799 0.16 -3.17 0.21 c -4.12 -0.25 -8.24 0.1 -12.36 0.26 C 595.04 265.34 594.23 264.67 593.83 264.33 z" stroke-linecap="round" />
</g>
		<g transform="matrix(1 0 0 1 -22.6 -185.2)" id="Layer_1"  >
<path style="stroke: rgb(255,255,255); stroke-width: 0.3; stroke-dasharray: none; stroke-linecap: butt; stroke-dashoffset: 0; stroke-linejoin: miter; stroke-miterlimit: 4; fill: rgb(255,255,255); fill-rule: nonzero; opacity: 1;"  transform=" translate(-617.4, -312.3)" d="M 595.44 265.67 c 4.12 -0.16 8.24 -0.51 12.36 -0.26 c 8.99 1.1 18.04 2.72 26.35 6.47 c 9.95 4.6 19.9 9.57 28.31 16.72 c 2.2 1.81 3.84 4.45 3.78 7.39 c 0.99 7.43 -0.94 14.74 -2.35 21.98 c -2.42 9.81 -5.98 19.35 -10.57 28.35 c -2.88 5.19 -6.68 10.55 -12.66 12.29 c -13.3799 1.47 -27.0699 0.52 -40.1 -2.97 c -7.31 -1.98 -14.12 -5.53 -20.24 -9.96 c -6.28 -4.41 -11.15 -11.21 -11.77 -19.04 c -0.43 -4.81 -0.27 -9.63 -0.02 -14.44 c 1.06 -10.72 4.25 -21.07 7.42 -31.32 C 579.41 273.09 586.38 265.87 595.44 265.67 z" stroke-linecap="round" />
</g>
		<g transform="matrix(1 0 0 1 240.28 -202.96)" id="Layer_1"  >
<path style="stroke: rgb(247,72,46); stroke-width: 0.3; stroke-dasharray: none; stroke-linecap: butt; stroke-dashoffset: 0; stroke-linejoin: miter; stroke-miterlimit: 4; fill: rgb(247,72,46); fill-rule: nonzero; opacity: 1;"  transform=" translate(-880.28, -294.54)" d="M 877.43 281.54 c 3.56 -0.6 8.07 -0.66 10.51 2.51 c 1.64 2.03 3.27 4.09 4.6 6.35 c 0.36 3.39 0.32 6.85 0.02 10.25 c -1.25 3.01 -3.95 5.56 -6.89 6.87 c -4.6 0.19 -10.3 1.46 -13.74 -2.47 c -1.62 -1.74 -4.25 -3.27 -4.05 -5.98 C 867.03 291.95 871.14 284.81 877.43 281.54 z" stroke-linecap="round" />
</g>
		<g transform="matrix(1 0 0 1 288.35 -194.45)" id="Layer_1"  >
<path style="stroke: rgb(247,72,46); stroke-width: 0.3; stroke-dasharray: none; stroke-linecap: butt; stroke-dashoffset: 0; stroke-linejoin: miter; stroke-miterlimit: 4; fill: rgb(247,72,46); fill-rule: nonzero; opacity: 1;"  transform=" translate(-928.35, -303.05)" d="M 917.33 300.25 c 1.31 -2.55 3.6 -4.49 5.78 -6.3 c 3.9 -0.85 7.71 0.75 11.44 1.69 c 2.91 1.14 5.58 4 4.89 7.36 c 0.47 4.18 -3.54 6.95 -6.57 9.05 c -3.57 0.54 -7.23 0.34 -10.82 0.16 c -1.84 -0.79 -3.16 -2.36 -4.65 -3.61 C 917.21 305.82 916.99 303.02 917.33 300.25 z" stroke-linecap="round" />
</g>
		<g transform="matrix(1 0 0 1 335.11 -186.76)" id="Layer_1"  >
<path style="stroke: rgb(247,72,46); stroke-width: 0.3; stroke-dasharray: none; stroke-linecap: butt; stroke-dashoffset: 0; stroke-linejoin: miter; stroke-miterlimit: 4; fill: rgb(247,72,46); fill-rule: nonzero; opacity: 1;"  transform=" translate(-975.11, -310.74)" d="M 970.22 317.88 c -4.65 -3.55 -3.4399 -11.73 1.85 -14.08 c 4.09 -0.89 8.45 0.89 10.69 4.44 c 0.22 2.18 0.09 4.38 0.08 6.57 c -1.03 1.02 -2.05 2.04 -3.04 3.07 C 976.6 317.91 973.4 317.9 970.22 317.88 z" stroke-linecap="round" />
</g>
		<g transform="matrix(1 0 0 1 98.26 -177.04)" id="Layer_1"  >
<path style="stroke: rgb(26,26,26); stroke-width: 0.3; stroke-dasharray: none; stroke-linecap: butt; stroke-dashoffset: 0; stroke-linejoin: miter; stroke-miterlimit: 4; fill: rgb(26,26,26); fill-rule: nonzero; opacity: 1;"  transform=" translate(-738.26, -320.46)" d="M 737.51 307.37 c 6.53 -1.56 13.31 -0.46 19.8 0.78 c -0.4 0.36 -1.2 1.08 -1.59 1.44 c -7.48 -1.5 -15.81 -2.7 -22.71 1.4 c -3.78 1.98 -5.54 6.05 -7.36 9.67 c -2.29 4.41 -4.04 9.07 -5.95 13.66 c -0.43 -1.17 -0.77 -2.42 -0.19 -3.59 c 2 -5.47 4.52 -10.76 7.36 -15.84 C 729.05 310.91 733.25 308.51 737.51 307.37 z" stroke-linecap="round" />
</g>
		<g transform="matrix(1 0 0 1 108.24 -152.13)" id="Layer_1"  >
<path style="stroke: rgb(255,255,255); stroke-width: 0.3; stroke-dasharray: none; stroke-linecap: butt; stroke-dashoffset: 0; stroke-linejoin: miter; stroke-miterlimit: 4; fill: rgb(255,255,255); fill-rule: nonzero; opacity: 1;"  transform=" translate(-748.24, -345.37)" d="M 733.01 310.99 c 6.9 -4.1 15.23 -2.9 22.71 -1.4 c 9.1 2.93 17.09 8.25 25.4 12.85 c 0.76 6.05 -1.44 11.88 -2.98 17.63 c -4.56 14.33 -8.94 29.01 -17.4 41.63 l -0.81 0.1 c -9.38 1 -19.13 1.43 -28.24 -1.48 c -4.45 -1.39 -8.02 -4.53 -11.42 -7.58 c -2.83 -2.46 -4.03 -6.2 -4.72 -9.76 c -1.23 -9.75 0.92 -19.5 4.15 -28.66 c 1.91 -4.59 3.66 -9.25 5.95 -13.66 C 727.47 317.04 729.23 312.97 733.01 310.99 z" stroke-linecap="round" />
</g>
		<g transform="matrix(1 0 0 1 -72.24 -178.97)" id="Layer_1"  >
<path style="stroke: rgb(13,13,13); stroke-width: 0.3; stroke-dasharray: none; stroke-linecap: butt; stroke-dashoffset: 0; stroke-linejoin: miter; stroke-miterlimit: 4; fill: rgb(13,13,13); fill-rule: nonzero; opacity: 1;"  transform=" translate(-567.76, -318.53)" d="M 567.36 308.82 c 0.63 1.05 1.02 2.18 1.17 3.38 c -0.25 4.81 -0.41 9.63 0.02 14.44 c -0.31 0.4 -0.93 1.2 -1.24 1.6 C 566.85 321.78 566.87 315.27 567.36 308.82 z" stroke-linecap="round" />
</g>
		<g transform="matrix(1 0 0 1 74.46 -140.97)" id="Layer_1"  >
<path style="stroke: rgb(17,16,15); stroke-width: 0.3; stroke-dasharray: none; stroke-linecap: butt; stroke-dashoffset: 0; stroke-linejoin: miter; stroke-miterlimit: 4; fill: rgb(17,16,15); fill-rule: nonzero; opacity: 0.95;"  transform=" translate(-714.46, -356.53)" d="M 713.94 355.99 c 0.12 -2.44 -0.33 -5.06 0.92 -7.28 c 0.23 5.2 0.19 10.43 -0.11 15.63 C 713.61 361.7 714 358.77 713.94 355.99 z" stroke-linecap="round" />
</g>
		<g transform="matrix(1 0 0 1 -3.48 -118.76)" id="Layer_1"  >
<path style="stroke: rgb(16,23,27); stroke-width: 0.3; stroke-dasharray: none; stroke-linecap: butt; stroke-dashoffset: 0; stroke-linejoin: miter; stroke-miterlimit: 4; fill: rgb(16,23,27); fill-rule: nonzero; opacity: 1;"  transform=" translate(-636.52, -378.74)" d="M 623.71 379.03 c 3.84 -1.88 8.2 -0.78 12.3 -0.89 c 4.43 0.27 9.07 -0.95 13.32 0.78 C 640.83 380.03 632.23 379.47 623.71 379.03 z" stroke-linecap="round" />
</g>
		<g transform="matrix(1 0 0 1 -236.14 7.72)" id="Layer_1"  >
<path style="stroke: rgb(255,255,255); stroke-width: 0.3; stroke-dasharray: none; stroke-linecap: butt; stroke-dashoffset: 0; stroke-linejoin: miter; stroke-miterlimit: 4; fill: rgb(255,255,255); fill-rule: nonzero; opacity: 1;"  transform=" translate(-403.86, -505.22)" d="M 369.77 391.97 c 3.21 -1 6.6 -0.94 9.93 -0.78 c 2.31 2.9 5.27 5.16 7.92 7.73 c -2.59 1.86 -6.65 3.33 -6.8 7.05 c -0.1 6.08 -0.58 12.51 1.98 18.2 c 2.12 5.04 4.55 9.95 7.38 14.64 c 9.59 15.83 20.79 31.11 35.88 42.15 c 4.12 2.67 7.32 8.36 12.94 7.27 c 6.95 -1.17 13.46 -5.55 20.7 -4.61 c 1.46 13.33 3.77 26.66 3.78 40.08 c -3.94 9.81 -5.93 20.25 -9.53 30.19 c -2.23 8.37 -5.76 16.31 -8.56 24.49 c -3.86 13.69 -8.01 27.46 -14.86 40 c -1.86 -8.38 -2.67 -16.9 -3.8 -25.39 c -0.78 -6.41 -0.44 -12.88 -1.11 -19.29 c -0.18 -2.4 -0.59 -4.84 -0.09 -7.22 c 4.74 -6.56 9.64 -13.05 14.03 -19.86 c 2.97 -4.29 1.93 -9.8 1.31 -14.62 c -2.42 -12.89 -4.12 -25.91 -6.8 -38.75 c -1.65 0.46 -3.37 0.99 -4.28 2.57 c -8.38 11.88 -16.76 23.77 -25.6 35.32 c -2.84 2.96 -0.64 7.09 0.3 10.39 c 2.25 5.1299 4.04 10.4399 6.35 15.54 c 1.55 3.64 5.42 6.58 4.56 10.93 c -1.2 6.44 -3.9 12.51 -5.63 18.83 c -4.1 9.01 -7.98 18.13 -11.68 27.32 c -0.73 1.86 -1.76 3.58 -2.95 5.19 c -0.72 -7.8 -3.29 -15.23 -4.56 -22.92 c -2.36 -12.68 -5.78 -25.13 -8.12 -37.8 c -0.54 -4.72 -1.93 -9.27 -3.27 -13.8 c -2.93 -11.83 -6.15 -23.58 -9.8 -35.2 c -3.44 -12.43 -7.79 -24.65 -14.14 -35.91 c -3.87 -6.48 -5.04 -14.05 -6.63 -21.3 c -2.18 -11.69 -4.72 -23.45 -4.31 -35.42 c 0.15 -4.53 -0.35 -9.08 0.2 -13.59 c 0.88 -2.85 3.86 -4.18 6.42 -5.19 C 357 395.55 363.4 393.78 369.77 391.97 z" stroke-linecap="round" />
</g>
		<g transform="matrix(1 0 0 1 -255.32 55.74)" id="Layer_1"  >
<path style="stroke: rgb(131,131,131); stroke-width: 0.3; stroke-dasharray: none; stroke-linecap: butt; stroke-dashoffset: 0; stroke-linejoin: miter; stroke-miterlimit: 4; fill: rgb(131,131,131); fill-rule: nonzero; opacity: 1;"  transform=" translate(-384.68, -553.24)" d="M 322.03 402.03 c 7.3 -3.2 14.62 -8.15 22.92 -7.3 c 2.15 0.86 3.89 2.48 5.98 3.48 c -2.56 1.01 -5.54 2.34 -6.42 5.19 c -0.55 4.51 -0.05 9.06 -0.2 13.59 c -0.41 11.97 2.13 23.73 4.31 35.42 c 1.59 7.25 2.76 14.82 6.63 21.3 c 6.35 11.26 10.7 23.48 14.14 35.91 c 3.65 11.62 6.87 23.37 9.8 35.2 c 1.34 4.53 2.73 9.08 3.27 13.8 c 2.34 12.67 5.76 25.12 8.12 37.8 c 1.27 7.69 3.84 15.12 4.56 22.92 c 0.31 5.6 1.69 11.0699 2.09 16.67 c 0.83 8.97 0.44 17.99 0.76 26.99 c 0.07 7.05 -0.26 14.17 1.14 21.14 c 9.51 -13.57 16.47 -28.69 23.34 -43.72 c 3.07 -7.2 6.02 -14.47 8.06 -22.04 c 6.85 -12.54 11 -26.31 14.86 -40 c 2.8 -8.18 6.33 -16.12 8.56 -24.49 c 3.6 -9.94 5.59 -20.38 9.53 -30.19 c -0.01 -13.42 -2.32 -26.75 -3.78 -40.08 c 2.98 -2.55 6.1 -4.93 9.06 -7.51 c 3.78 2.92 5.13 7.46 6.04 11.94 c 3.68 10.91 5.16 22.45 5.63 33.92 c 0.1 2.27 1.41 4.4 1.18 6.67 c -2.01 7.09 1.08 14.9 -2.28 21.69 c -4.62 1.27 -9.66 0.19 -14.28 1.81 c -0.87 7.05 3.29 13.18 4.54 19.87 c -1.81 4.47 -3.7 8.91 -5.03 13.57 c -6.77 19.24 -14.93 37.96 -23.56 56.43 c -7.29 12.27 -15.22 24.14 -22.69 36.3 c -5.27 8.56 -11.09 16.77 -17.39 24.6 c -2.56 3.09 -4.99 6.51 -8.59 8.47 c -2.57 1.42 -5.53 -0.61 -6.89 -2.8 c -7.21 -11.91 -14.61 -23.74 -20.78 -36.23 c -7.66 -15.22 -12.68 -31.54 -18.59 -47.46 c -3.32 -8.98 -6.43 -18.03 -10.07 -26.88 c -3.47 -7.97 -4.19 -16.76 -7.18 -24.88 c -0.69 -2.72 -2.56 -5.67 -1.16 -8.45 c 1.76 -4.01 4.61 -7.38 7.04 -10.98 c 3.04 -4.4 5.18 -9.35 8.35 -13.67 c 1.91 -2.77 4.42 -5.29 5.11 -8.7 c -12.88 -2.8 -25.96 -4.67 -39.11 -5.45 c -3.21 -0.06 -5.07 -3.31 -5.84 -6.04 c -1.72 -6.41 -2.52 -13.02 -3.52 -19.57 c -1.26 -8.34 -2.87 -16.63 -4 -25 c -1.5 -10.78 -4.53 -21.37 -4.78 -32.3 c -0.12 -4.49 -1.26 -8.86 -2.69 -13.1 c -1.32 -3.96 0.04 -8.76 3.78 -10.9 C 301.81 412.99 311.47 406.66 322.03 402.03 z" stroke-linecap="round" />
</g>
		<g transform="matrix(1 0 0 1 -350.32 195.26)" id="Layer_1"  >
<path style="stroke: rgb(139,139,139); stroke-width: 0.3; stroke-dasharray: none; stroke-linecap: butt; stroke-dashoffset: 0; stroke-linejoin: miter; stroke-miterlimit: 4; fill: rgb(139,139,139); fill-rule: nonzero; opacity: 1;"  transform=" translate(-289.68, -692.76)" d="M 288.22 429.87 c 1.43 4.24 2.57 8.61 2.69 13.1 c 0.25 10.93 3.28 21.52 4.78 32.3 c 1.13 8.37 2.74 16.66 4 25 c 1 6.55 1.8 13.16 3.52 19.57 c 0.77 2.73 2.63 5.98 5.84 6.04 c 13.15 0.78 26.23 2.65 39.11 5.45 c -0.69 3.41 -3.2 5.93 -5.11 8.7 c -3.17 4.3199 -5.31 9.27 -8.35 13.67 c -2.43 3.6 -5.28 6.97 -7.04 10.98 c -1.4 2.78 0.47 5.73 1.16 8.45 c 2.99 8.12 3.71 16.91 7.18 24.88 c 3.64 8.85 6.75 17.9 10.07 26.88 c 5.91 15.92 10.93 32.24 18.59 47.46 c 6.17 12.4901 13.57 24.32 20.78 36.23 c 1.36 2.19 4.32 4.22 6.89 2.8 c 3.6 -1.96 6.03 -5.38 8.59 -8.47 c 6.3 -7.83 12.12 -16.04 17.39 -24.6 c 7.47 -12.16 15.4 -24.03 22.69 -36.3 c 8.63 -18.47 16.79 -37.19 23.56 -56.43 c 1.33 -4.66 3.22 -9.1 5.03 -13.57 c -1.25 -6.69 -5.41 -12.82 -4.54 -19.87 c 4.62 -1.62 9.66 -0.54 14.28 -1.81 c 3.36 -6.79 0.27 -14.6 2.28 -21.69 c 3.08 8.45 3.43 17.59 4.2 26.47 c 0.53 4.6 0.64 9.25 0.72 13.89 c -0.35 10.47 2.38 20.69 3.87 30.98 c 3.31 18.96 6.21 37.98 8.81 57.04 c 2.34 12.6 4.98 25.14 7.22 37.76 c 1.05 6.81 3.91 13.3 3.75 20.3 c -0.18 3.17 1.63 5.89 2.83 8.7 c -21.01 -1.08 -41.94 3.02 -61.87 9.4 c -5.89 2.18 -11.61 4.8 -17.21 7.65 c -1.94 -3.39 -3.05 -7.22 -5.35 -10.4 c -3.84 -5.17 -6.39 -11.2 -10.72 -16.01 c -4.22 5.57 -7.27 11.93 -10.03 18.33 c -1.2 2.57 -1.44 5.43 -1.36 8.25 c -11.17 2.34 -22.85 0.2 -34.03 2.25 c -4.52 3.41 -5.98 9.19 -8.1 14.16 c -3.71 8.6801 -4.54 18.2 -6.52 27.35 c -2.22 11.28 -1.35 22.82 -1.55 34.23 c -0.12 7.5 0.87 14.98 2.43 22.3 c 0.44 2.1 1.84 4.63 4.32 4.54 c 11 0.38 22.04 -0.23 33.05 0.26 c -1.73 3.8 -0.72 8.33 -3.18 11.85 c -1.92 3.24 -5.4 5.15 -8.96 6.03 c -5.97 1.42 -11.58 4.29 -17.82 4.47 c -0.65 1.22 -1.49 2.59 -0.69 3.99 c 4.48 11.66 10.45 22.69 16.64 33.53 c 7.69 13.04 15.7 25.95 25.21 37.77 c 2.18 2.04 1.19 5.22 1.33 7.87 c -1.62 1.31 -3.24 3.1 -5.56 2.6801 c -48.02 -0.05 -96.04 -0.08 -144.04 0.27 c -47.33 -0.11 -94.66 0.11 -141.99 0.26 c -10.89 0.41 -21.78 0.89 -32.68 0.84 c -4.05 -3.71 -6.13 -8.88 -8.39 -13.75 c -4.24 -9.8 -7.01 -20.27 -7.93 -30.91 c -2.79 -24.69 -1.47 -49.56 -0.37 -74.3 c 0.93 -13.85 2.67 -27.63 4.99 -41.31 c 13.97 -65.84 35.22 -129.94 60.54 -192.24 c 7.26 -17.28 14.68 -34.57 24.27 -50.72 c 9.72 -16.73 22.06 -31.73 34.7 -46.31 c 14.14 -15.84 29.14 -31 45.75 -44.27 c 10.98 -9.14 23.34 -16.47 36.09 -22.84 C 279.17 436.74 284.08 433.77 288.22 429.87 z" stroke-linecap="round" />
</g>
		<g transform="matrix(1 0 0 1 169.71 199.1)" id="Layer_1"  >
<path style="stroke: rgb(218,218,218); stroke-width: 0.3; stroke-dasharray: none; stroke-linecap: butt; stroke-dashoffset: 0; stroke-linejoin: miter; stroke-miterlimit: 4; fill: rgb(218,218,218); fill-rule: nonzero; opacity: 1;"  transform=" translate(-809.71, -696.6)" d="M 861.45 465.37 c 2.2 -5.6 7.64 -9.42 13.48 -10.38 c 21.38 -0.4 42.91 -0.02 64.03 3.65 c 27.74 4.7 54.85 12.4 82.03 19.55 c 41.22 10.81 81.87 23.82 121.54 39.39 c 20.23 8.06 40.5399 15.95 60.71 24.19 c 5.5601 2.81 2.65 9.92 2.72 14.81 c -3.36 -1.32 -6.0399 -3.89 -9.46 -5.07 c -16.39 -7.7 -32.91 -15.21 -50.11 -20.93 c -23.36 -8.04 -47.53 -13.31 -71.41 -19.51 c -34.9299 -8.69 -69.51 -18.84 -104.73 -26.33 c -22.19 -4.29 -44.67 -7.33 -67.28 -7.88 c -2.5699 0.15 -6.39 -0.48 -7.4 2.66 c -2.17 5.43 -3.95 11.02 -5.6 16.63 c -5.95 13.71 -12.02 27.38 -17.5699 41.25 c -5.92 16.16 -9.76 32.97 -14.4301 49.5099 c -6.77 27.4 -13.96 54.71 -19.71 82.35 c -6.13 28.01 -11.47 56.19 -17.77 84.16 c -5.73 25.57 -10.69 51.3 -14.94 77.15 c -2.77 18.76 -6.22 37.5 -6.82 56.51 c -0.29 7.06 -1.33 14.05 -2.5 21.01 c -0.84 8.93 -1.22 17.92 -1.31 26.89 c 0.45 3.84 -4.48 2.91 -6.9 3.29 c -70.01 0.13 -140.02 0 -210.03 0.07 c -16.66 -0.55 -33.33 -0.28 -50 -0.34 c -14 0.16 -27.99 -0.57 -41.99 -0.32 c -22.29 0.3 -44.56 -1.06 -66.84 -0.49 c -2.73 -6.12 -7.05 -12.17 -6.32 -19.24 c 0.58 -2.11 2.69 -4.27 5.09 -3.81 c 27.35 0.36 54.71 0.2 82.07 0.23 c 32 -0.02 63.99 0.48 96 0.3 c 56.9 0.3 113.81 0.23 170.72 0.19 c 1.02 2.6 2.8701 4.72 5.16 6.32 c 4.23 3.08 7.77 7.01 12.04 10.05 c -2.55 -7.17 -8.73 -12.36 -14.87 -16.45 c -0.19 -5.66 1.54 -11.08 1.67 -16.71 c 1.36 -14.01 1.58 -28.09 2.6201 -42.12 c 1.81 -30.23 7.91 -59.95 13.15 -89.72 c 5.18 -27.8 9.93 -55.67 15.32 -83.43 c 6.3 -31.44 13.36 -62.73 20.9 -93.89 c 7.29 -32.3 15.09 -64.61 26.62 -95.7 C 852.98 483.77 857.32 474.61 861.45 465.37 M 873.1 461.27 c -1.86 2.89 1.38 4.83 3.11 6.73 c -7.07 10.42 -10.38 22.82 -12.07 35.16 c 0.36 -0.16 1.08 -0.48 1.43 -0.64 c 2.97 -9.02 6.53 -17.86 10.44 -26.51 c 0.94 -1.65 1.41 -3.78 3.01 -4.92 c 2.55 1.41 4.9 3.67 8.08 3.07 c -2.36 -5.36 -7.61 -8.58 -11.49 -12.76 C 874.99 461.37 873.73 461.3 873.1 461.27 z" stroke-linecap="round" />
</g>
		<g transform="matrix(1 0 0 1 235.62 -15.29)" id="Layer_1"  >
<path style="stroke: rgb(169,169,169); stroke-width: 0.3; stroke-dasharray: none; stroke-linecap: butt; stroke-dashoffset: 0; stroke-linejoin: miter; stroke-miterlimit: 4; fill: rgb(169,169,169); fill-rule: nonzero; opacity: 1;"  transform=" translate(-875.62, -482.21)" d="M 873.1 461.27 c 0.63 0.03 1.89 0.1 2.51 0.13 c 3.88 4.18 9.13 7.4 11.49 12.76 c -3.18 0.6 -5.53 -1.66 -8.08 -3.07 c -1.6 1.14 -2.07 3.27 -3.01 4.92 c -3.91 8.65 -7.47 17.49 -10.44 26.51 c -0.35 0.16 -1.07 0.48 -1.43 0.64 c 1.69 -12.34 5 -24.74 12.07 -35.16 C 874.48 466.1 871.24 464.16 873.1 461.27 z" stroke-linecap="round" />
</g>
		<g transform="matrix(1 0 0 1 407.97 24.96)" id="Layer_1"  >
<path style="stroke: rgb(185,185,185); stroke-width: 0.3; stroke-dasharray: none; stroke-linecap: butt; stroke-dashoffset: 0; stroke-linejoin: miter; stroke-miterlimit: 4; fill: rgb(185,185,185); fill-rule: nonzero; opacity: 1;"  transform=" translate(-1047.97, -522.46)" d="M 895.57 479.52 c 1.01 -3.14 4.83 -2.51 7.4 -2.66 c 22.61 0.55 45.09 3.59 67.28 7.88 c 35.22 7.49 69.8 17.64 104.73 26.33 c 23.88 6.2 48.05 11.47 71.41 19.51 c 17.2 5.72 33.72 13.23 50.11 20.93 c 3.42 1.18 6.1 3.75 9.46 5.07 c -0.38 3.48 -0.26 7.01 -0.74 10.49 c -0.58 0.25 -1.73 0.74 -2.2999 0.99 c -3.7001 -1.84 -7.01 -4.34 -10.66 -6.26 c -36.3101 -15.37 -74.03 -27.2 -112.25 -36.77 c -24.6801 -6.22 -49.49 -11.86 -74.25 -17.74 c -29.09 -6.65 -58.28 -13.09 -87.87 -17.03 c -6.59 -0.07 -13.16 -2.04 -19.73 -1.1 c -4.0099 0.5 -5.09 5.03 -8.19 6.99 C 891.62 490.54 893.4 484.95 895.57 479.52 z" stroke-linecap="round" />
</g>
		<g transform="matrix(1 0 0 1 172.19 226.1)" id="Layer_1"  >
<path style="stroke: rgb(170,170,170); stroke-width: 0.3; stroke-dasharray: none; stroke-linecap: butt; stroke-dashoffset: 0; stroke-linejoin: miter; stroke-miterlimit: 4; fill: rgb(170,170,170); fill-rule: nonzero; opacity: 1;"  transform=" translate(-812.19, -723.6)" d="M 889.97 496.15 c 3.1 -1.96 4.1801 -6.49 8.19 -6.99 c 6.57 -0.94 13.14 1.03 19.73 1.1 c 29.59 3.94 58.78 10.38 87.87 17.03 c 24.76 5.88 49.5699 11.52 74.25 17.74 c 38.22 9.5699 75.9399 21.4 112.25 36.77 c 3.65 1.92 6.96 4.42 10.66 6.26 c 0.5699 -0.25 1.72 -0.74 2.2999 -0.99 c -0.5499 5.37 -1.45 10.76 -3.5 15.78 c -7.96 -3.6 -16.37 -6.0699 -24.61 -8.92 c -42.7999 -14.24 -85.5 -28.86 -128.91 -41.14 C 1024.92 526.24 1001.4 520.53 977.82 515.16 c -17.35 -4.07 -35.02 -6.44 -52.56 -9.45 c -4.25 -0.64 -8.59 -2.27 -12.9 -1.37 c -3.55 2.71 -7.05 5.95 -8.94 10.07 c -8.27 25.6201 -17.65 50.89 -25.25 76.73 c -13.59 44.24 -24.1 89.39 -32.07 134.97 c -2.49 12.44 -3.3 25.17 -6.49 37.48 c -8.04 43.92 -16.33 87.84 -21.95 132.16 c -1.66 11.24 -2.45 22.59 -4.16 33.82 c -1.19 7.15 0.55 14.31 0.56 21.49 c -0.17 2.16 1.55 3.66 2.78 5.21 c 2.49 -0.04 5 0.08 7.47 0.53 c -11.43 -0.01 -22.88 0.43 -34.27 -0.57 c -10.7 0.33 -21.35 -0.57 -32.04 -0.39 c -19.33 0 -38.67 0 -58 0 c -9.01 -0.3 -17.99 0.62 -27 0.4 c -27 0.09 -54.01 -0.24 -81 0.29 c -30.36 -0.11 -60.68 0.96 -91.04 0.8199 c -15.31 0.69 -30.65 -0.0099 -45.96 0.48 c -8.94 -0.38 -17.91 1.09 -26.81 0.14 c -3.95 -2.5 -3.78 -7.61 -5.82 -11.34 c -1.61 -2.95 -2.95 -6.06 -3.21 -9.44 c 22.28 -0.57 44.55 0.79 66.84 0.49 c 14 -0.25 27.99 0.48 41.99 0.32 c 16.67 0.06 33.34 -0.21 50 0.34 c 70.01 -0.07 140.02 0.06 210.03 -0.07 c 2.42 -0.38 7.35 0.55 6.9 -3.29 c 0.09 -8.97 0.47 -17.96 1.31 -26.89 c 1.17 -6.96 2.21 -13.95 2.5 -21.01 c 0.6 -19.01 4.05 -37.75 6.82 -56.51 c 4.25 -25.85 9.21 -51.58 14.94 -77.15 c 6.3 -27.97 11.64 -56.15 17.77 -84.16 c 5.75 -27.64 12.94 -54.95 19.71 -82.35 c 4.67 -16.54 8.51 -33.35 14.4301 -49.5099 C 877.95 523.53 884.02 509.86 889.97 496.15 z" stroke-linecap="round" />
</g>
		<g transform="matrix(1 0 0 1 -221.65 91.19)" id="Layer_1"  >
<path style="stroke: rgb(247,72,46); stroke-width: 0.3; stroke-dasharray: none; stroke-linecap: butt; stroke-dashoffset: 0; stroke-linejoin: miter; stroke-miterlimit: 4; fill: rgb(247,72,46); fill-rule: nonzero; opacity: 1;"  transform=" translate(-418.35, -588.69)" d="M 429.79 495.82 c 0.91 -1.58 2.63 -2.11 4.28 -2.57 c 2.68 12.84 4.38 25.86 6.8 38.75 c 0.62 4.82 1.66 10.33 -1.31 14.62 c -4.39 6.81 -9.29 13.3 -14.03 19.86 c -0.5 2.38 -0.09 4.82 0.09 7.22 c 0.67 6.41 0.33 12.88 1.11 19.29 c 1.13 8.49 1.94 17.01 3.8 25.39 c -2.04 7.57 -4.99 14.84 -8.06 22.04 c -6.87 15.03 -13.83 30.15 -23.34 43.72 c -1.4 -6.97 -1.07 -14.09 -1.14 -21.14 c -0.32 -9 0.07 -18.02 -0.76 -26.99 c -0.4 -5.6 -1.78 -11.07 -2.09 -16.67 c 1.19 -1.61 2.22 -3.33 2.95 -5.19 c 3.7 -9.19 7.58 -18.31 11.68 -27.32 c 1.73 -6.32 4.43 -12.39 5.63 -18.83 c 0.86 -4.35 -3.01 -7.29 -4.56 -10.93 c -2.31 -5.1 -4.1 -10.41 -6.35 -15.54 c -0.94 -3.3 -3.14 -7.4301 -0.3 -10.39 C 413.03 519.59 421.41 507.7 429.79 495.82 z" stroke-linecap="round" />
</g>
		<g transform="matrix(1 0 0 1 367.4 239.43)" id="Layer_1"  >
<path style="stroke: rgb(196,196,196); stroke-width: 0.3; stroke-dasharray: none; stroke-linecap: butt; stroke-dashoffset: 0; stroke-linejoin: miter; stroke-miterlimit: 4; fill: rgb(196,196,196); fill-rule: nonzero; opacity: 1;"  transform=" translate(-1007.4, -736.93)" d="M 912.36 504.34 c 4.31 -0.9 8.65 0.73 12.9 1.37 c 17.54 3.01 35.21 5.38 52.56 9.45 c 23.58 5.3701 47.1 11.08 70.3799 17.63 c 43.41 12.28 86.1101 26.9 128.91 41.14 c 8.24 2.85 16.65 5.32 24.61 8.92 c -0.52 3.15 -1.2 6.33 -2.6899 9.1801 c -9.7101 19.83 -16.8301 40.75 -24.5901 61.3799 c -7.45 20.57 -15.09 41.07 -22.22 61.75 c -13.8099 40.82 -27.09 81.83 -40.12 122.91 c -9.59 30.27 -18.8199 60.68 -26.28 91.55 c -1.2799 4.63 -1.3899 9.51 -3.0499 14.05 c -2.3101 6.83 -3.4301 13.98 -5.13 20.98 c -0.85 1.72 -2.46 3.73 -4.61 3.52 c -11.03 0.05 -22.0701 0.08 -33.0701 0.83 c -10.52 1.56 -21.16 0.43 -31.71 -0.18 c -52.24 -2.03 -104.37 -5.97 -156.53 -9.58 c -9.1299 -0.87 -18.34 -1.06 -27.41 -2.44 c -2.47 -0.45 -4.98 -0.57 -7.47 -0.53 c -1.23 -1.55 -2.95 -3.05 -2.78 -5.21 c -0.01 -7.18 -1.75 -14.34 -0.56 -21.49 c 1.71 -11.23 2.5 -22.58 4.16 -33.82 c 5.6201 -44.32 13.91 -88.24 21.95 -132.16 c 3.19 -12.31 4 -25.04 6.49 -37.48 c 7.97 -45.58 18.48 -90.73 32.07 -134.97 c 7.6 -25.84 16.98 -51.11 25.25 -76.73 C 905.31 510.29 908.81 507.05 912.36 504.34 z" stroke-linecap="round" />
</g>
		<g transform="matrix(1 0 0 1 -142.05 307.21)" id="Layer_1"  >
<path style="stroke: rgb(248,197,176); stroke-width: 0.3; stroke-dasharray: none; stroke-linecap: butt; stroke-dashoffset: 0; stroke-linejoin: miter; stroke-miterlimit: 4; fill: rgb(248,197,176); fill-rule: nonzero; opacity: 1;"  transform=" translate(-497.95, -804.71)" d="M 451.14 733.18 c 19.93 -6.38 40.86 -10.48 61.87 -9.4 c 1.42 -0.1201 2.47 0.93 3.38 1.8799 c 7.34 8.65 14.19 17.75 20.03 27.5 c 4.83 9.14 10.29 17.98 16.64 26.16 c 4.26 6.87 8.82 13.55 13.42 20.19 c 2.75 4.91 5.43 9.86 8.18 14.79 c 5.79 10.47 9.11 22.5 8.3 34.51 c -0.22 3.57 0.21 7.21 -0.53 10.74 c -2.51 5.41 -6.72 9.83 -10.87 14.04 c -2.17 2.45 -5.57 2.93 -8.12 4.85 c -3.84 2.49 -7.08 6.29 -11.8 7.11 c -6.21 0.75 -12.45 -0.14 -18.44 -1.79 c -2.39 -0.9 -4.55 -2.45 -7.12 -2.8 c -8.87 -0.81 -17.93 0.44 -26.67 -1.59 c -16.31 -4.51 -33.01 -8.13 -48.36 -15.46 c -7.99 -3.85 -16.89 -5.73 -24.36 -10.65 c -3.03 -1.99 -6.23 -3.76 -9.71 -4.81 c -1.48 -1.49 -2.92 -3.17 -3.21 -5.31 c -1.52 -7.62 -0.72 -15.44 -0.91 -23.14 c -0.33 -21.12 2.15 -42.56 9.72 -62.39 c 1.43 -3.88 2.41 -7.96 4.33 -11.64 c 1.19 -2.53 3.89 -3.66 6.26 -4.8 l 0.76 -0.34 C 439.53 737.98 445.25 735.36 451.14 733.18 z" stroke-linecap="round" />
</g>
		<g transform="matrix(1 0 0 1 20.84 311.07)" id="Layer_1"  >
<path style="stroke: rgb(248,197,176); stroke-width: 0.3; stroke-dasharray: none; stroke-linecap: butt; stroke-dashoffset: 0; stroke-linejoin: miter; stroke-miterlimit: 4; fill: rgb(248,197,176); fill-rule: nonzero; opacity: 1;"  transform=" translate(-660.84, -808.57)" d="M 639.78 730.75 c 11.72 -4.62 24.86 -4.25 37.03 -1.75 c 11.71 5.17 21.52 13.71 30.21 22.97 c 6.09 6.33 11.69 13.1201 16.54 20.45 c 2.51 3.83 5.81 7.68 5.9 12.5 c 0.15 3.61 0.72 7.3 -0.08 10.87 c -3.35 10.71 -8.27 20.89 -14.19 30.41 c -12.84 21.92 -29.68 41.87 -50.76 56.26 c -6.99 4.89 -15.51 8.48 -24.2 7.27 c -5.92 -4.27 -11.33 -9.48 -15.3 -15.68 c -5.06 -6.44 -5.12 -15.01 -6.25 -22.72 c -2.12 -4.52 -7.54 -3.57 -11.59 -3.32 c -1.9 -3.25 -3.77 -6.55 -4.9 -10.16 c -7.22 -24.52 -11.55 -50.17 -9.99 -75.78 c 0.6 -3.2 1.87 -6.23 3.09 -9.23 c 1.65 -2.19 3.77 -4.13 6.3 -5.25 c 8.21 -3.79 16.6299 -7.11 24.61 -11.3701 C 630.51 733.89 635.03 731.96 639.78 730.75 z" stroke-linecap="round" />
</g>
		<g transform="matrix(1 0 0 1 -245.28 297.23)" id="Layer_1"  >
<path style="stroke: rgb(255,255,255); stroke-width: 0.3; stroke-dasharray: none; stroke-linecap: butt; stroke-dashoffset: 0; stroke-linejoin: miter; stroke-miterlimit: 4; fill: rgb(255,255,255); fill-rule: nonzero; opacity: 1;"  transform=" translate(-394.72, -794.73)" d="M 372.44 743.25 c 11.18 -2.05 22.86 0.09 34.03 -2.25 l 0.01 0.6 c 8.9 -0.12 17.8 0.03 26.69 -0.43 c -2.37 1.14 -5.07 2.27 -6.26 4.8 c -1.92 3.6801 -2.9 7.76 -4.33 11.64 c -7.57 19.83 -10.05 41.27 -9.72 62.39 c 0.19 7.7 -0.61 15.52 0.91 23.14 c 0.29 2.14 1.73 3.82 3.21 5.31 c -7.05 0.12 -14.01 -1.14 -20.91 -2.36 c -11.01 -0.4901 -22.05 0.12 -33.05 -0.26 c -2.48 0.09 -3.88 -2.44 -4.32 -4.54 c -1.56 -7.32 -2.55 -14.8 -2.43 -22.3 c 0.2 -11.41 -0.67 -22.95 1.55 -34.23 c 1.98 -9.15 2.81 -18.67 6.52 -27.35 C 366.46 752.44 367.92 746.66 372.44 743.25 z" stroke-linecap="round" />
</g>
		<g transform="matrix(1 0 0 1 -93.26 268.47)" id="Layer_1"  >
<path style="stroke: rgb(139,139,139); stroke-width: 0.3; stroke-dasharray: none; stroke-linecap: butt; stroke-dashoffset: 0; stroke-linejoin: miter; stroke-miterlimit: 4; fill: rgb(139,139,139); fill-rule: nonzero; opacity: 1;"  transform=" translate(-546.74, -765.97)" d="M 536.42 753.16 c 6.82 -0.97 13.77 -0.36 20.65 -0.27 c -5.68 7.56 -2.78 17.71 -4.01 26.43 C 546.71 771.14 541.25 762.3 536.42 753.16 z" stroke-linecap="round" />
</g>
		<g transform="matrix(1 0 0 1 -59.92 303.2)" id="Layer_1"  >
<path style="stroke: rgb(255,255,255); stroke-width: 0.3; stroke-dasharray: none; stroke-linecap: butt; stroke-dashoffset: 0; stroke-linejoin: miter; stroke-miterlimit: 4; fill: rgb(255,255,255); fill-rule: nonzero; opacity: 1;"  transform=" translate(-580.08, -800.7)" d="M 557.07 752.89 c 8.27 -0.79 16.61 0.41 24.91 0.3 c 4.41 -0.51 8.87 -0.84 13.31 -0.35 c -1.22 3 -2.49 6.03 -3.09 9.23 c -1.56 25.61 2.77 51.26 9.99 75.78 c 1.13 3.61 3 6.91 4.9 10.16 c -8 1.26 -16.09 0.41 -24.13 0.8 c 0.81 -12.01 -2.51 -24.04 -8.3 -34.51 c -2.75 -4.93 -5.43 -9.88 -8.18 -14.79 c -4.6 -6.64 -9.16 -13.32 -13.42 -20.19 C 554.29 770.6 551.39 760.45 557.07 752.89 z" stroke-linecap="round" />
</g>
		<g transform="matrix(1 0 0 1 135.32 425.5)" id="Layer_1"  >
<path style="stroke: rgb(168,168,168); stroke-width: 0.3; stroke-dasharray: none; stroke-linecap: butt; stroke-dashoffset: 0; stroke-linejoin: miter; stroke-miterlimit: 4; fill: rgb(168,168,168); fill-rule: nonzero; opacity: 1;"  transform=" translate(-775.32, -923)" d="M 766.72 914.86 c 0.58 -0.02 1.75 -0.06 2.33 -0.08 c 6.14 4.09 12.32 9.28 14.87 16.45 c -4.27 -3.04 -7.81 -6.97 -12.04 -10.05 C 769.59 919.58 767.74 917.46 766.72 914.86 z" stroke-linecap="round" />
</g>
</g>
</g>
</svg>