<?xml version="1.0" encoding="UTF-8" standalone="no" ?>
<!DOCTYPE svg PUBLIC "-//W3C//DTD SVG 1.1//EN" "http://www.w3.org/Graphics/SVG/1.1/DTD/svg11.dtd">
<svg xmlns="http://www.w3.org/2000/svg" xmlns:xlink="http://www.w3.org/1999/xlink" version="1.1" width="400" height="400" viewBox="0 0 400 400" xml:space="preserve">
<desc>Created with Fabric.js 3.6.3</desc>
<defs>
</defs>
<rect x="0" y="0" width="100%" height="100%" fill="rgba(255, 255, 255, 1)"></rect>
<g transform="matrix(1 0 0 1 200 249.24)" style=""  >
		<text xml:space="preserve" font-family="'Open Sans', sans-serif" font-size="18" font-style="normal" font-weight="normal" style="stroke: none; stroke-width: 1; stroke-dasharray: none; stroke-linecap: butt; stroke-dashoffset: 0; stroke-linejoin: miter; stroke-miterlimit: 4; fill: rgb(0,0,0); fill-rule: nonzero; opacity: 1; white-space: pre;" ><tspan x="-108.5" y="5.97" style="font-size: 19px; font-weight: bold; ">Your Company Name</tspan></text>
</g>
<g transform="matrix(1 0 0 1 228.48 281.67)" style=""  >
		<text xml:space="preserve" font-family="'Open Sans', sans-serif" font-size="18" font-style="normal" font-weight="normal" style="stroke: none; stroke-width: 1; stroke-dasharray: none; stroke-linecap: butt; stroke-dashoffset: 0; stroke-linejoin: miter; stroke-miterlimit: 4; fill: rgb(0,0,0); fill-rule: nonzero; opacity: 1; white-space: pre;" ><tspan x="-81.99" y="5.65" >slogan here</tspan></text>
</g>
<g transform="matrix(0.8 0 0 0.88 190.25 162.69)"  >
<g style=""   >
		<g transform="matrix(1 0 0 1 18.19 56.82)" id="path3347-0"  >
<path style="stroke: rgb(0,0,0); stroke-width: 0.93736; stroke-dasharray: none; stroke-linecap: butt; stroke-dashoffset: 0; stroke-linejoin: miter; stroke-miterlimit: 4; fill: rgb(0,0,0); fill-rule: nonzero; opacity: 1;"  transform=" translate(-214.9, -437.07)" d="m 278.21 418.66 c -5.816 4.1449 -12.187 7.4652 -18.752 10.279 c -7.935 3.4002 -16.18 6.0875 -24.622 7.895 c -10.157 2.1748 -20.549 3.0715 -30.932 3.3482 c -7.5669 0.20145 -15.15 0.0792 -22.693 -0.55116 c -5.2545 -0.43904 -10.496 -1.1281 -15.68 -2.0943 c -4.6809 -0.87246 -9.3168 -1.9763 -13.889 -3.3068 c -0.42072 3.0173 -0.0966 6.1403 0.92317 9.011 c 1.3348 3.7578 3.9146 7.0903 7.3301 9.1488 c 3.9068 2.3547 8.6121 2.943 13.172 3.0588 c 6.7131 0.1704 13.425 -0.55957 20.061 -1.5845 c 7.6234 -1.1773 15.182 -2.7536 22.624 -4.7811 c 8.125 -2.2134 16.107 -4.9612 23.864 -8.2395 c 13.737 -5.8057 26.776 -13.268 38.731 -22.183 h -0.13789 z" stroke-linecap="round" />
</g>
		<g transform="matrix(1 0 0 1 -62.05 -28.25)" id="path4231"  >
<path style="stroke: rgb(255,255,255); stroke-width: 1.5158; stroke-dasharray: none; stroke-linecap: butt; stroke-dashoffset: 0; stroke-linejoin: miter; stroke-miterlimit: 4; fill: rgb(0,0,0); fill-rule: nonzero; opacity: 1;"  transform=" translate(-134.66, -352)" d="m 121 372.12 c -2.0091 0.0887 -4.0059 0.4517 -5.9176 1.0759 c -1.6814 0.549 -3.2929 1.2976 -4.8417 2.1519 c -2.1572 1.1899 -4.195 2.5846 -6.1866 4.0348 c -2.011 1.4643 -4.0179 3.0289 -5.3797 5.1107 c -0.44139 0.67474 -0.81184 1.4028 -1.022 2.1812 c -0.21011 0.77843 -0.25499 1.6106 -0.05399 2.3915 c 0.2946 1.1444 1.096 2.1047 2.0345 2.8227 c 0.93852 0.71808 2.0174 1.2252 3.0762 1.75 c 1.3304 0.65947 2.6462 1.3569 4.0348 1.8829 c 2.2414 0.8491 4.6268 1.2351 6.9935 1.6139 c 2.1464 0.3435 4.3905 0.67846 6.4556 0 c 2.1543 -0.70777 3.8247 -2.436 5.1107 -4.3037 c 1.2362 -1.7955 2.2088 -3.7914 2.6898 -5.9176 c 0.27889 -1.2327 0.39103 -2.5078 0.26901 -3.7658 c -0.13486 -1.3902 -0.55256 -2.7397 -1.0759 -4.0348 c -0.64738 -1.6018 -1.46 -3.1368 -2.4209 -4.5727 v -1.6139 l 28.243 -33.354 l 6.7246 1.6139 c 1.0391 -0.18192 2.0456 -0.54795 2.9588 -1.0759 c 1.7119 -0.98977 3.0466 -2.5084 4.3038 -4.0348 c 0.5704 -0.69254 1.1331 -1.3944 1.6139 -2.1518 c 1.2839 -2.0229 1.9432 -4.3767 2.4208 -6.7246 c 0.57583 -2.8306 0.9127 -5.7208 0.80696 -8.6075 c -0.0633 -1.7287 -0.28742 -3.4606 -0.80696 -5.1107 c -0.54384 -1.7272 -1.4048 -3.3428 -2.4208 -4.8417 c -0.33214 -0.49002 -0.68478 -0.97259 -1.1253 -1.368 c -0.44052 -0.39545 -0.97826 -0.70191 -1.5645 -0.78381 c -0.59451 -0.0831 -1.2035 0.0695 -1.7428 0.33326 c -0.53925 0.26372 -1.0182 0.63437 -1.485 1.0117 c -1.7795 1.438 -3.4555 3.0214 -4.8417 4.8417 c -1.1227 1.4743 -2.0511 3.1021 -2.6898 4.8417 c -0.54084 1.4729 -0.87164 3.017 -1.0759 4.5727 c -0.32775 2.496 -0.33284 5.0224 -0.53798 7.5315 c -0.15508 1.8968 -0.42472 3.7843 -0.80694 5.6486 l -31.74 36.851" stroke-linecap="round" />
</g>
		<g transform="matrix(1 0 0 1 27.2 31.71)" id="path3343-4-8"  >
<path style="stroke: rgb(0,0,0); stroke-width: 1.0342; stroke-dasharray: none; stroke-linecap: butt; stroke-dashoffset: 0; stroke-linejoin: miter; stroke-miterlimit: 4; fill: rgb(255,255,255); fill-rule: nonzero; opacity: 1;"  transform=" translate(-223.91, -411.95)" d="m 151.64 434.23 c 4.5718 1.3305 9.2095 2.4347 13.89 3.3072 c 5.1835 0.96617 10.419 1.648 15.673 2.087 c 7.5433 0.6303 15.124 0.76033 22.69 0.55876 c 10.384 -0.2766 20.779 -1.1817 30.936 -3.3566 c 8.4415 -1.8075 16.69 -4.4878 24.625 -7.888 c 6.7261 -2.8821 13.252 -6.2955 19.182 -10.583 c 4.6919 -3.3925 9.0088 -7.3389 12.567 -11.906 c 1.7598 -2.2585 3.3491 -4.7015 4.2234 -7.4279 c 0.52078 -1.624 0.77983 -3.3315 0.76413 -5.0369 l -2.8432 -2.5884 c -4.823 -3.9021 -10.706 -6.4806 -16.844 -7.3826 c -5.123 -0.75285 -10.377 -0.35107 -15.423 0.81346 c -3.6732 0.84781 -7.2561 2.0988 -10.636 3.7673 c -8.1335 4.0145 -14.883 10.316 -21.348 16.678 c -6.465 6.3619 -12.859 12.943 -20.574 17.713 c -7.6884 4.7538 -16.416 7.5364 -25.135 9.9217 c -2.8388 0.7766 -5.693 1.5172 -8.5988 1.9843 c -3.2766 0.52675 -6.6033 0.70278 -9.9217 0.66145 c -4.4369 -0.0553 -8.8689 -0.49846 -13.229 -1.3229" stroke-linecap="round" />
</g>
		<g transform="matrix(1 0 0 1 -9.29 -10.24)" id="path3454"  >
<path style="stroke: rgb(255,255,255); stroke-width: 1.4253; stroke-dasharray: none; stroke-linecap: butt; stroke-dashoffset: 0; stroke-linejoin: miter; stroke-miterlimit: 4; fill: rgb(0,0,0); fill-rule: nonzero; opacity: 1;"  transform=" translate(-187.43, -370.01)" d="m 252.58 400.52 c 0.93205 -1.4523 1.6088 -3.068 1.9899 -4.7511 c 0.42208 -1.8638 0.48062 -3.8093 0.17138 -5.6952 c -0.67333 -2.8506 -1.6407 -5.6318 -2.8817 -8.2849 c -3.0295 -6.4768 -7.6195 -12.073 -12.093 -17.65 c -5.5661 -6.9396 -11.047 -13.99 -17.444 -20.172 c -3.9828 -3.8491 -8.296 -7.3374 -12.573 -10.857 c -2.4783 -2.0398 -4.9951 -4.1219 -7.9596 -5.3524 c -2.0862 -0.86593 -4.3569 -1.2842 -6.6147 -1.2184 c 0.22219 -1.3769 0.31138 -2.7753 0.26595 -4.1692 c -0.0673 -2.0653 -0.42985 -4.1152 -0.98976 -6.1042 c -0.50176 -1.7825 -1.1651 -3.526 -2.0748 -5.139 c -1.0221 -1.8123 -2.3882 -3.4805 -4.179 -4.54 c -1.4535 -0.85993 -3.146 -1.2882 -4.8346 -1.3118 c -2.3105 -0.0322 -4.5586 0.66738 -6.7968 1.2419 c -2.0017 0.51378 -4.0821 0.95513 -5.7896 2.1193 c -1.2934 0.88181 -2.3127 2.1598 -2.8848 3.6169 c -0.42779 0.91245 -0.78242 1.8592 -1.0594 2.8281 c -0.33009 1.1548 -0.55044 2.3496 -0.53233 3.5506 c 0.0271 1.7999 0.58747 3.572 0.49747 5.3698 c -0.0542 1.0832 -0.34321 2.139 -0.5316 3.2071 c -0.0792 0.44915 -0.14087 0.90741 -0.088 1.3604 c 0.0529 0.453 0.2311 0.90528 0.56804 1.2127 c 0.32071 0.29258 0.75149 0.42876 1.1724 0.53489 c 0.42095 0.10612 0.85558 0.19383 1.2292 0.41485 c 0.47459 0.28073 0.80944 0.75679 1.0156 1.2682 c 0.20614 0.51142 0.2953 1.0614 0.37372 1.6071 c 0.10455 0.72765 0.19469 1.4659 0.45888 2.1519 c 0.13209 0.343 0.30788 0.6711 0.53975 0.9563 c 0.23186 0.2852 0.52115 0.52684 0.854 0.68276 c 0.36291 0.17001 0.76798 0.23447 1.1687 0.2415 c 0.4007 0.007 0.80004 -0.0414 1.1981 -0.0875 c 1.9106 -0.22142 3.8271 -0.3929 5.7467 -0.51419 l -0.32607 1.1664 c -0.61551 1.2547 -1.5693 2.3414 -2.7335 3.1145 c -1.0011 0.66482 -2.1463 1.0956 -3.3219 1.3454 c -3.715 0.7894 -7.5416 -0.20426 -11.321 -0.58319 c -1.3066 -0.13102 -2.6403 -0.19228 -3.8767 -0.63472 c -1.6036 -0.57385 -2.9112 -1.7387 -4.2364 -2.8086 s -2.7879 -2.1018 -4.477 -2.32 c -0.98918 -0.12782 -2.0317 0.0471 -2.8748 0.57996 c -1.01 0.63833 -1.6461 1.7084 -2.3656 2.6622 c -0.70672 0.93686 -1.545 1.8308 -1.8573 2.962 c -0.22181 0.80336 -0.14424 1.7002 0.28116 2.4169 c 0.30362 0.51151 0.76971 0.91492 1.2915 1.2005 c 0.5218 0.28558 1.0988 0.45855 1.6825 0.5731 c 2.2168 0.43504 4.5005 0.046 6.7591 0 c 2.9594 -0.0603 5.9298 0.47983 8.6786 1.5781 c -3.4559 2.0249 -6.8753 4.1121 -10.256 6.2602 c -5.1048 3.2436 -10.292 6.6978 -16.229 7.8564 c -2.1885 0.42714 -4.5063 0.51924 -6.603 -0.2396 c -0.62084 -0.2247 -1.2142 -0.52101 -1.838 -0.73729 c -0.62382 -0.21629 -1.2942 -0.35167 -1.9448 -0.23899 c -0.84442 0.14626 -1.5749 0.70138 -2.1014 1.3775 c -0.52655 0.67615 -0.87487 1.4711 -1.2075 2.2609 c -0.60117 1.4274 -1.1692 2.8688 -1.7034 4.3226 c 0.42355 0.88173 1.0865 1.647 1.8988 2.192 c 1.0335 0.69334 2.2836 1.0195 3.5269 1.0755 s 2.4855 -0.1465 3.6948 -0.44079 c 2.893 -0.70406 5.6307 -1.9289 8.4737 -2.8135 c 5.2224 -1.6249 10.743 -2.0858 16.003 -3.5847 c 3.7968 -1.082 7.4024 -2.7354 10.962 -4.4431 l 8.0438 -3.8592 c 2.4891 0.20935 4.9846 0.34318 7.4819 0.40124 c 2.2508 0.0523 4.5148 0.0422 6.7363 -0.32328 c 1.0702 -0.17607 2.1269 -0.43426 3.1578 -0.77156 c 0.75391 2.4149 1.8488 4.723 3.2419 6.8346 c 1.7395 2.6366 3.9451 4.9647 6.4838 6.8441 l 6.143 7.2237 c -1.8335 0.47996 -3.5675 1.337 -5.0624 2.5021 c -0.59151 0.46103 -1.1491 0.97316 -1.5997 1.5726 c -0.45063 0.59947 -0.79237 1.2908 -0.92181 2.0295 c -0.14331 0.81783 -0.0227 1.663 0.21026 2.46 c 0.23292 0.79696 0.57563 1.5566 0.88783 2.3259 c 0.78825 1.9425 1.3866 3.9621 1.7836 6.0205 c -1.3317 0.46375 -2.5662 1.2045 -3.6021 2.1613 c -0.69074 0.63802 -1.2928 1.3702 -1.8011 2.1613 c -1.8564 2.8897 -2.3873 6.3992 -3.2419 9.7258 c -1.2004 4.6726 -3.1015 9.1303 -4.6828 13.688 c -0.7436 2.1433 -1.4468 4.3664 -2.8817 6.1236 c -0.74937 0.91773 -1.6846 1.683 -2.7326 2.2359 c -2.3334 -0.18687 -4.6777 -0.23833 -7.017 -0.15402 c -0.6206 0.0224 -1.2522 0.0565 -1.8347 0.27194 c -0.29122 0.10771 -0.56759 0.26101 -0.79918 0.46785 c -0.23158 0.20683 -0.41732 0.4686 -0.51597 0.76301 c -0.15706 0.46872 -0.0816 0.99923 0.1555 1.433 c 0.23715 0.43374 0.62532 0.77396 1.064 1.0019 c 0.8773 0.45587 1.9096 0.47018 2.8983 0.46426 c 3.1353 -0.0188 6.27 -0.13895 9.3975 -0.36022 l 7.6691 -2.1613 l 3.242 0.36022 h 6.844 l 10.532 -3.6878 l 3.5164 -16.484 c 1.7754 0.15438 3.5543 0.26868 5.3349 0.34279 c 2.1447 0.0893 4.339 0.11363 6.3807 -0.54906 c 2.2438 -0.72828 4.1394 -2.2308 6.2093 -3.3625 c 3.4184 -1.8689 7.2964 -2.7162 10.857 -4.297 c 2.3406 -1.0391 4.5399 -2.3958 6.5187 -4.0213 h 0.00005 v -0.00007" stroke-linecap="round" />
</g>
		<g transform="matrix(1 0 0 1 -29.47 -34.51)" id="path4237"  >
<path style="stroke: rgb(255,255,255); stroke-width: 0.93736; stroke-dasharray: none; stroke-linecap: butt; stroke-dashoffset: 0; stroke-linejoin: miter; stroke-miterlimit: 4; fill: none; fill-rule: nonzero; opacity: 1;"  transform=" translate(-167.25, -345.73)" d="m 173.69 342.74 l -12.886 5.9802" stroke-linecap="round" />
</g>
		<g transform="matrix(1 0 0 1 0.41 32.91)" id="path4241"  >
<path style="stroke: rgb(255,255,255); stroke-width: 1.0936; stroke-dasharray: none; stroke-linecap: butt; stroke-dashoffset: 0; stroke-linejoin: miter; stroke-miterlimit: 4; fill: none; fill-rule: nonzero; opacity: 1;"  transform=" translate(-197.13, -413.16)" d="m 201.02 394.14 c 0.55884 2.9603 1.1303 5.9182 1.7144 8.8735 c 0.52077 2.6349 1.0527 5.2756 1.2596 7.9536 c 0.16126 2.0869 0.12406 4.1846 0.0147 6.2749 c -0.0524 1.002 -0.12236 2.0094 -0.36445 2.9832 c -0.24209 0.97375 -0.66655 1.9202 -1.3518 2.6532 c -0.77142 0.82507 -1.8368 1.3367 -2.94 1.5792 c -1.9178 0.42146 -3.9647 0.0787 -5.8382 0.66648 c -0.98602 0.30936 -1.9017 0.88472 -2.5338 1.7023 c -0.34219 0.44262 -0.5991 0.95374 -0.7287 1.498 c -0.12961 0.54424 -0.12992 1.1215 0.0203 1.6604 c 0.15265 0.5475 0.4608 1.0507 0.87908 1.4356 c 0.41827 0.38485 0.94537 0.65012 1.5037 0.75674" stroke-linecap="round" />
</g>
		<g transform="matrix(1 0 0 1 31.23 0.85)" id="path4245"  >
<path style="stroke: rgb(255,255,255); stroke-width: 0.93736; stroke-dasharray: none; stroke-linecap: butt; stroke-dashoffset: 0; stroke-linejoin: miter; stroke-miterlimit: 4; fill: none; fill-rule: nonzero; opacity: 1;"  transform=" translate(-227.94, -381.09)" d="m 249.89 386.95 c -1.7444 -1.954 -3.7399 -3.6834 -5.922 -5.1324 c -3.2525 -2.1598 -6.8999 -3.6846 -10.66 -4.7376 c -4.7276 -1.324 -9.6529 -1.9142 -14.562 -1.8394 c -2.9757 0.0453 -5.9541 0.33466 -8.8568 0.99157 c -1.3164 0.29793 -2.6159 0.6711 -3.8898 1.1171" stroke-linecap="round" />
</g>
		<g transform="matrix(1 0 0 1 -15.49 -25.1)" id="path4249"  >
<path style="stroke: rgb(255,255,255); stroke-width: 0.93736; stroke-dasharray: none; stroke-linecap: butt; stroke-dashoffset: 0; stroke-linejoin: miter; stroke-miterlimit: 4; fill: none; fill-rule: nonzero; opacity: 1;"  transform=" translate(-181.23, -355.15)" d="m 189.94 356.64 c -0.29845 -1.0892 -0.98892 -2.0665 -1.9158 -2.7116 c -1.2662 -0.88134 -2.8995 -1.1138 -4.4299 -0.91881 c -2.0527 0.26159 -3.9382 1.2232 -5.8131 2.0988 c -1.7296 0.80779 -3.4879 1.5541 -5.2705 2.2371" stroke-linecap="round" />
</g>
		<g transform="matrix(1 0 0 1 30.3 21.68)" id="path4253"  >
<path style="stroke: rgb(255,255,255); stroke-width: 0.93736; stroke-dasharray: none; stroke-linecap: butt; stroke-dashoffset: 0; stroke-linejoin: miter; stroke-miterlimit: 4; fill: none; fill-rule: nonzero; opacity: 1;"  transform=" translate(-227.01, -401.92)" d="m 236.98 407.97 c -2.3601 0.3817 -4.835 0.0195 -6.9868 -1.0225 c -2.0142 -0.97534 -3.7047 -2.503 -5.2827 -4.0898 c -2.2025 -2.2147 -4.2607 -4.6064 -5.794 -7.3276 c -0.76284 -1.3539 -1.3917 -2.7832 -1.8745 -4.2603 c 0.52462 3.7256 0.80943 7.485 0.85207 11.247 c 0.0219 1.9327 -0.0201 3.867 -0.1704 5.794 c -0.11127 1.4264 -0.28187 2.8481 -0.51121 4.2603" stroke-linecap="round" />
</g>
		<g transform="matrix(1 0 0 1 43.25 23.57)" id="path4257"  >
<path style="stroke: rgb(255,255,255); stroke-width: 0.51709; stroke-dasharray: none; stroke-linecap: butt; stroke-dashoffset: 0; stroke-linejoin: miter; stroke-miterlimit: 4; fill: rgb(0,0,0); fill-rule: nonzero; opacity: 1;"  transform=" translate(-239.97, -403.81)" d="m 254.83 393.88 c 1.0017 0.60914 1.7748 1.5848 2.139 2.6991 c 0.37055 1.1339 0.31624 2.3925 -0.10122 3.5099 c -0.36966 0.9895 -1.0099 1.8622 -1.7638 2.6021 c -0.75386 0.7399 -1.6212 1.3542 -2.5089 1.9266 c -1.8264 1.1776 -3.7538 2.1904 -5.7023 3.1525 c -2.2008 1.0868 -4.4376 2.1132 -6.7638 2.8965 c -2.5434 0.85642 -5.1771 1.4165 -7.82 1.883 c -2.8322 0.49987 -5.6831 0.89441 -8.5454 1.1735 c -0.20142 0.0196 -0.40811 0.0383 -0.60342 -0.0147 c -0.0976 -0.0265 -0.19127 -0.0713 -0.26777 -0.1375 s -0.13519 -0.15469 -0.1583 -0.2532 c -0.0243 -0.10355 -0.008 -0.21451 0.0358 -0.31131 c 0.0441 -0.0968 0.11511 -0.1799 0.19812 -0.2464 c 0.166 -0.13302 0.37426 -0.19908 0.57691 -0.26375 c 1.7845 -0.56943 3.535 -1.2396 5.2862 -1.9043 c 4.397 -1.6691 8.8095 -3.3084 13.101 -5.2329 c 3.4957 -1.5676 6.9843 -3.38 9.591 -6.1877 c 1.4237 -1.5335 2.5526 -3.3398 3.3072 -5.2916 h -0.00012" stroke-linecap="round" />
</g>
		<g transform="matrix(1 0 0 1 6.75 48.27)" id="path2866"  >
<path style="stroke: rgb(0,0,0); stroke-width: 0.51709; stroke-dasharray: none; stroke-linecap: butt; stroke-dashoffset: 0; stroke-linejoin: miter; stroke-miterlimit: 4; fill: rgb(255,255,255); fill-rule: nonzero; opacity: 1;"  transform=" translate(-203.46, -428.52)" d="m 211.35 431.76 l -11.387 -7.8707 l -4.3874 0.0333 l 10.583 9.2269 l 5.1915 -1.3896 v 0.00005" stroke-linecap="round" />
</g>
		<g transform="matrix(1 0 0 1 -9.83 50.82)" id="path2866-4"  >
<path style="stroke: rgb(0,0,0); stroke-width: 0.51709; stroke-dasharray: none; stroke-linecap: butt; stroke-dashoffset: 0; stroke-linejoin: miter; stroke-miterlimit: 4; fill: rgb(255,255,255); fill-rule: nonzero; opacity: 1;"  transform=" translate(-186.89, -431.07)" d="m 189.52 430.54 l -4.0594 -1.799 l -3.7593 2.3364 l 10.374 2.3177 l -2.5551 -2.8552" stroke-linecap="round" />
</g>
		<g transform="matrix(1 0 0 1 53.8 12.95)" id="path2866-9"  >
<path style="stroke: rgb(0,0,0); stroke-width: 0.51709; stroke-dasharray: none; stroke-linecap: butt; stroke-dashoffset: 0; stroke-linejoin: miter; stroke-miterlimit: 4; fill: rgb(255,255,255); fill-rule: nonzero; opacity: 1;"  transform=" translate(-250.51, -393.2)" d="m 259.34 403.12 l -11.178 -18.758 l -6.4811 -4.7822 l 11.839 27.233 l 5.8196 -3.6926" stroke-linecap="round" />
</g>
		<g transform="matrix(1 0 0 1 -23.52 -59.23)" id="path13965"  >
<path style="stroke: rgb(0,0,0); stroke-width: 0.51709; stroke-dasharray: none; stroke-linecap: butt; stroke-dashoffset: 0; stroke-linejoin: miter; stroke-miterlimit: 4; fill: rgb(255,255,255); fill-rule: nonzero; opacity: 1;"  transform=" translate(-173.2, -321.01)" d="m 171.47 320.61 c 0.35693 -0.25706 0.7605 -0.44399 1.1761 -0.58805 c 0.63631 -0.22057 1.3131 -0.34375 1.9847 -0.29404 c 0.48277 0.0357 0.95877 0.161 1.3966 0.36753 c -0.12512 0.37752 -0.32633 0.72964 -0.58805 1.0291 c -0.41909 0.47952 -0.99491 0.81978 -1.6171 0.95558 c -0.56967 0.17365 -1.1693 0.24861 -1.7642 0.22052 c -0.57876 -0.0273 -1.1528 -0.15211 -1.6907 -0.36753 c 0.24863 -0.52425 0.63178 -0.98402 1.1026 -1.3231" stroke-linecap="round" />
</g>
</g>
</g>
</svg>