<?xml version="1.0" encoding="UTF-8" standalone="no" ?>
<!DOCTYPE svg PUBLIC "-//W3C//DTD SVG 1.1//EN" "http://www.w3.org/Graphics/SVG/1.1/DTD/svg11.dtd">
<svg xmlns="http://www.w3.org/2000/svg" xmlns:xlink="http://www.w3.org/1999/xlink" version="1.1" width="400" height="400" viewBox="0 0 400 400" xml:space="preserve">
<desc>Created with Fabric.js 3.6.3</desc>
<defs>
</defs>
<rect x="0" y="0" width="100%" height="100%" fill="rgba(255, 255, 255, 1)"></rect>
<g transform="matrix(1 0 0 1 200 249.24)" style=""  >
		<text xml:space="preserve" font-family="'Open Sans', sans-serif" font-size="18" font-style="normal" font-weight="normal" style="stroke: none; stroke-width: 1; stroke-dasharray: none; stroke-linecap: butt; stroke-dashoffset: 0; stroke-linejoin: miter; stroke-miterlimit: 4; fill: rgb(0,0,0); fill-rule: nonzero; opacity: 1; white-space: pre;" ><tspan x="-108.5" y="5.97" style="font-size: 19px; font-weight: bold; ">Your Company Name</tspan></text>
</g>
<g transform="matrix(1 0 0 1 228.48 281.67)" style=""  >
		<text xml:space="preserve" font-family="'Open Sans', sans-serif" font-size="18" font-style="normal" font-weight="normal" style="stroke: none; stroke-width: 1; stroke-dasharray: none; stroke-linecap: butt; stroke-dashoffset: 0; stroke-linejoin: miter; stroke-miterlimit: 4; fill: rgb(0,0,0); fill-rule: nonzero; opacity: 1; white-space: pre;" ><tspan x="-81.99" y="5.65" >slogan here</tspan></text>
</g>
<g transform="matrix(0.18 0 0 0.21 202.75 163.98)"  >
<g style=""   >
		<g transform="matrix(1 0 0 1 12.27 -46.6)" id="path3257"  >
<path style="stroke: rgb(0,0,0); stroke-width: 0.60155; stroke-dasharray: none; stroke-linecap: butt; stroke-dashoffset: 0; stroke-linejoin: miter; stroke-miterlimit: 4; fill: rgb(156,0,0); fill-rule: evenodd; opacity: 1;"  transform=" translate(-179.07, -450.09)" d="m 169.37 256.51 c -53.48 31.19 -63.15 47.17 -73.398 57.12 c -5.125 4.97 -21.759 35.57 -28.941 41.42 c -7.182 5.84 -7.186 -1.81 3.178 -26.69 c -31.269 25.81 -27.573 49.86 -49.949 65.65 c -0.661 -19.27 -19.378 1.46 5.909 -40.21 c -24.019 10.72 -49.005 67.11 -63.023 68.8 c -8.843 -2.21 15.031 -30.75 11.96 -38.06 c -7.055 9.75 -35.356 19.27 -50.604 37.74 s -17.45 45.89 -34.252 65.64 c -16.81 19.76 -63.69 74.15 -63.69 74.15 l 206.72 63.17 l 103.73 99.43 s 63.28 -45.15 86.33 -61.39 c 23.04 -16.24 59.95 -24.15 81.6 -39.01 c 21.66 -14.87 28.07 -36.68 39.73 -43.84 c -10.68 -0.43 -44.06 22.74 -49.13 17.12 c -0.95 -10.12 70.17 -40.54 79.21 -59.69 c -50.98 27.22 -27.06 9.43 -53.49 13.45 c 16.33 -19.19 50.01 -22.2 77.96 -49.88 c -31.53 12.97 -41.96 14.73 -35.66 8.39 c 6.31 -6.34 44.18 -24.99 49.77 -29.7 c 11.18 -9.42 30.74 -19.83 60.86 -64.16 c -10.48 5.24 -54.85 43.91 -79.78 40.11 c -8.6 -1.11 73.83 -64.58 103.02 -87.46 c -20.34 -1.81 -47.91 26.21 -52.39 22.23 c -6.43 -2.47 12.57 4.07 76.5 -85.28 c -78.55 70.96 -40.97 27.71 -72.77 48.58 c -11.92 4.72 26.17 -23.25 52.85 -48.62 c 26.69 -25.37 23.16 -26.44 29.96 -39.48 c -36.09 27.82 -21.36 18.39 -46.78 39.88 c -25.43 21.49 -72.21 52.21 -65.99 42.02 c -6.57 2.6 67.69 -47.37 75.75 -76.36 c -39.16 33.05 -49.76 32.31 -71.35 49.7 c -21.59 17.38 -9.3 -9.32 -23.69 2.33 c -10.6 -0.97 41.73 -29.91 37.42 -34.11 c 7.55 -16.88 37.39 -26.9 41.9 -41.05 c -6.37 6.17 -75.92 50.75 -77.53 39.67 c 20.21 -13.05 34.48 -50.04 110.43 -108.69 c -1.34 -3.19 -17.84 5.87 -40.91 20.83 c 10.93 -14.82 16.46 -24.59 12.51 -24.75 c -62.37 66.29 -109.54 84.8 -122.64 101.85 c -15.49 1.46 29.2 -57.15 36.12 -63 c -18.25 6.41 -24.99 29.44 -46.26 38.6 c -6.74 -2.01 -34.07 41.01 -37.85 33.88 c 12.54 -12.68 -21.03 2.03 -2.33 -16.98 c 18.71 -19 15.23 -26.17 51.22 -61.01 c -37.68 12.32 -88.59 75.43 -86.58 70.27 c -12.45 6.68 18.59 -32.91 42 -55.54 c 23.42 -22.63 13.95 -10.2 43.53 -41.7 c -16.21 7.75 -18.48 5.57 -46.89 29.96 c -28.41 24.4 -57.72 57.31 -54.06 47.95 c 21.08 -26.9 -29.18 9.21 49.38 -61.75 c -107.05 65.1 -93.71 76.73 -98.57 72.85 c -6.47 -2.19 25.37 -27.82 18.17 -41.5 c -24.42 25.55 -91.87 97.48 -95.4 91.77 c -10.97 -16.4 31.48 -56.17 36.19 -64.65 z" stroke-linecap="round" />
</g>
		<g transform="matrix(1 0 0 1 -34.97 -2.28)" id="path3261"  >
<radialGradient id="SVGID_radialGradient2557_472" gradientUnits="userSpaceOnUse" gradientTransform="matrix(0.95 -0.86 1.34 -0.02 -3137 1032)"  cx="516.55" cy="2032.6" r="409.11" fx="516.55" fy="2032.6">
<stop offset="0%" style="stop-color:rgb(255,0,0);stop-opacity: 1"/>
<stop offset="50%" style="stop-color:rgb(255,255,0);stop-opacity: 1"/>
<stop offset="75%" style="stop-color:rgb(255,0,0);stop-opacity: 1"/>
<stop offset="93.75%" style="stop-color:rgb(255,255,0);stop-opacity: 1"/>
<stop offset="96.875%" style="stop-color:rgb(255,140,0);stop-opacity: 0.49804"/>
<stop offset="100%" style="stop-color:rgb(255,25,0);stop-opacity: 0"/>
</radialGradient>
<path style="stroke: rgb(0,0,0); stroke-width: 0.48928; stroke-dasharray: none; stroke-linecap: butt; stroke-dashoffset: 0; stroke-linejoin: miter; stroke-miterlimit: 4; fill: url(#SVGID_radialGradient2557_472); fill-rule: evenodd; opacity: 1;"  transform=" translate(-131.83, -494.41)" d="m 7.0801 432.67 c -50.303 33.52 -57.1 45.34 -65.863 53.97 c -4.382 4.31 -15.398 26.36 -21.786 31.78 s -8.086 1.17 -2.508 -15.8 c -27.733 23.82 -18.453 36.07 -38.893 51.61 c -4.97 -10.51 -20.4 6.68 -2.58 -24.14 l 200.64 172.63 c 0.001 0 57.69 -44.24 78.74 -60.25 c 21.05 -16 58.78 -31.56 78.65 -46.38 s 21.9 -28.89 32.79 -36.4 c -11.53 3 -42.1 25.98 -48.77 24.39 c -3.25 -5.33 66.08 -43.77 71.51 -57.15 c -48.49 30.56 -26.85 13.43 -54.24 23.66 c 13.23 -15.6 48.58 -27.47 72.35 -51.32 c -30.86 16.75 -41.62 20.89 -36.28 15.45 c 5.34 -5.43 41.72 -27.26 46.66 -31.57 c 9.87 -8.62 28.48 -20.32 50.89 -54.08 c -10.05 6.08 -48.95 41.01 -76.45 46.44 c -9.45 1.98 64.66 -58.25 90.82 -79.8 c -22.15 5.15 -45.44 29.07 -51.12 28.22 c -7.41 0.57 14.35 -1.54 62.95 -70.56 c -68.31 63.22 -37.69 27.8 -67.08 49.03 c -11.7 6.22 22.84 -20.85 45.77 -43.03 c 22.92 -22.18 18.91 -21.71 23.3 -31.01 c -32.44 26.39 -18.77 16.68 -41.21 36.33 c -22.43 19.64 -65.67 50.87 -61.28 43.33 c -6.44 3.43 61.92 -46.82 64.12 -65.38 c -34.56 30.23 -46.07 33.02 -65.31 49.22 s -12.01 -2.36 -24.82 8.46 c -11.55 2.67 38.01 -29.25 32.47 -30.28 c 4.34 -11.67 34.04 -26.27 35.73 -35.5 c -5.45 5.35 -69.97 51.19 -74.14 45.51 c 18.73 -13.37 25.81 -38.25 94.05 -93.83 c -2.14 -1.37 -17.79 8.66 -39.15 23.96 c 8.42 -11.55 12.17 -18.66 7.91 -17.55 c -52.03 55.73 -98.39 80.29 -108.63 93.73 c -16.24 5.5 18.58 -40.6 24.69 -45.95 c -18.09 9.09 -20.21 23.93 -40.93 35.46 c -7.65 0.92 -27.36 33.1 -32.99 30.29 c 10.62 -10.85 -22.03 7.49 -6.24 -8.74 c 15.8 -16.22 10.49 -19.16 41.27 -49.41 c -37.57 18.25 -78.05 68.74 -77.04 65.26 c -11.84 7.48 12.59 -23.92 32.63 -43.59 c 20.03 -19.66 12.65 -9.89 37.32 -36.35 c -15.62 9.21 -18.53 8.69 -43.52 30.85 s -49.05 49.32 -47.2 43.01 c 16.59 -21.33 -29.176 13.95 39.14 -49.27 c -100.08 68.58 -83.242 71.01 -89.3 70.33 c -7.399 0.74 20.976 -23.14 10.248 -28.57 c -20.463 21.6 -76.685 81.99 -81.715 79.88 c -15.37 -5.79 21.232 -40.75 24.397 -46.89 z" stroke-linecap="round" />
</g>
		<g transform="matrix(1.04 0 0 0.96 -185.09 140.61)" id="path4270"  >
<path style="stroke: rgb(0,0,0); stroke-width: 1; stroke-dasharray: none; stroke-linecap: round; stroke-dashoffset: 0; stroke-linejoin: round; stroke-miterlimit: 4; fill: rgb(0,0,0); fill-rule: nonzero; opacity: 1;"  transform=" translate(-281.43, -413.79)" d="m 454.29 413.79 a 172.86 187.14 0 1 1 -345.72 0 a 172.86 187.14 0 1 1 345.72 0 z" stroke-linecap="round" />
</g>
		<g transform="matrix(1.04 0 0 0.96 -184.69 141.48)" id="path4272"  >
<radialGradient id="SVGID_radialGradient2559_473" gradientUnits="userSpaceOnUse" gradientTransform="matrix(1 0 0 1.08 0 -34.1)"  cx="229.15" cy="328.48" r="173.36" fx="229.15" fy="328.48">
<stop offset="0%" style="stop-color:rgb(255,255,255);stop-opacity: 1"/>
<stop offset="100%" style="stop-color:rgb(0,0,0);stop-opacity: 0"/>
</radialGradient>
<path style="stroke: rgb(0,0,0); stroke-width: 1; stroke-dasharray: none; stroke-linecap: round; stroke-dashoffset: 0; stroke-linejoin: round; stroke-miterlimit: 4; fill: url(#SVGID_radialGradient2559_473); fill-rule: nonzero; opacity: 1;"  transform=" translate(-281.43, -413.79)" d="m 454.29 413.79 a 172.86 187.14 0 1 1 -345.72 0 a 172.86 187.14 0 1 1 345.72 0 z" stroke-linecap="round" />
</g>
		<g transform="matrix(1 0 0 1 -140.31 61.51)" id="path4274"  >
<path style="stroke: rgb(0,0,0); stroke-width: 0.41974; stroke-dasharray: none; stroke-linecap: round; stroke-dashoffset: 0; stroke-linejoin: round; stroke-miterlimit: 4; fill: rgb(255,255,255); fill-rule: nonzero; opacity: 1;"  transform=" translate(868.41, 107.69)" d="m -868.41 -183.19 c -41.67 0 -75.5 33.83 -75.5 75.5 c 0 41.679 33.83 75.503 75.5 75.502 c 41.67 0 75.5 -33.823 75.5 -75.502 c 0 -41.67 -33.83 -75.5 -75.5 -75.5 z m 11.35 21.78 c 7.96 0.04 16.08 3.49 24.37 10.32 c 8.33 6.85 13.27 14.17 14.81 21.97 c 1.55 7.79 -0.43 15.03 -5.93 21.71 c -3.94 4.79 -8.62 7.72 -14.07 8.816 c -5.44 1.096 -11.07 0.272 -16.87 -2.496 c 4.41 5.756 6.62 11.729 6.63 17.934 c 0 6.205 -2.2 11.969 -6.6 17.312 c -6.67 8.108 -14.26 12.303 -22.78 12.563 c -8.52 0.259 -17.4 -3.405 -26.62 -11 c -9.23 -7.596 -14.56 -15.592 -15.94 -24 c -1.39 -8.409 1.26 -16.669 7.94 -24.779 c 4.39 -5.35 9.67 -8.61 15.78 -9.78 c 6.1 -1.18 12.4 -0.16 18.9 3.06 c -3.87 -5.19 -5.81 -10.57 -5.78 -16.13 c 0.03 -5.55 2.03 -10.71 5.97 -15.5 c 5.5 -6.68 12.23 -10.03 20.19 -10 z m 2.59 13.53 c -4.71 0.2 -8.84 2.48 -12.41 6.82 c -3.56 4.33 -4.99 8.81 -4.28 13.47 c 0.71 4.65 3.52 9 8.41 13.03 c 4.86 4 9.66 5.92 14.41 5.75 c 4.74 -0.17 8.9 -2.42 12.46 -6.75 c 3.57 -4.34 4.97 -8.84 4.22 -13.53 c -0.74 -4.69 -3.55 -9.04 -8.4 -13.03 c -4.9 -4.03 -9.7 -5.95 -14.41 -5.76 z m -30.84 36.07 c -0.34 0 -0.69 0.01 -1.03 0.03 c -5.45 0.34 -10.26 3.05 -14.41 8.09 c -4.15 5.047 -5.87 10.276 -5.16 15.69 c 0.72 5.414 3.78 10.322 9.16 14.75 s 10.8 6.468 16.28 6.125 c 5.49 -0.343 10.29 -3.025 14.41 -8.031 c 4.15 -5.044 5.87 -10.274 5.15 -15.688 c -0.71 -5.414 -3.77 -10.356 -9.18 -14.816 c -5.05 -4.15 -10.12 -6.19 -15.22 -6.15 z" stroke-linecap="round" />
</g>
		<g transform="matrix(0.77 0.64 -0.64 0.77 -140.43 61.46)" id="text4276"  >
<path style="stroke: none; stroke-width: 1; stroke-dasharray: none; stroke-linecap: butt; stroke-dashoffset: 0; stroke-linejoin: miter; stroke-miterlimit: 4; fill: rgb(0,0,0); fill-rule: nonzero; opacity: 0.27381;"  transform=" translate(739.06, -468.75)" d="m -739.06 471.4 c -6.97 0 -12.46 1.86 -16.48 5.59 c -3.97 3.72 -5.95 8.85 -5.95 15.39 c 0 6.53 1.98 11.66 5.95 15.39 c 4.02 3.72 9.51 5.58 16.48 5.58 s 12.46 -1.86 16.47 -5.58 c 4.02 -3.78 6.03 -8.91 6.03 -15.39 c 0 -6.54 -2.01 -11.67 -6.03 -15.39 c -3.96 -3.73 -9.46 -5.59 -16.47 -5.59 m -14.67 -6.24 c -6.29 -1.55 -11.2 -4.48 -14.73 -8.79 c -3.48 -4.3 -5.23 -9.55 -5.23 -15.75 c 0 -8.66 3.08 -15.51 9.22 -20.54 c 6.2 -5.03 14.66 -7.55 25.41 -7.55 c 10.79 0 19.26 2.52 25.4 7.55 c 6.15 5.03 9.22 11.88 9.22 20.54 c 0 6.2 -1.77 11.45 -5.3 15.75 c -3.48 4.31 -8.35 7.24 -14.59 8.79 c 7.07 1.64 12.56 4.86 16.48 9.65 c 3.97 4.79 5.95 10.65 5.95 17.57 c 0 10.5 -3.22 18.55 -9.65 24.17 c -6.39 5.61 -15.56 8.42 -27.51 8.42 c -11.96 0 -21.15 -2.81 -27.59 -8.42 c -6.38 -5.62 -9.58 -13.67 -9.58 -24.17 c 0 -6.92 1.99 -12.78 5.96 -17.57 c 3.96 -4.79 9.48 -8.01 16.54 -9.65 m -5.37 -23.16 c 0 5.62 1.75 9.99 5.23 13.14 c 3.53 3.15 8.47 4.72 14.81 4.72 c 6.29 0 11.2 -1.57 14.73 -4.72 c 3.58 -3.15 5.37 -7.52 5.37 -13.14 c 0 -5.61 -1.79 -9.99 -5.37 -13.14 c -3.53 -3.14 -8.44 -4.71 -14.73 -4.71 c -6.34 0 -11.28 1.57 -14.81 4.71 c -3.48 3.15 -5.23 7.53 -5.23 13.14" stroke-linecap="round" />
</g>
</g>
</g>
</svg>