<?xml version="1.0" encoding="UTF-8" standalone="no" ?>
<!DOCTYPE svg PUBLIC "-//W3C//DTD SVG 1.1//EN" "http://www.w3.org/Graphics/SVG/1.1/DTD/svg11.dtd">
<svg xmlns="http://www.w3.org/2000/svg" xmlns:xlink="http://www.w3.org/1999/xlink" version="1.1" width="400" height="400" viewBox="0 0 400 400" xml:space="preserve">
<desc>Created with Fabric.js 3.6.3</desc>
<defs>
</defs>
<rect x="0" y="0" width="100%" height="100%" fill="rgba(255, 255, 255, 1)"></rect>
<g transform="matrix(1 0 0 1 200 249.24)" style=""  >
		<text xml:space="preserve" font-family="'Open Sans', sans-serif" font-size="18" font-style="normal" font-weight="normal" style="stroke: none; stroke-width: 1; stroke-dasharray: none; stroke-linecap: butt; stroke-dashoffset: 0; stroke-linejoin: miter; stroke-miterlimit: 4; fill: rgb(0,0,0); fill-rule: nonzero; opacity: 1; white-space: pre;" ><tspan x="-108.5" y="5.97" style="font-size: 19px; font-weight: bold; ">Your Company Name</tspan></text>
</g>
<g transform="matrix(1 0 0 1 228.48 281.67)" style=""  >
		<text xml:space="preserve" font-family="'Open Sans', sans-serif" font-size="18" font-style="normal" font-weight="normal" style="stroke: none; stroke-width: 1; stroke-dasharray: none; stroke-linecap: butt; stroke-dashoffset: 0; stroke-linejoin: miter; stroke-miterlimit: 4; fill: rgb(0,0,0); fill-rule: nonzero; opacity: 1; white-space: pre;" ><tspan x="-81.99" y="5.65" >slogan here</tspan></text>
</g>
<g transform="matrix(0.53 0 0 0.56 187.75 163.34)"  >
<g style=""   >
		<g transform="matrix(0.62 0 0 0.62 -21.7 -22.58)" id="path6175"  >
<path style="stroke: rgb(0,0,0); stroke-width: 0.87492; stroke-dasharray: none; stroke-linecap: butt; stroke-dashoffset: 0; stroke-linejoin: miter; stroke-miterlimit: 4; fill: rgb(255,255,0); fill-rule: evenodd; opacity: 1;"  transform=" translate(-387.91, -381.71)" d="m 360.79 329.27 c 2.68 0.17 9.35 4.12 13.77 7.26 c 6.27 4.44 9.8 10.7 16.08 15.15 c 8.36 5.94 17.66 13.88 23.98 21.4 c 4.32 5.13 11.08 8.32 14.07 14.36 c 1.92 3.88 -3.53 8.86 -8.43 12.2 c -4 2.72 -8.48 7.03 -11.67 10.52 c -3.89 4.25 -9.52 7.42 -13.47 11.75 c -3.39 3.69 -7.95 7.41 -12.09 10.23 c -6.71 4.57 -5.75 2.81 -11.67 -1.38 c -5.35 -3.8 -12.89 -6.74 -8.08 -12 c 3.48 -3.8 9.78 -6.22 13.26 -10.02 c 3.33 -3.64 4.83 -7.31 9.74 -10.64 c 4.11 -2.8 12.3 -4.92 10.28 -9.01 c -1.36 -2.74 -10.58 -6.63 -12.39 -8.78 c -3.12 -3.72 -8.4 -7.21 -12.51 -10.12 c -4.43 -3.14 -9.33 -5.48 -13.21 -9.37 c -3.96 -3.98 -6.22 -7.2 -9.53 -11.15 c -2.49 -2.96 -2.91 -10.21 -0.96 -13.83 c 2.59 -4.8 7.59 -8.93 12.83 -6.57 z" stroke-linecap="round" />
</g>
		<g transform="matrix(0.62 0 0 0.62 16.71 22.82)" id="path6181"  >
<path style="stroke: rgb(0,0,0); stroke-width: 0.75685; stroke-dasharray: none; stroke-linecap: butt; stroke-dashoffset: 0; stroke-linejoin: miter; stroke-miterlimit: 4; fill: rgb(36,28,28); fill-rule: evenodd; opacity: 1;"  transform=" translate(-449.78, -454.82)" d="m 308.23 421.58 l 225.78 50.23 l 60.07 16.26 l -61.37 -11.54 l -227.24 -50.37 l 2.76 -4.58 z" stroke-linecap="round" />
</g>
		<g transform="matrix(0.62 0 0 0.62 18.06 22.95)" id="path6183"  >
<linearGradient id="SVGID_linearGradient40947_475" gradientUnits="userSpaceOnUse" gradientTransform="matrix(0.94 0.19 -0.22 0.79 173.94 102.08)"  x1="341.47" y1="348.76" x2="341.25" y2="356.12">
<stop offset="0%" style="stop-color:rgb(244,215,215);stop-opacity: 1"/>
<stop offset="100%" style="stop-color:rgb(244,215,215);stop-opacity: 0"/>
</linearGradient>
<path style="stroke: rgb(0,0,0); stroke-width: 0.75685; stroke-dasharray: none; stroke-linecap: butt; stroke-dashoffset: 0; stroke-linejoin: miter; stroke-miterlimit: 4; fill: url(#SVGID_linearGradient40947_475); fill-rule: evenodd; opacity: 1;"  transform=" translate(-451.94, -455.04)" d="m 310.39 421.79 l 225.78 50.23 l 60.07 16.26 l -61.37 -11.54 l -227.24 -50.37 l 2.76 -4.58 z" stroke-linecap="round" />
</g>
		<g transform="matrix(0.62 0 0 0.62 -80.95 1.27)" id="path6185"  >
<path style="stroke: rgb(0,0,0); stroke-width: 0.75685; stroke-dasharray: none; stroke-linecap: butt; stroke-dashoffset: 0; stroke-linejoin: miter; stroke-miterlimit: 4; fill: rgb(255,127,42); fill-rule: evenodd; opacity: 1;"  transform=" translate(-292.51, -420.13)" d="m 324.72 424.93 s -16.46 -5.92 -20.85 -6.68 s -38.88 -8.32 -38.88 -8.32 s -4.79 -1.72 -5.81 2.78 c -0.6 2.62 -0.9 3.68 3.34 5.37 l 38.99 9.08 s 19.53 3.75 22.17 3.47 c 2.41 -0.27 3.65 -4.64 1.04 -5.7 z" stroke-linecap="round" />
</g>
		<g transform="matrix(0.62 0 0 0.62 -97.09 -2.24)" id="path6187"  >
<path style="stroke: rgb(0,0,0); stroke-width: 0.75685; stroke-dasharray: none; stroke-linecap: butt; stroke-dashoffset: 0; stroke-linejoin: miter; stroke-miterlimit: 4; fill: none; fill-rule: nonzero; opacity: 1;"  transform=" translate(-266.51, -414.48)" d="m 267.07 410.44 c 2.68 3.82 -1.62 7.87 -2 8.07" stroke-linecap="round" />
</g>
		<g transform="matrix(0.62 0 0 0.62 -93.09 -1.32)" id="path6189"  >
<path style="stroke: rgb(0,0,0); stroke-width: 0.75685; stroke-dasharray: none; stroke-linecap: butt; stroke-dashoffset: 0; stroke-linejoin: miter; stroke-miterlimit: 4; fill: none; fill-rule: nonzero; opacity: 1;"  transform=" translate(-272.95, -415.95)" d="m 273.6 411.94 c 2.83 4.73 -1.84 8.19 -2.21 8.02" stroke-linecap="round" />
</g>
		<g transform="matrix(0.62 0 0 0.62 -81.32 1.28)" id="path6191"  >
<path style="stroke: rgb(0,0,0); stroke-width: 0.80729; stroke-dasharray: none; stroke-linecap: butt; stroke-dashoffset: 0; stroke-linejoin: miter; stroke-miterlimit: 4; fill: none; fill-rule: nonzero; opacity: 1;"  transform=" translate(-291.9, -420.14)" d="m 292.46 415.9 c 2.93 4.05 -1.69 8.28 -2.09 8.49" stroke-linecap="round" />
</g>
		<g transform="matrix(0.62 0 0 0.62 -77 2.23)" id="path6193"  >
<path style="stroke: rgb(0,0,0); stroke-width: 0.8189; stroke-dasharray: none; stroke-linecap: butt; stroke-dashoffset: 0; stroke-linejoin: miter; stroke-miterlimit: 4; fill: none; fill-rule: nonzero; opacity: 1;"  transform=" translate(-298.85, -421.67)" d="m 299.58 417.3 c 3.02 5.14 -2.02 8.91 -2.41 8.73" stroke-linecap="round" />
</g>
		<g transform="matrix(0.62 0 0 0.62 70.15 35.14)" id="path6195"  >
<path style="stroke: none; stroke-width: 1; stroke-dasharray: none; stroke-linecap: butt; stroke-dashoffset: 0; stroke-linejoin: miter; stroke-miterlimit: 4; fill: rgb(85,0,0); fill-rule: nonzero; opacity: 1;"  transform=" translate(-535.82, -474.66)" d="m 529.24 476.36 c -1.02 4.5 0.47 7.97 3.91 8.79 c 3.97 -0.16 5.71 -2.22 7.36 -5 c 1.5 -2.98 2.15 -6.82 2.21 -9.5 c 0.12 -5.15 -3.06 -7.47 -6.63 -6.08 c -2.55 0.99 -3.78 2.31 -5.36 6.15 l 5.25 1.41 s 0.38 4 -1.46 4.8 c -1.67 0.72 -0.37 0.19 -2.14 0.01 c -1.4 -0.14 -3.14 -0.58 -3.14 -0.58 z" stroke-linecap="round" />
</g>
		<g transform="matrix(0.62 0 0 0.62 69.64 34.92)" id="path6197"  >
<path style="stroke: none; stroke-width: 1; stroke-dasharray: none; stroke-linecap: butt; stroke-dashoffset: 0; stroke-linejoin: miter; stroke-miterlimit: 4; fill: rgb(255,127,42); fill-rule: nonzero; opacity: 1;"  transform=" translate(-535, -474.32)" d="m 528.43 475.98 c -1 4.43 0.5 7.85 3.94 8.67 c 3.96 -0.14 5.7 -2.17 7.33 -4.91 c 1.49 -2.93 2.12 -6.71 2.17 -9.35 c 0.1 -5.07 -3.09 -7.37 -6.64 -6.02 c -2.55 0.97 -3.78 2.28 -5.34 6.05 l 5.26 1.41 s 0.4 3.94 -1.44 4.72 c -1.67 0.71 -0.37 0.19 -2.14 0.01 c -1.4 -0.15 -3.14 -0.58 -3.14 -0.58 z" stroke-linecap="round" />
</g>
		<g transform="matrix(0.62 0 0 0.62 -32.18 7.39)" id="path6177"  >
<path style="stroke: rgb(0,0,0); stroke-width: 0.91974; stroke-dasharray: none; stroke-linecap: butt; stroke-dashoffset: 0; stroke-linejoin: miter; stroke-miterlimit: 4; fill: rgb(255,0,0); fill-rule: nonzero; opacity: 1;"  transform=" translate(-371.04, -429.98)" d="m 352.08 436.4 c -0.67 0.89 5.29 2.07 8.67 2.64 c 1.17 0.2 2.76 0.71 3.99 0.89 c 1.76 -0.21 6.38 -1.99 6.3 -4.61 c -0.03 -1.21 3.48 -0.66 3.89 -0.95 c 2 -1.4 -5.16 5.75 -4.3 6.24 c 0.68 0.38 0.7 4.02 4.23 4.07 c 2.93 0.04 10.71 -6.96 11.76 -6.18 c 0.86 1.2 -0.08 5.03 -3.2 7.33 c -2.43 1.79 -6.76 2.2 -8.81 2.68 c -2.93 0.67 -6.87 -1.23 -7.79 -1.46 c -13.45 -3.45 -12.76 -8.25 -14.73 -10.34 m 3.12 -7.73 c -4.3 -4.58 -1.06 -2.25 0.75 -8.06 c 1.79 -5.77 11.79 -6.44 16.46 -9.3 c 3.4 -1.35 8.22 2.04 11.52 4.02 c 7.98 2.47 6.67 10.77 4.24 18.2 c -0.32 0.62 -1.17 2.88 -1.85 3.24 c -0.52 -0.32 -5.52 5.41 -9.14 7.33 c -1.89 1 -5.14 -1.1 -5.92 -2.01 c -2.31 -2.7 2.85 -4.97 2.29 -5.61 c 1.28 -2.62 7.09 -7.36 2.11 -8.4 c -1.37 -0.28 -7.98 -0.17 -12.77 3.16 c -0.79 0.54 -1.41 -0.24 -1.78 0.25" stroke-linecap="round" />
</g>
		<g transform="matrix(0.61 0 0 0.58 -8.37 81.22)" id="path5230"  >
<path style="stroke: rgb(0,0,0); stroke-width: 1.0412; stroke-dasharray: none; stroke-linecap: butt; stroke-dashoffset: 0; stroke-linejoin: miter; stroke-miterlimit: 4; fill: rgb(40,11,11); fill-rule: evenodd; opacity: 1;"  transform=" translate(-287.72, -478.79)" d="m 301.69 485.69 c -3.29 0 -171.79 23.17 -186.59 23.17 c -14.79 0 -50.138 -9.8 -50.138 -9.8 l -3.288 6.24 s 40.276 18.71 74.796 15.15 c 34.53 -3.57 48.5 -6.24 48.5 -6.24 l 303.3 -43.67 s 15.62 -15.15 23.02 -23.17 s -4.11 -10.7 -4.11 -10.7 s -23.02 22.28 -32.88 23.17 c -9.86 0.9 -172.61 24.96 -172.61 25.85 z" stroke-linecap="round" />
</g>
		<g transform="matrix(0.61 0 0 0.58 -9.38 80.74)" id="path5232"  >
<path style="stroke: rgb(0,0,0); stroke-width: 1.0273; stroke-dasharray: none; stroke-linecap: butt; stroke-dashoffset: 0; stroke-linejoin: miter; stroke-miterlimit: 4; fill: rgb(233,175,175); fill-rule: evenodd; opacity: 1;"  transform=" translate(-286.08, -477.97)" d="m 299.94 484.73 c -3.26 0 -170.54 22.73 -185.23 22.73 s -49.779 -9.62 -49.779 -9.62 l -3.264 6.12 s 39.983 18.35 74.253 14.86 c 34.28 -3.5 48.15 -6.12 48.15 -6.12 l 301.11 -42.82 s 15.5 -14.86 22.85 -22.73 c 7.34 -7.86 -4.08 -10.48 -4.08 -10.48 s -22.85 21.85 -32.64 22.72 c -9.8 0.87 -171.37 24.47 -171.37 25.34 z" stroke-linecap="round" />
</g>
		<g transform="matrix(0.62 0 0 0.62 1.65 83.16)" id="path5218"  >
<path style="stroke: rgb(0,0,0); stroke-width: 1; stroke-dasharray: none; stroke-linecap: butt; stroke-dashoffset: 0; stroke-linejoin: miter; stroke-miterlimit: 4; fill: rgb(211,95,95); fill-rule: evenodd; opacity: 1;"  transform=" translate(-425.51, -551.99)" d="m 423.18 543.45 c -2.53 2.42 -14.5 4.47 -22.19 5.75 c -9.52 1.59 -10.69 13.98 -0.82 16.44 c 8.6 2.15 14.62 1.28 23.01 -0.82 c 9.06 -2.26 14.84 -4.11 24.67 -4.11 c 9.2 0 12.69 -15.25 7.39 -20.55 c -6.7 -6.7 -18.14 -0.79 -24.66 2.47 c -2.31 1.15 -4.95 0.82 -7.4 0.82 z" stroke-linecap="round" />
</g>
		<g transform="matrix(0.62 0 0 0.62 -5.99 87.26)" id="path5240"  >
<path style="stroke: rgb(0,0,0); stroke-width: 1; stroke-dasharray: none; stroke-linecap: butt; stroke-dashoffset: 0; stroke-linejoin: miter; stroke-miterlimit: 4; fill: rgb(244,215,215); fill-rule: evenodd; opacity: 1;"  transform=" translate(-413.21, -558.6)" d="m 429.14 568.33 s -0.36 -8.35 -4.22 -14.15 c -3.51 -5.28 -8.87 -8.48 -11.1 -7.92 c -4.67 1.17 -15.45 2.21 -16.49 3.37 c -0.5 0.57 3.56 1.57 7.62 6.41 c 3.62 4.31 5.25 11.34 4.98 13.98 c -0.3 2.81 18.95 -1.3 19.21 -1.69 z" stroke-linecap="round" />
</g>
		<g transform="matrix(0.62 0 0 0.58 -3.08 87.43)" id="path5220"  >
<path style="stroke: rgb(0,0,0); stroke-width: 1.0412; stroke-dasharray: none; stroke-linecap: butt; stroke-dashoffset: 0; stroke-linejoin: miter; stroke-miterlimit: 4; fill: rgb(40,11,11); fill-rule: evenodd; opacity: 1;"  transform=" translate(-287.72, -478.79)" d="m 301.69 485.69 c -3.29 0 -171.79 23.17 -186.59 23.17 c -14.79 0 -50.138 -9.8 -50.138 -9.8 l -3.288 6.24 s 40.276 18.71 74.796 15.15 c 34.53 -3.57 48.5 -6.24 48.5 -6.24 l 303.3 -43.67 s 15.62 -15.15 23.02 -23.17 s -4.11 -10.7 -4.11 -10.7 s -23.02 22.28 -32.88 23.17 c -9.86 0.9 -172.61 24.96 -172.61 25.85 z" stroke-linecap="round" />
</g>
		<g transform="matrix(0.62 0 0 0.58 -4.1 86.95)" id="path5222"  >
<path style="stroke: rgb(0,0,0); stroke-width: 1.0273; stroke-dasharray: none; stroke-linecap: butt; stroke-dashoffset: 0; stroke-linejoin: miter; stroke-miterlimit: 4; fill: rgb(233,175,175); fill-rule: evenodd; opacity: 1;"  transform=" translate(-286.08, -477.97)" d="m 299.94 484.73 c -3.26 0 -170.54 22.73 -185.23 22.73 s -49.779 -9.62 -49.779 -9.62 l -3.264 6.12 s 39.983 18.35 74.253 14.86 c 34.28 -3.5 48.15 -6.12 48.15 -6.12 l 301.11 -42.82 s 15.5 -14.86 22.85 -22.73 c 7.34 -7.86 -4.08 -10.48 -4.08 -10.48 s -22.85 21.85 -32.64 22.72 c -9.8 0.87 -171.37 24.47 -171.37 25.34 z" stroke-linecap="round" />
</g>
		<g transform="matrix(0.62 0 0 0.62 10.4 26.37)" id="path5214"  >
<path style="stroke: rgb(0,0,0); stroke-width: 1; stroke-dasharray: none; stroke-linecap: butt; stroke-dashoffset: 0; stroke-linejoin: miter; stroke-miterlimit: 4; fill: rgb(0,128,128); fill-rule: evenodd; opacity: 1;"  transform=" translate(-439.61, -460.54)" d="m 446.2 370.11 c 2.84 4.6 11.63 12.45 18.09 18.91 c 5.33 5.33 4.73 15.65 6.57 23.01 c 1.36 5.41 -4.96 19.8 -7.4 24.66 c -3.14 6.3 -7.4 17.31 -9.04 23.84 c -2.45 9.83 2.58 17.98 -4.93 25.49 c -3.2 3.19 5.31 9.11 3.29 13.15 c -3.18 6.35 -1.65 15.33 -1.65 23.02 c 0 9.91 -0.82 12.81 -0.82 20.55 c 0 4.54 -13.09 8.22 -18.9 8.22 c -11.07 0 -14.85 1.02 -11.51 -12.33 c 2.23 -8.92 -2.47 -16.01 -2.47 -24.66 c 0 -7.45 -2.35 -18.17 -5.75 -23.84 c -3.32 -5.53 0 -18.35 0 -24.66 c 0 -8.2 -0.83 -16.28 -0.83 -24.67 c 0 -8.9 -0.34 -14.54 -2.46 -23.01 c -1.98 -7.91 10.08 -15.84 13.97 -19.73 c 6.91 -6.91 15.67 -15.74 18.91 -23.84 c 0.79 -1.99 3.29 -2.74 4.93 -4.11 z" stroke-linecap="round" />
</g>
		<g transform="matrix(0.62 0 0 0.62 14.48 86.44)" id="path5216"  >
<path style="stroke: rgb(0,0,0); stroke-width: 1; stroke-dasharray: none; stroke-linecap: butt; stroke-dashoffset: 0; stroke-linejoin: miter; stroke-miterlimit: 4; fill: rgb(211,95,95); fill-rule: evenodd; opacity: 1;"  transform=" translate(-446.17, -557.28)" d="m 443.85 548.74 c -2.54 2.42 -14.51 4.47 -22.2 5.75 c -9.52 1.59 -10.69 13.98 -0.82 16.44 c 8.6 2.15 14.62 1.28 23.02 -0.82 c 9.06 -2.26 14.83 -4.11 24.66 -4.11 c 9.2 0 12.7 -15.25 7.4 -20.55 c -6.71 -6.7 -18.15 -0.79 -24.67 2.47 c -2.3 1.15 -4.95 0.82 -7.39 0.82 z" stroke-linecap="round" />
</g>
		<g transform="matrix(0.62 0 0 0.62 25.27 27.32)" id="path5212"  >
<path style="stroke: rgb(0,0,0); stroke-width: 1; stroke-dasharray: none; stroke-linecap: butt; stroke-dashoffset: 0; stroke-linejoin: miter; stroke-miterlimit: 4; fill: rgb(0,128,128); fill-rule: evenodd; opacity: 1;"  transform=" translate(-463.56, -462.07)" d="m 470.15 371.64 c 2.84 4.61 11.63 12.45 18.09 18.91 c 5.33 5.33 4.73 15.65 6.57 23.02 c 1.36 5.41 -4.96 19.79 -7.4 24.66 c -3.15 6.3 -7.4 17.3 -9.04 23.84 c -2.45 9.82 2.58 17.97 -4.93 25.48 c -3.2 3.2 5.31 9.11 3.29 13.15 c -3.18 6.36 -1.65 15.33 -1.65 23.02 c 0 9.91 -0.82 12.82 -0.82 20.55 c 0 4.54 -13.09 8.22 -18.91 8.22 c -11.06 0 -14.84 1.02 -11.5 -12.33 c 2.22 -8.91 -2.47 -16 -2.47 -24.66 c 0 -7.45 -2.35 -18.16 -5.75 -23.84 c -3.32 -5.53 0 -18.35 0 -24.66 c 0 -8.2 -0.83 -16.28 -0.83 -24.66 c 0 -8.91 -0.34 -14.54 -2.46 -23.02 c -1.98 -7.9 10.08 -15.84 13.97 -19.73 c 6.91 -6.9 15.67 -15.74 18.91 -23.84 c 0.79 -1.98 3.29 -2.74 4.93 -4.11 z" stroke-linecap="round" />
</g>
		<g transform="matrix(0.62 0 0 0.62 -80.95 1.27)" id="path8010"  >
<linearGradient id="SVGID_linearGradient40949_476" gradientUnits="userSpaceOnUse" gradientTransform="matrix(1 0 0 1 128.18 75.56)"  x1="162.16" y1="350.15" x2="164.32" y2="339.31">
<stop offset="0%" style="stop-color:rgb(43,0,0);stop-opacity: 1"/>
<stop offset="100%" style="stop-color:rgb(43,0,0);stop-opacity: 0"/>
</linearGradient>
<path style="stroke: rgb(0,0,0); stroke-width: 0.75685; stroke-dasharray: none; stroke-linecap: butt; stroke-dashoffset: 0; stroke-linejoin: miter; stroke-miterlimit: 4; fill: url(#SVGID_linearGradient40949_476); fill-rule: evenodd; opacity: 1;"  transform=" translate(-292.51, -420.13)" d="m 324.72 424.93 s -16.46 -5.92 -20.85 -6.68 s -38.88 -8.32 -38.88 -8.32 s -4.79 -1.72 -5.81 2.78 c -0.6 2.62 -0.9 3.68 3.34 5.37 l 38.99 9.08 s 19.53 3.75 22.17 3.47 c 2.41 -0.27 3.65 -4.64 1.04 -5.7 z" stroke-linecap="round" />
</g>
		<g transform="matrix(0.62 0 0 0.62 -15.49 -27.99)" id="path5206"  >
<path style="stroke: rgb(0,0,0); stroke-width: 0.7; stroke-dasharray: none; stroke-linecap: butt; stroke-dashoffset: 0; stroke-linejoin: miter; stroke-miterlimit: 4; fill: rgb(255,255,0); fill-rule: evenodd; opacity: 1;"  transform=" translate(-397.91, -373)" d="m 327.56 349.02 c -3.73 4.24 -3.13 18.38 1.16 22.67 c 11.07 10.48 11.88 13.8 29.06 17.44 c 1.91 3.8 9.02 5.81 11.63 9.3 c 2.45 3.26 12.82 5.59 16.28 6.97 c 6.19 2.48 10.85 3.55 17.43 4.65 c 5.94 0.99 6.47 5.54 12.21 6.98 c 5.9 1.47 11.64 2.62 17.44 4.07 c 6.12 1.52 11.77 1.67 17.44 -1.17 c 6.12 -3.06 10.11 -7.79 14.53 -12.2 c 3.76 -3.77 6.65 -12.03 7.55 -17.44 c 4.31 -29.19 -3.17 -20.78 -18.6 -36.04 c -5.78 -7.97 -32.16 -21.74 -43.01 -20.35 c -23.11 -4.15 -34.9 -0.71 -56.96 -9.3 c -8.2 -2.04 -13.97 0.02 -19.77 5.82 c -4.81 4.81 -9.83 1.54 -11.62 8.72 c -0.3 1.2 6 8.91 5.23 9.88 z" stroke-linecap="round" />
</g>
		<g transform="matrix(0.62 0 0 0.62 -63.15 -60.81)" id="path4401"  >
<path style="stroke: rgb(0,0,0); stroke-width: 0.2; stroke-dasharray: none; stroke-linecap: butt; stroke-dashoffset: 0; stroke-linejoin: miter; stroke-miterlimit: 4; fill: rgb(211,141,95); fill-rule: nonzero; opacity: 1;"  transform=" translate(-321.17, -320.16)" d="m 351.28 325.06 c -0.31 2.4 -6.23 -2.69 -7.75 -0.58 c -2.31 3.21 1.02 8.78 -3.48 12.02 c -5.16 3.71 -9.35 9.09 -16.74 11.99 c -1.38 0.54 -3.67 0.81 -5.28 1.27 c -12.12 3.48 -29.15 -25.67 -26.74 -42.64 c 2.42 -16.97 18.74 -18.81 34.37 -15.48 c 15.61 3.33 27.43 14.1 25.04 31.05" stroke-linecap="round" />
</g>
		<g transform="matrix(0.62 0 0 0.62 -52.53 -62.92)" id="path4406"  >
<linearGradient id="SVGID_linearGradient40951_477" gradientUnits="userSpaceOnUse" gradientTransform="matrix(1 0 0 1 128.18 75.56)"  x1="213.06" y1="236.78" x2="208.33" y2="242.77">
<stop offset="0%" style="stop-color:rgb(211,114,95);stop-opacity: 1"/>
<stop offset="100%" style="stop-color:rgb(211,114,95);stop-opacity: 0"/>
</linearGradient>
<path style="stroke: rgb(0,0,0); stroke-width: 0.5; stroke-dasharray: none; stroke-linecap: butt; stroke-dashoffset: 0; stroke-linejoin: miter; stroke-miterlimit: 4; fill: url(#SVGID_linearGradient40951_477); fill-rule: evenodd; opacity: 1;"  transform=" translate(-338.26, -316.75)" d="m 332.35 312.61 v -0.54 c 0 -2.57 4.91 -5.35 6.98 -4.83 c 3.61 0.9 3.22 4.87 3.22 7.79 c 0 3.21 1.62 4.46 1.62 7.25 c 0 1.42 -0.54 4.23 -1.35 4.03 c -1.77 -0.44 -2.92 0.42 -4.83 -0.54" stroke-linecap="round" />
</g>
		<g transform="matrix(0.62 0 0 0.62 -78.81 -61.5)" id="path5294"  >
<path style="stroke: rgb(0,0,0); stroke-width: 0.86137; stroke-dasharray: none; stroke-linecap: butt; stroke-dashoffset: 0; stroke-linejoin: miter; stroke-miterlimit: 4; fill: rgb(77,77,77); fill-rule: evenodd; opacity: 1;"  transform=" translate(-295.94, -319.04)" d="m 288.85 315.23 c 1.91 -1.47 4.17 -1.93 6.37 -2.67 c 2.98 -0.99 4.18 0.84 6.37 0.99 c 1.75 0.11 1.81 4.72 1.98 6.04 c 0.37 2.83 -1.93 4.09 -3.89 5.21 c -1.85 1.07 -5.1 1.1 -7.08 0.96 c -2.28 -0.15 -3.96 -2.78 -4.21 -4.76 c -0.25 -1.96 -0.07 -3.83 0.46 -5.77 z" stroke-linecap="round" />
</g>
		<g transform="matrix(0.62 0 0 0.62 -66.65 -63.75)" id="path5296"  >
<path style="stroke: rgb(0,0,0); stroke-width: 0.94232; stroke-dasharray: none; stroke-linecap: butt; stroke-dashoffset: 0; stroke-linejoin: miter; stroke-miterlimit: 4; fill: rgb(77,77,77); fill-rule: evenodd; opacity: 1;"  transform=" translate(-315.53, -315.41)" d="m 307.65 310.97 c 2.23 -1.43 4.81 -1.78 7.34 -2.42 c 3.41 -0.86 4.71 1.14 7.19 1.42 c 1.97 0.23 1.87 5.08 2.01 6.49 c 0.3 3 -2.35 4.18 -4.61 5.25 c -2.14 1.01 -5.83 0.84 -8.07 0.58 c -2.59 -0.3 -4.39 -3.18 -4.6 -5.27 c -0.21 -2.08 0.06 -4.04 0.74 -6.05 z" stroke-linecap="round" />
</g>
		<g transform="matrix(0.62 0 0 0.62 -71.51 -56.45)" id="path5298"  >
<linearGradient id="SVGID_linearGradient40953_478" gradientUnits="userSpaceOnUse" gradientTransform="matrix(1 0 0 1 128.18 75.56)"  x1="174.27" y1="254.79" x2="179.52" y2="250.15">
<stop offset="0%" style="stop-color:rgb(255,153,85);stop-opacity: 1"/>
<stop offset="100%" style="stop-color:rgb(255,153,85);stop-opacity: 0"/>
</linearGradient>
<path style="stroke: rgb(0,0,0); stroke-width: 1; stroke-dasharray: none; stroke-linecap: butt; stroke-dashoffset: 0; stroke-linejoin: miter; stroke-miterlimit: 4; fill: url(#SVGID_linearGradient40953_478); fill-rule: evenodd; opacity: 1;"  transform=" translate(-307.71, -327.18)" d="m 303.6 320.4 c -0.47 0.75 -0.99 5.05 -1.61 7.52 c -0.62 2.5 -0.86 5.16 2.15 5.91 c 2.78 0.7 3.54 -1.56 5.91 -2.15 c 2.15 -0.53 2.73 -0.35 3.76 -2.42" stroke-linecap="round" />
</g>
		<g transform="matrix(0.62 0 0 0.62 -68.41 -49.92)" id="path5300"  >
<linearGradient id="SVGID_linearGradient40955_479" gradientUnits="userSpaceOnUse" gradientTransform="matrix(1 0 0 1 128.18 75.56)"  x1="180.31" y1="261.11" x2="184.52" y2="264.82">
<stop offset="0%" style="stop-color:rgb(255,42,42);stop-opacity: 1"/>
<stop offset="100%" style="stop-color:rgb(160,44,44);stop-opacity: 0"/>
</linearGradient>
<path style="stroke: rgb(0,0,0); stroke-width: 0.5; stroke-dasharray: none; stroke-linecap: butt; stroke-dashoffset: 0; stroke-linejoin: miter; stroke-miterlimit: 4; fill: url(#SVGID_linearGradient40955_479); fill-rule: evenodd; opacity: 1;"  transform=" translate(-312.7, -337.69)" d="m 307.9 337.59 c 0.49 -0.12 1.39 0.07 1.75 -0.04 c 1.78 -0.54 1.63 -0.96 3.89 -1.84 c 1.76 -0.68 4.03 0.7 5.64 -0.27 c 1.94 -1.16 -3.45 3.22 -5.64 3.76 c -2.26 0.57 -5.91 1.61 -7.25 0.27 c -1.29 -1.28 0.24 -1.63 1.61 -1.88 z" stroke-linecap="round" />
</g>
		<g transform="matrix(0.62 0 0 0.62 -68.16 -48.66)" id="path5302"  >
<linearGradient id="SVGID_linearGradient40957_480" gradientUnits="userSpaceOnUse" gradientTransform="matrix(1 0 0 1 128.18 75.56)"  x1="183.86" y1="268.43" x2="183.72" y2="264.94">
<stop offset="0%" style="stop-color:rgb(255,42,42);stop-opacity: 1"/>
<stop offset="100%" style="stop-color:rgb(255,42,42);stop-opacity: 0"/>
</linearGradient>
<path style="stroke: rgb(0,0,0); stroke-width: 0.6; stroke-dasharray: none; stroke-linecap: butt; stroke-dashoffset: 0; stroke-linejoin: miter; stroke-miterlimit: 4; fill: url(#SVGID_linearGradient40957_480); fill-rule: evenodd; opacity: 1;"  transform=" translate(-313.1, -339.71)" d="m 307.36 340.55 c -0.94 -0.94 1.4 2.63 2.69 2.95 c 1.25 0.32 3.2 0.25 4.68 -0.4 c 1.21 -0.54 2.05 -1.55 2.3 -2.55 c 0.22 -0.87 0.4 -1.52 0.48 -2.03 c 0.16 -1.09 1.26 -1.85 1.55 -2.78" stroke-linecap="round" />
</g>
		<g transform="matrix(0.62 0 0 0.62 -58.39 -66.81)" id="path5304"  >
<path style="stroke: rgb(0,0,0); stroke-width: 1; stroke-dasharray: none; stroke-linecap: butt; stroke-dashoffset: 0; stroke-linejoin: miter; stroke-miterlimit: 4; fill: rgb(0,0,0); fill-rule: evenodd; opacity: 1;"  transform=" translate(-328.84, -310.49)" d="m 332.49 310.81 c 0.04 -0.15 -5.96 1.2 -8.47 1.53 c -0.24 0.03 -1.46 -2.07 -0.43 -2.2 c 3 -0.4 6.46 -0.99 7.68 -1.29 c 1.62 -0.41 2.37 -0.16 3.22 0.27" stroke-linecap="round" />
</g>
		<g transform="matrix(0.62 0 0 0.62 -73.47 -63.65)" id="path5306"  >
<path style="stroke: rgb(0,0,0); stroke-width: 1; stroke-dasharray: none; stroke-linecap: butt; stroke-dashoffset: 0; stroke-linejoin: miter; stroke-miterlimit: 4; fill: rgb(77,77,77); fill-rule: evenodd; opacity: 1;"  transform=" translate(-304.54, -315.58)" d="m 302.26 315.03 c 1.69 -0.43 4.57 -4.21 4.57 -0.54 c 0 3.4 -0.31 3.03 -3.23 3.76" stroke-linecap="round" />
</g>
		<g transform="matrix(0.62 0 0 0.62 -10.27 -30.89)" id="path5208"  >
<path style="stroke: rgb(0,0,0); stroke-width: 0.98466; stroke-dasharray: none; stroke-linecap: butt; stroke-dashoffset: 0; stroke-linejoin: miter; stroke-miterlimit: 4; fill: rgb(255,255,0); fill-rule: evenodd; opacity: 1;"  transform=" translate(-406.32, -368.34)" d="m 357.58 325.76 c 2.35 -1.61 10.87 -2.33 16.9 -2.33 c 8.56 0 16.23 3.49 24.8 3.49 c 11.42 0 25.13 1.25 36.06 4.07 c 7.47 1.93 15.48 0.43 22.54 4.07 c 4.52 2.34 3.78 10.55 2.25 16.86 c -1.25 5.16 -1.69 12.1 -1.69 17.44 c 0 6.51 -2.25 13.15 -2.25 19.77 c 0 5.65 -0.96 12.1 -2.26 17.44 c -2.09 8.66 -2.63 6.4 -10.7 6.4 c -7.31 0 -15.78 2.22 -15.78 -5.82 c 0 -5.81 3.38 -12.21 3.38 -18.02 c 0 -5.56 -1.53 -9.96 0 -16.28 c 1.28 -5.3 6.46 -12.66 1.69 -15.12 c -3.2 -1.65 -13.79 0.81 -16.9 0 c -5.41 -1.39 -12.43 -1.16 -18.03 -1.16 c -6.05 0 -11.88 1.06 -18.03 0 c -6.3 -1.08 -10.61 -2.59 -16.35 -4.07 c -4.3 -1.11 -10.14 -7.56 -11.27 -12.21 c -1.49 -6.15 -0.48 -13.27 5.64 -14.53 z" stroke-linecap="round" />
</g>
		<g transform="matrix(0.62 0 0 0.62 7.15 90.24)" id="path5238"  >
<path style="stroke: rgb(0,0,0); stroke-width: 1; stroke-dasharray: none; stroke-linecap: butt; stroke-dashoffset: 0; stroke-linejoin: miter; stroke-miterlimit: 4; fill: rgb(244,215,215); fill-rule: evenodd; opacity: 1;"  transform=" translate(-434.37, -563.4)" d="m 450.3 573.13 s -0.36 -8.34 -4.22 -14.15 c -3.51 -5.27 -8.87 -8.47 -11.1 -7.92 c -4.67 1.17 -15.45 2.21 -16.49 3.38 c -0.5 0.56 3.57 1.56 7.62 6.4 c 3.62 4.32 5.26 11.34 4.98 13.98 c -0.3 2.81 18.95 -1.3 19.21 -1.69 z" stroke-linecap="round" />
</g>
		<g transform="matrix(0.62 0 0 0.62 50.45 8.95)" id="path5242"  >
<path style="stroke: rgb(0,0,0); stroke-width: 0.85156; stroke-dasharray: none; stroke-linecap: butt; stroke-dashoffset: 0; stroke-linejoin: miter; stroke-miterlimit: 4; fill: rgb(36,28,28); fill-rule: evenodd; opacity: 1;"  transform=" translate(-504.11, -432.5)" d="m 352.01 427.13 l 240.83 4.79 l 64.87 4.72 l -64.87 1.23 l -242.34 -4.6 l 1.51 -6.14 z" stroke-linecap="round" />
</g>
		<g transform="matrix(0.62 0 0 0.62 51.84 8.78)" id="path5260"  >
<linearGradient id="SVGID_linearGradient40959_481" gradientUnits="userSpaceOnUse" gradientTransform="matrix(1 0 0 1 128.39 78.94)"  x1="341.47" y1="348.76" x2="341.25" y2="356.12">
<stop offset="0%" style="stop-color:rgb(244,215,215);stop-opacity: 1"/>
<stop offset="100%" style="stop-color:rgb(244,215,215);stop-opacity: 0"/>
</linearGradient>
<path style="stroke: rgb(0,0,0); stroke-width: 0.85156; stroke-dasharray: none; stroke-linecap: butt; stroke-dashoffset: 0; stroke-linejoin: miter; stroke-miterlimit: 4; fill: url(#SVGID_linearGradient40959_481); fill-rule: evenodd; opacity: 1;"  transform=" translate(-506.34, -432.23)" d="m 354.24 426.86 l 240.83 4.78 l 64.87 4.72 l -64.87 1.23 l -242.34 -4.6 l 1.51 -6.13 z" stroke-linecap="round" />
</g>
		<g transform="matrix(0.62 0 0 0.62 -53.94 7.14)" id="path5244"  >
<path style="stroke: rgb(0,0,0); stroke-width: 0.85156; stroke-dasharray: none; stroke-linecap: butt; stroke-dashoffset: 0; stroke-linejoin: miter; stroke-miterlimit: 4; fill: rgb(255,127,42); fill-rule: evenodd; opacity: 1;"  transform=" translate(-336, -429.58)" d="m 369.51 427.09 s -18.18 -3.03 -22.81 -2.86 c -4.62 0.16 -41.38 -0.44 -41.38 -0.44 s -5.28 -0.88 -5.06 4.74 c 0.12 3.26 0.11 4.6 4.84 5.58 l 41.7 1.31 s 20.67 -0.29 23.24 -1.27 c 2.35 -0.91 2.38 -6.42 -0.53 -7.06 z" stroke-linecap="round" />
</g>
		<g transform="matrix(0.62 0 0 0.62 -71.04 6.75)" id="path5246"  >
<path style="stroke: rgb(0,0,0); stroke-width: 0.85156; stroke-dasharray: none; stroke-linecap: butt; stroke-dashoffset: 0; stroke-linejoin: miter; stroke-miterlimit: 4; fill: none; fill-rule: nonzero; opacity: 1;"  transform=" translate(-308.46, -428.94)" d="m 307.55 423.89 c 3.76 3.91 0.56 9.78 0.24 10.11" stroke-linecap="round" />
</g>
		<g transform="matrix(0.62 0 0 0.62 -66.66 6.87)" id="path5248"  >
<path style="stroke: rgb(0,0,0); stroke-width: 0.85156; stroke-dasharray: none; stroke-linecap: butt; stroke-dashoffset: 0; stroke-linejoin: miter; stroke-miterlimit: 4; fill: none; fill-rule: nonzero; opacity: 1;"  transform=" translate(-315.5, -429.14)" d="m 314.54 424.09 c 4.15 4.95 0.41 10.21 -0.01 10.1" stroke-linecap="round" />
</g>
		<g transform="matrix(0.62 0 0 0.62 -54.21 7.11)" id="path5250"  >
<path style="stroke: rgb(0,0,0); stroke-width: 0.90832; stroke-dasharray: none; stroke-linecap: butt; stroke-dashoffset: 0; stroke-linejoin: miter; stroke-miterlimit: 4; fill: none; fill-rule: nonzero; opacity: 1;"  transform=" translate(-335.56, -429.52)" d="m 334.58 424.21 c 4.07 4.11 0.6 10.28 0.26 10.63" stroke-linecap="round" />
</g>
		<g transform="matrix(0.62 0 0 0.62 -49.49 7.18)" id="path5252"  >
<path style="stroke: rgb(0,0,0); stroke-width: 0.92138; stroke-dasharray: none; stroke-linecap: butt; stroke-dashoffset: 0; stroke-linejoin: miter; stroke-miterlimit: 4; fill: none; fill-rule: nonzero; opacity: 1;"  transform=" translate(-343.17, -429.64)" d="m 342.13 424.14 c 4.46 5.39 0.44 11.11 -0.01 11" stroke-linecap="round" />
</g>
		<g transform="matrix(0.62 0 0 0.62 107.28 10.43)" id="path5254"  >
<path style="stroke: none; stroke-width: 1; stroke-dasharray: none; stroke-linecap: butt; stroke-dashoffset: 0; stroke-linejoin: miter; stroke-miterlimit: 4; fill: rgb(85,0,0); fill-rule: nonzero; opacity: 1;"  transform=" translate(-595.63, -434.87)" d="m 589.31 438.51 c 0.22 5.62 2.67 9.38 6.36 9.53 c 3.94 -1.16 5.13 -4.05 6.01 -7.77 c 0.68 -3.92 0.26 -8.65 -0.42 -11.86 c -1.31 -6.17 -5.15 -8.16 -8.34 -5.64 c -2.29 1.81 -3.17 3.69 -3.69 8.65 l 5.67 0.4 s 1.5 4.67 -0.13 6.08 c -1.48 1.26 -0.32 0.32 -2.15 0.53 c -1.45 0.17 -3.31 0.08 -3.31 0.08 z" stroke-linecap="round" />
</g>
		<g transform="matrix(0.62 0 0 0.62 106.71 10.3)" id="path5257"  >
<path style="stroke: none; stroke-width: 1; stroke-dasharray: none; stroke-linecap: butt; stroke-dashoffset: 0; stroke-linejoin: miter; stroke-miterlimit: 4; fill: rgb(255,127,42); fill-rule: nonzero; opacity: 1;"  transform=" translate(-594.71, -434.67)" d="m 588.38 438.25 c 0.22 5.53 2.68 9.24 6.37 9.38 c 3.94 -1.14 5.12 -3.98 6 -7.64 c 0.69 -3.86 0.27 -8.52 -0.41 -11.69 c -1.31 -6.07 -5.15 -8.03 -8.34 -5.54 c -2.29 1.77 -3.17 3.63 -3.69 8.51 l 5.67 0.39 s 1.49 4.61 -0.14 5.99 c -1.47 1.25 -0.32 0.31 -2.14 0.53 c -1.45 0.16 -3.32 0.07 -3.32 0.07 z" stroke-linecap="round" />
</g>
		<g transform="matrix(0.62 0 0 0.62 7.3 7.26)" id="path5210"  >
<path style="stroke: rgb(0,0,0); stroke-width: 1; stroke-dasharray: none; stroke-linecap: butt; stroke-dashoffset: 0; stroke-linejoin: miter; stroke-miterlimit: 4; fill: rgb(255,0,0); fill-rule: evenodd; opacity: 1;"  transform=" translate(-434.62, -429.78)" d="m 428.7 410.05 l -2.33 2.33 c -4.44 4.44 -11.04 2.37 -11.04 11.62 c 0 0.74 -0.31 3.27 0.19 3.99 c 2.54 0.07 10.25 0.02 11.72 -0.4 c 0.06 -3.11 1.78 -6.97 3.2 -1.26 c 0.89 3.56 -1.19 6.74 -3.89 9.1 c -0.45 0.39 -2.22 -1.82 -2.32 -0.19 c -0.01 0.2 -5.74 -0.99 -7.07 -0.46 c -2.6 1.04 0.08 6.59 4.17 10.28 c 2.56 2.31 6.6 3.17 7.37 3.94 c 1.91 1.91 13.86 -2.16 16.86 -2.91 c 6.56 -1.64 8.13 -9.35 8.13 -15.11 c 0 -6.44 1.42 -11.59 -1.74 -16.86 c -2.79 -4.64 -12.41 -1.27 -16.86 -3.49 c -0.94 -0.47 -5.47 -0.58 -6.39 -0.58 z" stroke-linecap="round" />
</g>
		<g transform="matrix(0.62 0 0 0.62 -53.94 7.14)" id="path7100"  >
<linearGradient id="SVGID_linearGradient40961_482" gradientUnits="userSpaceOnUse" gradientTransform="matrix(1 0 0 1 128.18 75.56)"  x1="202.87" y1="360.29" x2="202.42" y2="351.56">
<stop offset="0%" style="stop-color:rgb(128,0,0);stop-opacity: 1"/>
<stop offset="100%" style="stop-color:rgb(128,0,0);stop-opacity: 0"/>
</linearGradient>
<path style="stroke: rgb(0,0,0); stroke-width: 0.85156; stroke-dasharray: none; stroke-linecap: butt; stroke-dashoffset: 0; stroke-linejoin: miter; stroke-miterlimit: 4; fill: url(#SVGID_linearGradient40961_482); fill-rule: evenodd; opacity: 1;"  transform=" translate(-336, -429.58)" d="m 369.51 427.09 s -18.18 -3.03 -22.81 -2.86 c -4.62 0.16 -41.38 -0.44 -41.38 -0.44 s -5.28 -0.88 -5.06 4.74 c 0.12 3.26 0.11 4.6 4.84 5.58 l 41.7 1.31 s 20.67 -0.29 23.24 -1.27 c 2.35 -0.91 2.38 -6.42 -0.53 -7.06 z" stroke-linecap="round" />
</g>
		<g transform="matrix(0.62 0 0 0.62 -78.96 -61.31)" id="path8138"  >
<linearGradient id="SVGID_linearGradient40963_483" gradientUnits="userSpaceOnUse" gradientTransform="matrix(1 0 0 1 128.18 75.56)"  x1="160" y1="243.79" x2="175.05" y2="243.79">
<stop offset="0%" style="stop-color:rgb(153,153,153);stop-opacity: 1"/>
<stop offset="100%" style="stop-color:rgb(153,153,153);stop-opacity: 0"/>
</linearGradient>
<path style="stroke: rgb(0,0,0); stroke-width: 0.79923; stroke-dasharray: none; stroke-linecap: butt; stroke-dashoffset: 0; stroke-linejoin: miter; stroke-miterlimit: 4; fill: url(#SVGID_linearGradient40963_483); fill-rule: evenodd; opacity: 1;"  transform=" translate(-295.71, -319.35)" d="m 289.11 315.82 c 1.78 -1.36 3.89 -1.79 5.93 -2.47 c 2.77 -0.92 3.89 0.77 5.92 0.91 c 1.62 0.11 1.68 4.37 1.84 5.6 c 0.34 2.62 -1.8 3.78 -3.61 4.82 c -1.72 0.99 -4.74 1.02 -6.58 0.89 c -2.13 -0.14 -3.68 -2.58 -3.92 -4.41 c -0.24 -1.81 -0.07 -3.55 0.42 -5.34 z" stroke-linecap="round" />
</g>
		<g transform="matrix(0.62 0 0 0.62 -67.65 -63.4)" id="path8140"  >
<linearGradient id="SVGID_linearGradient40965_484" gradientUnits="userSpaceOnUse" gradientTransform="matrix(1 0 0 1 128.18 75.56)"  x1="177.22" y1="240.43" x2="194.24" y2="240.43">
<stop offset="0%" style="stop-color:rgb(153,153,153);stop-opacity: 1"/>
<stop offset="100%" style="stop-color:rgb(153,153,153);stop-opacity: 0"/>
</linearGradient>
<path style="stroke: rgb(0,0,0); stroke-width: 0.87434; stroke-dasharray: none; stroke-linecap: butt; stroke-dashoffset: 0; stroke-linejoin: miter; stroke-miterlimit: 4; fill: url(#SVGID_linearGradient40965_484); fill-rule: evenodd; opacity: 1;"  transform=" translate(-313.91, -315.99)" d="m 306.59 311.87 c 2.07 -1.32 4.48 -1.65 6.83 -2.24 c 3.17 -0.79 4.37 1.05 6.68 1.32 c 1.83 0.21 1.73 4.7 1.87 6.01 c 0.28 2.78 -2.19 3.87 -4.29 4.86 c -1.99 0.93 -5.42 0.78 -7.5 0.53 c -2.41 -0.27 -4.08 -2.94 -4.28 -4.88 c -0.19 -1.92 0.06 -3.74 0.69 -5.6 z" stroke-linecap="round" />
</g>
		<g transform="matrix(0.62 0 0 0.62 -73.99 -63.3)" id="path8142"  >
<linearGradient id="SVGID_linearGradient40967_485" gradientUnits="userSpaceOnUse" gradientTransform="matrix(1 0 0 1 128.18 75.56)"  x1="172.93" y1="240.58" x2="178.11" y2="240.58">
<stop offset="0%" style="stop-color:rgb(153,153,153);stop-opacity: 1"/>
<stop offset="100%" style="stop-color:rgb(153,153,153);stop-opacity: 0"/>
</linearGradient>
<path style="stroke: rgb(0,0,0); stroke-width: 0.92786; stroke-dasharray: none; stroke-linecap: butt; stroke-dashoffset: 0; stroke-linejoin: miter; stroke-miterlimit: 4; fill: url(#SVGID_linearGradient40967_485); fill-rule: evenodd; opacity: 1;"  transform=" translate(-303.7, -316.14)" d="m 301.58 315.63 c 1.57 -0.39 4.25 -3.9 4.25 -0.5 c 0 3.15 -0.29 2.81 -3 3.48" stroke-linecap="round" />
</g>
		<g transform="matrix(0.62 0 0 0.62 -54.42 -64.5)" id="path9061"  >
<path style="stroke: rgb(0,0,0); stroke-width: 1; stroke-dasharray: none; stroke-linecap: butt; stroke-dashoffset: 0; stroke-linejoin: miter; stroke-miterlimit: 4; fill: rgb(51,51,51); fill-rule: evenodd; opacity: 1;"  transform=" translate(-335.23, -314.22)" d="m 318.48 300.68 c -0.32 0.69 -0.49 2.14 1.24 2.14 c 2.73 0 1.56 -1.3 2.03 0.57 c 0.24 0.97 2.76 0.25 2.94 -0.45 c 0.26 -1.05 -2.62 2.29 0.22 1.58 c 2.38 -0.59 0.48 0.53 2.04 1.47 c 0.79 0.47 1.75 -1.19 0.11 0.45 c -1.11 1.11 1.59 1.8 2.14 1.58 c 0.13 -0.05 -0.74 1.47 0.57 1.47 c 1.08 0 0.77 0.6 1.13 2.03 c 0.24 0.98 -0.38 1.96 1.47 0.11 c 0.41 -0.41 0.81 -2.72 0.9 -3.27 c 0.11 -0.63 1.35 0.17 1.92 -0.11 c 1.19 -0.6 2.58 -1.25 3.95 -1.25 c 1.15 0 2.11 1.1 2.6 1.92 c 0.61 1.02 0.84 2.11 1.13 3.28 c 0.28 1.1 -0.4 2.24 -0.11 3.39 c 0.32 1.29 0.68 2.05 1.01 3.38 c 0.27 1.06 0.62 2.21 0.79 3.28 c 0.14 0.83 -0.24 2.73 -0.79 3.27 c -1.11 1.12 -2.29 0.28 -1.46 1.92 c 0.21 0.44 1.81 1.72 2.37 0.79 c 0.13 -0.22 1.59 -0.35 1.92 -0.67 c 0.01 -0.02 0.96 -0.06 1.35 -0.45 c 0.38 -0.39 1.47 3.04 2.6 -0.34 c 0.55 -1.66 1.28 -1.09 1.81 -2.15 c 0.38 -0.76 0.09 -2.32 -0.12 -3.16 c -0.27 -1.08 0 -2.04 -0.45 -2.94 c -0.52 -1.05 -0.16 -2.15 -0.56 -3.16 c -0.1 -0.23 0.4 -0.43 0.34 -0.68 c -0.22 -0.87 0.71 -1.09 -0.12 -3.16 c -0.4 -1 -1.41 -1.96 -1.58 -2.37 c -0.35 -0.87 -0.9 -2.81 -0.9 -3.16 c 0 -1.46 -0.9 -1.16 -1.92 -0.91 c -0.49 0.13 -2.89 -1.48 -3.73 -1.69 c -1.31 -0.33 -3.12 0.69 -4.29 0.11 c -1.32 -0.66 -1.51 0.77 -2.82 0.12 c -1.09 -0.55 -3 -1.32 -4.18 -1.02 c -1 0.25 -4.42 -0.91 -5.2 -1.7 c -0.46 -0.46 -2.64 -0.15 -3.38 -0.33 c -1.53 -0.38 -1.92 0.17 -3.39 -0.57 c -0.95 -0.47 -1.34 0.48 -2.15 1.13" stroke-linecap="round" />
</g>
		<g transform="matrix(0.62 0 0 0.62 -60.47 -90.58)" id="path4404"  >
<path style="stroke: none; stroke-width: 1; stroke-dasharray: none; stroke-linecap: butt; stroke-dashoffset: 0; stroke-linejoin: miter; stroke-miterlimit: 4; fill: rgb(255,0,0); fill-rule: nonzero; opacity: 1;"  transform=" translate(-325.47, -272.21)" d="m 290.89 282.25 c 12.16 -28.71 45.38 -40.09 63.15 -38.72 c 1.29 0.1 1.14 -2.93 2.75 -4.74 c 1.71 -1.93 5.61 -2.75 7.27 1 c 1.72 3.88 1.1 6.74 -0.97 7.3 c -1.85 0.5 -5.01 -1.17 -6.06 -0.4 c -6.02 4.44 -10.32 21.65 -5.21 46.84 c 0.93 4.6 0.99 7.8 -1.06 10.18 c -0.63 0.73 -0.32 1.5 -1.37 2.09 c -1.55 0.87 -3.21 -0.77 -4.72 -0.87 c -4.81 -0.3 -6 -3.24 -22.51 -3.14 c -15.26 0.1 -28.41 7.36 -32.64 5.01 c -8.5 -4.72 0.46 -14.61 1.36 -24.51" stroke-linecap="round" />
</g>
		<g transform="matrix(0.62 0 0 0.62 -60.47 -90.58)" id="path10869"  >
<linearGradient id="SVGID_linearGradient40969_486" gradientUnits="userSpaceOnUse" gradientTransform="matrix(1 0 0 1 128.18 75.56)"  x1="222.68" y1="204.25" x2="202.09" y2="194.26">
<stop offset="0%" style="stop-color:rgb(43,0,0);stop-opacity: 1"/>
<stop offset="100%" style="stop-color:rgb(43,0,0);stop-opacity: 0"/>
</linearGradient>
<path style="stroke: none; stroke-width: 1; stroke-dasharray: none; stroke-linecap: butt; stroke-dashoffset: 0; stroke-linejoin: miter; stroke-miterlimit: 4; fill: url(#SVGID_linearGradient40969_486); fill-rule: nonzero; opacity: 1;"  transform=" translate(-325.47, -272.21)" d="m 290.89 282.25 c 12.16 -28.71 45.38 -40.09 63.15 -38.72 c 1.29 0.1 1.14 -2.93 2.75 -4.74 c 1.71 -1.93 5.61 -2.75 7.27 1 c 1.72 3.88 1.1 6.74 -0.97 7.3 c -1.85 0.5 -5.01 -1.17 -6.06 -0.4 c -6.02 4.44 -10.32 21.65 -5.21 46.84 c 0.93 4.6 0.99 7.8 -1.06 10.18 c -0.63 0.73 -0.32 1.5 -1.37 2.09 c -1.55 0.87 -3.21 -0.77 -4.72 -0.87 c -4.81 -0.3 -6 -3.24 -22.51 -3.14 c -15.26 0.1 -28.41 7.36 -32.64 5.01 c -8.5 -4.72 0.46 -14.61 1.36 -24.51" stroke-linecap="round" />
</g>
		<g transform="matrix(0.62 0 0 0.62 -64.37 -75.04)" id="path9972"  >
<path style="stroke: rgb(0,0,0); stroke-width: 1; stroke-dasharray: none; stroke-linecap: butt; stroke-dashoffset: 0; stroke-linejoin: miter; stroke-miterlimit: 4; fill: rgb(170,0,0); fill-rule: evenodd; opacity: 1;"  transform=" translate(-319.19, -297.24)" d="m 290.73 307.58 c -1.14 0.1 -3.09 -2.49 -4.6 -4 c -1.55 -1.55 -1.61 -4.36 -1 -6.2 c 0.57 -1.71 -0.36 -3.84 -0.8 -5.6 c -0.73 -2.95 3.46 -1.88 5 -2.4 c 1.86 -0.62 4.89 -1.07 6.8 -0.6 c 3.4 0.85 7.07 -1.2 10.4 -1.2 c 4.17 0 9.25 2.83 13.19 0.2 c 2.74 -1.82 9.62 -0.4 12.8 -0.4 c 2.48 0 4 1.8 6.8 1.8 c 2.56 0 6.08 1.22 8.39 1.8 c 1.78 0.45 4.9 2.9 6 4 c 1.18 1.18 -0.38 4.57 -1 5.8 c -0.93 1.85 -0.5 4.45 -2.4 5.4 c -2.27 1.13 -3.48 0.58 -5.8 0 c -2.04 -0.51 -3.98 -1.1 -5.99 -1.6 c -2.17 -0.54 -4.11 -0.6 -6.4 -0.6 c -2.19 0 -4.16 -0.8 -6.4 -0.8 c -2.28 0 -4.46 0.2 -6.8 0.2 c -2.01 0 -4.06 -0.2 -6 -0.2 c -1.95 0 -3.36 0.4 -5.39 0.4 c -2.1 0 -3.6 0.9 -5.6 1.4 c -1.98 0.49 -4.97 0.16 -6.2 1.4 c -1.24 1.23 -3.54 1.53 -4.6 1" stroke-linecap="round" />
</g>
		<g transform="matrix(0.62 0 0 0.62 -64.37 -75.04)" id="path9974"  >
<linearGradient id="SVGID_linearGradient40971_487" gradientUnits="userSpaceOnUse" gradientTransform="matrix(1 0 0 1 128.18 75.56)"  x1="170.36" y1="212.89" x2="170.67" y2="221.68">
<stop offset="0%" style="stop-color:rgb(255,0,0);stop-opacity: 1"/>
<stop offset="100%" style="stop-color:rgb(255,0,0);stop-opacity: 0"/>
</linearGradient>
<path style="stroke: rgb(0,0,0); stroke-width: 1; stroke-dasharray: none; stroke-linecap: butt; stroke-dashoffset: 0; stroke-linejoin: miter; stroke-miterlimit: 4; fill: url(#SVGID_linearGradient40971_487); fill-rule: evenodd; opacity: 1;"  transform=" translate(-319.19, -297.24)" d="m 290.73 307.58 c -1.14 0.1 -3.09 -2.49 -4.6 -4 c -1.55 -1.55 -1.61 -4.36 -1 -6.2 c 0.57 -1.71 -0.36 -3.84 -0.8 -5.6 c -0.73 -2.95 3.46 -1.88 5 -2.4 c 1.86 -0.62 4.89 -1.07 6.8 -0.6 c 3.4 0.85 7.07 -1.2 10.4 -1.2 c 4.17 0 9.25 2.83 13.19 0.2 c 2.74 -1.82 9.62 -0.4 12.8 -0.4 c 2.48 0 4 1.8 6.8 1.8 c 2.56 0 6.08 1.22 8.39 1.8 c 1.78 0.45 4.9 2.9 6 4 c 1.18 1.18 -0.38 4.57 -1 5.8 c -0.93 1.85 -0.5 4.45 -2.4 5.4 c -2.27 1.13 -3.48 0.58 -5.8 0 c -2.04 -0.51 -3.98 -1.1 -5.99 -1.6 c -2.17 -0.54 -4.11 -0.6 -6.4 -0.6 c -2.19 0 -4.16 -0.8 -6.4 -0.8 c -2.28 0 -4.46 0.2 -6.8 0.2 c -2.01 0 -4.06 -0.2 -6 -0.2 c -1.95 0 -3.36 0.4 -5.39 0.4 c -2.1 0 -3.6 0.9 -5.6 1.4 c -1.98 0.49 -4.97 0.16 -6.2 1.4 c -1.24 1.23 -3.54 1.53 -4.6 1" stroke-linecap="round" />
</g>
		<g transform="matrix(0.62 0 0 0.62 -56.53 -94.19)" id="path10879"  >
<linearGradient id="SVGID_linearGradient40973_488" gradientUnits="userSpaceOnUse" gradientTransform="matrix(1 0 0 1 128.18 75.56)"  x1="192.59" y1="183.03" x2="201.89" y2="193.23">
<stop offset="0%" style="stop-color:rgb(255,170,170);stop-opacity: 1"/>
<stop offset="100%" style="stop-color:rgb(255,170,170);stop-opacity: 0"/>
</linearGradient>
<path style="stroke: none; stroke-width: 1; stroke-dasharray: none; stroke-linecap: butt; stroke-dashoffset: 0; stroke-linejoin: miter; stroke-miterlimit: 4; fill: url(#SVGID_linearGradient40973_488); fill-rule: evenodd; opacity: 1;"  transform=" translate(-331.82, -266.39)" d="m 354.11 244.4 c -0.57 0.3 -3.18 2.27 -5 3 c -2.3 0.92 -3.57 1.94 -6.19 2.6 c -0.4 0.09 -0.8 0.13 -1.2 0.2 c -2.2 0.36 -4.31 0.67 -6.4 1.19 c -1.87 0.47 -4.44 1.04 -5.6 2.2 c -1.3 1.3 -3.11 2.81 -4.6 3.4 c -1.39 0.56 -3.58 3.24 -4.4 4.6 c -1.17 1.95 -0.06 3.46 -2 5.4 c -1.53 1.53 -2.58 2.9 -3.6 4.6 c -1.16 1.94 -3.03 4.32 -3.6 6.6 c -0.45 1.82 -1.59 3.85 -1.59 5.79 c 0 1.48 -0.4 2.89 -0.4 4.4" stroke-linecap="round" />
</g>
		<g transform="matrix(0.62 0 0 0.62 -50.45 -94.01)" id="path10881"  >
<linearGradient id="SVGID_linearGradient40975_489" gradientUnits="userSpaceOnUse" gradientTransform="matrix(1 0 0 1 128.18 75.56)"  x1="203.64" y1="189.13" x2="211.88" y2="193.93">
<stop offset="0%" style="stop-color:rgb(255,170,170);stop-opacity: 1"/>
<stop offset="100%" style="stop-color:rgb(255,170,170);stop-opacity: 0"/>
</linearGradient>
<path style="stroke: none; stroke-width: 1; stroke-dasharray: none; stroke-linecap: butt; stroke-dashoffset: 0; stroke-linejoin: miter; stroke-miterlimit: 4; fill: url(#SVGID_linearGradient40975_489); fill-rule: evenodd; opacity: 1;"  transform=" translate(-341.62, -266.69)" d="m 354.51 245.6 c 0 0.35 -4.45 4.08 -5.8 5.2 c -1.5 1.25 -3.76 2.76 -5.2 4.19 c -2.01 2.01 -4.13 2.92 -6.19 5.4 c -0.34 0.4 -0.67 0.8 -1 1.2 c -1.31 1.57 -2.36 2.91 -3.2 4.6 c -0.91 1.81 -0.6 3.98 -0.6 6 c 0 2.07 -1.31 4.05 -1.8 6 c -0.46 1.85 -1.1 3.77 -1.6 5.79 c -0.32 1.26 -0.22 3.34 -0.4 3.8" stroke-linecap="round" />
</g>
		<g transform="matrix(0.62 0 0 0.62 -60.51 -94.55)" id="path10883"  >
<linearGradient id="SVGID_linearGradient40977_490" gradientUnits="userSpaceOnUse" gradientTransform="matrix(1 0 0 1 128.18 75.56)"  x1="182.59" y1="181.86" x2="190.69" y2="189.26">
<stop offset="0%" style="stop-color:rgb(255,170,170);stop-opacity: 1"/>
<stop offset="100%" style="stop-color:rgb(255,170,170);stop-opacity: 0"/>
</linearGradient>
<path style="stroke: none; stroke-width: 1; stroke-dasharray: none; stroke-linecap: butt; stroke-dashoffset: 0; stroke-linejoin: miter; stroke-miterlimit: 4; fill: url(#SVGID_linearGradient40977_490); fill-rule: evenodd; opacity: 1;"  transform=" translate(-325.42, -265.82)" d="m 294.13 288.58 c -0.13 0.51 2.62 -2.68 3.6 -6.59 c 0.58 -2.34 1.23 -4.37 1.6 -6.6 c 0.25 -1.53 2.22 -3.85 3 -5.4 c 0.9 -1.81 2.31 -3.42 3 -4.8 c 0.73 -1.47 2.86 -1.95 3.8 -3.2 c 1.39 -1.85 3.41 -3.21 4.99 -4.8 c 1.67 -1.66 2.58 -2.81 5 -4.2 c 2.11 -1.2 3.94 -2.16 6 -3.19 c 1.85 -0.93 4.74 -1.86 6 -2.8 c 1.52 -1.14 5.69 -1.03 7.6 -1.6 c 2.02 -0.61 5.06 -1.2 7.19 -1.2 c 2.08 0 3.92 -1.2 6 -1.2 c 2.24 0 4.8 1.53 4.8 3.6 c 0 0.78 -0.4 0.5 -1.6 0.2" stroke-linecap="round" />
</g>
		<g transform="matrix(0.62 0 0 0.62 -21.7 -22.58)" id="path39615"  >
<path style="stroke: rgb(0,0,0); stroke-width: 0.87492; stroke-dasharray: none; stroke-linecap: butt; stroke-dashoffset: 0; stroke-linejoin: miter; stroke-miterlimit: 4; fill: rgb(255,255,0); fill-rule: evenodd; opacity: 1;"  transform=" translate(-387.91, -381.71)" d="m 360.79 329.27 c 2.68 0.17 9.35 4.12 13.77 7.26 c 6.27 4.44 9.8 10.7 16.08 15.15 c 8.36 5.94 17.66 13.88 23.98 21.4 c 4.32 5.13 11.08 8.32 14.07 14.36 c 1.92 3.88 -3.53 8.86 -8.43 12.2 c -4 2.72 -8.48 7.03 -11.67 10.52 c -3.89 4.25 -9.52 7.42 -13.47 11.75 c -3.39 3.69 -7.95 7.41 -12.09 10.23 c -6.71 4.57 -5.75 2.81 -11.67 -1.38 c -5.35 -3.8 -12.89 -6.74 -8.08 -12 c 3.48 -3.8 9.78 -6.22 13.26 -10.02 c 3.33 -3.64 4.83 -7.31 9.74 -10.64 c 4.11 -2.8 12.3 -4.92 10.28 -9.01 c -1.36 -2.74 -10.58 -6.63 -12.39 -8.78 c -3.12 -3.72 -8.4 -7.21 -12.51 -10.12 c -4.43 -3.14 -9.33 -5.48 -13.21 -9.37 c -3.96 -3.98 -6.22 -7.2 -9.53 -11.15 c -2.49 -2.96 -2.91 -10.21 -0.96 -13.83 c 2.59 -4.8 7.59 -8.93 12.83 -6.57 z" stroke-linecap="round" />
</g>
		<g transform="matrix(0.62 0 0 0.62 16.71 22.82)" id="path39617"  >
<path style="stroke: rgb(0,0,0); stroke-width: 0.75685; stroke-dasharray: none; stroke-linecap: butt; stroke-dashoffset: 0; stroke-linejoin: miter; stroke-miterlimit: 4; fill: rgb(36,28,28); fill-rule: evenodd; opacity: 1;"  transform=" translate(-449.78, -454.82)" d="m 308.23 421.58 l 225.78 50.23 l 60.07 16.26 l -61.37 -11.54 l -227.24 -50.37 l 2.76 -4.58 z" stroke-linecap="round" />
</g>
		<g transform="matrix(0.62 0 0 0.62 18.06 22.95)" id="path39619"  >
<linearGradient id="SVGID_linearGradient40947_491" gradientUnits="userSpaceOnUse" gradientTransform="matrix(0.94 0.19 -0.22 0.79 173.94 102.08)"  x1="341.47" y1="348.76" x2="341.25" y2="356.12">
<stop offset="0%" style="stop-color:rgb(244,215,215);stop-opacity: 1"/>
<stop offset="100%" style="stop-color:rgb(244,215,215);stop-opacity: 0"/>
</linearGradient>
<path style="stroke: rgb(0,0,0); stroke-width: 0.75685; stroke-dasharray: none; stroke-linecap: butt; stroke-dashoffset: 0; stroke-linejoin: miter; stroke-miterlimit: 4; fill: url(#SVGID_linearGradient40947_491); fill-rule: evenodd; opacity: 1;"  transform=" translate(-451.94, -455.04)" d="m 310.39 421.79 l 225.78 50.23 l 60.07 16.26 l -61.37 -11.54 l -227.24 -50.37 l 2.76 -4.58 z" stroke-linecap="round" />
</g>
		<g transform="matrix(0.62 0 0 0.62 -80.95 1.27)" id="path39621"  >
<path style="stroke: rgb(0,0,0); stroke-width: 0.75685; stroke-dasharray: none; stroke-linecap: butt; stroke-dashoffset: 0; stroke-linejoin: miter; stroke-miterlimit: 4; fill: rgb(255,127,42); fill-rule: evenodd; opacity: 1;"  transform=" translate(-292.51, -420.13)" d="m 324.72 424.93 s -16.46 -5.92 -20.85 -6.68 s -38.88 -8.32 -38.88 -8.32 s -4.79 -1.72 -5.81 2.78 c -0.6 2.62 -0.9 3.68 3.34 5.37 l 38.99 9.08 s 19.53 3.75 22.17 3.47 c 2.41 -0.27 3.65 -4.64 1.04 -5.7 z" stroke-linecap="round" />
</g>
		<g transform="matrix(0.62 0 0 0.62 -97.09 -2.24)" id="path39623"  >
<path style="stroke: rgb(0,0,0); stroke-width: 0.75685; stroke-dasharray: none; stroke-linecap: butt; stroke-dashoffset: 0; stroke-linejoin: miter; stroke-miterlimit: 4; fill: none; fill-rule: nonzero; opacity: 1;"  transform=" translate(-266.51, -414.48)" d="m 267.07 410.44 c 2.68 3.82 -1.62 7.87 -2 8.07" stroke-linecap="round" />
</g>
		<g transform="matrix(0.62 0 0 0.62 -93.09 -1.32)" id="path39625"  >
<path style="stroke: rgb(0,0,0); stroke-width: 0.75685; stroke-dasharray: none; stroke-linecap: butt; stroke-dashoffset: 0; stroke-linejoin: miter; stroke-miterlimit: 4; fill: none; fill-rule: nonzero; opacity: 1;"  transform=" translate(-272.95, -415.95)" d="m 273.6 411.94 c 2.83 4.73 -1.84 8.19 -2.21 8.02" stroke-linecap="round" />
</g>
		<g transform="matrix(0.62 0 0 0.62 -81.32 1.28)" id="path39627"  >
<path style="stroke: rgb(0,0,0); stroke-width: 0.80729; stroke-dasharray: none; stroke-linecap: butt; stroke-dashoffset: 0; stroke-linejoin: miter; stroke-miterlimit: 4; fill: none; fill-rule: nonzero; opacity: 1;"  transform=" translate(-291.9, -420.14)" d="m 292.46 415.9 c 2.93 4.05 -1.69 8.28 -2.09 8.49" stroke-linecap="round" />
</g>
		<g transform="matrix(0.62 0 0 0.62 -77 2.23)" id="path39629"  >
<path style="stroke: rgb(0,0,0); stroke-width: 0.8189; stroke-dasharray: none; stroke-linecap: butt; stroke-dashoffset: 0; stroke-linejoin: miter; stroke-miterlimit: 4; fill: none; fill-rule: nonzero; opacity: 1;"  transform=" translate(-298.85, -421.67)" d="m 299.58 417.3 c 3.02 5.14 -2.02 8.91 -2.41 8.73" stroke-linecap="round" />
</g>
		<g transform="matrix(0.62 0 0 0.62 70.15 35.14)" id="path39631"  >
<path style="stroke: none; stroke-width: 1; stroke-dasharray: none; stroke-linecap: butt; stroke-dashoffset: 0; stroke-linejoin: miter; stroke-miterlimit: 4; fill: rgb(85,0,0); fill-rule: nonzero; opacity: 1;"  transform=" translate(-535.82, -474.66)" d="m 529.24 476.36 c -1.02 4.5 0.47 7.97 3.91 8.79 c 3.97 -0.16 5.71 -2.22 7.36 -5 c 1.5 -2.98 2.15 -6.82 2.21 -9.5 c 0.12 -5.15 -3.06 -7.47 -6.63 -6.08 c -2.55 0.99 -3.78 2.31 -5.36 6.15 l 5.25 1.41 s 0.38 4 -1.46 4.8 c -1.67 0.72 -0.37 0.19 -2.14 0.01 c -1.4 -0.14 -3.14 -0.58 -3.14 -0.58 z" stroke-linecap="round" />
</g>
		<g transform="matrix(0.62 0 0 0.62 69.64 34.92)" id="path39633"  >
<path style="stroke: none; stroke-width: 1; stroke-dasharray: none; stroke-linecap: butt; stroke-dashoffset: 0; stroke-linejoin: miter; stroke-miterlimit: 4; fill: rgb(255,127,42); fill-rule: nonzero; opacity: 1;"  transform=" translate(-535, -474.32)" d="m 528.43 475.98 c -1 4.43 0.5 7.85 3.94 8.67 c 3.96 -0.14 5.7 -2.17 7.33 -4.91 c 1.49 -2.93 2.12 -6.71 2.17 -9.35 c 0.1 -5.07 -3.09 -7.37 -6.64 -6.02 c -2.55 0.97 -3.78 2.28 -5.34 6.05 l 5.26 1.41 s 0.4 3.94 -1.44 4.72 c -1.67 0.71 -0.37 0.19 -2.14 0.01 c -1.4 -0.15 -3.14 -0.58 -3.14 -0.58 z" stroke-linecap="round" />
</g>
		<g transform="matrix(0.62 0 0 0.62 -32.18 7.39)" id="path39635"  >
<path style="stroke: rgb(0,0,0); stroke-width: 0.91974; stroke-dasharray: none; stroke-linecap: butt; stroke-dashoffset: 0; stroke-linejoin: miter; stroke-miterlimit: 4; fill: rgb(255,0,0); fill-rule: nonzero; opacity: 1;"  transform=" translate(-371.04, -429.98)" d="m 352.08 436.4 c -0.67 0.89 5.29 2.07 8.67 2.64 c 1.17 0.2 2.76 0.71 3.99 0.89 c 1.76 -0.21 6.38 -1.99 6.3 -4.61 c -0.03 -1.21 3.48 -0.66 3.89 -0.95 c 2 -1.4 -5.16 5.75 -4.3 6.24 c 0.68 0.38 0.7 4.02 4.23 4.07 c 2.93 0.04 10.71 -6.96 11.76 -6.18 c 0.86 1.2 -0.08 5.03 -3.2 7.33 c -2.43 1.79 -6.76 2.2 -8.81 2.68 c -2.93 0.67 -6.87 -1.23 -7.79 -1.46 c -13.45 -3.45 -12.76 -8.25 -14.73 -10.34 m 3.12 -7.73 c -4.3 -4.58 -1.06 -2.25 0.75 -8.06 c 1.79 -5.77 11.79 -6.44 16.46 -9.3 c 3.4 -1.35 8.22 2.04 11.52 4.02 c 7.98 2.47 6.67 10.77 4.24 18.2 c -0.32 0.62 -1.17 2.88 -1.85 3.24 c -0.52 -0.32 -5.52 5.41 -9.14 7.33 c -1.89 1 -5.14 -1.1 -5.92 -2.01 c -2.31 -2.7 2.85 -4.97 2.29 -5.61 c 1.28 -2.62 7.09 -7.36 2.11 -8.4 c -1.37 -0.28 -7.98 -0.17 -12.77 3.16 c -0.79 0.54 -1.41 -0.24 -1.78 0.25" stroke-linecap="round" />
</g>
		<g transform="matrix(0.61 0 0 0.58 -8.37 81.22)" id="path39639"  >
<path style="stroke: rgb(0,0,0); stroke-width: 1.0412; stroke-dasharray: none; stroke-linecap: butt; stroke-dashoffset: 0; stroke-linejoin: miter; stroke-miterlimit: 4; fill: rgb(40,11,11); fill-rule: evenodd; opacity: 1;"  transform=" translate(-287.72, -478.79)" d="m 301.69 485.69 c -3.29 0 -171.79 23.17 -186.59 23.17 c -14.79 0 -50.138 -9.8 -50.138 -9.8 l -3.288 6.24 s 40.276 18.71 74.796 15.15 c 34.53 -3.57 48.5 -6.24 48.5 -6.24 l 303.3 -43.67 s 15.62 -15.15 23.02 -23.17 s -4.11 -10.7 -4.11 -10.7 s -23.02 22.28 -32.88 23.17 c -9.86 0.9 -172.61 24.96 -172.61 25.85 z" stroke-linecap="round" />
</g>
		<g transform="matrix(0.61 0 0 0.58 -9.38 80.74)" id="path39641"  >
<path style="stroke: rgb(0,0,0); stroke-width: 1.0273; stroke-dasharray: none; stroke-linecap: butt; stroke-dashoffset: 0; stroke-linejoin: miter; stroke-miterlimit: 4; fill: rgb(233,175,175); fill-rule: evenodd; opacity: 1;"  transform=" translate(-286.08, -477.97)" d="m 299.94 484.73 c -3.26 0 -170.54 22.73 -185.23 22.73 s -49.779 -9.62 -49.779 -9.62 l -3.264 6.12 s 39.983 18.35 74.253 14.86 c 34.28 -3.5 48.15 -6.12 48.15 -6.12 l 301.11 -42.82 s 15.5 -14.86 22.85 -22.73 c 7.34 -7.86 -4.08 -10.48 -4.08 -10.48 s -22.85 21.85 -32.64 22.72 c -9.8 0.87 -171.37 24.47 -171.37 25.34 z" stroke-linecap="round" />
</g>
		<g transform="matrix(0.62 0 0 0.62 1.65 83.16)" id="path39643"  >
<path style="stroke: rgb(0,0,0); stroke-width: 1; stroke-dasharray: none; stroke-linecap: butt; stroke-dashoffset: 0; stroke-linejoin: miter; stroke-miterlimit: 4; fill: rgb(211,95,95); fill-rule: evenodd; opacity: 1;"  transform=" translate(-425.51, -551.99)" d="m 423.18 543.45 c -2.53 2.42 -14.5 4.47 -22.19 5.75 c -9.52 1.59 -10.69 13.98 -0.82 16.44 c 8.6 2.15 14.62 1.28 23.01 -0.82 c 9.06 -2.26 14.84 -4.11 24.67 -4.11 c 9.2 0 12.69 -15.25 7.39 -20.55 c -6.7 -6.7 -18.14 -0.79 -24.66 2.47 c -2.31 1.15 -4.95 0.82 -7.4 0.82 z" stroke-linecap="round" />
</g>
		<g transform="matrix(0.62 0 0 0.62 -5.99 87.26)" id="path39645"  >
<path style="stroke: rgb(0,0,0); stroke-width: 1; stroke-dasharray: none; stroke-linecap: butt; stroke-dashoffset: 0; stroke-linejoin: miter; stroke-miterlimit: 4; fill: rgb(244,215,215); fill-rule: evenodd; opacity: 1;"  transform=" translate(-413.21, -558.6)" d="m 429.14 568.33 s -0.36 -8.35 -4.22 -14.15 c -3.51 -5.28 -8.87 -8.48 -11.1 -7.92 c -4.67 1.17 -15.45 2.21 -16.49 3.37 c -0.5 0.57 3.56 1.57 7.62 6.41 c 3.62 4.31 5.25 11.34 4.98 13.98 c -0.3 2.81 18.95 -1.3 19.21 -1.69 z" stroke-linecap="round" />
</g>
		<g transform="matrix(0.62 0 0 0.58 -3.08 87.43)" id="path39649"  >
<path style="stroke: rgb(0,0,0); stroke-width: 1.0412; stroke-dasharray: none; stroke-linecap: butt; stroke-dashoffset: 0; stroke-linejoin: miter; stroke-miterlimit: 4; fill: rgb(40,11,11); fill-rule: evenodd; opacity: 1;"  transform=" translate(-287.72, -478.79)" d="m 301.69 485.69 c -3.29 0 -171.79 23.17 -186.59 23.17 c -14.79 0 -50.138 -9.8 -50.138 -9.8 l -3.288 6.24 s 40.276 18.71 74.796 15.15 c 34.53 -3.57 48.5 -6.24 48.5 -6.24 l 303.3 -43.67 s 15.62 -15.15 23.02 -23.17 s -4.11 -10.7 -4.11 -10.7 s -23.02 22.28 -32.88 23.17 c -9.86 0.9 -172.61 24.96 -172.61 25.85 z" stroke-linecap="round" />
</g>
		<g transform="matrix(0.62 0 0 0.58 -4.1 86.95)" id="path39651"  >
<path style="stroke: rgb(0,0,0); stroke-width: 1.0273; stroke-dasharray: none; stroke-linecap: butt; stroke-dashoffset: 0; stroke-linejoin: miter; stroke-miterlimit: 4; fill: rgb(233,175,175); fill-rule: evenodd; opacity: 1;"  transform=" translate(-286.08, -477.97)" d="m 299.94 484.73 c -3.26 0 -170.54 22.73 -185.23 22.73 s -49.779 -9.62 -49.779 -9.62 l -3.264 6.12 s 39.983 18.35 74.253 14.86 c 34.28 -3.5 48.15 -6.12 48.15 -6.12 l 301.11 -42.82 s 15.5 -14.86 22.85 -22.73 c 7.34 -7.86 -4.08 -10.48 -4.08 -10.48 s -22.85 21.85 -32.64 22.72 c -9.8 0.87 -171.37 24.47 -171.37 25.34 z" stroke-linecap="round" />
</g>
		<g transform="matrix(0.62 0 0 0.62 10.4 26.37)" id="path39653"  >
<path style="stroke: rgb(0,0,0); stroke-width: 1; stroke-dasharray: none; stroke-linecap: butt; stroke-dashoffset: 0; stroke-linejoin: miter; stroke-miterlimit: 4; fill: rgb(0,128,128); fill-rule: evenodd; opacity: 1;"  transform=" translate(-439.61, -460.54)" d="m 446.2 370.11 c 2.84 4.6 11.63 12.45 18.09 18.91 c 5.33 5.33 4.73 15.65 6.57 23.01 c 1.36 5.41 -4.96 19.8 -7.4 24.66 c -3.14 6.3 -7.4 17.31 -9.04 23.84 c -2.45 9.83 2.58 17.98 -4.93 25.49 c -3.2 3.19 5.31 9.11 3.29 13.15 c -3.18 6.35 -1.65 15.33 -1.65 23.02 c 0 9.91 -0.82 12.81 -0.82 20.55 c 0 4.54 -13.09 8.22 -18.9 8.22 c -11.07 0 -14.85 1.02 -11.51 -12.33 c 2.23 -8.92 -2.47 -16.01 -2.47 -24.66 c 0 -7.45 -2.35 -18.17 -5.75 -23.84 c -3.32 -5.53 0 -18.35 0 -24.66 c 0 -8.2 -0.83 -16.28 -0.83 -24.67 c 0 -8.9 -0.34 -14.54 -2.46 -23.01 c -1.98 -7.91 10.08 -15.84 13.97 -19.73 c 6.91 -6.91 15.67 -15.74 18.91 -23.84 c 0.79 -1.99 3.29 -2.74 4.93 -4.11 z" stroke-linecap="round" />
</g>
		<g transform="matrix(0.62 0 0 0.62 14.48 86.44)" id="path39655"  >
<path style="stroke: rgb(0,0,0); stroke-width: 1; stroke-dasharray: none; stroke-linecap: butt; stroke-dashoffset: 0; stroke-linejoin: miter; stroke-miterlimit: 4; fill: rgb(211,95,95); fill-rule: evenodd; opacity: 1;"  transform=" translate(-446.17, -557.28)" d="m 443.85 548.74 c -2.54 2.42 -14.51 4.47 -22.2 5.75 c -9.52 1.59 -10.69 13.98 -0.82 16.44 c 8.6 2.15 14.62 1.28 23.02 -0.82 c 9.06 -2.26 14.83 -4.11 24.66 -4.11 c 9.2 0 12.7 -15.25 7.4 -20.55 c -6.71 -6.7 -18.15 -0.79 -24.67 2.47 c -2.3 1.15 -4.95 0.82 -7.39 0.82 z" stroke-linecap="round" />
</g>
		<g transform="matrix(0.62 0 0 0.62 25.27 27.32)" id="path39657"  >
<path style="stroke: rgb(0,0,0); stroke-width: 1; stroke-dasharray: none; stroke-linecap: butt; stroke-dashoffset: 0; stroke-linejoin: miter; stroke-miterlimit: 4; fill: rgb(0,128,128); fill-rule: evenodd; opacity: 1;"  transform=" translate(-463.56, -462.07)" d="m 470.15 371.64 c 2.84 4.61 11.63 12.45 18.09 18.91 c 5.33 5.33 4.73 15.65 6.57 23.02 c 1.36 5.41 -4.96 19.79 -7.4 24.66 c -3.15 6.3 -7.4 17.3 -9.04 23.84 c -2.45 9.82 2.58 17.97 -4.93 25.48 c -3.2 3.2 5.31 9.11 3.29 13.15 c -3.18 6.36 -1.65 15.33 -1.65 23.02 c 0 9.91 -0.82 12.82 -0.82 20.55 c 0 4.54 -13.09 8.22 -18.91 8.22 c -11.06 0 -14.84 1.02 -11.5 -12.33 c 2.22 -8.91 -2.47 -16 -2.47 -24.66 c 0 -7.45 -2.35 -18.16 -5.75 -23.84 c -3.32 -5.53 0 -18.35 0 -24.66 c 0 -8.2 -0.83 -16.28 -0.83 -24.66 c 0 -8.91 -0.34 -14.54 -2.46 -23.02 c -1.98 -7.9 10.08 -15.84 13.97 -19.73 c 6.91 -6.9 15.67 -15.74 18.91 -23.84 c 0.79 -1.98 3.29 -2.74 4.93 -4.11 z" stroke-linecap="round" />
</g>
		<g transform="matrix(0.62 0 0 0.62 -80.95 1.27)" id="path39659"  >
<linearGradient id="SVGID_linearGradient40949_492" gradientUnits="userSpaceOnUse" gradientTransform="matrix(1 0 0 1 128.18 75.56)"  x1="162.16" y1="350.15" x2="164.32" y2="339.31">
<stop offset="0%" style="stop-color:rgb(43,0,0);stop-opacity: 1"/>
<stop offset="100%" style="stop-color:rgb(43,0,0);stop-opacity: 0"/>
</linearGradient>
<path style="stroke: rgb(0,0,0); stroke-width: 0.75685; stroke-dasharray: none; stroke-linecap: butt; stroke-dashoffset: 0; stroke-linejoin: miter; stroke-miterlimit: 4; fill: url(#SVGID_linearGradient40949_492); fill-rule: evenodd; opacity: 1;"  transform=" translate(-292.51, -420.13)" d="m 324.72 424.93 s -16.46 -5.92 -20.85 -6.68 s -38.88 -8.32 -38.88 -8.32 s -4.79 -1.72 -5.81 2.78 c -0.6 2.62 -0.9 3.68 3.34 5.37 l 38.99 9.08 s 19.53 3.75 22.17 3.47 c 2.41 -0.27 3.65 -4.64 1.04 -5.7 z" stroke-linecap="round" />
</g>
		<g transform="matrix(0.62 0 0 0.62 -15.49 -27.99)" id="path39661"  >
<path style="stroke: rgb(0,0,0); stroke-width: 0.7; stroke-dasharray: none; stroke-linecap: butt; stroke-dashoffset: 0; stroke-linejoin: miter; stroke-miterlimit: 4; fill: rgb(255,255,0); fill-rule: evenodd; opacity: 1;"  transform=" translate(-397.91, -373)" d="m 327.56 349.02 c -3.73 4.24 -3.13 18.38 1.16 22.67 c 11.07 10.48 11.88 13.8 29.06 17.44 c 1.91 3.8 9.02 5.81 11.63 9.3 c 2.45 3.26 12.82 5.59 16.28 6.97 c 6.19 2.48 10.85 3.55 17.43 4.65 c 5.94 0.99 6.47 5.54 12.21 6.98 c 5.9 1.47 11.64 2.62 17.44 4.07 c 6.12 1.52 11.77 1.67 17.44 -1.17 c 6.12 -3.06 10.11 -7.79 14.53 -12.2 c 3.76 -3.77 6.65 -12.03 7.55 -17.44 c 4.31 -29.19 -3.17 -20.78 -18.6 -36.04 c -5.78 -7.97 -32.16 -21.74 -43.01 -20.35 c -23.11 -4.15 -34.9 -0.71 -56.96 -9.3 c -8.2 -2.04 -13.97 0.02 -19.77 5.82 c -4.81 4.81 -9.83 1.54 -11.62 8.72 c -0.3 1.2 6 8.91 5.23 9.88 z" stroke-linecap="round" />
</g>
		<g transform="matrix(0.62 0 0 0.62 -63.15 -60.81)" id="path39663"  >
<path style="stroke: rgb(0,0,0); stroke-width: 0.2; stroke-dasharray: none; stroke-linecap: butt; stroke-dashoffset: 0; stroke-linejoin: miter; stroke-miterlimit: 4; fill: rgb(211,141,95); fill-rule: nonzero; opacity: 1;"  transform=" translate(-321.17, -320.16)" d="m 351.28 325.06 c -0.31 2.4 -6.23 -2.69 -7.75 -0.58 c -2.31 3.21 1.02 8.78 -3.48 12.02 c -5.16 3.71 -9.35 9.09 -16.74 11.99 c -1.38 0.54 -3.67 0.81 -5.28 1.27 c -12.12 3.48 -29.15 -25.67 -26.74 -42.64 c 2.42 -16.97 18.74 -18.81 34.37 -15.48 c 15.61 3.33 27.43 14.1 25.04 31.05" stroke-linecap="round" />
</g>
		<g transform="matrix(0.62 0 0 0.62 -52.53 -62.92)" id="path39665"  >
<linearGradient id="SVGID_linearGradient40951_493" gradientUnits="userSpaceOnUse" gradientTransform="matrix(1 0 0 1 128.18 75.56)"  x1="213.06" y1="236.78" x2="208.33" y2="242.77">
<stop offset="0%" style="stop-color:rgb(211,114,95);stop-opacity: 1"/>
<stop offset="100%" style="stop-color:rgb(211,114,95);stop-opacity: 0"/>
</linearGradient>
<path style="stroke: rgb(0,0,0); stroke-width: 0.5; stroke-dasharray: none; stroke-linecap: butt; stroke-dashoffset: 0; stroke-linejoin: miter; stroke-miterlimit: 4; fill: url(#SVGID_linearGradient40951_493); fill-rule: evenodd; opacity: 1;"  transform=" translate(-338.26, -316.75)" d="m 332.35 312.61 v -0.54 c 0 -2.57 4.91 -5.35 6.98 -4.83 c 3.61 0.9 3.22 4.87 3.22 7.79 c 0 3.21 1.62 4.46 1.62 7.25 c 0 1.42 -0.54 4.23 -1.35 4.03 c -1.77 -0.44 -2.92 0.42 -4.83 -0.54" stroke-linecap="round" />
</g>
		<g transform="matrix(0.62 0 0 0.62 -78.81 -61.5)" id="path39667"  >
<path style="stroke: rgb(0,0,0); stroke-width: 0.86137; stroke-dasharray: none; stroke-linecap: butt; stroke-dashoffset: 0; stroke-linejoin: miter; stroke-miterlimit: 4; fill: rgb(77,77,77); fill-rule: evenodd; opacity: 1;"  transform=" translate(-295.94, -319.04)" d="m 288.85 315.23 c 1.91 -1.47 4.17 -1.93 6.37 -2.67 c 2.98 -0.99 4.18 0.84 6.37 0.99 c 1.75 0.11 1.81 4.72 1.98 6.04 c 0.37 2.83 -1.93 4.09 -3.89 5.21 c -1.85 1.07 -5.1 1.1 -7.08 0.96 c -2.28 -0.15 -3.96 -2.78 -4.21 -4.76 c -0.25 -1.96 -0.07 -3.83 0.46 -5.77 z" stroke-linecap="round" />
</g>
		<g transform="matrix(0.62 0 0 0.62 -66.65 -63.75)" id="path39669"  >
<path style="stroke: rgb(0,0,0); stroke-width: 0.94232; stroke-dasharray: none; stroke-linecap: butt; stroke-dashoffset: 0; stroke-linejoin: miter; stroke-miterlimit: 4; fill: rgb(77,77,77); fill-rule: evenodd; opacity: 1;"  transform=" translate(-315.53, -315.41)" d="m 307.65 310.97 c 2.23 -1.43 4.81 -1.78 7.34 -2.42 c 3.41 -0.86 4.71 1.14 7.19 1.42 c 1.97 0.23 1.87 5.08 2.01 6.49 c 0.3 3 -2.35 4.18 -4.61 5.25 c -2.14 1.01 -5.83 0.84 -8.07 0.58 c -2.59 -0.3 -4.39 -3.18 -4.6 -5.27 c -0.21 -2.08 0.06 -4.04 0.74 -6.05 z" stroke-linecap="round" />
</g>
		<g transform="matrix(0.62 0 0 0.62 -71.51 -56.45)" id="path39671"  >
<linearGradient id="SVGID_linearGradient40953_494" gradientUnits="userSpaceOnUse" gradientTransform="matrix(1 0 0 1 128.18 75.56)"  x1="174.27" y1="254.79" x2="179.52" y2="250.15">
<stop offset="0%" style="stop-color:rgb(255,153,85);stop-opacity: 1"/>
<stop offset="100%" style="stop-color:rgb(255,153,85);stop-opacity: 0"/>
</linearGradient>
<path style="stroke: rgb(0,0,0); stroke-width: 1; stroke-dasharray: none; stroke-linecap: butt; stroke-dashoffset: 0; stroke-linejoin: miter; stroke-miterlimit: 4; fill: url(#SVGID_linearGradient40953_494); fill-rule: evenodd; opacity: 1;"  transform=" translate(-307.71, -327.18)" d="m 303.6 320.4 c -0.47 0.75 -0.99 5.05 -1.61 7.52 c -0.62 2.5 -0.86 5.16 2.15 5.91 c 2.78 0.7 3.54 -1.56 5.91 -2.15 c 2.15 -0.53 2.73 -0.35 3.76 -2.42" stroke-linecap="round" />
</g>
		<g transform="matrix(0.62 0 0 0.62 -68.41 -49.92)" id="path39673"  >
<linearGradient id="SVGID_linearGradient40955_495" gradientUnits="userSpaceOnUse" gradientTransform="matrix(1 0 0 1 128.18 75.56)"  x1="180.31" y1="261.11" x2="184.52" y2="264.82">
<stop offset="0%" style="stop-color:rgb(255,42,42);stop-opacity: 1"/>
<stop offset="100%" style="stop-color:rgb(160,44,44);stop-opacity: 0"/>
</linearGradient>
<path style="stroke: rgb(0,0,0); stroke-width: 0.5; stroke-dasharray: none; stroke-linecap: butt; stroke-dashoffset: 0; stroke-linejoin: miter; stroke-miterlimit: 4; fill: url(#SVGID_linearGradient40955_495); fill-rule: evenodd; opacity: 1;"  transform=" translate(-312.7, -337.69)" d="m 307.9 337.59 c 0.49 -0.12 1.39 0.07 1.75 -0.04 c 1.78 -0.54 1.63 -0.96 3.89 -1.84 c 1.76 -0.68 4.03 0.7 5.64 -0.27 c 1.94 -1.16 -3.45 3.22 -5.64 3.76 c -2.26 0.57 -5.91 1.61 -7.25 0.27 c -1.29 -1.28 0.24 -1.63 1.61 -1.88 z" stroke-linecap="round" />
</g>
		<g transform="matrix(0.62 0 0 0.62 -68.16 -48.66)" id="path39675"  >
<linearGradient id="SVGID_linearGradient40957_496" gradientUnits="userSpaceOnUse" gradientTransform="matrix(1 0 0 1 128.18 75.56)"  x1="183.86" y1="268.43" x2="183.72" y2="264.94">
<stop offset="0%" style="stop-color:rgb(255,42,42);stop-opacity: 1"/>
<stop offset="100%" style="stop-color:rgb(255,42,42);stop-opacity: 0"/>
</linearGradient>
<path style="stroke: rgb(0,0,0); stroke-width: 0.6; stroke-dasharray: none; stroke-linecap: butt; stroke-dashoffset: 0; stroke-linejoin: miter; stroke-miterlimit: 4; fill: url(#SVGID_linearGradient40957_496); fill-rule: evenodd; opacity: 1;"  transform=" translate(-313.1, -339.71)" d="m 307.36 340.55 c -0.94 -0.94 1.4 2.63 2.69 2.95 c 1.25 0.32 3.2 0.25 4.68 -0.4 c 1.21 -0.54 2.05 -1.55 2.3 -2.55 c 0.22 -0.87 0.4 -1.52 0.48 -2.03 c 0.16 -1.09 1.26 -1.85 1.55 -2.78" stroke-linecap="round" />
</g>
		<g transform="matrix(0.62 0 0 0.62 -58.39 -66.81)" id="path39677"  >
<path style="stroke: rgb(0,0,0); stroke-width: 1; stroke-dasharray: none; stroke-linecap: butt; stroke-dashoffset: 0; stroke-linejoin: miter; stroke-miterlimit: 4; fill: rgb(0,0,0); fill-rule: evenodd; opacity: 1;"  transform=" translate(-328.84, -310.49)" d="m 332.49 310.81 c 0.04 -0.15 -5.96 1.2 -8.47 1.53 c -0.24 0.03 -1.46 -2.07 -0.43 -2.2 c 3 -0.4 6.46 -0.99 7.68 -1.29 c 1.62 -0.41 2.37 -0.16 3.22 0.27" stroke-linecap="round" />
</g>
		<g transform="matrix(0.62 0 0 0.62 -73.47 -63.65)" id="path39679"  >
<path style="stroke: rgb(0,0,0); stroke-width: 1; stroke-dasharray: none; stroke-linecap: butt; stroke-dashoffset: 0; stroke-linejoin: miter; stroke-miterlimit: 4; fill: rgb(77,77,77); fill-rule: evenodd; opacity: 1;"  transform=" translate(-304.54, -315.58)" d="m 302.26 315.03 c 1.69 -0.43 4.57 -4.21 4.57 -0.54 c 0 3.4 -0.31 3.03 -3.23 3.76" stroke-linecap="round" />
</g>
		<g transform="matrix(0.62 0 0 0.62 -10.27 -30.89)" id="path39681"  >
<path style="stroke: rgb(0,0,0); stroke-width: 0.98466; stroke-dasharray: none; stroke-linecap: butt; stroke-dashoffset: 0; stroke-linejoin: miter; stroke-miterlimit: 4; fill: rgb(255,255,0); fill-rule: evenodd; opacity: 1;"  transform=" translate(-406.32, -368.34)" d="m 357.58 325.76 c 2.35 -1.61 10.87 -2.33 16.9 -2.33 c 8.56 0 16.23 3.49 24.8 3.49 c 11.42 0 25.13 1.25 36.06 4.07 c 7.47 1.93 15.48 0.43 22.54 4.07 c 4.52 2.34 3.78 10.55 2.25 16.86 c -1.25 5.16 -1.69 12.1 -1.69 17.44 c 0 6.51 -2.25 13.15 -2.25 19.77 c 0 5.65 -0.96 12.1 -2.26 17.44 c -2.09 8.66 -2.63 6.4 -10.7 6.4 c -7.31 0 -15.78 2.22 -15.78 -5.82 c 0 -5.81 3.38 -12.21 3.38 -18.02 c 0 -5.56 -1.53 -9.96 0 -16.28 c 1.28 -5.3 6.46 -12.66 1.69 -15.12 c -3.2 -1.65 -13.79 0.81 -16.9 0 c -5.41 -1.39 -12.43 -1.16 -18.03 -1.16 c -6.05 0 -11.88 1.06 -18.03 0 c -6.3 -1.08 -10.61 -2.59 -16.35 -4.07 c -4.3 -1.11 -10.14 -7.56 -11.27 -12.21 c -1.49 -6.15 -0.48 -13.27 5.64 -14.53 z" stroke-linecap="round" />
</g>
		<g transform="matrix(0.62 0 0 0.62 7.15 90.24)" id="path39683"  >
<path style="stroke: rgb(0,0,0); stroke-width: 1; stroke-dasharray: none; stroke-linecap: butt; stroke-dashoffset: 0; stroke-linejoin: miter; stroke-miterlimit: 4; fill: rgb(244,215,215); fill-rule: evenodd; opacity: 1;"  transform=" translate(-434.37, -563.4)" d="m 450.3 573.13 s -0.36 -8.34 -4.22 -14.15 c -3.51 -5.27 -8.87 -8.47 -11.1 -7.92 c -4.67 1.17 -15.45 2.21 -16.49 3.38 c -0.5 0.56 3.57 1.56 7.62 6.4 c 3.62 4.32 5.26 11.34 4.98 13.98 c -0.3 2.81 18.95 -1.3 19.21 -1.69 z" stroke-linecap="round" />
</g>
		<g transform="matrix(0.62 0 0 0.62 50.45 8.95)" id="path39685"  >
<path style="stroke: rgb(0,0,0); stroke-width: 0.85156; stroke-dasharray: none; stroke-linecap: butt; stroke-dashoffset: 0; stroke-linejoin: miter; stroke-miterlimit: 4; fill: rgb(36,28,28); fill-rule: evenodd; opacity: 1;"  transform=" translate(-504.11, -432.5)" d="m 352.01 427.13 l 240.83 4.79 l 64.87 4.72 l -64.87 1.23 l -242.34 -4.6 l 1.51 -6.14 z" stroke-linecap="round" />
</g>
		<g transform="matrix(0.62 0 0 0.62 51.84 8.78)" id="path39687"  >
<linearGradient id="SVGID_linearGradient40959_497" gradientUnits="userSpaceOnUse" gradientTransform="matrix(1 0 0 1 128.39 78.94)"  x1="341.47" y1="348.76" x2="341.25" y2="356.12">
<stop offset="0%" style="stop-color:rgb(244,215,215);stop-opacity: 1"/>
<stop offset="100%" style="stop-color:rgb(244,215,215);stop-opacity: 0"/>
</linearGradient>
<path style="stroke: rgb(0,0,0); stroke-width: 0.85156; stroke-dasharray: none; stroke-linecap: butt; stroke-dashoffset: 0; stroke-linejoin: miter; stroke-miterlimit: 4; fill: url(#SVGID_linearGradient40959_497); fill-rule: evenodd; opacity: 1;"  transform=" translate(-506.34, -432.23)" d="m 354.24 426.86 l 240.83 4.78 l 64.87 4.72 l -64.87 1.23 l -242.34 -4.6 l 1.51 -6.13 z" stroke-linecap="round" />
</g>
		<g transform="matrix(0.62 0 0 0.62 -53.94 7.14)" id="path39689"  >
<path style="stroke: rgb(0,0,0); stroke-width: 0.85156; stroke-dasharray: none; stroke-linecap: butt; stroke-dashoffset: 0; stroke-linejoin: miter; stroke-miterlimit: 4; fill: rgb(255,127,42); fill-rule: evenodd; opacity: 1;"  transform=" translate(-336, -429.58)" d="m 369.51 427.09 s -18.18 -3.03 -22.81 -2.86 c -4.62 0.16 -41.38 -0.44 -41.38 -0.44 s -5.28 -0.88 -5.06 4.74 c 0.12 3.26 0.11 4.6 4.84 5.58 l 41.7 1.31 s 20.67 -0.29 23.24 -1.27 c 2.35 -0.91 2.38 -6.42 -0.53 -7.06 z" stroke-linecap="round" />
</g>
		<g transform="matrix(0.62 0 0 0.62 -71.04 6.75)" id="path39691"  >
<path style="stroke: rgb(0,0,0); stroke-width: 0.85156; stroke-dasharray: none; stroke-linecap: butt; stroke-dashoffset: 0; stroke-linejoin: miter; stroke-miterlimit: 4; fill: none; fill-rule: nonzero; opacity: 1;"  transform=" translate(-308.46, -428.94)" d="m 307.55 423.89 c 3.76 3.91 0.56 9.78 0.24 10.11" stroke-linecap="round" />
</g>
		<g transform="matrix(0.62 0 0 0.62 -66.66 6.87)" id="path39693"  >
<path style="stroke: rgb(0,0,0); stroke-width: 0.85156; stroke-dasharray: none; stroke-linecap: butt; stroke-dashoffset: 0; stroke-linejoin: miter; stroke-miterlimit: 4; fill: none; fill-rule: nonzero; opacity: 1;"  transform=" translate(-315.5, -429.14)" d="m 314.54 424.09 c 4.15 4.95 0.41 10.21 -0.01 10.1" stroke-linecap="round" />
</g>
		<g transform="matrix(0.62 0 0 0.62 -54.21 7.11)" id="path39695"  >
<path style="stroke: rgb(0,0,0); stroke-width: 0.90832; stroke-dasharray: none; stroke-linecap: butt; stroke-dashoffset: 0; stroke-linejoin: miter; stroke-miterlimit: 4; fill: none; fill-rule: nonzero; opacity: 1;"  transform=" translate(-335.56, -429.52)" d="m 334.58 424.21 c 4.07 4.11 0.6 10.28 0.26 10.63" stroke-linecap="round" />
</g>
		<g transform="matrix(0.62 0 0 0.62 -49.49 7.18)" id="path39697"  >
<path style="stroke: rgb(0,0,0); stroke-width: 0.92138; stroke-dasharray: none; stroke-linecap: butt; stroke-dashoffset: 0; stroke-linejoin: miter; stroke-miterlimit: 4; fill: none; fill-rule: nonzero; opacity: 1;"  transform=" translate(-343.17, -429.64)" d="m 342.13 424.14 c 4.46 5.39 0.44 11.11 -0.01 11" stroke-linecap="round" />
</g>
		<g transform="matrix(0.62 0 0 0.62 107.28 10.43)" id="path39699"  >
<path style="stroke: none; stroke-width: 1; stroke-dasharray: none; stroke-linecap: butt; stroke-dashoffset: 0; stroke-linejoin: miter; stroke-miterlimit: 4; fill: rgb(85,0,0); fill-rule: nonzero; opacity: 1;"  transform=" translate(-595.63, -434.87)" d="m 589.31 438.51 c 0.22 5.62 2.67 9.38 6.36 9.53 c 3.94 -1.16 5.13 -4.05 6.01 -7.77 c 0.68 -3.92 0.26 -8.65 -0.42 -11.86 c -1.31 -6.17 -5.15 -8.16 -8.34 -5.64 c -2.29 1.81 -3.17 3.69 -3.69 8.65 l 5.67 0.4 s 1.5 4.67 -0.13 6.08 c -1.48 1.26 -0.32 0.32 -2.15 0.53 c -1.45 0.17 -3.31 0.08 -3.31 0.08 z" stroke-linecap="round" />
</g>
		<g transform="matrix(0.62 0 0 0.62 106.71 10.3)" id="path39701"  >
<path style="stroke: none; stroke-width: 1; stroke-dasharray: none; stroke-linecap: butt; stroke-dashoffset: 0; stroke-linejoin: miter; stroke-miterlimit: 4; fill: rgb(255,127,42); fill-rule: nonzero; opacity: 1;"  transform=" translate(-594.71, -434.67)" d="m 588.38 438.25 c 0.22 5.53 2.68 9.24 6.37 9.38 c 3.94 -1.14 5.12 -3.98 6 -7.64 c 0.69 -3.86 0.27 -8.52 -0.41 -11.69 c -1.31 -6.07 -5.15 -8.03 -8.34 -5.54 c -2.29 1.77 -3.17 3.63 -3.69 8.51 l 5.67 0.39 s 1.49 4.61 -0.14 5.99 c -1.47 1.25 -0.32 0.31 -2.14 0.53 c -1.45 0.16 -3.32 0.07 -3.32 0.07 z" stroke-linecap="round" />
</g>
		<g transform="matrix(0.62 0 0 0.62 7.3 7.26)" id="path39703"  >
<path style="stroke: rgb(0,0,0); stroke-width: 1; stroke-dasharray: none; stroke-linecap: butt; stroke-dashoffset: 0; stroke-linejoin: miter; stroke-miterlimit: 4; fill: rgb(255,0,0); fill-rule: evenodd; opacity: 1;"  transform=" translate(-434.62, -429.78)" d="m 428.7 410.05 l -2.33 2.33 c -4.44 4.44 -11.04 2.37 -11.04 11.62 c 0 0.74 -0.31 3.27 0.19 3.99 c 2.54 0.07 10.25 0.02 11.72 -0.4 c 0.06 -3.11 1.78 -6.97 3.2 -1.26 c 0.89 3.56 -1.19 6.74 -3.89 9.1 c -0.45 0.39 -2.22 -1.82 -2.32 -0.19 c -0.01 0.2 -5.74 -0.99 -7.07 -0.46 c -2.6 1.04 0.08 6.59 4.17 10.28 c 2.56 2.31 6.6 3.17 7.37 3.94 c 1.91 1.91 13.86 -2.16 16.86 -2.91 c 6.56 -1.64 8.13 -9.35 8.13 -15.11 c 0 -6.44 1.42 -11.59 -1.74 -16.86 c -2.79 -4.64 -12.41 -1.27 -16.86 -3.49 c -0.94 -0.47 -5.47 -0.58 -6.39 -0.58 z" stroke-linecap="round" />
</g>
		<g transform="matrix(0.62 0 0 0.62 -53.94 7.14)" id="path39705"  >
<linearGradient id="SVGID_linearGradient40961_498" gradientUnits="userSpaceOnUse" gradientTransform="matrix(1 0 0 1 128.18 75.56)"  x1="202.87" y1="360.29" x2="202.42" y2="351.56">
<stop offset="0%" style="stop-color:rgb(128,0,0);stop-opacity: 1"/>
<stop offset="100%" style="stop-color:rgb(128,0,0);stop-opacity: 0"/>
</linearGradient>
<path style="stroke: rgb(0,0,0); stroke-width: 0.85156; stroke-dasharray: none; stroke-linecap: butt; stroke-dashoffset: 0; stroke-linejoin: miter; stroke-miterlimit: 4; fill: url(#SVGID_linearGradient40961_498); fill-rule: evenodd; opacity: 1;"  transform=" translate(-336, -429.58)" d="m 369.51 427.09 s -18.18 -3.03 -22.81 -2.86 c -4.62 0.16 -41.38 -0.44 -41.38 -0.44 s -5.28 -0.88 -5.06 4.74 c 0.12 3.26 0.11 4.6 4.84 5.58 l 41.7 1.31 s 20.67 -0.29 23.24 -1.27 c 2.35 -0.91 2.38 -6.42 -0.53 -7.06 z" stroke-linecap="round" />
</g>
		<g transform="matrix(0.62 0 0 0.62 -78.96 -61.31)" id="path39707"  >
<linearGradient id="SVGID_linearGradient40963_499" gradientUnits="userSpaceOnUse" gradientTransform="matrix(1 0 0 1 128.18 75.56)"  x1="160" y1="243.79" x2="175.05" y2="243.79">
<stop offset="0%" style="stop-color:rgb(153,153,153);stop-opacity: 1"/>
<stop offset="100%" style="stop-color:rgb(153,153,153);stop-opacity: 0"/>
</linearGradient>
<path style="stroke: rgb(0,0,0); stroke-width: 0.79923; stroke-dasharray: none; stroke-linecap: butt; stroke-dashoffset: 0; stroke-linejoin: miter; stroke-miterlimit: 4; fill: url(#SVGID_linearGradient40963_499); fill-rule: evenodd; opacity: 1;"  transform=" translate(-295.71, -319.35)" d="m 289.11 315.82 c 1.78 -1.36 3.89 -1.79 5.93 -2.47 c 2.77 -0.92 3.89 0.77 5.92 0.91 c 1.62 0.11 1.68 4.37 1.84 5.6 c 0.34 2.62 -1.8 3.78 -3.61 4.82 c -1.72 0.99 -4.74 1.02 -6.58 0.89 c -2.13 -0.14 -3.68 -2.58 -3.92 -4.41 c -0.24 -1.81 -0.07 -3.55 0.42 -5.34 z" stroke-linecap="round" />
</g>
		<g transform="matrix(0.62 0 0 0.62 -67.65 -63.4)" id="path39709"  >
<linearGradient id="SVGID_linearGradient40965_500" gradientUnits="userSpaceOnUse" gradientTransform="matrix(1 0 0 1 128.18 75.56)"  x1="177.22" y1="240.43" x2="194.24" y2="240.43">
<stop offset="0%" style="stop-color:rgb(153,153,153);stop-opacity: 1"/>
<stop offset="100%" style="stop-color:rgb(153,153,153);stop-opacity: 0"/>
</linearGradient>
<path style="stroke: rgb(0,0,0); stroke-width: 0.87434; stroke-dasharray: none; stroke-linecap: butt; stroke-dashoffset: 0; stroke-linejoin: miter; stroke-miterlimit: 4; fill: url(#SVGID_linearGradient40965_500); fill-rule: evenodd; opacity: 1;"  transform=" translate(-313.91, -315.99)" d="m 306.59 311.87 c 2.07 -1.32 4.48 -1.65 6.83 -2.24 c 3.17 -0.79 4.37 1.05 6.68 1.32 c 1.83 0.21 1.73 4.7 1.87 6.01 c 0.28 2.78 -2.19 3.87 -4.29 4.86 c -1.99 0.93 -5.42 0.78 -7.5 0.53 c -2.41 -0.27 -4.08 -2.94 -4.28 -4.88 c -0.19 -1.92 0.06 -3.74 0.69 -5.6 z" stroke-linecap="round" />
</g>
		<g transform="matrix(0.62 0 0 0.62 -73.99 -63.3)" id="path39711"  >
<linearGradient id="SVGID_linearGradient40967_501" gradientUnits="userSpaceOnUse" gradientTransform="matrix(1 0 0 1 128.18 75.56)"  x1="172.93" y1="240.58" x2="178.11" y2="240.58">
<stop offset="0%" style="stop-color:rgb(153,153,153);stop-opacity: 1"/>
<stop offset="100%" style="stop-color:rgb(153,153,153);stop-opacity: 0"/>
</linearGradient>
<path style="stroke: rgb(0,0,0); stroke-width: 0.92786; stroke-dasharray: none; stroke-linecap: butt; stroke-dashoffset: 0; stroke-linejoin: miter; stroke-miterlimit: 4; fill: url(#SVGID_linearGradient40967_501); fill-rule: evenodd; opacity: 1;"  transform=" translate(-303.7, -316.14)" d="m 301.58 315.63 c 1.57 -0.39 4.25 -3.9 4.25 -0.5 c 0 3.15 -0.29 2.81 -3 3.48" stroke-linecap="round" />
</g>
		<g transform="matrix(0.62 0 0 0.62 -54.42 -64.5)" id="path39713"  >
<path style="stroke: rgb(0,0,0); stroke-width: 1; stroke-dasharray: none; stroke-linecap: butt; stroke-dashoffset: 0; stroke-linejoin: miter; stroke-miterlimit: 4; fill: rgb(51,51,51); fill-rule: evenodd; opacity: 1;"  transform=" translate(-335.23, -314.22)" d="m 318.48 300.68 c -0.32 0.69 -0.49 2.14 1.24 2.14 c 2.73 0 1.56 -1.3 2.03 0.57 c 0.24 0.97 2.76 0.25 2.94 -0.45 c 0.26 -1.05 -2.62 2.29 0.22 1.58 c 2.38 -0.59 0.48 0.53 2.04 1.47 c 0.79 0.47 1.75 -1.19 0.11 0.45 c -1.11 1.11 1.59 1.8 2.14 1.58 c 0.13 -0.05 -0.74 1.47 0.57 1.47 c 1.08 0 0.77 0.6 1.13 2.03 c 0.24 0.98 -0.38 1.96 1.47 0.11 c 0.41 -0.41 0.81 -2.72 0.9 -3.27 c 0.11 -0.63 1.35 0.17 1.92 -0.11 c 1.19 -0.6 2.58 -1.25 3.95 -1.25 c 1.15 0 2.11 1.1 2.6 1.92 c 0.61 1.02 0.84 2.11 1.13 3.28 c 0.28 1.1 -0.4 2.24 -0.11 3.39 c 0.32 1.29 0.68 2.05 1.01 3.38 c 0.27 1.06 0.62 2.21 0.79 3.28 c 0.14 0.83 -0.24 2.73 -0.79 3.27 c -1.11 1.12 -2.29 0.28 -1.46 1.92 c 0.21 0.44 1.81 1.72 2.37 0.79 c 0.13 -0.22 1.59 -0.35 1.92 -0.67 c 0.01 -0.02 0.96 -0.06 1.35 -0.45 c 0.38 -0.39 1.47 3.04 2.6 -0.34 c 0.55 -1.66 1.28 -1.09 1.81 -2.15 c 0.38 -0.76 0.09 -2.32 -0.12 -3.16 c -0.27 -1.08 0 -2.04 -0.45 -2.94 c -0.52 -1.05 -0.16 -2.15 -0.56 -3.16 c -0.1 -0.23 0.4 -0.43 0.34 -0.68 c -0.22 -0.87 0.71 -1.09 -0.12 -3.16 c -0.4 -1 -1.41 -1.96 -1.58 -2.37 c -0.35 -0.87 -0.9 -2.81 -0.9 -3.16 c 0 -1.46 -0.9 -1.16 -1.92 -0.91 c -0.49 0.13 -2.89 -1.48 -3.73 -1.69 c -1.31 -0.33 -3.12 0.69 -4.29 0.11 c -1.32 -0.66 -1.51 0.77 -2.82 0.12 c -1.09 -0.55 -3 -1.32 -4.18 -1.02 c -1 0.25 -4.42 -0.91 -5.2 -1.7 c -0.46 -0.46 -2.64 -0.15 -3.38 -0.33 c -1.53 -0.38 -1.92 0.17 -3.39 -0.57 c -0.95 -0.47 -1.34 0.48 -2.15 1.13" stroke-linecap="round" />
</g>
		<g transform="matrix(0.62 0 0 0.62 -60.47 -90.58)" id="path39715"  >
<path style="stroke: none; stroke-width: 1; stroke-dasharray: none; stroke-linecap: butt; stroke-dashoffset: 0; stroke-linejoin: miter; stroke-miterlimit: 4; fill: rgb(255,0,0); fill-rule: nonzero; opacity: 1;"  transform=" translate(-325.47, -272.21)" d="m 290.89 282.25 c 12.16 -28.71 45.38 -40.09 63.15 -38.72 c 1.29 0.1 1.14 -2.93 2.75 -4.74 c 1.71 -1.93 5.61 -2.75 7.27 1 c 1.72 3.88 1.1 6.74 -0.97 7.3 c -1.85 0.5 -5.01 -1.17 -6.06 -0.4 c -6.02 4.44 -10.32 21.65 -5.21 46.84 c 0.93 4.6 0.99 7.8 -1.06 10.18 c -0.63 0.73 -0.32 1.5 -1.37 2.09 c -1.55 0.87 -3.21 -0.77 -4.72 -0.87 c -4.81 -0.3 -6 -3.24 -22.51 -3.14 c -15.26 0.1 -28.41 7.36 -32.64 5.01 c -8.5 -4.72 0.46 -14.61 1.36 -24.51" stroke-linecap="round" />
</g>
		<g transform="matrix(0.62 0 0 0.62 -60.47 -90.58)" id="path39717"  >
<linearGradient id="SVGID_linearGradient40969_502" gradientUnits="userSpaceOnUse" gradientTransform="matrix(1 0 0 1 128.18 75.56)"  x1="222.68" y1="204.25" x2="202.09" y2="194.26">
<stop offset="0%" style="stop-color:rgb(43,0,0);stop-opacity: 1"/>
<stop offset="100%" style="stop-color:rgb(43,0,0);stop-opacity: 0"/>
</linearGradient>
<path style="stroke: none; stroke-width: 1; stroke-dasharray: none; stroke-linecap: butt; stroke-dashoffset: 0; stroke-linejoin: miter; stroke-miterlimit: 4; fill: url(#SVGID_linearGradient40969_502); fill-rule: nonzero; opacity: 1;"  transform=" translate(-325.47, -272.21)" d="m 290.89 282.25 c 12.16 -28.71 45.38 -40.09 63.15 -38.72 c 1.29 0.1 1.14 -2.93 2.75 -4.74 c 1.71 -1.93 5.61 -2.75 7.27 1 c 1.72 3.88 1.1 6.74 -0.97 7.3 c -1.85 0.5 -5.01 -1.17 -6.06 -0.4 c -6.02 4.44 -10.32 21.65 -5.21 46.84 c 0.93 4.6 0.99 7.8 -1.06 10.18 c -0.63 0.73 -0.32 1.5 -1.37 2.09 c -1.55 0.87 -3.21 -0.77 -4.72 -0.87 c -4.81 -0.3 -6 -3.24 -22.51 -3.14 c -15.26 0.1 -28.41 7.36 -32.64 5.01 c -8.5 -4.72 0.46 -14.61 1.36 -24.51" stroke-linecap="round" />
</g>
		<g transform="matrix(0.62 0 0 0.62 -64.37 -75.04)" id="path39719"  >
<path style="stroke: rgb(0,0,0); stroke-width: 1; stroke-dasharray: none; stroke-linecap: butt; stroke-dashoffset: 0; stroke-linejoin: miter; stroke-miterlimit: 4; fill: rgb(170,0,0); fill-rule: evenodd; opacity: 1;"  transform=" translate(-319.19, -297.24)" d="m 290.73 307.58 c -1.14 0.1 -3.09 -2.49 -4.6 -4 c -1.55 -1.55 -1.61 -4.36 -1 -6.2 c 0.57 -1.71 -0.36 -3.84 -0.8 -5.6 c -0.73 -2.95 3.46 -1.88 5 -2.4 c 1.86 -0.62 4.89 -1.07 6.8 -0.6 c 3.4 0.85 7.07 -1.2 10.4 -1.2 c 4.17 0 9.25 2.83 13.19 0.2 c 2.74 -1.82 9.62 -0.4 12.8 -0.4 c 2.48 0 4 1.8 6.8 1.8 c 2.56 0 6.08 1.22 8.39 1.8 c 1.78 0.45 4.9 2.9 6 4 c 1.18 1.18 -0.38 4.57 -1 5.8 c -0.93 1.85 -0.5 4.45 -2.4 5.4 c -2.27 1.13 -3.48 0.58 -5.8 0 c -2.04 -0.51 -3.98 -1.1 -5.99 -1.6 c -2.17 -0.54 -4.11 -0.6 -6.4 -0.6 c -2.19 0 -4.16 -0.8 -6.4 -0.8 c -2.28 0 -4.46 0.2 -6.8 0.2 c -2.01 0 -4.06 -0.2 -6 -0.2 c -1.95 0 -3.36 0.4 -5.39 0.4 c -2.1 0 -3.6 0.9 -5.6 1.4 c -1.98 0.49 -4.97 0.16 -6.2 1.4 c -1.24 1.23 -3.54 1.53 -4.6 1" stroke-linecap="round" />
</g>
		<g transform="matrix(0.62 0 0 0.62 -64.37 -75.04)" id="path39721"  >
<linearGradient id="SVGID_linearGradient40971_503" gradientUnits="userSpaceOnUse" gradientTransform="matrix(1 0 0 1 128.18 75.56)"  x1="170.36" y1="212.89" x2="170.67" y2="221.68">
<stop offset="0%" style="stop-color:rgb(255,0,0);stop-opacity: 1"/>
<stop offset="100%" style="stop-color:rgb(255,0,0);stop-opacity: 0"/>
</linearGradient>
<path style="stroke: rgb(0,0,0); stroke-width: 1; stroke-dasharray: none; stroke-linecap: butt; stroke-dashoffset: 0; stroke-linejoin: miter; stroke-miterlimit: 4; fill: url(#SVGID_linearGradient40971_503); fill-rule: evenodd; opacity: 1;"  transform=" translate(-319.19, -297.24)" d="m 290.73 307.58 c -1.14 0.1 -3.09 -2.49 -4.6 -4 c -1.55 -1.55 -1.61 -4.36 -1 -6.2 c 0.57 -1.71 -0.36 -3.84 -0.8 -5.6 c -0.73 -2.95 3.46 -1.88 5 -2.4 c 1.86 -0.62 4.89 -1.07 6.8 -0.6 c 3.4 0.85 7.07 -1.2 10.4 -1.2 c 4.17 0 9.25 2.83 13.19 0.2 c 2.74 -1.82 9.62 -0.4 12.8 -0.4 c 2.48 0 4 1.8 6.8 1.8 c 2.56 0 6.08 1.22 8.39 1.8 c 1.78 0.45 4.9 2.9 6 4 c 1.18 1.18 -0.38 4.57 -1 5.8 c -0.93 1.85 -0.5 4.45 -2.4 5.4 c -2.27 1.13 -3.48 0.58 -5.8 0 c -2.04 -0.51 -3.98 -1.1 -5.99 -1.6 c -2.17 -0.54 -4.11 -0.6 -6.4 -0.6 c -2.19 0 -4.16 -0.8 -6.4 -0.8 c -2.28 0 -4.46 0.2 -6.8 0.2 c -2.01 0 -4.06 -0.2 -6 -0.2 c -1.95 0 -3.36 0.4 -5.39 0.4 c -2.1 0 -3.6 0.9 -5.6 1.4 c -1.98 0.49 -4.97 0.16 -6.2 1.4 c -1.24 1.23 -3.54 1.53 -4.6 1" stroke-linecap="round" />
</g>
		<g transform="matrix(0.62 0 0 0.62 -56.53 -94.19)" id="path39723"  >
<linearGradient id="SVGID_linearGradient40973_504" gradientUnits="userSpaceOnUse" gradientTransform="matrix(1 0 0 1 128.18 75.56)"  x1="192.59" y1="183.03" x2="201.89" y2="193.23">
<stop offset="0%" style="stop-color:rgb(255,170,170);stop-opacity: 1"/>
<stop offset="100%" style="stop-color:rgb(255,170,170);stop-opacity: 0"/>
</linearGradient>
<path style="stroke: none; stroke-width: 1; stroke-dasharray: none; stroke-linecap: butt; stroke-dashoffset: 0; stroke-linejoin: miter; stroke-miterlimit: 4; fill: url(#SVGID_linearGradient40973_504); fill-rule: evenodd; opacity: 1;"  transform=" translate(-331.82, -266.39)" d="m 354.11 244.4 c -0.57 0.3 -3.18 2.27 -5 3 c -2.3 0.92 -3.57 1.94 -6.19 2.6 c -0.4 0.09 -0.8 0.13 -1.2 0.2 c -2.2 0.36 -4.31 0.67 -6.4 1.19 c -1.87 0.47 -4.44 1.04 -5.6 2.2 c -1.3 1.3 -3.11 2.81 -4.6 3.4 c -1.39 0.56 -3.58 3.24 -4.4 4.6 c -1.17 1.95 -0.06 3.46 -2 5.4 c -1.53 1.53 -2.58 2.9 -3.6 4.6 c -1.16 1.94 -3.03 4.32 -3.6 6.6 c -0.45 1.82 -1.59 3.85 -1.59 5.79 c 0 1.48 -0.4 2.89 -0.4 4.4" stroke-linecap="round" />
</g>
		<g transform="matrix(0.62 0 0 0.62 -50.45 -94.01)" id="path39725"  >
<linearGradient id="SVGID_linearGradient40975_505" gradientUnits="userSpaceOnUse" gradientTransform="matrix(1 0 0 1 128.18 75.56)"  x1="203.64" y1="189.13" x2="211.88" y2="193.93">
<stop offset="0%" style="stop-color:rgb(255,170,170);stop-opacity: 1"/>
<stop offset="100%" style="stop-color:rgb(255,170,170);stop-opacity: 0"/>
</linearGradient>
<path style="stroke: none; stroke-width: 1; stroke-dasharray: none; stroke-linecap: butt; stroke-dashoffset: 0; stroke-linejoin: miter; stroke-miterlimit: 4; fill: url(#SVGID_linearGradient40975_505); fill-rule: evenodd; opacity: 1;"  transform=" translate(-341.62, -266.69)" d="m 354.51 245.6 c 0 0.35 -4.45 4.08 -5.8 5.2 c -1.5 1.25 -3.76 2.76 -5.2 4.19 c -2.01 2.01 -4.13 2.92 -6.19 5.4 c -0.34 0.4 -0.67 0.8 -1 1.2 c -1.31 1.57 -2.36 2.91 -3.2 4.6 c -0.91 1.81 -0.6 3.98 -0.6 6 c 0 2.07 -1.31 4.05 -1.8 6 c -0.46 1.85 -1.1 3.77 -1.6 5.79 c -0.32 1.26 -0.22 3.34 -0.4 3.8" stroke-linecap="round" />
</g>
		<g transform="matrix(0.62 0 0 0.62 -60.51 -94.55)" id="path39727"  >
<linearGradient id="SVGID_linearGradient40977_506" gradientUnits="userSpaceOnUse" gradientTransform="matrix(1 0 0 1 128.18 75.56)"  x1="182.59" y1="181.86" x2="190.69" y2="189.26">
<stop offset="0%" style="stop-color:rgb(255,170,170);stop-opacity: 1"/>
<stop offset="100%" style="stop-color:rgb(255,170,170);stop-opacity: 0"/>
</linearGradient>
<path style="stroke: none; stroke-width: 1; stroke-dasharray: none; stroke-linecap: butt; stroke-dashoffset: 0; stroke-linejoin: miter; stroke-miterlimit: 4; fill: url(#SVGID_linearGradient40977_506); fill-rule: evenodd; opacity: 1;"  transform=" translate(-325.42, -265.82)" d="m 294.13 288.58 c -0.13 0.51 2.62 -2.68 3.6 -6.59 c 0.58 -2.34 1.23 -4.37 1.6 -6.6 c 0.25 -1.53 2.22 -3.85 3 -5.4 c 0.9 -1.81 2.31 -3.42 3 -4.8 c 0.73 -1.47 2.86 -1.95 3.8 -3.2 c 1.39 -1.85 3.41 -3.21 4.99 -4.8 c 1.67 -1.66 2.58 -2.81 5 -4.2 c 2.11 -1.2 3.94 -2.16 6 -3.19 c 1.85 -0.93 4.74 -1.86 6 -2.8 c 1.52 -1.14 5.69 -1.03 7.6 -1.6 c 2.02 -0.61 5.06 -1.2 7.19 -1.2 c 2.08 0 3.92 -1.2 6 -1.2 c 2.24 0 4.8 1.53 4.8 3.6 c 0 0.78 -0.4 0.5 -1.6 0.2" stroke-linecap="round" />
</g>
</g>
</g>
</svg>