<?xml version="1.0" encoding="UTF-8" standalone="no" ?>
<!DOCTYPE svg PUBLIC "-//W3C//DTD SVG 1.1//EN" "http://www.w3.org/Graphics/SVG/1.1/DTD/svg11.dtd">
<svg xmlns="http://www.w3.org/2000/svg" xmlns:xlink="http://www.w3.org/1999/xlink" version="1.1" width="400" height="400" viewBox="0 0 400 400" xml:space="preserve">
<desc>Created with Fabric.js 3.6.3</desc>
<defs>
</defs>
<rect x="0" y="0" width="100%" height="100%" fill="rgba(255, 255, 255, 1)"></rect>
<g transform="matrix(1 0 0 1 200 249.24)" style=""  >
		<text xml:space="preserve" font-family="'Open Sans', sans-serif" font-size="18" font-style="normal" font-weight="normal" style="stroke: none; stroke-width: 1; stroke-dasharray: none; stroke-linecap: butt; stroke-dashoffset: 0; stroke-linejoin: miter; stroke-miterlimit: 4; fill: rgb(0,0,0); fill-rule: nonzero; opacity: 1; white-space: pre;" ><tspan x="-108.5" y="5.97" style="font-size: 19px; font-weight: bold; ">Your Company Name</tspan></text>
</g>
<g transform="matrix(1 0 0 1 228.48 281.67)" style=""  >
		<text xml:space="preserve" font-family="'Open Sans', sans-serif" font-size="18" font-style="normal" font-weight="normal" style="stroke: none; stroke-width: 1; stroke-dasharray: none; stroke-linecap: butt; stroke-dashoffset: 0; stroke-linejoin: miter; stroke-miterlimit: 4; fill: rgb(0,0,0); fill-rule: nonzero; opacity: 1; white-space: pre;" ><tspan x="-81.99" y="5.65" >slogan here</tspan></text>
</g>
<g transform="matrix(0.3 0 0 0.3 190.62 167.73)"  >
<g style=""   >
		<g transform="matrix(1 0 0 1 73.12 38.91)" id="path14324"  >
<path style="stroke: none; stroke-width: 1; stroke-dasharray: none; stroke-linecap: butt; stroke-dashoffset: 0; stroke-linejoin: miter; stroke-miterlimit: 4; fill: rgb(0,0,0); fill-rule: nonzero; opacity: 1;"  transform=" translate(-323.12, -238.91)" d="m 261.24475 328.36588 c 0 0 35.8173 -37.21343 59.66235 -41.6992 c 15.55914 -2.92718 46.15628 11.20151 46.15628 11.20151 l 17.92777 -41.10918 c 0 0 -26.58757 -18.25099 -33.65904 -32.03055 c -11.56394 -22.53595 -10.45468 -75.26548 -10.45468 -75.26548 z" stroke-linecap="round" />
</g>
		<g transform="matrix(1 0 0 1 -71.92 -6.77)" id="path6604"  >
<path style="stroke: rgb(0,0,0); stroke-width: 5; stroke-dasharray: none; stroke-linecap: round; stroke-dashoffset: 0; stroke-linejoin: round; stroke-miterlimit: 4; fill: rgb(209,47,48); fill-rule: nonzero; opacity: 1;"  transform=" translate(-178.08, -193.23)" d="M 135.27491 37.518537 C 78.160183 43.77295 28.481999 89.759598 17.290897 146.03022 c -11.3286039 44.51233 -3.35772 91.3934 26.794759 125.65135 c 28.193558 33.44154 68.014604 54.91757 108.674014 69.466 c 34.97219 11.99129 83.82242 15.46349 112.92406 -10.81078 c 12.6998 -11.59597 15.32283 -29.93429 23.42492 -44.56388 c 18.22183 -41.31636 36.46561 -82.62224 54.68076 -123.94242 C 341.79717 123.63656 311.55674 94.766948 281.42479 75.088941 C 244.72428 52.119488 201.91162 37.784947 158.51363 36.268609 c -7.75613 -0.1297 -15.56537 0.233018 -23.2349 1.247541 z" stroke-linecap="round" />
</g>
		<g transform="matrix(1 0 0 1 -73.54 -12.4)" id="path3917"  >
<path style="stroke: none; stroke-width: 1; stroke-dasharray: none; stroke-linecap: butt; stroke-dashoffset: 0; stroke-linejoin: miter; stroke-miterlimit: 4; fill: rgb(0,0,0); fill-opacity: 0; fill-rule: nonzero; opacity: 1;"  transform=" translate(-176.46, -187.6)" d="M 135.12115 40.549783 C 80.545735 46.436188 33.076241 89.716988 22.382694 142.67665 c -10.824934 41.89323 1.883689 87.68766 30.69559 119.92988 c 26.940074 31.47385 64.990676 51.68623 103.842376 65.37863 c 33.41732 11.28573 75.00355 12.8818 102.81133 -11.8465 C 271.86716 305.225 274.37357 287.9657 282.11544 274.19691 C 299.52713 235.31159 316.9598 196.43615 334.3651 157.54724 C 332.46143 121.60063 303.56549 94.429707 274.77321 75.90955 C 239.7044 54.291617 198.79519 40.800517 157.32668 39.3734 c -7.4113 -0.122068 -14.87333 0.219308 -22.20188 1.174136 z" stroke-linecap="round" />
</g>
		<g transform="matrix(1 0 0 1 73.12 38.91)" id="path3919"  >
<path style="stroke: none; stroke-width: 1; stroke-dasharray: none; stroke-linecap: butt; stroke-dashoffset: 0; stroke-linejoin: miter; stroke-miterlimit: 4; fill: rgb(110,110,110); fill-rule: nonzero; opacity: 1;"  transform=" translate(-323.12, -238.91)" d="m 275.20182 308.18784 c 0 0 27.7378 -28.819 46.20399 -32.29289 c 12.04938 -2.26688 35.74456 8.67473 35.74456 8.67473 l 13.88371 -31.83597 c 0 0 -20.59007 -14.13401 -26.06639 -24.80524 c -8.9554 -17.4524 -8.09636 -58.28745 -8.09636 -58.28745 z" stroke-linecap="round" />
</g>
		<g transform="matrix(1 0 0 1 156.73 88.19)" id="path14349"  >
<path style="stroke: rgb(0,0,0); stroke-width: 5; stroke-dasharray: none; stroke-linecap: round; stroke-dashoffset: 0; stroke-linejoin: round; stroke-miterlimit: 4; fill: rgb(118,100,72); fill-rule: nonzero; opacity: 1;"  transform=" translate(-406.73, -288.19)" d="m 353.375 231.09375 l -0.34375 0.6875 c -2.21872 0.92251 -11.37302 4.88659 -15.03125 8.875 c -7.095 7.73501 -11.91672 18.10556 -13.375 28.5 c -0.70567 5.03236 2.4375 15.03125 2.4375 15.03125 l 0.1875 -0.25 l -0.21875 0.40625 l 131.5625 60.9375 c 22.72082 -1.24231 34.04605 -49.3368 29.25 -59.9375 z" stroke-linecap="round" />
</g>
		<g transform="matrix(1 0 0 1 -4.65 139.24)" id="path3933"  >
<path style="stroke: none; stroke-width: 5; stroke-dasharray: none; stroke-linecap: butt; stroke-dashoffset: 0; stroke-linejoin: miter; stroke-miterlimit: 4; fill: rgb(0,0,0); fill-rule: nonzero; opacity: 1;"  transform=" translate(-245.35, -339.24)" d="m 245.34569 293.95654 c -24.97522 0 -45.2818 20.30659 -45.2818 45.2818 c 0 24.97524 20.30658 45.28181 45.2818 45.28181 c 24.97523 0 45.28181 -20.30657 45.28181 -45.28181 c 0 -24.97521 -20.30658 -45.2818 -45.28181 -45.2818 z" stroke-linecap="round" />
</g>
		<g transform="matrix(1 0 0 1 -4.95 135.9)" id="path3023"  >
<path style="stroke: none; stroke-width: 5; stroke-dasharray: none; stroke-linecap: butt; stroke-dashoffset: 0; stroke-linejoin: miter; stroke-miterlimit: 4; fill: rgb(255,255,255); fill-rule: nonzero; opacity: 1;"  transform=" translate(-245.05, -335.9)" d="m 245.04896 295.0293 c 22.59958 0 40.87528 18.2757 40.87528 40.87528 c 0 22.59958 -18.2757 40.87528 -40.87528 40.87528 c -22.59958 0 -40.87528 -18.2757 -40.87528 -40.87528 c 0 -22.59958 18.2757 -40.87528 40.87528 -40.87528 z" stroke-linecap="round" />
</g>
		<g transform="matrix(1 0 0 1 -17.69 110.92)" id="path3048"  >
<path style="stroke: none; stroke-width: 5; stroke-dasharray: none; stroke-linecap: butt; stroke-dashoffset: 0; stroke-linejoin: miter; stroke-miterlimit: 4; fill: rgb(0,0,0); fill-rule: nonzero; opacity: 1;"  transform=" translate(-232.31, -310.92)" d="m 232.30986 298.37536 c 6.93751 0 12.54771 5.61019 12.54771 12.54771 c 0 6.93753 -5.6102 12.54774 -12.54771 12.54774 c -6.93754 0 -12.54774 -5.61021 -12.54774 -12.54774 c 0 -6.93752 5.6102 -12.54771 12.54774 -12.54771 z" stroke-linecap="round" />
</g>
		<g transform="matrix(1 0 0 1 -19.36 109.66)" id="path3050"  >
<path style="stroke: none; stroke-width: 5; stroke-dasharray: none; stroke-linecap: butt; stroke-dashoffset: 0; stroke-linejoin: miter; stroke-miterlimit: 4; fill: rgb(255,255,255); fill-rule: nonzero; opacity: 1;"  transform=" translate(-230.64, -309.66)" d="m 230.63884 298.78775 c 6.01365 0 10.87672 4.86307 10.87672 10.87671 c 0 6.01365 -4.86307 10.87672 -10.87672 10.87672 c -6.01365 0 -10.87672 -4.86307 -10.87672 -10.87672 c 0 -6.01364 4.86307 -10.87671 10.87672 -10.87671 z" stroke-linecap="round" />
</g>
</g>
</g>
</svg>