<?xml version="1.0" encoding="UTF-8" standalone="no" ?>
<!DOCTYPE svg PUBLIC "-//W3C//DTD SVG 1.1//EN" "http://www.w3.org/Graphics/SVG/1.1/DTD/svg11.dtd">
<svg xmlns="http://www.w3.org/2000/svg" xmlns:xlink="http://www.w3.org/1999/xlink" version="1.1" width="400" height="400" viewBox="0 0 400 400" xml:space="preserve">
<desc>Created with Fabric.js 3.6.3</desc>
<defs>
</defs>
<rect x="0" y="0" width="100%" height="100%" fill="rgba(255, 255, 255, 1)"></rect>
<g transform="matrix(1 0 0 1 200 249.24)" style=""  >
		<text xml:space="preserve" font-family="'Open Sans', sans-serif" font-size="18" font-style="normal" font-weight="normal" style="stroke: none; stroke-width: 1; stroke-dasharray: none; stroke-linecap: butt; stroke-dashoffset: 0; stroke-linejoin: miter; stroke-miterlimit: 4; fill: rgb(0,0,0); fill-rule: nonzero; opacity: 1; white-space: pre;" ><tspan x="-108.5" y="5.97" style="font-size: 19px; font-weight: bold; ">Your Company Name</tspan></text>
</g>
<g transform="matrix(1 0 0 1 228.48 281.67)" style=""  >
		<text xml:space="preserve" font-family="'Open Sans', sans-serif" font-size="18" font-style="normal" font-weight="normal" style="stroke: none; stroke-width: 1; stroke-dasharray: none; stroke-linecap: butt; stroke-dashoffset: 0; stroke-linejoin: miter; stroke-miterlimit: 4; fill: rgb(0,0,0); fill-rule: nonzero; opacity: 1; white-space: pre;" ><tspan x="-81.99" y="5.65" >slogan here</tspan></text>
</g>
<g transform="matrix(0.34 0 0 0.36 194.75 166.88)"  >
<g style=""   >
		<g transform="matrix(1 0 0 1 31.96 82.85)" id="图层_1_137_"  >
<path style="stroke: none; stroke-width: 1; stroke-dasharray: none; stroke-linecap: butt; stroke-dashoffset: 0; stroke-linejoin: miter; stroke-miterlimit: 4; fill: rgb(255,208,0); fill-rule: evenodd; opacity: 1;"  transform=" translate(-222.43, -249.73)" d="m 110.91 239.11 c 11.878 -11.14 25.729 -9.125 43.633 -9.764 c 49.863 -1.786 72.452 29.59 112.27 28.46 c 14.677 -0.41 38.66 -10.666 56.572 -22.006 l 10.565 10.438 c -27.356 15.36 -55.232 26.08 -74.238 23.583 c -40.283 -5.306 -62.908 -39.854 -131.43 -25.652 l -17.36 -5.06 z" stroke-linecap="round" />
</g>
		<g transform="matrix(1 0 0 1 -48 -81.13)" id="图层_1_137_"  >
<path style="stroke: none; stroke-width: 1; stroke-dasharray: none; stroke-linecap: butt; stroke-dashoffset: 0; stroke-linejoin: miter; stroke-miterlimit: 4; fill: rgb(191,191,191); fill-rule: evenodd; opacity: 1;"  transform=" translate(-142.47, -85.75)" d="m 132.52 36.172 c 18.556 64.275 13.291 49.062 40.83 101.7 l -16.464 -0.748 c -25.602 -58.131 -24.271 -37.538 -45.296 -103.5 l 20.93 2.552 z" stroke-linecap="round" />
</g>
		<g transform="matrix(1 0 0 1 -96.28 -71.71)" id="图层_1_137_"  >
<polygon style="stroke: none; stroke-width: 1; stroke-dasharray: none; stroke-linecap: butt; stroke-dashoffset: 0; stroke-linejoin: miter; stroke-miterlimit: 4; fill: rgb(191,191,191); fill-rule: evenodd; opacity: 1;"  points="-19.03,-36.49 30.61,36.5 13.66,35.12 -30.61,-26.3 " />
</g>
		<g transform="matrix(1 0 0 1 -81.78 -73.94)" id="图层_1_137_"  >
<polygon style="stroke: none; stroke-width: 1; stroke-dasharray: none; stroke-linecap: butt; stroke-dashoffset: 0; stroke-linejoin: miter; stroke-miterlimit: 4; fill: rgb(191,191,191); fill-rule: evenodd; opacity: 1;"  points="21.81,-24.96 -26.05,20.09 -13.96,24.96 26.05,-10.5 " />
</g>
		<g transform="matrix(1 0 0 1 -35.34 -69.11)" id="图层_1_137_"  >
<polygon style="stroke: none; stroke-width: 1; stroke-dasharray: none; stroke-linecap: butt; stroke-dashoffset: 0; stroke-linejoin: miter; stroke-miterlimit: 4; fill: rgb(191,191,191); fill-rule: evenodd; opacity: 1;"  points="27.27,-36.75 -30.03,32.18 -9.45,36.75 30.03,-19.78 " />
</g>
		<g transform="matrix(1 0 0 1 0.91 -82.22)" id="图层_1_137_"  >
<path style="stroke: none; stroke-width: 1; stroke-dasharray: none; stroke-linecap: butt; stroke-dashoffset: 0; stroke-linejoin: miter; stroke-miterlimit: 4; fill: rgb(191,191,191); fill-rule: evenodd; opacity: 1;"  transform=" translate(-191.38, -84.66)" d="m 180.65 30.334 c 18.56 64.271 13.009 56.504 40.538 109.16 l -14.913 0.784 c -25.615 -58.132 -23.665 -45.297 -44.704 -111.24 l 19.07 1.304 z" stroke-linecap="round" />
</g>
		<g transform="matrix(1 0 0 1 22.42 -67.28)" id="图层_1_137_"  >
<polygon style="stroke: none; stroke-width: 1; stroke-dasharray: none; stroke-linecap: butt; stroke-dashoffset: 0; stroke-linejoin: miter; stroke-miterlimit: 4; fill: rgb(191,191,191); fill-rule: evenodd; opacity: 1;"  points="31.39,-42.7 -38.71,42.7 -20.04,40.98 38.71,-25.17 " />
</g>
		<g transform="matrix(1 0 0 1 57.15 -83.15)" id="图层_1_137_"  >
<path style="stroke: none; stroke-width: 1; stroke-dasharray: none; stroke-linecap: butt; stroke-dashoffset: 0; stroke-linejoin: miter; stroke-miterlimit: 4; fill: rgb(191,191,191); fill-rule: evenodd; opacity: 1;"  transform=" translate(-247.62, -83.73)" d="m 240.56 33.552 c 15.87 54.945 10.829 56.048 34.366 101.07 l -12.753 0.666 c -21.896 -49.708 -23.865 -46.709 -41.851 -103.11 l 20.23 1.372 z" stroke-linecap="round" />
</g>
		<g transform="matrix(1 0 0 1 98.1 -83.36)" id="图层_1_137_"  >
<path style="stroke: none; stroke-width: 1; stroke-dasharray: none; stroke-linecap: butt; stroke-dashoffset: 0; stroke-linejoin: miter; stroke-miterlimit: 4; fill: rgb(191,191,191); fill-rule: evenodd; opacity: 1;"  transform=" translate(-288.57, -83.52)" d="m 283.97 40.74 c 10.055 34.85 11.878 62.479 26.81 91.03 l -12.215 -0.557 c -13.884 -31.522 -20.793 -60.173 -32.197 -95.938 l 17.61 5.468 z" stroke-linecap="round" />
</g>
		<g transform="matrix(1 0 0 1 93.71 -70.2)" id="图层_1_137_"  >
<polygon style="stroke: none; stroke-width: 1; stroke-dasharray: none; stroke-linecap: butt; stroke-dashoffset: 0; stroke-linejoin: miter; stroke-miterlimit: 4; fill: rgb(191,191,191); fill-rule: evenodd; opacity: 1;"  points="31.02,-43.07 -44.42,41 -27.43,43.07 44.42,-33.06 " />
</g>
		<g transform="matrix(1 0 0 1 27.24 53.55)" id="图层_1_137_"  >
<radialGradient id="SVGID_XMLID_4__508" gradientUnits="userSpaceOnUse" gradientTransform="matrix(0.6 0.02 -0.02 0.57 267.52 -180.85)"  cx="-58.374" cy="696.2" r="200.96" fx="-58.374" fy="696.2">
<stop offset="0%" style="stop-color:rgb(255,229,115);stop-opacity: 1"/>
<stop offset="18%" style="stop-color:rgb(251,215,103);stop-opacity: 1"/>
<stop offset="100%" style="stop-color:rgb(214,64,0);stop-opacity: 1"/>
</radialGradient>
<path style="stroke: none; stroke-width: 1; stroke-dasharray: none; stroke-linecap: butt; stroke-dashoffset: 0; stroke-linejoin: miter; stroke-miterlimit: 4; fill: url(#SVGID_XMLID_4__508); fill-rule: evenodd; opacity: 1;"  transform=" translate(-217.71, -220.43)" d="m 221.85 107.16 c 63.993 2.252 114.01 54.795 111.72 117.35 c -2.288 62.562 -56.016 111.44 -120 109.18 c -63.993 -2.251 -114.01 -54.794 -111.72 -117.35 c 2.29 -62.56 56.01 -111.44 120 -109.18 z" stroke-linecap="round" />
</g>
		<g transform="matrix(1 0 0 1 14.5 34.65)" id="图层_1_137_"  >
<path style="stroke: none; stroke-width: 1; stroke-dasharray: none; stroke-linecap: butt; stroke-dashoffset: 0; stroke-linejoin: miter; stroke-miterlimit: 4; fill: rgb(43,43,43); fill-rule: evenodd; opacity: 1;"  transform=" translate(-204.97, -201.53)" d="m 302.23 142.08 c -83.865 -5.706 -157.5 40.383 -191.47 123.25 l -3.054 -8.961 c 39.599 -81.731 100.03 -122.47 189.04 -118.36 l 5.48 4.07 z" stroke-linecap="round" />
</g>
		<g transform="matrix(1 0 0 1 56.17 76.74)" id="图层_1_137_"  >
<path style="stroke: none; stroke-width: 1; stroke-dasharray: none; stroke-linecap: butt; stroke-dashoffset: 0; stroke-linejoin: miter; stroke-miterlimit: 4; fill: rgb(43,43,43); fill-rule: evenodd; opacity: 1;"  transform=" translate(-246.65, -243.62)" d="m 161.73 319.13 c 28.2 -50.683 54.398 -100.86 80.579 -130.08 c 28.277 -31.541 59.024 -35.306 88.441 4.932 l 0.82 8.322 c -25.114 -39.799 -52.353 -38.568 -80.93 -11.531 c -0.839 0.793 -1.751 1.55 -2.525 2.452 c -24.266 28.523 -50.757 76.436 -80.88 129.42 l -5.51 -3.51 z" stroke-linecap="round" />
</g>
		<g transform="matrix(1 0 0 1 73.08 47.74)" id="图层_1_137_"  >
<path style="stroke: none; stroke-width: 1; stroke-dasharray: none; stroke-linecap: butt; stroke-dashoffset: 0; stroke-linejoin: miter; stroke-miterlimit: 4; fill: rgb(43,43,43); fill-rule: evenodd; opacity: 1;"  transform=" translate(-263.56, -214.62)" d="m 226.33 107.87 c 70.984 60.848 90 131.27 40.037 214.4 l 9.717 -4.084 c 39.508 -75.022 36.189 -148.76 -43.519 -211.21 l -6.24 0.89 z" stroke-linecap="round" />
</g>
		<g transform="matrix(1 0 0 1 -3.02 -29.57)" id="图层_1_137_"  >
<path style="stroke: none; stroke-width: 1; stroke-dasharray: none; stroke-linecap: butt; stroke-dashoffset: 0; stroke-linejoin: miter; stroke-miterlimit: 4; fill: rgb(43,43,43); fill-rule: evenodd; opacity: 1;"  transform=" translate(-187.46, -137.31)" d="m 117.83 164.34 c 12.689 -7.767 24.48 -16.709 37.402 -22.543 c 33.026 -14.923 67.766 -21.851 101.85 -27.867 l -9.443 -3.655 c -32.89 6.581 -65.078 12.097 -93.187 24.995 c -12.775 5.853 -23.929 15.861 -35.296 23.582 l -1.32 5.48 z" stroke-linecap="round" />
</g>
		<g transform="matrix(1 0 0 1 -133.36 81.99)" id="图层_1_137_"  >
<path style="stroke: none; stroke-width: 1; stroke-dasharray: none; stroke-linecap: butt; stroke-dashoffset: 0; stroke-linejoin: miter; stroke-miterlimit: 4; fill: rgb(125,125,125); fill-rule: evenodd; opacity: 1;"  transform=" translate(-57.12, -248.87)" d="m 10.201 189.69 l 50.009 21.695 l 27.644 0.931 c 6.965 33.263 14.326 64.548 16.176 93.627 c -34.621 4.822 -68.905 2.681 -87.606 -20.947 c -3.16 -30.13 -3.114 -65.17 -6.223 -95.3 z" stroke-linecap="round" />
</g>
		<g transform="matrix(1 0 0 1 6.9 -74.29)" id="图层_1_137_"  >
<path style="stroke: none; stroke-width: 1; stroke-dasharray: none; stroke-linecap: butt; stroke-dashoffset: 0; stroke-linejoin: miter; stroke-miterlimit: 4; fill: rgb(0,115,255); fill-rule: evenodd; opacity: 1;"  transform=" translate(-197.37, -92.58)" d="m 200.93 0.207 c 101.08 3.391 181.94 47.652 179.98 98.527 c -1.95 50.885 -85.997 89.617 -187.08 86.227 c -101.1 -3.39 -181.95 -47.66 -179.99 -98.542 c 1.953 -50.87 85.996 -89.603 187.09 -86.211 z m 1.84 31.404 c 75.925 2.552 136.91 28.91 135.76 58.7 c -1.14 29.781 -63.992 51.987 -139.92 49.444 c -75.926 -2.553 -136.91 -28.915 -135.77 -58.696 c 1.153 -29.796 64.01 -51.997 139.93 -49.453 z" stroke-linecap="round" />
</g>
		<g transform="matrix(1 0 0 1 -143.65 -22.56)" id="图层_1_137_"  >
<path style="stroke: none; stroke-width: 1; stroke-dasharray: none; stroke-linecap: butt; stroke-dashoffset: 0; stroke-linejoin: miter; stroke-miterlimit: 4; fill: rgb(156,83,0); fill-rule: evenodd; opacity: 1;"  transform=" translate(-46.82, -144.32)" d="m 93.646 113.27 c -17.019 8.86 -29.233 10.511 -29.339 38.158 l -8.245 60.483 l -44.722 -20.02 c -7.958 -29.708 -17.056 -59.462 -6.7 -88.568 c 12.744 -24.74 31.678 -32.179 52.083 -22.471 c 7.324 11.485 24.353 32.401 36.923 32.421 z" stroke-linecap="round" />
</g>
		<g transform="matrix(1 0 0 1 -119.58 11.89)" id="图层_1_137_"  >
<path style="stroke: none; stroke-width: 1; stroke-dasharray: none; stroke-linecap: butt; stroke-dashoffset: 0; stroke-linejoin: miter; stroke-miterlimit: 4; fill: rgb(156,83,0); fill-rule: evenodd; opacity: 1;"  transform=" translate(-70.9, -178.77)" d="m 85.119 212.05 l -28.883 1.285 l -0.142 -69.134 c 11.185 11.048 18.163 14.822 29.604 19.161 l -0.579 48.68 z" stroke-linecap="round" />
</g>
		<g transform="matrix(1 0 0 1 -128.86 11.78)" id="图层_1_137_"  >
<polygon style="stroke: none; stroke-width: 1; stroke-dasharray: none; stroke-linecap: butt; stroke-dashoffset: 0; stroke-linejoin: miter; stroke-miterlimit: 4; fill: rgb(191,124,0); fill-rule: evenodd; opacity: 1;"  points="12.66,33.63 -5.38,34.69 -12.66,-34.69 12.52,-16.49 " />
</g>
		<g transform="matrix(1 0 0 1 -142.77 -14.99)" id="图层_1_137_"  >
<linearGradient id="SVGID_XMLID_5__509" gradientUnits="userSpaceOnUse" gradientTransform="matrix(0.93 0.03 -0.03 0.87 299.94 -336.21)"  x1="-207.35" y1="534.6" x2="-297.28" y2="612.78">
<stop offset="8%" style="stop-color:rgb(238,255,0);stop-opacity: 1"/>
<stop offset="92%" style="stop-color:rgb(242,157,0);stop-opacity: 1"/>
</linearGradient>
<path style="stroke: none; stroke-width: 1; stroke-dasharray: none; stroke-linecap: butt; stroke-dashoffset: 0; stroke-linejoin: miter; stroke-miterlimit: 4; fill: url(#SVGID_XMLID_5__509); fill-rule: evenodd; opacity: 1;"  transform=" translate(-47.7, -151.89)" d="m 82.183 107.4 c -16.239 6.14 -28.933 17.29 -27.183 45.04 l 2.06 64.513 l -30.578 -11.522 c -6.577 -27.512 -19.021 -66.91 -10.233 -93.91 c 10.78 -22.981 28.947 -29.846 46.04 -20.912 c 13.249 10.872 16.485 17.042 19.894 16.792 z" stroke-linecap="round" />
</g>
		<g transform="matrix(1 0 0 1 -134.12 80.43)" id="图层_1_137_"  >
<linearGradient id="SVGID_XMLID_6__510" gradientUnits="userSpaceOnUse" gradientTransform="matrix(1 0.03 -0.04 0.93 302.01 -364.5)"  x1="-255.15" y1="663.73" x2="-188.87" y2="663.73">
<stop offset="2%" style="stop-color:rgb(224,224,224);stop-opacity: 1"/>
<stop offset="44.24%" style="stop-color:rgb(223,223,223);stop-opacity: 1"/>
<stop offset="98%" style="stop-color:rgb(171,171,171);stop-opacity: 1"/>
</linearGradient>
<path style="stroke: none; stroke-width: 1; stroke-dasharray: none; stroke-linecap: butt; stroke-dashoffset: 0; stroke-linejoin: miter; stroke-miterlimit: 4; fill: url(#SVGID_XMLID_6__510); fill-rule: evenodd; opacity: 1;"  transform=" translate(-56.35, -247.31)" d="m 24.978 200.2 l 36.34 13.701 l 14.307 -2.763 c 5.146 31.522 10.861 54.476 12.097 82.061 c -22.908 0.692 -38.336 5.916 -56.431 -12.307 c -2.239 -28.56 -4.125 -52.11 -6.313 -80.69 z" stroke-linecap="round" />
</g>
		<g transform="matrix(1 0 0 1 -81.53 46.71)" id="图层_1_137_"  >
<path style="stroke: none; stroke-width: 1; stroke-dasharray: none; stroke-linecap: butt; stroke-dashoffset: 0; stroke-linejoin: miter; stroke-miterlimit: 4; fill: rgb(191,191,191); fill-rule: evenodd; opacity: 1;"  transform=" translate(-108.94, -213.59)" d="m 105.32 168.9 c 16.167 71.44 6.478 36.801 25.064 95.068 l -19.809 -0.994 c -19.809 -64.503 -8.173 -26.59 -23.072 -99.771 l 17.822 5.69 z" stroke-linecap="round" />
</g>
		<g transform="matrix(1 0 0 1 -50.46 56.33)" id="图层_1_137_"  >
<polygon style="stroke: none; stroke-width: 1; stroke-dasharray: none; stroke-linecap: butt; stroke-dashoffset: 0; stroke-linejoin: miter; stroke-miterlimit: 4; fill: rgb(191,191,191); fill-rule: evenodd; opacity: 1;"  points="14.44,-18.25 -21.57,6.01 -16.93,18.25 21.57,-1.26 " />
</g>
		<g transform="matrix(1 0 0 1 -12.3 72.64)" id="图层_1_137_"  >
<path style="stroke: none; stroke-width: 1; stroke-dasharray: none; stroke-linecap: butt; stroke-dashoffset: 0; stroke-linejoin: miter; stroke-miterlimit: 4; fill: rgb(191,191,191); fill-rule: evenodd; opacity: 1;"  transform=" translate(-178.17, -239.52)" d="m 166.02 183.29 c 20.241 82.352 13.414 39.736 43.432 107.2 l -9.58 8.906 c -39.959 -55.469 -30.971 -30.766 -52.981 -119.76 l 19.13 3.65 z" stroke-linecap="round" />
</g>
		<g transform="matrix(1 0 0 1 10.16 88.57)" id="图层_1_137_"  >
<path style="stroke: none; stroke-width: 1; stroke-dasharray: none; stroke-linecap: butt; stroke-dashoffset: 0; stroke-linejoin: miter; stroke-miterlimit: 4; fill: rgb(191,191,191); fill-rule: evenodd; opacity: 1;"  transform=" translate(-200.63, -255.45)" d="m 223.18 206.47 c -15.815 32.179 -33.363 65.415 -56.135 97.329 l 15.123 0.638 c 19.489 -22.051 39.262 -52.671 52.051 -82.598 l -11.03 -15.37 z" stroke-linecap="round" />
</g>
		<g transform="matrix(1 0 0 1 64.34 55.98)" id="图层_1_137_"  >
<path style="stroke: none; stroke-width: 1; stroke-dasharray: none; stroke-linecap: butt; stroke-dashoffset: 0; stroke-linejoin: miter; stroke-miterlimit: 4; fill: rgb(191,191,191); fill-rule: evenodd; opacity: 1;"  transform=" translate(-254.81, -222.86)" d="m 229.82 184.52 c 38.806 81.395 60.474 36.016 70.747 74.302 l -13.57 2.37 c -5.442 -30.638 -33.637 21.649 -77.939 -76.317 l 20.76 -0.35 z" stroke-linecap="round" />
</g>
		<g transform="matrix(1 0 0 1 104.24 37.36)" id="图层_1_137_"  >
<path style="stroke: none; stroke-width: 1; stroke-dasharray: none; stroke-linecap: butt; stroke-dashoffset: 0; stroke-linejoin: miter; stroke-miterlimit: 4; fill: rgb(191,191,191); fill-rule: evenodd; opacity: 1;"  transform=" translate(-294.71, -204.24)" d="m 307.1 166.35 c -13.51 29.115 -21.979 45.387 -46.992 71.513 l 10.483 8.997 c 24.694 -24.002 43.136 -55.788 58.724 -85.241 l -22.21 4.73 z" stroke-linecap="round" />
</g>
		<g transform="matrix(1 0 0 1 148.48 37.6)" id="图层_1_137_"  >
<polygon style="stroke: none; stroke-width: 1; stroke-dasharray: none; stroke-linecap: butt; stroke-dashoffset: 0; stroke-linejoin: miter; stroke-miterlimit: 4; fill: rgb(191,191,191); fill-rule: evenodd; opacity: 1;"  points="2.02,-50.19 13.96,50.19 2.84,47.11 -13.96,-43.22 " />
</g>
		<g transform="matrix(1 0 0 1 131.08 45.32)" id="图层_1_137_"  >
<polygon style="stroke: none; stroke-width: 1; stroke-dasharray: none; stroke-linecap: butt; stroke-dashoffset: 0; stroke-linejoin: miter; stroke-miterlimit: 4; fill: rgb(191,191,191); fill-rule: evenodd; opacity: 1;"  points="-7.31,-21.22 16.88,9.31 14.09,21.22 -16.88,-9.48 " />
</g>
		<g transform="matrix(1 0 0 1 -40.59 -15.41)" id="图层_1_137_"  >
<path style="stroke: none; stroke-width: 1; stroke-dasharray: none; stroke-linecap: butt; stroke-dashoffset: 0; stroke-linejoin: miter; stroke-miterlimit: 4; fill: rgb(94,234,255); fill-rule: evenodd; opacity: 1;"  transform=" translate(-149.88, -151.47)" d="m 83.172 133.58 c 44.394 20.036 89.266 27.375 134.43 27.594 c -31.14 24.08 -147.49 -10.96 -134.43 -27.59 h 0.002 z" stroke-linecap="round" />
</g>
		<g transform="matrix(1 0 0 1 -106.44 -118.41)" id="图层_1_137_"  >
<path style="stroke: none; stroke-width: 1; stroke-dasharray: none; stroke-linecap: butt; stroke-dashoffset: 0; stroke-linejoin: miter; stroke-miterlimit: 4; fill: rgb(105,223,255); fill-rule: evenodd; opacity: 1;"  transform=" translate(-84.03, -48.47)" d="m 119.87 29.085 c -31.95 5.251 -54.047 20.396 -71.672 40.031 c 8.958 -33.923 36.109 -45.4 71.672 -40.031 z" stroke-linecap="round" />
</g>
		<g transform="matrix(1 0 0 1 39 107.45)" id="图层_1_137_"  >
<path style="stroke: none; stroke-width: 1; stroke-dasharray: none; stroke-linecap: butt; stroke-dashoffset: 0; stroke-linejoin: miter; stroke-miterlimit: 4; fill: rgb(255,246,69); fill-rule: evenodd; opacity: 1;"  transform=" translate(-229.48, -274.33)" d="m 117.51 258.54 c 7.366 8.568 9.125 33.018 18.911 37.994 c 31.764 16.162 52.384 -0.93 78.847 -17.639 c 25.305 -15.98 64.631 -33.291 98.541 -41.413 c 15.415 -3.683 26.044 -4.084 40.137 -2.625 l -5.415 17.511 c -43.929 5.771 -83.235 17.603 -127.78 41.34 c -34.184 18.232 -44.986 25.88 -86.95 17.493 c -24.152 -4.84 -36.186 -57.301 -23.961 -64.867 l 7.66 12.21 z" stroke-linecap="round" />
</g>
</g>
</g>
</svg>