<?xml version="1.0" encoding="UTF-8" standalone="no" ?>
<!DOCTYPE svg PUBLIC "-//W3C//DTD SVG 1.1//EN" "http://www.w3.org/Graphics/SVG/1.1/DTD/svg11.dtd">
<svg xmlns="http://www.w3.org/2000/svg" xmlns:xlink="http://www.w3.org/1999/xlink" version="1.1" width="400" height="400" viewBox="0 0 400 400" xml:space="preserve">
<desc>Created with Fabric.js 3.6.3</desc>
<defs>
</defs>
<rect x="0" y="0" width="100%" height="100%" fill="rgba(255, 255, 255, 1)"></rect>
<g transform="matrix(1 0 0 1 200 249.24)" style=""  >
		<text xml:space="preserve" font-family="'Open Sans', sans-serif" font-size="18" font-style="normal" font-weight="normal" style="stroke: none; stroke-width: 1; stroke-dasharray: none; stroke-linecap: butt; stroke-dashoffset: 0; stroke-linejoin: miter; stroke-miterlimit: 4; fill: rgb(0,0,0); fill-rule: nonzero; opacity: 1; white-space: pre;" ><tspan x="-108.5" y="5.97" style="font-size: 19px; font-weight: bold; ">Your Company Name</tspan></text>
</g>
<g transform="matrix(1 0 0 1 228.48 281.67)" style=""  >
		<text xml:space="preserve" font-family="'Open Sans', sans-serif" font-size="18" font-style="normal" font-weight="normal" style="stroke: none; stroke-width: 1; stroke-dasharray: none; stroke-linecap: butt; stroke-dashoffset: 0; stroke-linejoin: miter; stroke-miterlimit: 4; fill: rgb(0,0,0); fill-rule: nonzero; opacity: 1; white-space: pre;" ><tspan x="-81.99" y="5.65" >slogan here</tspan></text>
</g>
<g transform="matrix(0.14 0 0 0.15 191 170.64)"  >
<g style=""   >
		<g transform="matrix(6.82 0 0 6.82 0 0)" id="path3612"  >
<path style="stroke: rgb(0,0,0); stroke-width: 6; stroke-dasharray: none; stroke-linecap: round; stroke-dashoffset: 0; stroke-linejoin: round; stroke-miterlimit: 4; fill: none; fill-rule: nonzero; opacity: 1;"  transform=" translate(-64.7, -67.87)" d="m 15.454 21.608 l 4.879 25.876 c -3.7786 6.3618 -5.9245 13.63 -5.9245 21.346 c 0 25.017 22.513 45.305 50.271 45.305 s 50.315 -20.288 50.315 -45.305 c 0 -7.4745 -2.0588 -14.519 -5.6196 -20.736 l 4.879 -25.833 l -20.562 9.5402 c -8.1959 -5.2251 -18.217 -8.3205 -29.013 -8.3205 c -10.481 0 -20.213 2.8909 -28.272 7.8413 l -20.948 -9.714 z" stroke-linecap="round" />
</g>
		<g transform="matrix(6.82 0 0 6.82 0 0)" id="path3478"  >
<path style="stroke: rgb(0,0,0); stroke-width: 3.9782; stroke-dasharray: none; stroke-linecap: round; stroke-dashoffset: 0; stroke-linejoin: round; stroke-miterlimit: 4; fill: rgb(255,255,255); fill-rule: nonzero; opacity: 1;"  transform=" translate(-64.7, -67.87)" d="m 15.454 21.608 l 4.879 25.876 c -3.7786 6.3618 -5.9245 13.63 -5.9245 21.346 c 0 25.017 22.513 45.305 50.271 45.305 s 50.315 -20.288 50.315 -45.305 c 0 -7.4745 -2.0588 -14.519 -5.6196 -20.736 l 4.879 -25.833 l -20.562 9.5402 c -8.1959 -5.2251 -18.217 -8.3205 -29.013 -8.3205 c -10.481 0 -20.213 2.8909 -28.272 7.8413 l -20.948 -9.714 z" stroke-linecap="round" />
</g>
		<g transform="matrix(13.23 5.95 -5.95 13.23 -117.89 -47.99)" id="path3183"  >
<path style="stroke: none; stroke-width: 1; stroke-dasharray: none; stroke-linecap: butt; stroke-dashoffset: 0; stroke-linejoin: miter; stroke-miterlimit: 4; fill: rgb(0,0,0); fill-rule: nonzero; opacity: 1;"  transform=" translate(-72, -48)" d="m 76 48 c 0 2.2091 -1.7909 4 -4 4 s -4 -1.7909 -4 -4 s 1.7909 -4 4 -4 s 4 1.7909 4 4 z" stroke-linecap="round" />
</g>
		<g transform="matrix(5.24 2.36 -2.36 5.24 -100.91 -50.73)" id="path3185"  >
<path style="stroke: none; stroke-width: 1; stroke-dasharray: none; stroke-linecap: butt; stroke-dashoffset: 0; stroke-linejoin: miter; stroke-miterlimit: 4; fill: rgb(255,255,255); fill-rule: nonzero; opacity: 1;"  transform=" translate(-72, -48)" d="m 76 48 c 0 2.2091 -1.7909 4 -4 4 s -4 -1.7909 -4 -4 s 1.7909 -4 4 -4 s 4 1.7909 4 4 z" stroke-linecap="round" />
</g>
		<g transform="matrix(13.23 5.95 -5.95 13.23 120.31 -48.47)" id="path3195"  >
<path style="stroke: none; stroke-width: 1; stroke-dasharray: none; stroke-linecap: butt; stroke-dashoffset: 0; stroke-linejoin: miter; stroke-miterlimit: 4; fill: rgb(0,0,0); fill-rule: nonzero; opacity: 1;"  transform=" translate(-72, -48)" d="m 76 48 c 0 2.2091 -1.7909 4 -4 4 s -4 -1.7909 -4 -4 s 1.7909 -4 4 -4 s 4 1.7909 4 4 z" stroke-linecap="round" />
</g>
		<g transform="matrix(5.24 2.36 -2.36 5.24 137.29 -51.22)" id="path3197"  >
<path style="stroke: none; stroke-width: 1; stroke-dasharray: none; stroke-linecap: butt; stroke-dashoffset: 0; stroke-linejoin: miter; stroke-miterlimit: 4; fill: rgb(255,255,255); fill-rule: nonzero; opacity: 1;"  transform=" translate(-72, -48)" d="m 76 48 c 0 2.2091 -1.7909 4 -4 4 s -4 -1.7909 -4 -4 s 1.7909 -4 4 -4 s 4 1.7909 4 4 z" stroke-linecap="round" />
</g>
		<g transform="matrix(6.82 0 0 6.82 -7.99 139.07)" id="path3588"  >
<path style="stroke: rgb(0,0,0); stroke-width: 2.788; stroke-dasharray: none; stroke-linecap: round; stroke-dashoffset: 0; stroke-linejoin: round; stroke-miterlimit: 4; fill: none; fill-rule: nonzero; opacity: 1;"  transform=" translate(-63.53, -88.25)" d="m 41.227 86.168 c 0.71997 5.451 3.9594 11.035 11.152 11.152 c 9.5596 0.15794 17.384 -10.258 19.682 -17.547 c -5.2586 -0.76083 -10.517 -0.71929 -15.776 -0.23408 c 2.2988 6.9385 10.416 17.652 18.397 17.781 c 7.6568 0.12382 10.288 -4.9103 11.152 -11.152" stroke-linecap="round" />
</g>
</g>
</g>
</svg>