<?xml version="1.0" encoding="UTF-8" standalone="no" ?>
<!DOCTYPE svg PUBLIC "-//W3C//DTD SVG 1.1//EN" "http://www.w3.org/Graphics/SVG/1.1/DTD/svg11.dtd">
<svg xmlns="http://www.w3.org/2000/svg" xmlns:xlink="http://www.w3.org/1999/xlink" version="1.1" width="400" height="400" viewBox="0 0 400 400" xml:space="preserve">
<desc>Created with Fabric.js 3.6.3</desc>
<defs>
</defs>
<rect x="0" y="0" width="100%" height="100%" fill="rgba(255, 255, 255, 1)"></rect>
<g transform="matrix(1 0 0 1 200 249.24)" style=""  >
		<text xml:space="preserve" font-family="'Open Sans', sans-serif" font-size="18" font-style="normal" font-weight="normal" style="stroke: none; stroke-width: 1; stroke-dasharray: none; stroke-linecap: butt; stroke-dashoffset: 0; stroke-linejoin: miter; stroke-miterlimit: 4; fill: rgb(0,0,0); fill-rule: nonzero; opacity: 1; white-space: pre;" ><tspan x="-108.5" y="5.97" style="font-size: 19px; font-weight: bold; ">Your Company Name</tspan></text>
</g>
<g transform="matrix(1 0 0 1 228.48 281.67)" style=""  >
		<text xml:space="preserve" font-family="'Open Sans', sans-serif" font-size="18" font-style="normal" font-weight="normal" style="stroke: none; stroke-width: 1; stroke-dasharray: none; stroke-linecap: butt; stroke-dashoffset: 0; stroke-linejoin: miter; stroke-miterlimit: 4; fill: rgb(0,0,0); fill-rule: nonzero; opacity: 1; white-space: pre;" ><tspan x="-81.99" y="5.65" >slogan here</tspan></text>
</g>
<g transform="matrix(0.39 0 0 0.41 197.75 155.15)"  >
<g style=""   >
		<g transform="matrix(1 0 0 1 19.71 -155.6)" id="path3205"  >
<path style="stroke: rgb(0,0,0); stroke-width: 4; stroke-dasharray: none; stroke-linecap: butt; stroke-dashoffset: 0; stroke-linejoin: round; stroke-miterlimit: 4; fill: rgb(120,68,33); fill-rule: evenodd; opacity: 1;"  transform=" translate(-345.46, -339.57)" d="m 322.08 376.02 c 1.5 -30.5 39 -75 45.5 -75.5 s -14 70.5 -19.5 75.5 s -25.5 1.5 -26 0 z" stroke-linecap="round" />
</g>
		<g transform="matrix(1 0 0 1 19.71 -155.61)" id="path3257"  >
<path style="stroke: none; stroke-width: 1; stroke-dasharray: none; stroke-linecap: butt; stroke-dashoffset: 0; stroke-linejoin: miter; stroke-miterlimit: 4; fill: rgb(0,0,0); fill-opacity: 0.31; fill-rule: evenodd; opacity: 1;"  transform=" translate(-166.38, -41.05)" d="m 188.5 2 c -0.52 0.0397 -1.25 0.3727 -2.12 0.9375 c -0.96 13.17 -22.91 66.266 -28.16 70.124 c -2.96 2.178 -9.25 1.941 -14.88 0.938 c -0.15 1.18 -0.28 2.356 -0.34 3.5 c 0.5 1.5 20.5 5 26 0 s 26 -76 19.5 -75.5 z" stroke-linecap="round" />
</g>
		<g transform="matrix(1.81 0 0 1.81 -0.29 -6.86)" id="path2383"  >
<path style="stroke: rgb(0,0,0); stroke-width: 2.2041; stroke-dasharray: none; stroke-linecap: round; stroke-dashoffset: 0; stroke-linejoin: round; stroke-miterlimit: 4; fill: rgb(160,90,44); fill-rule: nonzero; opacity: 1;"  transform=" translate(-335.53, -522.31)" d="m 403.52 522.31 a 67.988 67.988 0 1 1 -135.97 0 a 67.988 67.988 0 1 1 135.97 0 z" stroke-linecap="round" />
</g>
		<g transform="matrix(1.4 0 0 1.4 4.72 -26.33)" id="path3276"  >
<path style="stroke: none; stroke-width: 1; stroke-dasharray: none; stroke-linecap: butt; stroke-dashoffset: 0; stroke-linejoin: miter; stroke-miterlimit: 4; fill: rgb(0,0,0); fill-opacity: 0.31; fill-rule: nonzero; opacity: 1;"  transform=" translate(-335.53, -522.31)" d="m 403.52 522.31 a 67.988 67.988 0 1 1 -135.97 0 a 67.988 67.988 0 1 1 135.97 0 z" stroke-linecap="round" />
</g>
		<g transform="matrix(1 0 0 1 2.21 25.52)" id="path3339"  >
<path style="stroke: none; stroke-width: 1; stroke-dasharray: none; stroke-linecap: butt; stroke-dashoffset: 0; stroke-linejoin: miter; stroke-miterlimit: 4; fill: rgb(0,0,0); fill-opacity: 0.31; fill-rule: nonzero; opacity: 1;"  transform=" translate(-327.95, -520.69)" d="m 434.03 429.69 c 3.2 10.97 4.91 22.59 4.91 34.59 c 0 68.11 -55.27 123.38 -123.38 123.38 c -46.82 0 -87.6 -26.14 -108.5 -64.6 c 15.03 51.2 62.37 88.63 118.41 88.63 c 68.11 0 123.37 -55.27 123.37 -123.38 c 0 -21.21 -5.37 -41.18 -14.81 -58.62 z" stroke-linecap="round" />
</g>
		<g transform="matrix(1 0 0 1 44.73 103.95)" id="path3235"  >
<path style="stroke: rgb(0,0,0); stroke-width: 4; stroke-dasharray: none; stroke-linecap: round; stroke-dashoffset: 0; stroke-linejoin: round; stroke-miterlimit: 4; fill: rgb(160,90,44); fill-rule: nonzero; opacity: 1;"  transform=" translate(-370.47, -599.11)" d="m 409.5 608.24 c 0 21.54 -17.48 20.77 -39.03 20.77 c -21.54 0 -39.03 0.77 -39.03 -20.77 c 0 -21.55 17.49 -39.03 39.03 -39.03 c 21.55 0 39.03 17.48 39.03 39.03 z" stroke-linecap="round" />
</g>
		<g transform="matrix(1 0 0 1 -45.29 103.95)" id="path3238"  >
<path style="stroke: rgb(0,0,0); stroke-width: 4; stroke-dasharray: none; stroke-linecap: round; stroke-dashoffset: 0; stroke-linejoin: round; stroke-miterlimit: 4; fill: rgb(160,90,44); fill-rule: nonzero; opacity: 1;"  transform=" translate(-280.45, -599.11)" d="m 319.48 608.24 c 0 21.54 -17.48 20.77 -39.03 20.77 c -11.98 0 -22.7 0.24 -29.86 -3.25 c -5.72 -2.79 -9.17 -7.96 -9.17 -17.52 c 0 -21.55 17.49 -39.03 39.03 -39.03 c 21.55 0 39.03 17.48 39.03 39.03 z" stroke-linecap="round" />
</g>
		<g transform="matrix(-1 0 0 1 -30.47 118.42)" id="path3265"  >
<path style="stroke: rgb(0,0,0); stroke-width: 4; stroke-dasharray: none; stroke-linecap: round; stroke-dashoffset: 0; stroke-linejoin: miter; stroke-miterlimit: 4; fill: none; fill-rule: nonzero; opacity: 1;"  transform=" translate(-356.87, -616.42)" d="m 357.34 628.69 c -3.5 -11.33 0.5 -24.55 0.5 -24.55" stroke-linecap="round" />
</g>
		<g transform="matrix(-1 0 0 1 -49.53 116.85)" id="path3267"  >
<path style="stroke: rgb(0,0,0); stroke-width: 4; stroke-dasharray: none; stroke-linecap: round; stroke-dashoffset: 0; stroke-linejoin: miter; stroke-miterlimit: 4; fill: none; fill-rule: nonzero; opacity: 1;"  transform=" translate(-375.94, -614.85)" d="m 375.37 631.21 c 4.29 -18.25 -0.62 -32.73 -0.62 -32.73" stroke-linecap="round" />
</g>
		<g transform="matrix(-1 0 0 1 -69.35 118.74)" id="path3269"  >
<path style="stroke: rgb(0,0,0); stroke-width: 4; stroke-dasharray: none; stroke-linecap: round; stroke-dashoffset: 0; stroke-linejoin: miter; stroke-miterlimit: 4; fill: none; fill-rule: nonzero; opacity: 1;"  transform=" translate(-395.76, -616.73)" d="m 393.62 629.32 c 8.81 -13.85 1.26 -25.18 1.26 -25.18" stroke-linecap="round" />
</g>
		<g transform="matrix(1.4 0 0 1.4 -0.28 -39.83)" id="path2418"  >
<path style="stroke: rgb(0,0,0); stroke-width: 2.8511; stroke-dasharray: none; stroke-linecap: round; stroke-dashoffset: 0; stroke-linejoin: round; stroke-miterlimit: 4; fill: rgb(160,90,44); fill-rule: nonzero; opacity: 1;"  transform=" translate(-335.53, -522.31)" d="m 403.52 522.31 a 67.988 67.988 0 1 1 -135.97 0 a 67.988 67.988 0 1 1 135.97 0 z" stroke-linecap="round" />
</g>
		<g transform="matrix(1 0 0 1 0.88 -11.69)" id="path3251"  >
<path style="stroke: none; stroke-width: 1; stroke-dasharray: none; stroke-linecap: butt; stroke-dashoffset: 0; stroke-linejoin: miter; stroke-miterlimit: 4; fill: rgb(0,0,0); fill-opacity: 0.31; fill-rule: nonzero; opacity: 1;"  transform=" translate(-147.55, -184.97)" d="m 233.44 117.75 c 1.52 6.77 2.34 13.8 2.34 21.03 c 0 52.65 -42.75 95.41 -95.4 95.41 c -38.78 0 -72.158 -23.19 -87.068 -56.44 c 9.556 42.59 47.608 74.44 93.068 74.44 c 52.65 0 95.4 -42.76 95.4 -95.41 c 0 -13.91 -2.98 -27.11 -8.34 -39.03 z" stroke-linecap="round" />
</g>
		<g transform="matrix(0.4 0 0 0.4 -31.79 -57.86)" id="path2387"  >
<path style="stroke: rgb(0,0,0); stroke-width: 9.931; stroke-dasharray: none; stroke-linecap: round; stroke-dashoffset: 0; stroke-linejoin: round; stroke-miterlimit: 4; fill: rgb(255,255,255); fill-rule: nonzero; opacity: 1;"  transform=" translate(-335.53, -522.31)" d="m 403.52 522.31 a 67.988 67.988 0 1 1 -135.97 0 a 67.988 67.988 0 1 1 135.97 0 z" stroke-linecap="round" />
</g>
		<g transform="matrix(0.4 0 0 0.4 31.79 -57.86)" id="path2391"  >
<path style="stroke: rgb(0,0,0); stroke-width: 9.931; stroke-dasharray: none; stroke-linecap: round; stroke-dashoffset: 0; stroke-linejoin: round; stroke-miterlimit: 4; fill: rgb(255,255,255); fill-rule: nonzero; opacity: 1;"  transform=" translate(-335.53, -522.31)" d="m 403.52 522.31 a 67.988 67.988 0 1 1 -135.97 0 a 67.988 67.988 0 1 1 135.97 0 z" stroke-linecap="round" />
</g>
		<g transform="matrix(0.13 0 0 0.13 -23.6 -54.72)" id="path2393"  >
<path style="stroke: none; stroke-width: 1; stroke-dasharray: none; stroke-linecap: butt; stroke-dashoffset: 0; stroke-linejoin: miter; stroke-miterlimit: 4; fill: rgb(0,0,0); fill-rule: nonzero; opacity: 1;"  transform=" translate(-335.53, -522.31)" d="m 403.52 522.31 a 67.988 67.988 0 1 1 -135.97 0 a 67.988 67.988 0 1 1 135.97 0 z" stroke-linecap="round" />
</g>
		<g transform="matrix(0.13 0 0 0.13 22.98 -54.72)" id="path2395"  >
<path style="stroke: none; stroke-width: 1; stroke-dasharray: none; stroke-linecap: butt; stroke-dashoffset: 0; stroke-linejoin: miter; stroke-miterlimit: 4; fill: rgb(0,0,0); fill-rule: nonzero; opacity: 1;"  transform=" translate(-335.53, -522.31)" d="m 403.52 522.31 a 67.988 67.988 0 1 1 -135.97 0 a 67.988 67.988 0 1 1 135.97 0 z" stroke-linecap="round" />
</g>
		<g transform="matrix(1 0 0 1 0 10.42)" id="path2397"  >
<path style="stroke: none; stroke-width: 1; stroke-dasharray: none; stroke-linecap: butt; stroke-dashoffset: 0; stroke-linejoin: miter; stroke-miterlimit: 4; fill: rgb(0,0,0); fill-rule: nonzero; opacity: 1;"  transform=" translate(-325.75, -505.59)" d="m 350.81 501.75 c 0 13.77 -15.08 24.95 -25.07 24.95 c -10.75 0 -25.06 -11.18 -25.06 -24.95 c 0 -13.78 11.23 -17.28 25.06 -17.28 c 13.84 0 25.07 3.5 25.07 17.28 z" stroke-linecap="round" />
</g>
		<g transform="matrix(1 0 0 1 70.8 106.79)" id="path3327"  >
<path style="stroke: none; stroke-width: 1; stroke-dasharray: none; stroke-linecap: butt; stroke-dashoffset: 0; stroke-linejoin: miter; stroke-miterlimit: 4; fill: rgb(0,0,0); fill-opacity: 0.31; fill-rule: nonzero; opacity: 1;"  transform=" translate(-396.54, -601.95)" d="m 390.97 575.03 c 4.72 6.48 7.53 14.47 7.53 23.09 c 0 12.47 -5.84 23.56 -14.91 30.76 c 15.09 -0.58 25.91 -3.7 25.91 -20.63 c 0 -14.03 -7.41 -26.34 -18.53 -33.22 z" stroke-linecap="round" />
</g>
		<g transform="matrix(1 0 0 1 30.98 118.42)" id="path2412"  >
<path style="stroke: rgb(0,0,0); stroke-width: 4; stroke-dasharray: none; stroke-linecap: round; stroke-dashoffset: 0; stroke-linejoin: miter; stroke-miterlimit: 4; fill: none; fill-rule: nonzero; opacity: 1;"  transform=" translate(-356.87, -616.42)" d="m 357.34 628.69 c -3.5 -11.33 0.5 -24.55 0.5 -24.55" stroke-linecap="round" />
</g>
		<g transform="matrix(1 0 0 1 50.05 116.85)" id="path2414"  >
<path style="stroke: rgb(0,0,0); stroke-width: 4; stroke-dasharray: none; stroke-linecap: round; stroke-dashoffset: 0; stroke-linejoin: miter; stroke-miterlimit: 4; fill: none; fill-rule: nonzero; opacity: 1;"  transform=" translate(-375.94, -614.85)" d="m 375.37 631.21 c 4.29 -18.25 -0.62 -32.73 -0.62 -32.73" stroke-linecap="round" />
</g>
		<g transform="matrix(1 0 0 1 69.86 118.74)" id="path2416"  >
<path style="stroke: rgb(0,0,0); stroke-width: 4; stroke-dasharray: none; stroke-linecap: round; stroke-dashoffset: 0; stroke-linejoin: miter; stroke-miterlimit: 4; fill: none; fill-rule: nonzero; opacity: 1;"  transform=" translate(-395.76, -616.73)" d="m 393.62 629.32 c 8.81 -13.85 1.26 -25.18 1.26 -25.18" stroke-linecap="round" />
</g>
		<g transform="matrix(1 0 0 1 -19.7 106.79)" id="path3332"  >
<path style="stroke: none; stroke-width: 1; stroke-dasharray: none; stroke-linecap: butt; stroke-dashoffset: 0; stroke-linejoin: miter; stroke-miterlimit: 4; fill: rgb(0,0,0); fill-opacity: 0.31; fill-rule: nonzero; opacity: 1;"  transform=" translate(-306.04, -601.95)" d="m 300.47 575.03 c 4.72 6.48 7.53 14.47 7.53 23.09 c 0 12.47 -5.84 23.56 -14.91 30.76 c 15.09 -0.58 25.91 -3.7 25.91 -20.63 c 0 -14.03 -7.41 -26.34 -18.53 -33.22 z" stroke-linecap="round" />
</g>
		<g transform="matrix(1 0 0 1 19.41 113.68)" id="path3349"  >
<path style="stroke: none; stroke-width: 1; stroke-dasharray: none; stroke-linecap: butt; stroke-dashoffset: 0; stroke-linejoin: miter; stroke-miterlimit: 4; fill: rgb(0,0,0); fill-opacity: 0.31; fill-rule: nonzero; opacity: 1;"  transform=" translate(-345.16, -608.85)" d="m 336.66 588.75 c -3.32 5.73 -5.22 12.41 -5.22 19.5 c 0 17.51 11.55 20.26 27.44 20.69 c -15.78 -6.58 -23.81 -22.21 -22.22 -40.19 z" stroke-linecap="round" />
</g>
		<g transform="matrix(1 0 0 1 -104.5 -56.32)" id="path3201"  >
<path style="stroke: rgb(0,0,0); stroke-width: 4; stroke-dasharray: none; stroke-linecap: butt; stroke-dashoffset: 0; stroke-linejoin: round; stroke-miterlimit: 4; fill: rgb(120,68,33); fill-rule: evenodd; opacity: 1;"  transform=" translate(-221.25, -438.84)" d="m 258.29 386.52 c -54.92 -3.88 -83.53 62.3 -76.03 81.8 c 6.1 15.85 39.79 31.84 38.43 17.3 c -4.41 -47.18 54.73 -97.89 37.6 -99.1 z" stroke-linecap="round" />
</g>
		<g transform="matrix(1 0 0 1 104.5 -56.32)" id="path3203"  >
<path style="stroke: rgb(0,0,0); stroke-width: 4; stroke-dasharray: none; stroke-linecap: butt; stroke-dashoffset: 0; stroke-linejoin: round; stroke-miterlimit: 4; fill: rgb(120,68,33); fill-rule: evenodd; opacity: 1;"  transform=" translate(-430.24, -438.84)" d="m 393.2 386.52 c 54.92 -3.88 83.53 62.3 76.03 81.8 c -6.1 15.85 -39.79 31.84 -38.43 17.3 c 4.41 -47.18 -54.73 -97.89 -37.6 -99.1 z" stroke-linecap="round" />
</g>
		<g transform="matrix(1 0 0 1 108.6 -56.59)" id="path3262"  >
<path style="stroke: none; stroke-width: 1; stroke-dasharray: none; stroke-linecap: butt; stroke-dashoffset: 0; stroke-linejoin: miter; stroke-miterlimit: 4; fill: rgb(0,0,0); fill-opacity: 0.31; fill-rule: evenodd; opacity: 1;"  transform=" translate(-255.26, -140.06)" d="m 219.19 87.844 c 50.9 10.295 64.66 77.406 53.75 94.536 c -2.42 3.79 -6.76 7.18 -11.72 9.9 c 10.08 -2.33 25.07 -12.41 28.94 -22.47 c 7.26 -18.89 -19.37 -81.588 -70.97 -81.966 z" stroke-linecap="round" />
</g>
		<g transform="matrix(1 0 0 1 -2.35 158.64)" id="path3288"  >
<path style="stroke: rgb(0,0,0); stroke-width: 4; stroke-dasharray: none; stroke-linecap: butt; stroke-dashoffset: 0; stroke-linejoin: round; stroke-miterlimit: 4; fill: rgb(227,219,219); fill-rule: evenodd; opacity: 1;"  transform=" translate(-323.4, -653.8)" d="m 290.79 670.83 l 72.77 -15.76 s 12.42 19.95 26.82 8.58 c 14.39 -11.37 -5.74 -22.66 -5.74 -22.66 s 20.21 -11.03 0.34 -20.94 c -19.87 -9.9 -26.5 15.83 -26.5 15.83 l -70.52 12.45 s -18.34 -24.58 -31.82 -8.35 c -13.47 16.23 5.02 26.4 5.02 26.4 s -14.83 12.89 4.08 21.53 c 18.92 8.65 24.56 -14.73 25.55 -17.08 z" stroke-linecap="round" />
</g>
		<g transform="matrix(1 0 0 1 -1.83 160.12)" id="path3300"  >
<path style="stroke: none; stroke-width: 1; stroke-dasharray: none; stroke-linecap: butt; stroke-dashoffset: 0; stroke-linejoin: miter; stroke-miterlimit: 4; fill: rgb(0,0,0); fill-opacity: 0.31; fill-rule: evenodd; opacity: 1;"  transform=" translate(-323.92, -655.29)" d="m 277.36 638.23 c 1.97 1.89 3.83 3.82 5.64 5.45 c 0.24 -0.04 0.47 -0.09 0.71 -0.13 c -1.74 -1.74 -3.9 -3.67 -6.35 -5.32 z m 108.92 -17.49 c 0.34 0.46 0.64 0.95 0.92 1.45 c 2.01 6.02 -6.4 10.95 -9.51 14.3 c 1.13 2.21 3.89 3.67 6.12 5.58 c 1.91 -1.1 19.07 -12.18 2.47 -21.33 z m -134.02 35.93 c 0.91 2.23 2.31 4.13 3.74 5.62 c 1.9 -2.26 -1.57 -3.8 -3.74 -5.62 z m 134.14 -14.55 c 0.44 0.51 0.82 1.09 1.12 1.7 c 6.03 7.71 -3.98 17.18 -11.88 16.69 c -7.76 -0.17 -10.84 -7.66 -15.72 -12.38 c -24.26 5.25 -50.26 10.84 -74.52 16.09 c -2.47 4.05 -3.34 9.33 -6.64 13.06 c -4.95 7.84 -15.94 7.03 -22.56 1.67 c -0.13 -0.07 -0.24 -0.17 -0.36 -0.25 c 0.67 3.13 3.25 6.4 9.41 9.22 c 18.92 8.65 24.55 -14.74 25.54 -17.09 l 74.52 -16.09 s 10.69 20.29 25.08 8.92 c 11.7 -9.24 0.58 -18.42 -3.99 -21.54 z" stroke-linecap="round" />
</g>
</g>
</g>
</svg>