<?xml version="1.0" encoding="UTF-8" standalone="no" ?>
<!DOCTYPE svg PUBLIC "-//W3C//DTD SVG 1.1//EN" "http://www.w3.org/Graphics/SVG/1.1/DTD/svg11.dtd">
<svg xmlns="http://www.w3.org/2000/svg" xmlns:xlink="http://www.w3.org/1999/xlink" version="1.1" width="400" height="400" viewBox="0 0 400 400" xml:space="preserve">
<desc>Created with Fabric.js 3.6.3</desc>
<defs>
</defs>
<rect x="0" y="0" width="100%" height="100%" fill="rgba(255, 255, 255, 1)"></rect>
<g transform="matrix(1 0 0 1 200 249.24)" style=""  >
		<text xml:space="preserve" font-family="'Open Sans', sans-serif" font-size="18" font-style="normal" font-weight="normal" style="stroke: none; stroke-width: 1; stroke-dasharray: none; stroke-linecap: butt; stroke-dashoffset: 0; stroke-linejoin: miter; stroke-miterlimit: 4; fill: rgb(0,0,0); fill-rule: nonzero; opacity: 1; white-space: pre;" ><tspan x="-108.5" y="5.97" style="font-size: 19px; font-weight: bold; ">Your Company Name</tspan></text>
</g>
<g transform="matrix(1 0 0 1 228.48 281.67)" style=""  >
		<text xml:space="preserve" font-family="'Open Sans', sans-serif" font-size="18" font-style="normal" font-weight="normal" style="stroke: none; stroke-width: 1; stroke-dasharray: none; stroke-linecap: butt; stroke-dashoffset: 0; stroke-linejoin: miter; stroke-miterlimit: 4; fill: rgb(0,0,0); fill-rule: nonzero; opacity: 1; white-space: pre;" ><tspan x="-81.99" y="5.65" >slogan here</tspan></text>
</g>
<g transform="matrix(0.36 0 0 0.4 197.75 157)"  >
<g style=""   >
		<g transform="matrix(1 0 0 1 0 0)" id="path3919"  >
<path style="stroke: none; stroke-width: 1; stroke-dasharray: none; stroke-linecap: butt; stroke-dashoffset: 0; stroke-linejoin: miter; stroke-miterlimit: 4; fill: rgb(0,0,0); fill-rule: evenodd; opacity: 1;"  transform=" translate(-197.94, -226.53)" d="m 279.39 42.886 c -0.89 0.09 -1.76 0.34 -2.56 0.748 c -1.01 0.515 -2.59 0.795 -5.16 1.096 c -2.53 0.295 -6.15 0.672 -9.93 2.591 v -0.017 c -0.06 0.024 -0.13 0.063 -0.18 0.087 c -4.16 1.892 -9.77 3.794 -14.99 8.192 c -0.26 0.154 -0.52 0.328 -0.75 0.522 c -0.97 0.783 -0.99 0.819 -0.09 0.087 c -2.77 2.241 -5.69 4.692 -8.57 7.306 c -2.28 -1.426 -5.2 -1.437 -7.46 0.087 c -0.32 -0.273 -0.49 -0.423 -0.87 -0.731 c -2.38 -1.929 -5.79 -2.029 -8.28 -0.261 c -0.01 0.006 -0.03 0.012 -0.04 0.017 c -0.83 0.596 -1.27 0.779 -1.67 0.975 c -0.21 -0.171 -0.26 -0.188 -0.69 -0.609 c -0.01 -0.006 -0.01 -0.012 -0.02 -0.018 c -1.38 -1.327 -3.19 -2 -5.1 -1.913 c -1.9 0.087 -3.68 0.999 -4.87 2.366 c -1.57 1.798 -0.3 1.067 -1.48 0.939 c -0.71 -0.078 -3.37 -1.097 -6.92 -2 c -2.42 -0.644 -4.97 0.109 -6.69 1.93 h -0.02 c -0.25 0.261 -0.29 0.3 -0.39 0.383 c -0.82 -0.308 -3.86 -2.545 -8.36 -3.67 c -0.01 -0.006 -0.02 -0.012 -0.04 -0.018 c -0.68 -0.168 -1.38 -0.221 -2.08 -0.173 c -1.5 0.085 -2.88 0.663 -3.97 1.582 c -1.5 -0.58 -3.24 -1.08 -5.3 -0.991 c -1.77 0.064 -3.33 0.873 -4.53 2.07 c -1.28 -0.432 -2.87 -0.82 -4.99 -0.557 c -1.39 0.173 -2.66 0.714 -3.79 1.426 c -0.17 -0.025 -0.35 -0.053 -0.52 -0.069 c -4.38 -4.115 -9 -7.857 -13.69 -11.202 c -0.02 -0.017 -0.05 -0.035 -0.07 -0.052 c -0.33 -0.23 -0.69 -0.42 -1.06 -0.591 c -5.38 -2.611 -11.96 -6.652 -20.51 -7.393 c -4.19 -1.492 -8.11 -1.181 -10.77 -0.8 c -2.87 0.413 -4.27 0.58 -5.44 0.244 c -0.07 -0.019 -0.15 -0.037 -0.23 -0.052 c -0.82 -0.309 -1.72 -0.587 -2.87 -0.679 c -1.43 -0.115 -2.79 0.032 -4.01 0.348 c -2.216 0.571 -3.777 1.493 -4.7 1.966 c -0.812 0.415 -1.21 0.542 -1.27 0.574 c -3.167 -1.206 -6.869 -0.097 -8.697 2.817 c 0.912 -1.459 0.905 -0.785 -0.174 -0.504 c -1.105 0.288 -3.113 0.537 -5.27 0.887 c -1.99 0.323 -3.801 1.459 -4.94 3.235 c -1.17 0.171 -2.487 0.445 -3.879 1.044 c -1.509 0.642 -2.737 1.818 -3.513 3.287 c -0.393 0.082 -0.765 0.128 -1.183 0.261 c -1.934 0.617 -4.005 1.852 -5.288 4.523 c -0.313 0.652 -0.526 1.306 -0.661 1.948 c -0.496 0.202 -0.986 0.388 -1.496 0.695 c -2.498 1.51 -3.989 3.56 -4.139 6.923 c -0.002 0.03 0.001 0.057 0 0.087 c -0.936 0.576 -1.94 1.321 -2.783 2.522 c -1.272 1.813 -1.723 3.715 -1.513 5.758 c -0.967 0.844 -1.831 1.837 -2.418 3.113 c -1.244 2.703 -1.143 5.693 0.278 8.349 c 0.194 0.363 0.433 0.667 0.661 0.991 c -1.136 1.048 -2.376 2.365 -3.357 4.505 c -0.918 2.004 -1.351 4.513 -0.365 7.273 c 0.489 1.36 1.266 2.45 2.139 3.39 c -0.176 0.56 -0.393 1.06 -0.487 1.74 v 0.02 c -0.302 2.27 0.524 4.61 2.192 6.19 c 0.192 0.18 0.418 0.31 0.626 0.47 c -0.012 0.05 -0.022 0.11 -0.035 0.15 c -0.656 2.33 -0.119 4.85 1.548 6.74 c 0.25 0.28 0.552 0.49 0.835 0.73 c -0.009 0.7 -0.015 0.82 -0.035 1.68 c -0.058 2.54 1.201 4.86 3.305 6.23 c 0.422 0.28 0.878 0.47 1.339 0.64 c 0.089 0.68 0.094 0.77 0.192 1.52 v 0.03 c 0.278 2 1.411 3.85 3.096 4.99 c 0.441 0.3 0.921 0.54 1.409 0.74 c 0.625 2.26 2.338 4.13 4.574 4.93 c 0.038 -0.04 0.118 -0.1 0.157 -0.05 c 0.017 0.03 0.032 0.09 0.052 0.12 c -0.01 0 -0.079 -0.01 -0.087 -0.01 c 0.036 0.01 0.069 0.02 0.104 0.03 c 0.181 0.3 0.444 0.89 0.47 1.1 c 0.336 2.66 2.139 5 4.766 5.93 c 0.744 0.26 1.506 0.37 2.261 0.38 c 0.725 1.24 1.789 2.72 3.896 3.95 c 1.362 0.8 2.773 1.17 4.262 1.2 c -0.646 1.28 -1.074 2.67 -1.096 4.19 c -0.047 3.31 1.268 5.63 1.861 6.87 c 0.146 0.31 0.206 0.5 0.313 0.77 c -0.714 1.04 -1.152 2.27 -1.2 3.62 c -0.072 2.04 0.798 3.95 2.157 5.23 c 1.329 1.28 1.568 1.87 1.826 2.92 s 0.319 2.74 0.331 5.2 c 0.007 2.52 1.457 4.73 3.6 5.92 c -0.092 1.28 -0.068 3.23 0.8 5.79 c 0.704 2.06 2.36 3.65 4.366 4.31 c 0.194 1.24 0.55 3.02 1.983 5 c 0.742 1.02 1.693 1.82 2.731 2.47 c 0.446 1.51 1.146 2.99 2.176 4.33 c 1.24 1.6 2.86 2.78 4.62 3.65 c 0.35 0.83 0.77 1.62 1.33 2.33 c 1.33 1.72 2.71 2.59 3.67 3.17 c 0.09 1.2 0.48 2.38 1.18 3.39 c 1.17 1.68 3.14 2.72 5.17 2.87 c 0.05 0.09 0.05 0.09 0.12 0.21 c 0.46 0.83 1.41 2.79 3.49 4.5 c 0.67 0.55 1.35 0.95 2.02 1.27 c 0.05 0.1 0.11 0.2 0.16 0.3 c -0.06 0.11 -0.12 0.23 -0.18 0.34 c -0.66 0.33 -1.34 0.72 -2 1.26 c -2.05 1.68 -3.02 3.62 -3.49 4.48 c -0.06 0.11 -0.07 0.11 -0.12 0.2 c -2.04 0.14 -3.99 1.19 -5.17 2.88 c -0.71 1.02 -1.09 2.2 -1.18 3.41 c -0.97 0.59 -2.35 1.47 -3.67 3.17 c -0.54 0.69 -0.94 1.47 -1.29 2.29 c -1.78 0.87 -3.41 2.06 -4.66 3.67 c -1.04 1.34 -1.73 2.82 -2.176 4.34 c -1.038 0.64 -1.989 1.44 -2.731 2.47 c -1.444 1.98 -1.793 3.78 -1.983 5 c -2.034 0.68 -3.698 2.28 -4.383 4.39 c -0.854 2.52 -0.875 4.42 -0.783 5.7 c -2.143 1.19 -3.593 3.42 -3.6 5.93 c -0.012 2.47 -0.073 4.14 -0.331 5.19 s -0.515 1.68 -1.844 2.95 c -1.358 1.29 -2.211 3.16 -2.139 5.2 c 0.048 1.36 0.5 2.58 1.218 3.62 c -0.109 0.27 -0.183 0.48 -0.331 0.79 c -0.585 1.22 -1.908 3.54 -1.861 6.85 c 0.026 1.83 0.61 3.48 1.496 4.94 c -0.582 1.85 -1.089 3.84 -1.235 6.14 c -0.127 2 0.047 4.41 1.2 6.8 c 0.224 0.46 0.519 0.77 0.783 1.16 c -0.525 2.19 -0.631 4.46 -0.035 6.68 c 0.508 1.9 1.445 3.52 2.592 4.91 c -0.133 1.19 -0.096 2.48 0.33 3.88 c 0.838 2.75 2.507 4.33 3.427 5.16 c -0.42 1.65 -0.241 3.42 0.574 4.94 c 1.356 2.55 2.81 3.93 3.687 4.65 c -0.906 3.06 0.393 6.48 3.253 8.02 c 1.851 1.01 2.505 1.57 2.762 1.89 c 0.29 0.36 0.63 0.83 0.94 3.08 v 0.02 c 0.34 2.32 1.87 4.4 4.14 5.36 c 0.33 0.13 0.66 0.19 0.99 0.27 c 0.36 1.55 0.93 3.66 3.07 5.74 c 1.11 1.1 2.49 1.84 4.03 2.21 c 0.88 1.51 2.02 2.85 3.48 3.86 c 1.44 1 2.88 1.55 4.23 1.9 c 1.12 2.21 2.66 4.2 4.83 5.62 c 1.76 1.15 3.76 1.7 5.76 1.82 c 0.79 0.92 1.77 1.77 3.06 2.42 c 2.86 1.45 5.55 1.26 6.82 1.2 c 0.36 -0.01 0.52 0 0.76 0 c 1.14 1.89 3.03 3.11 5.29 3.29 c 1.4 0.11 2.74 -0.26 3.9 -0.92 c 1.11 0.66 2.87 1.7 5.51 2.05 c 0.92 0.12 1.84 0.08 2.73 -0.05 c 1.13 0.72 2.39 1.27 3.81 1.44 c 2.14 0.27 3.73 -0.13 5.01 -0.57 c 1.21 1.2 2.79 2.01 4.56 2.07 c 2.11 0.09 3.89 -0.42 5.41 -1.03 c 0.24 0.2 0.41 0.47 0.68 0.63 c 1.54 0.94 3.4 1.27 5.27 0.8 c 4.48 -1.12 7.49 -3.34 8.34 -3.65 c 0.01 0 0.02 -0.01 0.02 0 c 0.1 0.08 0.13 0.11 0.37 0.36 h 0.02 c 1.72 1.82 4.32 2.56 6.74 1.91 c 3.53 -0.89 6.13 -1.88 6.87 -1.96 c 1.18 -0.13 -0.08 -0.84 1.5 0.95 c 0.01 0.01 0.01 0.02 0.02 0.02 c 1.3 1.48 3.09 2.25 4.9 2.32 c 1.81 0.06 3.72 -0.64 5.06 -1.95 c 0.43 -0.42 0.48 -0.43 0.68 -0.59 c 0.4 0.19 0.84 0.37 1.67 0.97 c 2.48 1.79 5.9 1.71 8.3 -0.19 c 0.01 -0.01 0.01 -0.02 0.02 -0.04 c 0.39 -0.31 0.56 -0.47 0.88 -0.74 c 2.64 1.79 6.26 1.58 8.6 -0.66 c 0.01 -0.02 0.03 -0.04 0.05 -0.06 c 0.63 -0.62 0.94 -0.84 1.2 -1.02 c 0.27 0.12 0.58 0.25 1.36 0.74 c 2.44 1.57 5.64 1.41 7.93 -0.38 h 0.01 c 1.1 -0.86 1.98 -1.66 2.72 -2.35 c 0.72 0.4 1.49 0.71 2.35 0.82 c 0.02 0.01 0.05 0.01 0.08 0.02 c 1.72 0.2 3.61 -0.01 5.39 -0.94 c 1.41 -0.73 2.32 -1.74 3.05 -2.78 c 0.89 0.05 1.84 0 2.83 -0.25 c 2.19 -0.53 3.78 -1.73 4.93 -3.25 c 0.38 -0.51 0.66 -1.02 0.92 -1.51 c 1.06 -0.03 2.18 -0.16 3.36 -0.65 c 2.17 -0.9 3.56 -2.45 4.41 -4.19 c 0.21 -0.43 0.32 -0.84 0.46 -1.25 c 0.93 -0.19 1.91 -0.5 2.9 -1.1 c 2.02 -1.2 3.13 -2.86 3.74 -4.59 c 0.08 -0.21 0.1 -0.4 0.16 -0.61 c 0.93 -0.24 1.88 -0.63 2.81 -1.25 c 1.96 -1.31 3.01 -3.08 3.53 -4.83 c 0.24 -0.8 0.36 -1.54 0.42 -2.23 c 2.71 -1.23 4.7 -3.51 5.34 -6.44 c 0.13 -0.56 0.17 -1.08 0.21 -1.58 c 3.09 -1.82 4.77 -4.89 5.2 -7.67 c 0.16 -0.99 0.14 -1.81 0.12 -2.57 c 1.02 -0.47 1.91 -1.16 2.61 -2.07 c 1.26 -1.65 1.69 -3.84 1.22 -5.78 v -0.03 c -0.51 -2.05 -0.32 -2 -0.3 -2.07 c -0.03 0.07 0.49 -0.78 2.16 -2.37 c 2.18 -2.07 2.62 -5.32 1.34 -7.97 c 0.12 -0.21 0.2 -0.39 0.73 -1.28 c 0.77 -1.28 2.14 -3.44 2.49 -6.51 c 0.16 -1.43 0.02 -2.86 -0.37 -4.22 c 1.17 -1.68 2.15 -3.62 2.4 -6.11 c 0.26 -2.51 -0.44 -4.75 -1.47 -6.73 c 0.8 -1.84 1.24 -3.85 0.99 -5.97 c -0.19 -1.59 -0.75 -3.08 -1.55 -4.4 c 0.42 -1.61 0.54 -3.35 0.17 -5.15 c -0.38 -1.83 -1.3 -3.6 -2.73 -5.01 c -0.07 -1.94 -0.53 -3.85 -1.46 -5.51 c -0.66 -1.17 -1.47 -2.09 -2.31 -2.89 c -0.01 -1.49 -0.31 -3.02 -1.05 -4.45 c -1.39 -2.73 -3.46 -3.98 -4.5 -4.63 c 0.29 -1.38 0.29 -2.84 -0.33 -4.21 c -0.8 -1.75 -2.22 -3.03 -3.99 -3.65 c -0.51 -0.18 -0.75 -0.25 -1.16 -0.38 c 0.02 -1.84 -0.64 -3.5 -1.86 -4.78 c -0.97 -1.03 -2.28 -1.71 -3.64 -1.99 c -0.37 -1.08 -0.87 -2.44 -1.61 -3.88 c -0.96 -1.88 -2.73 -3.03 -4.68 -3.46 c -0.37 -1.52 -1.06 -4.54 -4.09 -6.82 c -0.86 -0.64 -1.8 -1.07 -2.77 -1.37 c -0.22 -0.43 -0.44 -0.85 -0.74 -1.25 c -2.02 -2.65 -4.61 -3.42 -5.97 -3.79 c -0.14 -0.94 -0.4 -1.84 -0.89 -2.63 c 0.48 -0.78 0.75 -1.66 0.89 -2.57 c 1.33 -0.37 3.93 -1.11 5.97 -3.78 c 0.3 -0.4 0.52 -0.83 0.74 -1.25 c 0.98 -0.31 1.91 -0.75 2.77 -1.39 c 3.03 -2.28 3.72 -5.3 4.09 -6.82 c 1.94 -0.43 3.71 -1.57 4.68 -3.43 v -0.02 c 0.74 -1.43 1.24 -2.77 1.61 -3.86 c 1.41 -0.28 2.69 -0.98 3.67 -2.03 c 1.2 -1.28 1.84 -3.02 1.83 -4.77 c 0.42 -0.14 0.67 -0.2 1.18 -0.38 c 1.76 -0.62 3.17 -1.9 3.97 -3.65 c 0.62 -1.36 0.63 -2.81 0.35 -4.2 c 1.05 -0.65 3.09 -1.9 4.48 -4.62 c 0.74 -1.44 1.05 -2.96 1.05 -4.45 v -0.02 c 0.84 -0.8 1.65 -1.72 2.31 -2.89 c 0.93 -1.65 1.39 -3.55 1.46 -5.5 c 1.43 -1.41 2.35 -3.17 2.73 -5.01 c 0.38 -1.81 0.24 -3.56 -0.19 -5.18 c 0.8 -1.31 1.38 -2.79 1.57 -4.38 c 0.25 -2.12 -0.19 -4.13 -0.99 -5.97 c 0.44 -0.85 0.79 -1.74 1.06 -2.69 c 0.07 -0.02 0.14 -0.02 0.22 -0.04 c 2.47 -0.62 4.29 -2.06 5.53 -3.96 c 0.2 -0.31 0.29 -0.62 0.46 -0.93 c 0.18 -0.01 0.36 0.03 0.55 0 c 2.8 -0.37 5.15 -2.36 5.97 -5.04 c 0.21 -0.67 0.27 -0.82 0.49 -1.43 c 0.05 -0.01 0.1 -0.01 0.15 -0.03 c 2.04 -0.71 3.69 -2.31 4.44 -4.38 c 0.12 -0.34 0.17 -0.57 0.28 -0.89 c 2.09 -0.84 3.72 -2.54 4.33 -4.77 v -0.03 c 0.31 -1.17 0.43 -2.15 0.57 -3.12 c 0.16 -0.06 0.32 -0.08 0.47 -0.15 c 1.98 -0.95 3.39 -2.71 3.91 -4.82 c 0.27 -1.09 0.38 -2.13 0.42 -3.1 c 1.3 -1.19 2.15 -2.82 2.33 -4.59 c 0.01 -0.01 0.01 -0.02 0.02 -0.03 c 0.11 -1.2 0.05 -2.26 -0.07 -3.22 c 0.82 -0.69 1.54 -1.52 1.98 -2.54 l 0.02 -0.02 c 0.98 -2.27 0.72 -4.47 0.24 -6.16 c 0.24 -0.24 0.52 -0.41 0.73 -0.69 c 1.63 -2.09 2.3 -4.45 1.92 -7.08 c -0.58 -3.915 -3.15 -6.207 -4.4 -7.393 c 0.38 -0.507 0.77 -1.001 1.09 -1.617 c 0.57 -1.073 1.2 -2.745 1.06 -4.784 c -0.16 -2.402 -1.1 -4.142 -2.71 -5.635 c -0.24 -0.22 -0.5 -0.353 -0.75 -0.539 c 0.04 -0.363 0.12 -0.712 0.11 -1.096 c -0.09 -3.555 -1.99 -5.642 -4.02 -6.94 c -0.1 -0.064 -0.2 -0.08 -0.3 -0.14 c -0.01 -1.343 -0.31 -2.719 -1.2 -4.174 c -1.14 -1.869 -2.86 -2.893 -4.4 -3.496 c -0.06 -0.457 -0.08 -0.889 -0.24 -1.374 c -0.66 -2.012 -1.76 -3.478 -3.74 -4.627 c -1.17 -0.678 -2.38 -0.937 -3.55 -1.061 c -0.75 -1.21 -1.73 -2.181 -3.03 -2.922 c -1.46 -0.841 -2.89 -1.085 -3.89 -1.183 c -0.6 -0.797 -1.33 -1.502 -2.25 -2 l -0.03 -0.018 c -3.39 -1.812 -6.23 -1.831 -7.72 -1.878 c -0.55 -0.814 -1.25 -1.536 -2.11 -2.087 c -1.84 -1.177 -4.15 -1.412 -6.14 -0.766 c -0.7 0.23 -1.94 0.26 -2.49 0.139 c -0.57 -0.126 -0.4 -0.359 0.06 0.418 c -1.73 -2.901 -5.33 -4.237 -8.53 -3.166 c -1.83 0.612 -3.98 1.116 -5.39 1.2 c -1.4 0.084 -1.88 -0.399 -1.3 0.087 c -1.49 -1.247 -3.41 -1.84 -5.34 -1.652 h -0.02 z" stroke-linecap="round" />
</g>
		<g transform="matrix(1 0 0 1 0.73 80.48)" id="path3738"  >
<path style="stroke: none; stroke-width: 1; stroke-dasharray: none; stroke-linecap: butt; stroke-dashoffset: 0; stroke-linejoin: miter; stroke-miterlimit: 4; fill: rgb(179,179,179); fill-rule: evenodd; opacity: 1;"  transform=" translate(-198.68, -307.01)" d="m 306.32 311.74 c 3.78 -3.34 2.94 -7.57 -0.7 -8.86 c 3.11 -3.74 2.48 -7.83 -1.83 -7.81 c 2.62 -4.83 -0.77 -8.18 -3.72 -9.33 c 3.92 -8.01 -7.88 -5.06 -4.5 -13.43 c -3.95 -1.4 -6.2 -1.07 -5.72 -6.93 c -5.56 0.17 -4.16 -3.13 -6.39 -7.43 c -7.68 3.03 -2.12 -12.51 -11.4 -7.31 c 2.45 -9.47 -8.35 -2.98 -7.48 -11.57 c -4.09 -1.47 -7.61 -0.24 -6.62 -6.28 c -5.35 0.31 -6.56 -1.88 -9.16 -6.17 c -6.7 2.57 -7.03 -8.46 -14.06 -5.05 c -1.09 -8.11 -9.87 -0.32 -11.84 -7.4 c -6.63 2.29 -10.27 -3.45 -16.52 -1.5 c -5.25 -5.5 -10.98 3.39 -16.88 -1.97 c -1.06 6.49 -10.31 -2.11 -10.92 4.54 c -7.72 -1.92 -9.4 3.41 -16.67 3.24 c -0.16 5.08 -9.83 0.68 -9.28 6.51 c -7.75 -0.61 -6.89 6.81 -14.65 6.49 c 1.59 6.75 -10.13 3.21 -8.11 9.82 c -7.18 -0.12 -4.03 7.31 -11.27 7.29 c 2.06 5.42 -7.01 4.23 -5.67 10.19 c -4.9 0.42 -7.14 3.97 -6.62 7.89 c -7.538 -0.02 -1.35 8.78 -8.905 8.85 c -1.255 3.7 1.769 7.81 -4.038 9.53 c -0.023 4.89 -0.067 9.02 -4.302 13.08 c 5.711 4.64 -5.634 10.7 1.417 14.75 c -1.936 5.72 -4.157 11.56 0.957 14.11 c -3.066 4.9 -1.387 8.98 2.345 10.98 c -4.116 7.43 5.89 5.89 2.608 13.02 c 1.978 3.71 6.558 4.03 4.128 9.85 c 4.17 2.27 6.44 4.13 7.28 10.06 c 6.64 -4.78 2.43 12.4 10 6.86 c 0.77 6.44 3.98 6.91 8.09 7.34 c 1.33 5.75 5.25 8.17 9.18 6.15 c 2.6 8.45 9.21 0.18 12.9 7.45 c 4.04 -5.61 8.45 5.05 13.4 -0.34 c 2.99 8.02 10.12 -3.91 11.83 4.37 c 4.5 0.2 7.65 -6.82 9.42 0.6 c 5.48 -1.36 9.77 -7.35 15.44 -1.34 c 5.67 -1.45 10.21 -4.71 15.29 1.09 c 3.98 -3.86 6.06 -3.97 11.18 -0.28 c 3.67 -2.95 3.93 -5.12 9 -0.99 c 3.84 -3.8 6.12 -4.37 11.08 -1.19 c 3.6 -2.83 4.73 -6.98 10.2 -2.94 c 4.81 0.55 0.55 -8.48 7.01 -3.95 c 6.12 1.78 1.36 -8.95 8.24 -4.83 c 6.21 0.87 -0.48 -8.85 6.94 -5.83 c 6.19 -0.03 -1.4 -8.84 6.34 -6.15 c 6.5 -0.28 -1.71 -9.51 5.97 -7.79 c 5.7 -1.19 -1.95 -9.48 5.61 -7.95 c 5.12 -2.89 -2.06 -10.3 6.01 -10.58 c -1.37 -5.54 0.12 -7.57 3.82 -11.07 c -4.34 -5.98 6.49 -9.57 0.8 -15.82 c 4.46 -4.77 5.13 -7.18 0.77 -11.97 z" stroke-linecap="round" />
</g>
		<g transform="matrix(1 0 0 1 88.35 -124.09)" id="path13607"  >
<path style="stroke: none; stroke-width: 1; stroke-dasharray: none; stroke-linecap: butt; stroke-dashoffset: 0; stroke-linejoin: miter; stroke-miterlimit: 4; fill: rgb(179,179,179); fill-rule: evenodd; opacity: 1;"  transform=" translate(-286.29, -102.44)" d="m 229.12 103.23 c -0.52 27.23 24.29 51.19 51.2 51.48 c 7.29 0.4 14.74 -0.55 21.45 -3.5 c 2.41 -3.65 7.82 2.71 9.1 -2.96 c 2.37 2.11 4.65 1.96 5.18 -1.71 c 0.58 -2.29 3.7 -4.71 5.42 -2.04 c 0.91 -2.94 2.2 -8 5.19 -6.15 c 0.78 -2.14 1.04 -7.82 4.43 -5.12 c 0.89 -3.31 -0.09 -10.27 4.92 -7.93 c 0.74 -3.05 -2.24 -8.56 2.58 -6.68 c 0.34 -3.62 -3.76 -9.46 2.5 -7.97 c 1.12 -2.61 -6.52 -8.29 -0.2 -6.92 c 8.27 -3.911 -6.07 -8.78 -4.52 -13.019 c 3.72 -1.561 8.04 -5.749 1.12 -6.137 c -3.27 -0.192 -4.93 -4.437 -0.5 -4.248 c 4.51 -5.29 -12.23 -2.127 -4.37 -6.696 c 3.58 -4.943 -4.94 -3.063 -6.78 -3.764 c 1.77 -2.324 4.45 -7.228 -1.14 -5.794 c -3.3 1.578 -5.91 -0.026 -3.04 -3.092 c -1.06 -3.394 -9.55 2.029 -6.71 -4.019 c -3.45 -1.85 -9.77 0.208 -10.31 -4.222 c -4.06 1.32 -9.06 0.448 -10.89 -2.626 c -4.42 1.476 -10.4 2.681 -13.64 -0.027 c -4.9 2.485 -10.32 1.144 -15.27 3.762 c -5.04 2.319 -10.27 3.988 -14.48 7.893 c -5.24 4.225 -10.63 8.541 -14.88 13.756 c -4.15 8.562 -5.66 18.33 -6.36 27.733 z" stroke-linecap="round" />
</g>
		<g transform="matrix(1 0 0 1 -88.42 -123.52)" id="path7450"  >
<path style="stroke: none; stroke-width: 1; stroke-dasharray: none; stroke-linecap: butt; stroke-dashoffset: 0; stroke-linejoin: miter; stroke-miterlimit: 4; fill: rgb(179,179,179); fill-rule: evenodd; opacity: 1;"  transform=" translate(-109.52, -103.02)" d="m 166.63 103.54 c 0.54 27.71 -25.19 51.98 -52.57 51.54 c -6.84 0.22 -13.79 -0.79 -20.083 -3.55 c -2.232 -3.33 -8.283 2.28 -9.093 -2.97 c -5.472 5.9 -5.189 -8.97 -10.6 -3.74 c -0.438 -3.48 -2.981 -6.81 -5.466 -7.1 c 0.285 -3.32 -2.619 -5.25 -4.307 -4.84 c -0.365 -2.78 -0.237 -9.39 -4.768 -7.26 c 0.073 -3.18 0.79 -7.91 -2.598 -7.39 c 0.915 -3.32 2.055 -8.65 -2.596 -7.79 c 0.392 -2.87 5.682 -7.6 -0.397 -6.77 c -7.242 -4.706 10.797 -9.879 3.151 -13.754 c -4.419 -1.95 -2.203 -6.066 2.103 -5.27 c 3.988 -1.688 0.816 -4.116 -1.253 -4.899 c -0.957 -4.024 11.39 -1.826 4.974 -5.8 c -4.014 -6.449 11.263 -0.671 4.893 -6.997 c -1.538 -5.837 10.869 1.162 6.351 -6.191 c 2.95 -1.27 8.395 0.843 7.108 -3.785 c 3.728 -0.605 8.667 -0.914 10.406 -3.696 c 5.443 2.753 9.055 -4.241 13.655 -1.848 c 6.05 1.739 10.94 -2.059 16.74 0.69 c 6.84 0.344 12.89 3.923 18.9 6.844 c 6.9 4.917 13.56 10.39 19.09 16.85 c 4.17 8.634 5.65 18.256 6.36 27.726 z" stroke-linecap="round" />
</g>
		<g transform="matrix(1 0 0 1 -88.42 -123.51)" id="path2844"  >
<path style="stroke: none; stroke-width: 1; stroke-dasharray: none; stroke-linecap: butt; stroke-dashoffset: 0; stroke-linejoin: miter; stroke-miterlimit: 4; fill: rgb(204,204,204); fill-rule: evenodd; opacity: 1;"  transform=" translate(-109.52, -103.02)" d="m 147.19 103.37 c 0.36 18.8 -16.61 35.26 -34.68 34.97 c -4.51 0.15 -9.09 -0.54 -13.244 -2.41 c -1.472 -2.26 -5.463 1.54 -5.998 -2.01 c -3.609 4 -3.422 -6.09 -6.992 -2.54 c -0.289 -2.36 -1.966 -4.63 -3.605 -4.82 c 0.187 -2.25 -1.728 -3.56 -2.842 -3.28 c -0.24 -1.89 -0.156 -6.37 -3.145 -4.93 c 0.048 -2.15 0.521 -5.36 -1.713 -5.01 c 0.603 -2.26 1.355 -5.87 -1.713 -5.29 c 0.259 -1.94 3.748 -5.15 -0.262 -4.59 c -4.777 -3.19 7.123 -6.702 2.079 -9.331 c -2.916 -1.323 -1.454 -4.115 1.387 -3.575 c 2.63 -1.145 0.538 -2.792 -0.827 -3.324 c -0.631 -2.729 7.514 -1.238 3.282 -3.934 c -2.648 -4.375 7.429 -0.455 3.227 -4.747 c -1.014 -3.96 7.17 0.789 4.189 -4.2 c 1.947 -0.862 5.539 0.572 4.689 -2.567 c 2.46 -0.411 5.717 -0.62 6.864 -2.508 c 3.594 1.867 5.974 -2.877 9.014 -1.254 c 3.99 1.18 7.21 -1.396 11.04 0.468 c 4.51 0.234 8.5 2.662 12.46 4.643 c 4.56 3.336 8.95 7.049 12.6 11.431 c 2.74 5.858 3.72 12.386 4.19 18.808 z" stroke-linecap="round" />
</g>
		<g transform="matrix(1 0 0 1 86.48 -123.51)" id="path3731"  >
<path style="stroke: none; stroke-width: 1; stroke-dasharray: none; stroke-linecap: butt; stroke-dashoffset: 0; stroke-linejoin: miter; stroke-miterlimit: 4; fill: rgb(204,204,204); fill-rule: evenodd; opacity: 1;"  transform=" translate(-284.42, -103.02)" d="m 246.75 103.37 c -0.36 18.8 16.61 35.26 34.68 34.97 c 4.51 0.15 9.09 -0.54 13.24 -2.41 c 1.48 -2.26 5.47 1.54 6 -2.01 c 3.61 4 3.42 -6.09 6.99 -2.54 c 0.29 -2.36 1.97 -4.63 3.61 -4.82 c -0.19 -2.25 1.73 -3.56 2.84 -3.28 c 0.24 -1.89 0.16 -6.37 3.15 -4.93 c -0.05 -2.15 -0.52 -5.36 1.71 -5.01 c -0.6 -2.26 -1.36 -5.87 1.71 -5.29 c -0.26 -1.94 -3.75 -5.15 0.26 -4.59 c 4.78 -3.19 -7.12 -6.702 -2.07 -9.331 c 2.91 -1.323 1.45 -4.115 -1.39 -3.575 c -2.63 -1.145 -0.54 -2.792 0.83 -3.324 c 0.63 -2.729 -7.52 -1.238 -3.29 -3.934 c 2.65 -4.375 -7.43 -0.455 -3.22 -4.747 c 1.01 -3.96 -7.17 0.789 -4.19 -4.2 c -1.95 -0.862 -5.54 0.572 -4.69 -2.567 c -2.46 -0.411 -5.72 -0.62 -6.87 -2.508 c -3.59 1.867 -5.97 -2.877 -9 -1.254 c -4 1.18 -7.22 -1.396 -11.05 0.468 c -4.51 0.234 -8.5 2.662 -12.46 4.643 c -4.56 3.336 -8.95 7.049 -12.6 11.431 c -2.74 5.858 -3.72 12.386 -4.19 18.808 z" stroke-linecap="round" />
</g>
		<g transform="matrix(1 0 0 1 -1.11 44.45)" id="path4032"  >
<radialGradient id="SVGID_radialGradient2239_464" gradientUnits="userSpaceOnUse" gradientTransform="matrix(0 0.39 -0.41 0 507.73 133.21)"  cx="260.43" cy="755" r="170.58" fx="260.43" fy="755">
<stop offset="0%" style="stop-color:rgb(179,179,179);stop-opacity: 1"/>
<stop offset="100%" style="stop-color:rgb(77,77,77);stop-opacity: 0"/>
</radialGradient>
<path style="stroke: none; stroke-width: 1; stroke-dasharray: none; stroke-linecap: butt; stroke-dashoffset: 0; stroke-linejoin: miter; stroke-miterlimit: 4; fill: url(#SVGID_radialGradient2239_464); fill-rule: evenodd; opacity: 1;"  transform=" translate(-196.83, -270.99)" d="m 189.5 210.7 c -1.06 6.5 -10.32 -2.11 -10.92 4.54 c -7.72 -1.93 -9.4 3.41 -16.67 3.25 c -0.15 5.08 -9.83 0.68 -9.29 6.51 c -7.74 -0.61 -6.89 6.81 -14.64 6.49 c 1.59 6.75 -10.12 3.19 -8.11 9.81 c -7.18 -0.13 -4.02 7.32 -11.27 7.3 c 2.07 5.42 -7 4.22 -5.67 10.18 c -4.9 0.42 -7.15 3.97 -6.62 7.89 c -3.73 -0.01 -4.09 2.13 -4.42 4.32 c 0.33 2.17 0.7 4.32 4.42 4.31 c -0.53 3.92 1.72 7.45 6.62 7.88 c -1.33 5.96 7.74 4.77 5.67 10.19 c 7.25 -0.01 4.09 7.42 11.27 7.29 c -2.01 6.62 9.7 3.06 8.11 9.81 c 7.75 -0.32 6.9 7.12 14.64 6.51 c -0.54 5.83 9.14 1.43 9.29 6.5 c 7.27 -0.16 8.95 5.16 16.67 3.24 c 0.6 6.65 9.86 -1.94 10.92 4.55 c 5.9 -5.36 11.62 3.52 16.87 -1.98 c 6.25 1.95 9.9 -3.79 16.53 -1.49 c 1.97 -7.08 10.76 0.71 11.84 -7.4 c 7.03 3.41 7.36 -7.64 14.05 -5.06 c 2.6 -4.29 3.82 -6.48 9.17 -6.17 c -0.99 -6.05 2.54 -4.81 6.63 -6.28 c -0.87 -8.6 9.92 -2.1 7.46 -11.57 c 9.28 5.21 3.73 -10.34 11.41 -7.3 c 2.23 -4.31 0.82 -7.62 6.38 -7.45 c -0.29 -3.57 0.43 -4.84 1.93 -5.6 c -1.49 -0.77 -2.22 -2.02 -1.93 -5.58 c -5.56 0.16 -4.15 -3.14 -6.38 -7.45 c -7.68 3.04 -2.13 -12.51 -11.41 -7.3 c 2.46 -9.48 -8.33 -2.98 -7.46 -11.57 c -4.09 -1.47 -7.62 -0.24 -6.63 -6.28 c -5.35 0.31 -6.57 -1.88 -9.17 -6.17 c -6.69 2.57 -7.02 -8.45 -14.05 -5.05 c -1.08 -8.11 -9.87 -0.33 -11.84 -7.41 c -6.63 2.29 -10.28 -3.44 -16.53 -1.49 c -5.25 -5.5 -10.97 3.39 -16.87 -1.97 z" stroke-linecap="round" />
</g>
		<g transform="matrix(1 0 0 1 0.73 -62.55)" id="path1307"  >
<path style="stroke: none; stroke-width: 1; stroke-dasharray: none; stroke-linecap: butt; stroke-dashoffset: 0; stroke-linejoin: miter; stroke-miterlimit: 4; fill: rgb(179,179,179); fill-rule: evenodd; opacity: 1;"  transform=" translate(-198.68, -163.98)" d="m 306.32 159.25 c 3.78 3.35 2.94 7.58 -0.7 8.87 c 3.11 3.74 2.48 7.82 -1.83 7.81 c 2.62 4.83 -0.77 8.18 -3.72 9.33 c 3.92 8 -7.88 5.05 -4.5 13.43 c -3.95 1.4 -6.2 1.06 -5.72 6.92 c -5.56 -0.16 -4.16 3.13 -6.39 7.44 c -7.68 -3.04 -2.12 12.51 -11.4 7.3 c 2.45 9.47 -8.35 2.98 -7.48 11.57 c -4.09 1.48 -7.61 0.24 -6.62 6.28 c -5.35 -0.3 -6.56 1.89 -9.16 6.18 c -6.7 -2.58 -7.03 8.45 -14.06 5.05 c -1.09 8.11 -9.87 0.32 -11.84 7.4 c -6.63 -2.29 -10.27 3.45 -16.52 1.5 c -5.25 5.5 -10.98 -3.39 -16.88 1.97 c -1.06 -6.5 -10.31 2.1 -10.92 -4.55 c -7.72 1.93 -9.4 -3.4 -16.67 -3.24 c -0.16 -5.07 -9.83 -0.67 -9.28 -6.5 c -7.75 0.6 -6.89 -6.82 -14.65 -6.5 c 1.59 -6.75 -10.13 -3.2 -8.11 -9.82 c -7.18 0.13 -4.03 -7.31 -11.27 -7.29 c 2.06 -5.42 -7.01 -4.22 -5.67 -10.18 c -4.9 -0.43 -7.14 -3.97 -6.62 -7.89 c -7.538 0.02 -1.35 -8.78 -8.905 -8.86 c -1.255 -3.69 1.769 -7.8 -4.038 -9.52 c -0.023 -4.89 -0.067 -9.03 -4.302 -13.09 c 5.711 -4.64 -5.634 -10.69 1.417 -14.74 c -1.936 -5.72 -4.157 -11.57 0.957 -14.11 c -3.066 -4.9 -1.387 -8.98 2.345 -10.98 c -4.116 -7.43 5.89 -5.89 2.608 -13.03 c 1.978 -3.7 6.558 -4.03 4.128 -9.84 c 4.17 -2.28 6.44 -4.13 7.28 -10.06 c 6.64 4.78 2.43 -12.406 10 -6.863 c 0.77 -6.446 3.98 -6.907 8.09 -7.343 c 1.33 -5.748 5.25 -8.171 9.18 -6.146 c 2.6 -8.45 9.21 -0.186 12.9 -7.454 c 4.04 5.613 8.45 -5.047 13.4 0.337 c 2.99 -8.016 10.12 3.91 11.83 -4.368 c 4.5 -0.193 7.65 6.821 9.42 -0.602 c 5.48 1.368 9.77 7.358 15.44 1.348 c 5.67 1.445 10.21 4.702 15.29 -1.09 c 3.98 3.855 6.06 3.968 11.18 0.281 c 3.67 2.949 3.93 5.113 9 0.99 c 3.84 3.796 6.12 4.361 11.08 1.185 c 3.6 2.829 4.73 6.982 10.2 2.942 c 4.81 -0.556 0.55 8.475 7.01 3.949 c 6.12 -1.777 1.36 8.945 8.24 4.825 c 6.21 -0.866 -0.48 8.852 6.94 5.834 c 6.19 0.027 -1.4 8.837 6.34 6.152 c 6.5 0.282 -1.71 9.513 5.97 7.793 c 5.7 1.18 -1.95 9.48 5.61 7.94 c 5.12 2.9 -2.06 10.3 6.01 10.58 c -1.37 5.54 0.12 7.58 3.82 11.08 c -4.34 5.98 6.49 9.56 0.8 15.81 c 4.46 4.78 5.13 7.19 0.77 11.97 z" stroke-linecap="round" />
</g>
		<g transform="matrix(0.96 0 0 0.98 -40.11 -75.47)" id="path2185"  >
<radialGradient id="SVGID_radialGradient2241_465" gradientUnits="userSpaceOnUse" gradientTransform="matrix(0.85 0 0 0.85 49.72 80.36)"  cx="326.85" cy="551.07" r="18.435" fx="326.85" fy="551.07">
<stop offset="0%" style="stop-color:rgb(178,114,63);stop-opacity: 1"/>
<stop offset="100%" style="stop-color:rgb(92,54,12);stop-opacity: 1"/>
</radialGradient>
<path style="stroke: rgb(0,0,0); stroke-width: 2.0726; stroke-dasharray: none; stroke-linecap: round; stroke-dashoffset: 0; stroke-linejoin: round; stroke-miterlimit: 4; fill: url(#SVGID_radialGradient2241_465); fill-rule: evenodd; opacity: 1;"  transform=" translate(-323, -551.07)" d="m 341.43 551.07 a 18.435 18.435 0 1 1 -36.87 0 a 18.435 18.435 0 1 1 36.87 0 z" stroke-linecap="round" />
</g>
		<g transform="matrix(0.96 0 0 0.96 42.42 -75.49)" id="path9205"  >
<radialGradient id="SVGID_radialGradient2243_466" gradientUnits="userSpaceOnUse" gradientTransform="matrix(0.89 0 0 0.85 36.44 81.84)"  cx="319.85" cy="551.07" r="18.435" fx="319.85" fy="551.07">
<stop offset="0%" style="stop-color:rgb(178,114,63);stop-opacity: 1"/>
<stop offset="100%" style="stop-color:rgb(92,54,12);stop-opacity: 1"/>
</radialGradient>
<path style="stroke: rgb(0,0,0); stroke-width: 2.0921; stroke-dasharray: none; stroke-linecap: round; stroke-dashoffset: 0; stroke-linejoin: round; stroke-miterlimit: 4; fill: url(#SVGID_radialGradient2243_466); fill-rule: evenodd; opacity: 1;"  transform=" translate(-323, -551.07)" d="m 341.43 551.07 a 18.435 18.435 0 1 1 -36.87 0 a 18.435 18.435 0 1 1 36.87 0 z" stroke-linecap="round" />
</g>
		<g transform="matrix(0.41 0 0 0.42 -36.1 -74.14)" id="path3749"  >
<path style="stroke: none; stroke-width: 1; stroke-dasharray: none; stroke-linecap: butt; stroke-dashoffset: 0; stroke-linejoin: miter; stroke-miterlimit: 4; fill: rgb(0,0,0); fill-rule: evenodd; opacity: 1;"  transform=" translate(-323, -551.07)" d="m 341.43 551.07 a 18.435 18.435 0 1 1 -36.87 0 a 18.435 18.435 0 1 1 36.87 0 z" stroke-linecap="round" />
</g>
		<g transform="matrix(0.41 0 0 0.42 37.83 -74.14)" id="path3753"  >
<path style="stroke: none; stroke-width: 1; stroke-dasharray: none; stroke-linecap: butt; stroke-dashoffset: 0; stroke-linejoin: miter; stroke-miterlimit: 4; fill: rgb(0,0,0); fill-rule: evenodd; opacity: 1;"  transform=" translate(-323, -551.07)" d="m 341.43 551.07 a 18.435 18.435 0 1 1 -36.87 0 a 18.435 18.435 0 1 1 36.87 0 z" stroke-linecap="round" />
</g>
		<g transform="matrix(1 0 0 1 -38.36 -76.81)" id="path6555"  >
<linearGradient id="SVGID_linearGradient2245_467" gradientUnits="userSpaceOnUse" gradientTransform="matrix(0.96 0 0 0.98 -143.99 -381.72)"  x1="311.99" y1="539.97" x2="316.9" y2="545.5">
<stop offset="0%" style="stop-color:rgb(255,255,255);stop-opacity: 1"/>
<stop offset="100%" style="stop-color:rgb(255,255,255);stop-opacity: 0"/>
</linearGradient>
<path style="stroke: none; stroke-width: 1; stroke-dasharray: none; stroke-linecap: butt; stroke-dashoffset: 0; stroke-linejoin: miter; stroke-miterlimit: 4; fill: url(#SVGID_linearGradient2245_467); fill-rule: evenodd; opacity: 1;"  transform=" translate(-159.58, -149.73)" d="m 163.81 147.68 c -1.66 1.58 -4.28 3.94 -6.53 5.76 c -2 1.61 -3.47 1.05 -1.9 -3.9 c 0.33 -1.05 0.8 -1.6 1.47 -2.28 c 0.69 -0.71 1.26 -1.15 2.59 -1.51 c 5.27 -1.46 5.67 0.32 4.37 1.93 z" stroke-linecap="round" />
</g>
		<g transform="matrix(1 0 0 1 35.55 -76.77)" id="path13625"  >
<linearGradient id="SVGID_linearGradient2247_468" gradientUnits="userSpaceOnUse" gradientTransform="matrix(0.96 0 0 0.98 -70.07 -381.68)"  x1="312.34" y1="540.28" x2="316.54" y2="545.04">
<stop offset="0%" style="stop-color:rgb(255,255,255);stop-opacity: 1"/>
<stop offset="100%" style="stop-color:rgb(255,255,255);stop-opacity: 0"/>
</linearGradient>
<path style="stroke: none; stroke-width: 1; stroke-dasharray: none; stroke-linecap: butt; stroke-dashoffset: 0; stroke-linejoin: miter; stroke-miterlimit: 4; fill: url(#SVGID_linearGradient2247_468); fill-rule: evenodd; opacity: 1;"  transform=" translate(-233.5, -149.77)" d="m 237.73 147.72 c -1.66 1.58 -4.29 3.94 -6.54 5.76 c -1.99 1.61 -3.46 1.05 -1.9 -3.9 c 0.34 -1.05 0.8 -1.6 1.47 -2.28 c 0.7 -0.71 1.26 -1.15 2.59 -1.51 c 5.28 -1.46 5.68 0.32 4.38 1.93 z" stroke-linecap="round" />
</g>
		<g transform="matrix(1 0 0 1 1.13 -18.22)" id="path3733"  >
<path style="stroke: none; stroke-width: 1; stroke-dasharray: none; stroke-linecap: butt; stroke-dashoffset: 0; stroke-linejoin: miter; stroke-miterlimit: 4; fill: rgb(204,204,204); fill-rule: evenodd; opacity: 1;"  transform=" translate(-199.07, -208.31)" d="m 190.94 161.73 c -2.76 -0.27 -5.16 4.24 -8.57 2.09 c -1.25 2.48 -4.78 2.78 -7.45 3.32 c 0.93 4.14 -2.98 2.24 -5.1 3.37 c 3.24 6.58 -5.65 0.33 -4.55 5.55 c 4.57 5.66 -6.37 0.5 -3.49 6.26 c 4.59 3.56 -4.26 1.59 -3.57 5.19 c 1.48 0.7 3.76 2.87 0.91 4.38 c -3.09 -0.71 -4.68 2.96 -1.52 4.7 c 5.48 3.47 -7.45 8.1 -2.26 12.32 c 4.35 -0.75 0.56 3.48 0.28 6.05 c 3.33 -0.76 2.53 4 1.87 6.97 c 2.43 -0.46 1.9 3.77 1.85 6.61 c 3.25 -1.91 3.16 4 3.42 6.49 c 1.21 -0.37 3.28 1.37 3.08 4.34 c 1.78 0.25 3.61 3.24 3.93 6.35 c 3.87 -4.68 3.67 8.62 7.59 3.35 c 0.58 4.69 4.92 -0.33 6.52 2.66 c 4.5 2.47 9.47 3.36 14.37 3.16 c 0.28 0.01 0.55 0.01 0.83 0 c 0.27 0.01 0.54 0.01 0.81 0 c 4.9 0.2 9.89 -0.69 14.39 -3.16 c 1.6 -2.99 5.94 2.03 6.52 -2.66 c 3.92 5.27 3.72 -8.03 7.59 -3.35 c 0.32 -3.11 2.13 -6.1 3.91 -6.35 c -0.2 -2.97 1.89 -4.71 3.1 -4.34 c 0.26 -2.49 0.15 -8.4 3.4 -6.49 c -0.05 -2.84 -0.56 -7.07 1.87 -6.61 c -0.66 -2.97 -1.48 -7.73 1.85 -6.97 c -0.28 -2.57 -4.07 -6.8 0.28 -6.05 c 5.19 -4.22 -7.72 -8.85 -2.24 -12.32 c 3.16 -1.74 1.57 -5.41 -1.52 -4.7 c -2.85 -1.51 -0.57 -3.68 0.91 -4.38 c 0.69 -3.6 -8.16 -1.63 -3.57 -5.19 c 2.88 -5.76 -8.07 -0.6 -3.51 -6.26 c 1.1 -5.22 -7.77 1.03 -4.53 -5.55 c -2.12 -1.13 -6.03 0.77 -5.1 -3.37 c -2.67 -0.54 -6.22 -0.84 -7.46 -3.32 c -3.9 2.46 -6.49 -3.8 -9.79 -1.66 c -0.77 0.28 -1.5 0.42 -2.23 0.44 c -1.62 -0.84 -3.15 -0.8 -4.68 -0.57 c -1.53 -0.23 -3.07 -0.27 -4.7 0.57 c -0.73 -0.03 -1.46 -0.16 -2.23 -0.44 c -0.41 -0.26 -0.82 -0.39 -1.21 -0.43 z" stroke-linecap="round" />
</g>
		<g transform="matrix(1 0 0 1 -0.11 5.18)" id="path8327"  >
<path style="stroke: none; stroke-width: 1; stroke-dasharray: none; stroke-linecap: butt; stroke-dashoffset: 0; stroke-linejoin: miter; stroke-miterlimit: 4; fill: rgb(0,0,0); fill-rule: evenodd; opacity: 1;"  transform=" translate(-197.83, -231.71)" d="m 225.18 221.08 c -12.62 31.89 -39.56 29.06 -54.32 0.91 c -4.25 -8.11 8.83 7.75 22.63 12.03 c 4.11 1.27 3.51 -4.89 5.32 -4.89 c 1.71 0 0.69 6.45 5.33 4.97 c 13.25 -4.23 23.76 -19.88 21.04 -13.02 z" stroke-linecap="round" />
</g>
		<g transform="matrix(1 0 0 1 0.6 -28.38)" id="path2183"  >
<path style="stroke: none; stroke-width: 1; stroke-dasharray: none; stroke-linecap: butt; stroke-dashoffset: 0; stroke-linejoin: miter; stroke-miterlimit: 4; fill: rgb(0,0,0); fill-rule: evenodd; opacity: 1;"  transform=" translate(-198.54, -198.15)" d="m 180.05 172.12 c -16.64 19.75 -3.46 38.63 10.5 54.56 c 0.91 0.82 1.8 2.61 2.49 1.09 c 2.03 -8.36 10.08 -8.41 11.18 0.02 c 0.42 1.61 1.82 -0.41 2.48 -1.11 c 16.21 -17.23 25.59 -32.63 10.5 -54.56 c -4.25 -6.18 -11.73 -3.78 -18.58 -3.11 c -7.28 -1.2 -13.7 -2.68 -18.57 3.11 z" stroke-linecap="round" />
</g>
		<g transform="matrix(1 0 0 1 -46.96 -98.47)" id="path1906"  >
<path style="stroke: none; stroke-width: 1; stroke-dasharray: none; stroke-linecap: butt; stroke-dashoffset: 0; stroke-linejoin: miter; stroke-miterlimit: 4; fill: rgb(0,0,0); fill-rule: nonzero; opacity: 1;"  transform=" translate(-150.98, -128.06)" d="m 174.81 123.43 c -21.87 -5.65 -38.99 6.37 -54.91 19.56 c 13.28 -17.05 31.77 -28.83 53.65 -29.86 c 15.08 -0.17 6.6 4.53 1.26 10.3 z" stroke-linecap="round" />
</g>
		<g transform="matrix(1 0 0 1 47.78 -100.56)" id="path2799"  >
<path style="stroke: none; stroke-width: 1; stroke-dasharray: none; stroke-linecap: butt; stroke-dashoffset: 0; stroke-linejoin: miter; stroke-miterlimit: 4; fill: rgb(0,0,0); fill-rule: nonzero; opacity: 1;"  transform=" translate(-245.72, -125.97)" d="m 221.25 129.52 c 19.67 -11.11 39.31 -3.94 58.11 4.68 c -17.25 -13.03 -38.15 -19.62 -59.56 -14.96 c -14.61 3.74 -5.2 6.09 1.45 10.28 z" stroke-linecap="round" />
</g>
</g>
</g>
</svg>