<?xml version="1.0" encoding="UTF-8" standalone="no" ?>
<!DOCTYPE svg PUBLIC "-//W3C//DTD SVG 1.1//EN" "http://www.w3.org/Graphics/SVG/1.1/DTD/svg11.dtd">
<svg xmlns="http://www.w3.org/2000/svg" xmlns:xlink="http://www.w3.org/1999/xlink" version="1.1" width="400" height="400" viewBox="0 0 400 400" xml:space="preserve">
<desc>Created with Fabric.js 3.6.3</desc>
<defs>
</defs>
<rect x="0" y="0" width="100%" height="100%" fill="rgba(255, 255, 255, 1)"></rect>
<g transform="matrix(1 0 0 1 200 249.24)" style=""  >
		<text xml:space="preserve" font-family="'Open Sans', sans-serif" font-size="18" font-style="normal" font-weight="normal" style="stroke: none; stroke-width: 1; stroke-dasharray: none; stroke-linecap: butt; stroke-dashoffset: 0; stroke-linejoin: miter; stroke-miterlimit: 4; fill: rgb(0,0,0); fill-rule: nonzero; opacity: 1; white-space: pre;" ><tspan x="-108.5" y="5.97" style="font-size: 19px; font-weight: bold; ">Your Company Name</tspan></text>
</g>
<g transform="matrix(1 0 0 1 228.48 281.67)" style=""  >
		<text xml:space="preserve" font-family="'Open Sans', sans-serif" font-size="18" font-style="normal" font-weight="normal" style="stroke: none; stroke-width: 1; stroke-dasharray: none; stroke-linecap: butt; stroke-dashoffset: 0; stroke-linejoin: miter; stroke-miterlimit: 4; fill: rgb(0,0,0); fill-rule: nonzero; opacity: 1; white-space: pre;" ><tspan x="-81.99" y="5.65" >slogan here</tspan></text>
</g>
<g transform="matrix(0.28 0 0 0.26 198 165.53)"  >
<g style=""   >
		<g transform="matrix(1 0 0 1 143.03 -132.07)" id="Layer_1"  >
<path style="stroke: none; stroke-width: 1; stroke-dasharray: none; stroke-linecap: butt; stroke-dashoffset: 0; stroke-linejoin: miter; stroke-miterlimit: 4; fill: rgb(0,0,0); fill-rule: evenodd; opacity: 1;"  transform=" translate(-440.16, -109.46)" d="m 349.06 53.929 c 1.547 -1.323 -3.584 -5.02 -1 -8 c 11.887 0.113 14.661 9.339 24 12 c 0.352 -0.522 -5.311 -9.8 1 -11 c 6.357 2.309 7.766 9.568 18 8 c -5.394 -38.137 38.26 -60.775 66 -40 c 1.251 -2.083 2.449 -4.217 4 -6 c 3.341 0.908 4.891 -0.367 8 2 c 2.263 -0.737 2.188 -3.812 5 -4 c 3.664 -0.331 5.557 1.11 8 2 c 5.534 -1.133 10.966 -2.367 13 -7 c 26.828 -7.566 42.678 8.027 47 31 c -0.246 3.087 -1.014 5.653 -2 8 c 2.562 10.54 13.89 13.368 17 23 c 0.526 1.63 -0.809 4.302 0 6 c 7.61 15.985 32.795 16.571 37 36 c 1.142 15.929 -2.462 25.397 -11 37 c -3.22 -0.22 -4.231 1.769 -8 1 c -0.997 4.997 3.105 4.895 3 9 c -5.065 10.752 -12.598 7.938 -24 11 c -3.383 0.909 -6.824 4.535 -10 5 c -13.775 2.017 -18.298 -11.299 -29 -13 c -18.206 -2.893 -21.629 20.74 -39 23 c -2.886 9.658 1.228 18.888 4 26 c -1.763 0.903 -3.097 2.237 -4 4 c -4.602 -0.398 -4.904 -5.096 -8 -7 c -4.229 5.104 -5.597 13.07 -11 17 c -4.799 -5.655 3.642 -14.841 5 -23 c 2.111 -0.889 2.955 -3.044 6 -3 v -9 c 2.817 -8.44 8.519 -9.226 16 -14 c 16.212 -10.345 19.222 -29.49 48 -20 c 5.039 1.662 9.339 8.075 16 9 c 6.415 0.891 14.966 -2.998 22 -4 c -3.308 -9.698 -13.944 0 -21 -1 c -10.144 -1.438 -10.637 -12.019 -18 -17 c -6.378 -1.771 -16.696 -4.436 -13 -13 c 7.745 -1.192 11.87 8.167 19 11 c 11.161 4.435 27.274 3.489 34 -10 c -2.701 -7.248 -20.179 -12.503 -22 -21 c -2.105 -9.821 5.745 -12.894 14 -17 c -8.251 -7.619 -26.773 -15.688 -21 -28 c -13.457 -20.371 -24.148 -38.138 -50 -45 c -3.753 -0.753 -2.18 3.82 -5 4 c -3.834 -0.312 -5.372 -1.585 -10 -3 c -3.853 3.48 -9.169 5.498 -13 9 c -13.884 0.454 -24.978 -12.408 -39 -11 c -14.422 1.448 -23.191 15.013 -28 30 c 4.08 11.586 13.707 17.627 25 22 c -0.544 7.289 -7.223 3.211 -10 5 c -0.697 5.72 -3.552 14.128 -12 15 c 1.355 -6.496 4.69 -17.442 -5 -21 c -14.819 3.327 -25.765 19.145 -42 9 c 10.412 0.681 16.452 0.528 23 -4 c -8.548 -4.119 -17.734 -7.599 -24 -14 c -1.422 1.912 -3.088 3.578 -5 5 c -6.711 -1.956 -12.807 -4.527 -18 -8 c -1.459 2.208 -3.24 4.093 -5 6 c -11.43 -3.42 -27.19 -4.933 -38 -6 c 2.328 -10.711 22.775 0.933 28 -10 c 13.97 1.704 27.04 4.299 35 11.999 z m 146 -44 c 12.819 1.813 19.721 8.987 29 12 c 2.71 5.957 3.018 14.316 10 16 c -0.19 -22.741 -18.82 -39.267 -39 -28 z m 69 91.001 c 2.19 -2.092 2.06 -3.758 -1 -5 c -0.3 2.332 -2.13 4.31 1 5 z m 10 19 c -0.139 7.547 -0.778 6.106 -3 13 c 11.889 9.555 19.223 -11.578 13 -20 c -3.02 2.65 -6.14 5.19 -10 7 z m -30 27 c 4.745 1.256 13.561 0.147 19 -1 c -0.76 -8.2 -18.27 -5.58 -19 1 z" stroke-linecap="round" />
</g>
		<g transform="matrix(1 0 0 1 217.42 -219.42)" id="Layer_1"  >
<path style="stroke: none; stroke-width: 1; stroke-dasharray: none; stroke-linecap: butt; stroke-dashoffset: 0; stroke-linejoin: miter; stroke-miterlimit: 4; fill: rgb(255,255,255); fill-rule: evenodd; opacity: 1;"  transform=" translate(-514.56, -22.11)" d="m 534.06 37.929 c -6.982 -1.684 -7.29 -10.043 -10 -16 c -9.279 -3.013 -16.181 -10.187 -29 -12 c 20.18 -11.267 38.81 5.259 39 28 z" stroke-linecap="round" />
</g>
		<g transform="matrix(1 0 0 1 129.92 -198.9)" id="Layer_1"  >
<path style="stroke: none; stroke-width: 1; stroke-dasharray: none; stroke-linecap: butt; stroke-dashoffset: 0; stroke-linejoin: miter; stroke-miterlimit: 4; fill: rgb(0,0,0); fill-rule: evenodd; opacity: 1;"  transform=" translate(-427.06, -42.64)" d="m 443.06 31.929 c -5.311 3.356 -12.417 4.916 -18 8 c 2.104 6.769 7.294 14.988 -1 19 c -3.601 1.806 -5.676 -5.323 -11 -5 c -0.942 -6.392 -1.73 -12.936 -2 -20 c 7.79 -6.834 24.21 -12.678 32 -2 z" stroke-linecap="round" />
</g>
		<g transform="matrix(1 0 0 1 -77.58 -184.42)" id="Layer_1"  >
<path style="stroke: none; stroke-width: 1; stroke-dasharray: none; stroke-linecap: butt; stroke-dashoffset: 0; stroke-linejoin: miter; stroke-miterlimit: 4; fill: rgb(0,0,0); fill-rule: evenodd; opacity: 1;"  transform=" translate(-219.56, -57.11)" d="m 260.06 61.929 c -4.816 15.92 -21.81 -4.166 -30 5 c -17.595 -5.747 -36.135 -8.759 -51 -15 c 11.041 -7.521 27.038 3.685 40 4 c 2.372 -2.116 -5.427 -2.516 -3 -8 c 0.807 -0.86 2.739 -0.594 3 -2 c 13 6.004 22.25 15.755 41 16 z" stroke-linecap="round" />
</g>
		<g transform="matrix(1 0 0 1 -142.57 -183.08)" id="Layer_1"  >
<path style="stroke: none; stroke-width: 1; stroke-dasharray: none; stroke-linecap: butt; stroke-dashoffset: 0; stroke-linejoin: miter; stroke-miterlimit: 4; fill: rgb(0,0,0); fill-rule: evenodd; opacity: 1;"  transform=" translate(-154.56, -58.46)" d="m 184.06 61.929 c -18.779 -2.702 -41.678 1.566 -59 1 c 6.153 -5.793 25.646 -9 39 -9 c 7.74 0 20.32 0.607 20 8 z" stroke-linecap="round" />
</g>
		<g transform="matrix(1 0 0 1 -21.08 -181.95)" id="Layer_1"  >
<path style="stroke: none; stroke-width: 1; stroke-dasharray: none; stroke-linecap: butt; stroke-dashoffset: 0; stroke-linejoin: miter; stroke-miterlimit: 4; fill: rgb(0,0,0); fill-rule: evenodd; opacity: 1;"  transform=" translate(-276.06, -59.59)" d="m 288.06 54.929 c -0.851 9.58 -16.001 9.867 -24 9 c 4.67 -8.234 14.78 -6.978 24 -9 z" stroke-linecap="round" />
</g>
		<g transform="matrix(1 0 0 1 -193.16 -161.36)" id="Layer_1"  >
<path style="stroke: none; stroke-width: 1; stroke-dasharray: none; stroke-linecap: butt; stroke-dashoffset: 0; stroke-linejoin: miter; stroke-miterlimit: 4; fill: rgb(0,0,0); fill-rule: evenodd; opacity: 1;"  transform=" translate(-103.97, -80.18)" d="m 124.06 70.929 c 0.031 7.127 -8.014 4.739 -12 6 c -9.485 3 -19.216 8.968 -27 13 c -3.401 -1.891 1.712 -3.505 1 -6 c 11.72 -4.661 21.92 -16.029 38 -13 z" stroke-linecap="round" />
</g>
		<g transform="matrix(1 0 0 1 63.53 -148.61)" id="Layer_1"  >
<path style="stroke: none; stroke-width: 1; stroke-dasharray: none; stroke-linecap: butt; stroke-dashoffset: 0; stroke-linejoin: miter; stroke-miterlimit: 4; fill: rgb(0,0,0); fill-rule: evenodd; opacity: 1;"  transform=" translate(-360.67, -92.93)" d="m 374.06 79.929 c 3.562 2.051 -1.677 3.541 -3 4 c 0.426 1.907 2.857 1.81 2 5 c -8.797 5.87 -18.884 10.45 -27 17 c 3.523 -9.144 13.153 -12.18 21 -17 c -3.936 -3.561 -11.145 2.363 -15 -1 c 4.35 -7.335 15.77 -4.475 22 -8.001 z" stroke-linecap="round" />
</g>
		<g transform="matrix(1 0 0 1 -39.08 -117.73)" id="Layer_1"  >
<path style="stroke: none; stroke-width: 1; stroke-dasharray: none; stroke-linecap: butt; stroke-dashoffset: 0; stroke-linejoin: miter; stroke-miterlimit: 4; fill: rgb(0,0,0); fill-rule: evenodd; opacity: 1;"  transform=" translate(-258.06, -123.8)" d="m 254.06 100.93 c -2.25 -2.728 -7.075 4.237 -10 1 c 1.264 -8.016 13.033 -18.725 21 -20 c -4.507 6.493 -12.943 9.057 -17 16 c 3.142 1.768 6.719 -4.584 13 -3 c -3.806 9.86 -14.026 13.308 -16 25 c 4.796 -0.537 4.706 -5.961 10 -6 c -0.201 5.299 -7.863 10.443 -9 18 c 2.401 5.599 0.776 15.224 6 18 c 3.009 -1.395 -2.079 -5.176 1 -7 c 6.069 8.264 11.161 17.506 21 22 c -7.347 3.742 -15.465 -7.433 -19 -14 c -3.236 -1.236 -0.764 3.236 -4 2 c -12.888 -5.603 -3.1 -24.248 -9 -32 c 1.34 -9.33 6.23 -15.11 12 -20 z" stroke-linecap="round" />
</g>
		<g transform="matrix(1 0 0 1 107.8 -135.61)" id="Layer_1"  >
<path style="stroke: none; stroke-width: 1; stroke-dasharray: none; stroke-linecap: butt; stroke-dashoffset: 0; stroke-linejoin: miter; stroke-miterlimit: 4; fill: rgb(0,0,0); fill-rule: evenodd; opacity: 1;"  transform=" translate(-404.94, -105.93)" d="m 411.06 86.929 c -0.525 3.475 -3.352 4.648 -5 7 c 0.15 1.85 3.387 0.614 4 2 c 0.634 6.967 -5.135 7.532 -4 15 c 4.542 1.377 7.127 9.193 5 14 c -3.886 -7.237 -12.663 -14.616 -6 -24 c -2.02 -2.276 -3.323 4.62 -7 4 c 0.19 -6.295 5.15 -16.079 13 -18.001 z" stroke-linecap="round" />
</g>
		<g transform="matrix(1 0 0 1 -252.36 -99.1)" id="Layer_1"  >
<path style="stroke: none; stroke-width: 1; stroke-dasharray: none; stroke-linecap: butt; stroke-dashoffset: 0; stroke-linejoin: miter; stroke-miterlimit: 4; fill: rgb(0,0,0); fill-rule: evenodd; opacity: 1;"  transform=" translate(-44.77, -142.43)" d="m 70.065 103.93 c -1.613 0.168 -5.155 3.356 -6 1 c 3.855 -7.478 14.747 -7.919 23 -11 c 1.657 2.157 -2.218 5.187 -2 9 c -8.09 3.577 -15.863 7.47 -22 13 c 0.31 1.357 2.504 0.83 4 1 c -2.597 19.209 -29.487 10.477 -28 32 c -6.828 7.838 -14.041 15.293 -22 22 c -2.651 5.133 -7.419 16.494 -15 20 c 3.064 -11.603 10.088 -19.245 17 -27 c 7.791 -28.209 29.5 -42.5 50 -58 c 0.19 -0.81 1.003 -1 1 -2 z" stroke-linecap="round" />
</g>
		<g transform="matrix(1 0 0 1 266.77 -143.11)" id="Layer_1"  >
<path style="stroke: none; stroke-width: 1; stroke-dasharray: none; stroke-linecap: butt; stroke-dashoffset: 0; stroke-linejoin: miter; stroke-miterlimit: 4; fill: rgb(255,255,255); fill-rule: evenodd; opacity: 1;"  transform=" translate(-563.9, -98.43)" d="m 563.06 95.929 c 3.06 1.242 3.19 2.908 1 5 c -3.13 -0.69 -1.3 -2.668 -1 -5.001 z" stroke-linecap="round" />
</g>
		<g transform="matrix(1 0 0 1 76.36 -89.6)" id="Layer_1"  >
<path style="stroke: none; stroke-width: 1; stroke-dasharray: none; stroke-linecap: butt; stroke-dashoffset: 0; stroke-linejoin: miter; stroke-miterlimit: 4; fill: rgb(0,0,0); fill-rule: evenodd; opacity: 1;"  transform=" translate(-373.5, -151.93)" d="m 365.06 109.93 c -3.773 8.894 -11.735 13.598 -15 23 c 5.134 -1.533 5.496 -7.837 12 -8 c 2.215 8.324 -4.918 14.762 -4 25 c 3.543 -1.124 1.746 -7.587 8 -6 c -0.418 10.751 0.673 19.994 6 25 c 2.685 -1.457 -3.749 -5.223 0 -8 c 6.885 13.449 16.956 23.711 28 33 c -14.532 -1.834 -17.318 -19.508 -30 -20 c -3.585 -5.537 -7.532 -15.636 -7 -22 c -3.716 -0.382 -2.614 4.052 -7 3 c -2.943 -8.132 1.464 -17.064 3 -24 c -4.718 -1.361 -6.841 8.475 -12 10 c -1.4 -13.8 9.64 -23.65 18 -31 z" stroke-linecap="round" />
</g>
		<g transform="matrix(1 0 0 1 281.56 -117.39)" id="Layer_1"  >
<path style="stroke: none; stroke-width: 1; stroke-dasharray: none; stroke-linecap: butt; stroke-dashoffset: 0; stroke-linejoin: miter; stroke-miterlimit: 4; fill: rgb(255,255,255); fill-rule: evenodd; opacity: 1;"  transform=" translate(-578.69, -124.15)" d="m 584.06 112.93 c 6.223 8.422 -1.111 29.555 -13 20 c 2.222 -6.894 2.861 -5.453 3 -13 c 3.86 -1.81 6.98 -4.35 10 -7 z" stroke-linecap="round" />
</g>
		<g transform="matrix(1 0 0 1 124.92 -95.6)" id="Layer_1"  >
<path style="stroke: none; stroke-width: 1; stroke-dasharray: none; stroke-linecap: butt; stroke-dashoffset: 0; stroke-linejoin: miter; stroke-miterlimit: 4; fill: rgb(0,0,0); fill-rule: evenodd; opacity: 1;"  transform=" translate(-422.06, -145.93)" d="m 397.06 129.93 c 10.706 5.909 23.443 24.933 37 23 c 4.69 -0.668 5.806 -5.99 11 -5 c 0.509 5.842 -5.922 4.745 -7 9 c 1.7 2.443 6.494 -4.06 9 -1 c -2.604 4.396 -9.342 4.658 -15 6 c -2.116 -2.101 1.177 -3.899 2 -6 c -16.72 -4.28 -29.18 -12.82 -37 -26 z" stroke-linecap="round" />
</g>
		<g transform="matrix(1 0 0 1 256.42 -97.39)" id="Layer_1"  >
<path style="stroke: none; stroke-width: 1; stroke-dasharray: none; stroke-linecap: butt; stroke-dashoffset: 0; stroke-linejoin: miter; stroke-miterlimit: 4; fill: rgb(255,255,255); fill-rule: evenodd; opacity: 1;"  transform=" translate(-553.56, -144.15)" d="m 563.06 145.93 c -5.439 1.147 -14.255 2.256 -19 1 c 0.73 -6.58 18.24 -9.2 19 -1 z" stroke-linecap="round" />
</g>
		<g transform="matrix(1 0 0 1 162.42 -72.1)" id="Layer_1"  >
<path style="stroke: none; stroke-width: 1; stroke-dasharray: none; stroke-linecap: butt; stroke-dashoffset: 0; stroke-linejoin: miter; stroke-miterlimit: 4; fill: rgb(0,0,0); fill-rule: evenodd; opacity: 1;"  transform=" translate(-459.56, -169.43)" d="m 470.06 162.93 c 0.282 1.615 -0.945 1.722 -1 3 c 1.378 1.955 3.671 -3.596 8 -2 c -2.046 5.954 -6.728 9.272 -12 12 c -2.545 -0.122 -3.878 -1.456 -4 -4 c -9.075 -0.295 -15.25 -0.274 -19 -4 c 7 -7.63 17.93 -1.47 28 -5 z" stroke-linecap="round" />
</g>
		<g transform="matrix(1 0 0 1 -284.06 -42.42)" id="Layer_1"  >
<path style="stroke: none; stroke-width: 1; stroke-dasharray: none; stroke-linecap: butt; stroke-dashoffset: 0; stroke-linejoin: miter; stroke-miterlimit: 4; fill: rgb(0,0,0); fill-rule: evenodd; opacity: 1;"  transform=" translate(-13.07, -199.11)" d="m 24.065 178.93 c -9.132 11.663 -14.064 27.77 -19 41 c -9.285 -7.791 5.943 -24.052 7 -31 c 0.171 -1.124 -1.752 -3.493 -2 -3 c 2.323 -4.62 9.052 -9.38 14 -7 z" stroke-linecap="round" />
</g>
		<g transform="matrix(1 0 0 1 114.22 -45.1)" id="Layer_1"  >
<path style="stroke: none; stroke-width: 1; stroke-dasharray: none; stroke-linecap: butt; stroke-dashoffset: 0; stroke-linejoin: miter; stroke-miterlimit: 4; fill: rgb(0,0,0); fill-rule: evenodd; opacity: 1;"  transform=" translate(-411.36, -196.43)" d="m 403.06 180.93 c 5.558 4.907 7.779 14.454 12 21 c 2.125 3.296 6.101 5.743 4 10 c -7.75 -7.91 -12.96 -18.37 -16 -31 z" stroke-linecap="round" />
</g>
		<g transform="matrix(1 0 0 1 -177.37 -9.6)" id="Layer_1"  >
<path style="stroke: none; stroke-width: 1; stroke-dasharray: none; stroke-linecap: butt; stroke-dashoffset: 0; stroke-linejoin: miter; stroke-miterlimit: 4; fill: rgb(0,0,0); fill-rule: evenodd; opacity: 1;"  transform=" translate(-119.77, -231.93)" d="m 106.06 205.93 c 5.736 14.597 17.797 22.87 28 33 c -4.147 4.472 -9.737 -5.11 -17 -4 c 0.734 8.002 19.292 11.952 17 23 c -7.525 -9.475 -18.275 -15.725 -25 -26 c 1.882 -3.499 7.053 -1.049 10 0 c -0.28 -8.2 -17.6 -12.91 -13 -26 z" stroke-linecap="round" />
</g>
		<g transform="matrix(1 0 0 1 96.66 28.9)" id="Layer_1"  >
<path style="stroke: none; stroke-width: 1; stroke-dasharray: none; stroke-linecap: butt; stroke-dashoffset: 0; stroke-linejoin: miter; stroke-miterlimit: 4; fill: rgb(0,0,0); fill-rule: evenodd; opacity: 1;"  transform=" translate(-393.8, -270.43)" d="m 415.06 247.93 c 6.31 10.632 -9.224 23.634 -16 31 c -3.19 0.857 -3.093 -1.574 -5 -2 c -8.233 4.172 -13.667 16.236 -23 16 c 12.153 -9.514 18.042 -25.291 33 -32 c -0.056 3.277 -2.844 3.822 -2 8 c 6.61 -4.72 6.73 -15.94 13 -21 z" stroke-linecap="round" />
</g>
		<g transform="matrix(1 0 0 1 74.92 57.4)" id="Layer_1"  >
<path style="stroke: none; stroke-width: 1; stroke-dasharray: none; stroke-linecap: butt; stroke-dashoffset: 0; stroke-linejoin: miter; stroke-miterlimit: 4; fill: rgb(0,0,0); fill-rule: evenodd; opacity: 1;"  transform=" translate(-372.05, -298.93)" d="m 380.06 268.93 c -15.617 10.474 -8.012 32.205 -2 49 c -4.051 -3.949 -7.242 -8.758 -10 -14 c -2.511 10.485 8.429 15.106 6 25 c -4.269 -6.477 -10.317 -16.033 -10 -30 c 0.89 -0.776 2.258 -1.075 4 -1 c -2.66 -12.39 2.37 -29.09 12 -29 z" stroke-linecap="round" />
</g>
		<g transform="matrix(1 0 0 1 55.13 72.9)" id="Layer_1"  >
<path style="stroke: none; stroke-width: 1; stroke-dasharray: none; stroke-linecap: butt; stroke-dashoffset: 0; stroke-linejoin: miter; stroke-miterlimit: 4; fill: rgb(0,0,0); fill-rule: evenodd; opacity: 1;"  transform=" translate(-352.27, -314.43)" d="m 357.06 287.93 c -4.885 18.172 -4.805 40.723 0 53 c -13.83 -8.92 -11.68 -43.24 0 -53 z" stroke-linecap="round" />
</g>
		<g transform="matrix(1 0 0 1 -152.83 116.9)" id="Layer_1"  >
<path style="stroke: none; stroke-width: 1; stroke-dasharray: none; stroke-linecap: butt; stroke-dashoffset: 0; stroke-linejoin: miter; stroke-miterlimit: 4; fill: rgb(255,255,255); fill-rule: evenodd; opacity: 1;"  transform=" translate(-144.3, -358.43)" d="m 123.06 307.93 c 8.635 2.698 14.726 7.941 25 9 c -2.441 20.016 24.82 42.283 28 57 c 1.495 6.915 0.805 21.178 -6 22 c -1.14 0.138 -4.422 1.358 -6 2 c -6.131 2.492 -9.671 9.796 -19 11 c -15.779 -15.641 -35.186 -22.074 -33 -53 c 1.26 -17.79 13.86 -29.52 11 -48 z" stroke-linecap="round" />
</g>
		<g transform="matrix(1 0 0 1 -52.28 95.47)" id="Layer_1"  >
<path style="stroke: none; stroke-width: 1; stroke-dasharray: none; stroke-linecap: butt; stroke-dashoffset: 0; stroke-linejoin: miter; stroke-miterlimit: 4; fill: rgb(0,0,0); fill-rule: evenodd; opacity: 1;"  transform=" translate(-244.86, -337)" d="m 126.06 289.93 c 0.67 -9.346 -11.182 -14.812 -12 -26 c 9.396 1.271 10.606 10.728 15 17 c 2.635 -12.645 -8.709 -25.28 -12 -32 c 11.635 2.397 16.995 26.018 16 43 c 0.877 3.21 -2.593 2.073 -3 4 c 16.896 14.115 47.077 21.486 73 18 c 0.765 4.36 -5.023 5.477 -2 9 c 7.727 4.229 12.283 -8.17 19 -5 c 0.337 3.571 -4.229 4.932 -6 9 c 7.53 0.991 18.246 -8.216 25 -8 c -1.283 -7.717 -3.339 -14.661 -9 -18 c 0.142 -15.357 4.768 -32.607 -7 -18 c -2.782 -5.146 2.675 -10.637 4 -15 c -8.549 -22.505 -3.205 -42.552 16 -49 c -8.206 -3.031 -18.922 2.307 -27 1 c 2.497 -4.8 8.142 -3.917 12 -6 c 7.332 -3.958 12.043 -10.944 18 -16 c 0.64 -3.69 -3.118 -6.886 2 -7 c 5.286 10.71 -10.981 16.951 -16 24 c 4.021 1.327 11.8 -2.18 18 -2 c -1.751 10.582 -13.063 11.604 -19 18 c 0.982 2.802 2.668 -1.452 4 1 c 0.1 4.811 -3.742 8 -8 11 c -0.603 7.892 0.61 16.021 2 19 c 6.544 -3.789 1.398 -19.269 9 -22 c 2.995 12.66 -3.689 19.375 -7 30 c 2.615 -0.385 2.793 -3.206 7 -2 c -3.204 15.131 -1.645 24.27 3 38 c 1.199 3.544 3.73 9.41 5 12 c 3.249 6.624 7.914 7.507 9 15 c 2.252 15.531 -10.423 27.177 -15 43 c 0.019 1.633 5.651 -1.603 7 1 c -7.191 18.018 -5.569 39.28 4 57 c 0.691 1.337 2.667 -0.493 5 1 c 4.7 30.836 37.61 36.66 73 32 c 3.773 -0.227 2.597 -5.403 6 -6 c 3.1 -0.1 5.547 0.453 7 2 c 6.119 -6.491 12.953 -9.541 11 -21 c -2.402 -14.096 -18.948 -15.169 -25 -25 c -5.054 -8.211 -2.946 -17.33 -3 -26 c 1.754 -1.912 3.743 -3.591 7 -4 c -0.504 -7.439 2.979 -14.38 5 -19 c 4.284 -9.793 -1.759 -21.493 9 -25 c -1.154 -5.015 -8.261 -10.744 -4 -15 c 6.856 0.65 10.027 14.558 5 18 c 2.564 10.093 3.851 23.924 13 30 c 2.861 12 -2.494 17.611 0 27 c 5.711 21.494 31.347 23.839 58 26 c 3.988 0.988 3.012 -2.988 7 -2 c 7.049 2.585 11.926 2.985 21 2 c 1.311 -3.689 2.319 -7.681 6 -9 c 7.001 -1.765 8.034 4.677 13 2 c 4.418 -7.475 1.032 -12.132 0 -21 c -13.62 -12.327 -32.081 -14.984 -32 -38 c 0.088 -25.019 10.277 -43.54 -5 -61 c 1.177 -1.489 2.511 -2.823 4 -4 c -3.195 -10.805 -9.061 -18.939 -8 -34 c -2.16 -2.077 -5.513 7.274 -9 4 c 6.765 -8.568 9.301 -21.366 12 -34 c 2.275 -0.725 5.108 -0.892 7 -2 c 1.746 -9.25 -3.244 -16.524 -2 -22 c 6.456 6.029 5.072 12.148 6 22 c 8.055 -4.946 4.881 -21.119 16 -23 c 0.825 13.884 -11.8 22.823 -17 34 c -4.129 0.178 -2.971 -3.378 -4 -4 c -7.232 21.153 0.421 54.939 17 67 c -0.498 4.06 -4.171 6.049 -8 4 c 9.799 28.305 -14.008 58.19 11 74 c 13.216 2.451 21.148 10.186 21 26 c 8.275 4.25 18.359 11.379 15 24 c -7.293 -3.041 -14.212 -6.455 -22 -9 c -2.303 3.021 5.224 4.738 4 10 c -11.373 3.589 -20.64 -4.578 -31 0 c -2.271 0.834 1.992 6.144 -1 8 c -10 -0.334 -17.585 -3.082 -22 -9 c -33.656 2.073 -80.835 -3.841 -64 -47 c -3.249 -5.751 -7.542 -10.458 -12 -15 c -3.777 8.223 -4.765 19.235 -10 26 c -2.604 27.991 35.421 20.506 28 50 c 3.668 5.999 13.454 5.88 13 16 c -5.394 3.916 -13.68 -1.726 -20 -3 c -2.358 0.309 -1.86 3.473 -5 3 c 2.191 4.809 8.038 5.962 10 11 c -6.137 6.119 -18.936 -0.932 -27 0 c -0.773 3.897 3.697 5.185 1 8 c -10.744 1.353 -19.374 -7.628 -28 -9 c -5.306 -0.844 -9.494 1.257 -14 1 c -35.676 -2.033 -50.035 -34.896 -55 -65 c 1.073 -11.55 4.291 -16.647 5 -27 c -1.478 -1.855 -3.867 3.793 -7 1 c 7.089 -21.56 23.639 -41.018 4 -59 c -9.234 2.433 -16.742 6.592 -26 9 c -1.483 -0.85 -2.15 -2.517 -2 -5 c -2.147 1.854 -7.325 0.675 -11 1 c -2.18 -1.819 -1.82 -6.181 -4 -8 c -13.917 -0.686 -21.712 -1.594 -36 -4 c -0.042 29.15 37.604 44.693 24 73 c 6.687 3.979 15.301 6.032 16 16 c -8.462 -3.759 -17.19 -1.364 -25 -5 c 3.422 5.584 10.992 11.205 8 20 c -6.693 -3.64 -11.915 -8.751 -21 -10 c -2.432 0.817 1.982 5.272 -1 7 c -3.643 0.309 -6.508 -0.159 -9 -1 c -2.705 1.962 0.61 9.943 -2 12 c 5.173 5.494 12.873 8.461 13 19 c -10.591 -0.166 -13.883 -6.042 -21 -5 c 2.8 4.973 10.86 8.53 8 16 c -10.639 -5.273 -14.45 -8.588 -26 -6 c 0.553 4.113 2.866 6.468 3 11 c -6.518 3.624 -10.545 -6.115 -16 -7 c -4 -0.648 -9.145 2.857 -13 3 c -11.635 0.432 -31.048 -7.715 -38 -12 c -3.324 -2.049 -5.371 -6.273 -9 -8 c -1.404 -0.668 -4.802 0.422 -6 0 c -5.523 -1.946 -8.018 -7.003 -13 -9 c -3.164 -0.164 -3.342 2.658 -7 2 c -14.197 -23.934 -24.337 -53.831 -18 -81 c 0.715 -2.716 -4.715 0.716 -4 -2 c 4.301 -13.253 15.259 -25.808 15 -42 c -0.291 -18.18 -3.802 -35.813 -9 -53 c 0.194 -15.553 -3.938 -36.97 11 -43 c -2.673 9.087 -7.826 28.289 -4 44 c -0.715 1.622 4.715 1.622 4 0 c 3.856 11.158 9.981 22.318 11 35 c 1.625 20.22 -6.106 36.461 -18 50 c 4.512 11.534 -5.354 26.491 -2 38 c 1.869 1.958 3.663 0.309 6 0 c 1.744 11.659 1.059 22.198 5 33 c 3.775 0.851 4.695 -3.321 7 -1 c 2.967 7.033 7.213 12.787 13 17 c 3.821 0.821 1.179 -4.821 5 -4 c 12.799 14.595 35.129 28.995 57 28 c 3.277 -0.39 3.105 -4.228 5 -6 c 11.172 4.954 17.031 -5.879 28 -7 c 3.137 -4.345 2.591 -7.183 7 -11 c -2.953 -17.714 -14.014 -27.32 -28 -34 c -7.758 -16.509 -10.255 -36.323 -5 -53 c 1.196 -3.796 5.563 -6.324 7 -10 c 4.258 -10.89 0.891 -21.177 4 -32 c 3.983 -2.388 2.708 2.232 6 3 c -0.854 -6.813 -5.039 -10.295 -7 -16 c 0.279 -2.055 2.671 -1.996 4 -3 c 3.62 -0.28 2.29 4.38 4 6 z m -14 66 c -2.186 30.926 17.221 37.359 33 53 c 9.329 -1.204 12.869 -8.508 19 -11 c 1.578 -0.642 4.86 -1.862 6 -2 c 6.805 -0.822 7.495 -15.085 6 -22 c -3.18 -14.717 -30.441 -36.984 -28 -57 c -10.274 -1.059 -16.365 -6.302 -25 -9 c 2.86 18.48 -9.74 30.21 -11 48 z" stroke-linecap="round" />
</g>
		<g transform="matrix(1 0 0 1 196.49 -163.73)" id="Layer_1"  >
<path style="stroke: none; stroke-width: 1; stroke-dasharray: none; stroke-linecap: butt; stroke-dashoffset: 0; stroke-linejoin: miter; stroke-miterlimit: 4; fill: rgb(0,0,0); fill-rule: evenodd; opacity: 1;"  transform=" translate(-493.62, -77.81)" d="m 508.06 84.929 c -11.76 8.865 -33.48 1.789 -28 -12 c 5.5 -13.825 27.72 -2.033 28 12 z" stroke-linecap="round" />
</g>
</g>
</g>
</svg>