<?xml version="1.0" encoding="UTF-8" standalone="no" ?>
<!DOCTYPE svg PUBLIC "-//W3C//DTD SVG 1.1//EN" "http://www.w3.org/Graphics/SVG/1.1/DTD/svg11.dtd">
<svg xmlns="http://www.w3.org/2000/svg" xmlns:xlink="http://www.w3.org/1999/xlink" version="1.1" width="400" height="400" viewBox="0 0 400 400" xml:space="preserve">
<desc>Created with Fabric.js 3.6.3</desc>
<defs>
</defs>
<rect x="0" y="0" width="100%" height="100%" fill="rgba(255, 255, 255, 1)"></rect>
<g transform="matrix(1 0 0 1 200 249.24)" style=""  >
		<text xml:space="preserve" font-family="'Open Sans', sans-serif" font-size="18" font-style="normal" font-weight="normal" style="stroke: none; stroke-width: 1; stroke-dasharray: none; stroke-linecap: butt; stroke-dashoffset: 0; stroke-linejoin: miter; stroke-miterlimit: 4; fill: rgb(0,0,0); fill-rule: nonzero; opacity: 1; white-space: pre;" ><tspan x="-108.5" y="5.97" style="font-size: 19px; font-weight: bold; ">Your Company Name</tspan></text>
</g>
<g transform="matrix(1 0 0 1 228.48 281.67)" style=""  >
		<text xml:space="preserve" font-family="'Open Sans', sans-serif" font-size="18" font-style="normal" font-weight="normal" style="stroke: none; stroke-width: 1; stroke-dasharray: none; stroke-linecap: butt; stroke-dashoffset: 0; stroke-linejoin: miter; stroke-miterlimit: 4; fill: rgb(0,0,0); fill-rule: nonzero; opacity: 1; white-space: pre;" ><tspan x="-81.99" y="5.65" >slogan here</tspan></text>
</g>
<g transform="matrix(0.84 0 0 0.86 194.25 146.64)"  >
<g style=""   >
		<g transform="matrix(1 0 0 1 28.4 76)" id="path3003"  >
<path style="stroke: none; stroke-width: 1; stroke-dasharray: none; stroke-linecap: butt; stroke-dashoffset: 0; stroke-linejoin: miter; stroke-miterlimit: 4; fill: rgb(255,204,0); fill-rule: nonzero; opacity: 1;"  transform=" translate(-215.57, -377.91)" d="m 204.93 363.51 s 27.826 6.7988 25.586 18.94 c -2.1045 11.409 -18.725 12.749 -27.728 4.8988 c -6.1987 -5.4054 2.1415 -23.839 2.1415 -23.839 z" stroke-linecap="round" />
</g>
		<g transform="matrix(1 0 0 1 -28.7 76.24)" id="path3001"  >
<path style="stroke: none; stroke-width: 1; stroke-dasharray: none; stroke-linecap: butt; stroke-dashoffset: 0; stroke-linejoin: miter; stroke-miterlimit: 4; fill: rgb(255,204,0); fill-rule: nonzero; opacity: 1;"  transform=" translate(-158.48, -378.15)" d="m 168.54 363.75 s -26.32 6.7988 -24.202 18.94 c 1.9907 11.409 17.712 12.749 26.228 4.8988 c 5.8634 -5.4054 -2.0256 -23.839 -2.0256 -23.839 z" stroke-linecap="round" />
</g>
		<g transform="matrix(1 0 0 1 -1.86 -9.56)" id="path2985"  >
<path style="stroke: none; stroke-width: 1; stroke-dasharray: none; stroke-linecap: butt; stroke-dashoffset: 0; stroke-linejoin: miter; stroke-miterlimit: 4; fill: rgb(0,102,128); fill-rule: nonzero; opacity: 1;"  transform=" translate(-185.31, -292.35)" d="m 186.7 211.27 c -48.511 0.31829 -76.343 91.915 -59.771 137.51 c 6.6471 18.288 33.704 24.591 60.677 24.642 c 26.972 0.0518 49.119 -3.5955 56.424 -24.642 c 15.414 -44.41 -10.321 -137.82 -57.33 -137.51 z" stroke-linecap="round" />
</g>
		<g transform="matrix(1 0 0 1 -0.82 -5.42)" id="path2987"  >
<path style="stroke: none; stroke-width: 1; stroke-dasharray: none; stroke-linecap: butt; stroke-dashoffset: 0; stroke-linejoin: miter; stroke-miterlimit: 4; fill: rgb(255,255,255); fill-rule: nonzero; opacity: 1;"  transform=" translate(-186.35, -296.49)" d="m 187.39 221.74 c -38.994 0.29726 -57.673 87.886 -48.153 125.13 c 2.9956 11.722 29.078 23.993 47.476 24.354 c 18.398 0.36129 40.203 -6.1371 45.585 -24.354 c 11.373 -38.496 -4.2053 -125.44 -44.908 -125.13 z" stroke-linecap="round" />
</g>
		<g transform="matrix(1 0 0 1 2.41 -22.55)" id="path2993"  >
<path style="stroke: none; stroke-width: 1; stroke-dasharray: none; stroke-linecap: butt; stroke-dashoffset: 0; stroke-linejoin: miter; stroke-miterlimit: 4; fill: rgb(255,204,0); fill-rule: nonzero; opacity: 1;"  transform=" translate(-189.58, -279.36)" d="m 167.97 269.54 l 43.217 -3.5305 s 0.61454 22.976 -7.9232 26.126 c -13.106 4.8351 -35.294 -22.595 -35.294 -22.595 z" stroke-linecap="round" />
</g>
		<g transform="matrix(0.24 0 0 0.24 -10.54 -53.61)" id="path2995"  >
<path style="stroke: none; stroke-width: 1; stroke-dasharray: none; stroke-linecap: butt; stroke-dashoffset: 0; stroke-linejoin: miter; stroke-miterlimit: 4; fill: rgb(0,0,0); fill-rule: nonzero; opacity: 1;"  transform=" translate(-327.38, -341.13)" d="m 344.87 341.13 c 0 9.6614 -7.8321 17.493 -17.493 17.493 c -9.6614 0 -17.493 -7.8321 -17.493 -17.493 c 0 -9.6614 7.8321 -17.493 17.493 -17.493 c 9.6614 0 17.493 7.8321 17.493 17.493 z" stroke-linecap="round" />
</g>
		<g transform="matrix(0.24 0 0 0.24 -10.54 -53.61)" id="path2997"  >
<path style="stroke: none; stroke-width: 1; stroke-dasharray: none; stroke-linecap: butt; stroke-dashoffset: 0; stroke-linejoin: miter; stroke-miterlimit: 4; fill: rgb(0,0,0); fill-rule: nonzero; opacity: 1;"  transform=" translate(-327.38, -341.13)" d="m 344.87 341.13 c 0 9.6614 -7.8321 17.493 -17.493 17.493 c -9.6614 0 -17.493 -7.8321 -17.493 -17.493 c 0 -9.6614 7.8321 -17.493 17.493 -17.493 c 9.6614 0 17.493 7.8321 17.493 17.493 z" stroke-linecap="round" />
</g>
		<g transform="matrix(0.24 0 0 0.24 9.49 -53.61)" id="path2999"  >
<path style="stroke: none; stroke-width: 1; stroke-dasharray: none; stroke-linecap: butt; stroke-dashoffset: 0; stroke-linejoin: miter; stroke-miterlimit: 4; fill: rgb(0,0,0); fill-rule: nonzero; opacity: 1;"  transform=" translate(-327.38, -341.13)" d="m 344.87 341.13 c 0 9.6614 -7.8321 17.493 -17.493 17.493 c -9.6614 0 -17.493 -7.8321 -17.493 -17.493 c 0 -9.6614 7.8321 -17.493 17.493 -17.493 c 9.6614 0 17.493 7.8321 17.493 17.493 z" stroke-linecap="round" />
</g>
		<g transform="matrix(1 0 0 1 -72.11 -0.03)" id="path3005"  >
<path style="stroke: none; stroke-width: 1; stroke-dasharray: none; stroke-linecap: butt; stroke-dashoffset: 0; stroke-linejoin: miter; stroke-miterlimit: 4; fill: rgb(0,102,128); fill-rule: nonzero; opacity: 1;"  transform=" translate(-115.06, -301.88)" d="m 138.24 259.92 s -52.645 74.56 -45.724 81.748 c 12.266 12.738 40.181 -34.639 40.181 -34.639 z" stroke-linecap="round" />
</g>
		<g transform="matrix(1 0 0 1 72.1 5.51)" id="path3007"  >
<path style="stroke: none; stroke-width: 1; stroke-dasharray: none; stroke-linecap: butt; stroke-dashoffset: 0; stroke-linejoin: miter; stroke-miterlimit: 4; fill: rgb(0,102,128); fill-rule: nonzero; opacity: 1;"  transform=" translate(-259.28, -307.42)" d="m 236.1 265.46 s 52.645 74.56 45.724 81.748 c -12.266 12.738 -40.181 -34.639 -40.181 -34.639 z" stroke-linecap="round" />
</g>
</g>
</g>
</svg>