<?xml version="1.0" encoding="UTF-8" standalone="no" ?>
<!DOCTYPE svg PUBLIC "-//W3C//DTD SVG 1.1//EN" "http://www.w3.org/Graphics/SVG/1.1/DTD/svg11.dtd">
<svg xmlns="http://www.w3.org/2000/svg" xmlns:xlink="http://www.w3.org/1999/xlink" version="1.1" width="400" height="400" viewBox="0 0 400 400" xml:space="preserve">
<desc>Created with Fabric.js 3.6.3</desc>
<defs>
</defs>
<rect x="0" y="0" width="100%" height="100%" fill="rgba(255, 255, 255, 1)"></rect>
<g transform="matrix(1 0 0 1 200 249.24)" style=""  >
		<text xml:space="preserve" font-family="'Open Sans', sans-serif" font-size="18" font-style="normal" font-weight="normal" style="stroke: none; stroke-width: 1; stroke-dasharray: none; stroke-linecap: butt; stroke-dashoffset: 0; stroke-linejoin: miter; stroke-miterlimit: 4; fill: rgb(0,0,0); fill-rule: nonzero; opacity: 1; white-space: pre;" ><tspan x="-108.5" y="5.97" style="font-size: 19px; font-weight: bold; ">Your Company Name</tspan></text>
</g>
<g transform="matrix(1 0 0 1 228.48 281.67)" style=""  >
		<text xml:space="preserve" font-family="'Open Sans', sans-serif" font-size="18" font-style="normal" font-weight="normal" style="stroke: none; stroke-width: 1; stroke-dasharray: none; stroke-linecap: butt; stroke-dashoffset: 0; stroke-linejoin: miter; stroke-miterlimit: 4; fill: rgb(0,0,0); fill-rule: nonzero; opacity: 1; white-space: pre;" ><tspan x="-81.99" y="5.65" >slogan here</tspan></text>
</g>
<g transform="matrix(0.13 0 0 0.16 191.75 154.52)"  >
<g style=""   >
		<g transform="matrix(1 0 0 1 3.42 -72.85)" id="path3819"  >
<path style="stroke: rgb(0,0,0); stroke-width: 14; stroke-dasharray: none; stroke-linecap: round; stroke-dashoffset: 0; stroke-linejoin: round; stroke-miterlimit: 4; fill: rgb(236,235,228); fill-rule: evenodd; opacity: 1;"  transform=" translate(-642.71, -498.08)" d="m 435.41 547.7 c 49.774 76.219 359.35 81.2 413.39 6.3022 c 41.863 -58.014 -108.27 -164.45 -204.35 -165.43 c -94.847 -0.9672 -247.11 100.85 -209.05 159.13 z" stroke-linecap="round" />
</g>
		<g transform="matrix(1 0 0 1 3.81 -209.29)" id="path3817"  >
<path style="stroke: rgb(0,0,0); stroke-width: 14; stroke-dasharray: none; stroke-linecap: round; stroke-dashoffset: 0; stroke-linejoin: round; stroke-miterlimit: 4; fill: rgb(236,235,228); fill-rule: evenodd; opacity: 1;"  transform=" translate(-643.1, -361.64)" d="m 472.95 429.89 c 71.861 20.898 241.61 36.584 339.42 6.3233 c 32.289 -9.9894 7.9273 -77.959 -32.23 -116.84 c -40.157 -38.876 -96.11 -48.659 -135.55 -49.151 c -38.937 -0.48521 -94.557 7.0142 -135.69 44.737 s -67.78 105.67 -35.947 114.93 z" stroke-linecap="round" />
</g>
		<g transform="matrix(7.34 0 0 6.78 7.68 -341.24)" id="path3821"  >
<path style="stroke: rgb(0,0,0); stroke-width: 1.9854; stroke-dasharray: none; stroke-linecap: round; stroke-dashoffset: 0; stroke-linejoin: round; stroke-miterlimit: 4; fill: rgb(231,95,59); fill-rule: evenodd; opacity: 1;"  transform=" translate(-420.33, -905.05)" d="m 430.14 905.05 a 9.8131 8.9953 0 1 1 -19.626 0 a 9.8131 8.9953 0 1 1 19.626 0 z" stroke-linecap="round" />
</g>
		<g transform="matrix(1 0 0 1 10.27 239.95)" id="rect3825"  >
<path style="stroke: rgb(0,0,0); stroke-width: 14; stroke-dasharray: none; stroke-linecap: round; stroke-dashoffset: 0; stroke-linejoin: round; stroke-miterlimit: 4; fill: rgb(145,84,51); fill-rule: evenodd; opacity: 1;"  transform=" translate(-649.56, -810.88)" d="m 424.19 643.79 h 450.75 v 334.17 h -56.344 h -56.344 l -14.462 -151.03 h -96.957 l -93.149 -2.5383 l -20.808 153.57 h -56.344 h -56.344 v -334.17 z" stroke-linecap="round" />
</g>
		<g transform="matrix(1 0 0 1 0 60.98)" id="rect3823"  >
<rect style="stroke: rgb(0,0,0); stroke-width: 14; stroke-dasharray: none; stroke-linecap: round; stroke-dashoffset: 0; stroke-linejoin: round; stroke-miterlimit: 4; fill: rgb(145,84,51); fill-rule: evenodd; opacity: 1;"  x="-302.5" y="-62.56" rx="0" ry="0" width="605" height="125.12" />
</g>
		<g transform="matrix(1 0 0 1 52.52 -359.51)" id="path3827"  >
<path style="stroke: rgb(0,0,0); stroke-width: 14; stroke-dasharray: none; stroke-linecap: round; stroke-dashoffset: 0; stroke-linejoin: round; stroke-miterlimit: 4; fill: rgb(43,153,40); fill-rule: evenodd; opacity: 1;"  transform=" translate(-691.81, -211.42)" d="m 648.71 163.91 s 2.0662 44.187 13.711 58.598 c 14.73 18.23 71.983 36.426 71.983 36.426 s 3.2726 -41.554 -6.8555 -55.431 c -15.052 -20.622 -78.839 -39.593 -78.839 -39.593 z" stroke-linecap="round" />
</g>
</g>
</g>
</svg>